<svg xmlns="http://www.w3.org/2000/svg" viewBox="0 0 4680 3120"><defs><style>.cls-1{isolation:isolate;}.cls-2,.cls-42,.cls-9{fill:#fff;}.cls-2{opacity:0;}.cls-3{fill:#f5f5f7;}.cls-4{fill:#7a8db0;}.cls-4,.cls-5{fill-rule:evenodd;}.cls-34,.cls-5{fill:#facc88;}.cls-6{opacity:0.53;}.cls-7{fill:#9bb0c4;}.cls-15,.cls-7{opacity:0.6;}.cls-16,.cls-8{fill:#a2bcdb;}.cls-10{fill:#e6f1ff;}.cls-11{fill:#c2c2c2;}.cls-12{fill:#bbd6f2;}.cls-13{fill:#7b97b2;}.cls-14{fill:#898989;}.cls-15{fill:#c9c9c9;}.cls-16{opacity:0.25;}.cls-17{fill:#1d2f59;}.cls-18{fill:#88b0e2;}.cls-19{fill:#606060;}.cls-20{fill:#2e4ea4;}.cls-21{fill:#679bd3;}.cls-22{fill:#d1dbed;}.cls-23{fill:#6fc183;}.cls-24,.cls-26{fill:#419786;}.cls-24{opacity:0.56;}.cls-25{fill:#32776a;}.cls-27{fill:#f4aea2;}.cls-28{fill:#f18a8b;}.cls-29,.cls-30{fill:#5a80af;}.cls-30{opacity:0.48;}.cls-31{fill:#828282;}.cls-32{opacity:0.2;mix-blend-mode:multiply;}.cls-33{fill:#a5a5a5;}.cls-35{opacity:0.16;mix-blend-mode:overlay;}.cls-36{opacity:0.44;}.cls-37{fill:#f4a471;}.cls-38{fill:#5f7393;}.cls-39{fill:#f7f7f7;}.cls-40{fill:#0d0d0d;}.cls-41{fill:#d1696e;}.cls-42{opacity:0.22;}</style></defs><title>01</title><g class="cls-1"><g id="_01" data-name="01"><rect id="_01-2" data-name="01" class="cls-2" width="4680" height="3120"/><path class="cls-3" d="M2841.25,676a1157.94,1157.94,0,0,0-188.36,15.36C2461.56,428.24,2169.16,260,1841.41,260,1265,260,797.78,780.16,797.78,1421.8c0,541.4,332.66,996.31,782.85,1125.23,106.8,39.54,379.79,119.43,791.11,93.94,506.34-31.38,803.12-96.38,882.31-155.6,371.06-144.56,630.83-478,630.83-866.35C3884.88,1098.18,3417.63,676,2841.25,676Z"/><polygon class="cls-4" points="907.39 2536.05 658.65 2800.08 4019.48 2800.7 3744.55 2530.43 907.39 2536.05"/><path class="cls-5" d="M3531.18,1032.19l-11.6-4.15a11.43,11.43,0,0,1-7.6-11.62,120.13,120.13,0,0,0-1.46-29.4,11.47,11.47,0,0,1,6.42-12.33l11.14-5.27a11.6,11.6,0,0,0,5.51-15.43l-10.1-21.34a11.54,11.54,0,0,0-15.39-5.52L3497,932.41a11.47,11.47,0,0,1-13.62-2.85,118.86,118.86,0,0,0-21.77-19.75,11.52,11.52,0,0,1-4.15-13.27l4.15-11.61a11.58,11.58,0,0,0-7-14.79l-22.21-8a11.57,11.57,0,0,0-14.79,7l-4.15,11.6a11.43,11.43,0,0,1-11.6,7.63,118.34,118.34,0,0,0-29.36,1.46,11.46,11.46,0,0,1-12.31-6.44l-5.27-11.15a11.57,11.57,0,0,0-15.41-5.52l-21.33,10.1a11.58,11.58,0,0,0-5.48,15.43l5.25,11.15a11.5,11.5,0,0,1-2.83,13.62,119,119,0,0,0-19.74,21.8A11.48,11.48,0,0,1,3282.1,943l-11.59-4.16a11.54,11.54,0,0,0-14.78,7l-7.95,22.24a11.58,11.58,0,0,0,7,14.8l11.6,4.16A11.45,11.45,0,0,1,3274,998.7a117.57,117.57,0,0,0,1.46,29.38,11.51,11.51,0,0,1-6.43,12.34l-11.14,5.27a11.58,11.58,0,0,0-5.51,15.43l10.08,21.35a11.59,11.59,0,0,0,15.42,5.52l11.13-5.28a11.47,11.47,0,0,1,13.61,2.84,119.08,119.08,0,0,0,21.76,19.74,11.52,11.52,0,0,1,4.16,13.28l-4.16,11.6a11.63,11.63,0,0,0,7,14.82l22.22,7.94a11.54,11.54,0,0,0,14.78-7l4.15-11.61a11.48,11.48,0,0,1,11.62-7.62,118.21,118.21,0,0,0,29.34-1.45,11.46,11.46,0,0,1,12.33,6.43l5.26,11.15a11.59,11.59,0,0,0,15.42,5.53l21.3-10.11a11.59,11.59,0,0,0,5.51-15.42l-5.28-11.15a11.51,11.51,0,0,1,2.86-13.63,118.07,118.07,0,0,0,19.71-21.79,11.48,11.48,0,0,1,13.26-4.16l11.59,4.15a11.58,11.58,0,0,0,14.79-7l7.94-22.24A11.58,11.58,0,0,0,3531.18,1032.19Zm-75.11-13.58a64.05,64.05,0,1,1-31.63-66.9A64.09,64.09,0,0,1,3456.07,1018.61Z"/><g class="cls-6"><rect class="cls-7" x="1084.14" y="731.55" width="1881.73" height="1298.91" rx="26"/></g><path class="cls-8" d="M2825.18,703.6H1126.79c-44.32,0-80.24,38-80.24,84.82V1889.69c0,46.86,35.92,84.83,80.24,84.83H2825.18c44.33,0,80.24-38,80.24-84.83V788.42C2905.42,741.57,2869.51,703.6,2825.18,703.6Z"/><path class="cls-8" d="M2825.18,703.6H1126.79c-44.32,0-80.24,38-80.24,84.82v87.77H2905.42V788.42C2905.42,741.57,2869.51,703.6,2825.18,703.6Z"/><path class="cls-9" d="M1269.63,739.23c-12.19,0-22.07,9.62-22.07,21.48s9.88,21.48,22.07,21.48,22.07-9.62,22.07-21.48S1281.82,739.23,1269.63,739.23Z"/><path class="cls-9" d="M1212.07,739.23c-12.19,0-22.07,9.62-22.07,21.48s9.88,21.48,22.07,21.48,22.07-9.62,22.07-21.48S1224.26,739.23,1212.07,739.23Z"/><path class="cls-9" d="M1153,739.23c-12.19,0-22.07,9.62-22.07,21.48s9.88,21.48,22.07,21.48,22.07-9.62,22.07-21.48S1165.22,739.23,1153,739.23Z"/><rect class="cls-10" x="1130.21" y="802.8" width="1693.86" height="1072.16"/><rect class="cls-8" x="1310.79" y="946.05" width="176.2" height="24.95" rx="11.9"/><rect class="cls-8" x="1542.78" y="946.05" width="360.58" height="24.95" rx="11.9"/><rect class="cls-9" x="1385.59" y="1047.02" width="176.2" height="24.95" rx="11.9"/><rect class="cls-9" x="1385.59" y="1140.73" width="176.2" height="24.95" rx="11.9"/><rect class="cls-9" x="1385.59" y="1234.44" width="176.2" height="24.95" rx="11.9"/><rect class="cls-9" x="1385.59" y="1328.15" width="176.2" height="24.95" rx="11.9"/><rect class="cls-11" x="1310.79" y="1427.31" width="176.2" height="24.95"/><rect class="cls-8" x="1542.78" y="1427.31" width="360.58" height="24.95" rx="11.9"/><rect class="cls-9" x="2329.73" y="1528.27" width="325.59" height="24.95" rx="11.9"/><rect class="cls-9" x="2329.73" y="1621.99" width="325.59" height="24.95" rx="11.9"/><rect class="cls-9" x="2329.73" y="1715.7" width="325.59" height="24.95" rx="11.9"/><path class="cls-12" d="M1834.59,1044.92H1664.9a12.46,12.46,0,0,0-12.46,12.47v7.22a12.46,12.46,0,0,0,12.46,12.47h169.69a12.46,12.46,0,0,0,12.46-12.47v-7.22A12.46,12.46,0,0,0,1834.59,1044.92Z"/><path class="cls-9" d="M2175.39,1044.92H2005.7a12.46,12.46,0,0,0-12.45,12.47v7.22a12.46,12.46,0,0,0,12.45,12.47h169.69a12.46,12.46,0,0,0,12.46-12.47v-7.22A12.46,12.46,0,0,0,2175.39,1044.92Z"/><rect class="cls-12" x="1648.74" y="1133.46" width="358.7" height="32.15" rx="12.46"/><path class="cls-12" d="M2392.14,1138.07H2058.35a12.46,12.46,0,0,0-12.45,12.47v7.21a12.46,12.46,0,0,0,12.45,12.47h333.79a12.46,12.46,0,0,0,12.46-12.47v-7.21A12.47,12.47,0,0,0,2392.14,1138.07Z"/><path class="cls-12" d="M2608.76,1231.22H2275a12.46,12.46,0,0,0-12.46,12.47v7.2a12.46,12.46,0,0,0,12.46,12.47h333.79a12.46,12.46,0,0,0,12.45-12.47v-7.2A12.46,12.46,0,0,0,2608.76,1231.22Z"/><path class="cls-9" d="M1951,1324.36H1631.5a12.46,12.46,0,0,0-12.46,12.47v7.2a12.47,12.47,0,0,0,12.46,12.48H1951a12.47,12.47,0,0,0,12.46-12.48v-7.2A12.46,12.46,0,0,0,1951,1324.36Z"/><path class="cls-12" d="M2174.6,1231.22H1652.92a12.46,12.46,0,0,0-12.46,12.47v7.2a12.46,12.46,0,0,0,12.46,12.47H2174.6a12.46,12.46,0,0,0,12.45-12.47v-7.2A12.46,12.46,0,0,0,2174.6,1231.22Z"/><path class="cls-13" d="M2643.38,1324.36H2121.71a12.46,12.46,0,0,0-12.46,12.47v7.2a12.47,12.47,0,0,0,12.46,12.48h521.67a12.47,12.47,0,0,0,12.46-12.48v-7.2A12.46,12.46,0,0,0,2643.38,1324.36Z"/><path class="cls-13" d="M1946.86,1044.92h-63.38a12.46,12.46,0,0,0-12.46,12.47v7.22a12.46,12.46,0,0,0,12.46,12.47h63.38a12.46,12.46,0,0,0,12.46-12.47v-7.22A12.46,12.46,0,0,0,1946.86,1044.92Z"/><path class="cls-9" d="M2294.2,1044.92h-63.39a12.46,12.46,0,0,0-12.45,12.47v7.22a12.46,12.46,0,0,0,12.45,12.47h63.39a12.46,12.46,0,0,0,12.45-12.47v-7.22A12.46,12.46,0,0,0,2294.2,1044.92Z"/><path class="cls-9" d="M2414.23,1044.92h-63.37a12.46,12.46,0,0,0-12.46,12.47v7.22a12.46,12.46,0,0,0,12.46,12.47h63.37a12.46,12.46,0,0,0,12.45-12.47v-7.22A12.46,12.46,0,0,0,2414.23,1044.92Z"/><path class="cls-12" d="M2502.52,1138.07h-63.38a12.47,12.47,0,0,0-12.46,12.47v7.21a12.46,12.46,0,0,0,12.46,12.47h63.38a12.46,12.46,0,0,0,12.46-12.47v-7.21A12.47,12.47,0,0,0,2502.52,1138.07Z"/><path class="cls-13" d="M2720.52,1231.22h-63.37a12.46,12.46,0,0,0-12.46,12.47v7.2a12.46,12.46,0,0,0,12.46,12.47h63.37a12.46,12.46,0,0,0,12.45-12.47v-7.2A12.46,12.46,0,0,0,2720.52,1231.22Z"/><path class="cls-12" d="M2069.07,1324.36H2005.7a12.46,12.46,0,0,0-12.45,12.47v7.2a12.46,12.46,0,0,0,12.45,12.48h63.37a12.46,12.46,0,0,0,12.45-12.48v-7.2A12.46,12.46,0,0,0,2069.07,1324.36Z"/><path class="cls-12" d="M2614.28,1138.07H2550.9a12.47,12.47,0,0,0-12.46,12.47v7.21a12.46,12.46,0,0,0,12.46,12.47h63.38a12.46,12.46,0,0,0,12.46-12.47v-7.21A12.47,12.47,0,0,0,2614.28,1138.07Z"/><path class="cls-13" d="M2250.87,1524.35H1937.64a12.46,12.46,0,0,0-12.46,12.47v6.47a12.46,12.46,0,0,0,12.46,12.47h313.23a12.46,12.46,0,0,0,12.46-12.47v-6.47A12.46,12.46,0,0,0,2250.87,1524.35Z"/><path class="cls-12" d="M1894.47,1524.35H1581.23a12.46,12.46,0,0,0-12.45,12.47v6.47a12.46,12.46,0,0,0,12.45,12.47h313.24a12.46,12.46,0,0,0,12.46-12.47v-6.47A12.46,12.46,0,0,0,1894.47,1524.35Z"/><path class="cls-12" d="M1690.26,1615.36H1377a12.46,12.46,0,0,0-12.46,12.47v6.48a12.46,12.46,0,0,0,12.46,12.47h313.23a12.46,12.46,0,0,0,12.46-12.47v-6.48A12.46,12.46,0,0,0,1690.26,1615.36Z"/><path class="cls-12" d="M2252.27,1706.36H1997.09a12.47,12.47,0,0,0-12.46,12.48v6.48a12.46,12.46,0,0,0,12.46,12.47h255.18a12.46,12.46,0,0,0,12.46-12.47v-6.48A12.47,12.47,0,0,0,2252.27,1706.36Z"/><path class="cls-12" d="M2251,1616.89H1760.6a12.47,12.47,0,0,0-12.46,12.48v6.48a12.46,12.46,0,0,0,12.46,12.47H2251a12.46,12.46,0,0,0,12.46-12.47v-6.48A12.47,12.47,0,0,0,2251,1616.89Z"/><path class="cls-13" d="M1834.75,1706.36H1344.39a12.47,12.47,0,0,0-12.46,12.48v6.48a12.46,12.46,0,0,0,12.46,12.47h490.36a12.46,12.46,0,0,0,12.45-12.47v-6.48A12.46,12.46,0,0,0,1834.75,1706.36Z"/><rect class="cls-12" x="1464.71" y="1524.35" width="83.24" height="31.41" rx="12.46"/><rect class="cls-14" x="1259.21" y="1615.36" width="83.22" height="31.43"/><path class="cls-9" d="M1940.87,1706.36H1889a15.72,15.72,0,0,0,0,31.43h51.84a15.72,15.72,0,0,0,0-31.43Z"/><rect class="cls-14" x="1359.36" y="1524.35" width="83.24" height="31.41"/><polygon class="cls-9" points="1235.23 1059.12 1273.91 1079.98 1273.91 1073.96 1241.31 1056.85 1241.31 1056.68 1273.91 1039.58 1273.91 1033.55 1235.23 1054.41 1235.23 1059.12"/><polygon class="cls-9" points="1279.35 1083.47 1284.94 1083.47 1308.28 1020.2 1302.61 1020.2 1279.35 1083.47"/><polygon class="cls-9" points="1313.55 1039.58 1346.39 1056.68 1346.39 1056.85 1313.55 1073.96 1313.55 1079.98 1352.23 1059.21 1352.23 1054.32 1313.55 1033.55 1313.55 1039.58"/><rect class="cls-15" x="721.83" y="1385.97" width="765.33" height="452.69" rx="14.44"/><rect class="cls-9" x="699.1" y="1367" width="765.33" height="452.69" rx="14.44"/><ellipse class="cls-8" cx="874.22" cy="1444.13" rx="36.2" ry="36.25"/><path class="cls-8" d="M879.27,1485.44c-44.2-.84-56,21.5-56,21.5v62.8H926v-63.22S923.47,1486.28,879.27,1485.44Z"/><rect class="cls-8" x="1009.77" y="1430.86" width="298.68" height="8.85" rx="4.22"/><rect class="cls-8" x="745.4" y="1614.63" width="653.04" height="8.85" rx="4.22"/><rect class="cls-8" x="750.03" y="1661.84" width="653.04" height="8.85" rx="4.22"/><rect class="cls-8" x="748.35" y="1709.46" width="461.39" height="8.85" rx="4.22"/><rect class="cls-8" x="746.24" y="1759.62" width="279.32" height="8.85" rx="4.22"/><rect class="cls-8" x="1010.72" y="1475.11" width="227.17" height="8.85" rx="4.22"/><rect class="cls-8" x="1010.72" y="1519.37" width="191.02" height="8.85" rx="4.22"/><rect class="cls-16" x="2551.81" y="1080.48" width="1071.81" height="726.96" rx="14"/><path class="cls-17" d="M1727.31,2675.25a34,34,0,0,0,32.13,33.94l728,39a139.8,139.8,0,0,0,57.47-9l257.42-98.6a34,34,0,0,0,21.82-31.74v-37.92l-1096.83,90.05Z"/><polygon class="cls-18" points="1727.31 2660.92 2517.12 2687.8 2824.14 2570.87 1947.01 2544.61 1727.31 2660.92"/><polygon class="cls-9" points="2599.35 2610.11 2591.47 2609.82 2591.42 2609.82 2482.33 2606.31 2500.49 2643.6 2501.3 2645.27 2501.81 2646.3 2502.73 2648.2 2514.11 2671.62 2571.13 2650.27 2571.18 2650.27 2578.31 2647.62 2621.82 2631.4 2628.95 2628.69 2672.4 2612.46 2599.41 2610.11 2599.35 2610.11"/><polygon class="cls-19" points="2547.28 2626.22 2502.39 2624.84 2502.27 2627.71 2540.15 2628.87 2548.08 2629.09 2621.82 2631.4 2628.95 2628.69 2555.26 2626.45 2547.28 2626.22"/><polygon class="cls-19" points="2501.3 2645.27 2499.8 2645.21 2500.38 2646.82 2501.81 2646.3 2502.73 2648.2 2571.13 2650.27 2571.18 2650.27 2578.31 2647.62 2504.28 2645.38 2501.3 2645.27"/><polygon class="cls-19" points="2591.42 2609.82 2547.28 2626.22 2540.15 2628.87 2500.49 2643.6 2499.34 2644 2499.8 2645.21 2500.38 2646.82 2501.81 2646.3 2504.28 2645.38 2548.08 2629.09 2548.14 2629.09 2555.26 2626.45 2555.32 2626.45 2599.35 2610.11 2591.47 2609.82 2591.42 2609.82"/><path class="cls-20" d="M2345.14,2116.77l-606.35-20.63c-50.66-1.73-85.9,38.55-78.7,90l67.07,479L2517,2692l-67.07-479C2442.71,2161.57,2395.8,2118.5,2345.14,2116.77Z"/><path class="cls-9" d="M2058.93,2394.05a56.88,56.88,0,1,0,56.81,56.88A56.85,56.85,0,0,0,2058.93,2394.05Z"/><path class="cls-21" d="M3087.89,1409.84H2754a15.78,15.78,0,0,0-15.77,15.79v205a15.78,15.78,0,0,0,15.77,15.8h333.88a15.78,15.78,0,0,0,15.78-15.8v-205A15.78,15.78,0,0,0,3087.89,1409.84Z"/><path class="cls-20" d="M3087.89,1409.84H2754a15.78,15.78,0,0,0-15.77,15.79V1442h365.43v-16.34A15.78,15.78,0,0,0,3087.89,1409.84Z"/><path class="cls-9" d="M2801.44,1416.9a9,9,0,1,0,9,9A9,9,0,0,0,2801.44,1416.9Z"/><path class="cls-22" d="M2778,1416.9a9,9,0,1,0,9,9A9,9,0,0,0,2778,1416.9Z"/><path class="cls-17" d="M2753.92,1416.9a9,9,0,1,0,9,9A9,9,0,0,0,2753.92,1416.9Z"/><path class="cls-9" d="M2838.41,1505a41.58,41.58,0,0,1,17.89,3.69l2.76-9.36c-3-1.58-10-3.94-21-3.94-27.49,0-46.3,18.83-46.3,46.62,0,29.11,18.81,44.91,43.8,44.91,10.79,0,19.21-2.1,23.42-4.21l-2.37-9.09c-4.6,2.24-11.71,3.69-18.68,3.69-21.57,0-34.07-14-34.07-35.7C2803.81,1518.27,2817.62,1505,2838.41,1505Z"/><polygon class="cls-9" points="2906.68 1515.51 2898.26 1515.51 2898.26 1546.46 2868.53 1546.46 2868.53 1554.36 2898.26 1554.36 2898.26 1585.58 2906.68 1585.58 2906.68 1554.36 2936.41 1554.36 2936.41 1546.46 2906.68 1546.46 2906.68 1515.51"/><polygon class="cls-9" points="2985.09 1515.51 2976.67 1515.51 2976.67 1546.46 2946.94 1546.46 2946.94 1554.36 2976.67 1554.36 2976.67 1585.58 2985.09 1585.58 2985.09 1554.36 3014.82 1554.36 3014.82 1546.46 2985.09 1546.46 2985.09 1515.51"/><path class="cls-21" d="M3811.42,1030H3457.54a16.72,16.72,0,0,0-16.71,16.74V1264a16.72,16.72,0,0,0,16.71,16.74h353.88a16.73,16.73,0,0,0,16.72-16.74V1046.7A16.73,16.73,0,0,0,3811.42,1030Z"/><path class="cls-20" d="M3811.42,1030H3457.54a16.72,16.72,0,0,0-16.71,16.74V1064h387.31V1046.7A16.73,16.73,0,0,0,3811.42,1030Z"/><path class="cls-9" d="M3507.81,1037.45a9.55,9.55,0,1,0,9.53,9.54A9.54,9.54,0,0,0,3507.81,1037.45Z"/><path class="cls-22" d="M3483,1037.45a9.55,9.55,0,1,0,9.53,9.54A9.54,9.54,0,0,0,3483,1037.45Z"/><path class="cls-17" d="M3457.45,1037.45A9.55,9.55,0,1,0,3467,1047,9.54,9.54,0,0,0,3457.45,1037.45Z"/><polygon class="cls-9" points="3554.99 1163.45 3520.03 1163.45 3520.03 1133.17 3510.69 1133.17 3510.69 1205.55 3520.03 1205.55 3520.03 1171.61 3554.99 1171.61 3554.99 1205.55 3564.43 1205.55 3564.43 1133.17 3554.99 1133.17 3554.99 1163.45"/><polygon class="cls-9" points="3572.37 1141.11 3594.36 1141.11 3594.36 1205.55 3603.8 1205.55 3603.8 1141.11 3625.89 1141.11 3625.89 1133.17 3572.37 1133.17 3572.37 1141.11"/><path class="cls-9" d="M3689.39,1133.17l-12.87,35c-3.22,9.13-5.79,17.07-7.61,24.37h-.33c-1.82-7.51-4.28-15.46-7.29-24.37l-12.33-35h-11.91l-5,72.38h8.9l1.93-31c.64-10.84,1.18-23,1.4-32h.21c2,8.59,4.93,17.94,8.37,28.14l11.69,34.47h7.08l12.76-35.12c3.65-10,6.65-19,9.12-27.49h.32c-.11,9,.53,21.16,1.07,31.25l1.83,31.79h9.11l-4.5-72.38Z"/><polygon class="cls-9" points="3729.51 1133.17 3720.18 1133.17 3720.18 1205.55 3760.4 1205.55 3760.4 1197.71 3729.51 1197.71 3729.51 1133.17"/><path class="cls-5" d="M3850.28,1721.87l-23.64-8.46a23.37,23.37,0,0,1-15.5-23.7,244.82,244.82,0,0,0-3-59.91,23.36,23.36,0,0,1,13.08-25.14l22.7-10.76a23.63,23.63,0,0,0,11.24-31.44L3834.61,1519a23.53,23.53,0,0,0-31.37-11.25l-22.7,10.76a23.36,23.36,0,0,1-27.75-5.8,241.75,241.75,0,0,0-44.39-40.25,23.45,23.45,0,0,1-8.44-27.05l8.44-23.67a23.61,23.61,0,0,0-14.27-30.17l-45.28-16.21a23.56,23.56,0,0,0-30.13,14.28l-8.47,23.65a23.31,23.31,0,0,1-23.65,15.56,241.23,241.23,0,0,0-59.83,3,23.38,23.38,0,0,1-25.11-13.13l-10.75-22.72a23.57,23.57,0,0,0-31.4-11.26L3416,1405.24a23.63,23.63,0,0,0-11.17,31.46l10.7,22.74a23.44,23.44,0,0,1-5.77,27.76,242.12,242.12,0,0,0-40.25,44.44,23.36,23.36,0,0,1-27,8.49l-23.63-8.47a23.53,23.53,0,0,0-30.13,14.26l-16.19,45.34a23.57,23.57,0,0,0,14.26,30.16l23.65,8.49a23.36,23.36,0,0,1,15.51,23.68,239.44,239.44,0,0,0,3,59.9,23.46,23.46,0,0,1-13.12,25.15l-22.7,10.75a23.59,23.59,0,0,0-11.23,31.44l20.55,43.53a23.62,23.62,0,0,0,31.43,11.25l22.69-10.77a23.39,23.39,0,0,1,27.74,5.8,242,242,0,0,0,44.35,40.23,23.49,23.49,0,0,1,8.49,27.08l-8.47,23.64A23.69,23.69,0,0,0,3443,1951.8l45.29,16.19a23.55,23.55,0,0,0,30.14-14.29l8.45-23.66a23.36,23.36,0,0,1,23.69-15.53,241,241,0,0,0,59.8-3,23.37,23.37,0,0,1,25.15,13.11l10.71,22.73a23.62,23.62,0,0,0,31.43,11.26l43.43-20.6a23.62,23.62,0,0,0,11.23-31.44l-10.76-22.72a23.44,23.44,0,0,1,5.82-27.78,241.23,241.23,0,0,0,40.19-44.43,23.39,23.39,0,0,1,27-8.48l23.63,8.46a23.59,23.59,0,0,0,30.14-14.29l16.19-45.33A23.61,23.61,0,0,0,3850.28,1721.87Zm-153.11-27.69c-16.29,89.14-113.58,135.26-192.73,91.35-48-26.6-74.35-82.43-64.49-136.42,16.27-89.15,113.57-135.23,192.75-91.31C3680.64,1584.38,3707,1640.21,3697.17,1694.18Z"/><path class="cls-23" d="M3314.41,1566.66l-213.85-5.74s-187.12,5.74-357.06,225.59l-148.93-7.64s-202.4,239-82.11,464.56c0,0,93.56,174,294.05,22.94,0,0-24.82,212.2-15.27,263.82l811.49,3.82V2409.75s200.49-47.8,200.49-277.21S3591.28,1618.28,3314.41,1566.66Z"/><path class="cls-9" d="M3100.56,1560.92l-63,7.65c7.64,193.09,82.1,179.71,82.1,179.71l74.47-74.56C3100.56,1645,3100.56,1560.92,3100.56,1560.92Z"/><path class="cls-9" d="M3203.67,1671.81s28.64,95.59,51.55,95.59,124.11-17.21,127.93-185.45l-68.74-15.29S3303,1671.81,3203.67,1671.81Z"/><path class="cls-24" d="M3453.8,2058c-74.47,45.89-108.84,49.71-108.84,49.71l173.76,19.12-19.86-172.74C3497.86,1994.39,3487.71,2037.09,3453.8,2058Z"/><path class="cls-24" d="M3488.17,1861.07l10.69,93C3500.06,1905.87,3488.17,1861.07,3488.17,1861.07Z"/><path class="cls-25" d="M3112,2308.43s102.47-57.36,40.09-221.77C3152.11,2086.66,3059.19,2209,3112,2308.43Z"/><path class="cls-26" d="M2580.16,2242.2c-65.28-83.29-42.1-215.21-41.86-216.53l-2-.37c-.25,1.33-23.59,134.14,42.26,218.17,32.67,41.68,81.73,64.74,145.82,68.54l.12-2.07C2661,2306.18,2612.45,2283.39,2580.16,2242.2Z"/><path class="cls-26" d="M2933,1656.57c-53.83,30.88-127.68,85.15-173.83,168.31l1.81,1c45.91-82.73,119.42-136.75,173-167.5,58.1-33.33,106-47.26,106.43-47.4l-.57-2C3039.33,1609.14,2991.28,1623.12,2933,1656.57Z"/><path class="cls-24" d="M2850.43,1861.07c14,12.75,24.18,53.53,24.18,53.53C2870.79,1884,2898.8,1777,2898.8,1777Z"/><path class="cls-26" d="M3600.19,2506l5.09-118.52-487.54-75.2S3298.5,2540.39,3600.19,2506Z"/><path class="cls-23" d="M3461.44,1616.37l57.28,510.44-366.61-40.15s59.19,151-40.09,221.77c0,0,179.48,141.47,490.71,101.32,0,0,273.05-66.91,187.13-393.82C3789.86,2015.93,3711.57,1746.37,3461.44,1616.37Z"/><path class="cls-26" d="M3560,1736.3c-87.46-84-177.52-116.77-178.42-117.09l-.7,2c.9.32,90.55,32.92,177.69,116.63,80.42,77.26,175.05,215.09,169.15,432.83-.15,1-15.75,97.09-107.2,147.8q-56.72,31.45-134.16,31.44c-75.45,0-165.37-22.44-268.93-67.24l-.82,1.9c103.82,44.92,194,67.41,269.76,67.41q77.85,0,135.15-31.7c92.33-51.2,108.1-148.32,108.26-149.42,2.62-96.53-14.06-185.6-49.56-264.73C3651.83,1842.77,3611.38,1785.65,3560,1736.3Z"/><path class="cls-27" d="M3279.58,1552.88,3101,1590.45s4.91,61.63,86.17,81.47,131.5-75.85,127.29-105.26Z"/><path class="cls-27" d="M2720.35,1604.53s-4.25-21.3-31.59-49.89-61.38-54.15-61.38-54.15-38.89-38.33-49.22-35.9-30.38,9.13-37.67,20.08a99.89,99.89,0,0,0-10.94,22.51s-16.41,4.26-21.27,27.38-8.51,50.5-8.51,50.5-18.23,39.54-11.54,51.71,42.53,75.45,64.41,76c0,0,21.27,31,44.36,26.77l-1.82,41.38s0,52.93,65.62,43.8,63.2-40.15,63.2-40.15Z"/><path class="cls-28" d="M2568.26,1563.14l30.75,31.15C2589.33,1572.49,2568.5,1563.24,2568.26,1563.14Z"/><path class="cls-28" d="M2599,1594.29a56.61,56.61,0,0,1,2.77,7.72c2.62,9.47,2.59,16.38-.07,20.52-2.56,4-7.22,4.72-10.3,5.21-.77.12-1.45.23-2,.38-2.62-.58-13.67-10.16-21.76-17.18-9.72-8.42-19.77-17.13-26.13-20.89-9.07-5.37-11.3-48.1-10.58-75.52l-3.94-.1c-.19,7.22-1.46,70.76,12.51,79,6.05,3.58,16,12.18,25.55,20.48,15.82,13.72,21.4,18.16,24.45,18.16a2.7,2.7,0,0,0,.77-.11,15.69,15.69,0,0,1,1.78-.33c3.55-.57,9.49-1.51,13-7,3.35-5.2,3.53-13,.56-23.71Z"/><path class="cls-28" d="M2581.5,1624.05c11.36,13.64,11.18,23.12,10.06,27.56-1,4.16-3.58,6.84-5.62,7.66-3.85,1.31-29.51-11.2-44.86-18.72-6.83-3.34-13.28-6.5-18-8.62-16.46-7.39-22.5-40.2-22.56-40.53l-3.89.7c11.47,42.53,24.84,43.43,24.84,43.43,4.67,2.1,11.1,5.25,17.9,8.58,23.26,11.39,39.61,19.13,46.22,19.13a5.09,5.09,0,0,0,1.83-.29c2.89-1.16,6.51-4.49,8-10.37,1.59-6.31,1-16.82-10.85-31.07Z"/><path class="cls-28" d="M2575.72,1660.64l-6.18,15.71-1.32.61c-3.14,1.45-4.3.89-9.95-2.29a171.08,171.08,0,0,0-28.66-13c-30.39-10.91-32.72-25.62-32.74-25.76l-3.92.47c.08.7,2.34,17.17,35.32,29a164.38,164.38,0,0,1,28.06,12.72c3.87,2.18,6.34,3.57,9.05,3.57a10.69,10.69,0,0,0,4.49-1.14l1.3-.6c7.25-3.29,14.09-6.41,8.21-20.81Z"/><path class="cls-28" d="M2547.7,1672.38s17.7,24.85,1.58,37l1.45,3.88a18.13,18.13,0,0,0,10.23-11.32c2.58-8.49-.75-19.25-9.9-32Z"/><path d="M2721.74,1412.05c-13.68-7-19.75,4-19.75,4l-185.54,238.5-22.69,55.17,47-34.89,185.54-241.74S2735.41,1419,2721.74,1412.05Z"/><path class="cls-27" d="M2602.47,1479.19s-29.78-11-24.92,17,26.13,46.24,43.75,53.54l22.49,44.41s-28.56,31.64-19.45,76l75.35-93.08-55.29-63.28Z"/><path class="cls-28" d="M2655.08,1725.22c-.94-.91-5-6-22.36-34.72-26.91-44.5,12.21-94.58,12.61-95.09l.77-1L2625,1550.36l-1.09-.12c-.2,0-21-2.76-39.14-41.47-5.86-12.48-6.91-21.86-3-27.13,5.09-6.94,17.28-5.37,17.4-5.36l.54-3.91c-.6-.09-14.62-1.91-21.11,6.91-4.85,6.6-4,17.09,2.64,31.17,16.9,36,36.28,42.45,41.16,43.52l19.1,40s-40.24,51.69-12.15,98.6c19.22,32.11,23,36.56,24.94,36.56a2.24,2.24,0,0,0,1-.3c1.27-.64,1.5-2,.71-3.94Zm-2.48,1a1.87,1.87,0,0,1,1.7-1.14,1.63,1.63,0,0,1,.74.16Z"/><path class="cls-21" d="M2870.79,1894.21c-25.45-58.63-72.55-62.45-72.55-62.45l-352.61-45.88c-40.73,20.39-21.64,52.25-21.64,52.25s173.12,288,197.31,336.47,52.19,57.35,52.19,57.35,278.77,88,320.78,84.12,29.28-43.33,29.28-43.33S2896.25,1952.84,2870.79,1894.21Z"/><path class="cls-29" d="M2491.16,1840.81a11.54,11.54,0,0,0-15.78-4.23l-.94.54a11.58,11.58,0,0,0-4.23,15.8l40.64,70.47a11.55,11.55,0,0,0,15.78,4.24l.94-.54a11.59,11.59,0,0,0,4.23-15.81Z"/><path class="cls-30" d="M2974.87,2150.79l-.54,0s12.73,28-162.94,14.45c-158.83-12.3-280.18-156.55-302-184.09,47.47,80,99.44,168.49,111.9,193.43,24.18,48.43,52.19,57.35,52.19,57.35s278.77,88,320.78,84.12,29.28-43.33,29.28-43.33S3002,2218.6,2974.87,2150.79Z"/><path class="cls-27" d="M3059.19,2079s-80.2-71.37-145.12-75.19l26.74,59.9h-86.56s-54.74-23.37-84.44-20.82-21.22,22.09-21.22,22.09-26.31,2.55-11,24.64c0,0-15.28,8.5-6.79,20.4s22.91,21.24,22.91,21.24-11,1.7-3.39,17.84,65.34,71.37,65.34,71.37,15.28,17.85,39,17.85,207.06-1.7,207.06-1.7l86.56,29.74s54.32-113,3.82-179.71Z"/><path class="cls-31" d="M2838.33,2101.6l-.29-.33-.36-.23c-48.75-31.4-86.92-38.8-88.52-39.1l-1.14,6.11c.38.07,38.49,7.49,86,38,1.58,1.6,8.59,7.93,21.31,8.76,13.08.84,67.43,1.67,69.74,1.7l.09-6.21c-.56,0-56.5-.86-69.43-1.7C2844.14,2107.88,2838.55,2101.84,2838.33,2101.6Z"/><path class="cls-31" d="M2745.21,2089.59l-3.42,5.18c3.23,2.15,79.33,52.5,89.73,56.4s87.3,6.31,96,6.57l.18-6.21c-33.9-1-86.93-3.5-94-6.18C2825.61,2142.32,2767.08,2104.07,2745.21,2089.59Z"/><path class="cls-31" d="M2757.9,2129.83l-4.19,4.58c6.44,5.93,63.41,58,77.83,61.07,14.15,3,84.63,3.05,87.63,3.05v-6.22c-.73,0-72.82,0-86.34-2.91C2823.16,2187.35,2782.73,2152.65,2757.9,2129.83Z"/><path class="cls-28" d="M3082.74,2243.43l67.46,24.21s52.19-100.69,1.91-181C3152.11,2086.66,3183.94,2194.36,3082.74,2243.43Z"/><path class="cls-9" d="M3152.11,2086.66c49.65,168.24-40.09,221.77-40.09,221.77l51.55,32.5c135.57-91.77,57.28-246.62,57.28-246.62Z"/><path class="cls-23" d="M1254.92,1965c-5.66-9.83-11.23-19.69-14-30.63-3.37-13.26-2.37-27.17-2.52-40.85-.53-49.26-16.25-119.89-71.67-134.86-22.76-6.15-49.69,1.84-62.49,21.66-13.61,21.09-7.15,43.16-7.54,66.17-.38,22.58-15.85,41.88-15.78,65.68,0,1.87.07,3.73.18,5.59a23.41,23.41,0,0,1,11.16-2.73c10.6,0,19.19,6.5,19.19,14.52s-8.59,14.51-19.19,14.51a24.42,24.42,0,0,1-6.9-1,131.44,131.44,0,0,0,16.53,36c5.34,8.17,11.55,15.82,15.77,24.62,12.92,27,4.93,59.28-7.5,86.47s-29.26,53-34.37,82.5c-5.78,33.41,5.21,62.53,21,91.2,15.48,28.11,46.15,50.18,69.24,72.5-5.33-5.15,53-65.08,58.73-72.32,15.71-20.06,29.71-41.82,39.66-65.35,9.85-23.27,11.75-46.31,14.86-71,6.29-49.95,6.86-103.49-16.89-149.31C1260.05,1973.85,1257.48,1969.42,1254.92,1965Z"/><g class="cls-32"><path class="cls-33" d="M1254.92,1965c-5.66-9.83-11.23-19.69-14-30.63-3.37-13.26-2.37-27.17-2.52-40.85-.53-49.26-16.25-119.89-71.67-134.86a61.34,61.34,0,0,0-33.87.77c20.31,36.49,40.67,75.56,38,117.14-1.35,21.28-8.76,42.06-8,63.38.86,25.46,13.17,48.9,24,72,33.63,71.53,38.5,142.74,6.27,215.9-13.75,31.2-31,61-45.54,91.75,6.39,5.67,12.66,11.25,18.45,16.85-5.33-5.15,53-65.08,58.73-72.32,15.71-20.06,29.71-41.82,39.66-65.35,9.85-23.27,11.75-46.31,14.86-71,6.29-49.95,6.86-103.49-16.89-149.31C1260.05,1973.85,1257.48,1969.42,1254.92,1965Z"/></g><path d="M1156,2282.23c-6-26.7-9.42-53.71-8.68-81.08.75-28,9-55.28,17-81.88,15.23-50.34,21.86-97.16,18.57-149.84-3.24-51.73-9.53-103.86-21.92-154.24-1.2-4.89-8.73-2.82-7.53,2.08,12.82,52.15,18.74,105.87,22.09,159.4,3.4,54.35-7.51,102.54-22.83,154.18-13.23,44.57-16,87.14-8.32,133,8.78,52.64,27.59,103,33.83,156.19.58,4.94,8.39,5,7.81,0C1180.56,2373.16,1166.27,2328.17,1156,2282.23Z"/><path d="M1076.22,2211.19c.37,1.95.78,3.88,1.24,5.81q31.88,23.49,65.93,43.78a1.87,1.87,0,0,0,1.54.94l.72.44a2,2,0,0,0,2.81-2.29,1319.83,1319.83,0,0,0,124.31-88c.43-2,.81-3.95,1.18-5.94a1317.14,1317.14,0,0,1-128.74,91.38A795.61,795.61,0,0,1,1076.22,2211.19Z"/><path d="M1143.93,2175.11q-27.73-20.34-55.51-40.62c-.55,1.21-1.09,2.42-1.62,3.64q27.59,20.16,55.15,40.36C1144,2180,1145.93,2176.58,1143.93,2175.11Z"/><path d="M1147.67,2177.31a1517.75,1517.75,0,0,1,135-89.25c.06-1.54.1-3.07.14-4.61a1517.88,1517.88,0,0,0-137.14,90.49C1143.7,2175.42,1145.65,2178.82,1147.67,2177.31Z"/><path d="M1168.45,2091.26a2,2,0,0,0-.8,2l-46.33-34.92c-.32,1.37-.67,2.73-1,4.09l45.46,34.26c1.49,1.12,2.94-.46,2.78-2a1.53,1.53,0,0,0,1.89-.06q52.71-38.91,106.56-76.2c-.32-1.36-.61-2.73-1-4.08Q1221.69,2052,1168.45,2091.26Z"/><path d="M1178.56,2013.32l0,.06a695.18,695.18,0,0,1-86.37-52.09c1.1,2.42,2.29,4.81,3.54,7.16a695.43,695.43,0,0,0,82.45,49.14,2,2,0,0,0,2.85-1.3,2.09,2.09,0,0,0,.34-.21q33.42-31.26,67.84-61.43c-.63-1.19-1.24-2.38-1.83-3.58Q1212.48,1981.67,1178.56,2013.32Z"/><path d="M1173.38,1926.35l-88-38.38c-.41,1.23-.8,2.47-1.18,3.72l86.86,37.91a2,2,0,0,0,3.11,1.35l.11,0c1.94.85,3.64-1.45,2.71-2.78l59.87-59.4c-.18-1.64-.38-3.28-.59-4.92Z"/><path d="M1163.18,1839.8l-67.66-25.16c0,1.39,0,2.79.08,4.19l67.77,25.2a1.62,1.62,0,0,0,2.22-1.09c.05,0,.11-.07.16-.13q21.52-27,44.72-52.59c-.77-1.08-1.56-2.15-2.37-3.2Q1184.82,1812.7,1163.18,1839.8Z"/><path class="cls-23" d="M1040.83,2260.32c-16.8-19.25-40.54-30.63-61.67-45s-41.3-34.37-43.82-59.8c-.82-8.29.32-16.64.6-25,.68-20.25-3.9-40.85-14.37-58.2-7.34-12.16-19.23-19.35-29.24-28.14-.2.5-.4,1-.63,1.5-4.2,9.09-12.66,14.12-18.89,11.23s-7.87-12.59-3.67-21.68a23.07,23.07,0,0,1,8.26-9.83c-8.35-15-14.31-30.73-31.32-39-18.13-8.79-41.33-2.65-55.22,12-33.83,35.57-14,94.12,7.46,130.32,6,10.06,12.86,19.77,16.28,30.95,2.82,9.22,3.13,18.89,3.36,28.58,0,2.07.09,4.13.16,6.19a47,47,0,0,1,5.1-.28c13.66,0,24.73,5.73,24.73,12.81s-11.07,12.8-24.73,12.8c-.77,0-1.53,0-2.29-.06,7.37,36.53,28.42,69.26,51.37,98.17,13.23,16.66,24.84,32.64,42.34,45.25,17.7,12.75,37.57,22.42,57.94,30.08,7.35,2.77,76.55,20.57,74.94,26.7,7-26.56,19.57-56.31,18.41-83.71C1064.75,2308.29,1059.87,2282.14,1040.83,2260.32Z"/><path d="M1031.15,2357.4c-14.76-36.89-35.64-66.75-65.06-93.42-34.07-30.88-63.41-61.22-85-102.42-21.29-40.57-40.79-82.42-54.55-126.19-1.29-4.11-7.71-2.28-6.42,1.83,13.29,42.28,31.81,83.14,52.39,122.35,21,39.92,46.54,71.16,80,101.15,17.67,15.84,35.78,32.09,48.74,52.2,12.67,19.66,22.13,40.91,29.62,63,12.87,38.11,22.38,77.31,39.16,114,1.79,3.91,7.47.39,5.7-3.48C1056.68,2444.88,1048.08,2399.74,1031.15,2357.4Z"/><path d="M1027.67,2353a1122.28,1122.28,0,0,1-134.51-9.49c1.15,1.28,2.31,2.56,3.5,3.81a1128.2,1128.2,0,0,0,129.77,9,1.67,1.67,0,0,0,3.07.41l.33-.63a1.58,1.58,0,0,0,.7-1.37q15.9-29.93,28.73-61.27c-.52-1.61-1.07-3.21-1.67-4.79A681,681,0,0,1,1027.67,2353Z"/><path d="M992.16,2292.38c-.81,2,2.11,3.58,2.94,1.59q11.14-27,22.37-54c-.92-.65-1.85-1.3-2.79-1.94Q1003.42,2265.21,992.16,2292.38Z"/><path d="M990.35,2292.31a1295.27,1295.27,0,0,0-140.25-5.11c.71,1.1,1.42,2.21,2.15,3.3a1295.1,1295.1,0,0,1,138.15,5.15C992.55,2295.85,992.46,2292.51,990.35,2292.31Z"/><path d="M938.53,2243.15a1.7,1.7,0,0,0-1.45-1.09q-56.26-5-112.64-8.33c.35,1.14.74,2.27,1.11,3.4q55.85,3.35,111.59,8.27a1.31,1.31,0,0,0,1.41-.8c.55,1.17,2.3,1.68,2.9.2l18-45.22c-.87-.83-1.73-1.67-2.57-2.53Q947.71,2220.11,938.53,2243.15Z"/><path d="M895.2,2189.67l-.06,0q-38.79-8.08-77.81-14.89c.1,1.14.18,2.29.25,3.43q38.49,6.78,76.77,14.7a1.29,1.29,0,0,0,.34,0,1.72,1.72,0,0,0,2.65-.31,595.67,595.67,0,0,0,38.42-72.53c-.14-2.27-.33-4.54-.59-6.8A594.33,594.33,0,0,1,895.2,2189.67Z"/><path d="M907.56,2056.73q-23.61,33.55-47.2,67.12l-73.64-17.62c.57,1.29,1.16,2.58,1.75,3.85l70,16.76c-.09,1.39,2.17,2.31,3.21.83l.06-.09a1.68,1.68,0,0,0,1.66-2.37l46.61-66.28C909.24,2058.18,908.4,2057.45,907.56,2056.73Z"/><path d="M829.43,2056.13q-27.79-10.18-56.19-18.57c-.13,1.12-.23,2.25-.31,3.39q28.26,8.38,56,18.51c.06,0,.11,0,.16,0a1.4,1.4,0,0,0,2.11-.19l38.31-48.53c-.59-1-1.19-2.07-1.8-3.08Z"/><path class="cls-26" d="M1176.73,2184.57c-2-11.42-5.06-22.62-10.86-33.72-9.93-19-24-34.75-38.37-50.41-9.37-10.21-18-20.68-20.2-34.76-5.12-32.75,7.29-62.93-14.9-92.49-7.78-10.37-18.14-18.66-25.5-29.34-13.86-20.08-15.51-45.9-23.71-68.88a125.56,125.56,0,0,0-52-64.21c-14.18-8.7-31.39-14.65-45.35-3.35-12.12,9.81-19.49,24.73-21.91,40-5.72,36.19,17.83,73.15,8.8,108.66-4.4,17.28-16,31.69-23.83,47.7-14.76,30.2-5.39,80.86,17.92,104.92,10,10.3,21.17,19.5,30,30.8,15,19.13,10.77,43.72,11.58,67,.4,11.67.82,23.41,3.19,34.85a96.33,96.33,0,0,0,3.18,11.62c2.77-4.92,9.3-8.38,16.91-8.38,10.13,0,18.33,6.12,18.33,13.66s-8.2,13.66-18.33,13.66a23.11,23.11,0,0,1-9.21-1.86c31.29,55.08,111.36,80.09,154.52,121.94-1.67-16.75,4.3-33.34,11.92-48.35s17-29.17,23-44.9c8.82-23.11,13.25-52.25,9.77-76.81C1179.82,2209.11,1178.87,2196.71,1176.73,2184.57Z"/><path d="M1113.09,2329.21c-27.24-48.37-61.72-87.71-68.55-144.91-3.18-26.68-1.5-54-2.69-80.82a670.08,670.08,0,0,0-9-82.39c-8.58-50.35-27.6-97-48.72-143.22-2.09-4.58-9.2-1.32-7.1,3.27,22,48.18,40.44,96.17,49.37,148.64,8.82,51.81,5.67,103.77,10.4,155.78,4.36,47.94,29.82,84.3,55.06,123.53,30.24,47,53.4,98.72,63.86,153.78.94,5,8.65,3.7,7.7-1.26C1154.52,2414.6,1136.52,2370.79,1113.09,2329.21Z"/><path d="M1180.17,2210.39q-41.73,50.37-86,98.54-49-9.21-97.82-19.51,2.19,2.51,4.51,4.92,46,9.63,92.27,18.36a2.22,2.22,0,0,0,2.14.41l1.29.25c1.92.36,2.57-1.86,1.65-3.11q42.57-46.18,82.62-94.56C1180.61,2213.92,1180.38,2212.15,1180.17,2210.39Z"/><path d="M1102.2,2153.17a781.47,781.47,0,0,0-53.8,71.14c-20.12-.95-40.42-5.44-60.31-8.4L968.61,2213c0,1.33.12,2.65.19,4l18.87,2.81c19.66,2.93,39.71,7.34,59.59,8.36a1.88,1.88,0,0,0,3.17.11,814.86,814.86,0,0,1,54.94-72.81c11.54-13.64,23.74-26.71,35.27-40.34-.85-1-1.69-2-2.55-3C1126.41,2126.06,1114,2139.36,1102.2,2153.17Z"/><path d="M1106.5,2059.09q-34.37,48.27-70.46,95.27L957,2139.74a49.35,49.35,0,0,1,3.06,4.53l74,13.67a2,2,0,0,0,3.54.94l.24-.31a1.77,1.77,0,0,0,1.66-2.19q34.69-45.18,67.79-91.57Q1106.77,2061.95,1106.5,2059.09Z"/><path d="M1092.4,1973.19c-.27-.36-.56-.7-.84-1.06q-32.22,45.82-59.85,94.67Q967,2055,902,2045.23c.08,1.33.2,2.66.33,4q66.93,10,133.52,22.28c2.48.46,2.87-3.44.41-3.89l-.48-.09q26.88-47.4,58.2-92C1093.44,1974.74,1093,1974,1092.4,1973.19Z"/><path d="M1018.86,1977.81q-45.15-3.64-89.75-11.43c-.52,1.23-1.05,2.46-1.63,3.68q45.32,7.93,91.24,11.66a2.26,2.26,0,0,0,2.86-1q19.73-24.89,37.66-51.07-.9-2.16-1.71-4.35Q1039.13,1952.19,1018.86,1977.81Z"/><path d="M990.15,1897.38q-32.45-6.5-64.6-14.18c.26,1.39.52,2.78.81,4.17q31.36,7.44,63,13.81a2.08,2.08,0,0,0,3.47-.37q14.9-30.75,31-60.88c-.87-1.1-1.76-2.19-2.66-3.26Q1005.08,1866.75,990.15,1897.38Z"/><g class="cls-32"><path d="M1176.73,2184.57c-2-11.42-5.06-22.62-10.86-33.72-9.93-19-24-34.75-38.37-50.41-9.37-10.21-18-20.68-20.2-34.76-5.12-32.75,7.29-62.93-14.9-92.49-7.78-10.38-18.14-18.66-25.5-29.34-13.86-20.08-15.51-45.9-23.71-68.88a125.56,125.56,0,0,0-52-64.21c-14.18-8.7-31.39-14.65-45.35-3.35a56.28,56.28,0,0,0-11.68,13c2.26,3.21,4.46,6.24,6.42,9,19.11,26.91,39.57,53.36,52.36,84.06a190.39,190.39,0,0,1,14.25,84.23c-1.18,19.82-5.46,39.71-2.63,59.36,5.43,37.71,35.2,66.3,60,95.17,33,38.34,60,83,70.82,132.45,7.34,33.6,6.49,69.58-4,102.11,1.92,1.69,3.8,3.4,5.59,5.14-1.66-16.75,4.3-33.34,11.92-48.35s17-29.17,23-44.9c8.82-23.11,13.25-52.25,9.77-76.81C1179.82,2209.11,1178.87,2196.71,1176.73,2184.57Z"/></g><path class="cls-26" d="M1444.11,1925.64c-7.83-15.59-23.09-26.76-39.84-31.6-8.11-2.34-16.91-3.29-25-.73-9.15,2.91-16.31,10-23,16.86s-13.19,13.91-19.69,21a17.93,17.93,0,0,1,3.59,0c10.94,1.12,18.78,12.13,17.51,24.59s-11.16,21.67-22.09,20.55-18.78-12.12-17.51-24.58c0-.12,0-.23,0-.35-14.33,15.87-28.28,32.6-34.85,52.84s-5.12,42.23-5.38,63.6c-.57,47.69-11.82,98.24-45.87,131.57-9.56,9.36-20.77,17.21-28.57,28.08-6.37,8.9-10,19.32-12.06,30-1.77,9.18-5.62,17.46-6.92,26.68a110.61,110.61,0,0,0,9.24,61.88c6.62,14.12,12.63,28.55,19.24,42.43,1.69,3.53,2.89,7.79,1.08,11.26,2.42-4.64,18.71-4.56,23.14-5.66,5.52-1.37,11.35-3.33,16.79-5.15,12.94-4.33,26.64-4.55,40.06-7.61,17.88-4.06,37.38-15.4,51.18-27.24a58,58,0,0,0,12.19-15.57c.84-1.49,1.63-3,2.41-4.61-1,0-2-.1-3-.2-14.13-1.44-25-8.8-24.19-16.43s12.86-12.66,27-11.23a45.56,45.56,0,0,1,9.88,2.12c2.35-8.06,4.19-15.89,5.67-22.56,2.61-11.75,4.34-24,10.53-34.37s16.29-17.72,25.37-25.71c19.08-16.78,35.19-44.15,32.6-70.35-2-19.77-12.89-37.59-16.49-57.12C1416.81,2041.2,1471.86,1980.81,1444.11,1925.64Z"/><path d="M1385.7,1966.67c-6.92,45.26-11.88,89.39-27.47,132.72-16.47,45.79-36.67,90.67-58.44,134.15-10.08,20.13-21.13,39.62-30.31,60.19-9.76,21.88-24.86,41.29-36.74,62.06-21,36.73-35.82,77.36-36.32,120-.06,4.52,7,4.65,7,.11.54-46.34,18.6-88.43,41.85-127.73,11.22-19,23.84-36.59,32.85-56.79,10.1-22.63,22.71-44.11,33.68-66.34A1310.19,1310.19,0,0,0,1365,2101.37c16-43.2,20.56-87.51,27.47-132.72C1393.11,1964.24,1386.39,1962.21,1385.7,1966.67Z"/><path d="M1427.12,2096.85q-38.17,15.68-76.55,30.84-36.64-38.93-72.56-78.52c0,1.74,0,3.47,0,5.21q35.54,39,71.65,77.47a1.77,1.77,0,0,0,3-1.24q37.69-14.85,75.17-30.28c-.18-.79-.4-1.57-.55-2.37C1427.21,2097.59,1427.18,2097.22,1427.12,2096.85Z"/><path d="M1374.66,2065l59.11-26.76c.44-1.48.88-3,1.33-4.44L1373,2061.88C1370.91,2062.82,1372.61,2065.89,1374.66,2065Z"/><path d="M1300.07,1973c-.71,1-1.41,2-2.1,2.93q36.62,41,70.43,84.38c1.39,1.79,3.93-.64,2.55-2.41Q1337,2014.28,1300.07,1973Z"/><path d="M1419.91,2155.46c-14.67,3.9-29.24,8.19-43.72,12.72s-28.82,10.64-44,12a1.7,1.7,0,0,0-.41-1.38q-28.14-33-58.27-64.09c-.26,1.41-.54,2.82-.83,4.22q29.07,30.2,56.34,62c-.89,1-.52,3,1.19,2.91,14.11-.84,27.26-6,40.59-10.3,15.48-5,31.1-9.57,46.79-13.85q12.87-3.51,25.84-6.64c-.15-1.16-.32-2.32-.53-3.47Q1431.4,2152.4,1419.91,2155.46Z"/><path d="M1251.78,2174.29c-.65,1.06-1.29,2.12-2,3.16l48.63,60.7c1.42,1.77,4-.66,2.55-2.41Z"/><path d="M1303.18,2241.15q55.8-12.68,112.55-20c1.3-1.29,2.58-2.64,3.83-4q-59.05,7.48-117.22,20.63C1300.13,2238.24,1301,2241.65,1303.18,2241.15Z"/><path d="M1267.91,2306a1.88,1.88,0,0,0,.57-2.76q-31-40.05-60.9-80.9c-.78.9-1.54,1.83-2.28,2.77q29.82,40.63,60.63,80.54a1.39,1.39,0,0,0,1.9.4,1.79,1.79,0,0,0,1.56,3.07Q1322,2297,1375,2286.52c.07-.33.16-.69.23-1,.2-.9.39-1.81.58-2.72q-53.82,10.62-107.31,23A1.74,1.74,0,0,0,1267.91,2306Z"/><path d="M1229.89,2367.58l-46.32-70.43c0,2.16,0,4.32.07,6.47q22.11,33.6,44.2,67.2a1.88,1.88,0,0,0,3,.15l103.49-14.24,9.12-1.26c.6-.49,1.25-1,1.83-1.48,1-.83,1.87-1.74,2.78-2.68l-14.58,2Z"/><g class="cls-32"><path d="M1444.11,1925.64c-7.83-15.59-23.09-26.76-39.84-31.6a58.37,58.37,0,0,0-9.37-1.94c10.2,41,12.55,83.94-3.18,122.54-20.44,50.18-69.12,87.45-79.08,140.72-7.08,37.91,7,78-3.43,115.15-6.73,23.91-22.92,43.81-38.71,63l-52.31,63.46c5.82-2,15.75-2.13,19.06-3,5.52-1.37,11.35-3.33,16.79-5.15,12.94-4.33,26.64-4.55,40.06-7.61,17.88-4.06,37.38-15.4,51.18-27.24a58,58,0,0,0,12.19-15.57c.84-1.49,1.63-3,2.41-4.61-1,0-2-.1-3-.2-14.13-1.44-25-8.8-24.19-16.43s12.86-12.66,27-11.23a45.56,45.56,0,0,1,9.88,2.12c2.35-8.06,4.19-15.89,5.67-22.56,2.61-11.76,4.34-24,10.53-34.37s16.29-17.72,25.37-25.71c19.08-16.78,35.19-44.15,32.6-70.35-2-19.77-12.89-37.59-16.49-57.12C1416.81,2041.2,1471.86,1980.81,1444.11,1925.64Z"/></g><g class="cls-32"><path class="cls-33" d="M888.44,2192.29c-2.31-21.65-3.72-44.23-14.38-63.21-8.92-15.88-23.54-27.75-34-42.7-20.36-29.18-22.81-66.75-24.17-102.43a52.54,52.54,0,0,0-25.06,14.49c-33.83,35.57-14,94.12,7.46,130.32,6,10.06,12.86,19.77,16.28,30.95,2.82,9.22,3.13,18.89,3.36,28.58,0,2.21.1,4.42.17,6.62a35,35,0,0,1,8-.92c12.06,0,21.83,5.8,21.83,13s-9.77,13-21.83,13a36.39,36.39,0,0,1-5.3-.4c7.33,36.62,28.42,69.42,51.42,98.4,13.23,16.66,24.84,32.64,42.34,45.25,17.7,12.75,37.57,22.42,57.94,30.08,7.35,2.77,76.55,20.57,74.94,26.7,1.75-6.66,3.85-13.53,6-20.5-24.3-16-50-30.08-73.93-46.75C923.62,2313.61,895.6,2259.46,888.44,2192.29Z"/></g><path class="cls-34" d="M1224.66,2377.43H960.22c-1,21.4-3.83,127.75,27.66,223.14,27.44,83.13,53.34,115.74,72.22,130.85a30.54,30.54,0,0,0,18.31,6.7v0H1213v0a30.54,30.54,0,0,0,18.31-6.7c18.88-15.11,44.78-47.72,72.22-130.85,31.49-95.39,28.62-201.74,27.66-223.14Z"/><g class="cls-35"><path class="cls-9" d="M968.39,2517.86c2.82,18,6.52,36.56,11.36,55.08,115.54-48.77,233-93,351.15-135.16,1.25-28,.71-49.33.32-58.8C1209.12,2422.32,1087.8,2467.79,968.39,2517.86Z"/><path class="cls-9" d="M1002.67,2641.11c105.53-43.91,212.55-84.21,320.24-122.71q2.17-13.8,3.69-27c-111.83,39.86-223,81.59-332.52,127.15Q998.42,2630.62,1002.67,2641.11Z"/><path class="cls-9" d="M1054.17,2726.26c78.56-33.05,158-64,237.91-93.69,3.77-9.75,7.58-20.36,11.42-32,3.79-11.47,7.07-23.1,9.92-34.72-98.39,36-196.11,73.69-292.53,114.52C1033.08,2703,1044.38,2717.08,1054.17,2726.26Z"/></g><g class="cls-36"><path class="cls-37" d="M1252,2377.43c2.75,67.23-2.1,134.67-17.87,200-13.65,56.57-35.84,111.49-66.62,160.75H1213v0a30.54,30.54,0,0,0,18.31-6.7c18.88-15.11,44.78-47.72,72.22-130.85,31.49-95.39,28.62-201.74,27.66-223.14Z"/></g><rect class="cls-37" x="943.3" y="2365.6" width="401.21" height="51.43" rx="3.17"/><rect class="cls-38" x="658.65" y="2800.08" width="3362.7" height="59.92"/><rect class="cls-34" x="2943.86" y="2638.45" width="555.5" height="104.16" rx="0.62"/><rect class="cls-37" x="3391.94" y="2638.45" width="18.28" height="104.16"/><rect class="cls-37" x="3357.54" y="2638.45" width="18.28" height="104.16"/><rect class="cls-34" x="2998.37" y="2453.52" width="555.5" height="104.16" rx="0.62"/><rect class="cls-9" x="3190.58" y="2496.46" width="171.08" height="18.29"/><rect class="cls-9" x="3059.93" y="2496.46" width="85.54" height="18.29"/><path class="cls-9" d="M3440,2467.76a37.84,37.84,0,1,0,37.79,37.84A37.81,37.81,0,0,0,3440,2467.76Z"/><rect class="cls-39" x="3294.1" y="2571.71" width="331.15" height="52.71"/><path class="cls-37" d="M3635.54,2557.68h-592a8.52,8.52,0,0,0-8.52,8.54v63.69a8.52,8.52,0,0,0,8.52,8.54h592a7,7,0,0,0,0-14h-336a5.47,5.47,0,0,1-5.47-5.48v-41.75a5.47,5.47,0,0,1,5.47-5.48h336a7,7,0,0,0,7-7h0A7,7,0,0,0,3635.54,2557.68Z"/><rect class="cls-34" x="3066.3" y="2588.93" width="184.79" height="18.26"/><rect class="cls-21" x="3684.39" y="2370.9" width="90.4" height="37.05"/><path class="cls-17" d="M3772.5,2333.85h-85.82a2.3,2.3,0,0,0-2.29,2.3v34.75h90.4v-34.75A2.3,2.3,0,0,0,3772.5,2333.85Z"/><path class="cls-20" d="M3771.45,2389.42h-83.71a37.85,37.85,0,0,0-37.62,42.24c5.13,44,12.09,43.14,12.09,104.1s-7,131.84-12.09,175.83a37.85,37.85,0,0,0,37.62,42.24h83.71a37.85,37.85,0,0,0,37.61-42.24c-5.13-44-12.09-114.86-12.09-175.83s7-60.11,12.09-104.1A37.85,37.85,0,0,0,3771.45,2389.42Z"/><path class="cls-40" d="M3427.18,1299.38c7.3-110.46-36.27-184.24-36.27-184.24l-394.11,81.72s-13.85,99.47-104.23,141c-64.54,29.64-32.93,122.73-32.93,122.73,341.5,176.25,677.56,37.75,677.56,37.75C3540.86,1389.17,3419.71,1412.4,3427.18,1299.38Z"/><ellipse class="cls-40" cx="3205.58" cy="1203.88" rx="194.24" ry="208.9" transform="translate(1892.95 4366.49) rotate(-88.04)"/><path class="cls-40" d="M3294.57,1063.49c-43,135.07,6.11,238.71,7.29,252.11,0,0,84.77-20.77,59.28-170.27C3345.24,1052.12,3294.57,1063.49,3294.57,1063.49Z"/><path class="cls-40" d="M3161.42,1013.78C3030.83,1032.13,2990,1133.59,2990,1133.59c257.42,15,320.86-60.71,320.86-60.71S3292,995.43,3161.42,1013.78Z"/><path class="cls-40" d="M3293.36,1096.65c-6.21-4.83-32.43,12.2-39.3,8.28-65.29-37.92-114.75-100.34-169.14-48.09-163.63,7.47-131.76,94.56-113.19,173.38l10.35,105,323.09,69.72c39,12.27,89.44-98.73,93.16-128.54C3408.64,1193.63,3359.18,1147.78,3293.36,1096.65Z"/><path class="cls-27" d="M3092.33,1378.51l3.31,76.68,7.79,143.51s17.41,17,89.86,11.46c60.15-4.61,94.61-35,94.61-35l-21.42-230.76Z"/><polygon class="cls-28" points="3102.69 1589.05 3234.29 1462.27 3095.65 1455.21 3102.69 1589.05"/><path class="cls-27" d="M2984.49,1227.37l-1,72.65-1.84,125.14-.19,10.75a34.6,34.6,0,0,0,14.31,28.46l68.41,49.81a34.78,34.78,0,0,0,33.17,4.14l129.57-52a34.73,34.73,0,0,0,21.74-31.63l4.56-312.92-157.68-2.37A109.54,109.54,0,0,0,2984.49,1227.37Z"/><path class="cls-28" d="M2983,1322l.38,93.59c21.83-7.56,36.53-28.59,34.22-51.71C3015.66,1343.89,3001.62,1327.93,2983,1322Z"/><path class="cls-41" d="M3073.14,1377.64l-42.95-15.18,29.68-109.78a4.55,4.55,0,0,0-8.78-2.38l-30.78,113.85a4.55,4.55,0,0,0,2.88,5.48l46.92,16.59a4.46,4.46,0,0,0,1.86.25,4.55,4.55,0,0,0,1.17-8.83Z"/><path class="cls-27" d="M3276.4,1290.65a63.61,63.61,0,1,0,62.6,64.54A63.57,63.57,0,0,0,3276.4,1290.65Z"/><path d="M2983.79,1229.4c5.1,12.47,49.78,4.52,47.43-7.77C3027.33,1201.22,2975.7,1209.65,2983.79,1229.4Z"/><path d="M3125.62,1216.71c-3.45,12,40.31,24,46.53,12C3182,1209.83,3131.34,1196.74,3125.62,1216.71Z"/><path class="cls-28" d="M3167.82,1317.62a48.05,48.05,0,1,0,51.52,44.24A48,48,0,0,0,3167.82,1317.62Z"/><path d="M3113.07,1284.37c-7-.1-12.73,9.16-12.9,20.68s5.33,21,12.29,21.06,12.73-9.16,12.9-20.69S3120,1284.47,3113.07,1284.37Z"/><path d="M3007.35,1284.79c-6.71-.1-12.3,9.18-12.47,20.73s5.14,21,11.86,21.08,12.3-9.18,12.47-20.73S3014.07,1284.88,3007.35,1284.79Z"/><polygon class="cls-41" points="3256.2 1370.21 3260.79 1374.81 3297.5 1338.09 3292.91 1333.48 3256.2 1370.21"/><rect class="cls-41" x="3281.73" y="1350.7" width="6.49" height="22.6" transform="translate(23.11 2778.45) rotate(-45.99)"/><path class="cls-40" d="M3288.64,1109.05c-25.62-30.91-61.36-54.07-100.67-61.73-33.85-6.56-69.4-1.59-101.66,10.64-53.31,20.28-59.52,43.91-85.63,94.6s-30,94.23-32.71,153.07c23.43-158.54,85-171.69,85-171.69s8.06,42.82,81.72,58.73c35.84,7.75,61,5.13,70.69,16.16,12.21,13.72,2.23,57.15,12.85,72.26,9.13,12.92,10.18,7.09,23.48,15.84,0,2.64,3.79,28.37,3.21,51.47,31.47-44.13,102.35-77.32,92.62-130.6C3330.33,1178.24,3314.35,1140,3288.64,1109.05Z"/><path class="cls-41" d="M3104.05,1416.84c-46.22,14.85-68.35.9-68.67.69a3.87,3.87,0,0,0-4.32,6.43c.66.45,11.47,7.53,33.36,7.53,11.11,0,25.07-1.83,42-7.26a3.88,3.88,0,0,0-2.36-7.39Z"/><path class="cls-42" d="M3117.73,1248.46,3061.29,1324s16.61,32.38,43.48,29l56.95-73.68S3146.72,1246.62,3117.73,1248.46Z"/><path class="cls-42" d="M2992.61,1247.41l-47.76,75.46s14.13,32.4,36.92,29.05l48.19-73.6S3017.19,1245.61,2992.61,1247.41Z"/><path class="cls-9" d="M3112.09,1243.82a57.37,57.37,0,0,0-.86,114.74h.44a57.37,57.37,0,0,0,.42-114.74Zm36,94.44a52,52,0,0,1-88.46-37.46h0a52,52,0,0,1,52-51.66h.4a52.06,52.06,0,0,1,36.09,89.12Z"/><path class="cls-9" d="M2987.7,1242.76c-11.71-.12-23,4.65-31.92,13.43-11,10.81-17.29,26.64-17.37,43.44-.16,31.63,21.69,57.58,48.71,57.86h.43c11.53,0,22.69-4.75,31.48-13.42,11-10.81,17.3-26.65,17.38-43.45C3036.56,1269,3014.71,1243,2987.7,1242.76Zm27.6,97.52c-7.88,7.77-17.86,12-28.13,11.89-24.1-.25-43.59-23.81-43.45-52.51.08-15.4,5.83-29.86,15.79-39.68,7.79-7.68,17.63-11.9,27.76-11.9h.37c24.1.25,43.59,23.81,43.45,52.51C3031,1316,3025.26,1330.45,3015.3,1340.28Z"/><polygon class="cls-9" points="3055.72 1303.1 3057.02 1300.78 3057.02 1300.78 3055.72 1303.1"/><path class="cls-9" d="M3032.48,1298.27l2.53,4.67c10.2-5.53,20.29-.07,20.72.16l1.29-2.32-1.3,2.32,1.3-2.32h0l1.3-2.32C3057.8,1298.16,3045.31,1291.31,3032.48,1298.27Z"/><rect class="cls-9" x="3203.16" y="1278.33" width="5.32" height="84" transform="translate(885.39 3896.4) rotate(-70.37)"/></g></g></svg>
