<svg id="Flat" xmlns="http://www.w3.org/2000/svg" viewBox="0 0 512 512"><path d="M456,488c-168,0-200-72-200-72s-32,72-200,72c0,0-16-112,64-168,0,0-72-51.98-96-136,0,0,80-40,160-16,1.58-52.23,31.41-99.13,72-144,40.59,44.87,70.42,91.77,72,144,80-24,160,16,160,16-24,84.02-96,136-96,136C472,376,456,488,456,488Z" style="fill:#ffe76c"/><path d="M184,232c-1.481,0-36.49.313-54.656,27.562a8,8,0,1,0,13.312,8.876,39.645,39.645,0,0,1,9.87-10.148A31.993,31.993,0,1,0,184,232Zm0,48a16,16,0,0,1-.013-32h.019A16,16,0,0,1,184,280Z" style="fill:#a36f58"/><path d="M328,232a32.04,32.04,0,1,0,31.481,26.3,39.643,39.643,0,0,1,9.863,10.142,8,8,0,0,0,13.312-8.876C366.1,234.733,334.826,232,328,232Zm16,32a16,16,0,1,1-16.006-16h.019A16.018,16.018,0,0,1,344,264Z" style="fill:#a36f58"/><path d="M283.578,320.845a8,8,0,0,0-10.733,3.577C272.787,324.538,266.755,336,256,336c-10.738,0-16.808-11.507-16.845-11.578a8,8,0,0,0-14.31,7.156C225.262,332.412,235.294,352,256,352s30.738-19.588,31.155-20.422A8,8,0,0,0,283.578,320.845Z" style="fill:#a36f58"/><circle cx="328" cy="264" r="24" style="fill:#a36f58"/><circle cx="184" cy="264" r="24" style="fill:#a36f58"/></svg>
