<svg xmlns="http://www.w3.org/2000/svg" xmlns:xlink="http://www.w3.org/1999/xlink" viewBox="0 0 218.16 227.31"><defs><style>.cls-1{fill:none;}.cls-2{isolation:isolate;}.cls-3{fill:#fae4d9;}.cls-4{clip-path:url(#clip-path);}.cls-5{fill:#fce096;}.cls-6{fill:#fbaea6;}.cls-7{fill:url(#linear-gradient);}.cls-8{fill:#fdc07a;}.cls-9{fill:#fff;}.cls-10{fill:url(#linear-gradient-2);}.cls-11{fill:#000446;}.cls-12{fill:url(#linear-gradient-3);}.cls-13{fill:url(#linear-gradient-4);}.cls-14{mix-blend-mode:color-burn;}.cls-15{fill:#919191;}.cls-16{fill:#e8e8e8;}.cls-17{fill:#0a1775;}</style><clipPath id="clip-path"><circle class="cls-1" cx="109.08" cy="109.08" r="109.08" transform="translate(-45.18 109.08) rotate(-45)"/></clipPath><linearGradient id="linear-gradient" x1="117.83" y1="88.14" x2="119.72" y2="167.5" gradientUnits="userSpaceOnUse"><stop offset="0" stop-color="#ff6a59"/><stop offset="1" stop-color="#fff" stop-opacity="0"/></linearGradient><linearGradient id="linear-gradient-2" x1="83.65" y1="65.01" x2="73.42" y2="72.13" gradientUnits="userSpaceOnUse"><stop offset="0" stop-color="#2ebac4"/><stop offset="0.11" stop-color="#2492a8"/><stop offset="0.26" stop-color="#19678b"/><stop offset="0.41" stop-color="#104372"/><stop offset="0.55" stop-color="#09275f"/><stop offset="0.7" stop-color="#041451"/><stop offset="0.85" stop-color="#010849"/><stop offset="1" stop-color="#000446"/></linearGradient><linearGradient id="linear-gradient-3" x1="78.71" y1="84.14" x2="89.07" y2="67.89" xlink:href="#linear-gradient"/><linearGradient id="linear-gradient-4" x1="103.25" y1="64.78" x2="93.14" y2="71.83" xlink:href="#linear-gradient-2"/></defs><g class="cls-2"><g id="Слой_2" data-name="Слой 2"><g id="Layer_1" data-name="Layer 1"><circle class="cls-3" cx="109.08" cy="109.08" r="109.08" transform="translate(-45.18 109.08) rotate(-45)"/><g class="cls-4"><path class="cls-5" d="M115.06,128.42c-9.43.83-16.89,3.57-16.67,6.12s8,3.93,17.48,3.09,16.9-3.57,16.67-6.12S124.49,127.58,115.06,128.42Z"/><path class="cls-6" d="M98.6,86.94c7.6,37,0,66.09,0,66.09h39.91s-5.6-35.43,0-66.09C140.3,77.13,96.59,77.17,98.6,86.94Z"/><path class="cls-7" d="M98.6,86.94c7.6,37,0,66.09,0,66.09h39.91s-5.6-35.43,0-66.09C140.3,77.13,96.59,77.17,98.6,86.94Z"/><path class="cls-5" d="M132.62,132.22c-.28-2-1.35-.57-3.22-.59-3,0-6,.33-9,.51L102,133.2c-1.31.07-2.75.2-3.66,1.16-.4.41-.28,1.69,0,3a24.55,24.55,0,0,1,.48,3.43c-.44,5-2.37,6.8-2.81,11.79a6.06,6.06,0,0,0,.44,3.61c.86,1.45,2.73,1.89,4.4,2.13a58.17,58.17,0,0,0,13.64.41,45.54,45.54,0,0,0,16-4.3,8.17,8.17,0,0,0,3.83-3.07c1.22-2.2.42-4.91-.18-7.34C133.29,140.76,133.09,135.52,132.62,132.22Z"/><path class="cls-5" d="M162.46,154c-9.74-1.74-21.24-2.34-28.64-8.9-26,1.27-51.5,1.18-77.53,2.45-6.72.33-13.93.84-19.17,5s-7.21,10.8-9,17.08q-3.06,10.51-6.13,21C20.48,195.67,19,201,20.58,206c1.84,5.82,7.38,9.64,12.87,12.29,13.58,6.57,28.88,8.85,44,9s30.1-1.63,45.13-2.84c12.7-1,25.57-1.64,37.75-5.38s29.15-10.18,31-22.78c1.49-10,2.74-21.14-3-29.5C182.73,158.65,172.2,155.72,162.46,154Z"/><path class="cls-8" d="M104.13,153.61c-1.36-.32-2.94-.91-3.24-2.28a2.61,2.61,0,0,1,.91-2.4,7.14,7.14,0,0,1,2.36-1.25A68.54,68.54,0,0,1,118,144.07a61.06,61.06,0,0,1-11.44-1.94,23.82,23.82,0,0,1-5.68-2.5c-.6-.38-1.64-1.46-2.65-2.25a24.55,24.55,0,0,1,.48,3.43c-.44,5-2.37,6.8-2.81,11.79a6.06,6.06,0,0,0,.44,3.61c.86,1.45,2.73,1.89,4.4,2.13a58.17,58.17,0,0,0,13.64.41c2.21-1.23,4.35-2.61,6.49-4A52.82,52.82,0,0,1,104.13,153.61Z"/><path class="cls-8" d="M161.56,158.36a18.14,18.14,0,0,0-4.22-.85c-6.66-.82-13.14-2.53-19.34-.67a158.81,158.81,0,0,1-19.11,4.71c-8.38,1.42-17.56,1.84-25.86.28,20.2,6.62,46.7,6.81,67.19.48,1.36-.42,2.81-1,3.15-1.8S162.8,158.84,161.56,158.36Z"/><path class="cls-6" d="M107.15,17.27c-19.26,0-34.88,24.21-34.88,54.08s3.06,46.26,22.32,46.26S142,101.21,142,71.35,126.41,17.27,107.15,17.27Z"/><path class="cls-9" d="M81.63,63.13a2.42,2.42,0,0,0-1.55-1,4,4,0,0,0-3,1A7.93,7.93,0,0,0,75.34,65a19.87,19.87,0,0,0-1.68,3.17c-.51,1.17-.91,2.69-1.39,4.13v1.83a8.17,8.17,0,0,1,3.58-1.37,18.2,18.2,0,0,1,5.36.19l.24,0a2,2,0,0,0,2.2-.79A4,4,0,0,0,84,70.06,12.78,12.78,0,0,0,81.63,63.13Z"/><path class="cls-10" d="M80.68,64.28l-1.27,1.27.41-2.11.26-1.31a4,4,0,0,0-3,1A8.35,8.35,0,0,0,75.34,65,13.17,13.17,0,0,0,75,68.56a12,12,0,0,0,.88,4.22,17.74,17.74,0,0,1,5.34.2l.25,0a11.82,11.82,0,0,0,.82-5,12.06,12.06,0,0,0-1-4.41Z"/><path class="cls-11" d="M113,28.34c-3.12-3.16-7.35-5.47-11.79-5.39A17.44,17.44,0,0,0,87.49,30a49.38,49.38,0,0,0,16.35,25.33,49.48,49.48,0,0,0,28.07,11,251.64,251.64,0,0,0-11.58-26.9C118.3,35.46,116.12,31.5,113,28.34Z"/><path class="cls-11" d="M88.33,26a4.59,4.59,0,0,0-4.55.5A13.58,13.58,0,0,0,80.53,30c-5.38,7.39-7.82,16.9-9.66,25.86A32.6,32.6,0,0,0,90.19,30.94C91.23,29.72,89.74,26.76,88.33,26Z"/><path class="cls-11" d="M137.5,32.83c-5.91-11-17.48-18.82-30-18.93-9.47-.09-23.55,8-25.23,13.93-1.78,6.31,14.22,7.56,18.14,10.82a197.8,197.8,0,0,1,32,33.71,19.29,19.29,0,0,0,4.9,5.16c2,1.26,4.81,1.61,6.73.19,2.46-1.83,2.39-5.48,2.08-8.54C144.8,56.71,143.41,43.88,137.5,32.83Z"/><path class="cls-6" d="M89,55.72c-2.78-1.55-2.38,9.5-3.12,11.54-1,2.86-3.4,3.7-5.48,4.44S76,73.81,75.4,77s1,6.44,3,7.59,4.19.71,6.3.26a6.39,6.39,0,0,0,3-1.27,5.06,5.06,0,0,0,1.6-3.9c0-1-.41-2-.5-3a14,14,0,0,1,.62-4.46C90.11,69.39,91.7,57.21,89,55.72Z"/><path class="cls-12" d="M89,55.72c-2.78-1.55-2.38,9.5-3.12,11.54-1,2.86-3.4,3.7-5.48,4.44S76,73.81,75.4,77s1,6.44,3,7.59,4.19.71,6.3.26a6.39,6.39,0,0,0,3-1.27,5.06,5.06,0,0,0,1.6-3.9c0-1-.41-2-.5-3a14,14,0,0,1,.62-4.46C90.11,69.39,91.7,57.21,89,55.72Z"/><path class="cls-11" d="M101,56.16c-1.64-.6-3.51-1-5.09-.3-1.32.63-2.27,2.65-2.48,4.1,6.77-.29,14,1,19.69,4.67A29.34,29.34,0,0,0,101,56.16Z"/><path class="cls-11" d="M78.2,56c-2.45,1.22-4.59,3.7-6.13,7.12C75,60,78.83,59.49,82.54,60.46A9.18,9.18,0,0,0,81,56.18,2.15,2.15,0,0,0,78.2,56Z"/><path class="cls-9" d="M102.05,65a8.35,8.35,0,0,0-1.73-1.9,4.05,4.05,0,0,0-3-1,2.46,2.46,0,0,0-1.55,1,12.75,12.75,0,0,0-2.35,6.93,4,4,0,0,0,.32,2.16,2,2,0,0,0,2.2.79l.25,0a17.74,17.74,0,0,1,5.34-.2,8.12,8.12,0,0,1,4.72,2.31c-1.06-1.81-1.64-4.9-2.51-6.9A19.87,19.87,0,0,0,102.05,65Z"/><path class="cls-13" d="M100.32,63.12a4.05,4.05,0,0,0-3-1l.26,1.31L98,65.55l-1.27-1.27-.64-.63a12.06,12.06,0,0,0-1,4.41,11.82,11.82,0,0,0,.82,5l.25,0a17.74,17.74,0,0,1,5.34-.2,12,12,0,0,0,.88-4.22,13.17,13.17,0,0,0-.35-3.54A8.35,8.35,0,0,0,100.32,63.12Z"/><g class="cls-14"><path class="cls-15" d="M94.11,91.46a45,45,0,0,1-9.34,4.65,23.71,23.71,0,0,0,17.3-11.4A45.85,45.85,0,0,1,94.11,91.46Z"/></g><path class="cls-11" d="M150.36,78.45c-11.59-46.21-3.12-8.32-6.49-4-6.05,7.72.79,11.59,2.36,14.34,3.26,5.71,4.85,11,2.57,17.18-3.44,9.27-8.62,18.18-16.44,24.23-4.07,3.16-8.84,5.54-12.19,9.46s-4.77,10.26-1.35,14.11c2.32,2.61,6.23,3.31,9.63,2.53s6.36-2.79,9.09-4.95a64.39,64.39,0,0,0,17.6-21,47.93,47.93,0,0,0,5.2-26.7C159.34,94.53,152.57,87.26,150.36,78.45Z"/><g class="cls-14"><path class="cls-16" d="M140.79,62.22a10.65,10.65,0,1,0,4.57,14.36A10.66,10.66,0,0,0,140.79,62.22Z"/></g><path class="cls-6" d="M139.69,59.13a10.65,10.65,0,1,0,4.58,14.35A10.65,10.65,0,0,0,139.69,59.13Z"/><g class="cls-14"><path class="cls-15" d="M138.29,64.44a5.29,5.29,0,0,0-6.49,1.31A5.29,5.29,0,0,1,134,72.81a6,6,0,0,1-.65,1l.11.08a5.3,5.3,0,1,0,4.86-9.41Z"/></g><path class="cls-11" d="M143.81,78.39c-3.13-1.21-2.37,2.26-2.13,4.75.55,5.79-5.77,21.58-9.09,25.83-2.82,3.6-6.61,5.78-10.16,8.25s-7.08,5.56-8.72,10.11c-.85,2.34-1,5.46.62,7.1,1.23,1.24,3,1.18,4.59,1,8-.67,16.74-1.84,22.61-8.54,3.53-4,10.39-19.47,10.77-25.33a35.31,35.31,0,0,0-3.24-16.93C147.93,82.25,146.11,79.29,143.81,78.39Z"/><path class="cls-5" d="M151.21,73.14a1.53,1.53,0,0,0-.71-1.65c-.74-.3-1.47.39-2,1-2.34,2.64-5.15,3.59-7.93,5.48-1.61,1.09-1.5.56-1.6,2.75,0,.45.66,5.29.67,5.29l11.63-4.9a2.9,2.9,0,0,0,1.79-1.43c.59-1.66-1.89-2.87-2.1-4.61A7.91,7.91,0,0,1,151.21,73.14Z"/><path class="cls-17" d="M148.94,104.91c-1.94,4.82-3.2,9.24-6.47,13.5-4.08,5.31-9.32,9.61-14.56,13.79,6.89-.73,13.07-5.2,16.84-11C146.23,118.89,152.48,106.79,148.94,104.91Z"/><path class="cls-17" d="M116.83,50.32l-1.74-1.08-1.69-1.15A56.94,56.94,0,0,1,107.06,43a58.28,58.28,0,0,1-5.56-6,63.51,63.51,0,0,1-4.71-6.71,38.15,38.15,0,0,0,4.1,7.18,42.23,42.23,0,0,0,5.49,6.23A41.94,41.94,0,0,0,113,48.74l1.79,1,1.84,1,1.89.85,1.92.75c-.6-.34-1.2-.67-1.81-1Z"/><path class="cls-17" d="M111.59,37a42,42,0,0,1-4-4.26A46,46,0,0,1,104.27,28a27.11,27.11,0,0,0,2.93,5.12,30.16,30.16,0,0,0,8.6,8,27.87,27.87,0,0,0,5.3,2.57,46.82,46.82,0,0,1-5-3A44.21,44.21,0,0,1,111.59,37Z"/><path class="cls-17" d="M82.83,37.43a42.26,42.26,0,0,1-3.46,4.66,43.59,43.59,0,0,1-4.1,4.17,26.73,26.73,0,0,0,4.5-3.8,30.41,30.41,0,0,0,6.35-9.92,26.75,26.75,0,0,0,1.57-5.68,47.33,47.33,0,0,1-2.07,5.47A42.69,42.69,0,0,1,82.83,37.43Z"/></g></g></g></g></svg>
