<svg xmlns="http://www.w3.org/2000/svg" version="1.1" viewBox="0 0 3000 3000" width="3000" height="3000">
<defs/><!--ITEM: Illustration component 1--><g transform="translate(1846.0 1900.0) rotate(-19.44698860428832 531.0 327.0)  scale(1.4832402234636872 1.4829931972789117)"><svg width="716.0" height="441.0" viewBox="0.0 0.0 716.0 441.0"><clipPath id="a-i1"><path d="m0 0h715.4v441h-715.4z" fill="#000000"/></clipPath><g clip-path="url(#a-i1)"><path d="m357.7 441c197.552 0 357.7-98.721 357.7-220.5 0-121.7788-160.148-220.5-357.7-220.5s-357.7 98.7212-357.7 220.5c0 121.779 160.148 220.5 357.7 220.5z" fill="#fece2f"/></g></svg></g><!--ITEM: Illustration component 2--><g transform="translate(1256.0 206.0) rotate(28.66538893307388 838.0 690.0)  scale(2.9403508771929823 2.9424307036247335)"><svg width="570.0" height="469.0" viewBox="0.0 0.0 570.0 469.0"><clipPath id="a-i2"><path d="m0 0h569.8v468.4h-569.8z" fill="#000000"/></clipPath><g clip-path="url(#a-i2)"><path d="m1.19982 254.6c12.29998-130.2 98.29998-223.5001 248.60018-249.40005 183.5-30.90005 330.4 79.19995 319.5 281.40005-7 130.5-134 169-286 180.2-211.2002 15.5-294.5002-82.1-282.10018-212.2z" fill="#fece2f"/></g></svg></g><!--ITEM: Illustration background 3--><g transform="translate(104.0 1812.0) rotate(0.0 858.0 464.0)  scale(4.009345794392523 4.017316017316017)"><svg width="428.0" height="231.0" viewBox="0.0 0.0 428.0 231.0"><clipPath id="a-i3"><path d="m0 0h427.95v230.74h-427.95z" fill="#000000"/></clipPath><g clip-path="url(#a-i3)"><path d="m425.605 196.332c17.369-45.402-63.297-118.4528-180.172-163.1631-116.876-44.7104-225.7015-44.1496-243.06997 1.2526-17.36853 45.4022 63.29747 118.4525 180.17297 163.1635 116.875 44.71 225.701 44.149 243.069-1.253z" fill="#fece2f"/></g></svg></g><!--ITEM: Illustration background 4--><g transform="translate(232.0 1920.0) rotate(0.0 696.0 317.0)  scale(4.563934426229508 4.561151079136691)"><svg width="305.0" height="139.0" viewBox="0.0 0.0 305.0 139.0"><clipPath id="a-i4"><path d="m0 0h304.089v138.019h-304.089z" fill="#000000"/></clipPath><g clip-path="url(#a-i4)" fill="#1a1a1a"><path d="m302.445 126.547c7.661-20.026-53.463-62.0188-136.523-93.7935-83.061-31.774693-156.60536-41.29871-164.26636-21.2725-7.66099 20.0262 53.46246 62.0192 136.52336 93.794 83.06 31.775 156.605 41.299 164.266 21.272z"/><path d="m271.878 138.013c-6.829 0-14.659-.561-23.423-1.695-31.102-4.026-70.394-14.721-110.638-30.114-40.2442-15.3928-76.6422-33.6498-102.4922-51.4068-26.20499-18.001-38.49699-33.511-34.610989-43.671 3.886999-10.158991 23.389989-13.50799 54.919989-9.42599 31.102 4.026 70.3942 14.72099 110.6382 30.11399s76.643 33.65 102.492 51.407c26.205 18.0008 38.497 33.5108 34.61 43.6708-2.806 7.336-13.758 11.121-31.496 11.121zm-239.6842-136.00279c-16.678 0-27.13999 3.368-29.61199 9.83099-3.471999 9.078 8.87499 24.134 33.87499 41.308 25.724 17.67 61.975 35.849 102.0752 51.1878 40.1 15.339 79.229 25.992 110.18 29.999 30.077 3.892 49.321.92 52.795-8.158 3.472-9.078-8.875-24.134-33.875-41.3078-25.724-17.67-61.975-35.849-102.075-51.188s-79.2302-25.99199-110.1802-29.99799c-8.665-1.122-16.435-1.674-23.183-1.674z"/></g></svg></g><!--ITEM: Illustration component 5--><g transform="translate(2016.0 1766.0) rotate(0.0 361.0 350.0)  scale(4.540880503144654 4.545454545454546)"><svg width="159.0" height="154.0" viewBox="0.0 0.0 159.0 154.0"><clipPath id="a-i5"><path d="m0 0h158.646v153.228h-158.646z" fill="#000000"/></clipPath><g clip-path="url(#a-i5)"><path d="m145.523 91.5002-30.641 45.3008c-2.59 3.83-6.534 6.536-11.039 7.576l-.631.146 51.127-143.19683c2.644 3.778 3.765 8.415 3.136 12.98303l-9.868 71.745c-.267 1.952-.981 3.815-2.084 5.446z" fill="#fece2f"/><path d="m103.211 145.523c-.282 0-.555-.119-.747-.335-.243-.273-.317-.657-.194-1.001l51.128-143.197147c.125-.352.438-.604.808-.655.378-.049.739.112.953.418 2.798 3.996997 3.973 8.859997 3.307 13.693047l-9.867 71.745c-.287 2.092-1.064 4.122-2.247 5.869l-30.642 45.3011c-2.74 4.053-6.875 6.891-11.643 7.991l-.631.146c-.074.017-.149.025-.225.025zm51.371-141.90215-49.797 139.47015c3.778-1.152 7.038-3.552 9.269-6.85l30.642-45.3011c1.011-1.495 1.676-3.232 1.923-5.021l9.867-71.745c.502-3.66-.171-7.33905-1.904-10.55305z" fill="#1a1a1a"/><path d="m10.816 152.23h82.535c4.701 0 8.88-1.306 9.512-7.052-5.594 0-101.863 0-101.863 0s1.458 7.052 9.816 7.052z" fill="#fece2f"/><path d="m93.3518 153.229h-82.536c-9.06601 0-10.7790131-7.771-10.7960131-7.85-.061-.294.014-.601.2040001-.834.189-.233.475-.369.775-.369h101.864213c.284 0 .555.121.745.333.189.212.28.494.249.777-.872 7.943-8.1222 7.943-10.5052 7.943zm-90.96001-7.052c.802 1.82 2.989 5.052 8.42401 5.052h82.536c4.999 0 7.5592-1.525 8.3382-5.052z" fill="#1a1a1a"/><path d="m.999512 145.175h101.863488l16.325-89.8488h-85.1485z" fill="#fff"/><g fill="#1a1a1a"><path d="m102.864 146.175h-101.864333c-.327 0-.633-.16-.82-.428-.18699988-.268-.2309999-.611-.1179999-.917l33.0410329-89.8488c.145-.394.52-.655.938-.655h85.1473c.297 0 .578.131.768.359s.27.528.216.819l-16.323 89.8488c-.088.476-.502.822-.985.822zm-100.43133-2h99.59633l15.961-87.8488h-83.2523z"/><path d="m142.695 86.67-39.832 58.506 16.325-89.849 35.391-54.327z"/><path d="m102.864 146.176c-.127 0-.256-.024-.379-.075-.438-.179-.689-.639-.605-1.104l16.324-89.849c.024-.131.074-.256.146-.367l35.391-54.326949c.255-.3929998.752-.5539998 1.188-.3909998.439.1639998.705.6099998.641 1.0739988l-11.884 85.66905c-.021.153-.077.298-.164.426l-39.831 58.5059c-.191.281-.504.438-.827.438zm17.272-90.472-15.445 85.012 37.046-54.4159 11.236-81.00305zm22.559 30.9661h.01z"/></g><path d="m80.362 123.738 6.708-.007c1.079-.001 1.796.728 1.601 1.632l-1.227 5.681c-.199.922-1.248 1.672-2.342 1.672h-6.802c-1.092 0-1.803-.749-1.588-1.67l1.321-5.674c.21-.903 1.252-1.633 2.329-1.634zm-20.001 1.649-1.478 5.663c-.24.919.446 1.667 1.534 1.667h6.775c1.089 0 2.155-.748 2.38-1.669l1.384-5.67c.22-.901-.473-1.629-1.547-1.628l-6.681.007c-1.073 0-2.132.729-2.367 1.63zm-17.601.015-1.634 5.651c-.265.917.397 1.663 1.48 1.663h6.747c1.085 0 2.168-.747 2.418-1.665l1.54-5.658c.245-.9-.425-1.626-1.495-1.625l-6.654.007c-1.066.001-2.142.728-2.402 1.627zm-17.528.014-1.788 5.64c-.29.916.348 1.66 1.426 1.66h6.719c1.08 0 2.18-.745 2.456-1.662l1.695-5.647c.27-.898-.376-1.623-1.442-1.622l-6.626.007c-1.064.002-2.156.728-2.44 1.624zm55.74-12.668-1.268 5.447c-.206.884.494 1.602 1.564 1.6l6.666-.01c1.072-.002 2.097-.722 2.288-1.608l1.177-5.454c.187-.867-.519-1.566-1.576-1.564l-6.576.016c-1.054.004-2.073.706-2.275 1.573zm-17.323.04-1.419 5.437c-.23.882.446 1.598 1.512 1.597l6.639-.01c1.068-.002 2.109-.721 2.324-1.604l1.329-5.443c.211-.866-.472-1.563-1.525-1.561l-6.549.016c-1.051.002-2.085.703-2.311 1.568zm-17.254.04-1.568 5.426c-.255.881.399 1.595 1.46 1.594l6.613-.01c1.063-.002 2.121-.72 2.361-1.601l1.479-5.432c.235-.864-.425-1.56-1.474-1.558l-6.523.016c-1.048.002-2.099.702-2.348 1.565zm-17.185.039-1.717 5.416c-.279.879.352 1.592 1.409 1.591l6.586-.01c1.059-.002 2.133-.718 2.397-1.598l1.628-5.422c.259-.862-.379-1.557-1.424-1.555l-6.497.016c-1.043.003-2.109.701-2.382 1.562zm54.586-12.245-1.219 5.234c-.198.849.492 1.537 1.541 1.534l6.536-.019c1.051-.003 2.052-.697 2.236-1.547l1.131-5.24c.18-.8331-.515-1.5041-1.552-1.5001l-6.448.025c-1.036.004-2.031.68-2.225 1.5131zm-16.988.063-1.363 5.224c-.221.848.446 1.534 1.491 1.531l6.51-.019c1.047-.003 2.064-.695 2.271-1.544l1.277-5.23c.203-.8321-.47-1.5011-1.503-1.4971l-6.423.025c-1.032.004-2.043.679-2.26 1.5101zm-16.921.063-1.507 5.214c-.245.846.4 1.531 1.441 1.528l6.484-.019c1.043-.003 2.075-.694 2.306-1.541l1.421-5.22c.226-.8301-.425-1.4981-1.454-1.4941l-6.398.025c-1.027.004-2.054.677-2.293 1.5071zm-16.855.062-1.65 5.204c-.268.845.355 1.528 1.392 1.525l6.458-.019c1.038-.003 2.087-.693 2.341-1.538l1.564-5.21c.249-.8291-.381-1.4961-1.406-1.4921l-6.373.025c-1.022.005-2.064.678-2.326 1.5051zm53.478-11.8451-1.172 5.032c-.19.817.489 1.476 1.518 1.472l6.41-.028c1.031-.004 2.01-.672 2.186-1.49l1.088-5.038c.173-.801-.512-1.445-1.529-1.44l-6.325.033c-1.016.007-1.99.659-2.176 1.459zm-16.665.085-1.311 5.023c-.213.815.445 1.474 1.47 1.469l6.385-.028c1.027-.004 2.021-.671 2.22-1.487l1.228-5.029c.195-.8-.468-1.443-1.482-1.437l-6.301.033c-1.012.006-2.001.656-2.209 1.456zm-16.601.084-1.449 5.014c-.235.814.401 1.471 1.422 1.467l6.36-.027c1.023-.004 2.032-.67 2.254-1.484l1.367-5.02c.217-.799-.425-1.44-1.435-1.435l-6.277.033c-1.008.004-2.011.654-2.242 1.452zm-16.537.083-1.587 5.005c-.257.812.358 1.468 1.375 1.464l6.335-.027c1.019-.004 2.043-.669 2.287-1.482l1.504-5.011c.239-.797-.382-1.438-1.388-1.432l-6.253.033c-1.003.006-2.021.654-2.273 1.45zm52.414-11.466-1.128 4.842c-.183.786.487 1.419 1.496 1.414l6.288-.035c1.011-.006 1.969-.649 2.139-1.436l1.047-4.847c.167-.771-.508-1.39-1.506-1.383l-6.207.04c-.997.006-1.949.634-2.129 1.405zm-16.354.104-1.262 4.834c-.205.784.444 1.417 1.45 1.411l6.264-.035c1.007-.006 1.98-.648 2.171-1.433l1.181-4.839c.188-.77-.466-1.387-1.461-1.381l-6.184.04c-.991.006-1.958.634-2.159 1.403zm-16.293.103-1.395 4.826c-.226.783.402 1.414 1.404 1.409l6.241-.035c1.003-.006 1.99-.647 2.204-1.431l1.315-4.831c.209-.769-.425-1.385-1.415-1.379l-6.161.04c-.99.007-1.971.634-2.193 1.401zm-16.231.104-1.527 4.817c-.248.781.36 1.412 1.358 1.406l6.217-.035c1-.006 2.001-.646 2.236-1.428l1.448-4.822c.23-.767-.383-1.383-1.37-1.376l-6.138.04c-.986.006-1.981.631-2.224 1.398zm51.392-11.108-1.086 4.663c-.176.756.484 1.365 1.475 1.358l6.172-.043c.992-.007 1.93-.628 2.093-1.385l1.008-4.668c.16-.743-.504-1.337-1.484-1.33l-6.094.047c-.979.01-1.911.616-2.084 1.358zm-16.055.122-1.215 4.655c-.197.755.443 1.363 1.43 1.356l6.149-.042c.989-.007 1.94-.627 2.125-1.382l1.138-4.66c.181-.742-.464-1.335-1.44-1.328l-6.071.047c-.976.008-1.923.614-2.116 1.354zm-15.995.122-1.343 4.647c-.218.754.402 1.361 1.385 1.354l6.126-.042c.985-.007 1.951-.625 2.156-1.38l1.267-4.652c.202-.74-.424-1.333-1.397-1.326l-6.049.047c-.972.008-1.932.612-2.145 1.352zm-15.937.121-1.471 4.64c-.239.753.362 1.359 1.341 1.352l6.103-.042c.981-.007 1.961-.624 2.187-1.378l1.394-4.644c.222-.739-.384-1.331-1.353-1.323l-6.026.047c-.967.006-1.941.61-2.175 1.348z" fill="#fece2f"/></g></svg></g><!--ITEM: Illustration component 6--><g transform="translate(2080.0 852.0) rotate(0.0 344.0 309.0)  scale(2.156739811912226 2.168421052631579)"><svg width="319.0" height="285.0" viewBox="0.0 0.0 319.0 285.0"><clipPath id="a-i6"><path d="m0 0h319v285h-319z" fill="#000000"/></clipPath><g clip-path="url(#a-i6)"><path d="m142.5 142.5h141c0 77.35-63.65 141-141 141s-141-63.65-141-141 63.65-141 141-141c24.751.00048 49.065 6.51538 70.5 18.89z" fill="rgb(255,255,255)"/><g fill="#1a1a1a"><path d="m142.5 285c-28.186.055-55.7526-8.266-79.2004-23.908-23.4479-15.641-41.7195-37.897-52.4953-63.941-10.7758147-26.045-13.56992-54.705-8.0276-82.34 5.54233-27.6361 19.1711-53.0019 39.1563-72.8776 22.0925-22.2531 50.9328-36.56325 82.017-40.69548 31.084-4.13223 62.661 2.1461 89.8 17.85448.344.1989.596.5265.699.9108s.049.7937-.15 1.1382l-69.199 119.8586h138.4c.398 0 .779.158 1.061.44.281.281.439.663.439 1.06-.177 37.739-15.248 73.882-41.933 100.567-26.686 26.686-62.828 41.756-100.567 41.933zm0-281.9996c-76.921 0-139.50002 62.579-139.50002 139.4996 0 76.921 62.57902 139.5 139.50002 139.5 76.418 0 138.682-61.77 139.492-138h-139.492c-.263.001-.522-.069-.75-.2-.229-.132-.418-.321-.55-.549s-.201-.487-.201-.75c0-.264.069-.523.201-.751l69.746-120.7996c-20.897-11.75812-44.468-17.93975-68.446-17.95z"/><path d="m299.908 52.5166c-12.514-21.657-30.501-39.6443-52.158-52.158962-.171-.098643-.359-.162692-.554-.188486-.196-.025795-.394-.012829-.585.038157-.19.050986-.369.138991-.525.258986s-.288.269627-.386.440343l-70.5 122.110362c-.132.228-.201.486-.201.75 0 .263.069.522.201.75s.321.417.55.549c.228.132.487.201.75.201h141c.398 0 .779-.158 1.061-.44.281-.281.439-.663.439-1.06-.009-25.0133-6.593-49.5844-19.092-71.2504z"/></g></g></svg></g><!--ITEM: Illustration component 7--><g transform="translate(144.0 904.0) rotate(0.0 1037.0 821.0)  scale(4.2326530612244895 4.231958762886598)"><svg width="490.0" height="388.0" viewBox="0.0 0.0 490.0 388.0"><clipPath id="a-i7"><path d="m0 0h489.769v387.125h-489.769z" fill="#000000"/></clipPath><g clip-path="url(#a-i7)"><path d="m401.031 214.658s3.957-7.032 4.408-11.882 4.151-4.171 4.433-.466c.283 3.706-.791 8.727-.791 8.727" fill="#fece2f"/><path d="m401.029 215.657c-.166 0-.334-.042-.489-.128-.481-.271-.652-.88-.381-1.362.038-.068 3.857-6.906 4.283-11.484.299-3.208 1.864-4.349 3.237-4.349h.021c1.428.012 2.975 1.355 3.169 3.9.29 3.806-.765 8.802-.811 9.013-.114.54-.647.879-1.187.769-.54-.115-.884-.647-.769-1.187.01-.049 1.039-4.928.771-8.442-.106-1.394-.773-2.049-1.191-2.052-.001 0-.002 0-.003 0-.407 0-1.073.673-1.246 2.535-.466 5.004-4.367 11.985-4.533 12.279-.182.324-.521.508-.871.508z" fill="#1a1a1a"/><path d="m444.735 206.724c-8.611-.009-20.444 5.47-20.444 5.47s4.221-6.518 15.797-11.777c4.584-2.082 2.905-5.535-2.051-3.947-7.722 2.474-16.66 10.271-17.698 11.678 0 0 4.915-9.023 12.295-15.023 3.015-2.451 1.679-6.366-3.062-2.738-11.278 8.631-22.074 21.541-47.723 38.101-.603.389-1.398.888-2.351 1.474l17.555 16.847c3.695-4.246 5.738-6.778 5.776-6.806 6.189-6.282 18.944-19.647 38.107-18.651 4.972.702 5.742-2.825 2.04-3.888-7.174-2.059-15.158-.426-15.158-.426s4.208-4.64 17.179-5.789c4.452-.394 4.434-4.52-.262-4.525z" fill="#fece2f"/><path d="m397.053 247.81c-.258 0-.506-.1-.692-.278l-17.555-16.847c-.224-.214-.335-.521-.302-.828s.206-.583.47-.745c.946-.582 1.733-1.077 2.333-1.463 17.217-11.116 27.733-20.597 36.184-28.216 4.166-3.756 7.765-7 11.475-9.838 3.713-2.843 5.357-1.344 5.773-.818 1.059 1.342.412 3.593-1.473 5.125-3.237 2.632-6.005 5.884-8.068 8.662 3.572-2.695 8.267-5.677 12.535-7.044 3.313-1.063 5.346-.11 5.891 1.302.468 1.213-.069 3.121-3.122 4.507-6.17 2.803-10.212 5.988-12.595 8.279 4.27-1.64 11.147-3.883 16.809-3.883h.021c3.057.003 4.492 1.537 4.559 3.055.064 1.484-1.225 3.202-4.21 3.467-6.407.567-10.61 2.012-13.174 3.274 3.041-.214 7.291-.18 11.342.983 2.443.701 3.263 2.304 2.99 3.582-.288 1.356-1.891 2.758-5.447 2.257-18.261-.934-30.841 11.846-36.89 17.992l-.35.355c-.041.049-.135.162-.279.336-.709.857-2.593 3.133-5.471 6.44-.18.207-.436.331-.709.343-.015 0-.031.001-.045.001zm-15.933-17.676 15.866 15.227c2.475-2.859 4.104-4.828 4.75-5.609.271-.327.355-.429.417-.487l.327-.332c6.253-6.355 19.278-19.582 38.507-18.579 2.313.322 3.225-.337 3.3-.685.063-.299-.396-.901-1.586-1.243-6.86-1.97-14.604-.423-14.683-.408-.422.089-.855-.109-1.069-.484s-.162-.847.128-1.167c.183-.201 4.623-4.943 17.832-6.113 1.682-.149 2.408-.901 2.388-1.387-.024-.553-.931-1.141-2.563-1.143-.006 0-.014 0-.02 0-8.294 0-19.888 5.324-20.004 5.377-.401.187-.883.086-1.175-.252-.292-.336-.326-.825-.084-1.199.179-.276 4.515-6.825 16.222-12.144 1.709-.776 2.2-1.663 2.083-1.966-.145-.376-1.294-.795-3.415-.118-7.547 2.418-16.283 10.081-17.198 11.319-.313.422-.899.532-1.342.249s-.593-.86-.341-1.322c.204-.375 5.095-9.266 12.543-15.32 1.185-.963 1.391-2.048 1.164-2.334-.146-.187-1.127-.257-2.988 1.167-3.646 2.791-7.216 6.009-11.35 9.736-8.504 7.667-19.087 17.208-36.439 28.411-.358.232-.784.502-1.27.806z" fill="#1a1a1a"/><path d="m486.051 292.069c-7.892-4.096-8.256-11.581-13.921-15.919 0 0 5.247 1.529 9.456 1.892 3.462.298 4.89-3.141-.289-4.396-9.124-2.211-11.672-5.15-26.001-10.41-10.991-4.035-27.774-.95-27.774-.95s-2.781.511-4.339.846c-6.53 1.404-12.945 2.632-19.249 3.523l4.681 26.146c6.276-3.037 12.623-6.557 19.03-10.605l-.001.061s.655-.461 1.678-1.143c.82-.529 1.638-1.041 2.46-1.587.029-.019.056-.039.084-.058 2.666-1.672 6.046-3.616 8.468-4.391 6.366-2.036 10.834 11.034 13.695 18.504 2.86 7.47 6.951 3.803 6.663.519s-.393-2.469-2.159-10.034c7.143 5.992 14.221 10.874 24.248 13.098 6.254 1.384 8.05-2.769 3.27-5.096z" fill="#fece2f"/><path d="m457.947 298.956c-1.325 0-3.261-.859-4.854-5.02l-.561-1.476c-2.556-6.751-6.833-18.052-11.896-16.433-1.877.601-4.727 2.083-8.241 4.286-.614.411-1.165.763-1.716 1.114l-.817.524c-.994.663-1.639 1.117-1.645 1.121-.104.073-.218.124-.336.153-6.205 3.906-12.539 7.429-18.833 10.474-.283.136-.612.131-.89-.009-.279-.143-.476-.407-.53-.715l-4.681-26.146c-.048-.268.015-.542.175-.763.159-.22.4-.366.67-.404 5.67-.801 11.764-1.917 19.178-3.51 1.556-.334 4.254-.831 4.368-.852.696-.128 17.18-3.087 28.3.994 6.587 2.418 10.748 4.372 14.092 5.941 4.03 1.892 6.942 3.259 11.8 4.436 3.387.82 4.355 2.572 4.133 3.937-.26 1.591-2.003 2.617-4.165 2.427-2.024-.174-4.255-.604-6.063-1.014 1.133 1.405 2.04 2.928 2.93 4.421 1.912 3.208 3.89 6.525 8.135 8.732 3.041 1.485 3.579 3.564 3.115 4.895-.543 1.555-2.717 3.03-7.054 2.067-8.931-1.98-15.58-5.984-22.367-11.415.273 1.114.486 1.941.655 2.599.521 2.028.646 2.51.836 4.69.197 2.25-1.166 4.433-3.039 4.865-.204.048-.44.081-.699.081zm-16.274-25.099c5.956 0 9.986 10.648 12.73 17.896l.558 1.469c1.156 3.016 2.427 3.896 3.237 3.706.875-.202 1.602-1.534 1.496-2.742-.177-2.016-.269-2.375-.78-4.367-.293-1.138-.716-2.784-1.356-5.528-.098-.419.083-.854.45-1.08.366-.225.837-.19 1.166.086 7.397 6.206 14.279 10.772 23.822 12.888 3.017.667 4.503-.12 4.731-.774.203-.583-.372-1.595-2.114-2.444-.008-.003-.016-.007-.023-.011-4.758-2.469-6.885-6.038-8.941-9.488-1.465-2.458-2.85-4.78-5.128-6.525-.382-.292-.501-.816-.284-1.246.218-.429.711-.643 1.172-.508.052.015 5.204 1.505 9.263 1.855 1.218.106 1.956-.372 2.02-.757.063-.385-.596-1.178-2.63-1.671-5.055-1.225-8.198-2.7-12.179-4.569-3.309-1.553-7.427-3.486-13.932-5.874-10.612-3.896-27.084-.935-27.249-.905-.003 0-2.762.507-4.31.84-7.017 1.509-12.863 2.592-18.291 3.388l4.265 23.824c5.935-2.926 11.898-6.277 17.744-9.971.078-.049.161-.087.247-.113.289-.2.78-.537 1.41-.957l.838-.537c.54-.345 1.08-.69 1.622-1.05.008-.005.1-.068.107-.073 3.706-2.324 6.632-3.836 8.694-4.497.564-.18 1.112-.265 1.645-.265z" fill="#1a1a1a"/><path d="m419.008 264.003c-50.185 10.234-97.551 8.065-135.587-83.052l-67.874 60.168c21.378 35.066 107.967 105.135 210.002 42.358-8.882-3.04-7.529-14.641-6.541-19.474z" fill="#fff"/><path d="m342.348 309.719c-11.28 0-22.581-1.356-33.889-4.074-50.737-12.195-83.52-47.2-93.765-64.005-.252-.413-.172-.948.19-1.269l67.874-60.168c.241-.213.569-.299.887-.226.314.072.575.292.699.589 39.006 93.439 87.813 91.97 134.464 82.458.331-.064.67.036.907.273.237.238.34.579.272.908-.938 4.583-2.243 15.545 5.885 18.326.366.125.628.451.671.835s-.141.76-.47.962c-27.47 16.901-55.517 25.391-83.725 25.391zm-125.506-68.411c10.57 16.818 42.692 50.52 92.085 62.392 38.492 9.252 76.992 2.496 114.464-20.08-6.898-3.757-6.493-13.096-5.633-18.345-22.119 4.413-47.737 7.192-71.521-3.886-25.067-11.677-45.748-37.448-63.197-78.765z" fill="#1a1a1a"/><path d="m173.435 354.389c55.507 21.231 106.744 32.515 136.929 31.695 2.344-110.805-17.39-283.544-106.555-266.363-92.811 37.376-92.049 189.419-92.63 206.969 18.474 9.558 39.541 19.011 62.256 27.699z" fill="#fff"/><path d="m135.935 192.52c-13.021 51.702 3.447 71.234-11.106 94.979-3.042 4.964-2.506 16.979 1.532 27.191 4.34 10.979 13.021 18.638 30.383 32.681-27.574-12-45.566-20.681-45.566-20.681s-.137-80.17 24.757-134.17z" fill="#fece2f"/><path d="m207.552 130.348c-16.851-1.532-39.83 13.021-61.532 41.872 2.528-5.055 5.829-10.14 9.499-14.963 11.528-15.154 26.687-27.728 32.884-28.696 8.17-1.276 19.149 1.787 19.149 1.787z" fill="#fece2f"/><path d="m150.167 204.025c-1.599 0-3.211-.149-4.819-.451-4.446-.835-8.583-2.813-11.964-5.72-.418-.36-.466-.992-.105-1.41.36-.419.991-.465 1.41-.106 3.113 2.678 6.927 4.5 11.028 5.271 6.031 1.133 12.119-.062 17.147-3.362 5.018-3.292 8.378-8.289 9.464-14.068 2.128-11.329-5.289-22.55-16.888-25.545-.535-.138-.856-.684-.718-1.218.138-.535.683-.856 1.218-.718 12.613 3.257 20.675 15.491 18.353 27.851-1.187 6.319-4.855 11.777-10.332 15.371-4.12 2.702-8.892 4.105-13.794 4.105z" fill="#fece2f"/><path d="m198.36 121.924c12.184-7.22 22.395-2.321 49.26 20.51.416-6.957-.628-13.018-5.099-17.24-4.472-4.223-23.631-17.63-44.161-3.27z" fill="#fece2f"/><path d="m192.075 362.224c-.025 0-.052-.001-.077-.003-.551-.042-.963-.523-.921-1.074.52-6.769-1.627-13.335-6.046-18.489s-10.58-8.279-17.349-8.799c-8.471-.651-16.66 2.947-21.924 9.624-.341.434-.969.509-1.404.166-.434-.342-.508-.971-.166-1.404 5.677-7.201 14.527-11.08 23.646-10.379 7.302.561 13.948 3.932 18.715 9.491s7.082 12.642 6.521 19.944c-.039.524-.477.923-.995.923z" fill="#fece2f"/><path d="m292.572 206.307c9.957 23.745 18 47.106 23.362 57.447 8.109 15.64 18.766 22.213 31.787 30.255 13.021 8.043 29.106-3.83 60.893-1.21-37.148 14.614-65.106 20.359-101.489 12.316-.765-18-8.042-81.191-14.553-98.808z" fill="#1a1a1a"/><path d="m307.247 387.125c-31.568 0-82.484-12.033-134.171-31.802-22.224-8.5-43.204-17.835-62.359-27.746-.342-.177-.553-.536-.539-.921.024-.758.047-1.768.075-3.01 2.439-108.886 35.531-181.638 93.181-204.854.06-.024.122-.042.185-.054 21.961-4.23 41.1 2.708 56.897 20.618 13.663 15.49 24.876 39.241 33.327 70.592 17.78 65.96 18.175 145.165 17.52 176.157-.012.533-.439.964-.973.979-1.025.028-2.074.041-3.143.041zm-133.456-33.67c52.667 20.144 104.479 32.21 135.591 31.651.625-31.551.063-109.593-17.471-174.637-8.37-31.051-19.438-54.532-32.896-69.789-15.275-17.318-33.751-24.046-54.924-19.996-76.646 30.942-90.438 140.461-91.84 203.007-.021.932-.038 1.734-.057 2.398 18.939 9.77 39.659 18.975 61.597 27.366z" fill="#1a1a1a"/><path d="m138.455 210.74c-.025 25.34 10.64 62.325 28.662 91.52 8.698 14.089 19.109 26.365 30.859 34.641 77.385 54.508 192.128-80.681 204.851-96.9.746-.757 1.59-1.619 2.527-2.545-3.497-8.887-10.414-12.649-15.647-14.246-2.46 1.716-5.067 3.473-7.86 5.276-10.398 6.713-75.552 44.799-103.482 41.665-17.522-1.966-26.644-25.318-36.346-59.251" fill="#fff"/><path d="m259.891 346.583c-13.504 0-24.489-10.986-24.489-24.489s10.985-24.489 24.489-24.489 24.489 10.986 24.489 24.489-10.985 24.489-24.489 24.489zm0-46.978c-12.4 0-22.489 10.089-22.489 22.489s10.089 22.489 22.489 22.489 22.489-10.089 22.489-22.489-10.088-22.489-22.489-22.489z" fill="#fece2f"/><path d="m238.536 183.894c-1.745 0-3.542-.227-5.36-.686-5.88-1.485-11.294-5.231-15.243-10.548-3.95-5.316-5.974-11.581-5.697-17.64.279-6.135 2.875-11.328 7.309-14.622 4.435-3.294 10.153-4.28 16.11-2.776 5.88 1.485 11.294 5.231 15.243 10.548 3.95 5.316 5.974 11.582 5.697 17.64-.279 6.135-2.875 11.328-7.309 14.622-3.08 2.288-6.781 3.462-10.75 3.462zm-8.232-44.956c-3.547 0-6.839 1.04-9.566 3.066-3.943 2.929-6.253 7.584-6.504 13.107-.255 5.6 1.629 11.409 5.305 16.356s8.692 8.429 14.128 9.801c5.359 1.354 10.484.486 14.427-2.442 3.943-2.929 6.253-7.584 6.504-13.107.255-5.6-1.629-11.409-5.305-16.357s-8.692-8.428-14.128-9.801c-1.652-.417-3.282-.623-4.861-.623z" fill="#fece2f"/><path d="m485.329 292.875c-.073 0-.147-.008-.222-.025-8.482-1.92-17.506-8.738-17.886-9.028-.439-.334-.524-.961-.19-1.401.335-.44.962-.526 1.401-.19.09.068 9.063 6.846 17.116 8.669.539.122.877.657.755 1.196-.105.464-.517.779-.974.779z" fill="#1a1a1a"/><path d="m470.226 279.676s5.297 2.676 8.847 5.889z" fill="#fece2f"/><path d="m479.072 286.565c-.239 0-.479-.085-.671-.259-3.405-3.083-8.575-5.712-8.627-5.738-.493-.249-.69-.851-.441-1.344.249-.492.853-.69 1.344-.441.221.112 5.458 2.774 9.066 6.041.41.371.441 1.003.07 1.413-.197.217-.468.328-.741.328z" fill="#1a1a1a"/><path d="m336.423 307.265c-.248 0-.495-.091-.689-.275-4.768-4.533-7.394-10.652-7.394-17.23 0-13.108 10.664-23.772 23.771-23.772 7.468 0 14.355 3.407 18.896 9.346.335.439.251 1.066-.188 1.402-.439.335-1.066.252-1.401-.187-4.16-5.441-10.468-8.561-17.308-8.561-12.005 0-21.771 9.767-21.771 21.772 0 6.024 2.405 11.628 6.772 15.781.399.38.416 1.013.035 1.414-.195.206-.459.31-.723.31z" fill="#fece2f"/><path d="m255.807 252.647c3.773 35.673 10.479 29.066 19.708 24.329 7.641-3.921 7.298 3.464 13.854 3.541 4.624.054 8.898-5.691 13.026-7.925s6.674 3.017 16.075-4.589c4.187-3.388 10.961-5.299 14.515-5.675 3.555-.376 8.414-3.781 12.126-7.027 6.345-5.549 39.904-28.098 39.904-28.098s-47.655 27.634-69.515 34.568c-12.809 4.063-43.608 19.983-59.693-9.124z" fill="#fece2f"/><path d="m164.224 298.741c-.298 0-.593-.132-.79-.386-.339-.436-.261-1.064.175-1.403 5.751-4.479 9.05-11.225 9.05-18.507 0-12.928-10.517-23.445-23.444-23.445-1.067 0-2.141.072-3.192.215-.546.076-1.052-.309-1.126-.856s.31-1.051.856-1.125c1.141-.155 2.306-.234 3.462-.234 14.03 0 25.444 11.415 25.444 25.445 0 7.903-3.58 15.223-9.821 20.085-.184.143-.4.211-.614.211z" fill="#fece2f"/><g fill="#1a1a1a"><path d="m258.872 149.761c-3.259 0-9.159-4.701-11.807-6.96-.234-.2-.363-.497-.35-.804.218-5.038-1.146-10.195-4.17-15.767-.214-.395-.139-.884.184-1.196.323-.313.813-.372 1.202-.144.478.281 11.749 7.006 16.305 18.851.728 1.894 1.514 4.54-.063 5.655-.356.252-.796.365-1.301.365zm-10.142-8.171c4.956 4.165 9.488 6.683 10.288 6.174 0-.001.398-.579-.649-3.304-2.864-7.449-8.723-12.865-12.347-15.669 1.919 4.418 2.81 8.637 2.708 12.799z"/><path d="m247.02 145.819.11 3.451s2.423 1.326 4.073.412l2.437-2.905-5.154-3.97z"/><path d="m249.828 151.005c-1.548 0-2.966-.743-3.179-.858-.311-.17-.508-.492-.519-.846l-.11-3.451c-.006-.162.028-.323.1-.469l1.466-3.012c.132-.271.378-.467.671-.536.29-.069.6-.002.839.181l5.154 3.97c.216.167.354.414.384.685.029.271-.053.542-.228.75l-2.437 2.905c-.079.094-.175.173-.282.232-.593.329-1.237.449-1.859.449zm-1.719-2.386c.677.268 1.735.554 2.465.256l1.629-1.943-3.355-2.585-.82 1.687z"/><path d="m284.387 206.499s-16.393-2.598-22.482-24.605c-5.388-19.476-9.271-30.709-13.269-36.97 13.553 8.515 18.918 21.023 22.627 30.603 3.709 9.583 4.374 23.443 13.124 30.972z"/><path d="m258.897 194.806s-14.256-.038-11.868-22.746c1.475-14.02 3.595-20.816 1.615-27.976 8.227 10.583 7.956 19.474 7.82 27.089-.186 10.274.006 14.216 2.433 23.633z"/><path d="m415.193 290.368c-.137 0-.276-.029-.409-.089-10.647-4.794-7.462-17.98-7.429-18.113.135-.535.672-.861 1.213-.725.535.134.86.677.727 1.212-.118.476-2.802 11.699 6.31 15.802.504.227.729.819.502 1.322-.168.372-.532.591-.914.591z"/><path d="m397.496 246.338c-.398 0-.775-.24-.931-.634-2.931-7.438-11.068-12.15-11.15-12.197-.479-.274-.646-.885-.372-1.364.273-.479.882-.646 1.364-.373.358.205 8.833 5.114 12.02 13.201.202.514-.05 1.095-.564 1.297-.121.048-.245.07-.367.07z"/></g><path d="m278.045 225.466c1.697-.214 2.762-2.85 2.379-5.888s-2.07-5.327-3.767-5.112c-1.698.214-2.763 2.85-2.38 5.888.383 3.037 2.07 5.326 3.768 5.112z" fill="#fece2f"/><path d="m277.841 226.482c-2.149 0-4.107-2.543-4.544-6-.459-3.641.968-6.718 3.247-7.006 2.293-.282 4.426 2.339 4.885 5.979.207 1.636.038 3.234-.474 4.502-.592 1.463-1.576 2.352-2.772 2.503-.115.015-.229.022-.342.022zm-.95-11.028c-.033 0-.065.002-.098.006-.982.124-1.838 2.191-1.513 4.771.326 2.581 1.668 4.36 2.651 4.245.438-.055.864-.518 1.168-1.268.381-.942.506-2.219.344-3.502-.313-2.496-1.58-4.252-2.552-4.252z" fill="#1a1a1a"/><path d="m282.854 258.555c1.706-.124 2.909-2.701 2.686-5.754-.223-3.054-1.787-5.428-3.493-5.304-1.707.125-2.909 2.701-2.686 5.755.223 3.053 1.787 5.428 3.493 5.303z" fill="#fece2f"/><path d="m282.738 259.566c-1.125 0-2.186-.673-3.003-1.915-.753-1.142-1.233-2.676-1.353-4.321-.268-3.66 1.318-6.657 3.609-6.825 2.32-.181 4.297 2.569 4.564 6.228.268 3.66-1.319 6.658-3.611 6.825-.067.006-.137.008-.206.008zm-.544-11.068c-.019 0-.037.001-.057.002-.986.072-1.949 2.09-1.761 4.684.095 1.291.469 2.517 1.028 3.366.445.677.97 1.053 1.395 1.013.988-.072 1.951-2.09 1.763-4.684-.186-2.544-1.39-4.381-2.368-4.381z" fill="#1a1a1a"/><path d="m292.809 360.678c1.706-.124 2.909-2.701 2.686-5.754-.223-3.054-1.787-5.428-3.493-5.304-1.707.125-2.909 2.701-2.686 5.755.223 3.053 1.787 5.428 3.493 5.303z" fill="#fece2f"/><path d="m292.704 361.693c-2.207 0-4.104-2.682-4.364-6.235-.268-3.661 1.319-6.658 3.611-6.826 1.172-.084 2.343.589 3.21 1.908.753 1.142 1.233 2.676 1.353 4.321.268 3.66-1.318 6.657-3.609 6.825-.068.004-.135.007-.201.007zm-.554-11.068c-.019 0-.036 0-.054.002-.988.072-1.951 2.091-1.763 4.685.19 2.593 1.398 4.437 2.424 4.378.987-.072 1.95-2.09 1.762-4.684-.095-1.291-.469-2.517-1.028-3.366-.427-.649-.913-1.015-1.341-1.015z" fill="#1a1a1a"/><path d="m335.864 305.59s-22.178 14.721-40.774 16.823c-18.596 2.103-13.616 9.054-20.901 11.936s-21.247 1.665-32.32-3.024-25.265-3.323-28.574.216c-3.308 3.539-3.456 11.633 8.809 15.702s33.864 2.427 59.362-7.66c25.498-10.086 42.594-24.367 54.398-33.993z" fill="#1a1a1a"/><path d="m239.503 350.184c-11.788 0-22.867-2.424-33.144-7.271-15.195-7.166-28.86-20.418-40.616-39.39-8.518-13.746-15.72-30.167-20.828-47.487-1.542-5.228-2.876-10.49-3.968-15.641-2.292-10.817-3.499-21.072-3.491-29.655-.317-12.78 3.487-23.688 11.005-31.52 7.411-7.721 18.056-12.078 29.973-12.269h.016c.545 0 .991.437 1 .984.009.552-.432 1.007-.984 1.016-11.379.183-21.522 4.321-28.561 11.654-7.14 7.438-10.753 17.85-10.448 30.111-.008 8.471 1.185 18.582 3.448 29.265 1.08 5.101 2.402 10.312 3.929 15.49 5.059 17.151 12.186 33.403 20.609 46.999 11.55 18.638 24.93 31.636 39.771 38.635 34.161 16.108 76.313 5.05 125.288-32.87 34.924-27.041 61.8-59.217 69.204-68.435.299-.372.385-.479.452-.541l.288-.292c.532-.541 1.11-1.128 1.733-1.75-3.32-7.839-9.487-11.342-14.302-12.905-2.5 1.737-4.953 3.38-7.486 5.015-.679.438-67.787 42.008-100.489 42.012-1.271 0-2.485-.063-3.646-.193-19.942-2.237-30.215-28.856-38.346-57.289-.151-.531.156-1.084.687-1.236.537-.153 1.085.156 1.237.687 10.856 37.968 21.474 54.149 36.645 55.851 27.112 3.042 91.313-34.078 102.829-41.512 2.648-1.709 5.21-3.429 7.83-5.256.252-.175.57-.226.864-.136 5.416 1.653 12.639 5.568 16.286 14.836.146.373.057.796-.228 1.078-.799.789-1.529 1.531-2.189 2.201l-.309.313c-.045.054-.145.179-.297.369-7.439 9.261-34.442 41.589-69.539 68.764-21.807 16.884-42.7 28.634-62.103 34.924-11.196 3.63-21.924 5.444-32.12 5.444z" fill="#1a1a1a"/><path d="m239.53 211.86s-1.928-10.582.957-11.681c4.021-1.532 12.447 2.299 10.149 17.618s.191 13.277 2.745 31.66c-8.426-13.277-11.298-27.129-13.851-37.597z" fill="#1a1a1a"/><path d="m221.084 272.541c-13.504 0-24.489-10.987-24.489-24.49s10.985-24.489 24.489-24.489 24.489 10.986 24.489 24.489-10.985 24.49-24.489 24.49zm0-46.979c-12.4 0-22.489 10.089-22.489 22.489s10.089 22.489 22.489 22.489 22.489-10.089 22.489-22.489-10.089-22.489-22.489-22.489z" fill="#fece2f"/><path d="m211.699 179.056c-5.628-4.251-11.83-7.274-18.173-9.083z" fill="#fff"/><path d="m211.699 180.055c-.21 0-.422-.066-.602-.202-5.404-4.083-11.407-7.083-17.844-8.919-.531-.151-.839-.705-.688-1.236.152-.532.709-.838 1.236-.687 6.675 1.904 12.898 5.015 18.5 9.247.44.333.528.96.195 1.401-.194.259-.494.396-.797.396z" fill="#1a1a1a"/><path d="m299.042 66.7341c2.576-7.4252 1.74-14.4586-1.867-15.7096s-8.618 3.7543-11.193 11.1795c-2.576 7.4251-1.74 14.4585 1.867 15.7095 3.606 1.251 8.618-3.7542 11.193-11.1794z" fill="#fff"/><path d="m289.006 79.1095c-.512 0-1.011-.083-1.491-.249-2.125-.737-3.517-2.998-3.917-6.366-.37-3.114.139-6.884 1.434-10.615 2.797-8.068 8.273-13.253 12.465-11.797 4.192 1.454 5.283 8.913 2.484 16.981-1.294 3.731-3.229 7.007-5.447 9.223-1.859 1.856-3.772 2.823-5.528 2.823zm7.01-27.271c-2.741 0-6.751 3.935-9.097 10.696-1.196 3.451-1.671 6.904-1.336 9.724.301 2.529 1.243 4.246 2.586 4.712 1.346.463 3.147-.299 4.949-2.099 2.01-2.007 3.775-5.012 4.973-8.463 2.593-7.477 1.446-13.501-1.251-14.437-.257-.089-.534-.133-.824-.133z" fill="#1a1a1a"/><path d="m203.212 118.988s23.681-14.362 30.766-45.9567c5.152-22.975 23.211 9.454 23.211 9.454l-16.068 48.0127c-13.052-6.969-23.867-14.574-37.909-11.51z" fill="#fece2f"/><path d="m242.275 128.413c-.104 0-.211-.016-.315-.05-.523-.174-.808-.74-.634-1.264l14.768-44.4885c-3.017-4.855-11.183-15.99-16.679-15.146-2.315.358-4.075 2.954-5.231 7.717-8.058 33.1885-37.368 48.6285-37.663 48.7805-.491.252-1.094.061-1.347-.43s-.061-1.094.431-1.347c.287-.148 28.799-15.197 36.636-47.4755 1.365-5.626 3.677-8.729 6.87-9.222 7.958-1.228 17.834 14.663 18.935 16.478.151.25.186.555.094.833l-14.914 44.9305c-.141.419-.532.684-.951.684z" fill="#1a1a1a"/><path d="m247.861 88.9234c1.436 1.628 4.979 6.032 15.351 7.851 11.401 2 14.79-15.279 19.563-18.654 4.571-.497 7.468-3.634 5.246-8.15-4.192-8.518-.794-11.104 1.191-17.327 7.621-23.9-36.677-48.67698-56.599-17.133l-4.188 31.966" fill="#fece2f"/><path d="m265.057 97.941c-.646 0-1.316-.058-2.018-.181-10.362-1.817-14.155-6.149-15.775-8l-.153-.175c-.365-.414-.326-1.046.088-1.412.415-.364 1.045-.326 1.412.088l.158.181c1.481 1.691 4.948 5.652 14.616 7.347 6.977 1.225 10.685-5.566 13.957-11.558 1.668-3.055 3.109-5.693 4.856-6.928.139-.098.3-.159.469-.178 2.238-.243 3.949-1.162 4.696-2.521.63-1.146.547-2.595-.24-4.193-3.444-7-1.984-10.42-.294-14.38.488-1.145.994-2.328 1.429-3.693 3.656-11.465-5.299-22.527-16.034-27.529-11.247-5.24-28.09-5.469-38.648 11.049l-4.159 31.746c-.071.547-.573.925-1.121.862-.548-.072-.934-.574-.861-1.122l4.188-31.966c.019-.144.068-.282.146-.404 11.244-17.805 29.276-17.582 41.302-11.979 11.528 5.371 21.103 17.383 17.096 29.949-.465 1.456-.988 2.684-1.495 3.871-1.62 3.794-2.79 6.536.249 12.711 1.374 2.791.866 4.825.198 6.04-1.031 1.875-3.191 3.146-5.953 3.512-1.309 1.061-2.649 3.517-4.066 6.11-3.135 5.736-6.969 12.753-14.043 12.753z" fill="#1a1a1a"/><path d="m249.775 53.9771c-1.053-3.543-4.004-9.206-10.819-5.266-4.68 2.706-3.447 9.766-1.532 14.553 3.349 8.372 12.582 33.892-40.596 44.0429-52.92 10.102-66.672 72.977-113.1065 71.298-36.297-1.313-56.994-12.092-70.979-31.66-21.58397-30.201-13.27697-64.3399 23.779-68.9379 16.252-2.017 28.178-1.53 51.54-26.423 12.7975-13.637 41.0005-11.276 58.9795-9.191 26.426 3.064 29.558-5.243 52.085-21.447 21.83-15.70196 39.064-22.97896 64.34-18.76596 46.154 7.692 43.732 35.44796 26.133 40.83496-18.248 5.586-28.216-7.538-34.143 10.053-2.346 6.963-4.819 4.26-5.681.909z" fill="#1a1a1a"/><path d="m280.142 65.2438c2.665-7.6851 1.8-14.9645-1.932-16.2591-3.733-1.2946-8.919 3.8859-11.585 11.571-2.665 7.685-1.8 14.9645 1.932 16.259 3.732 1.2946 8.919-3.8859 11.585-11.5709z" fill="#fff"/><path d="m269.757 78.0154c-.526 0-1.039-.084-1.532-.255-2.187-.758-3.618-3.088-4.031-6.56-.382-3.218.144-7.115 1.482-10.971 1.337-3.857 3.336-7.242 5.629-9.533 2.474-2.471 5.039-3.415 7.228-2.655 4.319 1.499 5.438 9.199 2.549 17.531-1.337 3.857-3.337 7.242-5.629 9.532-1.917 1.914-3.889 2.911-5.696 2.911zm7.258-28.224c-1.267 0-2.783.81-4.296 2.321-2.083 2.081-3.913 5.196-5.154 8.773-1.24 3.577-1.732 7.156-1.385 10.08.313 2.631 1.297 4.419 2.7 4.906 1.406.486 3.284-.308 5.158-2.181 2.083-2.081 3.913-5.196 5.154-8.772 2.69-7.758 1.491-14.012-1.316-14.986-.271-.095-.559-.141-.861-.141z" fill="#1a1a1a"/><path d="m274.897 64.5664c-3.218 0-4.937-2.155-5.023-2.267-.339-.436-.26-1.064.177-1.403.436-.339 1.059-.26 1.398.17.083.103 1.844 2.227 5.219 1.225.53-.16 1.086.145 1.244.673.157.529-.145 1.086-.674 1.244-.851.254-1.633.358-2.341.358z" fill="#1a1a1a"/><path d="m275.887 65.7245c.535-1.1484.192-2.4416-.767-2.8884-.958-.4469-2.169.1218-2.705 1.2702-.535 1.1483-.192 2.4415.767 2.8883.959.4469 2.17-.1218 2.705-1.2701z" fill="#1a1a1a"/><path d="m272.642 89.2628c-3.493 0-6.474-1.873-6.65-1.987-.465-.297-.6-.915-.303-1.379s.913-.601 1.38-.305c.05.032 5.187 3.238 9.124.646.461-.305 1.081-.176 1.385.285s.177 1.082-.285 1.385c-1.522 1.002-3.135 1.355-4.651 1.355z" fill="#1a1a1a"/><path d="m87.5515 52.2227s-15.319 22.213-40.596 24.766c-27.856 2.813-34.212 10.212-40.85101 19.404 16.85101-13.532 26.38901-11.715 44.68101-15.064 18.128-3.319 31.66-13.021 36.766-29.106z" fill="#fece2f"/><path d="m241.637 52.8281s2.872 2.298 4.213 8.043z" fill="#1a1a1a"/><path d="m245.849 61.87c-.454 0-.865-.312-.973-.773-1.232-5.285-3.841-7.471-3.867-7.492-.426-.349-.492-.977-.146-1.405.348-.429.971-.496 1.4-.153.128.103 3.158 2.583 4.561 8.596.126.538-.209 1.076-.746 1.201-.078.018-.154.026-.229.026z" fill="#1a1a1a"/><path d="m240.967 59.5312s.574-2.777 2.585-3.83z" fill="#1a1a1a"/><path d="m240.968 60.5294c-.068 0-.138-.007-.206-.021-.54-.113-.886-.64-.774-1.18.027-.132.699-3.254 3.101-4.513.487-.256 1.094-.067 1.35.421.257.489.067 1.094-.422 1.35-1.557.816-2.065 3.126-2.07 3.149-.102.471-.517.794-.979.794z" fill="#1a1a1a"/><path d="m254.047 148.637s8.71 15.735 12.363 26.412c3.453 10.093 8.57 21.073 12.223 23.321-3.512-8.57-5.76-19.247-8.008-24.445s-8.148-19.949-16.578-25.288z" fill="#fece2f"/><path d="m250.19.646633s-19.915-1.277-48.255 19.148967c-28.34 20.426-30.128 24.766-44.681 23.489 19.915 5.617 38.298-12.255 42.383-16.085 4.085-3.829 23.489-20.93597 50.553-26.552967z" fill="#fece2f"/><path d="m267.296 59.0955c-.107 0-.217-.018-.324-.054l-14.17-4.8511c-.522-.179-.801-.748-.622-1.27.18-.522.747-.7999 1.271-.6229l14.17 4.8509c.522.179.801.748.622 1.27-.144.415-.531.6771-.947.6771z" fill="#1a1a1a"/><path d="m281.465 62.4119c-.538 0-.982-.429-.999-.971-.016-.552.419-1.013.971-1.029l4.341-.128c.512-.021 1.013.417 1.029.97.016.552-.419 1.013-.971 1.029l-4.341.128c-.01.001-.02.001-.03.001z" fill="#1a1a1a"/><path d="m85.5426 179.638c-.613 0-1.231-.011-1.856-.034-34.667-1.254-56.798-11.147-71.757-32.078-11.716998-16.394-15.04-34.55-8.891-48.5671 5.327-12.143 17.175-19.936 33.361-21.945 1.254-.156 2.483-.297 3.693-.436 14.486-1.66 25.928-2.971 47.239-25.68 13.9134-14.824 46.0874-11.092 59.8244-9.5 20.794 2.408 26.794-2.289 39.94-12.586 3.271-2.562 6.977-5.465 11.445-8.68 21.294-15.31703 38.775-23.32603 65.088-18.94003 34.62 5.77 38.322 21.52903 38.632 26.22103.495 7.486-4.477 14.14-12.37 16.556-7.403 2.267-13.503 1.534-18.406.946-7.578-.909-11.754-1.411-15.083 8.47-1.14 3.385-2.475 5.032-4.078 5.032-.028 0-.057 0-.086-.001-1.484-.054-2.765-1.613-3.428-4.172-.505-1.694-1.697-4.654-4.03-5.583-1.47-.586-3.263-.278-5.325.915-4.97 2.874-1.791 11.597-1.103 13.316 1.51 3.775 5.521 13.803.095 23.716-5.585 10.204-19.525 17.4991-41.432 21.6811-25.471 4.862-41.619 21.958-57.236 38.49-15.948 16.886-31.037 32.859-54.2364 32.859zm38.5964-137.8571c-13.148 0-27.4784 2.103-35.3474 10.487-21.813 23.245-34.167 24.66-48.471 26.299-1.204.138-2.427.278-3.675.433-15.459 1.917-26.744 9.291-31.776 20.763-5.862998 13.3651-2.616 30.7861 8.687 46.6011 14.563 20.377 36.215 30.013 70.202 31.242 23.3424.856 38.5174-15.206 54.5674-32.199 15.835-16.764 32.21-34.098 58.315-39.082 21.292-4.064 34.768-11.0211 40.053-20.6761 4.408-8.052 2.21-15.994-.198-22.012-2.302-5.755-2.996-12.925 1.959-15.791 2.622-1.516 4.999-1.864 7.066-1.042 3.124 1.244 4.606 4.85 5.213 6.888.003.012.007.023.01.036.483 1.879 1.26 2.68 1.568 2.691.024 0 .972-.037 2.196-3.671 3.848-11.419 9.745-10.712 17.216-9.817 4.716.566 10.582 1.27 17.582-.873 6.988-2.139 11.393-7.971 10.961-14.513-.588-8.906-10.608-19.98703-36.965-24.38003-25.635-4.274-42.727 3.583-63.592 18.59203-4.436 3.19-8.125 6.08-11.38 8.63-13.179 10.323-19.794 15.504-41.404 12.998-5.441-.631-13.841-1.604-22.787-1.604z" fill="#1a1a1a"/><path d="m184.572 130.095s19.019-11.102 40.521 14.89c20.78 25.119 22.526-2.551 22.526-2.551-32.281-34.424-49.486-24.179-63.047-12.339z" fill="#fff"/><path d="m239.473 156.534c-4.115 0-9.099-3.596-15.15-10.911-20.664-24.978-38.5-15.096-39.249-14.663-.444.258-1.014.135-1.314-.284-.3-.418-.233-.996.155-1.334 14.045-12.263 31.765-22.429 64.435 12.409.188.201.286.472.269.747-.03.476-.808 11.675-7.084 13.714-.662.214-1.349.322-2.062.322zm-44.44-29.726c7.837 0 19.043 3.29 30.831 17.54 6.333 7.655 11.537 11.102 15.05 9.961 3.95-1.281 5.391-8.374 5.675-11.512-28.183-29.903-44.119-25.469-57.176-15.407 1.583-.335 3.476-.582 5.62-.582z" fill="#1a1a1a"/><path d="m250.254 90.1671s-2.046-3.369-4.021-2.777c-1.915.574-.67 8.043 4.979 12.7339l2.394-5.9359c-.001.001-1.916-.957-3.352-4.021z" fill="#1a1a1a"/><path d="m284.387 207.498c-.052 0-.104-.004-.156-.012-.695-.11-17.101-2.956-23.289-25.326-5.585-20.189-9.395-30.821-13.148-36.698-.252-.395-.196-.911.133-1.243.33-.333.848-.39 1.242-.142 13.404 8.422 18.915 20.463 23.027 31.089 1.131 2.92 1.963 6.152 2.845 9.573 2.018 7.831 4.104 15.928 9.999 21.001.339.292.443.772.255 1.178-.166.358-.524.58-.908.58zm-32.786-59.309c3.216 6.496 6.651 16.752 11.268 33.438 4.17 15.074 13.133 20.75 18.136 22.798-4.35-5.403-6.22-12.661-7.901-19.186-.866-3.363-1.686-6.539-2.773-9.351-3.615-9.338-8.331-19.796-18.73-27.699z" fill="#1a1a1a"/><path d="m253.204 151.729s-.843 12.644-1.405 18.966c-.546 6.148 2.81 14.892 6.182 18.966-1.686-7.867-2.248-12.363-1.405-19.388.843-7.024-.843-14.891-3.372-18.544z" fill="#fece2f"/><path d="m258.897 195.808c-.001 0-.002 0-.003 0-.197 0-4.883-.061-8.638-4.243-3.732-4.157-5.152-10.754-4.221-19.608.42-3.998.892-7.4 1.308-10.402 1.023-7.392 1.7-12.275.337-17.203-.127-.46.089-.946.516-1.16.425-.213.944-.097 1.237.28 8.339 10.725 8.171 19.985 8.035 27.425l-.005.296c-.179 9.918-.031 13.918 2.402 23.365.077.3.011.619-.179.863-.189.245-.48.387-.789.387zm-8.521-47.504c.284 3.88-.291 8.033-1.052 13.526-.413 2.987-.883 6.372-1.3 10.336-.869 8.268.382 14.345 3.721 18.063 2.032 2.264 4.387 3.096 5.823 3.401-2.149-8.691-2.277-12.861-2.104-22.474l.006-.296c.119-6.592.253-13.959-5.094-22.556z" fill="#1a1a1a"/></g></svg></g><!--ITEM: Illustration component 8--><g transform="translate(1528.0 456.0) rotate(0.0 389.0 267.0)  scale(3.003861003861004 3.016949152542373)"><svg width="259.0" height="177.0" viewBox="0.0 0.0 259.0 177.0"><clipPath id="a-i8"><path d="m0 0h258.77v176.65h-258.77z" fill="#000000"/></clipPath><g clip-path="url(#a-i8)"><g fill="#1a1a1a"><path d="m251.89 172.659h-245.47008c-.53043 0-1.03914-.21-1.41421-.586-.37507-.375-.58579-.883-.58579-1.414v-166.95978c0-.53043.21072-1.03914.58579-1.41421.37507-.37508.88378-.58579 1.41421-.58579s1.03914.21071 1.41422.58579c.37507.37507.58578.88378.58578 1.41421v164.99978h243.47008c.53 0 1.039.211 1.414.586s.586.884.586 1.414c0 .531-.211 1.039-.586 1.414-.375.376-.884.586-1.414.586z"/><path d="m6.29 0-6.29 21.8h12.58z"/><path d="m258.77 170.361-21.79-6.3v12.59z"/></g><path d="m15.2898 162.429c-.2626.025-.5276-.002-.7798-.079-.2522-.078-.4867-.204-.69-.372-.4107-.34-.6698-.828-.7202-1.359-.0504-.53.112-1.059.4515-1.47.3394-.41.8281-.669 1.3585-.72.43-.09 43.72-8.9 52.6-40.69 4.8-17.18 14.32-28.3498 26.13-30.6298 9.0702-1.75 18.2702 2.13 24.6102 10.39 7.77 10.1198 16.64 15.1898 24.33 13.9298 8.78-1.45 16.43-11.06 22.13-27.7898 14.48-42.5 55.62-50.37 70.26-49.79.53.0199 1.031.2497 1.392.6388s.553.9058.533 1.4362-.25 1.0312-.639 1.3922-.906.5527-1.436.5328c-13.82-.49-52.63 6.93-66.32 47.15-6.3 18.4798-14.8 28.7198-25.27 30.4398-9.19 1.52-19.45-4.11-28.15-15.43-5.4-6.9998-13.14-10.3698-20.6802-8.8998-10.26 2-18.66 12.1098-23 27.7698-9.58 34.12-53.85 43.12-55.73 43.51-.1246.028-.2522.042-.38.04z" fill="rgb(255,255,255)"/><path d="m28.66 144.309c-7.86 0-13.13-.47-13.86-.54-.2627-.025-.5178-.101-.7509-.225-.2331-.123-.4396-.292-.6077-.495s-.2944-.438-.3719-.69-.1045-.517-.0795-.78c.0249-.263.1014-.518.2249-.751.1236-.233.2918-.439.4952-.607.2034-.169.4378-.295.69-.372.2522-.078.5172-.105.7799-.08.62.06 62.53 5.57 89.8-23.45 27.27-29.0199 85.46-42.9499 131.07-43.9499.53 0 1.039.2108 1.414.5858.375.3751.586.8838.586 1.4142 0 .5305-.211 1.0392-.586 1.4142-.375.3751-.884.5858-1.414.5858-44.77 1-101.79 14.55-128.24 42.6899-20.6 22.03-58.66 25.25-79.15 25.25z" fill="#1a1a1a"/></g></svg></g><!--ITEM: Illustration component 9--><g transform="translate(3808.0 730.0) rotate(66.02186220013107 -610.0 737.0) translate(-530.0 1326.0) scale(-2.0 2.0)"><svg width="82.0" height="73.0" viewBox="265.0 663.0 82.0 73.0"><g fill="#fece2f"><path d="m425.472 1.313c-33.049 3.715-75.084 17.669-91.933 69.166-24.754 75.689-74.868 83.552-130.641 74.523-11.88-1.901-24.193-2.16-36.678-.475-68.8628 9.244-165.936797 93.53-165.936797 196.349 0 99.795 20.131997 154.445 50.545997 204.775 37.585 62.21 106.4048 141.269 171.5098 131.937 40.523-5.832 67.826-31.235 90.421-62.124 47.176-64.543 74.739-79.318 154.316-86.662 1.728-.173 3.499-.346 5.227-.605 68.863-9.245 128.222-80.139 129.388-149.607 1.253-75.041 19.57-167.363-2.549-239.941-22.94-75.256-104.72-145.069-173.67-137.336z"/><path d="m483.794 699.924c-30.371 26.871-90.68 23.977-117.551-6.394s-11.362-76.899 19.052-103.77c30.371-26.871 80.312-38.233 107.183-7.863 26.871 30.414 21.687 91.156-8.684 118.027z"/><path d="m332.762 721.784c-9.98 14.429-35.598 19.441-50.027 9.504-14.429-9.98-12.744-31.105-2.765-45.534 9.98-14.429 29.766-24.366 44.195-14.386 14.472 9.936 18.576 35.987 8.597 50.416z"/></g></svg></g></svg>
