<svg xmlns="http://www.w3.org/2000/svg" viewBox="0 0 512 512"><defs><style>.cls-1{fill:#fc715a;}.cls-2{fill:#e26150;}.cls-3{fill:#fcc8bc;}.cls-4{fill:#fab3a7;}.cls-5{fill:none;stroke:#27273d;stroke-linecap:round;stroke-miterlimit:10;stroke-width:7px;}.cls-6{fill:#f58d89;}.cls-7{fill:#27273d;}.cls-8{fill:#d54545;}.cls-9{fill:#c11e1e;}.cls-10{fill:#3586cb;}.cls-11{fill:#f7bb38;}.cls-12{fill:#e2a834;}.cls-13{fill:#f6d372;}</style></defs><title>Avatar Users2</title><g id="BULINE"><circle class="cls-1" cx="256" cy="256" r="256"/></g><g id="Icons"><path class="cls-2" d="M484.77,371a257.12,257.12,0,0,1-91.4,101.05c-1.08.69-2.17,1.37-3.27,2.05q-7.5,4.62-15.35,8.73-9.25,4.88-18.95,9A254.93,254.93,0,0,1,256,512h-1.74a254.81,254.81,0,0,1-100-21q-8.4-3.64-16.49-7.86-9.32-4.86-18.18-10.45c-.89-.56-1.77-1.12-2.65-1.7A257.14,257.14,0,0,1,27.23,371a257.16,257.16,0,0,1,80.67-93.84q2.41-1.73,4.89-3.39l.55-.37q4.8-3.23,9.76-6.25,7.26-4.43,14.85-8.37,11-5.72,22.54-10.38,8.06-3.24,16.4-5.95l3.45-1.09h0l1.85-.56q2.37-.72,4.77-1.39c2.87-.8,5.76-1.56,8.67-2.26,2-.49,4.08-1,6.14-1.4,3.17-.68,6.36-1.31,9.57-1.87A257.52,257.52,0,0,1,256,230c1.81,0,3.62,0,5.42.06a256.28,256.28,0,0,1,49.06,5.75c2,.44,4,.89,6,1.37q6.82,1.66,13.52,3.68l2.19.67,1.39.43A255.46,255.46,0,0,1,358,251.11c2.61,1.13,5.19,2.31,7.75,3.52a253.64,253.64,0,0,1,27,14.87q6.74,4.26,13.18,8.92A257.22,257.22,0,0,1,484.77,371Z"/><path class="cls-3" d="M374.75,482.83q-9.25,4.88-18.95,9A254.93,254.93,0,0,1,256,512h-1.74a254.81,254.81,0,0,1-100-21q-8.4-3.64-16.49-7.86c1.08-.79,2.18-1.57,3.29-2.34a178.47,178.47,0,0,1,24.71-14.2c9.51-4.52,45.73-11.25,52.61-19.2a17.06,17.06,0,0,0,2.83-4.68c3.77-9.08,1.26-21.89,1.26-31.57,0-2.91,0-5.47-.1-7.75h0c-.61-23.14-3.11-16,16.86-22.7a46.91,46.91,0,0,1,6.93-1h0c15.14-1.49,48.76-2.76,52.82,1,3.05,2.85,3.64,8.6,3.24,15.48-.77,13.68-5.42,31.8-2.16,40.18a35.09,35.09,0,0,0,3.24,6.37c8.29,12.66,22.51,13.43,38.72,21a194,194,0,0,1,30.5,17.58Z"/><path class="cls-3" d="M392.67,182.55v91.67c0,68.39-54.43,90.3-94.11,125.08a61,61,0,0,1-81.34,0c-39.69-34.78-94.12-56.69-94.12-125.08V182.55c0-69,52.71-124.93,117.72-124.93H275C340,57.62,392.67,113.55,392.67,182.55Z"/><path class="cls-4" d="M176.89,274.23V182.54c0-65.47,47.46-119.19,107.89-124.48-3.25-.31-6.52-.44-9.84-.44H240.82c-65,0-117.71,55.93-117.71,124.92v45.39a27,27,0,1,0,0,53.94h.26c3.91,62.43,55.67,84,93.83,117.43,19.34,16.95,45.69,20,67.58,9.22A62.56,62.56,0,0,1,271,399.29C231.31,364.53,176.89,342.61,176.89,274.23Z"/><circle class="cls-3" cx="392.67" cy="254.9" r="26.97"/><path class="cls-5" d="M159.36,204.55s34-18.94,63.36,0"/><path class="cls-5" d="M290.36,204.55s34-18.94,63.36,0"/><rect class="cls-4" x="237.27" y="281.87" width="39.19" height="14.86" rx="6.81"/><path class="cls-6" d="M123.88,244.17a10.73,10.73,0,1,0,0,21.46Z"/><path class="cls-4" d="M392.67,265.63a10.73,10.73,0,0,0,0-21.46Z"/><ellipse class="cls-7" cx="190.59" cy="251.65" rx="11.27" ry="16.22"/><ellipse class="cls-7" cx="321.58" cy="251.65" rx="11.27" ry="16.22"/><path class="cls-5" d="M170.1,239.69s19.46-12.29,41,0"/><path class="cls-5" d="M301.09,239.69s19.47-12.29,41,0"/><path class="cls-8" d="M256.86,325.71c-20.05-3.26-37.51,9.76-37.51,9.76,0,10.36,16.8,20.42,37.51,20.42h0c20.72,0,37.51-10.06,37.51-20.42C294.37,335.47,276.91,322.45,256.86,325.71Z"/><path class="cls-9" d="M283.55,336.36H238.16a6.78,6.78,0,0,1,3.15-3.88c5.14-2.84,13.95-6.77,24.13-7.23a39.67,39.67,0,0,0-8.57.46c-20.05-3.25-37.52,9.76-37.52,9.76,0,10.35,16.8,20.42,37.52,20.42a62.86,62.86,0,0,0,8.59-.59c-12-1.66-21.86-6.69-26.33-12.72a6.67,6.67,0,0,1-1-2h45.42a2.09,2.09,0,1,0,0-4.18Z"/><circle class="cls-10" cx="393.15" cy="292.33" r="15.02"/><circle class="cls-10" cx="393.15" cy="338.14" r="21.18"/><circle class="cls-10" cx="134.33" cy="292.33" r="15.02"/><circle class="cls-10" cx="134.33" cy="338.14" r="21.18"/><path class="cls-11" d="M392.67,196.13s-32.16-12.61-50.6-64.06c0,0-101.46,157.68-225.62,191.83-11,3-20-9.16-13.88-18.83,6.38-10,11.41-22.65,10.81-37.2l-.23-106s3-119.71,143.71-124.14C256.86,37.77,402.59,24.94,392.67,196.13Z"/><path class="cls-12" d="M275,38.07C140.69,45.91,137.73,161.91,137.73,161.91l.24,106c.59,14.54-4.43,27.19-10.8,37.2a12.39,12.39,0,0,0,1.13,15c-4.09,1.42-8.23,2.7-12.38,3.84A12.55,12.55,0,0,1,102,305.07c6.37-10,11.4-22.66,10.81-37.2l-.24-106s3-119.71,143.72-124.14A119.69,119.69,0,0,1,275,38.07Z"/><path class="cls-13" d="M321.28,67c1,11.79-.16,28.88-12.2,41.75a3,3,0,0,0,2.39,5.09c8-.56,19.68-2.21,26.14-7a3,3,0,0,1,4.68,1.26c1.63,4.21,3.64,11.07,2.77,17.61a3,3,0,0,0,5.36,2.22c5.78-7.06,10.63-19.65,3.43-40.65a3,3,0,0,0-5.29-.79L347.45,88a3,3,0,0,1-4.91-.07L326.76,65A3,3,0,0,0,321.28,67Z"/></g></svg>
