<?xml version="1.0" encoding="UTF-8"?>
<!DOCTYPE svg PUBLIC "-//W3C//DTD SVG 1.1//EN" "http://www.w3.org/Graphics/SVG/1.1/DTD/svg11.dtd">
<!-- Creator: CorelDRAW Home & Student X7 -->
<svg xmlns="http://www.w3.org/2000/svg" xml:space="preserve" width="328.93mm" height="247.735mm" version="1.1" style="shape-rendering:geometricPrecision; text-rendering:geometricPrecision; image-rendering:optimizeQuality; fill-rule:evenodd; clip-rule:evenodd"
viewBox="0 0 32893 24773"
 xmlns:xlink="http://www.w3.org/1999/xlink">
 <defs>
  <style type="text/css">
   <![CDATA[
    .str1 {stroke:black;stroke-width:50;stroke-linecap:round;stroke-linejoin:round}
    .str2 {stroke:black;stroke-width:50;stroke-linecap:round;stroke-linejoin:round}
    .str0 {stroke:#6CA3B7;stroke-width:50;stroke-linecap:round;stroke-linejoin:round}
    .str6 {stroke:#A94D4D;stroke-width:50;stroke-linecap:round;stroke-linejoin:round}
    .str4 {stroke:white;stroke-width:50;stroke-linecap:round;stroke-linejoin:round}
    .str5 {stroke:black;stroke-width:20;stroke-linecap:round;stroke-linejoin:round}
    .str3 {stroke:black;stroke-width:20;stroke-linecap:round;stroke-linejoin:round}
    .fil0 {fill:none}
    .fil5 {fill:black}
    .fil4 {fill:black}
    .fil1 {fill:#D7F0F7}
    .fil2 {fill:#DE7773}
    .fil3 {fill:white}
   ]]>
  </style>
 </defs>
 <g id="Layer_x0020_1">
  <metadata id="CorelCorpID_0Corel-Layer"/>
  <rect class="fil0" width="32893" height="24773"/>
  <g id="_467975184">
   <g>
    <path class="fil1" d="M22601 7594l3201 -838 -1828 2954 -1373 -2116zm647 221l723 1057 978 -1535 -1701 478z"/>
    <line class="fil0 str0" x1="24328" y1="8777" x2="24464" y2= "8918" />
    <line class="fil0 str0" x1="24649" y1="8412" x2="24731" y2= "8487" />
    <line class="fil0 str0" x1="24843" y1="7944" x2="24979" y2= "8085" />
    <line class="fil0 str0" x1="25148" y1="7605" x2="25230" y2= "7680" />
    <line class="fil0 str0" x1="25353" y1="7120" x2="25489" y2= "7261" />
   </g>
   <g>
    <path class="fil2" d="M21969 3049c0,0 1185,-325 1633,470 448,795 58,1647 -1047,1466 -182,-29 -345,-72 -489,-125l-581 270 121 -515c-662,-506 -487,-1320 363,-1566z"/>
    <path class="fil3" d="M23205 4420l-502 -1088c0,0 -48,-124 -134,-52 -86,72 -737,1051 -737,1051 0,0 -102,132 108,172 210,40 1206,58 1206,58 0,0 135,33 59,-141z"/>
    <path class="fil2" d="M22694 3612l-196 -12 2 484 130 8 64 -480zm-146 741c29,2 54,-6 74,-23 21,-18 32,-40 33,-67 2,-26 -6,-49 -24,-68 -18,-19 -41,-30 -71,-32 -29,-2 -54,6 -74,22 -20,17 -31,39 -33,66 -2,26 6,50 25,69 18,20 41,31 70,33z"/>
   </g>
   <g>
    <path class="fil3 str1" d="M25122 12290c315,-2 1022,-52 1319,-456 386,-527 -11,-1105 -831,-1127 -1908,-50 -1917,1414 -867,1566l173 378 206 -361z"/>
    <path class="fil4" d="M24814 11492c55,0 99,46 99,102 0,56 -44,102 -99,102 -55,0 -100,-46 -100,-102 0,-56 45,-102 100,-102zm1054 -157c55,0 99,46 99,102 0,56 -44,102 -99,102 -55,0 -100,-46 -100,-102 0,-56 45,-102 100,-102zm-538 88c55,0 100,45 100,102 0,56 -45,101 -100,101 -55,0 -99,-45 -99,-101 0,-57 44,-102 99,-102z"/>
   </g>
   <g>
    <path class="fil3 str1" d="M12380 8712c386,-527 -11,-1105 -831,-1127 -1265,-33 -1695,599 -1535,1073l-215 390 446 -73c113,87 260,151 438,176 542,23 1346,39 1697,-439z"/>
    <path class="fil4" d="M10753 8370c55,0 99,46 99,102 0,56 -44,101 -99,101 -55,0 -100,-45 -100,-101 0,-56 45,-102 100,-102zm1054 -157c55,0 99,46 99,102 0,56 -44,102 -99,102 -55,0 -100,-46 -100,-102 0,-56 45,-102 100,-102zm-537 88c55,0 99,45 99,102 0,56 -44,101 -99,101 -55,0 -100,-45 -100,-101 0,-57 45,-102 100,-102z"/>
   </g>
   <g>
    <polygon class="fil2" points="11486,3737 11306,5781 13015,5474 13177,3419 "/>
    <polygon class="fil3" points="11622,3892 11571,4442 12965,4191 13009,3631 "/>
    <polyline class="fil0 str1" points="11775,4548 11757,4756 11549,4781 "/>
    <polyline class="fil0 str1" points="12134,4501 12116,4708 11908,4733 "/>
    <polyline class="fil0 str1" points="12501,4425 12483,4633 12275,4658 "/>
    <polyline class="fil0 str1" points="12859,4350 12841,4558 12633,4583 "/>
    <polyline class="fil0 str1" points="11757,4900 11739,5107 11531,5133 "/>
    <polyline class="fil0 str1" points="12116,4852 12098,5060 11890,5085 "/>
    <polyline class="fil0 str1" points="12483,4777 12465,4984 12257,5009 "/>
    <polyline class="fil0 str1" points="12841,4702 12823,4910 12615,4935 "/>
    <polyline class="fil0 str1" points="11738,5243 11720,5451 11512,5476 "/>
    <polyline class="fil0 str1" points="12096,5196 12078,5403 11870,5429 "/>
    <polyline class="fil0 str1" points="12463,5120 12445,5328 12237,5353 "/>
    <polyline class="fil0 str1" points="12821,5046 12803,5253 12596,5279 "/>
   </g>
   <g>
    <path class="fil3 str2" d="M16905 8038l-473 498c0,0 -974,-1148 -1093,-1347 -119,-199 -159,-278 -159,-278 0,0 -14,-459 25,-632 40,-174 172,-394 141,-456 -31,-61 -148,-95 -251,47 -103,143 -202,336 -202,336 0,0 -495,-606 -638,-675 -142,-69 -229,-2 -229,-2 0,0 -90,-103 -219,-22 -128,82 49,212 183,436 133,224 222,426 222,426 0,0 -471,-481 -582,-515 -110,-34 -204,54 -83,197 121,143 194,224 289,345 96,121 141,217 141,217 0,0 -316,-163 -497,-177 -180,-15 -119,160 -34,186 85,25 488,258 668,399 181,141 279,253 279,253l1260 2077c116,190 434,513 986,252 553,-260 1254,-809 1254,-809l-988 -756z"/>
    <path class="fil3 str1" d="M15533 19386c0,0 -112,1104 -274,1617 -161,513 -365,1090 253,1019 619,-70 921,-773 1055,-1216 133,-443 197,-731 197,-731l-78 -858 -1153 169z"/>
    <path class="fil3 str1" d="M16690 19374c0,0 -52,667 -171,1298 -119,631 -430,1510 191,1462 622,-48 977,-936 1087,-1537 109,-601 136,-827 136,-827l-54 -744 -1189 348z"/>
    <path class="fil1" d="M20928 11313c65,-14 159,722 101,1416 -58,694 -585,1257 -1142,1683 -556,426 -1748,853 -1748,853 -38,1307 -148,2641 -166,3937 -115,543 -1129,706 -1355,238 0,0 -321,242 -733,249 -412,8 -517,-180 -517,-180 -120,-1003 -995,-5105 -305,-5958 790,-974 2106,-1600 3007,-1975l2858 -263z"/>
    <path class="fil0 str1" d="M16822 13490c-83,50 -726,459 -643,1481 83,1023 424,4301 430,4354"/>
    <path class="fil5 str3" d="M19867 7105l739 -280c0,0 775,172 1046,818 270,647 354,1048 354,1048l-994 484c0,0 -321,935 -177,1535 145,600 213,625 134,784 -80,159 -455,563 -1568,708 -1112,144 -1582,-390 -1618,-470 -36,-79 162,-943 155,-1318 -7,-376 -58,-730 -58,-730 0,0 -256,-180 -339,-350 -83,-170 32,-556 32,-556l-835 -664c0,0 362,-503 593,-738 231,-235 493,-430 895,-508 0,0 60,-5 164,-12 501,2 1477,249 1477,249z"/>
    <line class="fil0 str1" x1="16647" y1="8784" x2="16432" y2= "8536" />
    <path class="fil0 str1" d="M14534 6716c0,0 184,-174 251,-291 67,-118 108,-219 108,-219"/>
    <path class="fil0 str1" d="M14500 6214c-110,-182 -295,-476 -474,-685"/>
    <path class="fil0 str4" d="M17848 7743c0,0 -31,316 -81,511 -30,113 -84,253 -125,352"/>
    <polygon class="fil2" points="14530,10393 14410,10507 15217,13148 18956,13688 20798,12236 18565,12009 18221,10882 "/>
    <polyline class="fil0 str4" points="14532,10523 18108,11000 18910,13564 "/>
    <path class="fil3" d="M17760 4943c50,267 102,496 162,685 48,136 125,301 239,443 244,302 610,285 610,285l22 361 -567 151c0,0 -351,1265 769,1207 1120,-58 1611,-1250 1611,-1250l-831 -180c0,0 -83,-586 -90,-784 -7,-199 7,-336 7,-336 0,0 217,-27 275,-295 57,-267 -34,-409 -74,-455 532,-1782 -2556,-2096 -2133,168z"/>
    <path class="fil2" d="M18771 6356c0,0 -366,17 -610,-285 -114,-142 -191,-307 -239,-443 -60,-189 -112,-418 -162,-685 -23,-121 -35,-234 -38,-340 11,-26 216,-499 668,-684 0,0 -8,394 346,604 354,209 661,195 661,195 0,0 -5,184 17,301 21,118 86,177 97,168 11,-9 -34,-309 141,-406 175,-98 241,-6 241,-6 40,46 131,188 74,455 -58,268 -275,295 -275,295 0,0 -14,137 -7,336 6,163 63,588 83,734 611,-168 926,-509 926,-509 -15,-876 -357,-3473 -1717,-2879 0,0 -448,-339 -911,54 -462,394 -654,1124 -740,1936 -87,813 -257,1304 -257,1304 0,0 136,62 248,-68 112,-130 274,-510 274,-510 0,0 -61,618 47,698 74,54 594,108 1155,93l-22 -358z"/>
    <path class="fil0 str1" d="M19672 5339c0,0 -38,-121 10,-298 49,-177 159,-145 159,-145"/>
    <line class="fil0 str1" x1="19826" y1="5181" x2="19676" y2= "5066" />
    <path class="fil4" d="M17987 4994c42,-15 89,12 105,59 17,48 -3,98 -45,113 -42,14 -89,-13 -105,-60 -17,-48 3,-98 45,-112zm741 35c42,-15 89,12 106,60 16,47 -4,97 -45,112 -42,14 -89,-12 -106,-60 -16,-47 4,-98 45,-112z"/>
    <path class="fil0 str1" d="M18337 5011c0,0 -16,269 -32,387 -16,117 -38,195 -38,195 65,17 146,17 215,-4"/>
    <ellipse class="fil0 str1" transform="matrix(1.21543 -0.578981 0.578689 1.23535 17904.1 5043.99)" rx="240" ry="259"/>
    <ellipse class="fil0 str1" transform="matrix(1.21543 -0.578981 0.578689 1.23535 18800.6 5043.05)" rx="240" ry="259"/>
    <line class="fil0 str1" x1="19567" y1="4867" x2="19126" y2= "5020" />
    <line class="fil0 str1" x1="18232" y1="5045" x2="18474" y2= "5051" />
    <path class="fil0 str1" d="M19452 5920c-120,228 -334,368 -585,422"/>
    <ellipse class="fil4 str1" transform="matrix(1.12861 -0.376498 0.362874 1.22604 18654 5893.47)" rx="82" ry="91"/>
    <line class="fil0 str1" x1="18470" y1="5787" x2="18633" y2= "5779" />
    <line class="fil0 str4" x1="20607" y1="8540" x2="20813" y2= "9183" />
    <path class="fil3 str2" d="M20936 9204l244 1014 -1214 1430c0,0 -773,285 -878,387 -104,101 -310,316 -336,347 -25,31 29,83 76,92 47,9 85,0 85,0 0,0 -152,262 -126,323 25,62 146,6 146,6 0,0 11,101 70,105 60,3 150,-80 150,-80 0,0 18,83 118,67 99,-16 149,-116 149,-116 0,0 64,147 210,-1 347,-352 241,-188 601,-474 174,-137 275,-263 275,-263 0,0 1632,-903 1679,-1644 47,-740 -254,-1670 -254,-1670l-995 477z"/>
    <path class="fil0 str1" d="M19763 12351c-62,43 -232,208 -343,428"/>
    <path class="fil0 str1" d="M19549 12300c-129,107 -323,339 -396,528"/>
    <path class="fil0 str1" d="M19368 12271c-216,182 -331,321 -435,532"/>
    <path class="fil0 str1" d="M19195 12194c-95,75 -217,180 -282,280"/>
    <path class="fil0 str4" d="M18921 3254c0,0 -139,53 -280,193 -141,141 -213,306 -213,306"/>
    <path class="fil0 str4" d="M18768 3836c0,0 86,390 494,538 409,148 553,108 553,108"/>
    <path class="fil0 str4" d="M19244 3933c0,0 65,188 307,257 242,68 347,76 347,76"/>
    <path class="fil0 str4" d="M19743 3980c0,0 137,22 245,116 109,94 149,141 149,141"/>
    <path class="fil0 str4" d="M20299 5425c0,0 43,206 43,387 0,180 0,180 0,180l0 -18"/>
    <path class="fil0 str4" d="M20104 5588c0,0 15,140 29,231 14,90 14,97 14,97"/>
    <line class="fil0 str4" x1="17912" y1="6166" x2="17908" y2= "6379" />
    <line class="fil0 str1" x1="21397" y1="10218" x2="21180" y2= "10218" />
    <path class="fil0 str2" d="M18783 6522l14 200 -355 95m1725 -84l-393 -85c0,0 -82,-589 -89,-787 -7,-199 7,-336 7,-336 0,0 217,-27 275,-295 57,-267 -34,-409 -74,-455"/>
    <path class="fil0 str2" d="M15326 13259c-93,94 -181,191 -263,292 -270,334 -300,1166 -230,2115m3265 620c16,-342 31,-683 41,-1021 0,0 1192,-427 1748,-853 557,-426 1084,-989 1142,-1683 58,-694 -8,-1010 -8,-1010"/>
   </g>
   <g>
    <path class="fil3 str1" d="M22500 13505c0,0 -227,126 -379,444 -151,318 -242,784 -242,784 0,0 -401,452 -430,542 -29,90 307,150 307,150 0,0 -63,206 -59,229 3,24 531,58 574,80 -2,46 -421,245 -497,296 -76,50 67,209 67,209 0,0 -180,578 7,647 188,69 972,-61 972,-61l47 603 1506 -304 -115 -1156c0,0 758,-874 491,-1755 -268,-881 -1539,-1127 -2249,-708z"/>
    <ellipse class="fil4" transform="matrix(1.35855 0.134396 -0.134396 1.35855 22332.3 14823.3)" rx="75" ry="93"/>
    <path class="fil0 str1" d="M22222 14402c0,0 69,-41 195,-12 127,29 157,94 157,94"/>
    <path class="fil2" d="M16178 16084c0,0 533,3040 472,3046 -60,6 4118,-954 4118,-954l-451 -3053 -4139 961z"/>
    <path class="fil4 str5" d="M22025 13101c-65,484 199,607 448,681 249,74 674,71 648,389 -25,317 -126,350 -40,523 87,174 -39,484 91,510 130,25 119,-343 495,-203 375,141 191,654 18,791 -174,138 -206,105 -163,300 44,195 155,473 318,484 163,11 112,-133 318,-119 206,14 242,-43 368,-311 127,-267 405,-263 520,-469 116,-206 58,-426 181,-629 123,-202 495,-462 379,-742 -115,-280 -343,-475 -339,-605 3,-130 2,-511 -278,-522 -280,-11 -593,134 -808,-114 -214,-247 -397,-522 -650,-359 -455,292 -1409,-326 -1506,395z"/>
    <path class="fil0 str1" d="M23438 15680c0,0 -72,-251 36,-399 109,-148 244,-49 244,-49"/>
    <line class="fil0 str1" x1="23648" y1="15520" x2="23454" y2= "15314" />
    <path class="fil3 str1" d="M21254 18603c0,0 -595,-77 -659,-138 -64,-61 -119,-196 -18,-292 102,-96 359,-328 359,-328 0,0 -453,-330 -591,-436 -139,-106 -310,-209 -280,-310 31,-102 273,25 464,102 191,77 596,261 596,261 0,0 68,-95 151,-124 84,-29 111,3 149,-18 39,-21 116,-130 174,-104 58,26 95,54 153,16 57,-39 162,-45 250,18 88,62 508,667 500,615 -9,-53 -1248,738 -1248,738z"/>
    <line class="fil0 str2" x1="16578" y1="16272" x2="19417" y2= "15629" />
    <line class="fil0 str1" x1="19704" y1="15470" x2="19989" y2= "15639" />
    <line class="fil0 str1" x1="19943" y1="15407" x2="19743" y2= "15702" />
    <polygon class="fil3" points="16680,16681 16972,18393 18489,18053 18203,16330 "/>
    <polygon class="fil3" points="18623,16229 18659,16417 20086,16081 20053,15886 "/>
    <polygon class="fil3" points="18717,16716 18753,16904 19707,16680 19674,16485 "/>
    <line class="fil0 str4" x1="18827" y1="17247" x2="19999" y2= "16976" />
    <line class="fil0 str4" x1="18892" y1="17544" x2="19876" y2= "17311" />
    <line class="fil0 str4" x1="18941" y1="17855" x2="20062" y2= "17591" />
    <path class="fil3 str1" d="M17850 18914c0,0 -314,-354 -455,-820 -141,-466 -166,-827 -285,-802 -120,25 -159,191 -159,394 0,202 28,372 28,372l-542 -453 -45 -269c0,0 -287,94 -341,217 -54,123 25,343 25,343 0,0 -94,52 -94,180 0,129 109,244 109,244 0,0 -73,96 -66,184 8,89 96,190 96,190 0,0 -60,301 112,428 172,127 668,527 668,527l949 -735z"/>
    <path class="fil2" d="M20627 19112c0,0 455,-852 1023,-1109 154,-69 436,-152 779,-235 0,0 60,-374 215,-435 156,-61 1572,-282 1572,-282 0,0 382,-90 469,-3 87,86 203,266 203,266 109,-13 203,-22 276,-26 657,-36 1221,137 1373,1163 133,905 9,3493 -23,4093l-7550 0c-879,-892 -1444,-1612 -2239,-2898 66,-839 932,-1007 1111,-852l2145 1850c0,0 549,-1377 646,-1532z"/>
    <line class="fil0 str1" x1="19686" y1="21413" x2="19981" y2= "20644" />
    <line class="fil0 str1" x1="22222" y1="20430" x2="21485" y2= "22544" />
    <path class="fil0 str6" d="M16908 19939c0,0 23,-460 376,-739 354,-279 768,-219 768,-219"/>
    <line class="fil0 str6" x1="16765" y1="19422" x2="16971" y2= "19654" />
    <line class="fil0 str6" x1="16883" y1="19164" x2="17111" y2= "19383" />
    <line class="fil0 str6" x1="17083" y1="18947" x2="17305" y2= "19184" />
    <line class="fil0 str6" x1="17333" y1="18804" x2="17537" y2= "19054" />
    <line class="fil0 str6" x1="17618" y1="18743" x2="17805" y2= "18985" />
    <line class="fil0 str1" x1="16309" y1="17514" x2="16437" y2= "17605" />
    <line class="fil0 str1" x1="21243" y1="17514" x2="21125" y2= "17462" />
    <path class="fil0 str4" d="M23611 13212c0,0 230,-20 365,69 134,89 184,253 184,253"/>
    <path class="fil0 str4" d="M24548 14813c0,0 47,256 -15,365 -61,108 -140,155 -140,155"/>
    <path class="fil0 str4" d="M24821 15049c0,0 105,-206 87,-357 -18,-152 -115,-277 -115,-277"/>
    <path class="fil0 str4" d="M23613 13567c-48,-121 -243,-153 -373,-121"/>
    <path class="fil0 str6" d="M22731 17712c792,-171 1358,-272 2157,-398"/>
   </g>
   <g>
    <g>
     <path class="fil4" d="M7419 17054c0,0 209,1568 787,2911 387,899 974,2056 1320,2724l4383 0 -1953 -6603 -4537 968z"/>
     <path class="fil1" d="M7762 10459l-264 -37c0,0 -1669,745 -1661,1987 7,1243 209,1878 513,2362 303,484 751,723 751,723l137 1625c0,0 -7,383 271,390 278,8 2337,22 3457,-426 1120,-448 1213,-643 1177,-896 -36,-253 -455,-1799 -455,-1799 0,0 1004,-368 853,-1228 -152,-859 -957,-2149 -1568,-2615 -610,-466 -1839,-339 -1839,-339 0,0 -660,538 -1372,253z"/>
     <path class="fil3" d="M9292 7284c0,0 228,1119 248,1558 20,440 -108,768 -260,898 -153,131 -394,168 -394,168l91 294 157 4c0,0 130,757 -697,859 -827,101 -939,-643 -939,-643l116 -69 -108 -997c-143,-66 -466,-238 -529,-465 -82,-293 168,-370 168,-370 0,0 -538,-1124 698,-1506 1235,-382 1449,269 1449,269z"/>
     <path class="fil4 str5" d="M7582 8501c7,61 14,114 16,153 9,157 -79,110 -134,12 -55,-98 -172,-161 -319,-145 0,0 -250,77 -168,370 82,294 529,465 529,465 0,0 24,229 50,466 -297,-128 -619,-479 -934,-1116 -315,-637 -265,-962 -51,-1400 214,-439 544,-558 1077,-663 533,-105 1170,-229 1170,-229 589,-92 834,-270 936,-104 103,166 -160,340 -160,340 0,0 356,0 397,184 41,184 -442,306 -442,306 0,0 287,134 221,253 -65,118 -427,152 -427,152 0,0 -151,-1 -420,3 -101,1 -225,-9 -359,-16 19,33 24,74 -6,120 -82,128 -648,16 -648,16 0,0 -58,268 -351,235 -46,159 -27,364 23,598z"/>
     <ellipse class="fil4" transform="matrix(-1.01785 0.244165 0.222915 0.929259 8349.49 8467)" rx="82" ry="127"/>
     <ellipse class="fil4" transform="matrix(-1.01785 0.244165 0.222915 0.929259 9173.06 8220.44)" rx="82" ry="127"/>
     <path class="fil0 str1" d="M8825 8277c0,0 209,448 160,551 -50,103 -193,81 -193,81"/>
     <path class="fil0 str1" d="M7109 8720c209,26 380,213 410,415"/>
     <line class="fil0 str1" x1="7229" y1="8973" x2="7373" y2= "8859" />
     <path class="fil0 str1" d="M8354 8100c0,0 -59,1 -152,36 -93,35 -135,80 -135,80"/>
     <path class="fil0 str1" d="M9231 7900c-106,-17 -213,25 -299,84"/>
     <path class="fil0 str4" d="M9278 7025c-164,-72 -407,-137 -719,-139"/>
     <path class="fil0 str4" d="M9177 6632c-177,-10 -289,-13 -499,16"/>
     <path class="fil0 str4" d="M8727 7203c-98,-43 -223,-84 -375,-110"/>
     <path class="fil0 str4" d="M7123 8322c-10,-79 -18,-169 -17,-260 0,-43 2,-87 7,-130"/>
     <path class="fil0 str4" d="M6923 8204c-13,-116 -19,-257 -3,-389"/>
     <path class="fil0 str4" d="M6680 8151c-10,-78 -15,-160 -12,-240"/>
     <ellipse class="fil4 str1" cx="8802" cy="9301" rx="116" ry="142"/>
     <path class="fil0 str1" d="M8970 9133c-78,-12 -173,11 -213,37"/>
     <path class="fil3" d="M7569 12583l-239 1264c0,0 -260,105 -379,134 -119,29 -155,-45 -155,-45 0,0 -93,23 -131,-26 -37,-48 -27,-146 -27,-146 0,0 -65,-23 -75,-99 -11,-76 19,-179 19,-179 0,0 -86,-343 246,-636 332,-292 741,-267 741,-267z"/>
     <path class="fil0 str1" d="M7198 13571c0,0 -193,110 -269,189 -76,80 -133,176 -133,176"/>
     <path class="fil0 str1" d="M7227 13179c0,0 -209,132 -341,260 -132,128 -248,325 -248,325"/>
     <path class="fil0 str1" d="M7238 12884c0,0 -175,40 -338,179 -162,139 -318,423 -318,423"/>
     <path class="fil0 str1" d="M11688 14388c0,0 -504,201 -1277,187 -772,-15 -1461,-311 -1461,-311"/>
     <line class="fil0 str1" x1="11900" y1="12881" x2="9073" y2= "12898" />
     <line class="fil0 str1" x1="10780" y1="11389" x2="11235" y2= "12885" />
     <line class="fil0 str1" x1="7204" y1="12025" x2="7265" y2= "12621" />
     <path class="fil0 str0" d="M7847 11351c0,0 517,99 793,162 276,64 470,116 470,116"/>
     <line class="fil0 str0" x1="8114" y1="11141" x2="8072" y2= "11395" />
     <line class="fil0 str0" x1="8297" y1="11180" x2="8260" y2= "11433" />
     <line class="fil0 str0" x1="8505" y1="11223" x2="8469" y2= "11476" />
     <line class="fil0 str0" x1="8703" y1="11265" x2="8665" y2= "11519" />
     <line class="fil0 str0" x1="8878" y1="11303" x2="8855" y2= "11564" />
     <polyline class="fil0 str4" points="10737,17719 10737,18354 11958,22689 "/>
     <path class="fil0 str4" d="M8076 17867c0,0 119,86 299,159 181,72 351,122 351,122"/>
     <path class="fil0 str4" d="M8169 18268c0,0 143,84 217,112 74,27 100,45 100,45"/>
     <path class="fil0 str2" d="M7614 10353l-108 -997c-143,-66 -466,-238 -529,-465 -82,-293 168,-370 168,-370m2147 -1237c0,0 228,1119 248,1558 20,440 -108,768 -260,898 -153,131 -394,168 -394,168"/>
     <path class="fil0 str1" d="M8051 9678c0,0 135,149 369,206 234,57 466,24 466,24"/>
     <path class="fil0 str0" d="M7291 10527c0,0 142,521 575,741m1012 -57c333,-120 552,-545 552,-1020"/>
     <path class="fil3 str1" d="M8026 11123l827 173c0,0 36,-206 36,-218 0,-13 443,-271 472,-367 28,-96 -38,-179 -38,-179 0,0 48,-76 25,-153 -24,-78 -52,-94 -52,-94 0,0 39,-98 0,-147 -40,-48 -99,-62 -99,-62 0,0 121,-170 105,-245 -16,-76 -149,-29 -149,-29l-610 230c0,0 -241,-518 -418,-446 -161,65 121,377 121,645 0,267 -220,892 -220,892z"/>
     <path class="fil0 str1" d="M7258 14199l72 -352 239 -1264 278 -1232 58 -255 121 27 827 173 258 75c0,0 11,1860 -184,3045 -195,1185 -806,1329 -1145,1340 -340,11 -636,-228 -636,-228"/>
    </g>
    <g>
     <path class="fil2" d="M9143 17360l2246 703 3312 -1591 545 -2058 149 -615 -202 -118 -271 118 0 0c-660,280 -2884,1252 -2884,1252l-137 66c-29,155 -73,297 -119,436l-123 544 -47 23 -2469 1240z"/>
     <polyline class="fil0 str4" points="11427,17906 12088,15216 15262,13852 "/>
     <line class="fil0 str1" x1="11628" y1="16208" x2="11272" y2= "17744" />
     <line class="fil0 str1" x1="10831" y1="16756" x2="11596" y2= "16346" />
     <polyline class="fil0 str1" points="11197,17586 10932,17503 11186,17351 "/>
     <polyline class="fil0 str1" points="10821,17476 10591,17413 10875,17259 "/>
     <polyline class="fil0 str1" points="10472,17380 10266,17316 10562,17166 "/>
     <polyline class="fil0 str1" points="11225,17254 10996,17190 11279,17037 "/>
     <polyline class="fil0 str1" points="10877,17158 10670,17094 10966,16943 "/>
     <polyline class="fil0 str1" points="11314,16917 11107,16854 11403,16703 "/>
    </g>
   </g>
  </g>
 </g>
</svg>
