<svg xmlns="http://www.w3.org/2000/svg" xmlns:xlink="http://www.w3.org/1999/xlink" viewBox="0 0 4680 3120"><defs><style>.cls-1{fill:none;}.cls-10,.cls-2{fill:#fff;}.cls-2{opacity:0;}.cls-3{fill:#caebff;}.cls-4{fill:#06378e;}.cls-5{fill:#c4c4c4;}.cls-6{fill:#a7a7a7;}.cls-7{fill:#0f3756;}.cls-8{fill:#78bfff;}.cls-9{fill:#e6e6e6;}.cls-11{fill:#001a30;}.cls-12{fill:#e92411;}.cls-13{fill:#fbc5a9;}.cls-14{fill:#f7a18a;}.cls-15{fill:#c62310;}.cls-16{fill:#332a97;}.cls-17{fill:#1f00bd;}.cls-18{fill:#121a63;}.cls-19{fill:#5b1e13;}.cls-20{fill:#1e3549;}.cls-21{fill:#3e2312;}.cls-22{fill:#ef4623;}.cls-23{fill:#ff9000;}.cls-24{fill:#ffd900;}.cls-25{fill:#ffff7b;}.cls-26{fill:#eef6f9;}.cls-27{fill:#008c5d;}.cls-28{fill:#00af60;}.cls-29{fill:#2cd670;}.cls-30{fill:#1c1c1b;}.cls-31{opacity:0.3;}.cls-32{clip-path:url(#clip-path);}.cls-33{clip-path:url(#clip-path-2);}.cls-34{clip-path:url(#clip-path-3);}.cls-35{fill:#ff8500;}.cls-36{fill:#c2c2c2;}.cls-37{fill:#993e2b;}.cls-38{fill:#fd4c5e;}.cls-39{fill:#8fe7ff;}.cls-40{fill:#008881;}.cls-41{fill:#4268f5;}.cls-42{fill:#4298f5;}.cls-43{fill:#007cff;}.cls-44{opacity:0.4;}.cls-45{opacity:0.2;}</style><clipPath id="clip-path"><path class="cls-1" d="M3271,1558.23l27.05-27-55.69-55.68-27,27c-18.57,18.57-50.31,5.42-50.31-20.83v-38.25h-78.75v38.25c0,26.25-31.74,39.4-50.3,20.83l-27.05-27-55.68,55.68,27.05,27c18.56,18.56,5.41,50.3-20.84,50.3h-38.25v78.75h38.25c26.25,0,39.4,31.74,20.84,50.3l-27.05,27.05,55.68,55.69,27.05-27c18.56-18.56,50.3-5.42,50.3,20.83v38.26H3165V1814.1c0-26.25,31.74-39.39,50.31-20.83l27,27,55.69-55.69L3271,1737.58c-18.56-18.56-5.41-50.3,20.84-50.3h38.25v-78.75h-38.25C3265.57,1608.53,3252.42,1576.79,3271,1558.23Zm-145.36,153.66a64,64,0,1,1,64-64A64,64,0,0,1,3125.62,1711.89Z"/></clipPath><clipPath id="clip-path-2"><path class="cls-1" d="M3466.84,1525.66a53.15,53.15,0,0,0-2.83-81.23,4.55,4.55,0,0,0-7.3,3.62v40.63a17.52,17.52,0,0,1-8.77,15.18l-8.05,4.65a17.54,17.54,0,0,1-17.53,0l-8.05-4.65a17.54,17.54,0,0,1-8.77-15.18V1448a4.53,4.53,0,0,0-7.25-3.62,53.07,53.07,0,0,0-2.76,81.35c8.58,7.73,12.82,19.19,12.82,30.74v182.85c0,11.55-4.24,23-12.82,30.74a53.07,53.07,0,0,0,2.76,81.35,4.53,4.53,0,0,0,7.25-3.62v-40.66a17.55,17.55,0,0,1,8.77-15.19l8.05-4.65a17.54,17.54,0,0,1,17.53,0l8.05,4.65a17.52,17.52,0,0,1,8.77,15.18v40.64a4.55,4.55,0,0,0,7.3,3.61,53.15,53.15,0,0,0,2.83-81.23c-8.5-7.69-12.94-18.89-12.94-30.35V1556C3453.9,1544.55,3458.34,1533.35,3466.84,1525.66Z"/></clipPath><clipPath id="clip-path-3"><path class="cls-1" d="M3584.77,1694.43a10.84,10.84,0,0,1,10.07-10.75l-.41-19.72h-15.32v-162.5l10.59-6.32-15-51.68h-13l-15,51.68,10.59,6.32V1664h-15.32l-.41,19.72a10.81,10.81,0,0,1-.45,21.59l-3.13,149.85h60.36l-3.13-149.85A10.88,10.88,0,0,1,3584.77,1694.43Z"/></clipPath></defs><title>06</title><g id="_06" data-name="06"><rect id="_06-2" data-name="06" class="cls-2" width="4680" height="3120"/><path class="cls-3" d="M1276.51,588.1C212.16,1013.94,191,2634.22,1980.66,2682.41S4082,1688.08,3900.32,1146.21C3624.69,324,2340.87,162.26,1276.51,588.1Z"/><ellipse class="cls-4" cx="2316.43" cy="2652.1" rx="1481.77" ry="107.9"/><path class="cls-5" d="M2645,2393.62l-99.53-320.41c-6.9-29-35.45-51.38-63.82-51.38h-330.5c-28.37,0-56.91,22.42-63.81,51.38l-99.54,320.41-30.46,98.07c-18.38,77.12,7.28,116.84,58.81,116.84h600.51c51.53,0,77.19-39.72,58.81-116.84Z"/><path class="cls-6" d="M2481.68,2021.83h-330.5c-28.37,0-56.91,22.42-63.81,51.38l-99.54,320.41c101.58-17,212.47-26.29,328.6-26.29s227,9.32,328.6,26.29l-99.53-320.41C2538.6,2044.25,2510.05,2021.83,2481.68,2021.83Z"/><rect class="cls-7" x="1121.58" y="789.37" width="2389.7" height="1526.23" rx="82.06"/><rect class="cls-8" x="1181.96" y="847.98" width="2268.95" height="1212.74" rx="81.03"/><path class="cls-9" d="M1121.58,2233.54a82.31,82.31,0,0,0,82.06,82.06H3429.22a82.31,82.31,0,0,0,82.06-82.06V2119.33H1121.58Z"/><path class="cls-9" d="M2755,2511.14h-877a49.58,49.58,0,0,0,0,99.15h877a49.58,49.58,0,0,0,0-99.15Z"/><path class="cls-6" d="M2790.47,2534.48a49.72,49.72,0,0,1-49.57,49.57h-877a49.4,49.4,0,0,1-34.64-14.23,49.74,49.74,0,0,0,48.69,40.47h877a49.49,49.49,0,0,0,34.64-84.92A48.93,48.93,0,0,1,2790.47,2534.48Z"/><path class="cls-10" d="M2152,2534.48H1886.21a13.12,13.12,0,0,0,0,26.24H2152a13.12,13.12,0,0,0,0-26.24Z"/><path class="cls-10" d="M2289.26,2534.48h-60a13.12,13.12,0,0,0,0,26.24h60a13.12,13.12,0,0,0,0-26.24Z"/><rect class="cls-5" x="3367.75" y="2178.62" width="83.16" height="83.16" rx="25.32"/><rect class="cls-5" x="3264.04" y="2193.67" width="53.06" height="53.06" rx="16.15"/><rect class="cls-5" x="3167.87" y="2193.67" width="53.06" height="53.06" rx="16.15"/><rect class="cls-5" x="3071.7" y="2193.67" width="53.06" height="53.06" rx="16.15"/><path class="cls-10" d="M2316.43,2158.17a59.29,59.29,0,1,0,59.3,59.29A59.29,59.29,0,0,0,2316.43,2158.17Z"/><circle class="cls-5" cx="2316.43" cy="2217.46" r="41.93" transform="translate(-253.58 299.65) rotate(-7.02)"/><path class="cls-11" d="M1333.61,1623c-5.1-23.82,15.4-36,16.85-68.35s-22.72-49.62-45.63-63.06-17.2-49.85-11.22-65.84,26.3-73.7-22.1-109.59-95.68-9.67-95.68-9.67l-8.28,41.22c9.84,11.2,34.71,25.11,71.24,27s22,33.9,22,33.9-104.54,117.86-106.66,120.16,18.6,151.88,18.6,151.88,84.81,20.88,111.09,1.29,72.74-18.11,70.88-28.53S1338.72,1646.82,1333.61,1623Z"/><path class="cls-11" d="M1359.67,1559c2.85-9.4,5.8-19.12,1.84-30.06-3.76-10.37-11.68-17.18-20.06-24.39-12.53-10.77-26.72-23-31.65-50.8-2-11.26-2.21-24.37-2.43-38.25-.56-35.72-1.19-76.19-35.08-93.53l-2.36,4.61c31.12,15.92,31.7,53.07,32.26,89,.22,14.09.43,27.4,2.5,39.08,5.26,29.64,20.2,42.49,33.38,53.82,8.19,7,15.27,13.14,18.57,22.23,3.37,9.32.8,17.8-1.93,26.79-4.06,13.39-8.67,28.57,6.59,48.27,12.86,16.6-.74,34.26-1.32,35l4.06,3.21c.17-.21,16.72-21.54,1.35-41.39C1351.78,1585,1355.61,1572.34,1359.67,1559Z"/><path class="cls-11" d="M1078.2,1299.22c-45.64,18.14-50.56,61.27-59.07,97.62S954.55,1428.62,943,1452s4,32.34-.93,53.57-48.13,16.6-45.29,46.68-16.66,36.75-32.37,37.63-22.53,22.45-9.22,30.52,39.58,13.47,81.46,36.51,42.52,12.5,84.36,18.15,35,24.71,64.16,44.25,51,5.92,51,5.92c20.51-23,19.61-52,10.83-89.13s6.06-31.58,25.21-66.79,10.78-39.94,5.64-75.11,13-41.15,31.12-72.9,6.76-50.09,6.76-50.09l16.49-42.17C1187.87,1286.72,1123.84,1281.08,1078.2,1299.22Z"/><path class="cls-11" d="M1068.91,1292.55c-19.29,8.74-35.41,24-47.9,45.24a180.25,180.25,0,0,0-18.32,45.06c-5.65,21.28-26,26.48-45.58,31.5-9.41,2.41-18.31,4.69-25.61,8.64-12,6.48-10.76,20.67-9.71,33.19.72,8.56,1.4,16.65-2.18,20.39-1.83,1.91-4.85,2.75-9.27,2.58-15.8-.64-27.65,3.2-34.28,11.11-5.61,6.71-7.31,16-4.92,26.84,1.63,7.41,3.27,21.24-4.1,30.64-5.08,6.46-13.66,9.88-25.51,10.14-11.46.26-19.78,3.58-24.72,9.86-6.72,8.54-4.47,19.26-4.37,19.71l5.06-1.1c0-.09-1.8-8.85,3.42-15.44,3.94-5,10.91-7.62,20.72-7.85,13.48-.3,23.4-4.38,29.47-12.12,6.45-8.21,8.25-20.62,5.09-35-2-9.23-.71-17,3.84-22.4,5.55-6.63,16-9.84,30.09-9.26,6,.23,10.3-1.13,13.22-4.18,5.2-5.43,4.43-14.64,3.61-24.4-1-11.47-2-23.33,7-28.2,6.74-3.65,15.33-5.85,24.43-8.18,20.09-5.14,42.87-11,49.3-35.2,15.27-57.55,46.24-79.15,63.35-86.9,32.49-14.73,74.09-9.75,123.66,14.82l2.3-4.65C1146,1282.15,1102.88,1277.14,1068.91,1292.55Z"/><path class="cls-12" d="M1444,2391.4l-686.4-4,51.36,220H1617.4c246.14-5,340.2-204.81,244.55-312S1444,2391.4,1444,2391.4Z"/><path class="cls-12" d="M652.85,2413.82a114,114,0,0,0-9.72,17.86c-43.09,99.49,57.52,262.12,502,246l156.09,1.12,6.18-156.23.5-12.43s-222.12-48.81-301.51-85.75C937.2,2392.19,716.88,2317.52,652.85,2413.82Z"/><path class="cls-13" d="M1601.39,2562.9c-38.69-15.84-32-33-65.37-48.82s-62.7,21.11-62.7,21.11l-165.92-12.64-5.51,139.29c264.82-10.56,407.44,50.79,432.79,12.53S1640.08,2578.73,1601.39,2562.9Z"/><polygon class="cls-14" points="1301.89 2661.84 1329.29 2660.94 1307.4 2522.55 1301.89 2661.84"/><polygon class="cls-14" points="1348.83 2525.71 1452.28 2533.59 1436.91 2480.88 1348.83 2525.71"/><path class="cls-15" d="M1452.28,2533.59s4.75-22.73,8.44-36.57,256.51-172.58,256.51-172.58l-282.94,147.45Z"/><path class="cls-13" d="M1223.74,1366.44c-25,78.16-79.41,108.24-109,119.13-.13-.39-.23-.79-.37-1.18-7.6-21.19-29.59-32.81-49.11-26s-29.18,29.58-21.57,50.77c7,19.35,16.25,24,33.58,31.44l-8.39,116.88,144.69,19.35-6.84-86.58c68.28,15,68.56-32.5,67.39-112.52S1223.74,1366.44,1223.74,1366.44Z"/><path class="cls-14" d="M1114.38,1558.33s36.24,64,94.11,55.17l-1.71-23.21S1159.06,1557.4,1114.38,1558.33Z"/><path class="cls-14" d="M1067,1470.37a.31.31,0,0,0-.27.54c13.61,10.06,17.91,26.09,19.67,42-3-6.75-8.4-11.4-17.37-8-.47.18-.25.89.2.91,6.59.31,10.81,2.55,13.71,8.58,2,4.27,2.91,9.22,4,13.81.35,1.53,3,1.45,2.9-.23l0-.38C1095.26,1508.49,1087.31,1477.73,1067,1470.37Z"/><path class="cls-16" d="M1587.14,1865.92l-86.71,216.64,51.6,29.57s45.36,4,69.37-58.7-4-159-4-159Z"/><path class="cls-13" d="M1617.4,1894.46c-36.66,26.53-53.54,115.27-60.69,170.92l78,35.83s98.72,45.22,124.08-31.63c21.18-64.22,42.19-293.52,48.5-367.11-21.49-10.47-60.57-29.32-88-43.38Z"/><path class="cls-14" d="M1556.71,2065.38l50.4,23.15c-8.37-81,10.29-194.07,10.29-194.07C1580.74,1921,1563.86,2009.73,1556.71,2065.38Z"/><path class="cls-17" d="M1331.9,1681.74s-20.7-2.43-44.22-6c-9.43-1.45-19.31-3.09-28.49-4.85l-22-44.31s-12.66-12.28-91-12.28S1050.4,1626,1050.4,1626l-18.65,37.68c-10.89,1.24-23.3,2.59-36.28,3.92-19.28,2-39.81,3.9-58.46,5.24-73.37,5.27-104.07,21.76-156.1,139.17s-72.8,179.63-114.06,251.32c0,0-28.68,52.11,56,85.1l159.75-24.25s2.21,8.5,5.39,21.53c8.29,33.86,23.24,98.25,23.55,123.28.39,30.49-22.21,116-22.21,116s30.9-.56,75.45,4.16c46.28,4.91,107.3,15.52,163.72,38.37,110.73,44.85,261.45,40.14,356.16-54.85l-52.2-329,119.53,68.5s2-32.45,8.43-72.74c2.9-18,6.7-37.58,11.65-56.52,9.91-37.91,24.38-73.29,45.29-88.41l-167.66-158.13S1410.62,1687.33,1331.9,1681.74Z"/><path class="cls-18" d="M978.83,1907.57,924,2095.45c-7.57,21.79-34.59,27.54-41.38,28.72C890.93,2158,911.27,2244,911.58,2269c.39,30.49-22.21,116-22.21,116s30.9-.56,75.45,4.16c10.72-78.41,53.94-255.29,15.12-290.77C939.19,2061.07,978.26,1910.79,978.83,1907.57Z"/><path class="cls-18" d="M896,2066.62s-72.43-50.2-179.5-20.32a296.85,296.85,0,0,0-50.75,19.45c-3.6,8.78-12.66,39.85,26,66.61a150.26,150.26,0,0,0,31.19,16l88.31,14.47S993.9,2150.66,896,2066.62Z"/><path class="cls-18" d="M1146.2,1614.25c-78.38,0-95.79,11.74-95.79,11.74s24.75,51.63,84,62.1h50.74s60.66-35.63,52.09-61.56C1237.24,1626.53,1224.58,1614.25,1146.2,1614.25Z"/><path class="cls-13" d="M1073.21,1596.62l-2.91,42.52c4.36,36.5,56.36,48.15,75.76,51.16,9.31,1.45,17,8.47,18.35,17.7,0,.07,0,.13,0,.21l5.61,42.6,6.49-45.94c.39-6.56,2-13.28,8.62-16.86,13.51-7.27,31.23-22.71,31.23-22.71l-7.38-47.66S1129.26,1606.24,1073.21,1596.62Z"/><path class="cls-18" d="M1202.52,1736.81s54.78,2.18,85.16-61.12c-9.43-1.45-19.31-3.09-28.49-4.84C1252.52,1718.34,1202.52,1736.81,1202.52,1736.81Z"/><path class="cls-18" d="M1031.75,1663.67c-10.88,1.24-23.3,2.59-36.28,3.92a178.66,178.66,0,0,1,20.89,26.23c53.4,80.47,123.43,51.57,123.43,51.57C1046.4,1734.84,1031.75,1663.67,1031.75,1663.67Z"/><path class="cls-13" d="M1141.06,2250.21s-10.48-16.2-40.29,11.39c-22.49,20.81-51.51,43.14-51.51,43.14l-180.5-124.45s-54.19-74.16-172.24-58.79c0,0-20.34,56-30.51,99.46s198.85,154.73,348.22,175.55c0,0,53.46,15.6,76.54-5.73l15.69-15.28s22.88,21.44,52.83,26.07a56.47,56.47,0,0,0,38.64-7.46,22.08,22.08,0,0,0,10.4-15.81c1.86-13.22,3.41-38.41-7.37-58.08C1185.64,2292.24,1141.06,2250.21,1141.06,2250.21Z"/><path class="cls-14" d="M1094.75,2360.4A1.9,1.9,0,1,0,1092,2363l13.09,13.79a1.93,1.93,0,0,0,1.38.59,1.9,1.9,0,0,0,1.38-3.21Z"/><path class="cls-14" d="M1113.83,2335.51a1.91,1.91,0,0,0-2.79,2.6l60.77,65.29a1.88,1.88,0,0,0,1.39.61,1.91,1.91,0,0,0,1.4-3.2Z"/><path class="cls-14" d="M1122,2301a1.9,1.9,0,0,0-2.91,2.45l77.39,91.89a1.93,1.93,0,0,0,1.46.67,1.87,1.87,0,0,0,1.22-.44,1.89,1.89,0,0,0,.23-2.68Z"/><path class="cls-14" d="M1133.05,2271.27a1.9,1.9,0,0,0-2.87,2.5l78,89.3a1.91,1.91,0,0,0,2.87-2.51Z"/><path class="cls-14" d="M1136.78,2255.21a1.91,1.91,0,0,0-2.37,1.28c-.17.58-17.48,58.22-35.5,86.61a1.89,1.89,0,0,0,.58,2.62,1.9,1.9,0,0,0,2.63-.58c18.31-28.83,35.77-87,35.94-87.56A1.9,1.9,0,0,0,1136.78,2255.21Z"/><path class="cls-10" d="M1179.18,1772.21a16.35,16.35,0,1,0,16.52,16.35A16.44,16.44,0,0,0,1179.18,1772.21Z"/><path class="cls-13" d="M1104.12,1488.83,1088.76,1537s101,89.53,159.73,53.69c87.58-53.48-17.67-264.64-17.67-264.64C1007,1317,1098.89,1480.28,1104.12,1488.83Z"/><path class="cls-11" d="M1237.05,1342.36a31.22,31.22,0,0,0-1.5-4.53,128.88,128.88,0,0,0-4.74-14.86c-187.61-18.88-155.26,125.39-140.62,135.51,13.94,9.63,10.15,40,10.15,40S1221,1458.73,1237,1380.19c-.24,3.72-.59,7.43-1.12,11.12-.46,3.16-1.05,6.29-1.7,9.42s-1.61,6.16-2.15,9.27c-.14.8,1,1,1.31.35,2.88-5.64,4.35-12.47,5.52-18.66a107.86,107.86,0,0,0,1.85-20,118.45,118.45,0,0,0-1.53-19.54C1238.63,1348.88,1237.9,1345.6,1237.05,1342.36Z"/><path class="cls-11" d="M1232.68,1330.69c-8.14,0,8,46.85,8,46.85s25.92,42.56,32,61.37c5.9,18.32,8.36-36.55-4.1-64.06S1240.83,1330.69,1232.68,1330.69Z"/><path class="cls-14" d="M1250.73,1500.2a67.61,67.61,0,0,1-5.34-5.48c-4.51-5.77-4.6-15.65-4.6-15.74a2,2,0,0,0-2-2h0a2,2,0,0,0-2,2c0,.45.08,11.31,5.43,18.16a68.71,68.71,0,0,0,5.7,5.89c5.74,5.56,14.42,14,13.67,18.88-.06.46-.27,1.84-2.7,3.07-11.47,5.83-17.94,7-18,7a2,2,0,0,0,.33,3.91l.34,0c.28-.05,7-1.27,19.12-7.41,2.81-1.43,4.43-3.45,4.82-6C1266.6,1515.58,1257.8,1507.05,1250.73,1500.2Z"/><path class="cls-19" d="M1206.75,1483.16c-2.43.43-3.93,3.31-3.36,6.42s3,5.28,5.43,4.84,3.93-3.31,3.36-6.42S1209.18,1482.72,1206.75,1483.16Z"/><path class="cls-19" d="M1252.19,1478.3c-2.46.08-4.37,2.7-4.27,5.86s2.19,5.66,4.66,5.58,4.37-2.71,4.27-5.87S1254.66,1478.22,1252.19,1478.3Z"/><path class="cls-19" d="M1217.71,1460.94c-13.9-5.77-25,4.12-25.41,4.55a3.94,3.94,0,0,0,2.67,6.85,4,4,0,0,0,2.64-1c.32-.29,7.89-6.92,17.07-3.1a3.95,3.95,0,1,0,3-7.29Z"/><path class="cls-19" d="M1263.84,1461.57c-10.09-7.84-20.56-3.24-24.69.3a3.94,3.94,0,0,0,2.57,6.94,3.89,3.89,0,0,0,2.56-1c.29-.24,7.12-5.95,14.71,0a4,4,0,0,0,4.85-6.24Z"/><path class="cls-14" d="M1182.34,1502.58c-12.75,0-23.07,4.82-23,10.68s10.37,10.58,23.11,10.54,23.07-4.82,23-10.68S1195.08,1502.54,1182.34,1502.58Z"/><path class="cls-20" d="M1168.18,1385.1c5.67-31-3-73.76-3-73.76,1.51,45.24-118,134.22-118,134.22,75.23-23.93,105.49-72,105.49-72,4.54,30.28-31.39,74.28-31.39,74.28,75.23-32.53,69.37-90.37,69.37-90.37C1190.36,1369.39,1168.18,1385.1,1168.18,1385.1Z"/><path class="cls-18" d="M1436.6,1945.65c6.51,38.1-11.85,66.6-11.85,66.6l-24.7,28.49,160.41-1.35c2.9-18,6.7-37.58,11.65-56.52-40-16.92-155.95-120.84-155.95-120.84C1414.3,1897.33,1430.1,1907.56,1436.6,1945.65Z"/><path class="cls-13" d="M1872.59,1563.63l-37-13.71,35.14-61.55c13.17-22.33-8.34-28.59-8.34-28.59s-43.25,52.44-78.75,83.82c-29.06,25.69-45.22,59.72-45.22,59.72l-37.82,100.15,102.54,45.21,11.07-32.41c31-27.22,15.33-51.24,15.33-51.24s27.15,2.22,39.68-8a23,23,0,0,0,7.81-24.35c17.07-15.12,4.7-33,4.7-33,.59-.6,1.14-1.2,1.65-1.81C1893.11,1586.25,1887.05,1568.27,1872.59,1563.63Z"/><path class="cls-13" d="M1780.2,1581l20.41,80.54c31.81-19.42,18.06-53,18.06-53a461.57,461.57,0,0,1,41.46-27.6c20.93-12.07,5.63-33.86,5.63-33.86Z"/><path class="cls-14" d="M1865.13,1545.49l-70.42,27.9a1.72,1.72,0,1,0,1.27,3.19l69.09-27.38c1.69,2.85,5.65,10.61,4,18.2-1.09,4.89-4.37,8.95-9.76,12a471.06,471.06,0,0,0-41.64,27.72,1.71,1.71,0,0,0-.55,2c.53,1.32,12.79,32.47-17.37,50.88a1.72,1.72,0,0,0,.9,3.18,1.69,1.69,0,0,0,.89-.25c29.14-17.79,21.34-47.38,19.21-53.84a461.81,461.81,0,0,1,40.28-26.73c6.26-3.62,10.09-8.43,11.39-14.31,2.43-11-4.9-21.58-5.21-22A1.71,1.71,0,0,0,1865.13,1545.49Z"/><path class="cls-14" d="M1880.71,1598.3c-13.7,9.7-61.52,8.54-62,8.53h0a1.72,1.72,0,0,0-.05,3.43c.39,0,2.52.06,5.8.06,13.5,0,46.5-.88,58.28-9.22a1.72,1.72,0,1,0-2-2.8Z"/><path class="cls-14" d="M1876.36,1631.1c-24.73,10.09-54.94,2-55.25,1.91a1.72,1.72,0,1,0-.91,3.31,112.19,112.19,0,0,0,27.2,3.34c9.45,0,20.2-1.28,30.26-5.38a1.72,1.72,0,0,0-1.3-3.18Z"/><path class="cls-14" d="M1830.12,1663.42c-6.14-2.29-16-7.47-16.36-11.59a1.72,1.72,0,0,0-3.42.29c.65,7.6,16.74,13.83,18.57,14.52a1.87,1.87,0,0,0,.61.11,1.72,1.72,0,0,0,.6-3.33Z"/><path class="cls-21" d="M1212.08,1548.14a41.62,41.62,0,0,0,.39,9.81c1,6.08,3.92,12.48,11.76,11.38a17.46,17.46,0,0,0,9.5-4.69c7-6.41,9.65-17.08,9.65-17.08A50.1,50.1,0,0,1,1212.08,1548.14Z"/><path class="cls-22" d="M1212.47,1558c1,6.08,3.92,12.48,11.76,11.38a17.46,17.46,0,0,0,9.5-4.69C1230,1557.55,1220.36,1555.55,1212.47,1558Z"/><path class="cls-23" d="M1151.87,2400.07l.81-5.13H976a4,4,0,0,0-4,4,24.13,24.13,0,0,0,24.27,24h175.39A19.86,19.86,0,0,1,1151.87,2400.07Z"/><path class="cls-24" d="M1629.2,2041H1235.75a31.91,31.91,0,0,0-31.64,26.8l-52.24,332.31a19.88,19.88,0,0,0,19.78,22.84h366.4l59.37-31.18,11.34-72.17L1649,2063.78A19.87,19.87,0,0,0,1629.2,2041Z"/><path class="cls-25" d="M1629.2,2041H1448.84c-17.15,29-27.18,64.12-27.18,101.94,0,99.63,69.6,180.4,155.46,180.4a135.43,135.43,0,0,0,31.64-3.74L1649,2063.78A19.87,19.87,0,0,0,1629.2,2041Z"/><path class="cls-23" d="M1204.11,2067.75l-52.24,332.32a19.86,19.86,0,0,0,19.78,22.82h16a19.86,19.86,0,0,1-19.78-22.82l52.24-332.32a31.91,31.91,0,0,1,31.64-26.8h-16A31.91,31.91,0,0,0,1204.11,2067.75Z"/><path class="cls-23" d="M1448.87,2196.62c-14.38,0-29.77,15.68-34.37,35s3.31,35,17.69,35,29.77-15.68,34.37-35S1463.24,2196.62,1448.87,2196.62Z"/><path class="cls-15" d="M1199.66,2637.1c-41.41.86-485.35-.13-556.27-204.66-.08-.26-.17-.51-.26-.76-43.09,99.49,57.52,262.12,502,246l156.09,1.12,6.18-156.23S1258.11,2635.89,1199.66,2637.1Z"/><path class="cls-13" d="M716.48,2046.3l-24.78,86.06-26.11,80.84,189.21,26.55L896,2066.62S823.55,2016.42,716.48,2046.3Z"/><path class="cls-14" d="M785.08,2184.85s62.72,7.91,112.93,35.9c41.31,23,151.25,84,151.25,84l-180.5-124.45S835.87,2164.4,785.08,2184.85Z"/><path class="cls-26" d="M1202.79,1460.14a25.24,25.24,0,0,0-18.51,9.42,30.88,30.88,0,0,0-6.91,21.06c.63,15.86,12.55,28.37,26.79,28.37l1,0a25.21,25.21,0,0,0,18.51-9.42,30.9,30.9,0,0,0,6.91-21C1229.9,1472.28,1217.45,1459.55,1202.79,1460.14Zm18.78,47.69a22.61,22.61,0,0,1-16.54,8.45l-.87,0c-12.8,0-23.52-11.38-24.1-25.79a28.24,28.24,0,0,1,6.29-19.23,22.57,22.57,0,0,1,16.54-8.44l.87,0c12.8,0,23.52,11.37,24.1,25.78A28.25,28.25,0,0,1,1221.57,1507.83Z"/><path class="cls-26" d="M1269.62,1457.47c-14.67.59-26.07,14.26-25.42,30.48.63,15.86,12.56,28.37,26.79,28.37.33,0,.65,0,1,0a25.21,25.21,0,0,0,18.51-9.42,30.89,30.89,0,0,0,6.91-21.05C1296.73,1469.61,1284.27,1456.89,1269.62,1457.47Zm18.78,47.69a22.54,22.54,0,0,1-16.54,8.45c-13.22.52-24.38-11-25-25.77s9.66-27.14,22.83-27.67l.87,0c12.8,0,23.52,11.38,24.1,25.79A28.24,28.24,0,0,1,1288.4,1505.16Z"/><path class="cls-26" d="M1227.51,1484.15a1.35,1.35,0,0,0,.67,2.53,1.34,1.34,0,0,0,.66-.18c.11-.06,11.15-6.16,15.72-.88a1.35,1.35,0,0,0,2-1.77C1240.58,1476.91,1228,1483.85,1227.51,1484.15Z"/><path class="cls-26" d="M1179.45,1483l-88.14-24.87a1.35,1.35,0,0,0-.73,2.6l88.14,24.87a1.57,1.57,0,0,0,.37,0,1.35,1.35,0,0,0,.36-2.65Z"/><path class="cls-27" d="M4123.35,2207.07c-23.93-28.22-67.61-26-103.9-18.8-81.19,16.08-174.85,50.75-228.71,116.25-59.24,72-96.63,161.61-132.47,246.78-4.95,11.76-18.67,35.38-20.08,53,12.6.8,25.25,1.83,37.71,3.87,9.07-9.65,17.51-21,22.82-26.87,62.12-68.09,135.66-126.64,219.33-166,74.19-34.9,155.24-44.78,204.13-119,15.16-23,20.41-54.66,8.28-78.55A54.59,54.59,0,0,0,4123.35,2207.07Z"/><path class="cls-28" d="M3621.92,2561.22c-2.37-19.31-6.23-38.4-9.6-57.56-5.38-30.62-12-61.23-23.92-90.07-12.12-29.37-30.3-57-56.14-75.52-62-44.44-184.17-36.85-225,34.4-13.46,23.5-14.84,55.11,1.56,76.66,7.87,10.35,19.13,17.72,31.07,22.86a115.21,115.21,0,0,0,51.57,9.19c42.93-2.33,93-9.4,135.08,7.06a87.89,87.89,0,0,1,12.28,5.94c21.24,12.36,36.56,32.58,49.15,53.24,10.27,16.85,20.25,33.8,22.53,53.18l14,1.61c0-.2,0-.41,0-.61-.09-4.55-.89-9-1-14C3623.31,2578.8,3623,2570.08,3621.92,2561.22Z"/><path class="cls-29" d="M3647,2073.49c-45.77-38.33-114.55-51.63-167-23.17-10,5.41-19.4,12.35-25.76,21.75-15.72,23.24-9,55,3.09,80.28a223.42,223.42,0,0,0,40.95,58.84c17.44,18,37.87,33,54.43,51.87,19.58,22.26,32.79,48.58,42.11,76.47s14.78,57.39,18.82,86c4.07,28.81,5.78,58,6.88,87.05.54,14.42,8.13,66.44,4.36,90.9l1.47.17,11.91.69c15-21,14.91-46.74,22.77-71.5,30.52-96.14,76.15-200.14,63.69-302.65C3717.45,2170.91,3692.75,2111.82,3647,2073.49Z"/><path class="cls-30" d="M3929.24,2301.65c-51.95,26.16-100.07,65.82-147.11,121.22-41.54,48.93-77.25,103.87-111.79,157q-6.8,10.44-13.54,20.79l2.82,1.84q6.75-10.35,13.54-20.8c70-107.67,142.36-219,257.59-277.06,34-17.12,69.76-30.79,104.35-44l-1.2-3.15C3999.23,2270.75,3963.38,2284.45,3929.24,2301.65Z"/><path class="cls-30" d="M3515.38,2427.7c-40.25-24.17-87.23-25-125-25.74l-.06,3.36c37.35.69,83.84,1.55,123.3,25.25,59,36.51,80.71,95.72,103,169.34l3.21-1C3597.36,2524.63,3575.41,2464.84,3515.38,2427.7Z"/><path class="cls-30" d="M3587.66,2171.28l-2.42,2.33c40.62,42.31,63,95.77,68.39,163.43,4.79,60-4,123.75-12.39,185.37-3.63,26.45-7.06,51.44-9.5,76.26l3.35.33c2.43-24.75,5.85-49.71,9.48-76.14,8.47-61.79,17.23-125.7,12.41-186.08C3651.52,2268.31,3628.84,2214.17,3587.66,2171.28Z"/><rect class="cls-24" x="2839.64" y="1283.23" width="863.91" height="641.56" rx="38.49"/><g class="cls-31"><g class="cls-32"><rect x="3061.63" y="1583.92" width="127.97" height="127.97"/><rect x="2921.17" y="1834.73" width="408.9" height="17.63"/><rect x="2921.17" y="1443.46" width="408.9" height="391.27"/></g><g class="cls-33"><rect x="3375.5" y="1834.72" width="108.84" height="18.99"/><rect x="3375.5" y="1442.1" width="108.84" height="392.63"/></g><g class="cls-34"><rect x="3538.06" y="1834.73" width="60.37" height="20.4"/><rect x="3538.06" y="1443.46" width="60.37" height="391.27"/></g></g><path class="cls-17" d="M3666,1283.23H2877.23a37.59,37.59,0,0,0-37.59,37.59v53.91h863.9v-53.91A37.59,37.59,0,0,0,3666,1283.23Z"/><path class="cls-35" d="M3282.78,1558.23l27-27-55.68-55.68-27,27c-18.56,18.57-50.3,5.42-50.3-20.83v-38.25H3098v38.25c0,26.25-31.74,39.4-50.31,20.83l-27-27L2965,1531.18l27.05,27c18.56,18.56,5.41,50.3-20.84,50.3H2933v78.75h38.25c26.26,0,39.4,31.74,20.84,50.3L2965,1764.63l55.69,55.69,27-27c18.57-18.56,50.31-5.42,50.31,20.83v38.26h78.75V1814.1c0-26.25,31.74-39.39,50.3-20.83l27,27,55.68-55.69-27-27.05c-18.57-18.56-5.42-50.3,20.83-50.3h38.25v-78.75h-38.25C3277.36,1608.53,3264.21,1576.79,3282.78,1558.23Zm-145.37,153.66a64,64,0,1,1,64-64A64,64,0,0,1,3137.41,1711.89Z"/><path class="cls-36" d="M3478.63,1525.66a53.16,53.16,0,0,0-2.82-81.23,4.55,4.55,0,0,0-7.31,3.62v40.63a17.52,17.52,0,0,1-8.77,15.18l-8.05,4.65a17.54,17.54,0,0,1-17.53,0l-8.05-4.65a17.53,17.53,0,0,1-8.76-15.18V1448a4.53,4.53,0,0,0-7.26-3.62,53.07,53.07,0,0,0-2.76,81.35c8.58,7.73,12.82,19.19,12.82,30.74v182.85c0,11.55-4.24,23-12.82,30.74a53.07,53.07,0,0,0,2.76,81.35,4.53,4.53,0,0,0,7.26-3.62v-40.66a17.54,17.54,0,0,1,8.76-15.19l8.05-4.65a17.54,17.54,0,0,1,17.53,0l8.05,4.65a17.52,17.52,0,0,1,8.77,15.18v40.64a4.55,4.55,0,0,0,7.31,3.61,53.16,53.16,0,0,0,2.82-81.23c-8.49-7.69-12.94-18.89-12.94-30.35V1556C3465.69,1544.55,3470.14,1533.35,3478.63,1525.66Z"/><polygon class="cls-36" points="3573.55 1443.46 3558.58 1495.14 3569.16 1501.46 3569.16 1663.96 3590.91 1663.96 3590.91 1501.46 3601.49 1495.14 3586.52 1443.46 3573.55 1443.46"/><path class="cls-37" d="M3596.56,1694.43a10.84,10.84,0,0,1,10.07-10.75l-.41-19.72h-52.37l-.42,19.72a10.81,10.81,0,0,1-.45,21.59l-3.13,149.85h60.37l-3.13-149.85A10.88,10.88,0,0,1,3596.56,1694.43Z"/><path class="cls-10" d="M3442.92,1542a6.83,6.83,0,0,0-6.84,6.83V1747a6.84,6.84,0,0,0,13.67,0V1548.8A6.83,6.83,0,0,0,3442.92,1542Z"/><path class="cls-10" d="M2938.71,1311.44a17.54,17.54,0,1,0,17.53,17.54A17.54,17.54,0,0,0,2938.71,1311.44Z"/><circle class="cls-10" cx="3023.65" cy="1328.98" r="17.54"/><path class="cls-10" d="M3108.6,1311.44a17.54,17.54,0,1,0,17.53,17.54A17.54,17.54,0,0,0,3108.6,1311.44Z"/><rect class="cls-38" x="1996.64" y="1602.28" width="633.99" height="410.03" rx="27.37"/><path class="cls-17" d="M2603.26,1602.28H2024a27.36,27.36,0,0,0-27.36,27.37V1658h634v-28.31A27.36,27.36,0,0,0,2603.26,1602.28Z"/><path class="cls-29" d="M2106.28,1614.52a15.61,15.61,0,1,0,15.6,15.6A15.6,15.6,0,0,0,2106.28,1614.52Z"/><path class="cls-24" d="M2065.58,1614.52a15.61,15.61,0,1,0,15.6,15.6A15.59,15.59,0,0,0,2065.58,1614.52Z"/><path class="cls-12" d="M2023.84,1614.52a15.61,15.61,0,1,0,15.6,15.6A15.59,15.59,0,0,0,2023.84,1614.52Z"/><polygon class="cls-10" points="2143.72 1808.05 2096.32 1808.05 2096.32 1761.87 2061.55 1761.87 2061.55 1884.78 2096.32 1884.78 2096.32 1836.84 2143.72 1836.84 2143.72 1884.78 2178.49 1884.78 2178.49 1761.87 2143.72 1761.87 2143.72 1808.05"/><polygon class="cls-10" points="2191.48 1789.43 2229.23 1789.43 2229.23 1884.78 2264 1884.78 2264 1789.43 2301.57 1789.43 2301.57 1761.87 2191.48 1761.87 2191.48 1789.43"/><polygon class="cls-10" points="2428.52 1761.87 2386.38 1832.8 2343.19 1761.87 2314.57 1761.87 2314.57 1884.78 2346.7 1884.78 2346.7 1821.39 2378.13 1872.66 2393.58 1872.66 2425.18 1819.63 2425.53 1884.78 2457.49 1884.78 2457.14 1761.87 2428.52 1761.87"/><polygon class="cls-10" points="2516.84 1761.87 2482.07 1761.87 2482.07 1884.78 2575.48 1884.78 2575.48 1857.21 2516.84 1857.21 2516.84 1761.87"/><rect class="cls-12" x="2909.2" y="572.62" width="403.68" height="146.65" rx="35.16"/><polygon class="cls-12" points="3312.88 776.11 3312.88 684.39 3266.82 715.32 3312.88 776.11"/><polygon class="cls-10" points="2953.23 646.74 2994.31 661.9 2994.31 649.74 2967.73 640.32 2994.31 630.9 2994.31 618.74 2953.23 633.9 2953.23 646.74"/><path class="cls-10" d="M3027.22,636.15q5.91,0,9,6.09l12.25-6.25a18.29,18.29,0,0,0-7.92-9.13,25.66,25.66,0,0,0-13.25-3.29,29.58,29.58,0,0,0-13.41,3,22,22,0,0,0-12.5,20.29,22.19,22.19,0,0,0,12.5,20.41,29.21,29.21,0,0,0,13.41,3,25.57,25.57,0,0,0,13.25-3.29,18.23,18.23,0,0,0,7.92-9.12l-12.25-6.25q-3.09,6.07-9,6.08a9.42,9.42,0,0,1-7-2.87q-2.79-2.88-2.79-8a10.68,10.68,0,0,1,2.79-7.83A9.47,9.47,0,0,1,3027.22,636.15Z"/><path class="cls-10" d="M3089.8,626.53a28.74,28.74,0,0,0-13.17-3,28.44,28.44,0,0,0-13.12,3,22.79,22.79,0,0,0,0,40.7,30.21,30.21,0,0,0,26.25,0,22.32,22.32,0,0,0,9.08-8.33,24,24,0,0,0,0-24.12A22.14,22.14,0,0,0,3089.8,626.53Zm-6.34,28.25a9.56,9.56,0,0,1-13.66,0q-2.67-2.88-2.67-8t2.67-7.83a9.63,9.63,0,0,1,13.66,0q2.67,2.84,2.67,7.83T3083.46,654.78Z"/><path class="cls-10" d="M3141.62,628.24q-4.41-4.66-12.49-4.67a22.76,22.76,0,0,0-11.25,2.83,20.55,20.55,0,0,0-8,8.13,27.08,27.08,0,0,0,0,24.62,20.76,20.76,0,0,0,8,8.21,22.37,22.37,0,0,0,11.25,2.87q8.82,0,13.24-5.25v4.5h15.09V607.66h-15.84Zm-2.41,26.54a9.47,9.47,0,0,1-13.58,0q-2.67-2.88-2.67-8t2.67-7.83a9,9,0,0,1,6.83-2.84,8.83,8.83,0,0,1,6.79,2.84q2.63,2.84,2.62,7.83C3141.87,650.21,3141,652.86,3139.21,654.78Z"/><path class="cls-10" d="M3201.87,626.36a28.44,28.44,0,0,0-25,.21,22.31,22.31,0,0,0-8.87,8.29,23.85,23.85,0,0,0,.08,24,22.34,22.34,0,0,0,9.29,8.33,30.74,30.74,0,0,0,13.92,3q12.66,0,19.24-7.33l-8.33-8.66a16.74,16.74,0,0,1-4.79,3,15.4,15.4,0,0,1-5.62.92,13,13,0,0,1-7.21-1.87,9.19,9.19,0,0,1-3.88-5.38h32.83c.17-2.5.25-3.8.25-3.91a23.76,23.76,0,0,0-3.2-12.54A21.22,21.22,0,0,0,3201.87,626.36Zm-21.42,16.21a9.44,9.44,0,0,1,3.13-5.67,10.06,10.06,0,0,1,12.25,0,9.38,9.38,0,0,1,3.12,5.67Z"/><polygon class="cls-10" points="3220.87 630.9 3247.45 640.32 3220.87 649.74 3220.87 661.9 3261.95 646.74 3261.95 633.9 3220.87 618.74 3220.87 630.9"/><rect class="cls-35" x="639.68" y="980.25" width="431.3" height="278.94" rx="18.62"/><path class="cls-17" d="M1052.37,980.25H658.3a18.62,18.62,0,0,0-18.62,18.62v19.27H1071V998.87A18.62,18.62,0,0,0,1052.37,980.25Z"/><path class="cls-29" d="M714.27,988.58a10.62,10.62,0,1,0,10.62,10.61A10.61,10.61,0,0,0,714.27,988.58Z"/><path class="cls-24" d="M686.59,988.58a10.62,10.62,0,1,0,10.61,10.61A10.61,10.61,0,0,0,686.59,988.58Z"/><path class="cls-12" d="M658.19,988.58a10.62,10.62,0,1,0,10.62,10.61A10.61,10.61,0,0,0,658.19,988.58Z"/><path class="cls-10" d="M748.05,1105.91a31.58,31.58,0,0,1,15.76-3.88q15.06,0,25.62,12.73l19.56-17.7a51.64,51.64,0,0,0-19.87-15.22,65.86,65.86,0,0,0-26.86-5.28,64.38,64.38,0,0,0-30.67,7.22,54,54,0,0,0-21.35,20.11,58.78,58.78,0,0,0,0,58.38,54.07,54.07,0,0,0,21.35,20.11,64.38,64.38,0,0,0,30.67,7.22,66,66,0,0,0,26.86-5.28A51.64,51.64,0,0,0,809,1169.1l-19.56-17.7q-10.56,12.74-25.62,12.73a31.58,31.58,0,0,1-15.76-3.88,26.89,26.89,0,0,1-10.71-11,36.45,36.45,0,0,1,0-32.45A26.87,26.87,0,0,1,748.05,1105.91Z"/><polygon class="cls-10" points="869.86 1096.13 845.94 1096.13 845.94 1121.74 819.55 1121.74 819.55 1144.41 845.94 1144.41 845.94 1170.03 869.86 1170.03 869.86 1144.41 896.1 1144.41 896.1 1121.74 869.86 1121.74 869.86 1096.13"/><polygon class="cls-10" points="965.65 1096.13 941.74 1096.13 941.74 1121.74 915.35 1121.74 915.35 1144.41 941.74 1144.41 941.74 1170.03 965.65 1170.03 965.65 1144.41 991.89 1144.41 991.89 1121.74 965.65 1121.74 965.65 1096.13"/><rect class="cls-39" x="2981.57" y="940.17" width="249.42" height="249.42" rx="27.84"/><polygon class="cls-10" points="3016.35 1077.48 3074.78 1098.67 3074.78 1079.2 3040.06 1067.29 3074.78 1055.37 3074.78 1035.9 3016.35 1057.09 3016.35 1077.48"/><polygon class="cls-10" points="3076.5 1118.84 3099.41 1118.84 3137.21 1010.92 3114.3 1010.92 3076.5 1118.84"/><polygon class="cls-10" points="3137.78 1055.37 3172.49 1067.29 3137.78 1079.2 3137.78 1098.67 3196.21 1077.48 3196.21 1057.09 3137.78 1035.9 3137.78 1055.37"/><rect class="cls-40" x="2879.96" y="2282.22" width="223.18" height="223.18" rx="24.91"/><path class="cls-10" d="M2928.07,2381.74a17.74,17.74,0,0,1,8.84-2.18q8.45,0,14.37,7.14l11-9.93a29,29,0,0,0-11.15-8.53,36.82,36.82,0,0,0-15.07-3,36.06,36.06,0,0,0-17.2,4.05,30.48,30.48,0,0,0-12,11.28,33,33,0,0,0,0,32.75,30.34,30.34,0,0,0,12,11.28,36.06,36.06,0,0,0,17.2,4,36.81,36.81,0,0,0,15.07-3,29,29,0,0,0,11.15-8.53l-11-9.93q-5.93,7.14-14.37,7.14a17.74,17.74,0,0,1-8.84-2.18,15.12,15.12,0,0,1-6-6.14,20.5,20.5,0,0,1,0-18.2A15.12,15.12,0,0,1,2928.07,2381.74Z"/><path class="cls-10" d="M3006.37,2393.54a84.22,84.22,0,0,0-11.54-3.18,49.74,49.74,0,0,1-9-2.53c-1.86-.81-2.78-2-2.78-3.65a4.57,4.57,0,0,1,2.35-4q2.34-1.52,7.49-1.52a35.53,35.53,0,0,1,16.89,4.7l5.32-12.8a36.65,36.65,0,0,0-10.28-4,53,53,0,0,0-11.85-1.35,37.52,37.52,0,0,0-14.85,2.62,20.4,20.4,0,0,0-9.1,7.1,17.5,17.5,0,0,0-3.05,10.06q0,6.36,3.31,10.1a19.31,19.31,0,0,0,7.93,5.44,84.68,84.68,0,0,0,11.5,3.18,52.32,52.32,0,0,1,9.1,2.66,4.12,4.12,0,0,1,2.83,3.88q0,5-9.93,5a36.28,36.28,0,0,1-10.63-1.65,36.85,36.85,0,0,1-9.49-4.36L2965,2422a35.1,35.1,0,0,0,11.32,4.87,56.39,56.39,0,0,0,14.37,1.83,37,37,0,0,0,14.81-2.65,20.78,20.78,0,0,0,9.14-7.1,17.09,17.09,0,0,0,3.05-9.93q0-6.36-3.35-10.06A19.92,19.92,0,0,0,3006.37,2393.54Z"/><path class="cls-10" d="M3062.73,2393.54a85,85,0,0,0-11.54-3.18,49.65,49.65,0,0,1-9-2.53q-2.77-1.22-2.78-3.65a4.57,4.57,0,0,1,2.35-4c1.57-1,4.06-1.52,7.49-1.52a35.57,35.57,0,0,1,16.9,4.7l5.31-12.8a36.65,36.65,0,0,0-10.28-4,53,53,0,0,0-11.84-1.35,37.45,37.45,0,0,0-14.85,2.62,20.43,20.43,0,0,0-9.11,7.1,17.49,17.49,0,0,0-3,10.06q0,6.36,3.31,10.1a19.21,19.21,0,0,0,7.92,5.44,84.68,84.68,0,0,0,11.5,3.18,52.32,52.32,0,0,1,9.1,2.66,4.1,4.1,0,0,1,2.83,3.88q0,5-9.93,5a36.22,36.22,0,0,1-10.62-1.65,36.93,36.93,0,0,1-9.5-4.36l-5.66,12.72a35.19,35.19,0,0,0,11.32,4.87,56.41,56.41,0,0,0,14.38,1.83,37,37,0,0,0,14.8-2.65,20.81,20.81,0,0,0,9.15-7.1A17.16,17.16,0,0,0,3074,2409q0-6.36-3.36-10.06A19.81,19.81,0,0,0,3062.73,2393.54Z"/><rect class="cls-10" x="1381.33" y="641.98" width="1377.51" height="890.9" rx="59.46"/><path class="cls-17" d="M2699.37,642H1440.79a59.46,59.46,0,0,0-59.46,59.47V763H2758.84V701.45A59.46,59.46,0,0,0,2699.37,642Z"/><path class="cls-29" d="M1619.55,668.57a33.91,33.91,0,1,0,33.91,33.91A33.91,33.91,0,0,0,1619.55,668.57Z"/><path class="cls-24" d="M1531.13,668.57a33.91,33.91,0,1,0,33.9,33.91A33.91,33.91,0,0,0,1531.13,668.57Z"/><path class="cls-12" d="M1440.44,668.57a33.91,33.91,0,1,0,33.9,33.91A33.91,33.91,0,0,0,1440.44,668.57Z"/><rect class="cls-24" x="1712.25" y="930.75" width="378.21" height="44.52"/><rect class="cls-41" x="1522.94" y="1021.52" width="571.31" height="44.52"/><rect class="cls-41" x="1710.15" y="837.82" width="379.36" height="44.52"/><rect class="cls-41" x="1522.94" y="1099.8" width="363.15" height="44.52"/><rect class="cls-24" x="1663.16" y="1178.08" width="222.93" height="44.52"/><rect class="cls-10" x="1938.59" y="1178.08" width="708.04" height="44.52"/><rect class="cls-41" x="1522.94" y="1256.37" width="309.18" height="44.52"/><rect class="cls-24" x="1886.09" y="1256.37" width="546.39" height="44.52"/><rect class="cls-10" x="2484.98" y="1256.37" width="161.65" height="44.52"/><rect class="cls-41" x="1522.94" y="1334.65" width="517.75" height="44.52"/><rect class="cls-24" x="2094.65" y="1334.65" width="192.87" height="44.52"/><rect class="cls-10" x="2340.03" y="1334.65" width="306.6" height="44.52"/><rect class="cls-24" x="1749.41" y="1412.93" width="683.07" height="44.52"/><rect class="cls-10" x="2484.98" y="1412.93" width="161.65" height="44.52"/><polygon class="cls-42" points="1528.22 874.53 1573.11 891.1 1573.11 877.81 1544.06 867.52 1573.11 857.23 1573.11 843.94 1528.22 860.51 1528.22 874.53"/><polygon class="cls-42" points="1575.02 908.49 1590.4 908.49 1620.45 822.73 1605.06 822.73 1575.02 908.49"/><polygon class="cls-42" points="1621.45 857.23 1650.49 867.52 1621.45 877.81 1621.45 891.1 1666.33 874.53 1666.33 860.51 1621.45 843.94 1621.45 857.23"/><path class="cls-43" d="M2612.63,836h-427c-17.2,0-31.14,9.67-31.14,21.59v257.84c0,11.93,13.94,21.59,31.14,21.59h427c17.2,0,31.14-9.66,31.14-21.59V857.59C2643.77,845.67,2629.83,836,2612.63,836Z"/><g class="cls-44"><path class="cls-10" d="M2612.63,836h-427c-17.2,0-31.14,9.67-31.14,21.59v257.84c0,11.93,13.94,21.59,31.14,21.59h427c17.2,0,31.14-9.66,31.14-21.59V857.59C2643.77,845.67,2629.83,836,2612.63,836Z"/></g><path class="cls-43" d="M2613.4,849H2184.84c-6.42,0-11.64,3.62-11.64,8.07V1104.5c0,4.45,5.22,8.07,11.64,8.07H2613.4c6.42,0,11.64-3.62,11.64-8.07V857.06C2625,852.61,2619.82,849,2613.4,849Z"/><g class="cls-45"><path d="M2613.4,849H2184.84c-6.42,0-11.64,3.62-11.64,8.07V1104.5c0,4.45,5.22,8.07,11.64,8.07H2613.4c6.42,0,11.64-3.62,11.64-8.07V857.06C2625,852.61,2619.82,849,2613.4,849Z"/></g><path class="cls-43" d="M2173.2,1098.69v5.81c0,4.45,5.22,8.07,11.64,8.07h237.25L2291.15,972.68Z"/><path class="cls-43" d="M2353.54,1112.57H2613.4c6.42,0,11.64-3.62,11.64-8.07v-25.86L2503.37,932Z"/><g class="cls-45"><path class="cls-10" d="M2353.54,1112.57H2613.4c6.42,0,11.64-3.62,11.64-8.07v-25.86L2503.37,932Z"/></g><path class="cls-10" d="M2399.12,889.74c-12.62,0-22.84,9.46-22.84,21.13S2386.5,932,2399.12,932s22.84-9.46,22.84-21.12S2411.74,889.74,2399.12,889.74Z"/></g></svg>
