<svg xmlns="http://www.w3.org/2000/svg" viewBox="0 0 512 512"><defs><style>.cls-1{fill:#f7bb38;}.cls-2{fill:#dba231;}.cls-3{fill:#3e436d;}.cls-4{fill:#32314b;}.cls-5{fill:#27273d;}.cls-6{fill:#db1b1b;}.cls-7{fill:#fcc8bc;}.cls-8{fill:#fab3a7;}.cls-10,.cls-9{fill:none;stroke-linecap:round;stroke-miterlimit:10;stroke-width:7px;}.cls-9{stroke:#db1b1b;}.cls-10{stroke:#27273d;}.cls-11{fill:#f58d89;}.cls-12{fill:#d54545;}.cls-13{fill:#c11e1e;}.cls-14{fill:#f6d372;}.cls-15{fill:#f7dfa1;}</style></defs><title>Avatar Users2</title><g id="BULINE"><circle class="cls-1" cx="256" cy="256" r="256"/></g><g id="Icons"><path class="cls-2" d="M484.77,371A257.06,257.06,0,0,1,390.1,474.1l-1.7,1c-2.43,1.47-4.89,2.91-7.37,4.3A255,255,0,0,1,256,512a254.77,254.77,0,0,1-128.79-34.71q-3.85-2.25-7.61-4.62l-.8-.51A257.11,257.11,0,0,1,27.23,371a257.15,257.15,0,0,1,97.2-104.65q4.92-3,10-5.7c1-.54,2-1.07,3-1.59q4.25-2.24,8.58-4.29,8.7-4.16,17.76-7.66,3-1.16,6-2.23h0q10.23-3.66,20.87-6.46,5.52-1.46,11.14-2.67l.15,0,1.31-.28h0c.48-.11,1-.21,1.45-.3q6.49-1.33,13.1-2.31c.94-.15,1.89-.28,2.83-.41l1.06-.14q3.77-.51,7.56-.9,4.32-.45,8.67-.76l.48,0h.25l1.25-.08,1.2-.08h.29c1-.06,2-.11,3-.15,3.82-.17,7.67-.26,11.53-.26q5.25,0,10.44.21l3.09.14.51,0,1,.06,1.5.1.68,0h.13q7.91.53,15.66,1.53l2.37.31,3.23.47,1,.16q3.69.57,7.35,1.25c1.09.21,2.18.41,3.26.64.5.09,1,.19,1.49.3s1,.19,1.46.3q1.1.22,2.19.48a251.12,251.12,0,0,1,31.1,9q3,1.08,6,2.23c1.64.64,3.28,1.29,4.91,2q7,2.85,13.71,6.12,4.89,2.35,9.65,4.91l2.39,1.29q5.36,3,10.55,6.14A257.16,257.16,0,0,1,484.77,371Z"/><path class="cls-3" d="M356.08,92.27c0,45.89-44.19,83.1-98.7,83.1s-98.7-37.21-98.7-83.1c0-30.86,44.62-57.79,73.86-72.12a56.84,56.84,0,0,1,49.68,0C311.46,34.48,356.08,61.41,356.08,92.27Z"/><ellipse class="cls-4" cx="257.38" cy="172.98" rx="173.65" ry="124.17"/><ellipse class="cls-5" cx="257.38" cy="172.98" rx="137.61" ry="68.53"/><path class="cls-6" d="M137.42,193.74H376.74a0,0,0,0,1,0,0V290.6a39,39,0,0,1-39,39H176.41a39,39,0,0,1-39-39V193.74A0,0,0,0,1,137.42,193.74Z"/><path class="cls-7" d="M381,479.43A255,255,0,0,1,256,512a254.77,254.77,0,0,1-128.79-34.71C139.72,461.45,156,448,177.3,437.88c8-3.79,38.32-9.44,44.08-16.1a15.88,15.88,0,0,0,3.3-6.72c1.11-4.53.9-9.81.58-14.86-.2-3.09-.43-6.09-.43-8.8,0-2,0-3.87-.07-5.54,0-.15,0-.3,0-.45v0c-.48-20-2.76-13.86,14.12-19.52a27,27,0,0,1,4.28-.69c11.75-1.32,42.26-2.63,45.81.69,3.2,3,3.17,9.78,2.34,17.44l-.06.54c-.6,5.38-1.55,11.17-2,16.35-.47,4.95-.48,9.36.67,12.31.35.9.73,1.76,1.13,2.55,6.6,13.35,19.34,13.54,34,20.38q6.22,2.9,11.9,6.11A142,142,0,0,1,381,479.43Z"/><path class="cls-7" d="M367.09,206.76V282c0,56.09-44.65,74.05-77.19,102.58a50.08,50.08,0,0,1-66.72,0C190.64,356,146,338,146,282V206.76c0-55.16,41.08-100.14,92.54-102.36,1.33-.07,2.66-.1,4-.1h28C323.85,104.3,367.09,150.17,367.09,206.76Z"/><path class="cls-8" d="M190.66,282V206.76c0-53.69,38.92-97.75,88.47-102.09-2.66-.25-5.34-.37-8.06-.37h-28c-53.33,0-96.55,45.88-96.55,102.46V244a22.12,22.12,0,1,0,0,44.24h.22c3.2,51.2,45.66,68.89,77,96.31a49.91,49.91,0,0,0,55.42,7.56,51.19,51.19,0,0,1-11.3-7.56C235.28,356,190.66,338,190.66,282Z"/><circle class="cls-7" cx="367.62" cy="266.1" r="22.12"/><path class="cls-9" d="M176.27,235.72s27.89-15.54,52,0"/><ellipse class="cls-5" cx="201.88" cy="263.43" rx="9.24" ry="13.3"/><path class="cls-9" d="M283.71,235.72s27.88-15.54,52,0"/><ellipse class="cls-5" cx="309.32" cy="263.43" rx="9.24" ry="13.3"/><rect class="cls-8" x="240.47" y="288.22" width="32.14" height="12.18" rx="5.59"/><path class="cls-10" d="M185.08,253.63s16-10.08,33.61,0"/><path class="cls-10" d="M292.51,253.63s16-10.08,33.61,0"/><path class="cls-11" d="M147.18,257.3a8.8,8.8,0,0,0,0,17.6Z"/><path class="cls-8" d="M367.62,274.9a8.8,8.8,0,1,0,0-17.6Z"/><path class="cls-12" d="M256.54,322.6c-16.81-2.73-31.44,8.18-31.44,8.18,0,8.68,14.08,17.12,31.44,17.12h0c17.36,0,31.44-8.44,31.44-17.12C288,330.78,273.35,319.87,256.54,322.6Z"/><path class="cls-13" d="M278.91,331.53H240.86a5.68,5.68,0,0,1,2.65-3.25,47.37,47.37,0,0,1,20.22-6.07,33.86,33.86,0,0,0-7.19.39c-16.8-2.73-31.44,8.18-31.44,8.18,0,8.68,14.08,17.12,31.44,17.12a54.19,54.19,0,0,0,7.21-.49c-10.1-1.4-18.33-5.61-22.07-10.67a5.34,5.34,0,0,1-.84-1.71h38.07a1.75,1.75,0,1,0,0-3.5Z"/><path class="cls-6" d="M376.74,201.21v40.3s-26.14-30-34.58-67.57c0,0-6,3.82-6.27,17.49a4.07,4.07,0,0,1-6.64,3.08c-15-12.35-48.15-43.48-46.05-75.55,0,0-16,46.35-76.35,76.81a4.05,4.05,0,0,1-5.69-4.8c3.11-10.37,5.86-27.68-3.94-41.46,0,0-5.32,64.35-59.77,92l0,0V201.21c0-59.71,44.48-108.39,100.18-110.79,1.43-.08,2.88-.11,4.33-.11h30.3C329.94,90.31,376.74,140,376.74,201.21Z"/><rect class="cls-5" x="219.93" y="400.2" width="76.36" height="14.86" rx="4.73"/><path class="cls-5" d="M199.46,505.74a254.89,254.89,0,0,1-72.25-28.45C139.72,461.45,156,448,177.3,437.88,177.3,437.88,174.43,471.12,199.46,505.74Z"/><path class="cls-5" d="M381,479.43a254,254,0,0,1-65.91,25.7c19.67-27.54,21.77-54.09,21.82-63.58A142,142,0,0,1,381,479.43Z"/><path class="cls-5" d="M277,296.36a1.86,1.86,0,0,1-1.86-1.86c0-9.61-8.4-17.42-18.72-17.42s-18.73,7.81-18.73,17.42a1.86,1.86,0,1,1-3.71,0c0-11.66,10.06-21.14,22.44-21.14s22.43,9.48,22.43,21.14A1.85,1.85,0,0,1,277,296.36Z"/><path class="cls-14" d="M237.1,291.34A22.93,22.93,0,0,1,211,314.08a22.76,22.76,0,0,1-13.3-6.74,22.9,22.9,0,0,1-6.49-14.82c0-.39,0-.78,0-1.18a23,23,0,0,1,22.95-22.95c.4,0,.79,0,1.18,0a22.86,22.86,0,0,1,14.83,6.48,22.76,22.76,0,0,1,6.74,13.3A23.32,23.32,0,0,1,237.1,291.34Z"/><path class="cls-15" d="M230.14,274.9,197.7,307.34a22.9,22.9,0,0,1-6.49-14.82l24.1-24.1A22.86,22.86,0,0,1,230.14,274.9Z"/><path class="cls-15" d="M236.88,288.2,211,314.08a22.45,22.45,0,0,1-8-2.66l31.21-31.21A22.71,22.71,0,0,1,236.88,288.2Z"/><path class="cls-5" d="M238.86,289.4c0-.27,0-.55-.06-.81h0a24.28,24.28,0,0,0-1.26-5.48s0,0,0,0a24.85,24.85,0,0,0-23.39-16.56,23.85,23.85,0,0,0-3.3.23h0a24.65,24.65,0,0,0-14.48,7.33h0a24.43,24.43,0,0,0-5.67,9.21h0a23.55,23.55,0,0,0-1,4h0a25.1,25.1,0,0,0-.33,4,23.94,23.94,0,0,0,.45,4.67,24.58,24.58,0,0,0,3.83,9.23v0a24.81,24.81,0,0,0,44.82-8.86h0a24.72,24.72,0,0,0,.52-5C239,290.69,238.92,290.05,238.86,289.4Zm-24.72,23c-.49,0-1,0-1.45-.05a20.43,20.43,0,0,1-8.3-2.35h0a21,21,0,0,1-11-14.78,20.1,20.1,0,0,1-.37-3.91c0-.22,0-.43,0-.66h0a21.46,21.46,0,0,1,.2-2.28,21,21,0,0,1,6.16-12.14h0a21,21,0,0,1,10.19-5.51h0a19.6,19.6,0,0,1,3.86-.49h.66a21.08,21.08,0,0,1,14.69,6,21.45,21.45,0,0,1,4,5.38,20.79,20.79,0,0,1,2.16,6.58v0c.07.47.12.95.16,1.44a2.28,2.28,0,0,1,0,.27c0,.48,0,1,0,1.45a20.2,20.2,0,0,1-.52,4.62h0a.36.36,0,0,1,0,.1h0A21.1,21.1,0,0,1,214.14,312.44Z"/><path class="cls-14" d="M321.36,291.34a22.93,22.93,0,0,1-26.1,22.74,22.67,22.67,0,0,1-13.3-6.74,22.85,22.85,0,0,1-6.49-14.82c0-.39,0-.78,0-1.18a23,23,0,0,1,22.95-22.95c.4,0,.79,0,1.18,0a22.94,22.94,0,0,1,21.57,19.78A23.32,23.32,0,0,1,321.36,291.34Z"/><path class="cls-15" d="M314.4,274.9,282,307.34a22.85,22.85,0,0,1-6.49-14.82l24.1-24.1A22.86,22.86,0,0,1,314.4,274.9Z"/><path class="cls-15" d="M321.14,288.2l-25.88,25.88a22.56,22.56,0,0,1-8-2.66l31.22-31.21A22.71,22.71,0,0,1,321.14,288.2Z"/><path class="cls-5" d="M323,288a24.84,24.84,0,0,0-22.62-21.36c-.64-.06-1.3-.09-2-.09a24.89,24.89,0,0,0-23.31,16.3h0a24,24,0,0,0-1.28,5.24h0a10.39,10.39,0,0,0-.14,1.25c-.06.67-.09,1.34-.09,2a24.25,24.25,0,0,0,.56,5.21h0a24.82,24.82,0,0,0,49.07-5.22A23.49,23.49,0,0,0,323,288ZM298.4,312.44c-.49,0-1,0-1.45-.05a20.52,20.52,0,0,1-8.31-2.35h0a21.3,21.3,0,0,1-5.37-4,21,21,0,0,1-5.37-9.76.4.4,0,0,1,0-.15,20.37,20.37,0,0,1-.56-4.78c0-.22,0-.43,0-.66h0c0-.38,0-.76.08-1.13a13.2,13.2,0,0,1,.24-1.89,21.12,21.12,0,0,1,20.11-17.41h.66a18.46,18.46,0,0,1,3.08.24,21,21,0,0,1,11.2,5.35l.41.38a21.7,21.7,0,0,1,4,5.38,20.52,20.52,0,0,1,2.25,7.4h0c0,.29.07.6.09.9,0,.48.05,1,.05,1.45a20.2,20.2,0,0,1-.33,3.67A21.11,21.11,0,0,1,298.4,312.44Z"/></g></svg>
