<svg xmlns="http://www.w3.org/2000/svg" viewBox="0 0 512 512"><defs><style>.cls-1{fill:#7cc8fb;}.cls-2{fill:#6cb7e0;}.cls-3{fill:#fcc8bc;}.cls-4{fill:#c96a2b;}.cls-5{fill:#af5523;}.cls-6{fill:#e88032;}.cls-7{fill:#fab3a7;}.cls-8{fill:none;stroke:#27273d;stroke-linecap:round;stroke-miterlimit:10;stroke-width:7px;}.cls-9{fill:#f9a195;}.cls-10{fill:#32314b;}.cls-11{fill:#fff;}.cls-12{fill:#d2efff;}.cls-13{fill:#27273d;}.cls-14{fill:#3e436d;}</style></defs><title>Avatar Users2</title><g id="BULINE"><circle class="cls-1" cx="256" cy="256" r="256"/></g><g id="Icons"><path class="cls-2" d="M484.77,371a257,257,0,0,1-82.18,94.89h0q-2.86,2-5.79,3.95c-2.2,1.45-4.43,2.88-6.69,4.26a253.89,253.89,0,0,1-50.22,23.83c-2.9,1-5.84,2-8.79,2.87s-5.83,1.74-8.78,2.52-5.83,1.51-8.78,2.18a258.15,258.15,0,0,1-111.56.79c-2.95-.63-5.87-1.32-8.78-2.06s-5.88-1.53-8.79-2.38-5.88-1.77-8.78-2.73a254.91,254.91,0,0,1-56-26.45c-3-1.9-6-3.85-8.89-5.88l-.78-.54A257.09,257.09,0,0,1,27.23,371,257.19,257.19,0,0,1,130.66,262.73h0c1.19-.68,2.39-1.34,3.6-2a253.37,253.37,0,0,1,24-11.41l1.9-.79,3.73-1.46q7.09-2.74,14.4-5.07l2.1-.65c1.2-.38,2.4-.74,3.61-1.09h0l.12,0c1.08-.32,2.16-.63,3.24-.92q3.29-.93,6.61-1.74c2.83-.71,5.67-1.37,8.54-2,1.31-.28,2.62-.55,3.93-.8l.32-.07c2.61-.51,5.25-1,7.89-1.41l1.41-.23q9.14-1.43,18.46-2.21h0l3-.23Q246.69,230,256,230q11.56,0,22.87,1h0l2.74.26q5.46.54,10.86,1.31,6.12.87,12.14,2c1.21.23,2.41.47,3.61.73.3,0,.59.12.89.18l.6.13q3.81.81,7.58,1.74,3.22.8,6.42,1.66c1.34.37,2.67.75,4,1.14q3,.85,5.91,1.79,2.63.84,5.22,1.72,7.11,2.43,14,5.27l1.89.78a254.43,254.43,0,0,1,23,11q2.47,1.33,4.92,2.74h0A257.16,257.16,0,0,1,484.77,371Z"/><path class="cls-3" d="M396.79,469.84c-2.2,1.45-4.43,2.88-6.69,4.26a253.89,253.89,0,0,1-50.22,23.83c-2.9,1-5.84,2-8.79,2.87s-5.83,1.74-8.78,2.52-5.83,1.51-8.78,2.18a258.15,258.15,0,0,1-111.56.79c-2.95-.63-5.87-1.32-8.78-2.06s-5.88-1.53-8.79-2.38-5.88-1.77-8.78-2.73a254.91,254.91,0,0,1-56-26.45c-3-1.9-6-3.85-8.89-5.88q4.55-5.42,9.66-10.47c1.17-1.17,2.36-2.3,3.58-3.43l.21-.2c3-2.76,6.12-5.42,9.39-8h0l0,0a168.11,168.11,0,0,1,31.64-19.44,30.58,30.58,0,0,1,3.1-1.24l.94-.33c.63-.2,1.28-.43,2-.64,2.47-.77,5.39-1.61,8.5-2.47l.76-.22,2.19-.61.23-.07.12,0c2.8-.79,5.7-1.6,8.59-2.45,4.49-1.3,8.92-2.7,12.79-4.15.92-.33,1.81-.68,2.65-1.05,4.06-1.66,7.25-3.42,8.82-5.23,6.74-7.83,4.41-21.37,4-32.12h0c0-.94-.07-1.88-.07-2.78,0-.72,0-1.42,0-2.1,0-.85,0-1.64,0-2.43h0c-.41-25.81-3.87-18.07,16.19-24.79a16.44,16.44,0,0,1,2.26-.45c2.33-.34,6-.72,10.48-1h0c3.48-.25,7.42-.48,11.45-.63,14.54-.59,30.63-.38,33.31,2.12,4.08,3.82,3.57,13,2.34,23-.19,1.53-.39,3.08-.6,4.64-.09.69-.2,1.38-.29,2.07v0c-1.28,9.44-2.48,18.64-.42,23.89a28.36,28.36,0,0,0,13.77,15.69c.55.31,1.12.59,1.69.86a87.86,87.86,0,0,0,9.3,3.74c3.23,1.15,6.63,2.3,10.18,3.71l.12,0,2.8,1.16c.83.36,1.7.74,2.54,1.13l.65.32c2.47,1.14,4.88,2.35,7.23,3.58.22.1.42.21.62.32a175.24,175.24,0,0,1,30.69,20.23q4,3.3,7.7,6.79a157,157,0,0,1,11.67,12.18C394.61,467.16,395.71,468.5,396.79,469.84Z"/><path class="cls-4" d="M393.48,465.85c1.13,1.31,2.23,2.65,3.31,4-2.2,1.45-4.43,2.88-6.69,4.26a253.89,253.89,0,0,1-50.22,23.83c-2.9,1-5.84,2-8.79,2.87s-5.83,1.74-8.78,2.52-5.83,1.51-8.78,2.18a258.15,258.15,0,0,1-111.56.79c-2.95-.63-5.87-1.32-8.78-2.06s-5.88-1.53-8.79-2.38-5.88-1.77-8.78-2.73a254.91,254.91,0,0,1-56-26.45c-3-1.9-6-3.85-8.89-5.88q4.55-5.42,9.66-10.47c1.17-1.17,2.36-2.3,3.58-3.43l.21-.2c3-2.76,6.12-5.42,9.39-8h0l0,0a168.11,168.11,0,0,1,31.64-19.44,30.58,30.58,0,0,1,3.1-1.24l.94-.33c.63-.2,1.28-.43,2-.64,2.47-.77,5.39-1.61,8.5-2.47l.76-.22,2.19-.61.23-.07.12,0a21.9,21.9,0,0,1,16.56,2.05L246,447.86a21.86,21.86,0,0,0,22.17-.36l42.26-25.69a21.44,21.44,0,0,1,19.08-1.71l.12,0,2.8,1.16c.83.36,1.7.74,2.54,1.13l.65.32c2.47,1.14,4.88,2.35,7.23,3.58.22.1.42.21.62.32a175.24,175.24,0,0,1,30.69,20.23q4,3.3,7.7,6.79A157,157,0,0,1,393.48,465.85Z"/><path class="cls-5" d="M384,455.82c-10.09,5.81-25.32,10.81-44.09,14.57q-4.28.87-8.79,1.63V500.8c-2.91.9-5.83,1.74-8.78,2.52s-5.83,1.51-8.78,2.18V474.57a480.63,480.63,0,0,1-57.28,3.3A481.63,481.63,0,0,1,202,474.92c-3-.33-5.91-.7-8.78-1.09v30.4q-4.42-1.11-8.79-2.38t-8.78-2.73V471c-23.31-4.42-41.5-10.72-51.67-18.09l0,0c0-.07.12-.12.17-.18,3-2.76,6.13-5.44,9.42-8l.05,0h0a143,143,0,0,0,24.77,8.65l1.45.37,1.54.38q3.76.94,7.77,1.8l.22,0q3.09.66,6.32,1.27v-3.77a8.79,8.79,0,0,1,17.57,0v6.62l.93.12c1.3.18,2.62.35,3.94.5l.12,0,.25,0c1,.12,1.92.24,2.89.34l.65.08c1.49.17,3,.33,4.48.48l2.27.23,2.28.22,1.65.15,2.86.24,2.13.17h.05l2.9.22q2,.15,4,.27l2.68.16,3.43.19,4.94.22,3.82.13q4.11.13,8.3.2c1.4,0,2.8,0,4.21.05l4.23,0c1.6,0,3.19,0,4.78,0h.89l5-.08,1,0c3.37-.08,6.72-.18,10-.32l.86,0,3.64-.17,1.14-.06,2.47-.14,2.72-.17h0c1-.06,2-.13,3-.21,2.85-.19,5.66-.42,8.44-.66l3.27-.31c1.14-.1,2.27-.22,3.39-.34,2.24-.23,4.46-.49,6.65-.75v-7.36a8.78,8.78,0,0,1,17.56,0v4.81c3-.51,5.94-1.06,8.79-1.63,13.37-2.68,24.94-6,34.14-9.77l0,0q4,3.3,7.68,6.77C382.49,454.37,383.23,455.09,384,455.82Z"/><path class="cls-6" d="M297.09,370.4h0c-.61-.11-1.24-.21-1.85-.29-1.44-.24-2.87-.45-4.32-.64h0q-9.88-1.43-20.31-2h0c-4.68-.27-9.44-.41-14.25-.41a246.69,246.69,0,0,0-33.92,2.34h0c-.88.1-1.74.22-2.61.37-1.66.22-3.32.49-5,.78h0C157,380.26,115,408.19,115,425.56c0,6.95,6.76,13.48,18.57,19.12,1.74.84,3.6,1.65,5.56,2.45s3.91,1.51,6,2.25c.71.24,1.41.48,2.13.71,3.45,1.14,7.14,2.23,11,3.27l.5.13,1,.24,1.54.38c2.51.62,5.11,1.22,7.77,1.8a.71.71,0,0,1,.22,0c2.07.43,4.17.85,6.32,1.26,2.85.55,5.77,1,8.78,1.55,2.86.45,5.8.89,8.79,1.3l.93.13.95.12,3,.38.12,0,.25,0,2.89.34.65.08c1.49.17,3,.33,4.48.48l2.27.23,2.28.22,1.65.15,1.66.15,1.2.09,2.13.17h.05l2.9.22q2,.15,4,.27l2.68.16,3.43.19,4.94.22,3.82.13,2.37.08,2.85.08,3.08,0,1.24,0,3,0h.66c1.21,0,2.42,0,3.65,0,1.58,0,3.14,0,4.7,0h.89l5-.08,1,0,4.14-.1c2-.06,3.93-.14,5.88-.22l.86,0,2.51-.11,1.13-.06,1.14-.06,2.47-.14,1.65-.09,1.07-.08h0c1-.06,2-.13,3-.21,2.85-.19,5.66-.42,8.44-.66l3.27-.31c1.14-.1,2.27-.22,3.39-.34q8-.82,15.43-1.9c6.14-.89,12-1.89,17.57-3a189.51,189.51,0,0,0,34.17-9.76l.06,0c14.87-6.11,23.53-13.44,23.53-21.32C397.64,408.12,355.27,380,297.09,370.4Zm-40.76,1a31.35,31.35,0,0,1,18.79,6.32h0l0,0a33.62,33.62,0,0,1,5.36,4.92,39.93,39.93,0,0,1,9.85,26.65c0,20.93-15.24,37.91-34,37.91s-34-17-34-37.91A40,40,0,0,1,231.83,383a33.94,33.94,0,0,1,5.92-5.46h0A31.43,31.43,0,0,1,256.33,371.38Z"/><path class="cls-6" d="M279.37,352.52c-7.62-.66-15.49-1-23.55-1s-15.94.35-23.55,1c6.42-7.81,14.61-12.5,23.55-12.5S273,344.71,279.37,352.52Z"/><path class="cls-3" d="M383.69,162v86.37c0,3.13-.12,6.13-.36,9.06C378.75,314.78,330.61,335,295,366.16a57.52,57.52,0,0,1-76.63,0c-36-31.51-84.75-51.81-88.44-110.61-.14-2.34-.22-4.74-.22-7.22V162c0-.29,0-.58,0-.88C130,116,154.24,77,189.55,57.49c1.14-.64,31.13-12.45,46.48-13.1,1.53-.09,3.06-.12,4.6-.12h32.16A106.62,106.62,0,0,1,343.3,71.12a111.89,111.89,0,0,1,8.5,8.25,120.66,120.66,0,0,1,31.72,76v0C383.64,157.57,383.69,159.75,383.69,162Z"/><path class="cls-7" d="M180.41,248.33V162c0-61.68,44.71-112.29,101.63-117.27-3.05-.29-6.14-.42-9.26-.42H240.64c-61.26,0-110.9,52.7-110.9,117.69v42.75a25.41,25.41,0,0,0,0,50.82H130c3.69,58.81,52.45,79.13,88.4,110.63,18.22,16,43.05,18.88,63.66,8.68a59,59,0,0,1-13-8.68C231.67,333.4,180.41,312.76,180.41,248.33Z"/><circle class="cls-3" cx="383.68" cy="230.12" r="25.41"/><path class="cls-8" d="M163.89,182s32-17.84,59.69,0"/><path class="cls-8" d="M287.3,182s32-17.84,59.69,0"/><rect class="cls-7" x="237.73" y="255.53" width="36.92" height="13.99" rx="6.42"/><path class="cls-9" d="M130.46,220a10.11,10.11,0,0,0,0,20.22Z"/><path class="cls-7" d="M383.69,240.23a10.11,10.11,0,0,0,0-20.22Z"/><path class="cls-10" d="M383.33,257.39,382,255.51S361,283.09,325.15,308a7,7,0,0,1-9.84-1.89c-5.38-8.26-20-21.46-58.6-21.78h-1.39c-28.12.23-43.52,7.3-51.89,14.33a34.05,34.05,0,0,0-6.71,7.44,7,7,0,0,1-9.84,1.9C151,283.08,130,255.51,130,255.51l0,0a96.5,96.5,0,0,0,3.94,22.12l0,0s-3.6,22.51,4.38,35l5.32-6.8s10,28.6,27.27,39.9l3.6-5.62a322.65,322.65,0,0,0,29.92,27.57l3.05-4S228.84,386,255.58,394.1v.2l.3-.1.31.1v-.2c26.74-8.13,48.17-30.39,48.17-30.39l3.05,4a322.65,322.65,0,0,0,29.92-27.57l3.61,5.62c17.29-11.3,27.26-39.9,27.26-39.9l5.32,6.8c6-9.37,5.46-24.38,4.82-31.29A94,94,0,0,0,383.33,257.39Z"/><path class="cls-11" d="M229.16,296.33a2.33,2.33,0,0,0-2.32,2.52C228.11,314.48,241,329,256.71,329h0c15.72,0,28.61-14.48,29.88-30.11a2.34,2.34,0,0,0-2.33-2.52Z"/><path class="cls-10" d="M387.12,132.18l-6-26.09a63.77,63.77,0,0,0-19.86-33.46L342.67,56.14a58.48,58.48,0,0,0-19.9-11.55,78.38,78.38,0,0,1,7.93-11.92,5.52,5.52,0,0,0-3.42-8.86c-24.51-4-48.72,3-48.72,3V19.08A5.52,5.52,0,0,0,272,13.66c-26.86,5-41.34,14.88-41.34,14.88V21.19a5.53,5.53,0,0,0-8.1-4.88c-16.4,8.55-27.89,20.84-34.09,28.67a58.41,58.41,0,0,0-18.78,11.16L151.1,72.63a63.71,63.71,0,0,0-19.86,33.46l-6,26.09a106.46,106.46,0,0,0-1,43l5.43,29.57,25.57-57.35a42.8,42.8,0,0,1,3.08-5.61,46.38,46.38,0,0,1,49.89-19.94c8.88,2.08,24.33,4.65,47.91,5.16,23.63-.52,39.1-3.09,48-5.18A46.34,46.34,0,0,1,354,141.7a43.29,43.29,0,0,1,3.11,5.66l25.57,57.35,5.42-29.57A106.46,106.46,0,0,0,387.12,132.18Z"/><path class="cls-12" d="M234.56,216.76v18.76a20.93,20.93,0,0,1-20.94,20.92H176.57a20.94,20.94,0,0,1-20.94-20.92V216.76a21,21,0,0,1,20.94-20.94h37.05a20.7,20.7,0,0,1,6.76,1.12A21,21,0,0,1,234.56,216.76Z"/><path class="cls-11" d="M200.47,195.82l-22.28,60.62h-1.62a20.82,20.82,0,0,1-14.1-5.46l20.28-55.16Z"/><path class="cls-11" d="M220.38,196.94l-21.87,59.5H187.06l22.29-60.62h4.27A20.7,20.7,0,0,1,220.38,196.94Z"/><path class="cls-12" d="M357.79,216.76v18.76a20.92,20.92,0,0,1-20.93,20.92H299.81a20.94,20.94,0,0,1-20.94-20.92V216.76a21,21,0,0,1,20.94-20.94h37.05a20.7,20.7,0,0,1,6.76,1.12A20.94,20.94,0,0,1,357.79,216.76Z"/><path class="cls-11" d="M323.71,195.82l-22.28,60.62h-1.62a20.82,20.82,0,0,1-14.1-5.46L306,195.82Z"/><path class="cls-11" d="M343.62,196.94l-21.87,59.5H310.3l22.29-60.62h4.27A20.7,20.7,0,0,1,343.62,196.94Z"/><rect class="cls-8" x="155.64" y="195.82" width="78.91" height="58.26" rx="12.41"/><rect class="cls-8" x="278.88" y="195.82" width="78.91" height="58.26" rx="12.41"/><line class="cls-8" x1="234.55" y1="208.23" x2="278.88" y2="208.23"/><ellipse class="cls-13" cx="193.73" cy="227.06" rx="10.62" ry="15.28"/><path class="cls-8" d="M174.43,215.8s18.34-11.58,38.61,0"/><ellipse class="cls-13" cx="317.14" cy="227.06" rx="10.62" ry="15.28"/><path class="cls-8" d="M297.84,215.8s18.34-11.58,38.61,0"/><path class="cls-14" d="M323.58,54.66c1.15,13.11-.17,32.09-13.54,46.39a3.35,3.35,0,0,0,2.65,5.65c8.87-.62,21.87-2.46,29.05-7.83a3.35,3.35,0,0,1,5.19,1.39c1.81,4.69,4,12.3,3.08,19.57a3.35,3.35,0,0,0,5.95,2.46c6.42-7.84,11.81-21.82,3.81-45.15a3.35,3.35,0,0,0-5.87-.88l-1.24,1.68a3.35,3.35,0,0,1-5.46-.08L329.68,52.48A3.35,3.35,0,0,0,323.58,54.66Z"/><path class="cls-11" d="M202,453.46v52.83c-2.95-.63-5.87-1.32-8.78-2.06s-5.88-1.53-8.79-2.38V453.46a8.79,8.79,0,1,1,17.57,0Z"/><path class="cls-11" d="M339.88,453.46v44.47c-2.9,1-5.84,2-8.79,2.87s-5.83,1.74-8.78,2.52V453.46a8.79,8.79,0,0,1,17.57,0Z"/></g></svg>
