<svg xmlns="http://www.w3.org/2000/svg" viewBox="0 0 512 512"><defs><style>.cls-1{fill:#fc4581;}.cls-2{fill:#e03b77;}.cls-3{fill:#a65c3b;}.cls-4{fill:#fcc8bc;}.cls-5{fill:#fab3a7;}.cls-14,.cls-6{fill:none;stroke-linecap:round;stroke-miterlimit:10;stroke-width:7px;}.cls-6{stroke:#e88032;}.cls-7{fill:#f58d89;}.cls-8{fill:#fff;}.cls-9{fill:#c5e8fc;}.cls-10{fill:#27273d;}.cls-11{fill:#3586cb;}.cls-12{fill:#bc6a4a;}.cls-13{fill:#d2efff;}.cls-14{stroke:#27273d;}</style></defs><title>Avatar Users2</title><g id="BULINE"><circle class="cls-1" cx="256" cy="256" r="256"/></g><g id="Icons"><path class="cls-2" d="M484.77,371A257.06,257.06,0,0,1,394,471.63c-.67.43-1.34.86-2,1.27s-1.27.81-1.91,1.2q-8,4.93-16.37,9.27a254.52,254.52,0,0,1-53.45,20.48c-4.25,1.09-8.54,2.09-12.87,3l-.42.08-1.15.23c-1.93.39-3.87.76-5.81,1.09h0c-1.2.21-2.41.41-3.61.6h0c-1.42.23-2.85.45-4.29.65l-3,.4c-1.18.16-2.37.3-3.56.44s-2.52.28-3.79.41c-1.76.18-3.53.34-5.3.48l-2.19.16c-1.51.1-3,.2-4.54.28l-2.28.11q-5.7.25-11.46.25a257.35,257.35,0,0,1-34.77-2.35q-6.79-.91-13.46-2.19t-13.35-2.92a254.14,254.14,0,0,1-51.65-18.89Q132,480.33,121.8,474c-.74-.45-1.47-.91-2.2-1.37q-3.66-2.31-7.23-4.74c-1.17-.79-2.33-1.6-3.49-2.41h0A257.14,257.14,0,0,1,27.23,371a257.12,257.12,0,0,1,99.5-106s0,0,0,0a250.42,250.42,0,0,1,27.54-14c.65-.29,1.3-.57,2-.84,1.46-.63,2.93-1.23,4.4-1.83Q169,245,177.6,242.23c1.41-.45,2.82-.89,4.24-1.32,1.07-.33,2.13-.64,3.21-.95l1.33-.38h0c1.9-.54,3.82-1,5.74-1.54q3.66-.94,7.36-1.77,2.81-.64,5.64-1.2,6.23-1.27,12.57-2.21c5.35-.8,10.76-1.45,16.22-1.9h0l1.73-.14q10.07-.8,20.34-.8,12,0,23.63,1.08l.41,0q7.33.67,14.53,1.77t14,2.52c1.09.22,2.17.45,3.25.7q4.28.94,8.49,2c1.31.33,2.6.68,3.9,1h0c1.34.36,2.68.74,4,1.13l2.87.86a254.26,254.26,0,0,1,26.11,9.6l1.95.85A254.25,254.25,0,0,1,385.27,265,257.18,257.18,0,0,1,484.77,371Z"/><path class="cls-3" d="M239.54,25.19h33.67A123.63,123.63,0,0,1,396.85,148.82v56.73a0,0,0,0,1,0,0H115.9a0,0,0,0,1,0,0V148.82A123.63,123.63,0,0,1,239.54,25.19Z"/><path class="cls-4" d="M394,471.63c-.67.43-1.34.86-2,1.27s-1.27.81-1.91,1.2q-8,4.93-16.37,9.27a254.52,254.52,0,0,1-53.45,20.48c-4.25,1.09-8.54,2.09-12.87,3l-.42.08-1.15.23c-1.93.39-3.87.76-5.81,1.09h0c-1.2.21-2.41.41-3.61.6h0c-1.42.23-2.85.45-4.29.65l-3,.4c-1.18.16-2.37.3-3.56.44s-2.52.28-3.79.41c-1.76.18-3.53.34-5.3.48l-2.19.16c-1.51.1-3,.2-4.54.28l-2.28.11q-5.7.25-11.46.25a257.35,257.35,0,0,1-34.77-2.35q-6.79-.91-13.46-2.19t-13.35-2.92a254.14,254.14,0,0,1-51.65-18.89Q132,480.33,121.8,474c-.74-.45-1.47-.91-2.2-1.37q-3.66-2.31-7.23-4.74l.58-.6c.33-.35.66-.69,1-1,.73-.74,1.46-1.48,2.21-2.21.59-.58,1.2-1.16,1.81-1.74l1.79-1.68c.63-.59,1.28-1.17,1.94-1.75s1.56-1.4,2.36-2.09l1.51-1.25c.54-.46,1.08-.9,1.63-1.34,2.12-1.73,4.29-3.41,6.53-5l1.62-1.16c1.12-.8,2.25-1.58,3.39-2.35.5-.34,1-.68,1.53-1,.73-.49,1.49-1,2.24-1.46s1.52-1,2.3-1.44c1.53-.94,3.11-1.87,4.7-2.78,1.88-1.09,3.79-2.14,5.76-3.17l.27-.14c1.82-.95,3.66-1.86,5.53-2.76l.77-.38c.37-.18.78-.34,1.25-.54h0l.37-.15c.36-.14.74-.29,1.14-.43s.66-.25,1-.36.89-.3,1.39-.45l1.84-.6,2.18-.65c2.12-.62,4.42-1.27,6.84-1.95h0c4.11-1.15,8.53-2.37,12.83-3.65,9-2.69,17.53-5.68,21.67-8.86h0a9.64,9.64,0,0,0,1.46-1.35c7.58-8.76,4.07-24.48,4.07-35.85,0-2.63,0-5-.09-7.07v0c-.58-23.62-3.28-16.35,16.67-23a34.59,34.59,0,0,1,5-.82h0c13.89-1.55,49.87-3.09,54.05.82,3.86,3.61,3.74,11.9,2.7,21.2v0c-1.39,12.46-4.4,26.7-1.62,33.83a30.17,30.17,0,0,0,7.36,11.28h0c8.19,7.77,20,9.37,33.23,15.36l.9.4,2.45,1.18a4.91,4.91,0,0,1,.46.22q5.77,2.79,11.15,5.81c.6.34,1.19.67,1.78,1,.78.44,1.57.9,2.35,1.37.94.57,1.88,1.13,2.79,1.7s1.95,1.22,2.91,1.84c.58.37,1.16.75,1.73,1.14l.55.37c.67.43,1.32.87,1.95,1.31,1.78,1.22,3.52,2.47,5.22,3.73.5.36,1,.73,1.5,1.13.66.5,1.34,1,2,1.54,1,.77,2,1.55,2.92,2.34s1.93,1.59,2.85,2.39,2.05,1.77,3.06,2.7q1.08,1,2.13,1.95c.21.18.4.36.61.57.78.73,1.55,1.46,2.3,2.21s1.54,1.52,2.3,2.3,1.51,1.56,2.25,2.34h0v0c.34.35.67.7,1,1.05C393,470.49,393.51,471.06,394,471.63Z"/><path class="cls-4" d="M386.46,159.78v88.73c0,66.21-52.68,87.41-91.08,121.08a59.15,59.15,0,0,1-78.76,0c-38.4-33.67-91.08-54.87-91.08-121.08V159.78c0-3,.1-6,.3-8.94C130,89.89,176.84,41.46,234.75,39c1.57-.08,3.16-.11,4.74-.11h33c61.51,0,111.63,51.73,113.85,116.43C386.44,156.78,386.46,158.27,386.46,159.78Z"/><path class="cls-5" d="M177.6,248.52V159.78C177.6,96.41,223.54,44.41,282,39.29c-3.14-.3-6.31-.43-9.52-.43h-33c-62.93,0-113.94,54.15-113.94,120.92v43.93a26.11,26.11,0,1,0,0,52.21h.26c3.78,60.43,53.88,81.31,90.82,113.67C235.33,386,260.84,389,282,378.5a60.78,60.78,0,0,1-13.35-8.92C230.28,335.93,177.6,314.72,177.6,248.52Z"/><circle class="cls-4" cx="386.46" cy="229.82" r="26.11"/><path class="cls-6" d="M160.63,187s32.91-18.34,61.33,0"/><path class="cls-6" d="M287.43,187s32.91-18.34,61.32,0"/><rect class="cls-5" x="237.04" y="255.92" width="37.93" height="14.38" rx="6.59"/><path class="cls-7" d="M126.29,219.43a10.39,10.39,0,1,0,0,20.77Z"/><path class="cls-5" d="M386.46,240.2a10.39,10.39,0,1,0,0-20.77Z"/><path class="cls-8" d="M225.73,296.84a2.57,2.57,0,0,0-2.56,2.77c1.4,17.18,15.56,33.1,32.84,33.1h0c17.27,0,31.44-15.92,32.84-33.1a2.57,2.57,0,0,0-2.56-2.77Z"/><path class="cls-9" d="M394,471.63c-.67.43-1.34.86-2,1.27s-1.27.81-1.91,1.2q-8,4.93-16.37,9.27a254.52,254.52,0,0,1-53.45,20.48c-4.25,1.09-8.54,2.09-12.87,3l-.42.08-1.15.23c-1.93.39-3.87.76-5.81,1.09h0c-1.2.21-2.41.41-3.61.6h0c-1.42.23-2.85.45-4.29.65l-3,.4c-1.18.16-2.37.3-3.56.44s-2.52.28-3.79.41c-1.76.18-3.53.34-5.3.48l-2.19.16c-1.51.1-3,.2-4.54.28l-2.28.11q-5.7.25-11.46.25a257.35,257.35,0,0,1-34.77-2.35q-6.79-.91-13.46-2.19t-13.35-2.92a254.14,254.14,0,0,1-51.65-18.89Q132,480.33,121.8,474c-.74-.45-1.47-.91-2.2-1.37q-3.66-2.31-7.23-4.74l.58-.6c.33-.35.66-.69,1-1,.73-.74,1.46-1.48,2.21-2.21.59-.58,1.2-1.16,1.81-1.74l1.79-1.68c.63-.59,1.28-1.17,1.94-1.75s1.56-1.39,2.36-2.05c.5-.45,1-.86,1.51-1.29s1.08-.9,1.63-1.34c2.12-1.73,4.29-3.41,6.53-5l1.62-1.16c1.12-.8,2.25-1.58,3.39-2.35.5-.34,1-.68,1.53-1,.73-.49,1.49-1,2.24-1.46s1.52-1,2.3-1.44c1.53-.94,3.11-1.87,4.7-2.78,1.88-1.08,3.81-2.13,5.76-3.17l.27-.14c1.82-.95,3.66-1.86,5.53-2.76l.77-.38c.37-.18.78-.34,1.25-.54h0l.37-.15c.36-.14.74-.29,1.14-.43s.66-.25,1-.36.89-.3,1.39-.45l1.84-.6,2.18-.65c2.12-.62,4.42-1.27,6.84-1.95h0c4.11-1.15,8.53-2.37,12.83-3.65l23.54,23.47,22.31,22.23,13.17-4.56,6-2.09.55-.2h0l.64-.22h0l.88.69,8.1,6.38,33.94-15.12h0l10.89-4.86,22.57-15.1h0l5.25-3.53a4.91,4.91,0,0,1,.46.22q5.77,2.79,11.15,5.81c.6.34,1.19.67,1.78,1,.78.44,1.57.9,2.35,1.37.94.57,1.88,1.13,2.79,1.7s1.95,1.22,2.91,1.84c.58.37,1.16.75,1.73,1.14l.55.37c.67.43,1.32.87,1.95,1.31,1.78,1.22,3.52,2.47,5.22,3.73.5.36,1,.73,1.5,1.13.66.5,1.34,1,2,1.54,1,.77,2,1.55,2.92,2.34s1.93,1.59,2.85,2.39,2.05,1.77,3.06,2.7q1.08,1,2.13,1.95c.21.18.4.36.61.57.78.73,1.55,1.46,2.3,2.21s1.54,1.52,2.3,2.3,1.51,1.56,2.25,2.34h0v0c.34.35.67.7,1,1.05C393,470.49,393.51,471.06,394,471.63Z"/><path class="cls-8" d="M256.5,462.4l-.16.22h0l-.3.41-25.44,34.08-9.36,12.54q-6.79-.91-13.46-2.19l-29.48-77.83a5.91,5.91,0,0,1-.4-2.21,6.1,6.1,0,0,1,3.47-5.44l21.95-10.45a6.08,6.08,0,0,1,6.91,1.17c.65.64,1.37,1.38,2.18,2.2C225.34,428.17,256.5,462.4,256.5,462.4Z"/><path class="cls-8" d="M335.3,429.27a1.65,1.65,0,0,1-.11.36l-1.79,4.75h0l-27.55,72.74c-1.93.39-3.87.76-5.81,1.09h0c-1.2.21-2.41.41-3.61.6h0c-1.42.23-2.85.45-4.29.65L282,496l-24.4-32.7-.66-.88h0c.78-.87,32.94-36.2,45.06-48.5l1.2-1.2a6.08,6.08,0,0,1,6.91-1.17L332.11,422A6.07,6.07,0,0,1,335.3,429.27Z"/><path class="cls-3" d="M237.88,273.25h36.27A27.88,27.88,0,0,1,302,301.13v0a0,0,0,0,1,0,0H210a0,0,0,0,1,0,0v0A27.88,27.88,0,0,1,237.88,273.25Z"/><path class="cls-3" d="M392.5,155.17c-33-6.22-58.65-23.58-68.13-49.82a65.63,65.63,0,0,1-3.46-29c-16.64,28.64-48.68,54.71-89.82,69.55-40.19,14.51-80.55,15.23-111.38,4.61C124.1,86.69,173.1,36,233.75,33.38c1.63-.09,3.3-.12,4.95-.12h34.59C337.7,33.26,390.19,87.43,392.5,155.17Z"/><path class="cls-10" d="M257,463.84,230.7,441.61a10.11,10.11,0,0,0-16.65,7.72v40A10.12,10.12,0,0,0,230.7,497L257,474.78,283.27,497a10.11,10.11,0,0,0,16.64-7.73v-40a10.11,10.11,0,0,0-16.64-7.72Z"/><path class="cls-11" d="M194.42,504.54a254.14,254.14,0,0,1-51.65-18.89Q132,480.33,121.8,474l2.26-17.17v0l1.07-8a6.64,6.64,0,0,1,3.1-4.82l23-14.35a6.7,6.7,0,0,1,9.83,3.31,6.48,6.48,0,0,1,.38,1.56C163.47,450.78,170.42,482.21,194.42,504.54Z"/><path class="cls-11" d="M373.73,483.37a254.52,254.52,0,0,1-53.45,20.48c21.85-20.8,29.25-49.15,31.76-65.94.18-1.21.33-2.34.47-3.42a6.7,6.7,0,0,1,10.21-4.87l23,14.35a6.67,6.67,0,0,1,3.1,4.82l2.65,20.06v0l.53,4c-.63.41-1.27.81-1.91,1.2Q382.1,479,373.73,483.37Z"/><path class="cls-12" d="M350.88,65.69c-1.93,10.78-7.12,25.73-21,34.31a2.79,2.79,0,0,0,.89,5.12c7.26,1.43,18.1,2.78,25,0a2.8,2.8,0,0,1,3.87,2.25c.43,4.16.57,10.76-1.79,16.39a2.79,2.79,0,0,0,4.25,3.27c6.86-4.9,14.23-15,12.89-35.44a2.8,2.8,0,0,0-4.53-2l-1.36,1.09a2.8,2.8,0,0,1-4.37-1.25l-8.54-24.21A2.79,2.79,0,0,0,350.88,65.69Z"/><path class="cls-13" d="M233.93,217.47V237a21.78,21.78,0,0,1-21.79,21.76H173.59A21.78,21.78,0,0,1,151.81,237V217.47a21.78,21.78,0,0,1,21.78-21.78h38.55a21.46,21.46,0,0,1,7,1.16A21.8,21.8,0,0,1,233.93,217.47Z"/><path class="cls-8" d="M198.46,195.69l-23.18,63.07h-1.69a21.67,21.67,0,0,1-14.67-5.68L180,195.69Z"/><path class="cls-8" d="M219.17,196.85l-22.75,61.91H184.51l23.19-63.07h4.44A21.46,21.46,0,0,1,219.17,196.85Z"/><path class="cls-13" d="M362.15,217.47V237a21.77,21.77,0,0,1-21.78,21.76H301.82A21.78,21.78,0,0,1,280,237V217.47a21.78,21.78,0,0,1,21.78-21.78h38.55a21.51,21.51,0,0,1,7,1.16A21.79,21.79,0,0,1,362.15,217.47Z"/><path class="cls-8" d="M326.69,195.69l-23.18,63.07h-1.69a21.65,21.65,0,0,1-14.67-5.68l21.1-57.39Z"/><path class="cls-8" d="M347.4,196.85l-22.75,61.91H312.74l23.19-63.07h4.44A21.51,21.51,0,0,1,347.4,196.85Z"/><rect class="cls-14" x="151.81" y="195.69" width="82.11" height="60.62" rx="12.91"/><rect class="cls-14" x="280.04" y="195.69" width="82.11" height="60.62" rx="12.91"/><line class="cls-14" x1="233.92" y1="208.6" x2="280.04" y2="208.6"/><ellipse class="cls-10" cx="190.86" cy="226.67" rx="10.91" ry="15.7"/><ellipse class="cls-10" cx="317.65" cy="226.67" rx="10.91" ry="15.7"/><path class="cls-14" d="M171,215.1s18.85-11.9,39.67,0"/><path class="cls-14" d="M297.82,215.1s18.84-11.9,39.67,0"/></g></svg>
