<svg xmlns="http://www.w3.org/2000/svg" viewBox="0 0 512 512"><defs><style>.cls-1{fill:#cd88f8;}.cls-2{fill:#af6fdd;}.cls-3{fill:#c97655;}.cls-4{fill:#3586cb;}.cls-5{fill:#27273d;}.cls-6{fill:#b2674d;}.cls-7{fill:none;stroke:#27273d;stroke-linecap:round;stroke-miterlimit:10;stroke-width:7px;}.cls-8{fill:#a05a47;}.cls-9{fill:#db1b1b;}.cls-10{fill:#d54545;}.cls-11{fill:#c11e1e;}.cls-12{fill:#32314b;}.cls-13{fill:#3e436d;}.cls-14{fill:#e88032;}.cls-15{fill:#fff;}</style></defs><title>Avatar Users2</title><g id="BULINE"><circle class="cls-1" cx="256" cy="256" r="256"/></g><g id="Icons"><path class="cls-2" d="M484.77,371a257.07,257.07,0,0,1-84.5,96.49c-.76.53-1.52,1-2.28,1.55q-3.9,2.59-7.89,5.06a254.31,254.31,0,0,1-75,31q-4.71,1.13-9.5,2.06l-1.51.29A256.69,256.69,0,0,1,119.6,472.67q-4.26-2.69-8.4-5.55c-1.31-.9-2.62-1.81-3.91-2.74A256.89,256.89,0,0,1,27.23,371a257.1,257.1,0,0,1,98.92-105.67q6.09-3.6,12.39-6.86l.53-.27q3.36-1.72,6.78-3.36c1-.5,2.08-1,3.13-1.47q3.06-1.41,6.15-2.75,2.12-.9,4.26-1.77,6.8-2.78,13.78-5.16,4.53-1.55,9.14-2.93h0c1-.3,2-.59,3-.87q6.16-1.77,12.46-3.23h0c1-.25,2.06-.49,3.1-.71q5.14-1.14,10.37-2.06c.83-.15,1.66-.29,2.5-.42a254.29,254.29,0,0,1,26.68-3h0q6.67-.41,13.45-.46H256q9,0,17.91.62a257.06,257.06,0,0,1,28.25,3.53q3.43.63,6.84,1.35c1.67.35,3.33.71,5,1.1,2.24.52,4.47,1.06,6.68,1.64q6,1.56,11.92,3.42,2.58.79,5.13,1.67c2.79.93,5.56,1.92,8.3,2.95,3.35,1.26,6.68,2.59,10,4,1.34.57,2.68,1.15,4,1.74s2.7,1.22,4,1.85,2.87,1.36,4.3,2.05q2.79,1.36,5.54,2.79,7,3.66,13.78,7.72A256.89,256.89,0,0,1,484.77,371Z"/><path class="cls-3" d="M400.27,467.49c-.76.53-1.52,1-2.28,1.55q-3.9,2.59-7.89,5.06a254.31,254.31,0,0,1-75,31q-4.71,1.13-9.5,2.06l-1.51.29A256.69,256.69,0,0,1,119.6,472.67q-4.26-2.69-8.4-5.55c-1.31-.9-2.62-1.81-3.91-2.74C121.75,441.2,142.06,421.76,171,408a30.32,30.32,0,0,1,2.91-1.16c.83-.3,1.74-.61,2.72-.91,3-1,6.75-2,10.73-3.08,3.36-.95,6.92-1.93,10.37-3h0c3.52-1.05,6.94-2.15,10-3.29.84-.32,1.67-.64,2.47-1,3.79-1.54,6.77-3.19,8.26-4.89,3.15-3.66,4.19-8.64,4.39-14,.25-6.31-.7-13.1-.7-18.73,0-1.35,0-2.62,0-3.8,0-.15,0-.29,0-.43v0c-.38-24.19-3.62-16.92,15.16-23.22a12.77,12.77,0,0,1,2.13-.42h0c10.11-1.51,47.66-3.4,51.75.42,3.76,3.5,3.37,11.85,2.25,21l-.06.53c-1.06,8.58-2.71,17.79-2.14,24.26a16.11,16.11,0,0,0,.92,4.41,26.62,26.62,0,0,0,12.89,14.7l.92.48c.22.11.44.23.67.33a79.2,79.2,0,0,0,8.25,3.34h0c3.18,1.14,6.57,2.29,10.09,3.68,1.66.65,3.32,1.36,5,2.15l.6.28q3.78,1.77,7.35,3.66a162.9,162.9,0,0,1,30.12,20.08A151.05,151.05,0,0,1,400.27,467.49Z"/><path class="cls-4" d="M400.27,467.49c-.76.53-1.52,1-2.28,1.55q-3.9,2.59-7.89,5.06a254.31,254.31,0,0,1-75,31q-4.71,1.13-9.5,2.06l-1.51.29A256.69,256.69,0,0,1,119.6,472.67q-4.26-2.69-8.4-5.55c-1.31-.9-2.62-1.81-3.91-2.74C121.75,441.2,142.06,421.76,171,408a30.32,30.32,0,0,1,2.91-1.16c.83-.3,1.74-.61,2.72-.91,3-1,6.75-2,10.73-3.08,3.36-.95,6.92-1.93,10.37-3h0c3.52-1.05,6.94-2.15,10-3.29.84-.32,1.67-.64,2.47-1l16.5,4.82L249,475.32a7.28,7.28,0,0,0,13.95,0l22.42-74.08,19.68-5.89.92.48c.22.11.44.23.67.33a79.2,79.2,0,0,0,8.25,3.34h0c3.18,1.14,6.57,2.29,10.09,3.68,1.66.65,3.32,1.36,5,2.15l.6.28q3.78,1.77,7.35,3.66a162.9,162.9,0,0,1,30.12,20.08A151.05,151.05,0,0,1,400.27,467.49Z"/><path class="cls-5" d="M211.16,315.31l-3.47,0v0l-90.93-188.6s-34.1,18-10.87,74.71c0,0,7.5,13.68-1.5,42.33a90.2,90.2,0,0,0-1.57,48.5c4.12,16.91,13.59,28,27.88,34.72a43.54,43.54,0,0,0,4.29,10.4s8.89,14.22-6,34.66c0,0,18.65-13.72,18.83-36a33.28,33.28,0,0,1-1-3.75c11.44,2.49,24.87,3.27,40.14,2.71a45.2,45.2,0,0,0,10,15.5s12.25,11.44,3.16,35c0,0,14.49-18.06,8.92-39.62C209.09,345.9,195.58,325.75,211.16,315.31Z"/><path class="cls-5" d="M388.74,373.71C384.91,355.93,373,353.88,373,353.88a29.44,29.44,0,0,1-5.89-1.9A313.67,313.67,0,0,1,360,384.4s-4.68,6.81,0,18.44a63.61,63.61,0,0,1,8.05,26.55,43.51,43.51,0,0,1-11.5,32.94,22.28,22.28,0,0,0-5,20.73,42.87,42.87,0,0,1,1.28,10,254.64,254.64,0,0,1-37.83,12.12q-4.71,1.13-9.5,2.06a160.46,160.46,0,0,1,4.27-17.47,19.22,19.22,0,0,0-3.08-17.23,38.78,38.78,0,0,1-6.06-11.75,47.2,47.2,0,0,1-2-17.06h0c.45-8.25,2.77-18.11,8.16-29.76a19.35,19.35,0,0,0,1.51-11.49h0a19.09,19.09,0,0,0-2.38-6.55,10,10,0,0,0-.6-1,22.3,22.3,0,0,1-3-19.15c1.25-4.2,3.81-8.79,8.26-13.7a28.63,28.63,0,0,0,6.4-27.34h0c-.09-.32-.2-.64-.31-1,0-.11-.06-.21-.1-.33l0-.08L313,323.08l24.13-24.14L360,276s2.33,2.79,4.72,9.33l.21.58a90.34,90.34,0,0,1,4.55,23.32,156.3,156.3,0,0,1,0,21.63c-.16,2.55-.39,5.21-.67,8,3.45,4.92,9.59,7.51,9.59,7.51C390.33,357.12,388.74,373.71,388.74,373.71Z"/><path class="cls-5" d="M306.57,436.48s-12.49,7.81-15.25,22.32c0,0-1.84,11.92-19.55,16.08,0,0,16.62,1.29,27.18-10.77,0,0,6.5-16.2,19-11.18Z"/><path class="cls-5" d="M393.94,126.71s34.11,18,10.88,74.71c0,0-7.51,13.68,1.5,42.33a90.4,90.4,0,0,1,1.57,48.5c-8.84,36.21-42.17,45.94-94.93,42.17L303,315.31Z"/><path class="cls-3" d="M375.16,161.38v80.9c0,60.35-48,79.67-83.05,110.37a53.88,53.88,0,0,1-71.78,0c-35-30.7-83.05-50-83.05-110.37v-80.9c0-.27,0-.55,0-.82.28-42.22,22.94-78.79,56-97,1.07-.6,29.16-11.66,43.55-12.28,1.42-.08,2.86-.1,4.3-.1h30.12a99.82,99.82,0,0,1,66,25.15,101.72,101.72,0,0,1,8,7.73A113,113,0,0,1,375,155.22h0C375.11,157.27,375.16,159.31,375.16,161.38Z"/><path class="cls-6" d="M185.28,242.28V161.37c0-57.76,41.87-105.17,95.2-109.84-2.86-.27-5.75-.39-8.68-.39H241.69c-57.37,0-103.87,49.36-103.87,110.23v40a23.81,23.81,0,1,0,0,47.61l.23,0c3.45,55.09,49.13,74.13,82.8,103.63a53.7,53.7,0,0,0,59.63,8.13,55.49,55.49,0,0,1-12.17-8.13C233.3,322,185.28,302.63,185.28,242.28Z"/><circle class="cls-3" cx="375.68" cy="225.22" r="23.8"/><path class="cls-7" d="M169.8,192.53s30-16.71,55.92,0"/><path class="cls-7" d="M285.4,192.53s30-16.71,55.91,0"/><ellipse class="cls-5" cx="312.96" cy="222.35" rx="9.94" ry="14.31"/><rect class="cls-6" x="238.93" y="249.03" width="34.58" height="13.11" rx="6.01"/><path class="cls-7" d="M294.87,211.81s17.18-10.85,36.17,0"/><ellipse class="cls-5" cx="197.76" cy="222.35" rx="9.94" ry="14.31"/><path class="cls-7" d="M179.68,211.81s17.18-10.85,36.16,0"/><path class="cls-8" d="M138.5,215.76a9.47,9.47,0,1,0,0,18.93Z"/><path class="cls-6" d="M375.69,234.69a9.47,9.47,0,0,0,0-18.93Z"/><circle class="cls-9" cx="256.22" cy="171.14" r="9.33"/><path class="cls-10" d="M256.22,286.68c-18.08-2.94-33.83,8.81-33.83,8.81,0,9.34,15.15,18.41,33.83,18.41h0c18.68,0,33.83-9.07,33.83-18.41C290.05,295.49,274.3,283.74,256.22,286.68Z"/><path class="cls-11" d="M280.29,296.29H239.35a6.13,6.13,0,0,1,2.85-3.5A51.11,51.11,0,0,1,264,286.26a36.31,36.31,0,0,0-7.73.42c-18.08-2.93-33.84,8.81-33.84,8.81,0,9.33,15.15,18.41,33.84,18.41a57.28,57.28,0,0,0,7.75-.53c-10.87-1.5-19.72-6-23.75-11.47a6,6,0,0,1-.9-1.85h41a1.88,1.88,0,1,0,0-3.76Z"/><path class="cls-12" d="M361.8,70.19A90.32,90.32,0,0,1,331.49,47c-14.4-16.53-41.75-35.21-75.74-9-34-26.25-59.34-7.57-73.74,9A90.32,90.32,0,0,1,151.7,70.19c-46.34,21.18-33.21,78.07-33.21,78.07,8.15,24.21,2.72,36.84,2.72,36.84-5.06,30.87-2.28,46.75,1.94,54.92a35.52,35.52,0,0,1,2.36,27.52c-14.69,44.4,13,66.2,13,66.2-17.91-36-6-60.84,3.15-72.83,9.42-12.3,15.09-27.14,15.28-42.63a75.32,75.32,0,0,0-2.47-20.36,17.47,17.47,0,0,1,6.21-18.12c13.27-10.61,19-32.43,19-32.43,20.47-54,77.07-52.65,77.07-52.65h0s56.6-1.33,77.07,52.65c0,0,5.74,21.82,19,32.43A17.47,17.47,0,0,1,359,197.92a75.32,75.32,0,0,0-2.47,20.36c.19,15.49,5.86,30.33,15.28,42.63,9.17,12,21.06,36.79,3.15,72.83,0,0,27.68-21.8,13-66.2A35.52,35.52,0,0,1,390.35,240c4.22-8.17,7-24.05,1.94-54.92,0,0-5.43-12.63,2.72-36.84C395,148.26,408.14,91.37,361.8,70.19Z"/><path class="cls-13" d="M319.45,59.33c1,11.81-.16,28.91-12.21,41.8a3,3,0,0,0,2.39,5.09c8-.56,19.71-2.22,26.17-7.06a3,3,0,0,1,4.68,1.26c1.63,4.22,3.64,11.08,2.78,17.63a3,3,0,0,0,5.36,2.22c5.78-7.06,10.64-19.66,3.43-40.69a3,3,0,0,0-5.29-.79l-1.11,1.52a3,3,0,0,1-4.92-.08L324.94,57.36A3,3,0,0,0,319.45,59.33Z"/><path class="cls-14" d="M277,394.46v5.4l-20.7,73.55-20.71-73.55v-5.4a18.72,18.72,0,0,0-18.72-18.73H204a6.21,6.21,0,0,0-6.2,6.2v17.93l24,9.41,29.28,76.65a5.63,5.63,0,0,0,10.52,0l29.28-76.65,24-9.41V381.93a6.2,6.2,0,0,0-6.2-6.2H295.76A18.72,18.72,0,0,0,277,394.46Z"/><ellipse class="cls-15" cx="187.82" cy="450.05" rx="2.91" ry="12.07"/><ellipse class="cls-15" cx="187.82" cy="481.77" rx="2.91" ry="12.07"/><ellipse class="cls-15" cx="203.68" cy="465.91" rx="12.07" ry="2.91"/><ellipse class="cls-15" cx="171.95" cy="465.91" rx="12.07" ry="2.91"/></g></svg>
