<svg xmlns="http://www.w3.org/2000/svg" viewBox="0 0 2340 1560"><defs><style>.cls-1{fill:#ffda65;}.cls-2{fill:#ffc86b;}.cls-3{fill:#04b8bc;}.cls-4{fill:#f73e48;}.cls-5{fill:#02c17c;}.cls-6{fill:#f1f2f2;}.cls-7{fill:#243047;}.cls-8{fill:#dbdcdd;}.cls-9{fill:#c7e9f6;}.cls-10{fill:#e6e7e8;}.cls-11{fill:#a6a8ac;}.cls-12{fill:#08d8d5;}.cls-13{fill:#ff494b;}.cls-14{fill:#fff;}.cls-15{fill:#aeddf5;}.cls-16{fill:#b3d8e8;}.cls-17{fill:#ffda8e;}.cls-18{fill:#17e59a;}.cls-19{fill:#0bd390;}.cls-20{fill:#385994;}.cls-21{fill:#213d70;}.cls-22{fill:#d1d3d4;}.cls-23{fill:#436ab0;}.cls-24{fill:#b57451;}.cls-25{fill:#3b3b3b;}.cls-26{fill:#ad694b;}.cls-27{fill:#3f1c0d;}.cls-28{fill:#bd4647;}.cls-29{fill:#f9cc4e;}.cls-30{fill:#4a4336;}</style></defs><g id="background"><rect class="cls-1" width="2340" height="1560"/></g><g id="background_elements"><path class="cls-2" d="M1357.56,612.43a15.1,15.1,0,1,0-15.1,15.1A15.1,15.1,0,0,0,1357.56,612.43Z" transform="translate(0 0)"/><path class="cls-2" d="M882.67,106.47a8,8,0,1,0-8,8A8,8,0,0,0,882.67,106.47Z" transform="translate(0 0)"/><path class="cls-2" d="M1646.5,876.89A11.13,11.13,0,1,0,1635.37,888,11.13,11.13,0,0,0,1646.5,876.89Z" transform="translate(0 0)"/><rect class="cls-2" x="453.96" y="738.2" width="51.52" height="23.46" rx="6.82"/><rect class="cls-2" x="868.66" y="878.81" width="48.41" height="18.44" rx="5.36"/><path class="cls-3" d="M2086.16,946.43a11.76,11.76,0,1,0-11.76,11.77A11.76,11.76,0,0,0,2086.16,946.43Z" transform="translate(0 0)"/><path class="cls-3" d="M334,531.78a15.1,15.1,0,1,0-15.09,15.1A15.09,15.09,0,0,0,334,531.78Z" transform="translate(0 0)"/><path class="cls-3" d="M761.37,550.86a12.48,12.48,0,1,0,12.47-12.48A12.48,12.48,0,0,0,761.37,550.86Z" transform="translate(0 0)"/><path class="cls-3" d="M1378.56,296.36A17.64,17.64,0,1,0,1360.93,314,17.63,17.63,0,0,0,1378.56,296.36Z" transform="translate(0 0)"/><rect class="cls-3" x="910.05" y="1089.51" width="68.55" height="17.55" rx="5.1"/><path class="cls-4" d="M1747.1,810a6.87,6.87,0,1,0-6.86,6.87A6.87,6.87,0,0,0,1747.1,810Z" transform="translate(0 0)"/><path class="cls-4" d="M721.93,552.78a4,4,0,1,0-4,4A4,4,0,0,0,721.93,552.78Z" transform="translate(0 0)"/><path class="cls-4" d="M1437,945.71a4,4,0,1,0-4,4A4,4,0,0,0,1437,945.71Z" transform="translate(0 0)"/><circle class="cls-4" cx="1188.29" cy="237.21" r="7.59" transform="translate(929 1420.88) rotate(-88.93)"/><path class="cls-4" d="M1343.32,399.61a5.89,5.89,0,1,0-5.89,5.88A5.9,5.9,0,0,0,1343.32,399.61Z" transform="translate(0 0)"/><path class="cls-4" d="M1537.65,1021.33a11.14,11.14,0,1,0-11.13,11.14A11.13,11.13,0,0,0,1537.65,1021.33Z" transform="translate(0 0)"/><polygon class="cls-4" points="764 476.65 774.2 470.96 784.67 476.13 782.41 464.67 790.57 456.31 778.97 454.92 773.54 444.57 768.63 455.18 757.12 457.14 765.68 465.09 764 476.65"/><rect class="cls-4" x="1331.47" y="141.51" width="72.48" height="18.77" rx="5.45"/><path class="cls-5" d="M938.05,384.37a3.63,3.63,0,1,0-3.63,3.64A3.63,3.63,0,0,0,938.05,384.37Z" transform="translate(0 0)"/><path class="cls-5" d="M1469.22,520.19a8,8,0,1,0-8,8A8,8,0,0,0,1469.22,520.19Z" transform="translate(0 0)"/><polygon class="cls-5" points="227.14 1028.85 228.57 1018.72 237.72 1014.15 228.53 1009.66 227.01 999.54 219.91 1006.9 209.81 1005.21 214.61 1014.25 209.89 1023.33 219.97 1021.55 227.14 1028.85"/><polygon class="cls-5" points="2082.83 831.38 2091.49 824.13 2102.38 827.14 2098.15 816.67 2104.39 807.24 2093.12 808.02 2086.09 799.18 2083.34 810.14 2072.76 814.1 2082.34 820.09 2082.83 831.38"/><rect class="cls-5" x="1733.37" y="747.66" width="56.93" height="14.38" rx="4.18"/><rect class="cls-5" x="680.94" y="497.53" width="53.71" height="18.77" rx="5.45"/><path class="cls-2" d="M1595.18,1065.24a15.1,15.1,0,1,0,15.09-15.1A15.1,15.1,0,0,0,1595.18,1065.24Z" transform="translate(0 0)"/><path class="cls-2" d="M1618.85,999.54a8,8,0,1,0,8-8A8,8,0,0,0,1618.85,999.54Z" transform="translate(0 0)"/><path class="cls-2" d="M1487.09,50.59a11.13,11.13,0,1,0,11.13-11.14A11.13,11.13,0,0,0,1487.09,50.59Z" transform="translate(0 0)"/><rect class="cls-2" x="1733.6" y="372.38" width="51.52" height="23.46" rx="6.82"/><rect class="cls-2" x="1903.87" y="740.71" width="48.41" height="18.44" rx="5.36"/><path class="cls-3" d="M1616.26,304.4A11.77,11.77,0,1,0,1628,292.64,11.77,11.77,0,0,0,1616.26,304.4Z" transform="translate(0 0)"/><path class="cls-3" d="M1562.58,759.13a15.1,15.1,0,1,0,15.09-15.1A15.09,15.09,0,0,0,1562.58,759.13Z" transform="translate(0 0)"/><path class="cls-3" d="M1083.46,289.27A12.48,12.48,0,1,0,1071,301.75,12.48,12.48,0,0,0,1083.46,289.27Z" transform="translate(0 0)"/><path class="cls-3" d="M1460.81,431.26a17.64,17.64,0,1,0,17.64-17.64A17.66,17.66,0,0,0,1460.81,431.26Z" transform="translate(0 0)"/><rect class="cls-3" x="1696.82" y="1173.74" width="68.55" height="17.55" rx="5.1"/><path class="cls-4" d="M1921.07,304.4a6.87,6.87,0,1,0,6.86-6.87A6.86,6.86,0,0,0,1921.07,304.4Z" transform="translate(0 0)"/><path class="cls-4" d="M1927.27,621.34a4,4,0,1,0,4-4A4,4,0,0,0,1927.27,621.34Z" transform="translate(0 0)"/><path class="cls-4" d="M1917.52,496.2a13.44,13.44,0,1,0,1.52-18.94A13.44,13.44,0,0,0,1917.52,496.2Z" transform="translate(0 0)"/><path class="cls-4" d="M2088.58,1028.74a7.59,7.59,0,1,0,7.58-7.59A7.59,7.59,0,0,0,2088.58,1028.74Z" transform="translate(0 0)"/><path class="cls-4" d="M949.34,146.29a5.89,5.89,0,1,0,5.88-5.88A5.89,5.89,0,0,0,949.34,146.29Z" transform="translate(0 0)"/><path class="cls-4" d="M1589.75,560.67a11.14,11.14,0,1,0,11.13-11.14A11.14,11.14,0,0,0,1589.75,560.67Z" transform="translate(0 0)"/><polygon class="cls-4" points="2038.09 1174.06 2027.89 1179.75 2017.42 1174.57 2019.68 1186.03 2011.52 1194.39 2023.11 1195.79 2028.54 1206.13 2033.45 1195.53 2044.97 1193.56 2036.4 1185.62 2038.09 1174.06"/><polygon class="cls-4" points="2047.45 733.89 2037.25 739.58 2026.78 734.4 2029.04 745.87 2020.88 754.23 2032.48 755.62 2037.91 765.96 2042.82 755.36 2054.33 753.4 2045.77 745.45 2047.45 733.89"/><rect class="cls-4" x="1144.77" y="344.53" width="72.48" height="18.77" rx="5.45"/><path class="cls-5" d="M1954.64,1205.23a3.63,3.63,0,1,0,3.63-3.63A3.63,3.63,0,0,0,1954.64,1205.23Z" transform="translate(0 0)"/><path class="cls-5" d="M2129.12,736.46a3.63,3.63,0,1,0-5.13,0A3.63,3.63,0,0,0,2129.12,736.46Z" transform="translate(0 0)"/><path class="cls-5" d="M1627.36,721.39a8,8,0,1,0,8-8A8,8,0,0,0,1627.36,721.39Z" transform="translate(0 0)"/><polygon class="cls-5" points="1880.77 339.26 1879.34 349.39 1870.18 353.96 1879.38 358.45 1880.89 368.56 1888.01 361.21 1898.1 362.89 1893.3 353.86 1898.02 344.78 1887.94 346.55 1880.77 339.26"/><polygon class="cls-5" points="1818.69 1190.1 1817.26 1200.23 1808.11 1204.8 1817.3 1209.28 1818.82 1219.4 1825.93 1212.04 1836.02 1213.73 1831.22 1204.69 1835.94 1195.62 1825.86 1197.39 1818.69 1190.1"/><polygon class="cls-5" points="1074.88 164.84 1066.22 172.1 1055.33 169.08 1059.56 179.56 1053.32 188.98 1064.6 188.2 1071.63 197.04 1074.37 186.08 1084.95 182.12 1075.38 176.13 1074.88 164.84"/><rect class="cls-5" x="1553.13" y="453.42" width="56.93" height="14.38" rx="4.18"/><rect class="cls-5" x="1948.95" y="374.73" width="53.71" height="18.77" rx="5.45"/><path class="cls-2" d="M341.47,866.8a15.1,15.1,0,1,1,15.09,15.1A15.09,15.09,0,0,1,341.47,866.8Z" transform="translate(0 0)"/><path class="cls-2" d="M1013.39,399.61a8,8,0,1,1,8,8A8,8,0,0,1,1013.39,399.61Z" transform="translate(0 0)"/><path class="cls-2" d="M646.76,1096.5a11.13,11.13,0,1,1,11.13,11.13A11.13,11.13,0,0,1,646.76,1096.5Z" transform="translate(0 0)"/><rect class="cls-2" x="271.34" y="1078.94" width="51.52" height="23.46" rx="6.82"/><rect class="cls-2" x="735.08" y="1041.45" width="48.41" height="18.44" rx="5.36"/><path class="cls-3" d="M436.28,1204.74A11.77,11.77,0,1,1,448,1216.51,11.76,11.76,0,0,1,436.28,1204.74Z" transform="translate(0 0)"/><path class="cls-3" d="M675.59,1021.33a15.1,15.1,0,1,1,15.1,15.1A15.11,15.11,0,0,1,675.59,1021.33Z" transform="translate(0 0)"/><path class="cls-3" d="M579.36,353.49A12.48,12.48,0,1,1,566.88,341,12.49,12.49,0,0,1,579.36,353.49Z" transform="translate(0 0)"/><path class="cls-3" d="M462.2,368.56a17.64,17.64,0,1,1,17.63,17.64A17.63,17.63,0,0,1,462.2,368.56Z" transform="translate(0 0)"/><rect class="cls-3" x="720.6" y="261.3" width="68.55" height="17.55" rx="5.1"/><path class="cls-4" d="M291.89,1182.06a6.87,6.87,0,1,1,6.86,6.86A6.86,6.86,0,0,1,291.89,1182.06Z" transform="translate(0 0)"/><path class="cls-4" d="M314.85,608.33a4,4,0,1,1,4,4A4,4,0,0,1,314.85,608.33Z" transform="translate(0 0)"/><path class="cls-4" d="M269.1,945.71a4,4,0,1,1,4,4A4,4,0,0,1,269.1,945.71Z" transform="translate(0 0)"/><path class="cls-4" d="M666.12,368.56a7.59,7.59,0,1,1,7.58,7.6A7.59,7.59,0,0,1,666.12,368.56Z" transform="translate(0 0)"/><path class="cls-4" d="M362.79,399.61a5.89,5.89,0,1,1,5.88,5.88A5.89,5.89,0,0,1,362.79,399.61Z" transform="translate(0 0)"/><path class="cls-4" d="M345.58,1021.23a11.14,11.14,0,1,1,11.13,11.13A11.14,11.14,0,0,1,345.58,1021.23Z" transform="translate(0 0)"/><polygon class="cls-4" points="588.82 810.2 578.62 804.5 568.15 809.68 570.41 798.22 562.25 789.86 573.85 788.47 579.28 778.12 584.18 788.73 595.7 790.69 587.14 798.64 588.82 810.2"/><rect class="cls-4" x="1599.13" y="117.2" width="72.48" height="18.77" rx="5.45"/><path class="cls-5" d="M768.06,384.37a3.63,3.63,0,1,1,3.63,3.64A3.62,3.62,0,0,1,768.06,384.37Z" transform="translate(0 0)"/><path class="cls-5" d="M290.75,485.78a8,8,0,1,1,8,8A8,8,0,0,1,290.75,485.78Z" transform="translate(0 0)"/><polygon class="cls-5" points="575.6 1182.06 574.17 1171.93 565.02 1167.36 574.21 1162.87 575.73 1152.75 582.84 1160.11 592.93 1158.42 588.13 1167.46 592.85 1176.54 582.77 1174.76 575.6 1182.06"/><polygon class="cls-5" points="679.45 886.75 670.79 879.49 659.9 882.51 664.13 872.03 657.89 862.61 669.16 863.39 676.2 854.55 678.94 865.51 689.52 869.47 679.94 875.46 679.45 886.75"/><rect class="cls-5" x="784.48" y="186.78" width="53.71" height="18.77" rx="5.45"/></g><g id="video_file" data-name="video file"><rect class="cls-6" x="1685.83" y="839.49" width="351.78" height="298.72" rx="8.79"/><path class="cls-7" d="M2028.82,1141.09H1694.61a11.67,11.67,0,0,1-11.66-11.66V848.28a11.68,11.68,0,0,1,11.66-11.67h334.21a11.68,11.68,0,0,1,11.66,11.67v281.15A11.67,11.67,0,0,1,2028.82,1141.09ZM1694.61,842.37a5.91,5.91,0,0,0-5.9,5.91v281.15a5.91,5.91,0,0,0,5.9,5.9h334.21a5.91,5.91,0,0,0,5.9-5.9V848.28a5.91,5.91,0,0,0-5.9-5.91Z" transform="translate(0 0)"/><path class="cls-8" d="M1748.82,1135.33h280a5.91,5.91,0,0,0,5.9-5.9V848.28a5.91,5.91,0,0,0-5.9-5.91h-57.44Z" transform="translate(0 0)"/><path class="cls-9" d="M2028.82,841.5H1694.61a8.8,8.8,0,0,0-8.78,8.78v18.35h351.78V850.28A8.81,8.81,0,0,0,2028.82,841.5Z" transform="translate(0 0)"/><path class="cls-7" d="M2037.6,871.51H1685.83a2.88,2.88,0,0,1-2.88-2.88V850.28a11.67,11.67,0,0,1,11.66-11.66h334.21a11.67,11.67,0,0,1,11.66,11.66v18.35A2.88,2.88,0,0,1,2037.6,871.51Zm-348.89-5.76h346V850.28a5.91,5.91,0,0,0-5.9-5.9H1694.61a5.91,5.91,0,0,0-5.9,5.9Z" transform="translate(0 0)"/><path class="cls-2" d="M1988.1,855.06a6.15,6.15,0,1,1-6.15-6.15A6.15,6.15,0,0,1,1988.1,855.06Zm13.72-6.15a6.15,6.15,0,1,0,6.15,6.15A6.15,6.15,0,0,0,2001.82,848.91Zm19.87,0a6.15,6.15,0,1,0,6.15,6.15A6.15,6.15,0,0,0,2021.69,848.91Z" transform="translate(0 0)"/><path class="cls-7" d="M2021.69,864.09a9,9,0,1,1,9-9A9,9,0,0,1,2021.69,864.09Zm0-12.3a3.27,3.27,0,1,0,3.27,3.27A3.27,3.27,0,0,0,2021.69,851.79Zm-19.87,12.3a9,9,0,1,1,9-9A9,9,0,0,1,2001.82,864.09Zm0-12.3a3.27,3.27,0,1,0,3.27,3.27A3.27,3.27,0,0,0,2001.82,851.79ZM1982,864.09a9,9,0,1,1,9-9A9,9,0,0,1,1982,864.09Zm0-12.3a3.27,3.27,0,1,0,3.27,3.27A3.28,3.28,0,0,0,1982,851.79Z" transform="translate(0 0)"/><path class="cls-10" d="M2024.14,1102.38H1700.75a4.11,4.11,0,0,1-4.1-4.1h0a4.12,4.12,0,0,1,4.1-4.1h323.39a4.11,4.11,0,0,1,4.1,4.1h0A4.11,4.11,0,0,1,2024.14,1102.38Z" transform="translate(0 0)"/><path class="cls-7" d="M2024.14,1105.26H1700.75a7,7,0,0,1,0-14h323.39a7,7,0,0,1,0,14Zm-323.39-8.2a1.22,1.22,0,1,0,0,2.44h323.39a1.22,1.22,0,0,0,0-2.44Z" transform="translate(0 0)"/><path class="cls-11" d="M1935.11,1102.38H1700.75a4.11,4.11,0,0,1-4.1-4.1h0a4.12,4.12,0,0,1,4.1-4.1h234.36a4.12,4.12,0,0,1,4.1,4.1h0A4.11,4.11,0,0,1,1935.11,1102.38Z" transform="translate(0 0)"/><path class="cls-7" d="M1935.11,1105.26H1700.75a7,7,0,0,1,0-14h234.36a7,7,0,0,1,0,14Zm-234.36-8.2a1.22,1.22,0,1,0,0,2.44h234.36a1.22,1.22,0,0,0,0-2.44Z" transform="translate(0 0)"/><path class="cls-3" d="M1818,1102.38H1700.75a4.11,4.11,0,0,1-4.1-4.1h0a4.12,4.12,0,0,1,4.1-4.1H1818a4.11,4.11,0,0,1,4.1,4.1h0A4.11,4.11,0,0,1,1818,1102.38Z" transform="translate(0 0)"/><path class="cls-7" d="M1818,1105.26H1700.75a7,7,0,0,1,0-14H1818a7,7,0,0,1,0,14Zm-117.21-8.2a1.22,1.22,0,1,0,0,2.44H1818a1.22,1.22,0,1,0,0-2.44Z" transform="translate(0 0)"/><circle class="cls-12" cx="1817.31" cy="1098.28" r="7.61" transform="translate(572.87 2818.81) rotate(-85.27)"/><path class="cls-7" d="M1817.31,1108.78a10.5,10.5,0,1,1,10.49-10.5A10.51,10.51,0,0,1,1817.31,1108.78Zm0-15.23a4.74,4.74,0,1,0,4.73,4.73A4.74,4.74,0,0,0,1817.31,1093.55Z" transform="translate(0 0)"/><circle class="cls-13" cx="1860.93" cy="980.48" r="73.23" transform="translate(-133.03 310.75) rotate(-9.22)"/><path class="cls-7" d="M1860.93,904.36a76.12,76.12,0,1,0,76.12,76.12A76.2,76.2,0,0,0,1860.93,904.36Zm0,146.47a70.36,70.36,0,1,1,70.36-70.35A70.35,70.35,0,0,1,1860.93,1050.83Z" transform="translate(0 0)"/><path class="cls-4" d="M1860.93,1050.83a70.34,70.34,0,0,0,48-121.81l-84.69,111.47A70.12,70.12,0,0,0,1860.93,1050.83Z" transform="translate(0 0)"/><polygon class="cls-14" points="1834.67 946.43 1902.43 980.31 1834.67 1014.19 1834.67 946.43"/><path class="cls-7" d="M1834.68,1017.07a2.89,2.89,0,0,1-2.89-2.88V946.43a2.88,2.88,0,0,1,4.17-2.57l67.76,33.88a2.87,2.87,0,0,1,0,5.15L1836,1016.77A2.86,2.86,0,0,1,1834.68,1017.07Zm2.88-66v58.44L1896,980.31Z" transform="translate(0 0)"/></g><g id="text_file" data-name="text file"><g id="map"><path class="cls-9" d="M1691.11,698.36A13.14,13.14,0,0,1,1678,685.24l.3-251.62a13.11,13.11,0,0,1,13.1-13.09l182.51.29A13.11,13.11,0,0,1,1887,433.94l-.21,182.61a2.9,2.9,0,0,1-.85,2l-79.5,79.14a2.87,2.87,0,0,1-2,.84Z" transform="translate(0 0)"/><path class="cls-7" d="M1885.22,422.64a15.84,15.84,0,0,0-11.29-4.7l-182.49-.29h0a16,16,0,0,0-16,16l-.3,251.63a16,16,0,0,0,16,16l113.31.21h0a5.76,5.76,0,0,0,4.07-1.68L1888,620.63a5.74,5.74,0,0,0,1.7-4.08l.21-182.61A15.82,15.82,0,0,0,1885.22,422.64Zm-1.29,193.91-79.5,79.14-113.31-.21a10.26,10.26,0,0,1-10.22-10.24l.3-251.62a10.24,10.24,0,0,1,10.22-10.21h0l182.5.29a10.25,10.25,0,0,1,10.21,10.24Z" transform="translate(0 0)"/><path class="cls-15" d="M1883.93,616.55l.21-182.61a10.22,10.22,0,0,0-2.5-6.69L1681.17,687.52a10.26,10.26,0,0,0,9.95,8l113.31.21Z" transform="translate(0 0)"/><path class="cls-7" d="M1715.35,505.15l147,.13h0a2.88,2.88,0,0,0,0-5.76l-147-.13h0a2.88,2.88,0,1,0,0,5.76Z" transform="translate(0 0)"/><path class="cls-7" d="M1862.37,530.24l-147-.12h0a2.88,2.88,0,1,0,0,5.76l147,.12h0a2.88,2.88,0,1,0,0-5.76Z" transform="translate(0 0)"/><path class="cls-7" d="M1862.35,561l-147-.13h0a2.88,2.88,0,1,0,0,5.76l147,.13h0a2.88,2.88,0,1,0,0-5.76Z" transform="translate(0 0)"/><path class="cls-7" d="M1862.34,591.69l-147-.13h0a2.88,2.88,0,1,0,0,5.76l147,.13h0a2.88,2.88,0,0,0,0-5.76Z" transform="translate(0 0)"/><path class="cls-7" d="M1862.32,622.41l-147-.12h0a2.88,2.88,0,1,0,0,5.76l147,.12h0a2.88,2.88,0,1,0,0-5.76Z" transform="translate(0 0)"/><path class="cls-16" d="M1814.65,615.56l-16.35-.09c-7.41,0-13,7.83-13,15.24l14.8,66.11,1.65-65.64C1801.8,623.77,1807.24,615.61,1814.65,615.56Z" transform="translate(0 0)"/><path class="cls-9" d="M1804.66,698.57a2.84,2.84,0,0,1-1.1-.22,2.88,2.88,0,0,1-1.78-2.66l.08-65.25a16.42,16.42,0,0,1,16.26-16.35l65.81-.42a2.87,2.87,0,0,1,2,4.91l-79.26,79.15A2.88,2.88,0,0,1,1804.66,698.57Z" transform="translate(0 0)"/><path class="cls-7" d="M1883.94,610.79h0l-65.78.42A19.3,19.3,0,0,0,1799,630.44l-.08,65.25a5.76,5.76,0,0,0,9.83,4.08l79.17-79a5.76,5.76,0,0,0-4-9.93Zm-79.28,84.9.08-65.25a13.49,13.49,0,0,1,13.4-13.47l65.79-.42Z" transform="translate(0 0)"/><polygon class="cls-16" points="1804.9 695.46 1883.93 616.55 1841.58 616.82 1804.9 695.46"/></g><g id="sticker"><path class="cls-16" d="M1681.33,468.84l0,18.09,108.13.08c2.88,0,4.24-5,2.09-7.71l-9.1-11.48Z" transform="translate(0 0)"/><path class="cls-17" d="M1678.49,477a2.87,2.87,0,0,1-2.87-2.88l0-27.19a2.87,2.87,0,0,1,2.88-2.87l105.17.12a2.88,2.88,0,0,1,1.91,5l-12.85,11.43,12.82,11.46a2.88,2.88,0,0,1-1.92,5Z" transform="translate(0 0)"/><path class="cls-7" d="M1777.09,460.67l10.43-9.29a5.76,5.76,0,0,0-3.82-10.06l-105.17-.12h0a5.75,5.75,0,0,0-5.76,5.75l0,27.19a5.75,5.75,0,0,0,5.75,5.76l105.16.13h0A5.77,5.77,0,0,0,1787.5,470Zm-98.59,13.47,0-27.18,105.16.12-15.25,13.58,15.22,13.61Z" transform="translate(0 0)"/><polygon class="cls-2" points="1783.63 446.96 1768.44 460.65 1783.66 474.14 1678.5 474.27 1783.63 446.96"/></g></g><g id="bar_graphics_file" data-name="bar graphics file"><rect class="cls-6" x="1283.94" y="99.45" width="278.36" height="285.28" rx="8.79"/><path class="cls-7" d="M1553.52,387.61H1292.73a11.69,11.69,0,0,1-11.67-11.67V108.24a11.68,11.68,0,0,1,11.67-11.67h260.79a11.67,11.67,0,0,1,11.66,11.67v267.7A11.68,11.68,0,0,1,1553.52,387.61ZM1292.73,102.33a5.92,5.92,0,0,0-5.91,5.91v267.7a5.92,5.92,0,0,0,5.91,5.91h260.79a5.91,5.91,0,0,0,5.9-5.91V108.24a5.91,5.91,0,0,0-5.9-5.91Z" transform="translate(0 0)"/><path class="cls-8" d="M1553.52,381.85a5.91,5.91,0,0,0,5.9-5.91V108.24a5.91,5.91,0,0,0-5.9-5.91h-22.76L1318.4,381.85Z" transform="translate(0 0)"/><path class="cls-9" d="M1553.52,99.45H1292.73a8.81,8.81,0,0,0-8.79,8.79v18.34H1562.3V108.24A8.81,8.81,0,0,0,1553.52,99.45Z" transform="translate(0 0)"/><path class="cls-7" d="M1562.3,129.46H1283.94a2.88,2.88,0,0,1-2.88-2.88V108.24a11.68,11.68,0,0,1,11.67-11.67h260.79a11.67,11.67,0,0,1,11.66,11.67v18.34A2.88,2.88,0,0,1,1562.3,129.46Zm-275.48-5.76h272.6V108.24a5.91,5.91,0,0,0-5.9-5.91H1292.73a5.92,5.92,0,0,0-5.91,5.91Z" transform="translate(0 0)"/><path class="cls-13" d="M1512.8,113a6.15,6.15,0,1,1-6.15-6.15A6.16,6.16,0,0,1,1512.8,113Zm13.71-6.15a6.15,6.15,0,1,0,6.15,6.15A6.15,6.15,0,0,0,1526.51,106.87Zm19.87,0a6.15,6.15,0,1,0,6.15,6.15A6.15,6.15,0,0,0,1546.38,106.87Z" transform="translate(0 0)"/><path class="cls-7" d="M1546.38,122.05a9,9,0,1,1,9-9A9,9,0,0,1,1546.38,122.05Zm0-12.3a3.27,3.27,0,1,0,3.27,3.27A3.27,3.27,0,0,0,1546.38,109.75Zm-19.87,12.3a9,9,0,1,1,9-9A9,9,0,0,1,1526.51,122.05Zm0-12.3a3.27,3.27,0,1,0,3.27,3.27A3.27,3.27,0,0,0,1526.51,109.75Zm-19.86,12.3a9,9,0,1,1,9-9A9,9,0,0,1,1506.65,122.05Zm0-12.3a3.27,3.27,0,1,0,3.27,3.27A3.27,3.27,0,0,0,1506.65,109.75Z" transform="translate(0 0)"/><path class="cls-5" d="M1518,358.33h-19.77V267.47a3.52,3.52,0,0,1,3.51-3.52h12.74a3.52,3.52,0,0,1,3.52,3.52Z" transform="translate(0 0)"/><path class="cls-7" d="M1518,361.21h-19.77a2.88,2.88,0,0,1-2.88-2.88V267.47a6.4,6.4,0,0,1,6.39-6.4h12.74a6.41,6.41,0,0,1,6.4,6.4v90.86A2.88,2.88,0,0,1,1518,361.21Zm-16.89-5.76h14v-88a.64.64,0,0,0-.64-.64h-12.74a.64.64,0,0,0-.63.64Z" transform="translate(0 0)"/><path class="cls-5" d="M1438.92,358.33h-19.77V333.66a3.51,3.51,0,0,1,3.51-3.51h12.74a3.52,3.52,0,0,1,3.52,3.51Z" transform="translate(0 0)"/><path class="cls-7" d="M1438.92,361.21h-19.77a2.88,2.88,0,0,1-2.88-2.88V333.66a6.4,6.4,0,0,1,6.39-6.39h12.74a6.4,6.4,0,0,1,6.4,6.39v24.67A2.88,2.88,0,0,1,1438.92,361.21ZM1422,355.45h14V333.66a.64.64,0,0,0-.64-.63h-12.74a.63.63,0,0,0-.63.63Z" transform="translate(0 0)"/><path class="cls-5" d="M1478.45,358.33h-19.77V311.81a3.52,3.52,0,0,1,3.52-3.52h12.74a3.51,3.51,0,0,1,3.51,3.52Z" transform="translate(0 0)"/><path class="cls-7" d="M1478.45,361.21h-19.77a2.88,2.88,0,0,1-2.88-2.88V311.81a6.41,6.41,0,0,1,6.4-6.4h12.74a6.4,6.4,0,0,1,6.39,6.4v46.52A2.88,2.88,0,0,1,1478.45,361.21Zm-16.88-5.76h14V311.81a.64.64,0,0,0-.63-.64H1462.2a.64.64,0,0,0-.63.64Z" transform="translate(0 0)"/><path class="cls-18" d="M1458.68,358.33h-19.76V282.11a3.51,3.51,0,0,1,3.51-3.51h12.74a3.51,3.51,0,0,1,3.51,3.51Z" transform="translate(0 0)"/><path class="cls-7" d="M1458.68,361.21h-19.76a2.88,2.88,0,0,1-2.88-2.88V282.11a6.4,6.4,0,0,1,6.39-6.39h12.74a6.4,6.4,0,0,1,6.4,6.39v76.22A2.89,2.89,0,0,1,1458.68,361.21Zm-16.88-5.76h14V282.11a.63.63,0,0,0-.63-.63h-12.74a.63.63,0,0,0-.63.63Z" transform="translate(0 0)"/><path class="cls-18" d="M1498.22,358.33h-19.77V292.79a3.52,3.52,0,0,1,3.52-3.51h12.74a3.51,3.51,0,0,1,3.51,3.51Z" transform="translate(0 0)"/><path class="cls-7" d="M1498.22,361.21h-19.77a2.88,2.88,0,0,1-2.88-2.88V292.79a6.4,6.4,0,0,1,6.4-6.39h12.74a6.4,6.4,0,0,1,6.39,6.39v65.54A2.88,2.88,0,0,1,1498.22,361.21Zm-16.89-5.76h14V292.79a.63.63,0,0,0-.63-.63H1482a.64.64,0,0,0-.64.63Z" transform="translate(0 0)"/><path class="cls-18" d="M1537.76,358.33H1518V307.91a3.51,3.51,0,0,1,3.51-3.51h12.74a3.52,3.52,0,0,1,3.52,3.51Z" transform="translate(0 0)"/><path class="cls-7" d="M1537.76,361.21H1518a2.88,2.88,0,0,1-2.88-2.88V307.91a6.4,6.4,0,0,1,6.39-6.39h12.74a6.4,6.4,0,0,1,6.4,6.39v50.42A2.88,2.88,0,0,1,1537.76,361.21Zm-16.89-5.76h14V307.91a.64.64,0,0,0-.64-.63H1521.5a.63.63,0,0,0-.63.63Z" transform="translate(0 0)"/><path class="cls-7" d="M1533.66,165.71H1310.75a4.11,4.11,0,0,1-4.1-4.1h0a4.12,4.12,0,0,1,4.1-4.1h222.91a4.12,4.12,0,0,1,4.1,4.1h0A4.11,4.11,0,0,1,1533.66,165.71Z" transform="translate(0 0)"/><path class="cls-7" d="M1533.66,185H1310.75a4.12,4.12,0,0,1-4.1-4.1h0a4.11,4.11,0,0,1,4.1-4.1h222.91a4.11,4.11,0,0,1,4.1,4.1h0A4.12,4.12,0,0,1,1533.66,185Z" transform="translate(0 0)"/><path class="cls-7" d="M1533.66,204.37H1310.75a4.12,4.12,0,0,1-4.1-4.1h0a4.11,4.11,0,0,1,4.1-4.1h222.91a4.11,4.11,0,0,1,4.1,4.1h0A4.12,4.12,0,0,1,1533.66,204.37Z" transform="translate(0 0)"/><path class="cls-7" d="M1533.66,223.7H1310.75a4.12,4.12,0,0,1-4.1-4.1h0a4.11,4.11,0,0,1,4.1-4.1h222.91a4.11,4.11,0,0,1,4.1,4.1h0A4.12,4.12,0,0,1,1533.66,223.7Z" transform="translate(0 0)"/><path class="cls-7" d="M1476.6,243H1310.75a4.12,4.12,0,0,1-4.1-4.1h0a4.11,4.11,0,0,1,4.1-4.1H1476.6a4.11,4.11,0,0,1,4.1,4.1h0A4.11,4.11,0,0,1,1476.6,243Z" transform="translate(0 0)"/></g><g id="drink"><path class="cls-9" d="M986.86,325.43a35.22,35.22,0,1,0,35.22-35.22A35.22,35.22,0,0,0,986.86,325.43Zm8.69,0A26.54,26.54,0,1,1,1022.08,352,26.53,26.53,0,0,1,995.55,325.43Z" transform="translate(0 0)"/><path class="cls-7" d="M1022.08,363.53a38.1,38.1,0,1,1,38.1-38.1A38.15,38.15,0,0,1,1022.08,363.53Zm0-70.44a32.34,32.34,0,1,0,32.34,32.34A32.37,32.37,0,0,0,1022.08,293.09Zm0,61.75a29.41,29.41,0,1,1,29.42-29.41A29.44,29.44,0,0,1,1022.08,354.84Zm0-53.06a23.65,23.65,0,1,0,23.66,23.65A23.68,23.68,0,0,0,1022.08,301.78Z" transform="translate(0 0)"/><path class="cls-9" d="M1022.08,290.21v40.63c0,28.24-19.78,51.35-44,51.35H916.27c-24.18,0-44-23.11-44-51.35V290.21Z" transform="translate(0 0)"/><path class="cls-7" d="M1022.08,287.33H872.31a2.88,2.88,0,0,0-2.88,2.88v40.63c0,29.9,21,54.23,46.84,54.23h61.85c25.83,0,46.84-24.33,46.84-54.23V290.21A2.88,2.88,0,0,0,1022.08,287.33Zm-2.88,43.51c0,26.72-18.42,48.47-41.08,48.47H916.27c-22.66,0-41.08-21.75-41.08-48.47V293.09h144Z" transform="translate(0 0)"/><path class="cls-15" d="M978.12,379.31c22.65,0,41.08-21.75,41.08-48.47V293.09H976l-66,85.66a34.93,34.93,0,0,0,6.25.56Z" transform="translate(0 0)"/><path class="cls-7" d="M945.05,237.68c-6-1.26-12.17-2.56-14.95-5.48-3.27-3.45-4.29-8.92-2.59-13.93,1.91-5.62,6.7-9.43,13.16-10.45,15-2.37,19-12.31,18.94-17.24a2.87,2.87,0,0,0-2.86-2.85,2.81,2.81,0,0,0-2.9,2.85c0,.38-.33,9.38-14.08,11.55-8.51,1.35-15.13,6.69-17.71,14.29-2.38,7-.86,14.76,3.87,19.74,4,4.23,11.09,5.72,17.93,7.16,10.16,2.14,16.32,3.84,16.15,9.52a18.32,18.32,0,0,1-10.74,16.5,2.88,2.88,0,0,0,1.05,5.56,2.79,2.79,0,0,0,1-.2A24,24,0,0,0,965.76,253C966.1,242.11,954.92,239.76,945.05,237.68Z" transform="translate(0 0)"/><path class="cls-7" d="M949.36,256.27a2.85,2.85,0,0,0-3-2.74,2.88,2.88,0,0,0-2.74,3c.37,7.95-11.29,9-11.82,9.05a2.88,2.88,0,0,0,.23,5.76h.22C938.39,270.87,949.87,267.1,949.36,256.27Z" transform="translate(0 0)"/><path class="cls-7" d="M939,216.94a2.89,2.89,0,0,0-4,.44c-2.86,3.56-2.75,6.49-2.16,8.31,1.48,4.6,7.22,6.3,7.86,6.47a2.92,2.92,0,0,0,.77.11,2.88,2.88,0,0,0,.76-5.66c-1.17-.32-3.51-1.44-3.91-2.69-.3-.91.61-2.23,1.17-2.93A2.88,2.88,0,0,0,939,216.94Z" transform="translate(0 0)"/><path class="cls-13" d="M945,362.75a2.87,2.87,0,0,1-2-.84l-21.45-21.45A18,18,0,0,1,945,313.18a18.05,18.05,0,0,1,23.49,27.28l-21.45,21.45A2.88,2.88,0,0,1,945,362.75Z" transform="translate(0 0)"/><path class="cls-7" d="M970.54,312.9A21,21,0,0,0,945,309.72a20.94,20.94,0,0,0-25.52,3.18,20.94,20.94,0,0,0,0,29.59l21.45,21.45a5.76,5.76,0,0,0,8.15,0l21.45-21.45A20.94,20.94,0,0,0,970.54,312.9Zm-4.08,25.52L945,359.87l-21.45-21.45A15.17,15.17,0,0,1,945,317a15.17,15.17,0,0,1,21.45,21.45Z" transform="translate(0 0)"/><path class="cls-4" d="M966.46,317a15.11,15.11,0,0,0-6-3.68l-27,35L945,359.87l21.45-21.45A15.16,15.16,0,0,0,966.46,317Z" transform="translate(0 0)"/></g><g id="line_graphics_file" data-name="line graphics file"><rect class="cls-6" x="381.37" y="411.54" width="274.04" height="285.28" rx="8.79"/><path class="cls-7" d="M646.62,699.7H390.15A11.67,11.67,0,0,1,378.49,688V420.33a11.68,11.68,0,0,1,11.66-11.67H646.62a11.68,11.68,0,0,1,11.67,11.67V688A11.68,11.68,0,0,1,646.62,699.7ZM390.15,414.42a5.91,5.91,0,0,0-5.9,5.91V688a5.91,5.91,0,0,0,5.9,5.91H646.62a5.92,5.92,0,0,0,5.91-5.91V420.33a5.92,5.92,0,0,0-5.91-5.91Z" transform="translate(0 0)"/><path class="cls-8" d="M646.62,693.94a5.92,5.92,0,0,0,5.91-5.91V420.33a5.92,5.92,0,0,0-5.91-5.91H635.71L423.36,693.94Z" transform="translate(0 0)"/><path class="cls-9" d="M646.62,411.54H390.15a8.81,8.81,0,0,0-8.78,8.79v18.34h274V420.33A8.82,8.82,0,0,0,646.62,411.54Z" transform="translate(0 0)"/><path class="cls-7" d="M655.41,441.55h-274a2.88,2.88,0,0,1-2.88-2.88V420.33a11.68,11.68,0,0,1,11.66-11.67H646.62a11.68,11.68,0,0,1,11.67,11.67v18.34A2.88,2.88,0,0,1,655.41,441.55Zm-271.16-5.76H652.53V420.33a5.92,5.92,0,0,0-5.91-5.91H390.15a5.91,5.91,0,0,0-5.9,5.91Z" transform="translate(0 0)"/><path class="cls-5" d="M605.9,425.11a6.15,6.15,0,1,1-6.15-6.15A6.15,6.15,0,0,1,605.9,425.11ZM619.62,419a6.15,6.15,0,1,0,6.15,6.15A6.15,6.15,0,0,0,619.62,419Zm19.87,0a6.15,6.15,0,1,0,6.15,6.15A6.15,6.15,0,0,0,639.49,419Z" transform="translate(0 0)"/><path class="cls-7" d="M639.49,434.14a9,9,0,1,1,9-9A9,9,0,0,1,639.49,434.14Zm0-12.3a3.27,3.27,0,1,0,3.27,3.27A3.27,3.27,0,0,0,639.49,421.84Zm-19.87,12.3a9,9,0,1,1,9-9A9,9,0,0,1,619.62,434.14Zm0-12.3a3.27,3.27,0,1,0,3.27,3.27A3.27,3.27,0,0,0,619.62,421.84Zm-19.87,12.3a9,9,0,1,1,9-9A9,9,0,0,1,599.75,434.14Zm0-12.3a3.27,3.27,0,1,0,3.27,3.27A3.27,3.27,0,0,0,599.75,421.84Z" transform="translate(0 0)"/><rect class="cls-7" x="400.85" y="469.22" width="232.47" height="8.2" rx="3.51"/><path class="cls-7" d="M459.69,563.53a2.44,2.44,0,0,1-1.08-.25c-12.24-5.81-30.32-14.09-33.75-15.06-2.42,1.11-11.49,8.32-18.91,14.69a2.52,2.52,0,0,1-3.62-.33,2.69,2.69,0,0,1,.32-3.71c18.61-16,21.15-16,22.1-16,2.47,0,19.46,7.78,34.07,14.7L492,509.29a2.52,2.52,0,0,1,4-.28l32.19,35.1,32.39-42.39a2.54,2.54,0,0,1,2.58-1l34.24,7.91,34.29,8.8a2.64,2.64,0,0,1,1.87,3.2,2.55,2.55,0,0,1-3.12,1.91l-34.23-8.78-32.59-7.53-33.24,43.5a2.52,2.52,0,0,1-3.89.18l-32.08-35-32.56,47.44A2.56,2.56,0,0,1,459.69,563.53Z" transform="translate(0 0)"/><path class="cls-7" d="M622.64,597.2H405a4.11,4.11,0,0,1-4.1-4.1h0A4.12,4.12,0,0,1,405,589H622.64a4.11,4.11,0,0,1,4.1,4.1h0A4.11,4.11,0,0,1,622.64,597.2Z" transform="translate(0 0)"/><path class="cls-7" d="M622.64,616.53H405a4.11,4.11,0,0,1-4.1-4.1h0a4.12,4.12,0,0,1,4.1-4.1H622.64a4.11,4.11,0,0,1,4.1,4.1h0A4.11,4.11,0,0,1,622.64,616.53Z" transform="translate(0 0)"/><path class="cls-7" d="M622.64,635.86H405a4.11,4.11,0,0,1-4.1-4.1h0a4.12,4.12,0,0,1,4.1-4.1H622.64a4.11,4.11,0,0,1,4.1,4.1h0A4.11,4.11,0,0,1,622.64,635.86Z" transform="translate(0 0)"/><path class="cls-7" d="M622.64,655.19H405a4.12,4.12,0,0,1-4.1-4.1h0A4.11,4.11,0,0,1,405,647H622.64a4.11,4.11,0,0,1,4.1,4.1h0A4.11,4.11,0,0,1,622.64,655.19Z" transform="translate(0 0)"/><rect class="cls-7" x="400.85" y="666.32" width="117.23" height="8.2" rx="4.1"/><path class="cls-2" d="M410.89,560.66a5.24,5.24,0,1,1-5.24-5.45A5.35,5.35,0,0,1,410.89,560.66Z" transform="translate(0 0)"/><path class="cls-7" d="M405.65,569a8.33,8.33,0,1,1,8.12-8.33A8.24,8.24,0,0,1,405.65,569Zm0-10.89a2.57,2.57,0,1,0,2.36,2.56A2.47,2.47,0,0,0,405.65,558.1Z" transform="translate(0 0)"/><path class="cls-2" d="M432.18,545.41a5.24,5.24,0,1,1-5.24-5.45A5.34,5.34,0,0,1,432.18,545.41Z" transform="translate(0 0)"/><path class="cls-7" d="M426.94,553.74a8.33,8.33,0,1,1,8.12-8.33A8.24,8.24,0,0,1,426.94,553.74Zm0-10.9a2.58,2.58,0,1,0,2.36,2.57A2.48,2.48,0,0,0,426.94,542.84Z" transform="translate(0 0)"/><path class="cls-2" d="M465,560.11a5.24,5.24,0,1,1-5.24-5.45A5.35,5.35,0,0,1,465,560.11Z" transform="translate(0 0)"/><path class="cls-7" d="M459.72,568.44a8.33,8.33,0,1,1,8.12-8.33A8.24,8.24,0,0,1,459.72,568.44Zm0-10.9a2.58,2.58,0,1,0,2.36,2.57A2.47,2.47,0,0,0,459.72,557.54Z" transform="translate(0 0)"/><path class="cls-2" d="M499.1,512.36a5.24,5.24,0,1,1-5.24-5.45A5.34,5.34,0,0,1,499.1,512.36Z" transform="translate(0 0)"/><path class="cls-7" d="M493.86,520.69a8.33,8.33,0,1,1,8.12-8.33A8.24,8.24,0,0,1,493.86,520.69Zm0-10.9a2.58,2.58,0,1,0,2.36,2.57A2.47,2.47,0,0,0,493.86,509.79Z" transform="translate(0 0)"/><path class="cls-2" d="M532.75,545.41a5.24,5.24,0,1,1-5.24-5.45A5.35,5.35,0,0,1,532.75,545.41Z" transform="translate(0 0)"/><path class="cls-7" d="M527.51,553.74a8.33,8.33,0,1,1,8.12-8.33A8.24,8.24,0,0,1,527.51,553.74Zm0-10.9a2.58,2.58,0,1,0,2.36,2.57A2.48,2.48,0,0,0,527.51,542.84Z" transform="translate(0 0)"/><path class="cls-2" d="M567.48,504.37a5.25,5.25,0,1,1-5.25-5.45A5.35,5.35,0,0,1,567.48,504.37Z" transform="translate(0 0)"/><path class="cls-7" d="M562.23,512.7a8.33,8.33,0,1,1,8.13-8.33A8.24,8.24,0,0,1,562.23,512.7Zm0-10.9a2.58,2.58,0,1,0,2.37,2.57A2.47,2.47,0,0,0,562.23,501.8Z" transform="translate(0 0)"/><path class="cls-2" d="M635,520.68a5.24,5.24,0,1,1-5.24-5.45A5.35,5.35,0,0,1,635,520.68Z" transform="translate(0 0)"/><path class="cls-7" d="M629.75,529a8.33,8.33,0,1,1,8.12-8.33A8.24,8.24,0,0,1,629.75,529Zm0-10.9a2.58,2.58,0,1,0,2.36,2.57A2.47,2.47,0,0,0,629.75,518.11Z" transform="translate(0 0)"/></g><g id="image_file" data-name="image file"><g id="map-2" data-name="map"><path class="cls-9" d="M420.68,1141.76a13.13,13.13,0,0,1-13.09-13.12l.3-251.63A13.12,13.12,0,0,1,421,863.92l182.51.3a13.11,13.11,0,0,1,13.09,13.12L616.38,1060a2.9,2.9,0,0,1-.85,2L536,1141.13a2.87,2.87,0,0,1-2,.84Z" transform="translate(0 0)"/><path class="cls-7" d="M614.8,866a15.88,15.88,0,0,0-11.29-4.7L421,861h0a16,16,0,0,0-16,16l-.3,251.62a16,16,0,0,0,16,16l113.31.21h0a5.74,5.74,0,0,0,4.07-1.68L617.56,1064a5.74,5.74,0,0,0,1.7-4.08l.21-182.61A15.85,15.85,0,0,0,614.8,866Zm-1.3,193.9L534,1139.09l-113.31-.21a10.27,10.27,0,0,1-10.22-10.24l.3-251.62A10.25,10.25,0,0,1,421,866.8h0l182.5.3a10.24,10.24,0,0,1,10.21,10.23Z" transform="translate(0 0)"/><path class="cls-15" d="M613.5,1059.94l.21-182.61a10.16,10.16,0,0,0-2.5-6.68L410.74,1130.92a10.26,10.26,0,0,0,9.95,8l113.31.21Z" transform="translate(0 0)"/><path class="cls-16" d="M544.23,1059l-16.36-.1c-7.41.05-13,7.84-13,15.25l14.8,66.11,1.65-65.64C531.37,1067.17,536.82,1059,544.23,1059Z" transform="translate(0 0)"/><path class="cls-9" d="M534.24,1142a2.87,2.87,0,0,1-2.88-2.89l.07-65.24a16.41,16.41,0,0,1,16.26-16.35l65.81-.43a2.88,2.88,0,0,1,2,4.92l-79.26,79.15A2.88,2.88,0,0,1,534.24,1142Z" transform="translate(0 0)"/><path class="cls-7" d="M613.51,1054.18h0l-65.78.43a19.29,19.29,0,0,0-19.13,19.22l-.07,65.25a5.75,5.75,0,0,0,3.55,5.33,5.65,5.65,0,0,0,2.2.44,5.79,5.79,0,0,0,4.08-1.68l79.16-79.05a5.76,5.76,0,0,0-4-9.94Zm-79.27,84.91.07-65.25a13.48,13.48,0,0,1,13.4-13.47l65.79-.43Z" transform="translate(0 0)"/><polygon class="cls-16" points="534.47 1138.86 613.5 1059.94 571.15 1060.22 534.47 1138.86"/><rect class="cls-14" x="432.64" y="890.33" width="157.33" height="121.85" rx="12.48"/><path class="cls-7" d="M577.49,887.45H445.12a15.38,15.38,0,0,0-15.36,15.36V999.7a15.38,15.38,0,0,0,15.36,15.36H577.49a15.38,15.38,0,0,0,15.36-15.36V902.81A15.38,15.38,0,0,0,577.49,887.45Zm9.6,112.25a9.63,9.63,0,0,1-9.6,9.6H445.12a9.63,9.63,0,0,1-9.6-9.6V902.81a9.63,9.63,0,0,1,9.6-9.6H577.49a9.63,9.63,0,0,1,9.6,9.6Z" transform="translate(0 0)"/><path class="cls-6" d="M471.1,1009.3H577.49a9.63,9.63,0,0,0,9.6-9.6V902.81a9.63,9.63,0,0,0-9.6-9.6h-17Z" transform="translate(0 0)"/><path class="cls-19" d="M448.05,999.4a2.88,2.88,0,0,1-2.28-4.64l27.17-35.14a2.89,2.89,0,0,1,2.28-1.12,2.86,2.86,0,0,1,1.51.43l29.36,18,26.36-46.43a2.92,2.92,0,0,1,2.46-1.46H535a2.86,2.86,0,0,1,2.45,1.38L577,995a2.87,2.87,0,0,1-2.46,4.38Z" transform="translate(0 0)"/><path class="cls-7" d="M579.47,993.51l-39.6-64.63a5.75,5.75,0,0,0-4.91-2.76h-.1A5.74,5.74,0,0,0,530,929l-24.89,43.84-26.83-16.41a5.76,5.76,0,0,0-7.57,1.39L443.49,993a5.75,5.75,0,0,0,4.56,9.28H574.56a5.76,5.76,0,0,0,4.91-8.77Zm-131.42,3,27.17-35.14,31.91,19.52,27.83-49,39.6,64.63Z" transform="translate(0 0)"/><polygon class="cls-5" points="574.56 996.52 534.96 931.88 507.13 980.9 497.51 975.02 480.95 996.52 574.56 996.52"/><circle class="cls-2" cx="479.84" cy="926.77" r="20.57" transform="translate(-520.95 1222.69) rotate(-79.1)"/><path class="cls-7" d="M479.84,903.32a23.45,23.45,0,1,0,23.45,23.45A23.48,23.48,0,0,0,479.84,903.32Zm0,41.14a17.69,17.69,0,1,1,17.69-17.69A17.69,17.69,0,0,1,479.84,944.46Z" transform="translate(0 0)"/></g></g><g id="character"><path class="cls-20" d="M1273.64,1445.11l-30.55-439.25c6.56-11.92-5.67-75.59-25.21-75.59H1106.5c-19.53,0-31,66.47-23.09,79.2l-30.31,435.64a27.6,27.6,0,0,0,25.55,29.36h0a27.6,27.6,0,0,0,29.36-25.55l28-401.72a82.87,82.87,0,0,0,18.55,2.12h15.36a83.21,83.21,0,0,0,20.88-2.66l28,402.26a27.52,27.52,0,1,0,54.91-3.81Z" transform="translate(0 0)"/><path class="cls-7" d="M1246.16,1477.42a30.48,30.48,0,0,1-30.3-28.3l-27.75-398.87a86.4,86.4,0,0,1-18.24,2h-15.36a85.61,85.61,0,0,1-15.91-1.5l-27.72,398.42a30.4,30.4,0,0,1-60.65-4.21l30.24-434.73c-8.1-13.42,4.86-82.79,26-82.79h111.38c21.17,0,34.85,66.62,28.14,79.11l30.49,438.41h0a30.42,30.42,0,0,1-28.21,32.43C1247.58,1477.39,1246.87,1477.42,1246.16,1477.42Zm-55.41-433.64a2.83,2.83,0,0,1,1.68.54,2.86,2.86,0,0,1,1.19,2.14l28,402.26a24.64,24.64,0,1,0,49.17-3.41l-30.56-439.25a2.91,2.91,0,0,1,.35-1.59c6.52-11.82-4.68-71.32-22.68-71.32H1106.5c-18,0-28.49,62.1-20.64,74.8a2.94,2.94,0,0,1,.42,1.72L1056,1445.31a24.64,24.64,0,0,0,49.17,3.41L1133.08,1047a2.89,2.89,0,0,1,3.52-2.61,80.15,80.15,0,0,0,17.91,2h15.36a80.4,80.4,0,0,0,20.16-2.57A2.9,2.9,0,0,1,1190.75,1043.78Z" transform="translate(0 0)"/><path class="cls-21" d="M1085,1026.39h156.6l-1.38-20.53c6.33-11.92-5.48-75.59-24.33-75.59H1108.46c-18.85,0-29.88,66.47-22.29,79.2Z" transform="translate(0 0)"/><polygon class="cls-21" points="1107.85 1409.68 1109.57 1385.04 1060.17 1385.04 1058.45 1409.68 1107.85 1409.68"/><polygon class="cls-21" points="1266.58 1385.04 1217.17 1385.04 1218.89 1409.68 1268.29 1409.68 1266.58 1385.04"/><path class="cls-22" d="M1114.39,1517.67H1048a13.51,13.51,0,0,1-13.51-13.51v-42.5h93.37v42.5A13.5,13.5,0,0,1,1114.39,1517.67Z" transform="translate(0 0)"/><path class="cls-7" d="M1113.48,1520.55h-64.54a17.32,17.32,0,0,1-17.3-17.29v-41.6a2.88,2.88,0,0,1,2.88-2.88h93.37a2.88,2.88,0,0,1,2.88,2.88v41.6A17.31,17.31,0,0,1,1113.48,1520.55Zm-76.08-56v38.72a11.56,11.56,0,0,0,11.54,11.53h64.54a11.55,11.55,0,0,0,11.53-11.53v-38.72Z" transform="translate(0 0)"/><path class="cls-14" d="M1058.69,1441.18h46.2l12.1-32.77a9.19,9.19,0,0,0-8.61-12.36H1054a9.18,9.18,0,0,0-8.5,12.63Z" transform="translate(0 0)"/><path class="cls-7" d="M1104.89,1444.06h-46.2a2.88,2.88,0,0,1-2.67-1.8l-13.15-32.5a12.05,12.05,0,0,1,11.18-16.59h54.33a12.07,12.07,0,0,1,11.31,16.24l-12.09,32.77A2.89,2.89,0,0,1,1104.89,1444.06Zm-44.26-5.76h42.26l11.39-30.89a6.3,6.3,0,0,0-5.9-8.48h-54.33a6.3,6.3,0,0,0-5.84,8.67Z" transform="translate(0 0)"/><path class="cls-13" d="M1105.49,1439.26h-48.56a22.47,22.47,0,0,0-22.41,22.4c0,12.32,10.09,37.29,22.41,37.29h48.56c12.32,0,22.4-25,22.4-37.29A22.47,22.47,0,0,0,1105.49,1439.26Z" transform="translate(0 0)"/><path class="cls-7" d="M1105.49,1501.83h-48.56c-14.61,0-25.29-26.42-25.29-40.17a25.32,25.32,0,0,1,25.29-25.28h48.56a25.31,25.31,0,0,1,25.28,25.28C1130.77,1475.41,1120.1,1501.83,1105.49,1501.83Zm-48.56-59.69a19.55,19.55,0,0,0-19.53,19.52c0,12.33,9.85,34.4,19.53,34.4h48.56c9.68,0,19.52-22.07,19.52-34.4a19.54,19.54,0,0,0-19.52-19.52Z" transform="translate(0 0)"/><polygon class="cls-14" points="1058.63 1441.18 1053.45 1475.9 1107.53 1475.9 1104.29 1441.18 1058.63 1441.18"/><path class="cls-7" d="M1107.53,1478.78h-54.08a2.87,2.87,0,0,1-2.85-3.3l5.18-34.73a2.87,2.87,0,0,1,2.85-2.45h45.66a2.88,2.88,0,0,1,2.87,2.61l3.24,34.72a2.88,2.88,0,0,1-2.87,3.15Zm-50.74-5.76h47.58l-2.7-29h-40.56Z" transform="translate(0 0)"/><path class="cls-14" d="M1041.24,1485.18s2.13-9.28,12.21-9.28h54.72c7.68,0,13,9.28,13,9.28s-4.66,11.3-10.45,13.13-50.4,1.6-53.8.64C1051.9,1497.51,1044.29,1492.55,1041.24,1485.18Z" transform="translate(0 0)"/><path class="cls-7" d="M1080.67,1502.55c-11.8,0-22.79-.34-24.53-.84-6.1-1.73-14.2-7.3-17.56-15.44a2.88,2.88,0,0,1-.15-1.74,15.19,15.19,0,0,1,15-11.51h54.72c9.25,0,15.25,10.28,15.51,10.72a2.89,2.89,0,0,1,.16,2.53c-.53,1.29-5.36,12.62-12.24,14.78C1108.19,1502.13,1093.91,1502.55,1080.67,1502.55ZM1044.31,1485c3,6.22,9.72,10.15,13.4,11.2,4.24,1,47.42.87,52.16-.62,2.77-.87,6.14-6,8.05-10.13-1.81-2.56-5.58-6.65-9.75-6.65h-54.72A9.27,9.27,0,0,0,1044.31,1485Z" transform="translate(0 0)"/><path class="cls-7" d="M1105.29,1461.15a2.9,2.9,0,0,1-1.47-.4c-.3-.18-29.33-17.24-52.45-9a2.88,2.88,0,0,1-1.94-5.43c25.7-9.18,56.06,8.7,57.34,9.46a2.88,2.88,0,0,1-1.48,5.35Z" transform="translate(0 0)"/><path class="cls-7" d="M1106.71,1470.33a3,3,0,0,1-1.09-.21c-.43-.18-43.55-17.63-60.7-8.15a2.88,2.88,0,1,1-2.79-5c19.54-10.82,63.8,7.09,65.67,7.85a2.88,2.88,0,0,1-1.09,5.55Z" transform="translate(0 0)"/><path class="cls-7" d="M1056.46,1461.15a2.88,2.88,0,0,1-1.16-5.51c1.62-.72,40-17.54,57.31-9.18a2.88,2.88,0,1,1-2.51,5.19c-12.38-6-42.07,4.65-52.47,9.26A2.85,2.85,0,0,1,1056.46,1461.15Z" transform="translate(0 0)"/><path class="cls-7" d="M1055,1470.33a2.88,2.88,0,0,1-1-5.58c1.81-.68,44.78-16.54,65.31-8a2.88,2.88,0,0,1-2.23,5.32c-18.41-7.7-60.64,7.88-61.07,8A3,3,0,0,1,1055,1470.33Z" transform="translate(0 0)"/><path class="cls-22" d="M1212.35,1517.67h66.36a13.51,13.51,0,0,0,13.51-13.51v-42.5h-93.37v42.5A13.5,13.5,0,0,0,1212.35,1517.67Z" transform="translate(0 0)"/><path class="cls-7" d="M1277.81,1520.55h-64.55a17.31,17.31,0,0,1-17.29-17.29v-41.6a2.88,2.88,0,0,1,2.88-2.88h93.37a2.88,2.88,0,0,1,2.88,2.88v41.6A17.31,17.31,0,0,1,1277.81,1520.55Zm-76.08-56v38.72a11.55,11.55,0,0,0,11.53,11.53h64.55a11.55,11.55,0,0,0,11.53-11.53v-38.72Z" transform="translate(0 0)"/><path class="cls-13" d="M1269.82,1439.26h-48.57a22.47,22.47,0,0,0-22.4,22.4c0,12.32,10.08,37.29,22.4,37.29h48.57c12.32,0,22.4-25,22.4-37.29A22.47,22.47,0,0,0,1269.82,1439.26Z" transform="translate(0 0)"/><path class="cls-7" d="M1269.82,1501.83h-48.57c-14.61,0-25.28-26.42-25.28-40.17a25.31,25.31,0,0,1,25.28-25.28h48.57a25.31,25.31,0,0,1,25.28,25.28C1295.1,1475.41,1284.42,1501.83,1269.82,1501.83Zm-48.57-59.69a19.55,19.55,0,0,0-19.52,19.52c0,12,10,34.4,19.52,34.4h48.57c9.68,0,19.52-22.07,19.52-34.4a19.55,19.55,0,0,0-19.52-19.52Z" transform="translate(0 0)"/><path class="cls-14" d="M1268.05,1441.18h-46.2l-12.09-32.77a9.18,9.18,0,0,1,8.61-12.36h54.33a9.18,9.18,0,0,1,8.51,12.63Z" transform="translate(0 0)"/><path class="cls-7" d="M1268.05,1444.06h-46.2a2.88,2.88,0,0,1-2.7-1.88l-12.1-32.77a12.07,12.07,0,0,1,11.32-16.24h54.33a12.06,12.06,0,0,1,11.18,16.59l-13.16,32.5A2.88,2.88,0,0,1,1268.05,1444.06Zm-44.19-5.76h42.25l12.43-30.7a6.31,6.31,0,0,0-5.84-8.67h-54.33a6.3,6.3,0,0,0-5.91,8.48Z" transform="translate(0 0)"/><polygon class="cls-14" points="1268.11 1441.18 1273.3 1475.9 1219.21 1475.9 1222.45 1441.18 1268.11 1441.18"/><path class="cls-7" d="M1273.3,1478.78h-54.09a2.88,2.88,0,0,1-2.87-3.15l3.24-34.72a2.88,2.88,0,0,1,2.87-2.61h45.66a2.87,2.87,0,0,1,2.85,2.45l5.18,34.73a2.87,2.87,0,0,1-2.84,3.3Zm-50.93-5.76H1270l-4.32-29h-40.55Z" transform="translate(0 0)"/><path class="cls-14" d="M1285.5,1485.18s-2.12-9.28-12.2-9.28h-54.73c-7.68,0-13,9.28-13,9.28s4.65,11.3,10.44,13.13,50.41,1.6,53.81.64C1274.84,1497.51,1282.46,1492.55,1285.5,1485.18Z" transform="translate(0 0)"/><path class="cls-7" d="M1246.08,1502.55c-13.25,0-27.53-.42-30.94-1.5-6.87-2.16-11.71-13.49-12.24-14.78a2.86,2.86,0,0,1,.17-2.53c.25-.44,6.26-10.72,15.5-10.72h54.73a15.18,15.18,0,0,1,15,11.51,2.88,2.88,0,0,1-.15,1.74c-3.35,8.14-11.45,13.71-17.56,15.44C1268.86,1502.21,1257.88,1502.55,1246.08,1502.55Zm-37.25-17.12c1.91,4.08,5.27,9.26,8,10.13,4.74,1.49,47.92,1.58,52.2.6,3.64-1,10.34-5,13.36-11.17a9.25,9.25,0,0,0-9.13-6.21h-54.73C1214.41,1478.78,1210.64,1482.87,1208.83,1485.43Z" transform="translate(0 0)"/><path class="cls-7" d="M1221.45,1461.15a2.85,2.85,0,0,1-2.47-1.4,2.88,2.88,0,0,1,1-4c1.28-.76,31.64-18.65,57.34-9.46a2.88,2.88,0,0,1-1.94,5.43c-23.17-8.28-52.15,8.8-52.44,9A2.91,2.91,0,0,1,1221.45,1461.15Z" transform="translate(0 0)"/><path class="cls-7" d="M1220,1470.33a2.88,2.88,0,0,1-1.09-5.55c1.87-.76,46.13-18.67,65.67-7.85a2.88,2.88,0,1,1-2.78,5c-17.15-9.48-60.27,8-60.71,8.15A3,3,0,0,1,1220,1470.33Z" transform="translate(0 0)"/><path class="cls-7" d="M1270.28,1461.15a2.85,2.85,0,0,1-1.17-.24c-10.39-4.6-40.09-15.24-52.47-9.26a2.88,2.88,0,1,1-2.5-5.19c17.3-8.36,55.68,8.46,57.31,9.18a2.88,2.88,0,0,1-1.17,5.51Z" transform="translate(0 0)"/><path class="cls-7" d="M1271.7,1470.33a3,3,0,0,1-1-.18c-.42-.16-42.66-15.75-61.07-8a2.88,2.88,0,0,1-2.22-5.32c20.51-8.58,63.49,7.28,65.31,8a2.88,2.88,0,0,1-1,5.58Z" transform="translate(0 0)"/><path class="cls-7" d="M1083.41,1043.64a2.88,2.88,0,0,1-1-5.58c1.81-.67,43.64-17,43.95-76.51a2.87,2.87,0,0,1,2.88-2.87h0a2.9,2.9,0,0,1,2.87,2.9c-.33,63.67-47.23,81.71-47.71,81.88A2.66,2.66,0,0,1,1083.41,1043.64Z" transform="translate(0 0)"/><path class="cls-7" d="M1242.79,1043.64a2.68,2.68,0,0,1-1-.18c-.47-.17-47.38-18.21-47.7-81.88a2.88,2.88,0,0,1,2.86-2.9h0a2.89,2.89,0,0,1,2.88,2.87c.3,59.72,43.5,76.35,43.93,76.51a2.88,2.88,0,0,1-1,5.58Z" transform="translate(0 0)"/><path class="cls-23" d="M1084.73,1221.5c0-2.12,6.77-3.84,15.12-3.84s15.12,1.72,15.12,3.84-6.77,3.84-15.12,3.84S1084.73,1223.62,1084.73,1221.5Z" transform="translate(0 0)"/><ellipse class="cls-23" cx="1232.28" cy="1217.66" rx="15.12" ry="3.84"/><path class="cls-24" d="M1056.58,665.06h0a20.22,20.22,0,0,1-20.16-20.16h0a20.22,20.22,0,0,1,20.16-20.16h0a20.22,20.22,0,0,1,20.16,20.16h0A20.22,20.22,0,0,1,1056.58,665.06Z" transform="translate(0 0)"/><path class="cls-7" d="M1056.58,667.94a23,23,0,1,1,23-23A23.06,23.06,0,0,1,1056.58,667.94Zm0-40.32a17.28,17.28,0,1,0,17.28,17.28A17.3,17.3,0,0,0,1056.58,627.62Z" transform="translate(0 0)"/><path class="cls-24" d="M1273.56,665.06h0a20.22,20.22,0,0,1-20.16-20.16h0a20.22,20.22,0,0,1,20.16-20.16h0a20.22,20.22,0,0,1,20.16,20.16h0A20.22,20.22,0,0,1,1273.56,665.06Z" transform="translate(0 0)"/><path class="cls-7" d="M1273.56,667.94a23,23,0,1,1,23-23A23.07,23.07,0,0,1,1273.56,667.94Zm0-40.32a17.28,17.28,0,1,0,17.28,17.28A17.3,17.3,0,0,0,1273.56,627.62Z" transform="translate(0 0)"/><path class="cls-24" d="M1060.67,661.26h0a16.41,16.41,0,0,1-16.36-16.36h0a16.41,16.41,0,0,1,16.36-16.36h0A16.41,16.41,0,0,1,1077,644.9h0A16.41,16.41,0,0,1,1060.67,661.26Z" transform="translate(0 0)"/><path class="cls-24" d="M1269.47,661.26h0a16.41,16.41,0,0,1-16.36-16.36h0a16.41,16.41,0,0,1,16.36-16.36h0a16.41,16.41,0,0,1,16.36,16.36h0A16.41,16.41,0,0,1,1269.47,661.26Z" transform="translate(0 0)"/><path class="cls-25" d="M1114,692.44a53.57,53.57,0,1,0-86.8,19.49,66.86,66.86,0,1,0,86.8-19.49Z" transform="translate(0 0)"/><path class="cls-7" d="M1081.52,820.26a69.35,69.35,0,0,1-57.58-108,55.51,55.51,0,0,1-16-39.16,56.07,56.07,0,1,1,109.08,18.25,69.37,69.37,0,0,1-35.54,128.94ZM1064.05,622A51.13,51.13,0,0,0,1013,673.07a50.61,50.61,0,0,0,15.93,37,2.5,2.5,0,0,1,.31,3.28,64.36,64.36,0,1,0,83.56-18.77,2.51,2.51,0,0,1-1.12-3.09A51.05,51.05,0,0,0,1064.05,622Z" transform="translate(0 0)"/><path class="cls-25" d="M1301.23,710.6a53.94,53.94,0,1,0-65.41-12.46,66.88,66.88,0,1,0,65.41,12.46Z" transform="translate(0 0)"/><path class="cls-7" d="M1257.68,830.7a69.37,69.37,0,0,1-26-133.68,56.42,56.42,0,1,1,73.81,14.07,69.35,69.35,0,0,1-47.81,119.61Zm18.78-219.43a51.41,51.41,0,0,0-38.76,85.22,2.5,2.5,0,0,1-1.06,4,64.39,64.39,0,1,0,63,12,2.49,2.49,0,0,1,.48-4.11,51.43,51.43,0,0,0-23.62-97.12Z" transform="translate(0 0)"/><path class="cls-24" d="M1171.77,770.68h-13.39c-54.94,0-99.88-45.47-99.88-101V564.18c0-24.78,20-45,44.54-45H1227.1c24.5,0,44.54,20.27,44.54,45V669.64C1271.64,725.21,1226.7,770.68,1171.77,770.68Z" transform="translate(0 0)"/><path class="cls-7" d="M1165.07,773.56A109.58,109.58,0,0,1,1055.62,664.1V569.53a50.46,50.46,0,0,1,50.4-50.4h118.1a50.46,50.46,0,0,1,50.4,50.4V664.1A109.58,109.58,0,0,1,1165.07,773.56Zm-59-248.67a44.7,44.7,0,0,0-44.64,44.64V664.1a103.69,103.69,0,1,0,207.38,0V569.53a44.7,44.7,0,0,0-44.64-44.64Z" transform="translate(0 0)"/><path class="cls-24" d="M1165.07,770.68h0a105.53,105.53,0,0,1-26.88-3.47v16.43a26.4,26.4,0,0,0,52.8,0V767.45A105.6,105.6,0,0,1,1165.07,770.68Z" transform="translate(0 0)"/><path class="cls-7" d="M1164.59,812.92a29.31,29.31,0,0,1-29.28-29.28V767.21a2.87,2.87,0,0,1,3.61-2.78,103.54,103.54,0,0,0,51.37.23,2.85,2.85,0,0,1,2.47.52,2.88,2.88,0,0,1,1.11,2.27v16.19A29.31,29.31,0,0,1,1164.59,812.92Zm-23.52-42v12.76a23.52,23.52,0,1,0,47,0V771.09A109.27,109.27,0,0,1,1141.07,770.88Z" transform="translate(0 0)"/><path class="cls-26" d="M1141.07,779.27c.32,6.86,10.77,12.42,23.52,12.42s23.2-5.56,23.52-12.42v-8.13l-.86.11a109.42,109.42,0,0,1-44.15,0l-2-.25Z" transform="translate(0 0)"/><g id="face"><path class="cls-27" d="M1127.6,639.54c0,7.08-3.45,12.82-7.7,12.82s-7.7-5.74-7.7-12.82,3.45-12.83,7.7-12.83S1127.6,632.45,1127.6,639.54Z" transform="translate(0 0)"/><path class="cls-27" d="M1219.74,639.54c0,7.08-3.45,12.82-7.7,12.82s-7.69-5.74-7.69-12.82,3.44-12.83,7.69-12.83S1219.74,632.45,1219.74,639.54Z" transform="translate(0 0)"/><path class="cls-14" d="M1199.46,716s-2.52,22-33.42,22-33.42-22-33.42-22Z" transform="translate(0 0)"/><path class="cls-7" d="M1166,740.54c-32.75,0-35.87-24-35.9-24.26a2.51,2.51,0,0,1,2.48-2.79h66.84a2.51,2.51,0,0,1,2.48,2.79C1201.91,716.52,1198.8,740.54,1166,740.54Zm-30.25-22c1.83,5.48,8.29,17,30.25,17,21.78,0,28.34-11.59,30.22-17Z" transform="translate(0 0)"/><ellipse class="cls-28" cx="1119.09" cy="663.64" rx="16.1" ry="5.62"/><ellipse class="cls-28" cx="1212.04" cy="663.64" rx="16.1" ry="5.62"/><path class="cls-7" d="M1164.82,699.2a2.76,2.76,0,0,1-.36-5.49c.47-.07,11.45-1.72,11.45-12.6,0-10.38-10-10.77-11.1-10.77a2.76,2.76,0,0,1-2.72-2.76V636.45a2.73,2.73,0,1,1,5.46,0V665c5.87,1,13.81,5,13.81,16.07,0,12.62-10.59,17.34-16.19,18.07A2.11,2.11,0,0,1,1164.82,699.2Z" transform="translate(0 0)"/></g><path class="cls-29" d="M1059,716.29c-15.09,0-26.91-20.23-26.91-46s11.82-46,26.91-46,26.9,20.23,26.9,46S1074.11,716.29,1059,716.29Zm0-76.75c-8.73,0-16.11,14.06-16.11,30.7s7.38,30.7,16.11,30.7,16.1-14.06,16.1-30.7S1067.75,639.54,1059,639.54Z" transform="translate(0 0)"/><path class="cls-7" d="M1059,637c-10.28,0-18.61,14.86-18.61,33.2s8.33,33.2,18.61,33.2,18.6-14.86,18.6-33.2S1069.3,637,1059,637Zm0,61.4c-6.44,0-13.61-11.58-13.61-28.2S1052.59,642,1059,642s13.6,11.58,13.6,28.2S1065.46,698.44,1059,698.44Z" transform="translate(0 0)"/><path class="cls-7" d="M1059,621.69c-16.49,0-29.41,21.33-29.41,48.55s12.92,48.55,29.41,48.55,29.4-21.32,29.4-48.55S1075.51,621.69,1059,621.69Zm0,92.1c-13.48,0-24.41-19.5-24.41-43.55s10.93-43.55,24.41-43.55,24.4,19.5,24.4,43.55S1072.5,713.79,1059,713.79Z" transform="translate(0 0)"/><path class="cls-29" d="M1278.46,716.29c-15.09,0-26.91-20.23-26.91-46s11.82-46,26.91-46,26.9,20.23,26.9,46S1293.54,716.29,1278.46,716.29Zm0-76.75c-8.73,0-16.11,14.06-16.11,30.7s7.38,30.7,16.11,30.7,16.1-14.06,16.1-30.7S1287.19,639.54,1278.46,639.54Z" transform="translate(0 0)"/><path class="cls-7" d="M1278.46,621.69c-16.49,0-29.41,21.33-29.41,48.55s12.92,48.55,29.41,48.55,29.4-21.32,29.4-48.55S1294.94,621.69,1278.46,621.69Zm0,92.1c-13.48,0-24.41-19.5-24.41-43.55s10.93-43.55,24.41-43.55,24.4,19.5,24.4,43.55S1291.93,713.79,1278.46,713.79Z" transform="translate(0 0)"/><path class="cls-7" d="M1278.46,637c-10.28,0-18.61,14.86-18.61,33.2s8.33,33.2,18.61,33.2,18.6-14.86,18.6-33.2S1288.73,637,1278.46,637Zm0,61.4c-6.44,0-13.61-11.58-13.61-28.2S1272,642,1278.46,642s13.6,11.58,13.6,28.2S1284.89,698.44,1278.46,698.44Z" transform="translate(0 0)"/><path class="cls-25" d="M1318.4,591.37c0-21.07-12.1-39-29.12-46.07a47.88,47.88,0,0,0-4.47-15.13c-.12-1.23-.91-2.79-2.49-4.74C1271.09,506,1247.46,487.29,1217,476c-49.52-18.42-98.29-10.18-108.92,18.41-.07.18-.13.38-.19.57a50.39,50.39,0,0,0-11.89-1.42c-31.16,0-49.26,31.65-49.26,66.78,0,1.51,0,3,.07,4.45a44,44,0,1,0,54.7,58,69,69,0,0,0,25-6.37c14.83-6.86,25.9-18,31.69-30.38a108.09,108.09,0,0,0,20.1,14.93c17.58,10.15,36.4,14.65,53.33,13.92,1.94,11.81,8.51,22.32,19,28.41,19.84,11.45,46.22,2.89,58.94-19.13a50.46,50.46,0,0,0,5.8-15.36A53.18,53.18,0,0,0,1318.4,591.37Z" transform="translate(0 0)"/><path class="cls-7" d="M1060.7,653A46.46,46.46,0,0,1,1044.3,563c0-1,0-1.85,0-2.7,0-34.43,17.78-69.28,51.76-69.28a53.41,53.41,0,0,1,10.32,1c5.89-13.9,20.45-23.45,41.22-27,21-3.54,46-.51,70.33,8.55,29.69,11,54.52,29.87,66.48,50.38a12.56,12.56,0,0,1,2.84,5.43,51,51,0,0,1,4.35,14.13c17.6,7.95,29.32,27,29.32,47.8a55.64,55.64,0,0,1-3,18,52.87,52.87,0,0,1-6.06,16c-13.38,23.18-41.35,32.17-62.35,20a42.09,42.09,0,0,1-19.86-28c-17.37.29-35.94-4.75-52.52-14.32a111.17,111.17,0,0,1-18.11-13c-6.57,12.13-17.6,22.2-31.38,28.58a71.37,71.37,0,0,1-24.38,6.48A46.22,46.22,0,0,1,1060.7,653ZM1096,496c-30.7,0-46.76,32.33-46.76,64.28,0,1.48,0,2.93.07,4.37a2.51,2.51,0,0,1-1.71,2.45,41.47,41.47,0,1,0,51.59,54.68,2.5,2.5,0,0,1,2.18-1.57,66.39,66.39,0,0,0,24.13-6.13c13.83-6.41,24.66-16.77,30.47-29.18a2.5,2.5,0,0,1,4-.76,105.26,105.26,0,0,0,19.64,14.58c16.46,9.5,34.92,14.33,52,13.59a2.48,2.48,0,0,1,2.57,2.09c1.88,11.48,8.38,21.2,17.83,26.65,18.61,10.75,43.52,2.58,55.52-18.21a47.85,47.85,0,0,0,5.52-14.6,2,2,0,0,1,.09-.33,50.67,50.67,0,0,0,2.76-16.57c0-19.37-11.08-37-27.57-43.75a2.51,2.51,0,0,1-1.53-2,45.44,45.44,0,0,0-4.25-14.35,2.5,2.5,0,0,1-.23-.82c0-.34-.29-1.37-1.94-3.4a3.62,3.62,0,0,1-.22-.32c-11.36-19.61-35.28-37.69-64-48.37C1168,460.41,1120.6,468,1110.46,495.25l-.18.53a2.5,2.5,0,0,1-2.94,1.6A47.85,47.85,0,0,0,1096,496Z" transform="translate(0 0)"/><path class="cls-30" d="M1202.13,494.84A49.4,49.4,0,0,1,1214.75,508c15.56,23.72,8.1,56.12-16.66,72.37a55.73,55.73,0,0,1-17.39,7.56c17.07,12.18,41.13,13.05,60.4.41,24.77-16.25,32.23-48.65,16.66-72.37C1245.65,497.48,1223.17,489.72,1202.13,494.84Z" transform="translate(0 0)"/><path class="cls-30" d="M1125.13,580.69a33.81,33.81,0,0,1-12.11,3.15c-19.45,1.35-36.36-14-37.77-34.31a37.83,37.83,0,0,1,1.31-13c-13,6.13-21.65,20.26-20.55,36.06,1.41,20.3,18.33,35.66,37.78,34.31C1108.92,605.89,1121.13,595,1125.13,580.69Z" transform="translate(0 0)"/><path class="cls-24" d="M1030.06,894.24a24,24,0,0,0-33.94,0l-72.9,72.89-.69.71c-3.76,3.76-10.3,8.12-13.69,8.36-2.24.16-8.19.6-19.26-10.48-3.67-3.67-21.78-21.84-87.25-87.57l-3.64-3.66a24,24,0,0,0-34,0,24,24,0,0,0,0,33.91L768.3,912c65.51,65.77,83.65,84,87.33,87.65,17.9,17.9,36.44,25.89,56.68,24.42,21.88-1.58,39.31-17.43,44.13-22.25l1-1,72.64-72.65A24,24,0,0,0,1030.06,894.24Z" transform="translate(0 0)"/><path class="cls-26" d="M808.39,887.94c-4.58-4.58-11.65-9.2-19.17-13.39-6.91-1.4-14,.27-19,5.23l0,0c-8.34,8.33-7.53,22.67,1.82,32.05L808.09,948l5.51-5.51a7.57,7.57,0,0,0,1.22-1.62C826.21,926.11,823.74,903.3,808.39,887.94Z" transform="translate(0 0)"/><rect class="cls-26" x="993.07" y="899.71" width="20.8" height="42.24" transform="translate(-357.22 979.26) rotate(-45)"/><path class="cls-7" d="M994.08,892.2l-72.86,72.86-.06.07-.51.51-.16.17c-3.87,3.87-9.75,7.37-11.86,7.52-1.7.12-6.87.5-17-9.65-5.08-5.07-34.43-34.53-87.24-87.57l-3.65-3.66a26.91,26.91,0,0,0-38.05,0h0a26.92,26.92,0,0,0,0,38l3.63,3.65c52.85,53.07,82.24,82.56,87.34,87.66,18.52,18.52,37.79,26.79,58.92,25.26,22.87-1.66,41-18.1,46-23.1.39-.38.71-.71,1-1l72.61-72.6a26.88,26.88,0,0,0-38-38ZM1028,926.14l-72.65,72.65-1,1c-4.64,4.64-21.41,19.91-42.3,21.42-19.35,1.4-37.16-6.31-54.43-23.58C854,994,835.85,975.75,770.34,910l-3.63-3.64a21.12,21.12,0,0,1,29.94-29.81l3.64,3.66c65.47,65.73,83.58,83.91,87.25,87.58,12,12,18.91,11.5,21.51,11.32,4.53-.33,11.78-5.47,15.52-9.2.07-.08.15-.15.23-.23l.5-.52,72.86-72.86A21.12,21.12,0,1,1,1028,926.14Z" transform="translate(0 0)"/><path class="cls-14" d="M995.8,894.38l89.72-89.72a26.51,26.51,0,0,0,31.24-4.53c.1-.1.19-.21.29-.32l35.54,35.55-107.91,107.9Z" transform="translate(0 0)"/><polygon class="cls-10" points="1069.7 822.65 1069.7 841.59 1127.95 841.59 1127.95 853.39 1050.82 934.3 1050.82 884.93 1010.33 884.93 1069.7 822.65"/><path class="cls-7" d="M1154.62,837.39,1046.72,945.3a2.89,2.89,0,0,1-4.07,0l-48.89-48.88a2.9,2.9,0,0,1,0-4.08l89.73-89.72a2.88,2.88,0,0,1,3.4-.5,23.7,23.7,0,0,0,27.83-4l.26-.28a2.75,2.75,0,0,1,2-.87,2.82,2.82,0,0,1,2,.84l35.54,35.54A2.87,2.87,0,0,1,1154.62,837.39Zm-109.94,101.8,103.83-103.83L1117,803.83a29.56,29.56,0,0,1-30.88,4.32l-86.23,86.23Z" transform="translate(0 0)"/><path class="cls-24" d="M749.29,963.83a9.47,9.47,0,0,1,0-13.35l19.26-19.26c-.11,0-.1-.17-.21-.2l-34.43,34.43a9.46,9.46,0,0,1-13.34,0h0a9.46,9.46,0,0,1,0-13.34L755,917.68c-.19-.16-.33-.36-.51-.52l-43.42,43.42a9.46,9.46,0,0,1-13.34,0h0a9.47,9.47,0,0,1,0-13.35l43.41-43.41c-.07-.18-.3-.19-.37-.37l-33.4,33.41a9.47,9.47,0,0,1-13.35,0h0a9.47,9.47,0,0,1,0-13.35l54.64-55.15-17.06-8a9.47,9.47,0,0,1-4.54-12.55h0a9.46,9.46,0,0,1,12.55-4.54s41.14,13.48,55.71,28.05a42.07,42.07,0,0,1,3.57,55.82,9.13,9.13,0,0,1-1.39,1.8l-34.87,34.87A9.46,9.46,0,0,1,749.29,963.83Z" transform="translate(0 0)"/><path class="cls-7" d="M799.54,931l-34.87,34.87a12.32,12.32,0,0,1-20.79-6.3L736,967.49a12.31,12.31,0,0,1-20.88-6.84l-2,2a12.32,12.32,0,0,1-17.42-17.42l2.89-2.89A12.31,12.31,0,0,1,692,921.47l51.74-52.23L730.38,863a12.32,12.32,0,0,1,10.28-22.39c3.22,1.07,42.12,14.13,56.7,28.7a44.92,44.92,0,0,1,3.9,59.51A11.65,11.65,0,0,1,799.54,931Zm-48.21,21.53a6.55,6.55,0,0,0,9.27,9.27l34.87-34.87a6.55,6.55,0,0,0,1-1.25,2.73,2.73,0,0,1,.21-.3,39.15,39.15,0,0,0-3.35-52c-13.92-13.92-54.18-27.22-54.58-27.35l-.33-.13a6.55,6.55,0,0,0-5.56,11.87l17.06,8a2.88,2.88,0,0,1,.82,4.63l-54.63,55.15a6.55,6.55,0,1,0,9.26,9.28l33.41-33.41a2.87,2.87,0,0,1,2.67-.77,2.9,2.9,0,0,1,1.43.8,3.18,3.18,0,0,1,1,1.4,2.89,2.89,0,0,1-.67,3l-43.42,43.41a6.56,6.56,0,0,0,9.28,9.27l43.41-43.41a2.88,2.88,0,0,1,3.89-.17,6.5,6.5,0,0,1,.53.52,2.8,2.8,0,0,1,1,2.07,2.91,2.91,0,0,1-.86,2.17L722.6,954.15a6.56,6.56,0,0,0,9.28,9.27L766.31,929a2.86,2.86,0,0,1,2.65-.78,3.2,3.2,0,0,1,1.55.91,2.85,2.85,0,0,1,.8,1.28,2.89,2.89,0,0,1-.73,2.86Zm17.8-24.12Zm0,0h0Z" transform="translate(0 0)"/><path class="cls-7" d="M772.93,887.31c-.1,0-9.81,2.52-16-2.4-3.88-3.09-5.7-8.62-5.43-16.45a2.88,2.88,0,1,0-5.75-.2c-.34,9.77,2.22,16.89,7.62,21.18,8.46,6.72,20.51,3.57,21,3.44a2.88,2.88,0,0,0-1.49-5.57Z" transform="translate(0 0)"/><path class="cls-7" d="M760.59,848.14A2.88,2.88,0,0,0,757,850l-3.07,9.51a2.88,2.88,0,0,0,4.78,2.92,2.92,2.92,0,0,0,.7-1.15l3.07-9.5A2.88,2.88,0,0,0,760.59,848.14Z" transform="translate(0 0)"/><path class="cls-7" d="M725,905.71l-5.18-5.18a2.88,2.88,0,0,0-4.07,4.08l5.18,5.17a2.88,2.88,0,0,0,4.07-4.07Z" transform="translate(0 0)"/><path class="cls-7" d="M720.37,920.52a2.87,2.87,0,0,0,0,4.07l6.91,6.92a2.88,2.88,0,0,0,4.08-4.08l-6.92-6.91A2.87,2.87,0,0,0,720.37,920.52Z" transform="translate(0 0)"/><path class="cls-7" d="M739.43,929.17a2.9,2.9,0,0,0,0,4.08l7.31,7.31a2.88,2.88,0,0,0,4.08-4.07l-7.32-7.32A2.89,2.89,0,0,0,739.43,929.17Z" transform="translate(0 0)"/><path class="cls-7" d="M758.86,936.84a2.89,2.89,0,0,0,0,4.07l7.34,7.34a2.88,2.88,0,0,0,4.08-4.07l-7.35-7.34A2.87,2.87,0,0,0,758.86,936.84Z" transform="translate(0 0)"/><path class="cls-24" d="M1442.64,600c-3-4.28-17.62-25.39-70.6-101.61l-2.94-4.23a24,24,0,0,0-39.42,27.41l3,4.24c52.95,76.17,67.59,97.24,70.54,101.51,8.91,12.88,7.43,18.65,6.86,20.83-.84,3.29-6.3,9-10.67,12l-.83.55-84.76,58.67a24,24,0,1,0,27.32,39.47l84.47-58.46c.33-.22.72-.48,1.16-.79,5.61-3.88,24.32-18.19,29.8-39.43C1461.59,640.49,1457.05,620.82,1442.64,600Z" transform="translate(0 0)"/><path class="cls-26" d="M1371.23,502c-7.56-10.87-21.52-14.23-31.21-7.53l0,0c-5.76,4-8.68,10.68-8.54,17.73,2.77,8.15,6.06,15.93,9.75,21.26,12.35,17.85,34.36,24.37,51,15.81a7.68,7.68,0,0,0,1.81-.91l6.41-4.44C1385,521.85,1371.52,502.47,1371.23,502Z" transform="translate(0 0)"/><rect class="cls-26" x="1328.21" y="710.22" width="20.8" height="42.24" transform="translate(-178.3 891.75) rotate(-34.69)"/><path class="cls-7" d="M1305.32,754.39a26.91,26.91,0,0,0,37.4,6.8l84.44-58.43,1.2-.82c5.82-4,25.23-18.87,31-41.08,5.29-20.51.61-41-14.3-62.49-4.1-5.93-27.86-40.12-70.61-101.62l-2.94-4.22a26.92,26.92,0,0,0-37.37-6.76h0a26.92,26.92,0,0,0-6.76,37.44l3,4.24c42.72,61.45,66.45,95.61,70.53,101.51,8.17,11.8,6.87,16.82,6.45,18.47-.53,2-5,7.21-9.53,10.32l-.19.13-.6.4-.08.06L1312.13,717A26.92,26.92,0,0,0,1305.32,754.39Zm4.74-3.28a21.15,21.15,0,0,1,5.34-29.39l84.73-58.64.6-.4.27-.18c4.34-3,10.69-9.22,11.82-13.62.65-2.53,2.38-9.23-7.28-23.19-3-4.27-17.59-25.34-70.54-101.52l-3-4.24a21.12,21.12,0,1,1,34.68-24.11l2.94,4.22c53,76.22,67.64,97.33,70.61,101.61,13.89,20.08,18.3,39,13.45,57.77-5.23,20.28-23.25,34.05-28.64,37.78l-1.16.79-84.48,58.47A21.16,21.16,0,0,1,1310.06,751.11Z" transform="translate(0 0)"/><path class="cls-14" d="M1314,719.06l-104.34,72.21a26.51,26.51,0,0,1-10.05,29.92l-.36.23,28.6,41.33,125.49-86.84Z" transform="translate(0 0)"/><path class="cls-10" d="M1210.56,792.55a30.6,30.6,0,0,1-4.12,23.22l83.31,2.65,62.07-41.53-7.15-10.69-90.42-2.88Z" transform="translate(0 0)"/><path class="cls-7" d="M1225.46,864.39l-28.61-41.33a2.9,2.9,0,0,1-.46-2.18,2.81,2.81,0,0,1,1.22-1.85l.33-.21a23.69,23.69,0,0,0,9-26.66,2.88,2.88,0,0,1,1.1-3.26l104.34-72.2a2.87,2.87,0,0,1,4,.72l39.34,56.85a2.87,2.87,0,0,1-.73,4l-125.48,86.85A2.88,2.88,0,0,1,1225.46,864.39Zm87.78-141.32L1213,792.47a29.54,29.54,0,0,1-9.78,29.6l25.37,36.67,120.75-83.56Z" transform="translate(0 0)"/><path class="cls-24" d="M1426.43,489a9.46,9.46,0,0,0-13.13-2.39l-22.4,15.5c0-.12-.16-.13-.16-.24l40-27.71a9.47,9.47,0,0,0,2.39-13.13h0a9.47,9.47,0,0,0-13.13-2.39l-40,27.71c-.12-.21-.29-.38-.41-.59l50.48-34.94a9.47,9.47,0,0,0,2.39-13.13h0a9.47,9.47,0,0,0-13.13-2.39l-50.48,34.94c-.17-.1-.13-.34-.3-.43l38.84-26.89a9.45,9.45,0,0,0,2.39-13.12h0a9.46,9.46,0,0,0-13.13-2.39l-64,43.87-4.8-18.2a9.47,9.47,0,0,0-11.53-6.72h0a9.46,9.46,0,0,0-6.72,11.53s5.89,42.89,17.62,59.84a42.1,42.1,0,0,0,54.28,13.51,9.71,9.71,0,0,0,2-1.05L1424,502.1A9.48,9.48,0,0,0,1426.43,489Z" transform="translate(0 0)"/><path class="cls-7" d="M1382.67,533.83a44.91,44.91,0,0,1-57.85-14.49c-11.73-17-17.61-57.56-18.08-60.92a12.32,12.32,0,0,1,23.86-6.11l3.76,14.26L1395,425a12.32,12.32,0,0,1,19.33,10.21l3.35-2.32a12.32,12.32,0,0,1,14,20.26l-2.28,1.58a12.3,12.3,0,0,1,3,21.76l-9.23,6.39a12.19,12.19,0,0,1,5.6,4.44,12.33,12.33,0,0,1-3.12,17.14l-40.55,28.06A12.15,12.15,0,0,1,1382.67,533.83Zm9.87-29.39a2.87,2.87,0,0,1-3,.2,2.82,2.82,0,0,1-1.11-1,3.18,3.18,0,0,1-.62-1.69,2.89,2.89,0,0,1,1.24-2.48l40-27.71a6.55,6.55,0,0,0-7.46-10.78l-40,27.71a2.83,2.83,0,0,1-2.29.46,2.78,2.78,0,0,1-1.85-1.39,4.89,4.89,0,0,1-.41-.6,2.87,2.87,0,0,1,.86-3.8l50.48-34.94a6.55,6.55,0,0,0-7.46-10.78l-50.48,34.94a2.9,2.9,0,0,1-3.09.12,3.14,3.14,0,0,1-1.2-1.25,3,3,0,0,1-.53-1.54,2.88,2.88,0,0,1,1.24-2.5l38.85-26.88a6.56,6.56,0,1,0-7.48-10.78l-64,43.88a2.89,2.89,0,0,1-4.42-1.64l-4.8-18.21a6.56,6.56,0,0,0-12.68,3.34,2.17,2.17,0,0,1,.07.35c.06.42,5.94,42.41,17.14,58.59a39.16,39.16,0,0,0,50.55,12.61,2.52,2.52,0,0,1,.34-.15,6.38,6.38,0,0,0,1.4-.73l40.55-28.06a6.56,6.56,0,1,0-7.47-10.78Zm-4.52-2.29Zm0,0h0Z" transform="translate(0 0)"/><path class="cls-7" d="M1346.91,498.53c0-.09,4.24-9.2.5-16.15-2.35-4.36-7.46-7.15-15.21-8.28a2.88,2.88,0,0,1,.83-5.7c9.67,1.42,16.22,5.21,19.47,11.29,5.1,9.53-.15,20.83-.38,21.3a2.8,2.8,0,0,1-1,1.13,2.88,2.88,0,0,1-4.25-3.59Z" transform="translate(0 0)"/><path class="cls-7" d="M1310.58,479.38a2.89,2.89,0,0,1,2.48-3.24l9.9-1.32a2.88,2.88,0,1,1,.76,5.71l-9.9,1.32A2.88,2.88,0,0,1,1310.58,479.38Z" transform="translate(0 0)"/><path class="cls-7" d="M1373.59,454.68l-4.16-6a2.88,2.88,0,1,1,4.73-3.27l4.17,6a2.88,2.88,0,0,1-4.74,3.27Z" transform="translate(0 0)"/><path class="cls-7" d="M1389,452.76a2.87,2.87,0,0,1,4,.73l5.57,8a2.88,2.88,0,0,1-4.74,3.28l-5.56-8A2.88,2.88,0,0,1,1389,452.76Z" transform="translate(0 0)"/><path class="cls-7" d="M1394.1,473.07a2.87,2.87,0,0,1,4,.72l5.89,8.51a2.88,2.88,0,0,1-4.74,3.28l-5.88-8.51A2.86,2.86,0,0,1,1394.1,473.07Z" transform="translate(0 0)"/><path class="cls-7" d="M1398.16,493.55a2.87,2.87,0,0,1,4,.73l5.91,8.54a2.88,2.88,0,1,1-4.73,3.28l-5.91-8.54A2.88,2.88,0,0,1,1398.16,493.55Z" transform="translate(0 0)"/><path class="cls-24" d="M1011.07,719.35,926.3,660.68l-.83-.55c-4.37-3-9.83-8.68-10.67-12-.56-2.18-2-7.95,6.86-20.83,3-4.27,17.59-25.34,70.54-101.51l2.95-4.24a24,24,0,0,0-39.42-27.41l-2.93,4.23c-53,76.22-67.65,97.33-70.61,101.61-14.41,20.81-18.94,40.48-13.88,60.13,5.48,21.24,24.19,35.55,29.8,39.43.44.31.83.57,1.16.79l84.48,58.46a24,24,0,0,0,27.32-39.47Z" transform="translate(0 0)"/><path class="cls-26" d="M984.85,494.54l0,0c-9.69-6.7-23.65-3.34-31.2,7.53L924.46,544l6.41,4.44a7.68,7.68,0,0,0,1.81.91c16.6,8.56,38.61,2,51-15.81,3.69-5.33,7-13.11,9.75-21.26C993.53,505.22,990.61,498.55,984.85,494.54Z" transform="translate(0 0)"/><rect class="cls-26" x="965.09" y="720.94" width="42.24" height="20.8" transform="translate(-176.39 1126.09) rotate(-55.31)"/><path class="cls-7" d="M1012.71,717,928,658.35l-.08-.06-.6-.4-.19-.13c-4.5-3.11-9-8.28-9.52-10.32-.43-1.65-1.72-6.67,6.44-18.47,4.08-5.9,27.82-40.06,70.53-101.51l3-4.24a26.92,26.92,0,0,0-6.76-37.44h0a26.92,26.92,0,0,0-37.37,6.76l-2.94,4.22c-42.75,61.5-66.51,95.69-70.61,101.62-14.91,21.54-19.58,42-14.3,62.49,5.73,22.21,25.14,37.06,31,41.08l1.2.82,84.44,58.43a26.88,26.88,0,0,0,30.6-44.21Zm-27.32,39.48L900.91,698c-.36-.24-.74-.49-1.16-.79-5.4-3.73-23.42-17.5-28.65-37.78-4.84-18.79-.44-37.69,13.46-57.77,3-4.28,17.62-25.39,70.6-101.61l2.94-4.22a21.12,21.12,0,1,1,34.68,24.11l-2.94,4.24c-53,76.18-67.59,97.25-70.55,101.52-9.66,14-7.93,20.66-7.28,23.19,1.13,4.4,7.48,10.61,11.82,13.62l.27.18.6.4,84.73,58.64a21.12,21.12,0,1,1-24,34.74Z" transform="translate(0 0)"/><path class="cls-14" d="M1010.87,719.06l104.33,72.21a26.51,26.51,0,0,0,10,29.92l.36.23L1097,862.75,971.53,775.91Z" transform="translate(0 0)"/><path class="cls-10" d="M1114.27,792.55a30.6,30.6,0,0,0,4.12,23.22l-83.31,2.65L973,776.89l7.15-10.69,90.43-2.88Z" transform="translate(0 0)"/><path class="cls-7" d="M1095.37,865.12,969.89,778.27a2.87,2.87,0,0,1-.73-4l39.34-56.85a2.87,2.87,0,0,1,4-.72l104.34,72.2a2.88,2.88,0,0,1,1.1,3.26,23.69,23.69,0,0,0,9,26.66l.33.21a2.74,2.74,0,0,1,1.22,1.85,2.9,2.9,0,0,1-.46,2.18l-28.61,41.33A2.88,2.88,0,0,1,1095.37,865.12ZM975.53,775.18l120.75,83.56,25.37-36.67a29.54,29.54,0,0,1-9.78-29.6l-100.28-69.4Z" transform="translate(0 0)"/><path class="cls-24" d="M898.41,489a9.46,9.46,0,0,1,13.13-2.39l22.39,15.5c0-.12.16-.13.16-.24l-40-27.71A9.47,9.47,0,0,1,891.66,461h0a9.48,9.48,0,0,1,13.13-2.39l40,27.71c.12-.21.29-.38.41-.59l-50.48-34.94a9.47,9.47,0,0,1-2.39-13.13h0a9.47,9.47,0,0,1,13.13-2.39L956,470.21c.16-.1.12-.34.29-.43l-38.84-26.89a9.45,9.45,0,0,1-2.39-13.12h0a9.46,9.46,0,0,1,13.13-2.39l64,43.87,4.81-18.2a9.46,9.46,0,0,1,11.53-6.72h0a9.46,9.46,0,0,1,6.71,11.53s-5.89,42.89-17.62,59.84a42.09,42.09,0,0,1-54.28,13.51,9.4,9.4,0,0,1-2-1.05L900.8,502.1A9.46,9.46,0,0,1,898.41,489Z" transform="translate(0 0)"/><path class="cls-7" d="M939.71,532.53l-40.55-28.06a12.31,12.31,0,0,1,2.48-21.58l-9.23-6.39a12.3,12.3,0,0,1,3-21.76l-2.28-1.58a12.32,12.32,0,1,1,14-20.26l3.35,2.32A12.32,12.32,0,0,1,929.82,425l60.65,41.56,3.76-14.26a12.32,12.32,0,0,1,23.86,6.11c-.47,3.36-6.35,44-18.08,60.92a44.91,44.91,0,0,1-57.85,14.49A12.15,12.15,0,0,1,939.71,532.53ZM909.9,489a6.55,6.55,0,0,0-7.46,10.78L943,527.79a6.3,6.3,0,0,0,1.39.73,2.07,2.07,0,0,1,.34.15,39.16,39.16,0,0,0,50.55-12.61c11.2-16.18,17.08-58.17,17.14-58.59,0-.12,0-.23.07-.35a6.56,6.56,0,0,0-12.68-3.34L995,472a2.88,2.88,0,0,1-4.41,1.64l-64-43.88a6.56,6.56,0,1,0-7.47,10.78l38.84,26.88a2.88,2.88,0,0,1,1.24,2.5,3,3,0,0,1-.53,1.54,3.19,3.19,0,0,1-1.19,1.25,2.9,2.9,0,0,1-3.09-.12l-50.49-34.94a6.55,6.55,0,0,0-7.46,10.78l50.48,34.94a2.87,2.87,0,0,1,.86,3.8,4.89,4.89,0,0,1-.41.6,2.78,2.78,0,0,1-1.85,1.39,2.84,2.84,0,0,1-2.29-.46l-40-27.71a6.55,6.55,0,0,0-7.46,10.78l40,27.71A2.89,2.89,0,0,1,937,502a3.18,3.18,0,0,1-.62,1.69,2.82,2.82,0,0,1-1.11,1,2.87,2.87,0,0,1-3-.2Zm26.91,13.2Zm0,0h0Z" transform="translate(0 0)"/><path class="cls-7" d="M977.92,498.53c0-.09-4.24-9.2-.5-16.15,2.35-4.36,7.46-7.15,15.21-8.28a2.88,2.88,0,1,0-.83-5.7c-9.67,1.42-16.22,5.21-19.47,11.29-5.1,9.53.16,20.83.38,21.3a2.88,2.88,0,0,0,5.21-2.46Z" transform="translate(0 0)"/><path class="cls-7" d="M1014.25,479.38a2.89,2.89,0,0,0-2.47-3.24l-9.9-1.32a2.88,2.88,0,0,0-2,5.23,2.84,2.84,0,0,0,1.25.48l9.9,1.32A2.88,2.88,0,0,0,1014.25,479.38Z" transform="translate(0 0)"/><path class="cls-7" d="M951.24,454.68l4.17-6a2.88,2.88,0,0,0-4.74-3.27l-4.17,6a2.88,2.88,0,0,0,4.74,3.27Z" transform="translate(0 0)"/><path class="cls-7" d="M935.84,452.76a2.89,2.89,0,0,0-4,.73l-5.57,8a2.88,2.88,0,1,0,4.74,3.28l5.57-8A2.9,2.9,0,0,0,935.84,452.76Z" transform="translate(0 0)"/><path class="cls-7" d="M930.74,473.07a2.88,2.88,0,0,0-4,.72l-5.89,8.51a2.88,2.88,0,1,0,4.74,3.28l5.88-8.51A2.87,2.87,0,0,0,930.74,473.07Z" transform="translate(0 0)"/><path class="cls-7" d="M926.67,493.55a2.87,2.87,0,0,0-4,.73l-5.91,8.54a2.88,2.88,0,1,0,4.73,3.28l5.91-8.54A2.88,2.88,0,0,0,926.67,493.55Z" transform="translate(0 0)"/><path class="cls-13" d="M949.61,598q-1.2,0-2.43-.06a2.49,2.49,0,0,1-1.94-3.92l5-7.17a2.53,2.53,0,0,1,1.57-1c5.21-1,8.81-3.41,10.15-6.72,1.5-3.73.18-8.47-3.73-13.34-4.24-5.27-10.89-9.92-18.73-13.07a49.82,49.82,0,0,0-18.33-3.82c-8.29,0-14.33,2.72-16.16,7.28a10.22,10.22,0,0,0,.38,7.8,2.48,2.48,0,0,1-.27,2.37l-4.82,6.94a2.5,2.5,0,0,1-2,1.07h-.08a2.5,2.5,0,0,1-2-1c-6.31-8-8.27-16.15-5.52-23,3.32-8.25,13.25-13.17,26.56-13.17a71.28,71.28,0,0,1,26.21,5.43c24,9.65,38.29,28.17,32.66,42.17C972.85,593.11,962.92,598,949.61,598Z" transform="translate(0 0)"/><path class="cls-7" d="M972.37,560c-6.43-8-16.35-15-27.92-19.65a73.71,73.71,0,0,0-27.14-5.61c-14.37,0-25.16,5.51-28.88,14.74-3.1,7.68-1,16.72,5.87,25.45a5,5,0,0,0,3.93,1.9h.15a5,5,0,0,0,4-2.15l4.82-6.94a5,5,0,0,0,.53-4.73,7.89,7.89,0,0,1-.39-5.93c1.42-3.52,6.73-5.71,13.85-5.71a47.18,47.18,0,0,1,17.4,3.64c7.33,3,13.79,7.44,17.71,12.32,3.27,4.07,4.5,8,3.36,10.83-1.36,3.38-5.79,4.72-8.31,5.21a5,5,0,0,0-3.14,2.05l-4.59,6.6-.39.57a5,5,0,0,0,3.89,7.85c.85,0,1.7.06,2.53.06,14.37,0,25.17-5.51,28.88-14.73C981.64,578,979.46,568.85,972.37,560Zm1.49,23.9c-3.05,7.57-12.4,11.6-24.25,11.6-.76,0-1.54,0-2.32,0l5-7.17c5.86-1.15,10.26-3.95,12-8.25,3.84-9.53-6.84-22.81-23.84-29.66a52.49,52.49,0,0,0-19.27-4c-9,0-16.16,3.07-18.48,8.84a12.72,12.72,0,0,0,.38,9.68l-4.82,6.94c-5.49-7-7.65-14.32-5.16-20.49,3-7.57,12.39-11.6,24.24-11.6A68.83,68.83,0,0,1,942.58,545C964.89,554,978.89,571.43,973.86,583.93Z" transform="translate(0 0)"/><path class="cls-18" d="M936.48,616.55c-.8,0-1.61,0-2.43,0a2.5,2.5,0,0,1-1.94-3.92l5-7.17a2.53,2.53,0,0,1,1.57-1c5.21-1,8.81-3.41,10.15-6.72,1.5-3.74.18-8.47-3.74-13.34-4.24-5.27-10.89-9.92-18.72-13.08A50,50,0,0,0,908,567.42c-8.29,0-14.33,2.73-16.17,7.29a10.23,10.23,0,0,0,.39,7.8,2.51,2.51,0,0,1-.27,2.36l-4.82,6.94a2.53,2.53,0,0,1-2,1.08h-.07a2.52,2.52,0,0,1-2-.95c-6.3-8-8.26-16.15-5.51-23,3.32-8.25,13.25-13.17,26.56-13.17a71.28,71.28,0,0,1,26.21,5.43c24,9.65,38.29,28.17,32.65,42.16C959.72,611.63,949.79,616.55,936.48,616.55Z" transform="translate(0 0)"/><path class="cls-7" d="M959.24,578.55c-6.43-8-16.35-15-27.92-19.64a73.71,73.71,0,0,0-27.14-5.61c-14.37,0-25.16,5.51-28.88,14.73-3.1,7.69-1,16.73,5.87,25.46a5,5,0,0,0,3.93,1.9h.15a5,5,0,0,0,4-2.15L894,586.3a5,5,0,0,0,.53-4.73,7.8,7.8,0,0,1-.39-5.93c1.42-3.53,6.73-5.71,13.85-5.72a47.3,47.3,0,0,1,17.39,3.64c7.34,3,13.8,7.45,17.72,12.33,3.27,4.07,4.49,8,3.36,10.83-1.36,3.38-5.79,4.71-8.31,5.21A5,5,0,0,0,935,604l-4.58,6.6-.4.57A5,5,0,0,0,934,619c.85,0,1.7,0,2.53,0,14.37,0,25.17-5.5,28.88-14.72C968.51,596.53,966.33,587.38,959.24,578.55Zm1.49,23.91c-3.06,7.57-12.4,11.59-24.25,11.59-.76,0-1.54,0-2.32,0l5-7.16c5.86-1.16,10.25-4,12-8.25,3.84-9.53-6.84-22.81-23.85-29.66a52.27,52.27,0,0,0-19.26-4c-9,0-16.16,3.08-18.49,8.85a12.77,12.77,0,0,0,.39,9.68l-4.82,6.94c-5.49-7-7.65-14.32-5.16-20.49,3-7.57,12.39-11.6,24.24-11.6a68.63,68.63,0,0,1,25.27,5.25C951.76,572.54,965.76,590,960.73,602.46Z" transform="translate(0 0)"/><path class="cls-24" d="M1560.12,874.45a24,24,0,0,0-34,0l-3.64,3.66c-65.47,65.73-83.58,83.9-87.25,87.57-11.07,11.08-17,10.64-19.26,10.48-3.39-.24-9.93-4.6-13.69-8.36l-.69-.71-72.9-72.89a24,24,0,0,0-33.94,33.94l72.65,72.65,1,1c4.82,4.82,22.24,20.67,44.12,22.25,20.24,1.47,38.78-6.52,56.68-24.42,3.68-3.68,21.82-21.88,87.33-87.65l3.63-3.65A24,24,0,0,0,1560.12,874.45Z" transform="translate(0 0)"/><path class="cls-26" d="M1554.62,879.81l0,0c-5-5-12.06-6.63-19-5.23-7.53,4.19-14.6,8.81-19.18,13.39-15.35,15.36-17.82,38.17-6.43,53a7.57,7.57,0,0,0,1.22,1.62l5.51,5.51,36.06-36.18C1562.14,902.48,1563,888.14,1554.62,879.81Z" transform="translate(0 0)"/><rect class="cls-26" x="1300.24" y="910.43" width="42.24" height="20.8" transform="translate(-264.11 1204.05) rotate(-45)"/><path class="cls-7" d="M1292.73,892.2a26.92,26.92,0,0,0,0,38l72.61,72.6c.31.33.64.66,1,1,5,5,23.08,21.44,46,23.1,21.13,1.53,40.4-6.74,58.92-25.26,5.1-5.1,34.49-34.59,87.34-87.66l3.63-3.65a26.91,26.91,0,0,0,0-38h0a26.91,26.91,0,0,0-38.05,0l-3.64,3.66c-52.82,53-82.17,82.5-87.24,87.57-10.15,10.15-15.32,9.77-17,9.65-2.11-.15-8-3.65-11.86-7.52l-.16-.17-.5-.51-.07-.07-72.86-72.86A26.92,26.92,0,0,0,1292.73,892.2Zm4.07,4.07a21.17,21.17,0,0,1,29.88,0l72.85,72.86.51.52c.07.08.15.15.23.23,3.73,3.73,11,8.87,15.51,9.2,2.6.18,9.5.68,21.51-11.32,3.67-3.67,21.78-21.85,87.25-87.58l3.64-3.66a21.12,21.12,0,0,1,29.94,29.81l-3.63,3.64c-65.51,65.78-83.65,84-87.33,87.66-17.27,17.27-35.07,25-54.43,23.58-20.89-1.51-37.66-16.78-42.3-21.42l-1-1-72.65-72.65A21.15,21.15,0,0,1,1296.8,896.27Z" transform="translate(0 0)"/><path class="cls-14" d="M1329,894.38l-89.72-89.72a26.51,26.51,0,0,1-31.24-4.53c-.1-.1-.18-.21-.28-.32l-35.54,35.55,107.9,107.9Z" transform="translate(0 0)"/><polygon class="cls-10" points="1255.13 822.65 1255.13 841.59 1196.88 841.59 1196.88 853.39 1274.01 934.3 1274.01 884.93 1314.5 884.93 1255.13 822.65"/><path class="cls-7" d="M1170.21,833.32l35.54-35.54a2.84,2.84,0,0,1,2.06-.84,2.75,2.75,0,0,1,2,.87l.26.28a23.7,23.7,0,0,0,27.83,4,2.9,2.9,0,0,1,3.41.5l89.72,89.72a2.9,2.9,0,0,1,0,4.08l-48.88,48.88a2.9,2.9,0,0,1-4.08,0l-107.9-107.91A2.87,2.87,0,0,1,1170.21,833.32ZM1325,894.38l-86.23-86.23a29.57,29.57,0,0,1-30.88-4.32l-31.53,31.53,103.83,103.83Z" transform="translate(0 0)"/><path class="cls-24" d="M1575.54,963.83a9.47,9.47,0,0,0,0-13.35l-19.25-19.26c.11,0,.09-.17.2-.2l34.43,34.43a9.46,9.46,0,0,0,13.34,0h0a9.46,9.46,0,0,0,0-13.34l-34.43-34.43c.19-.16.33-.36.52-.52l43.41,43.42a9.46,9.46,0,0,0,13.34,0h0a9.47,9.47,0,0,0,0-13.35l-43.41-43.41c.07-.18.31-.19.37-.37l33.4,33.41a9.47,9.47,0,0,0,13.35,0h0a9.47,9.47,0,0,0,0-13.35l-54.63-55.15,17-8a9.47,9.47,0,0,0,4.54-12.55h0a9.45,9.45,0,0,0-12.54-4.54s-41.15,13.48-55.72,28.05a42.09,42.09,0,0,0-3.57,55.82,9.13,9.13,0,0,0,1.39,1.8l34.87,34.87A9.46,9.46,0,0,0,1575.54,963.83Z" transform="translate(0 0)"/><path class="cls-7" d="M1523.57,928.81a44.92,44.92,0,0,1,3.9-59.51c14.58-14.57,53.48-27.63,56.7-28.7A12.32,12.32,0,0,1,1594.45,863l-13.35,6.25,51.75,52.23a12.31,12.31,0,0,1-6.59,20.84l2.88,2.89a12.32,12.32,0,0,1-17.42,17.42l-2-2a12.31,12.31,0,0,1-20.88,6.84l-7.93-7.93a12.32,12.32,0,0,1-20.79,6.3L1525.29,931A11.65,11.65,0,0,1,1523.57,928.81Zm30.68,4.45a2.86,2.86,0,0,1-.72-2.86,2.83,2.83,0,0,1,.79-1.28,3.2,3.2,0,0,1,1.55-.91,2.86,2.86,0,0,1,2.65.78L1593,963.42a6.55,6.55,0,0,0,9.27-9.27l-34.43-34.43a2.88,2.88,0,0,1-.87-2.17,2.81,2.81,0,0,1,1-2.07,5.11,5.11,0,0,1,.52-.52,2.88,2.88,0,0,1,3.89.17l43.42,43.41a6.55,6.55,0,0,0,9.27-9.27l-43.42-43.41a2.89,2.89,0,0,1-.67-3,3.18,3.18,0,0,1,1-1.4,3,3,0,0,1,1.43-.8,2.89,2.89,0,0,1,2.68.77l33.4,33.41a6.55,6.55,0,1,0,9.26-9.28l-54.63-55.15a2.88,2.88,0,0,1,.82-4.63l17.06-8a6.55,6.55,0,0,0-5.56-11.87l-.33.13c-.4.13-40.66,13.43-54.57,27.35a39.14,39.14,0,0,0-3.36,52,2.73,2.73,0,0,1,.21.3,6.55,6.55,0,0,0,1,1.25l34.87,34.87a6.56,6.56,0,0,0,9.28-9.27Zm1.45-4.86Zm0,0h0Z" transform="translate(0 0)"/><path class="cls-7" d="M1551.9,887.31c.1,0,9.81,2.52,16-2.4,3.87-3.09,5.69-8.62,5.42-16.45a2.88,2.88,0,1,1,5.75-.2c.35,9.77-2.22,16.89-7.61,21.18-8.46,6.72-20.52,3.57-21,3.44a2.9,2.9,0,0,1-2-3.53A2.89,2.89,0,0,1,1551.9,887.31Z" transform="translate(0 0)"/><path class="cls-7" d="M1564.24,848.14a2.88,2.88,0,0,1,3.62,1.85l3.08,9.51a2.88,2.88,0,0,1-4.78,2.92,2.71,2.71,0,0,1-.7-1.15l-3.08-9.5A2.88,2.88,0,0,1,1564.24,848.14Z" transform="translate(0 0)"/><path class="cls-7" d="M1599.81,905.71l5.18-5.18a2.88,2.88,0,1,1,4.07,4.08l-5.17,5.17a2.88,2.88,0,1,1-4.08-4.07Z" transform="translate(0 0)"/><path class="cls-7" d="M1604.46,920.52a2.87,2.87,0,0,1,0,4.07l-6.91,6.92a2.88,2.88,0,1,1-4.07-4.08l6.91-6.91A2.87,2.87,0,0,1,1604.46,920.52Z" transform="translate(0 0)"/><path class="cls-7" d="M1585.4,929.17a2.89,2.89,0,0,1,0,4.08l-7.31,7.31a2.88,2.88,0,1,1-4.07-4.07l7.31-7.32A2.89,2.89,0,0,1,1585.4,929.17Z" transform="translate(0 0)"/><path class="cls-7" d="M1566,936.84a2.87,2.87,0,0,1,0,4.07l-7.34,7.34a2.88,2.88,0,0,1-4.08-4.07l7.35-7.34A2.87,2.87,0,0,1,1566,936.84Z" transform="translate(0 0)"/><path class="cls-18" d="M1506.94,980.1a47.54,47.54,0,0,1-12.44-1.79,2.5,2.5,0,0,1-1-4.26l6.44-5.89a2.52,2.52,0,0,1,1.69-.65h.78c3.5,0,8.19-.75,10.67-4.33,5-7.18-2.39-21.25-16.07-30.72-7.87-5.45-16.53-8.57-23.74-8.57-5,0-8.74,1.54-10.67,4.33a10.25,10.25,0,0,0-1.35,7.7,2.5,2.5,0,0,1-.78,2.25l-6.24,5.71a2.49,2.49,0,0,1-1.68.65,2.59,2.59,0,0,1-.48,0,2.53,2.53,0,0,1-1.78-1.38c-4.39-9.19-4.5-17.57-.31-23.62,3.65-5.28,10.31-8.18,18.74-8.18,10.62,0,23.17,4.47,34.43,12.27,9.91,6.86,17.75,15.52,22.08,24.37,4.55,9.32,4.72,17.83.47,24C1522,977.19,1515.37,980.1,1506.94,980.1Z" transform="translate(0 0)"/><path class="cls-7" d="M1527.44,946.86c-4.51-9.23-12.64-18.22-22.89-25.32-11.68-8.09-24.75-12.72-35.86-12.72-9.28,0-16.67,3.29-20.8,9.26-4.72,6.81-4.68,16.09.12,26.12a5,5,0,0,0,3.55,2.75,5.2,5.2,0,0,0,1,.09,5,5,0,0,0,3.37-1.31l6.24-5.71a5,5,0,0,0,1.56-4.49,7.86,7.86,0,0,1,.93-5.87c2-2.84,6.24-3.26,8.62-3.26,6.62,0,15,3,22.31,8.13,6.51,4.5,11.81,10.3,14.56,15.92,2.29,4.7,2.62,8.82.89,11.31-2,2.84-6.24,3.26-8.62,3.26h-.78a5,5,0,0,0-3.38,1.31l-6,5.45-.49.44a5,5,0,0,0,2.07,8.52,50.29,50.29,0,0,0,13.09,1.87c9.28,0,16.66-3.29,20.79-9.25C1532.51,966.43,1532.41,957,1527.44,946.86Zm-3.82,23.64c-3.31,4.78-9.32,7.1-16.68,7.1a45.16,45.16,0,0,1-11.78-1.7l6.44-5.89h.78c5.62,0,10.21-1.77,12.73-5.41,5.85-8.45-1.63-23.76-16.71-34.19-8.58-5.94-17.76-9-25.16-9-5.62,0-10.21,1.77-12.73,5.41a12.75,12.75,0,0,0-1.76,9.53l-6.23,5.7c-3.82-8-4.3-15.65-.52-21.12,3.31-4.78,9.33-7.1,16.69-7.1,9.71,0,21.76,4,33,11.83C1521.48,939.34,1531.29,959.42,1523.62,970.5Z" transform="translate(0 0)"/><path class="cls-13" d="M1492.79,994.24a47.86,47.86,0,0,1-12.43-1.78,2.49,2.49,0,0,1-1-4.26l6.44-5.89a2.5,2.5,0,0,1,1.68-.66h.79c3.5,0,8.19-.75,10.67-4.33,5-7.17-2.4-21.24-16.08-30.71-7.87-5.45-16.52-8.58-23.74-8.58-4.94,0-8.73,1.54-10.67,4.34a10.25,10.25,0,0,0-1.35,7.7,2.48,2.48,0,0,1-.78,2.25l-6.23,5.7a2.5,2.5,0,0,1-1.69.66,2.61,2.61,0,0,1-.48-.05,2.53,2.53,0,0,1-1.78-1.37c-4.38-9.19-4.5-17.58-.31-23.63,3.65-5.27,10.31-8.17,18.75-8.17,10.61,0,23.16,4.47,34.43,12.27,9.91,6.86,17.75,15.51,22.07,24.36,4.56,9.32,4.72,17.83.48,24C1507.88,991.34,1501.22,994.24,1492.79,994.24Z" transform="translate(0 0)"/><path class="cls-7" d="M1513.3,961c-4.51-9.22-12.64-18.22-22.9-25.32-11.67-8.08-24.74-12.71-35.85-12.71-9.28,0-16.67,3.28-20.8,9.25-4.72,6.82-4.68,16.09.11,26.12a5,5,0,0,0,7.89,1.54l6.23-5.71a5,5,0,0,0,1.56-4.49,7.84,7.84,0,0,1,.94-5.88c2-2.83,6.24-3.26,8.61-3.26,6.62,0,15,3,22.32,8.13,6.5,4.51,11.81,10.31,14.55,15.93,2.3,4.69,2.62,8.82.89,11.31-2,2.83-6.24,3.25-8.61,3.25h-.79a5,5,0,0,0-3.37,1.31l-5.12,4.68-1.32,1.22a5,5,0,0,0,2.06,8.51,50.35,50.35,0,0,0,13.09,1.87c9.28,0,16.66-3.28,20.79-9.25C1518.37,980.58,1518.27,971.17,1513.3,961Zm-3.83,23.65c-3.3,4.77-9.32,7.09-16.68,7.09a45.61,45.61,0,0,1-11.78-1.69l6.44-5.9h.79c5.61,0,10.2-1.76,12.72-5.4,5.85-8.45-1.63-23.76-16.71-34.2-8.57-5.93-17.76-9-25.16-9-5.61,0-10.2,1.78-12.73,5.42a12.77,12.77,0,0,0-1.75,9.52l-6.24,5.71c-3.82-8-4.3-15.66-.51-21.12,3.3-4.78,9.32-7.1,16.69-7.1,9.71,0,21.76,4,33,11.82C1507.33,953.49,1517.14,973.57,1509.47,984.65Z" transform="translate(0 0)"/><path class="cls-24" d="M965.7,791.28H861.61c-5.31,0-13-1.54-15.59-3.77-1.7-1.46-6.21-5.36-6.21-21,0-5.19.05-30.84.24-123.61v-5.17a24,24,0,0,0-48-.1v5.15c-.19,92.83-.23,118.52-.23,123.73,0,25.31,7.46,44.07,22.81,57.34,16.59,14.35,40.12,15.47,46.94,15.47l1.4,0H965.7a24,24,0,0,0,0-48Z" transform="translate(0 0)"/><path class="cls-26" d="M833.31,631.06c-3.88-5.87-10.09-9.7-17.1-9.72h-.05c-11.79,0-21.35,10.71-21.38,23.95,0,.52,0,24.12-.09,51.08h7.8a7.79,7.79,0,0,0,2-.28c18.52-2.41,32.91-20.29,32.91-42C837.4,647.61,835.68,639.34,833.31,631.06Z" transform="translate(0 0)"/><rect class="cls-26" x="941.69" y="794.16" width="20.8" height="42.24"/><path class="cls-7" d="M965.7,788.4H861.61c-5.47,0-12.11-1.68-13.7-3.06-1.29-1.12-5.22-4.51-5.22-18.86,0-7.18.08-48.76.24-123.61v-5.16a26.92,26.92,0,0,0-26.87-26.94h0a26.92,26.92,0,0,0-26.88,26.82v5.15c-.15,74.9-.23,116.53-.23,123.74,0,26.2,7.79,45.67,23.8,59.52,17.35,15,41.76,16.17,48.83,16.17l1.45,0H965.7a26.88,26.88,0,0,0,0-53.76Zm0,48H863l-1.4,0c-6.57,0-29.22-1.06-45.06-14.76-14.68-12.7-21.81-30.75-21.81-55.17,0-5.21,0-30.9.23-123.73v-5.14a21.13,21.13,0,0,1,42.25.09v5.16c-.2,92.77-.24,118.43-.24,123.62,0,17,5.24,21.51,7.21,23.21,3.44,3,12.19,4.47,17.47,4.47H965.7a21.12,21.12,0,0,1,0,42.24Z" transform="translate(0 0)"/><path class="cls-14" d="M965.37,791.16h126.88a26.52,26.52,0,0,0,25.3,18.88l.42,0v50.27H965.37Z" transform="translate(0 0)"/><path class="cls-7" d="M1118,863.17H965.37a2.88,2.88,0,0,1-2.88-2.88V791.16a2.88,2.88,0,0,1,2.88-2.88h126.88a2.87,2.87,0,0,1,2.76,2.05,23.71,23.71,0,0,0,22.54,16.83l.38,0a2.81,2.81,0,0,1,2.06.83,2.88,2.88,0,0,1,.86,2v50.27A2.88,2.88,0,0,1,1118,863.17Zm-149.72-5.76h146.84V812.82A29.57,29.57,0,0,1,1090.2,794h-122Z" transform="translate(0 0)"/><path class="cls-24" d="M742,666a9.46,9.46,0,0,1,9.44-9.43h27.23c-.06-.1.06-.19,0-.29H729.93a9.46,9.46,0,0,1-9.44-9.43h0a9.47,9.47,0,0,1,9.44-9.44h48.69c0-.24,0-.48,0-.73H717.23a9.46,9.46,0,0,1-9.44-9.43h0a9.47,9.47,0,0,1,9.44-9.44h61.39c.08-.18-.08-.35,0-.52H731.38a9.47,9.47,0,0,1-9.44-9.44h0a9.46,9.46,0,0,1,9.44-9.43L809,598l-6.42-17.7a9.48,9.48,0,0,1,5.66-12.09h0a9.48,9.48,0,0,1,12.09,5.66s19.56,38.63,19.56,59.24a42.07,42.07,0,0,1-36.95,42,9.25,9.25,0,0,1-2.25.29H751.39A9.47,9.47,0,0,1,742,666Z" transform="translate(0 0)"/><path class="cls-7" d="M800.7,678.27H751.39a12.31,12.31,0,0,1-10.24-19.16H729.93a12.31,12.31,0,0,1-9.93-19.6h-2.77a12.32,12.32,0,1,1,0-24.63h4.08a12.2,12.2,0,0,1-2.25-7.08,12.33,12.33,0,0,1,12.32-12.31l73.53-.35-5-13.86A12.31,12.31,0,0,1,823,572.72c1.53,3,19.8,39.77,19.8,60.39A44.92,44.92,0,0,1,803.46,678,12.51,12.51,0,0,1,800.7,678.27ZM751.39,659.4a6.56,6.56,0,1,0,0,13.11H800.7a6.61,6.61,0,0,0,1.56-.2l.37-.07A39.16,39.16,0,0,0,837,633.11c0-19.69-19.06-57.56-19.25-57.94a3.09,3.09,0,0,1-.14-.32,6.56,6.56,0,0,0-12.33,4.47l6.42,17.7a2.9,2.9,0,0,1-.35,2.63,2.87,2.87,0,0,1-2.35,1.23l-77.62.37a6.56,6.56,0,1,0,0,13.11h47.24a2.88,2.88,0,0,1,2.88,2.92,3.08,3.08,0,0,1-.27,1.7,2.88,2.88,0,0,1-2.61,1.66H717.23a6.56,6.56,0,1,0,0,13.11h61.39a2.88,2.88,0,0,1,2.87,2.64,5.93,5.93,0,0,1,0,.73,2.84,2.84,0,0,1-2.88,3.12H729.93a6.56,6.56,0,1,0,0,13.11h48.69a2.89,2.89,0,0,1,2.43,1.33,3.15,3.15,0,0,1,.45,1.74,2.88,2.88,0,0,1-2.88,3ZM781,654.94Zm0,0Z" transform="translate(0 0)"/><path class="cls-7" d="M812.77,628.57c-.08-.05-8.71-5.16-9.59-13-.55-4.92,2.07-10.12,7.79-15.46A2.88,2.88,0,1,0,807,595.9c-7.14,6.66-10.37,13.51-9.58,20.36,1.23,10.73,12,17,12.44,17.3a2.84,2.84,0,0,0,1.43.38,2.88,2.88,0,0,0,1.44-5.37Z" transform="translate(0 0)"/><path class="cls-7" d="M831.75,592.14a2.9,2.9,0,0,0-3.88-1.25L819,595.44a2.88,2.88,0,0,0,2.62,5.13l8.9-4.55A2.89,2.89,0,0,0,831.75,592.14Z" transform="translate(0 0)"/><path class="cls-7" d="M765.89,607.7v-7.33a2.88,2.88,0,0,0-5.76,0v7.33a2.88,2.88,0,0,0,5.76,0Z" transform="translate(0 0)"/><path class="cls-7" d="M752.13,614.88a2.88,2.88,0,0,0-2.88,2.88v9.78a2.88,2.88,0,1,0,5.76,0v-9.78A2.88,2.88,0,0,0,752.13,614.88Z" transform="translate(0 0)"/><path class="cls-7" d="M759.49,634.48a2.88,2.88,0,0,0-2.88,2.88V647.7a2.88,2.88,0,0,0,5.76,0V637.36A2.88,2.88,0,0,0,759.49,634.48Z" transform="translate(0 0)"/><path class="cls-7" d="M767.81,653.64a2.88,2.88,0,0,0-2.88,2.88V666.9a2.88,2.88,0,1,0,5.76,0V656.52A2.88,2.88,0,0,0,767.81,653.64Z" transform="translate(0 0)"/><path class="cls-24" d="M1532.79,642.76v-5.15a24,24,0,0,0-48,.1v5.17c.2,92.77.24,118.42.24,123.61,0,15.67-4.51,19.57-6.21,21-2.57,2.23-10.28,3.77-15.59,3.77H1359.14a24,24,0,1,0,0,48h102.73l1.4,0c6.82,0,30.35-1.12,46.94-15.47,15.35-13.27,22.81-32,22.81-57.34C1533,761.28,1533,735.59,1532.79,642.76Z" transform="translate(0 0)"/><rect class="cls-26" x="1362.34" y="794.16" width="20.8" height="42.24"/><path class="cls-26" d="M1530.05,645.29c0-13.24-9.59-23.95-21.38-23.95h0c-7,0-13.22,3.85-17.11,9.72-2.36,8.28-4.09,16.55-4.09,23,0,21.71,14.39,39.59,32.91,42a7.79,7.79,0,0,0,2,.28h7.8C1530.09,669.41,1530.05,645.81,1530.05,645.29Z" transform="translate(0 0)"/><path class="cls-7" d="M1332.25,815.28a26.91,26.91,0,0,0,26.89,26.88h102.68l1.45,0c7.07,0,31.48-1.17,48.83-16.17,16-13.85,23.8-33.32,23.8-59.52,0-7.21-.08-48.84-.23-123.74V637.6a26.92,26.92,0,0,0-26.88-26.82h0a26.92,26.92,0,0,0-26.88,26.94v5.16c.16,74.85.24,116.43.24,123.61,0,14.35-3.93,17.74-5.22,18.86-1.59,1.38-8.23,3.06-13.7,3.06H1359.14A26.91,26.91,0,0,0,1332.25,815.28Zm5.76,0a21.15,21.15,0,0,1,21.13-21.12h104.08c5.28,0,14-1.49,17.47-4.47,2-1.7,7.21-6.23,7.21-23.21,0-5.19,0-30.85-.23-123.62l0-5.16a21.13,21.13,0,0,1,42.25-.09v5.14c.19,92.83.23,118.52.23,123.73,0,24.42-7.13,42.47-21.81,55.17-15.84,13.7-38.49,14.76-45.06,14.76l-1.4,0H1359.14A21.15,21.15,0,0,1,1338,815.28Z" transform="translate(0 0)"/><path class="cls-14" d="M1359.46,791.16H1232.58A26.5,26.5,0,0,1,1207.29,810l-.43,0v50.27h152.6Z" transform="translate(0 0)"/><path class="cls-7" d="M1204,860.29V810a2.88,2.88,0,0,1,.86-2,2.81,2.81,0,0,1,2.06-.83l.39,0a23.71,23.71,0,0,0,22.53-16.83,2.87,2.87,0,0,1,2.76-2.05h126.88a2.88,2.88,0,0,1,2.88,2.88v69.13a2.88,2.88,0,0,1-2.88,2.88h-152.6A2.88,2.88,0,0,1,1204,860.29ZM1356.58,794H1234.64a29.58,29.58,0,0,1-24.9,18.78v44.59h146.84Z" transform="translate(0 0)"/><path class="cls-24" d="M1582.88,666a9.46,9.46,0,0,0-9.44-9.43h-27.23c.06-.1-.06-.19,0-.29h48.69a9.46,9.46,0,0,0,9.44-9.43h0a9.47,9.47,0,0,0-9.44-9.44h-48.69c0-.24,0-.48,0-.73h61.4a9.45,9.45,0,0,0,9.43-9.43h0a9.46,9.46,0,0,0-9.43-9.44h-61.4c-.08-.18.08-.35,0-.52h47.24a9.47,9.47,0,0,0,9.44-9.44h0a9.46,9.46,0,0,0-9.44-9.43l-77.63-.37,6.42-17.7a9.48,9.48,0,0,0-5.66-12.09h0a9.48,9.48,0,0,0-12.09,5.66s-19.56,38.63-19.56,59.24a42.08,42.08,0,0,0,37,42,9.25,9.25,0,0,0,2.25.29h49.31A9.47,9.47,0,0,0,1582.88,666Z" transform="translate(0 0)"/><path class="cls-7" d="M1521.37,678a44.92,44.92,0,0,1-39.32-44.84c0-20.62,18.27-57.36,19.8-60.39a12.31,12.31,0,0,1,23.09,8.56l-5,13.86,73.53.35a12.31,12.31,0,0,1,10.08,19.39h4.08a12.32,12.32,0,0,1,0,24.63h-2.78a12.31,12.31,0,0,1-9.93,19.6h-11.22a12.31,12.31,0,0,1-10.24,19.16h-49.31A12.58,12.58,0,0,1,1521.37,678Zm24.84-18.55a2.88,2.88,0,0,1-2.88-3,3.15,3.15,0,0,1,.45-1.74,2.89,2.89,0,0,1,2.43-1.33h48.69a6.56,6.56,0,1,0,0-13.11h-48.69a2.87,2.87,0,0,1-2.14-.92,2.84,2.84,0,0,1-.74-2.2,5.93,5.93,0,0,1,0-.73,2.88,2.88,0,0,1,2.87-2.64h61.4a6.56,6.56,0,0,0,0-13.11h-61.4a2.89,2.89,0,0,1-2.61-1.66,3.08,3.08,0,0,1-.27-1.7,2.85,2.85,0,0,1,.44-1.57,2.89,2.89,0,0,1,2.44-1.35h47.24a6.56,6.56,0,1,0,0-13.11l-77.63-.37a2.87,2.87,0,0,1-2.35-1.23,2.9,2.9,0,0,1-.34-2.63l6.41-17.7a6.56,6.56,0,0,0-12.33-4.47,1.83,1.83,0,0,1-.14.32c-.19.38-19.25,38.25-19.25,57.94a39.16,39.16,0,0,0,34.4,39.13l.36.07a6.61,6.61,0,0,0,1.56.2h49.31a6.56,6.56,0,1,0,0-13.11Zm-2.41-4.46Zm0,0h0Z" transform="translate(0 0)"/><path class="cls-7" d="M1512.06,628.57c.08-.05,8.72-5.16,9.6-13,.55-4.92-2.07-10.12-7.8-15.46a2.88,2.88,0,0,1,3.93-4.21c7.14,6.66,10.37,13.51,9.58,20.36-1.23,10.73-12,17-12.43,17.3a2.88,2.88,0,0,1-2.88-5Z" transform="translate(0 0)"/><path class="cls-7" d="M1493.08,592.14a2.9,2.9,0,0,1,3.88-1.25l8.89,4.55a2.88,2.88,0,0,1-2.62,5.13l-8.89-4.55A2.89,2.89,0,0,1,1493.08,592.14Z" transform="translate(0 0)"/><path class="cls-7" d="M1559,607.7v-7.33a2.88,2.88,0,0,1,5.76,0v7.33a2.88,2.88,0,0,1-5.76,0Z" transform="translate(0 0)"/><path class="cls-7" d="M1572.71,614.88a2.88,2.88,0,0,1,2.88,2.88v9.78a2.88,2.88,0,1,1-5.76,0v-9.78A2.88,2.88,0,0,1,1572.71,614.88Z" transform="translate(0 0)"/><path class="cls-7" d="M1565.35,634.48a2.88,2.88,0,0,1,2.88,2.88V647.7a2.88,2.88,0,0,1-5.76,0V637.36A2.88,2.88,0,0,1,1565.35,634.48Z" transform="translate(0 0)"/><path class="cls-7" d="M1557,653.64a2.88,2.88,0,0,1,2.88,2.88V666.9a2.88,2.88,0,0,1-5.76,0V656.52A2.88,2.88,0,0,1,1557,653.64Z" transform="translate(0 0)"/><path class="cls-14" d="M1189.88,791.16a26.38,26.38,0,0,1-50.58,0H1071l-1.63,79.61a39.32,39.32,0,0,0,4.9,19.81l18.69,33.84-22,87.39H1253.4L1232,922.9l17-33.11a39.28,39.28,0,0,0,4.35-18V791.16Z" transform="translate(0 0)"/><path class="cls-7" d="M1253.4,1014.31H1071a2.49,2.49,0,0,1-2.42-3.11l21.72-86.44-18.22-33a41.79,41.79,0,0,1-5.21-21.06l1.63-79.61a2.5,2.5,0,0,1,2.5-2.45h68.32a2.51,2.51,0,0,1,2.4,1.78,23.88,23.88,0,0,0,45.79,0,2.49,2.49,0,0,1,2.39-1.78h63.52a2.5,2.5,0,0,1,2.5,2.5v80.66a42.05,42.05,0,0,1-4.62,19.11l-16.6,32.29,21.15,88a2.5,2.5,0,0,1-2.43,3.08Zm-179.21-5h176l-20.63-85.82a2.47,2.47,0,0,1,.21-1.73l17-33.12a37,37,0,0,0,4.07-16.82V793.66h-59.22a28.88,28.88,0,0,1-54.18,0h-64.07l-1.58,77.16a36.89,36.89,0,0,0,4.59,18.55l18.69,33.84a2.48,2.48,0,0,1,.24,1.81Z" transform="translate(0 0)"/></g></svg>
