<?xml version="1.0" encoding="utf-8"?>
<!-- Generator: Adobe Illustrator 21.1.0, SVG Export Plug-In . SVG Version: 6.00 Build 0)  -->
<svg version="1.1" xmlns="http://www.w3.org/2000/svg" xmlns:xlink="http://www.w3.org/1999/xlink" x="0px" y="0px"
	 viewBox="0 0 2340 1560" style="enable-background:new 0 0 2340 1560;" xml:space="preserve">
<style type="text/css">
	.st0{opacity:0.6;fill:#F2F4F5;}
	.st1{fill:#182F33;}
	.st2{opacity:0.8;fill:none;stroke:#919191;stroke-width:9.7389;stroke-miterlimit:10;}
	.st3{opacity:0.8;fill:none;stroke:#919191;stroke-width:6.2547;stroke-miterlimit:10;}
	.st4{fill:#868686;}
	.st5{fill:#F4BF25;}
	.st6{fill:#828483;}
	.st7{fill:#F3A722;}
	.st8{opacity:0.2;fill:#A19E97;}
	.st9{fill:#F9BE8D;}
	.st10{fill:#26201C;}
	.st11{fill:#3A322B;}
	.st12{fill:#231F20;}
	.st13{opacity:0.3;fill:#F27064;}
	.st14{fill:#BE1E2D;stroke:#BE1E2D;stroke-width:1.6559;stroke-miterlimit:10;}
	.st15{fill:#F27064;}
	.st16{fill:#D99873;}
	.st17{fill:none;stroke:#FFFFFF;stroke-width:0.2714;stroke-miterlimit:10;}
	.st18{fill:#33324D;}
	.st19{fill:#E6E7E8;}
	.st20{fill:#A6A8AB;}
	.st21{fill:#FFFFFF;}
	.st22{fill:#E6E1E7;}
	.st23{fill:#252960;}
	.st24{fill:#46406C;}
	.st25{fill:#B3B4B6;}
	.st26{fill:#5B4E3D;}
	.st27{fill:#8C8A8B;}
	.st28{fill:#D9DBDA;}
	.st29{fill:#A8AAA9;}
	.st30{fill:#345F8A;}
	.st31{fill:#E5E6EA;}
	.st32{fill:#AEB4BB;}
	.st33{fill:#7F7F81;}
	.st34{fill:#BDAE9B;}
	.st35{fill:#A19E97;}
	.st36{fill-rule:evenodd;clip-rule:evenodd;fill:#93B82C;}
	.st37{fill-rule:evenodd;clip-rule:evenodd;fill:#1E1E1E;}
	.st38{fill-rule:evenodd;clip-rule:evenodd;fill:url(#SVGID_1_);}
</style>
<g id="Background">
	<path class="st0" d="M596,1340.3c-46-33-139.8-109.7-193.3-239.7c-20.4-49.5-80.5-195.6-13.6-339.1
		c51.7-110.9,152.7-163.5,237.9-207.9c237.2-123.6,345.8-39.7,506.4-156.8c140-102,107.6-202.1,227.7-243.1
		c130.4-44.6,273.8,37.3,404.5,112c100.6,57.5,222.3,127,299.1,271.9c79.6,150.2,63.6,292.1,54.4,364.7
		c-28.7,226-161.4,377.6-221.2,438.1"/>
	<g>
		<g>
			<path class="st1" d="M2010,1337.8c-15,0-30,0-45.1,0c-40.5,0-81,0-121.5,0c-60.1,0-120.1,0-180.2,0c-73.3,0-146.5,0-219.8,0
				c-80,0-160,0-239.9,0c-81.3,0-162.6,0-243.8,0c-75.3,0-150.5,0-225.8,0c-63.8,0-127.7,0-191.5,0c-45.9,0-91.8,0-137.7,0
				c-21.7,0-43.4-0.3-65.1,0c-0.9,0-1.9,0-2.8,0c-3.2,0-3.2,5,0,5c15,0,30,0,45.1,0c40.5,0,81,0,121.5,0c60.1,0,120.1,0,180.2,0
				c73.3,0,146.5,0,219.8,0c80,0,160,0,239.9,0c81.3,0,162.6,0,243.8,0c75.3,0,150.5,0,225.8,0c63.8,0,127.7,0,191.5,0
				c45.9,0,91.8,0,137.7,0c21.7,0,43.4,0.3,65.1,0c0.9,0,1.9,0,2.8,0C2013.2,1342.8,2013.2,1337.8,2010,1337.8L2010,1337.8z"/>
		</g>
	</g>
	<path class="st0" d="M482.1,621.9c8.4,6.4,33.8-37.5,106.8-69.9c58.8-26.1,97.1-22,99.2-37.1c2.4-17.8-47.2-50.2-93.3-44.9
		C510.7,479.7,468.6,611.5,482.1,621.9z"/>
</g>
<g id="Character">
	<g>
		<circle class="st2" cx="1714.5" cy="351.4" r="67.3"/>
		<line class="st3" x1="1676" y1="357" x2="1726.4" y2="357"/>
		<line class="st3" x1="1721.1" y1="306.1" x2="1721.1" y2="361.1"/>
	</g>
	<g>
		<rect x="1600.9" y="921.4" class="st4" width="36.1" height="378.4"/>
		<path class="st5" d="M1689.9,592c11.4,30.1,85.3,232-4,316.7c-9.6,9.1-21.5,16.1-21.5,16.1c-40.5,25.7-81.1,27.4-106,28.2
			c-42.4,1.3-70.2,2.1-95.3-17.4c0,0-27.3-21.2-34.9-57.7c-13.3-64.2,87.7-157,242.9-233.5L1689.9,592z"/>
		<path class="st6" d="M1522,1338.1h215.4c0,0-92.2-54.4-120.8-50.6S1522,1338.1,1522,1338.1z"/>
		<path class="st7" d="M1524.1,907.8c4.8,6.9,13.7,8.1,22.6,9.3c47.3,6.3,99.1-38.6,118.2-89c11-29,15.1-70.4,0-78.4
			c-4.3-2.3-13.6-3.6-45.2,21.3C1569.7,810.4,1506.2,882,1524.1,907.8z"/>
	</g>
	<g>
		<path class="st8" d="M1465,1307.7c0-5.8-28.4-6.2-63.5-6.2s-63.5,4.7-63.5,10.5c0,5.8,28.4,10.5,63.5,10.5
			S1465,1313.5,1465,1307.7z"/>
		<path class="st8" d="M1544.3,1303.9c0-3.1-14-3.3-31.2-3.3s-31.2,2.5-31.2,5.6s14,5.6,31.2,5.6S1544.3,1307,1544.3,1303.9z"/>
		<path class="st9" d="M1570.4,458.7c0,0-7.6-15.3-5.4-37.8c2.2-22.6-58.6,28-58.6,28v34.4l17.3,9.8l46.7-26.4V458.7z"/>
		<path class="st10" d="M1555.6,443c-2.2-1.6-0.8-6.2,1.7-16.8c4.4-19,3.3-18.7,5.5-23.5c1.9-4,8.3-18.1,16.3-17.4
			c5.8,0.5,10,8.5,11.4,14.1c4.1,16.1-10.5,30.7-13.4,33.6c-4.6,4.6-8.8,6.6-11.6,7.9C1561.3,442.8,1557.6,444.5,1555.6,443z"/>
		<path class="st11" d="M1452,369.9c-2.6,0.9,0.9,8.3-3.7,23.2c-2.8,8.9-5.5,11.2-7,20.5c-0.8,5-1.6,10.3,0.7,16.4
			c0.8,2.3,3.1,8,9.1,11.7c5.6,3.5,13,4.4,19.1,1.7c0,0,4-1.8,6.7-5C1489.1,423.5,1459.1,367.5,1452,369.9z"/>
		<path class="st9" d="M1572.3,372.1c-2.1-3.4-5.1-8.3-9.6-8.3c-0.8,0-1.6,0.2-2.3,0.5c-1-3.9-2.3-7.7-4.4-11.6
			c-8.8-16.9-23.2-25.4-29.5-28.5c-33-16.5-67.2,1.7-70.8,3.7l-5.4,7.5c0.6,15.4,2.8,62.8,6.8,85.1c0.3,1.5,0.8,4.4,2.4,7.8
			c6.8,14.8,23.5,20.3,31.9,23c5.8,1.9,13.1,4.2,22.7,3.4c7.8-0.7,13.5-3.1,18.6-5.4c7.8-3.4,16.8-7.5,23-15.2
			c6.4-8,7.2-16.9,7.2-31.3c0.9-0.3,1.9-0.7,3-1.4c4.4-2.5,6.7-6.1,7.7-8c1.9-3.5,2.3-6.8,2.3-8.6
			C1576.3,378.7,1573.6,374.2,1572.3,372.1z"/>
		<circle class="st12" cx="1523.8" cy="383.3" r="7.4"/>
		<g>
			<g>
				<path class="st12" d="M1536.8,366.7c-6.6-5.3-15.3-5.8-22.7-1.7c-1.8,1-0.2,3.8,1.6,2.8c6-3.3,13.3-3.1,18.8,1.2
					C1536.1,370.3,1538.4,368,1536.8,366.7L1536.8,366.7z"/>
			</g>
		</g>
		<circle class="st12" cx="1471.9" cy="379.9" r="7.4"/>
		<g>
			<g>
				<path class="st12" d="M1484.9,364.7c-6.6-5.3-15.3-5.8-22.7-1.7c-1.8,1-0.2,3.8,1.6,2.8c6-3.3,13.3-3.1,18.8,1.2
					C1484.3,368.2,1486.6,366,1484.9,364.7L1484.9,364.7z"/>
			</g>
		</g>
		<g>
			<g>
				<path class="st12" d="M1497,403.9c-1.1,0-2.8,0.4-3.8,0c-2.8-1-0.8-6.4-0.1-8.4c0.6-2,1.5-3.9,2.2-5.8c0.3-0.7,0.8-1.7,0.5-2.5
					c-0.2-0.5-1-0.3-0.8,0.2c0.5,1.5-1.8,5.2-2.3,6.5c-0.9,2.4-1.9,5.3-1.7,7.9c0.3,3.6,3.3,2.9,6,2.9
					C1497.6,404.7,1497.6,403.9,1497,403.9L1497,403.9z"/>
			</g>
		</g>
		<circle class="st13" cx="1539.5" cy="404.3" r="12.5"/>
		<g>
			<path class="st14" d="M1495.8,421.7c1.2,17.7,30.8,13.1,25.1-4.9"/>

				<ellipse transform="matrix(0.9817 -0.1903 0.1903 0.9817 -53.8202 295.1914)" class="st15" cx="1509.9" cy="427.8" rx="10.8" ry="5.8"/>
		</g>
		<path class="st13" d="M1460.9,395.8c-2.5,0-4.8,0.8-6.8,2c0.8,8.4,1.7,16.2,2.7,22.3c1.3,0.4,2.6,0.7,4.1,0.7
			c6.9,0,12.5-5.6,12.5-12.5S1467.8,395.8,1460.9,395.8z"/>
		<path class="st11" d="M1452.8,383.3c-5.6-14.2-10.8-25.2-14.7-32.9c-4.5-9-7.8-14.6-5.9-21.5c1.8-6.4,7-10.4,11.8-14.1
			c4.7-3.6,11.2-8.7,20.6-9.4c10.7-0.8,24.6,4,25,10.7c0.3,5-6.8,10.3-16.2,13.4l-21.3,21.5L1452.8,383.3z"/>
		<path class="st11" d="M1463.7,294.1c-2.4,3.3-6.7,10.3-6.7,19.5c-0.1,12.2,7.3,20.6,12.8,26.8c4.2,4.8,13.4,15.3,28.2,18.8
			c18.6,4.4,27.1-6.8,48.3-0.7c3.6,1,8.3,2.4,13.4,6c17.6,12.3,18.7,35.3,18.8,38.9c0.2,4.9,0.6,18.4-8.1,28.9
			c-6.6,8-15,10.2-14.8,10.7c0.4,0.8,18.6-2.5,33.6-16.8c2.9-2.8,14.1-14,18.1-32.2c4-17.9-1.2-32-8.1-50.3
			c-5.4-14.5-11.3-30.3-26.8-45c-13.1-12.3-26.3-17.3-35.6-20.8c-15.3-5.7-37.9-14.1-56.4-3.4c-6.3,3.7-10.4,8.6-12.8,12.1"/>
		<path class="st16" d="M1506.4,454.8c3.4-0.5,7.5-1.4,12-3.1c3.4-1.2,6.3-2.7,8.7-4l-20.7,11.9V454.8z"/>
		<path class="st16" d="M1570.5,391.2c0.3-1.1,1.2-4.7-0.5-8.8c-1.9-4.6-5.7-6.5-6.6-7"/>
		<polygon class="st9" points="1506.7,463.2 1503,466.8 1497,480.6 1506.4,483.3 1519.4,477.9 		"/>
		<path class="st17" d="M1472.4,309.8c2.4,9.9,7.4,22.5,18.5,28.6c13.4,7.4,23.2-1.5,47.1,2.8c7.7,1.4,26.7,4.7,39.7,20.3
			c3.6,4.3,14.2,17,11.1,33.2c-2.6,13.4-12.8,21.1-15.7,23.1"/>
		<path class="st17" d="M1593.3,354.2c-12.4-22-26.1-30.9-36-35.1c-17.8-7.4-33.1-3.4-46.2-15.7c-7.6-7.2-10.6-16.2-12-22.2"/>
		<path class="st17" d="M1457.6,319.5c-1.1,0.4-8.2,3.5-11,11.6c-2.5,7.3,0.3,13.6,0.9,14.8"/>
		<path class="st17" d="M1451.6,397.1c-1.1,1.6-9.9,14.6-4.8,29.1c2.2,6.2,6.1,10.3,8.7,12.5"/>
		<g>
			<path class="st9" d="M1569.2,1179.6c0.3-0.3,0.7-0.7,1-1.3c-0.2,0.5-0.5,1-0.8,1.7c-9.5,20.9-56.7,123-65.3,110.8
				c-2.7-3.9-3.8-7.7-3.7-12.2c0.2-11.3,7.8-27,14.8-58.8c21.3-34.7-87.6-245.4-155.3-369.3l4.3,2.1l-2.4-9.9l62.9-46.2
				c12,37.2,26.7,84.7,37.6,126.3c22,83.4,83.9,225.5,83.9,225.5c4.5,7.8,8.5,15.6,12,21.6
				C1562.8,1177.5,1566.4,1182.2,1569.2,1179.6z"/>
			<path class="st9" d="M1571,1176.4c-0.3,0.8-0.6,1.4-0.9,2C1570.7,1177.2,1571,1176.5,1571,1176.4z"/>
			<path class="st12" d="M1503.4,1273c1.4-2.5,25.6-19.6,25.6-19.6s18.7-85.6,29.3-83.7c0,0,8.6-1,16.3,23.2l28.5,40.5l-9.8,7.5
				l-12.7-18.1c0,0-21.5-2.5-25.9,17.6c-4.4,20.1-5.1,34-5.1,34l-37.7,28.9C1511.9,1303.2,1481.4,1311,1503.4,1273z"/>
		</g>
		<g>
			<path class="st9" d="M1492.5,772.2l-25.6,113.6c0,0-2,27-4.7,65.3c-5.9,85.8-15,228.3-11.6,251.5c1.2,8.6,1.7,16.8,1.8,24
				c0.1,21.2-3.6,35.5-3.6,35.5s-99.4,57.4-98.9,41.2c0.3-7.8,4.5-12.7,12.2-19.3c8.3-7.1,20.5-16.1,35.9-32.9
				c28.1-24.1,9.4-225.5-2.1-326.7c-3.9-34.6-6.9-57.5-6.9-57.5c-4.3-18.2-6.6-37.2-7.7-54.4c18.7-11.6,53.1-32.9,62.3-37.1
				c4.5-2,6.8-6.3,7.9-11L1492.5,772.2z"/>
			<path class="st12" d="M1360,1284.6c2.3-1.3,30.2-2.4,30.2-2.4s55.8-62.4,63.6-54.8c0,0,7.5,3.9,2.3,28.7l4.1,50.3l-11.6,0.9
				l-1.8-22.4c0,0-16.4-14-29.5,0.6c-13.1,14.6-20.3,26-20.3,26l-44.5,3.6C1352.6,1315,1324,1304.6,1360,1284.6z"/>
		</g>
		<path class="st9" d="M1316.7,567c0,0-10.3-26.6-11.2-34.2s0-18.1,0-18.1s-4-15.9-16.1,3.4c0,0-19.8-21.8-26.8-24.9
			c-9.4-4.1-10.4,45-8.6,48.6c0,0,2.8,26.4,13.5,30c10.7,3.6,54.1,7.7,54.1,7.7L1316.7,567z"/>
		<path class="st18" d="M1653.6,778.6c6.7,41.6-5.4,70.5-39.6,98c-34.2,27.5-102,40.3-102,40.3s-13.4,6-35.6,27.5
			c-3.9,3.8-8.8,5.9-14.3,6.8c-25.4,4.1-62.2-18.2-62.2-18.2l-4-8.4l-21.8-45.7c0,0,1.7-19.4-8.7-29c-10.4-9.6,3.6-29.5,3.6-29.5
			s4.9-3.1,12.2-7.7c18.7-11.6,53.1-32.9,62.3-37.1c4.5-2,6.8-6.3,7.9-11c2.1-8.7,0.1-18.8,0.1-18.8s-53-221.4-41.6-242.2
			c11.4-20.8,24.8-17.6,24.8-17.6l37.1-8.5c29.9,39.2,73.5,30.9,123.9-1.5l25.6,12.2l36.9,12.1l-34.9,30.2l8,51.7l4,49
			C1635.5,630.9,1646.9,737,1653.6,778.6z"/>
		<path class="st19" d="M1495.9,466l-24,11.2c0,0,17.3,79.9,47.5,98.6c0,0,63.8-63.8,77.8-99.3l-24.3-13.4l-49.2,22.6h-12.9
			c-5.2-0.3-10.2-4.3-15.1-12.6L1495.9,466z"/>
		<path class="st20" d="M1519.4,486c0,0,47.6-22.1,51.7-26.8c4-4.7,4,8.3,4,8.3l-9.4,18.6l-28.2,31.8
			C1537.5,517.8,1536.9,489.3,1519.4,486z"/>
		<path class="st20" d="M1519.4,486l-18.1-6.7l5.4-16.1c0,0-6-3.6-10.7,2.9s-9.4,15.9-9.4,15.9l9.4,27.5
			C1495.9,509.5,1503.3,486,1519.4,486z"/>
		<path class="st18" d="M1426.1,488c0,0-9.4,6.1-15.4,16.1c-6,10.1-47.6,149-47.6,149v63.8h87.9l-5.4-186.6L1426.1,488z"/>
		<polyline class="st18" points="1325.5,574.3 1270.4,591.3 1332.2,716.2 1386.5,716.2 1386.5,702.1 		"/>
		<g>
			<path class="st21" d="M1625.4,561.8c0.5,2.6,0.9,5.3,1.4,7.9l1.2,7.9c0.8,5.3,1.6,10.6,2.3,15.9c0.7,5.3,1.4,10.6,2,15.9l0.9,8
				c0.2,2.7,0.5,5.3,0.7,8c-0.5-2.6-0.9-5.3-1.4-7.9l-1.2-7.9c-0.8-5.3-1.6-10.6-2.3-15.9c-0.7-5.3-1.4-10.6-2-15.9l-0.9-8
				C1625.9,567.1,1625.6,564.4,1625.4,561.8z"/>
		</g>
		<g>
			<path class="st21" d="M1603.1,651.1c2.9-0.2,5.7-0.3,8.6-0.4l8.6-0.3c5.7-0.2,11.5-0.3,17.2-0.4c5.7-0.1,11.5-0.1,17.2-0.1
				l8.6,0.1c2.9,0.1,5.7,0.1,8.6,0.2c-2.9,0.2-5.7,0.3-8.6,0.4l-8.6,0.3c-5.7,0.2-11.5,0.3-17.2,0.4c-5.7,0.1-11.5,0.1-17.2,0.1
				l-8.6-0.1C1608.8,651.2,1605.9,651.2,1603.1,651.1z"/>
		</g>
		<g>
			<path class="st21" d="M1430.4,500.1c2.5,1.4,4.6,3.5,6.3,5.8c1.7,2.3,3.1,4.9,4.1,7.6c1.1,2.7,1.8,5.5,2.3,8.3
				c0.3,1.4,0.4,2.8,0.6,4.3c0,1.4,0.1,2.9,0.1,4.3c-0.3-1.4-0.5-2.8-0.8-4.2c-0.3-1.4-0.6-2.8-0.9-4.1c-0.4-1.3-0.7-2.7-1.1-4.1
				l-0.6-2l-0.8-2c-1-2.6-2.3-5.1-3.8-7.5c-0.8-1.2-1.6-2.3-2.5-3.4C1432.5,502,1431.5,501,1430.4,500.1z"/>
		</g>
		<g>
			<path class="st21" d="M1360.6,646.6c2.9,5,5.4,10.2,7.8,15.4c2.4,5.2,4.6,10.5,6.5,15.9c-2.9-5-5.4-10.2-7.8-15.4
				C1364.8,657.3,1362.5,652,1360.6,646.6z"/>
		</g>
		<path class="st18" d="M1694.6,712.1c-30.9,0-160-5.2-160-5.2s-9.5-3.9-9.3-23.4c0.2-19.5,5.9-31.2,5.9-31.2s7.1-9.1,20.8-1.3
			l83.5,1.3l-2-46.5l-3.4-25.7l-5.3-34.4l-1.9-9.9c-0.5-2.6,0.2-5.3,1.8-7.4l3.8-4.9l14.4-18.1c2.5-3.1,6.2-5,10.3-5.2l5.1-0.2
			c0,0,20.9,8.8,21.1,32.1c0.2,1.2,0.3,2.5,0.4,3.8l31.5,144.3C1711.3,680.3,1725.4,712.1,1694.6,712.1z"/>
		<path class="st22" d="M1509.1,661.2l-27.3-115.3c0,0-105.1,5.3-111.4,15.8l41.2,153.7l111.4-1.8L1509.1,661.2z"/>
		<path class="st9" d="M1524.3,662.3c0,0-30-1.8-37.8-3.6c-7.8-1.8-30.2-8.9-31.5,5.8s5.8,21.9,5.8,21.9s11.9,10.8,28.8,10.3
			c0,0,32.1,4,42.8,2.6C1543.1,698,1524.3,662.3,1524.3,662.3z"/>
		<g>
			<path class="st21" d="M1519.2,653.8c1.4,2,2.7,4.1,3.9,6.2c1.2,2.1,2.4,4.2,3.6,6.4c2.3,4.3,4.4,8.8,6.2,13.3
				c1.7,4.6,3.3,9.3,3.6,14.3c0.2,2.5,0,5.1-1.1,7.4c-0.2,0.3-0.3,0.5-0.5,0.8c-0.1,0.1-0.2,0.3-0.3,0.4l-0.3,0.3
				c-0.4,0.5-0.9,0.9-1.4,1.2c-1.1,0.7-2.3,1-3.5,1.1c1.2-0.3,2.4-0.7,3.3-1.4c0.5-0.3,0.9-0.8,1.2-1.2l0.3-0.3
				c0.1-0.1,0.1-0.3,0.2-0.4c0.1-0.3,0.3-0.5,0.4-0.8c0.9-2.2,0.9-4.6,0.7-7c-0.3-2.4-0.8-4.7-1.5-7c-0.7-2.3-1.5-4.6-2.4-6.9
				c-1.7-4.5-3.8-9-5.9-13.4c-1-2.2-2.1-4.4-3.3-6.5C1521.5,658.1,1520.4,656,1519.2,653.8z"/>
		</g>
		<path class="st23" d="M1369.1,820.2"/>
		<g>
			<path class="st21" d="M1541.7,571.1c1.4-1.2,2.7-2.4,4.1-3.6c1.4-1.2,2.7-2.4,4.1-3.6c2.7-2.4,5.4-4.9,7.9-7.5
				c5.2-5.1,10.2-10.3,14.9-15.9c4.8-5.5,9.2-11.2,13.4-17.2c2.1-3,4.1-6,6-9.1c2-3,3.8-6.2,5.7-9.3c-1.6,3.3-3.3,6.5-5.1,9.7
				c-1.8,3.2-3.8,6.2-5.8,9.3c-4,6.1-8.5,11.9-13.2,17.5c-4.8,5.5-9.8,10.8-15.2,15.8c-2.7,2.5-5.4,4.9-8.2,7.2
				c-1.4,1.1-2.8,2.3-4.3,3.4C1544.7,568.9,1543.2,570,1541.7,571.1z"/>
		</g>
		<g>
			<path class="st21" d="M1451.2,773.2c3.7-0.9,7.6-0.7,11.3,0.2c3.7,1,7.2,2.7,9.9,5.4c-1.7-0.9-3.4-1.7-5.1-2.3
				c-1.7-0.7-3.4-1.3-5.2-1.7c-1.8-0.5-3.6-0.8-5.4-1C1454.9,773.5,1453.1,773.3,1451.2,773.2z"/>
		</g>
		<g>
			<path class="st16" d="M1461.4,962.5c0,2.8-0.1,5.5-0.2,8.3l-0.4,8.3c-0.2,5.5-0.6,11-0.9,16.6c-0.4,5.5-0.8,11-1.2,16.5l-0.7,8.3
				c-0.3,2.8-0.5,5.5-0.9,8.3c0-2.8,0.1-5.5,0.2-8.3l0.4-8.3c0.2-5.5,0.6-11,0.9-16.6c0.4-5.5,0.8-11,1.2-16.5l0.7-8.3
				C1460.8,968,1461.1,965.2,1461.4,962.5z"/>
		</g>
		<polyline class="st24" points="1624.8,545.8 1623.9,537.4 1621,532.5 		"/>
	</g>
	<g>
		<polygon class="st25" points="1926.7,1340.3 1903.8,1340.3 1893.8,730.7 1936.7,730.7 		"/>
		<polygon class="st25" points="593.9,1342.2 616.8,1342.2 626.8,732.6 583.9,732.6 		"/>
		<rect x="561.1" y="711.9" class="st26" width="1411.5" height="33.1"/>
		<g>
			<polygon class="st21" points="615.8,863.2 616.2,896.6 616.4,930 616.5,996.9 616.4,1063.7 616.2,1097.1 615.8,1130.5
				615.5,1097.1 615.3,1063.7 615.2,996.9 615.3,930 615.5,896.6 			"/>
		</g>
		<g>
			<polygon class="st21" points="1909.4,1172 1909.1,1140.1 1908.9,1108.2 1908.8,1044.5 1908.9,980.7 1909.1,948.8 1909.4,916.9
				1909.8,948.8 1910,980.7 1910.1,1044.5 1910,1108.2 1909.8,1140.1 			"/>
		</g>
	</g>
	<g>
		<path class="st27" d="M1343.3,711.9h77.1c2.5,0,4.6-2.1,4.6-4.6v-0.6c0-2.5-2.1-4.6-4.6-4.6h-77.5c-3.7,0-5.9,4.1-3.8,7.2l0.4,0.6
			C1340.4,711.2,1341.8,711.9,1343.3,711.9z"/>
		<path class="st27" d="M1341.6,711.9l-23.5-133.7c0,0-5-12.1-24.1-12.1c-27,0.1-104.3,4.5-104.3,4.5l50.8,141.4H1341.6z"/>
		<path class="st28" d="M1340.9,712.1l-25.8-135.4c-1.2-6.2-6.6-10.7-12.9-10.7h-185.1c-8.3,0-14.5,7.6-12.9,15.7l26.5,130.1
			L1340.9,712.1z"/>
		<ellipse class="st29" cx="1209.3" cy="636.7" rx="13.2" ry="11.7"/>
	</g>
	<g>
		<path class="st9" d="M1117.5,842.6c0,0,34.2,12.4,40.3,29.2c6,16.8,5.6,45.5,5.6,45.5l-62.6-59.6L1117.5,842.6z"/>
		<path class="st9" d="M816.6,452c0,0,9.4,11.8,8.1,23.8c-1.3,12-4,26.7-4,26.7l61.7,10.3c0,0-1-5.4,0-22.8
			c1-17.5,3.6-25.1,3.6-25.1l-14.8-21.6L816.6,452z"/>
		<path class="st9" d="M943.7,419.9c-0.2-0.3-0.5-0.7-0.7-1.1v-46.9c0-21.9-18.9-39.9-42.1-39.9h-1c-23.1,0-42.1,18-42.1,39.9v24.9
			c-1.6-0.4-3.3-0.5-5,0c-5.5,1.7-7,8.6-8.1,13.6c-0.7,3.2-2.1,9.4,1.2,16c1.1,2.3,4.2,8.5,10.6,9.5c0.4,0.1,0.8,0.1,1.3,0.1
			c0,21.9,18.9,39.8,42.1,39.8h1c23.1,0,42.1-18,42.1-39.9v-6.4c0.1,0,0.3,0,0.4-0.1c0.3-0.1,3.5-1.1,4.1-3.3
			C947.9,424,945.6,422.3,943.7,419.9z"/>
		<circle class="st13" cx="892.1" cy="418.9" r="15.5"/>
		<g>
			<g>
				<path class="st12" d="M935.1,443c-4.8,1.4-9.6,0.7-14-1.6c-1-0.5-1.9,1-0.9,1.5c4.8,2.6,10.1,3.3,15.4,1.8
					C936.7,444.4,936.2,442.7,935.1,443L935.1,443z"/>
			</g>
		</g>

			<ellipse transform="matrix(0.9733 -0.2297 0.2297 0.9733 -67.144 223.7892)" class="st12" cx="927.8" cy="400.3" rx="7.4" ry="7.4"/>
		<g>
			<g>
				<path class="st12" d="M933.8,380.6c-7.9-2.5-16.1,0.2-21.4,6.5c-1.3,1.6,0.9,3.9,2.3,2.3c4.6-5.5,11.4-7.8,18.3-5.7
					C935,384.3,935.8,381.2,933.8,380.6L933.8,380.6z"/>
			</g>
		</g>
		<path class="st11" d="M858.2,396.8c6.4,1.8,6.4,1.8,7.6,5.1c1,2.6-0.3,5.3,0,5.4c0.6,0.2,2.6-15.4,12.1-20.6c3.6-2,6-1.1,12.5-1.3
			c15.3-0.5,26.9-6,32.2-8.5c11.4-5.4,18.7-12.2,22.8-16.1c6.4-6.1,15.2-14.5,20.1-28.2c3-8.3,6.7-18.9,1.3-28.6
			c-4-7.2-12.5-13-20.6-12.5c-5,0.3-6.2,2.7-13.4,5.4c-5.1,1.9-9.6,2.6-21.9,3.1c-13,0.5-22.8,0.3-38.9,0c-19-0.4-21.6-0.3-26.4,0.4
			c-7.8,1.3-16.7,2.9-25.9,9.4c-3.6,2.5-13.2,9.5-17.4,21.9c-1.2,3.5-5.5,16-2.2,23.7c0.3,0.7,1.3,2.9,0.4,4.9
			c-1.1,2.6-4.7,3.1-6.3,3.6c-8.1,2.5-10.2,19.5-10.7,23.7c-3.2,25.9,11.6,47.1,14.8,51.4c2.2,3.1,9.5,12.5,21.9,20.1
			c11.6,7.1,19.8,7.9,21.9,8.1c4.7,0.3,10.7,0.8,15.2-2.7c3.6-2.8,6.2-7.8,6.3-21.9C863.7,415.7,857.9,400.1,858.2,396.8z"/>
		<path class="st9" d="M863.3,397.7c-1.9-0.2-3.9-0.2-5.9,0.2c-8.3,1.7-10.6,8.5-12.2,13.6c-1,3.2-3.1,9.4,1.9,15.9
			c1.7,2.3,6.4,8.4,16,9.4c0.1,0,0.1,0,0.2,0V397.7z"/>
		<path class="st16" d="M861,401.4c-1.1,0.2-4.8,1-7.7,4.3c-3.3,3.7-3.4,8-3.4,9"/>
		<path class="st1" d="M863.3,398.4c0,0-4.3-1.3-6.1-0.5c-1.8,0.8,0.9-1.6,0.9-1.6l5.5,0.7L863.3,398.4z"/>
		<polygon class="st9" points="861.8,435.5 864.9,438.2 864.9,431 		"/>
		<path class="st16" d="M882.5,472.2c0,0-2.4,0.8-8.7-5s9.4,12,9.4,12l0.9-6.4L882.5,472.2z"/>
		<path class="st17" d="M953.2,297.8c-3.6,5-9.5,11.6-18.5,16.6c-33.7,18.8-64.7-12.2-92.3,3.7c-19.5,11.2-23.8,38-27.7,61.8
			c-2.8,17.6-6.1,37.9,6.5,54.5c9.5,12.5,23.5,16.9,30.5,18.5"/>
		<path class="st17" d="M841.5,392.9c-1.4-5.1-6.9-26.4,4.6-39.7c8.5-9.9,22.5-10.8,39.7-12c22.7-1.6,28.5,3.8,41.5-0.3
			c8.7-2.7,19.9-9.2,30.5-26.5"/>
		<g>

				<rect x="987.7" y="1228.1" transform="matrix(1 2.543261e-03 -2.543261e-03 1 3.2247 -2.5835)" class="st9" width="59.5" height="77.1"/>
			<path class="st1" d="M980.8,1299.7l71.4,0.2c23.7,10.8,49,18.1,76.4,20.8c0,0,17.6,9.2,0,18s-144.6,6.1-144.6,6.1
				C975.8,1333.3,974.8,1318.2,980.8,1299.7z"/>
		</g>
		<g>

				<rect x="1167.7" y="1230" transform="matrix(0.971 -0.2389 0.2389 0.971 -268.2137 322.6496)" class="st9" width="58.2" height="75.4"/>
			<path class="st1" d="M1172.9,1292.4l69.8,1c23,10.8,47.7,18.2,74.5,21.3c0,0,17.1,9.2-0.3,17.6c-17.3,8.3-141.5,4.3-141.5,4.3
				C1167.6,1325.1,1166.8,1310.4,1172.9,1292.4z"/>
		</g>
		<path class="st30" d="M947.5,849.7l168.4,13.5c0,0,42.9,13.3,50.1,69.7s59.1,324.8,59.1,324.8s-30.4,19.7-62.6,16.1
			c0,0-84.1-205.8-98.4-261.3c-14.3-55.5-85.9-3.6-85.9-3.6l-165.6-50l89.8-95.8L947.5,849.7z"/>
		<path class="st31" d="M1122.1,845.2c0,0-1.8,17-15.2,17.9c-13.4,0.9-77.8-5.4-77.8-5.4s-42.9-39.1-66.6-64.1l2.2,38.7
			c0,0-3.6,21-27.7,53.8c-24.2,32.8-51.9,54.7-51.9,54.7l-14,6.2c-40.6,18.2-87.6,15.5-125.9-7L730,931
			c-44.5-26.2-70.6-75.2-67.5-126.8l11.4-191.7l39.4-73.8c0,0,7.2-18.2,25.1-20c17.9-1.8,44.7-5.9,44.7-5.9l122.6,12.3l41.5,5.4
			l0.4-0.3c0,0,13.6,8,26.1,51.9c12.5,43.8,60.8,183.4,60.8,183.4s-2.7,5.4,38.5,38.5C1114.1,837.2,1122.1,845.2,1122.1,845.2z"/>
		<polygon class="st31" points="783,512.8 802.9,500.1 885.9,506.5 902.3,524.9 		"/>
		<g>
			<path class="st32" d="M947.5,775.4c-1.3-3.7-2.5-7.4-3.7-11.1l-3.6-11.1c-2.4-7.4-4.6-14.9-7-22.3c-2.2-7.5-4.5-14.9-6.7-22.4
				l-3.2-11.2c-1-3.8-2.1-7.5-3.1-11.3c1.3,3.7,2.5,7.4,3.7,11.1l3.6,11.1c2.4,7.4,4.6,14.9,7,22.3c2.2,7.5,4.5,14.9,6.7,22.4
				l3.2,11.2C945.4,767.9,946.5,771.7,947.5,775.4z"/>
		</g>
		<g>
			<path class="st32" d="M897,604.7c-2.9-5.8-4.3-12.4-4.1-19c0.1-6.6,2.1-13.1,5.4-18.8c1.7-2.8,3.8-5.4,6-7.8
				c1.2-1.2,2.3-2.3,3.6-3.4c0.6-0.5,1.2-1.1,1.9-1.6l2-1.5c0.6-0.5,1.3-0.9,2-1.4l2.1-1.3c1.4-0.8,2.8-1.6,4.3-2.4l4.4-2.1
				c1.5-0.6,3-1.2,4.5-1.8c-1.5,0.7-2.9,1.4-4.4,2.1l-4.3,2.3c-1.4,0.8-2.8,1.7-4.1,2.5l-2,1.4c-0.7,0.5-1.3,0.9-1.9,1.4
				c-1.3,1-2.5,2-3.7,3.1c-1.2,1-2.3,2.2-3.5,3.3c-2.2,2.4-4.2,4.9-5.8,7.6c-1.6,2.7-3,5.7-3.9,8.7c-0.9,3.1-1.4,6.2-1.6,9.4
				c-0.2,3.2,0,6.4,0.6,9.6C894.9,598.6,895.7,601.7,897,604.7z"/>
		</g>
		<g>
			<path class="st32" d="M793.5,512.8c3.7,0.3,7.4,0.6,11,0.9l11,1.1c7.3,0.7,14.7,1.6,22,2.3c7.3,0.9,14.6,1.7,22,2.6l11,1.4
				c3.7,0.5,7.3,1,11,1.6c-3.7-0.3-7.4-0.6-11-0.9l-11-1.1c-7.3-0.7-14.7-1.6-22-2.3c-7.3-0.9-14.6-1.7-22-2.6l-11-1.4
				C800.9,513.9,797.2,513.4,793.5,512.8z"/>
		</g>
		<path class="st30" d="M944.8,996.9l37.3,290.4c0,0,56.4,9.4,67.1,0c10.7-9.4,0-336.9,0-336.9L944.8,996.9z"/>
		<g>
			<path class="st21" d="M1056.7,997.2c-1-2.4-2-4.9-3-7.3l-2.9-7.4c-1.9-4.9-3.7-9.9-5.5-14.8c-1.8-5-3.6-9.9-5.2-14.9l-2.5-7.5
				c-0.8-2.5-1.6-5-2.4-7.6c1,2.4,2,4.9,3,7.3l2.9,7.4c1.9,4.9,3.7,9.9,5.5,14.8c1.8,5,3.6,9.9,5.2,14.9l2.5,7.5
				C1055.1,992.1,1055.9,994.6,1056.7,997.2z"/>
		</g>
		<g>
			<path class="st32" d="M735.9,533.7c0.1,2.6,0,5.3,0,7.9l-0.1,7.9c-0.1,5.3-0.3,10.6-0.4,15.8c-0.2,5.3-0.4,10.6-0.8,15.8
				l-0.5,7.9c-0.2,2.6-0.4,5.3-0.6,7.9c-0.1-2.6,0-5.3,0-7.9l0.1-7.9c0.1-5.3,0.3-10.6,0.5-15.8c0.2-5.3,0.4-10.6,0.8-15.8l0.5-7.9
				C735.5,539,735.7,536.3,735.9,533.7z"/>
		</g>
	</g>
	<g>
		<rect x="810.6" y="1062" class="st33" width="32.8" height="253.3"/>
		<path class="st34" d="M622.2,617.1c0,0,160.2-28.6,205.3,39.4c45.2,68,61.7,166.4,61.7,166.4v93.1c0,0,5,51.9,49.8,51.9
			c44.7,0,66.2-8.9,66.2-8.9s57.3-3.6,69.8,60.8c0,0-8.2,34-199.1,48.3c-144.4,25.9-183.4-37.1-192.8-59.1
			C692.5,1020.2,577.5,858.7,622.2,617.1z"/>
		<path class="st33" d="M691.2,1340.6h283.1c0,0-121.2-54.4-158.7-50.6C778.1,1293.9,691.2,1340.6,691.2,1340.6z"/>
	</g>
	<g>
		<g>
			<path class="st35" d="M1882.4,1158.9h-148.5c-2.4,0-4.3-1.9-4.3-4.3l0,0c0-2.4,1.9-4.3,4.3-4.3h148.5c2.4,0,4.3,1.9,4.3,4.3l0,0
				C1886.7,1157,1884.7,1158.9,1882.4,1158.9z"/>
			<path class="st35" d="M1864.9,1337.6h-113.6c-2.4,0-4.3-1.9-4.3-4.3l0,0c0-2.4,1.9-4.3,4.3-4.3h113.6c2.4,0,4.3,1.9,4.3,4.3l0,0
				C1869.2,1335.7,1867.3,1337.6,1864.9,1337.6z"/>
			<g>
				<g>
					<path class="st35" d="M1866,1330.7h-115.7l-15.5-174.8h146.7L1866,1330.7z M1752.4,1328.3h111.4l15.1-170h-141.5L1752.4,1328.3
						z"/>
				</g>
				<g>
					<g>

							<rect x="1721.6" y="1259.7" transform="matrix(0.6737 -0.739 0.739 0.6737 -339.7283 1752.2032)" class="st35" width="185.8" height="2.4"/>
					</g>
					<g>

							<rect x="1718.2" y="1223.4" transform="matrix(0.6737 -0.739 0.739 0.6737 -314.5356 1736.6926)" class="st35" width="182.5" height="2.4"/>
					</g>
					<g>
						<polygon class="st35" points="1791.3,1330.3 1789.6,1328.7 1872,1238.3 1872.9,1239.1 1874.1,1239.1 1874.1,1239.5
							1873.8,1239.9 						"/>
					</g>
					<g>

							<rect x="1728.6" y="1185.1" transform="matrix(0.6854 -0.7282 0.7282 0.6854 -307.3584 1661.2437)" class="st35" width="80.2" height="2.4"/>
					</g>
					<g>
						<polygon class="st35" points="1745.6,1255 1743.8,1253.3 1832.5,1155.8 1834.4,1157.5 1827.2,1165.4 						"/>
					</g>
					<g>

							<rect x="1817.9" y="1305.8" transform="matrix(0.6737 -0.739 0.739 0.6737 -362.7617 1792.2766)" class="st35" width="61" height="2.4"/>
					</g>
					<g>

							<rect x="1732.3" y="1170.6" transform="matrix(0.6904 -0.7234 0.7234 0.6904 -304.9303 1631.0247)" class="st35" width="41.7" height="2.4"/>
					</g>
				</g>
				<g>
					<g>

							<rect x="1800.2" y="1169.1" transform="matrix(0.7391 -0.6736 0.6736 0.7391 -379.6247 1542.4926)" class="st35" width="2.4" height="184.5"/>
					</g>
					<g>

							<rect x="1805.1" y="1133.2" transform="matrix(0.7391 -0.6736 0.6736 0.7391 -353.8479 1536.3174)" class="st35" width="2.4" height="183.6"/>
					</g>
					<g>

							<rect x="1783" y="1224.2" transform="matrix(0.7391 -0.6736 0.6736 0.7391 -399.8946 1537.0557)" class="st35" width="2.4" height="121.1"/>
					</g>
					<g>

							<rect x="1845.9" y="1146.1" transform="matrix(0.7283 -0.6852 0.6852 0.7283 -311.3343 1588.1146)" class="st35" width="2.4" height="81.2"/>
					</g>
					<g>
						<polygon class="st35" points="1870.6,1255.7 1781.1,1157.5 1782.9,1155.8 1790.1,1163.7 1872.4,1254 						"/>
					</g>
					<g>

							<rect x="1766.4" y="1277.6" transform="matrix(0.7391 -0.6736 0.6736 0.7391 -419.5251 1531.7336)" class="st35" width="2.4" height="59.7"/>
					</g>
					<g>
						<polygon class="st35" points="1876.6,1188.4 1847.1,1157.5 1848.9,1155.9 1849.2,1156.3 1878.3,1186.8 						"/>
					</g>
				</g>
			</g>
		</g>
	</g>
	<g>
		<path class="st36" d="M487.4,967.9c0,0-18.5-59.4-0.8-80.4c17.8-21,19.8-16.2,27.1-42.8c7.3-26.7,10.1-46.9,31.5-63.4
			c21.4-16.6,34.7-25.9,34.7-25.9s5.7,52.5-15.8,79.6c-21.4,27.1-19.4,21.8-17.4,50.1C548.8,913.3,519.5,954.3,487.4,967.9z"/>
		<path class="st36" d="M449.1,887.9c-7.7-79.6-1.4-180.8-19.1-240.5c0,0,35.6,17.8,34.7,54.9c-0.8,37.2,6.5,35.5,10.5,49.3
			C483.3,790.6,456.7,824.6,449.1,887.9z"/>
		<path class="st36" d="M424.6,965.5c0,0-42-12.6-48.5-43.6c-6.5-31-3.6-26.4-13.7-44.9c-10.1-18.4-9-31.5-11.8-49.9
			c-3.9-25.7-21.8-22.4-14.7-69.9c44.5,21.1,26.3,29.2,39.8,42.5c34.1,33.5,23.3,57.1,44.5,79.4C439.6,899.2,443.5,915,424.6,965.5z
			"/>
		<polygon class="st37" points="452.7,874.8 460.5,1104.5 449.7,1100.5 448.3,830.1 		"/>
		<path class="st37" d="M449.2,1124.6l-6.4,0.4c-15.6-243.4-90.1-337.6-90.3-337.9C434.9,894.1,447.8,1103.7,449.2,1124.6z"/>
		<path class="st37" d="M556.6,799.9c-20.9,33.1-80.3,149.5-92.1,324.9l-6.4-0.4C460.3,1092,471.5,935.5,556.6,799.9z"/>
		<linearGradient id="SVGID_1_" gradientUnits="userSpaceOnUse" x1="382.7691" y1="1208.6554" x2="521.5518" y2="1208.6554">
			<stop  offset="0.2064" style="stop-color:#CCCCCC"/>
			<stop  offset="1" style="stop-color:#999898"/>
		</linearGradient>
		<path class="st38" d="M410.3,1338.4H494c61.8-102.8,2.6-154.9-13.5-190.2c-12.3-27.1-10.4-44.7,0.3-69.3c-30.2,0-27,0-57.3,0
			c10.7,24.6,12.6,42.2,0.3,69.3C407.7,1183.5,348.5,1235.6,410.3,1338.4z"/>
		<polygon class="st37" points="436.8,1078.9 428.8,1055.6 444.1,1078.9 		"/>
		<polygon class="st37" points="473.6,1078.9 478,1049.5 462.4,1078.9 		"/>
	</g>
</g>
</svg>
