<svg xmlns="http://www.w3.org/2000/svg" viewBox="0 0 512 512"><defs><style>.cls-1{fill:#27273d;}.cls-2{fill:#363651;}.cls-3{fill:#db1b1b;}.cls-4{fill:#f6c752;}.cls-5{fill:#fcc8bc;}.cls-6{fill:#fab3a7;}.cls-7,.cls-8{fill:none;stroke-linecap:round;stroke-miterlimit:10;stroke-width:7px;}.cls-7{stroke:#e88032;}.cls-8{stroke:#27273d;}.cls-9{fill:#f58d89;}.cls-10{fill:#d54545;}.cls-11{fill:#c11e1e;}.cls-12{fill:#f7bb38;}.cls-13{fill:#dda22c;}.cls-14{fill:#f6d372;}.cls-15{fill:#a99bd4;}.cls-16{fill:#fff;}</style></defs><title>Avatar Users2</title><g id="BULINE"><circle class="cls-1" cx="256" cy="256" r="256"/></g><g id="Icons"><path class="cls-2" d="M484.77,371a257,257,0,0,1-93.48,102.35c-.39.26-.79.5-1.19.75-1.13.7-2.27,1.39-3.42,2.06a254.16,254.16,0,0,1-43.37,20.56q-8.6,3.12-17.47,5.63h0a257.63,257.63,0,0,1-137.5.61q-9.12-2.49-18-5.64a253.6,253.6,0,0,1-47.92-22.88c-1-.58-1.91-1.17-2.86-1.77-1.44-.91-2.88-1.84-4.3-2.78A257.15,257.15,0,0,1,27.23,371a257,257,0,0,1,99.61-106.08q6.06-3.56,12.34-6.78l.87-.45c2.14-1.08,4.29-2.14,6.46-3.16l1.18-.56q10.67-5,21.84-9,2.37-.85,4.76-1.65c1.38-.47,2.77-.93,4.17-1.37h0q6.3-2,12.75-3.68c1.61-.43,3.24-.83,4.87-1.22q6.63-1.61,13.4-2.84,10.68-2,21.66-3Q243.43,230,256,230q12.15,0,24,1.12a252.31,252.31,0,0,1,36.52,6.09q9,2.16,17.7,5,3.09,1,6.15,2.06,2.31.81,4.61,1.66l3.14,1.19q10.13,3.9,19.82,8.64l.54.26q3.19,1.56,6.34,3.22c.48.25,1,.5,1.45.77q5.9,3.13,11.61,6.58,10.28,6.18,19.89,13.29a257.22,257.22,0,0,1,77,91.15Z"/><path class="cls-3" d="M156.31,164.58,143.44,151c-33,21.08-50.13,46.08-56.22,56.4a99.53,99.53,0,0,1-11.09,15.49c-29.07,32.81-60.58,31.87-60.58,31.87L28,261.31,17.3,281.4C66,271.07,86.17,238.75,93.5,222.17a112.47,112.47,0,0,1,18-28.63A162.3,162.3,0,0,0,98.92,236.1a99.11,99.11,0,0,1-4.26,18.56c-14.16,41.48-43.61,52.77-43.61,52.77l14,1.29L63,331.37c40.93-28.3,47.1-65.91,47.47-84a111.19,111.19,0,0,1,6.47-36C129,178.15,146.17,170,146.17,170l-3.06-1.36C151.27,164.83,156.31,164.58,156.31,164.58Z"/><path class="cls-3" d="M355.69,164.58,368.56,151c33,21.08,50.13,46.08,56.22,56.4a99.53,99.53,0,0,0,11.09,15.49c29.07,32.81,60.58,31.87,60.58,31.87L484,261.31,494.7,281.4c-48.68-10.33-68.87-42.65-76.2-59.23a112.47,112.47,0,0,0-18-28.63,162.3,162.3,0,0,1,12.58,42.56,99.11,99.11,0,0,0,4.26,18.56C431.5,296.14,461,307.43,461,307.43l-14,1.29L449,331.37c-40.93-28.3-47.1-65.91-47.47-84a111.19,111.19,0,0,0-6.47-36C383,178.15,365.83,170,365.83,170l3.06-1.36C360.73,164.83,355.69,164.58,355.69,164.58Z"/><path class="cls-4" d="M386.63,202.68c0,74.62-57.7,135.11-128.85,135.11S128.92,277.3,128.92,202.68c0-72.4,54.31-131.49,122.54-134.94,2.09-.11,4.19-.16,6.32-.16,1.76,0,3.52,0,5.26.12C331.76,70.58,386.63,129.91,386.63,202.68Z"/><path class="cls-5" d="M386.68,476.16a254.16,254.16,0,0,1-43.37,20.56q-8.6,3.12-17.47,5.63c0,.17-.11.35-.17.52.06-.17.11-.34.16-.52a257.63,257.63,0,0,1-137.5.61q-9.12-2.49-18-5.64a253.6,253.6,0,0,1-47.92-22.88c.43-.63.87-1.25,1.31-1.87,1-1.31,1.93-2.63,2.93-3.92.5-.64,1-1.27,1.51-1.92,1.44-1.81,2.95-3.58,4.5-5.33l.48-.55,1.45-1.58,1.7-1.8c.57-.59,1.16-1.19,1.74-1.77s1.18-1.18,1.79-1.76,1.2-1.16,1.82-1.73q1.84-1.72,3.76-3.36l1.71-1.45c.73-.61,1.48-1.22,2.22-1.81s1.35-1.07,2-1.59,1.24-.94,1.87-1.41c.88-.66,1.79-1.31,2.69-1.95.54-.37,1.07-.75,1.62-1.12s1.21-.83,1.83-1.24l1.55-1c.41-.27.83-.54,1.26-.8l0,0,1.82-1.12,1.88-1.12c.42-.26.87-.51,1.3-.75.77-.45,1.55-.88,2.33-1.32q2.67-1.47,5.45-2.85,1.4-.71,2.82-1.38a59.09,59.09,0,0,1,7.67-2.67h0l.12,0c12.14-3.58,31.83-8.19,36.36-13.43,6.42-7.43,3.45-20.77,3.45-30.42,0-2.05,0-3.89-.07-5.56,0-.16,0-.31,0-.46h0c-.48-20-2.77-13.87,14.15-19.54a26.39,26.39,0,0,1,4.28-.7h0c11.79-1.31,42.32-2.63,45.87.7,3.22,3,3.18,9.8,2.34,17.48l-.06.52c-1.16,10.57-3.73,22.67-1.36,28.71,6.21,15.93,19.61,15.71,35.22,23,.83.38,1.65.78,2.47,1.17q4.9,2.37,9.46,4.94c.42.24.84.47,1.25.72l1.24.72c.52.3,1,.61,1.54.92l.66.39c.93.56,1.84,1.13,2.75,1.71.37.23.73.47,1.1.72.59.37,1.16.75,1.73,1.13.84.56,1.68,1.13,2.5,1.7l.79.55.43.31.23.17.21.14c.5.37,1,.73,1.5,1.1l.49.37.6.44c.52.39,1,.78,1.55,1.18.81.62,1.6,1.24,2.38,1.88q4.69,3.79,8.94,7.85c.7.67,1.4,1.35,2.08,2s1.12,1.13,1.66,1.68c.21.23.42.45.64.66.58.61,1.15,1.22,1.71,1.84s1.13,1.23,1.67,1.85l.62.7,1.38,1.59.32.39c.55.64,1.09,1.3,1.63,2s1.19,1.48,1.77,2.22,1.16,1.5,1.71,2.25C384.18,472.54,385.46,474.34,386.68,476.16Z"/><path class="cls-5" d="M368,196.42v75.31c0,56.18-44.72,74.17-77.31,102.75a50.16,50.16,0,0,1-66.83,0c-32.59-28.58-77.31-46.57-77.31-102.75V196.42c0-55.25,41.16-100.31,92.7-102.53,1.32-.07,2.66-.1,4-.1h28C324.66,93.79,368,139.74,368,196.42Z"/><path class="cls-6" d="M191.24,271.73V196.42c0-53.78,39-97.92,88.62-102.26-2.66-.25-5.35-.36-8.08-.36h-28c-53.41,0-96.7,46-96.7,102.62V233.7a22.16,22.16,0,1,0,0,44.31h.21c3.21,51.29,45.74,69,77.09,96.47a50,50,0,0,0,55.5,7.57,51.35,51.35,0,0,1-11.32-7.57C235.94,345.91,191.24,327.91,191.24,271.73Z"/><circle class="cls-5" cx="368.49" cy="255.86" r="22.16"/><path class="cls-7" d="M176.84,225.42s27.93-15.56,52,0"/><ellipse class="cls-1" cx="202.49" cy="253.18" rx="9.26" ry="13.33"/><path class="cls-7" d="M284.45,225.42s27.93-15.56,52,0"/><ellipse class="cls-1" cx="310.1" cy="253.18" rx="9.26" ry="13.33"/><rect class="cls-6" x="241.14" y="278.01" width="32.19" height="12.2" rx="5.59"/><path class="cls-8" d="M185.66,243.36s16-10.09,33.66,0"/><path class="cls-8" d="M293.27,243.36s16-10.09,33.66,0"/><path class="cls-9" d="M147.69,247a8.82,8.82,0,0,0,0,17.63Z"/><path class="cls-6" d="M368.5,264.67a8.82,8.82,0,0,0,0-17.63Z"/><path class="cls-10" d="M257.23,312.44c-16.83-2.73-31.49,8.2-31.49,8.2,0,8.7,14.1,17.14,31.49,17.14h0c17.4,0,31.5-8.44,31.5-17.14C288.73,320.64,274.07,309.71,257.23,312.44Z"/><path class="cls-11" d="M279.64,321.39H241.53a5.73,5.73,0,0,1,2.65-3.26,47.52,47.52,0,0,1,20.26-6.07,33.9,33.9,0,0,0-7.2.38c-16.83-2.72-31.5,8.2-31.5,8.2,0,8.69,14.1,17.14,31.5,17.14a52.57,52.57,0,0,0,7.21-.49c-10.11-1.39-18.35-5.62-22.1-10.68a5.44,5.44,0,0,1-.84-1.71h38.13a1.76,1.76,0,1,0,0-3.51Z"/><path class="cls-4" d="M371.22,200.34l-3.79,33.36c-7.64-25.15-38.6-43.91-38.6-43.91,24.55,37.84,13.94,83.75,13.94,83.75.62-62-31.13-82.51-31.13-82.51-25.74-12.63-40.95-27-48.6-35.81a72.33,72.33,0,0,1-5.78-7.42,75.8,75.8,0,0,1-5.8,7.44c-7.67,8.79-22.88,23.16-48.6,35.79,0,0-31.75,20.47-31.13,82.51,0,0-10.61-45.91,13.93-83.75,0,0-30.95,18.76-38.6,43.91l-3.78-33.36,3.6-40.53a36.7,36.7,0,0,1,5.8-16.76l16.47-25.23a36.59,36.59,0,0,1,21.28-15.38l57.92-15.33c1-.28,2.07-.5,3.11-.69A36.58,36.58,0,0,1,263,86.28a32.84,32.84,0,0,1,4.15.85l56.95,15.29a36.53,36.53,0,0,1,21.17,15.35l16.5,25.28a36.59,36.59,0,0,1,5.81,16.76Z"/><circle class="cls-12" cx="143.28" cy="109.76" r="62.53"/><path class="cls-13" d="M156.31,170.93a62.54,62.54,0,1,1-13-123.7,62.88,62.88,0,0,1,13,1.36,62.54,62.54,0,0,0,0,122.34Z"/><circle class="cls-4" cx="377.31" cy="109.76" r="62.53"/><path class="cls-12" d="M390.34,170.93a62.54,62.54,0,1,1-13-123.7,62.88,62.88,0,0,1,13,1.36,62.54,62.54,0,0,0,0,122.34Z"/><path class="cls-12" d="M263,67.7v87.52a72.33,72.33,0,0,1-5.78-7.42,75.8,75.8,0,0,1-5.8,7.44V67.74c2.09-.11,4.19-.16,6.32-.16C259.54,67.58,261.3,67.61,263,67.7Z"/><path class="cls-14" d="M378.65,71.06c1.07,12.22-.16,29.93-12.63,43.27a3.12,3.12,0,0,0,2.47,5.27c8.27-.58,20.4-2.29,27.09-7.31a3.14,3.14,0,0,1,4.85,1.31c1.69,4.37,3.77,11.47,2.87,18.25a3.13,3.13,0,0,0,5.56,2.3c6-7.32,11-20.36,3.55-42.13a3.13,3.13,0,0,0-5.48-.82l-1.15,1.57a3.13,3.13,0,0,1-5.1-.07L384.34,69A3.13,3.13,0,0,0,378.65,71.06Z"/><path class="cls-15" d="M185.69,487A58.25,58.25,0,0,0,188.33,503q-9.12-2.49-18-5.64a253.6,253.6,0,0,1-47.92-22.88c.43-.63.87-1.25,1.31-1.87,1-1.31,1.93-2.63,2.93-3.92.5-.64,1-1.27,1.51-1.92,1.44-1.81,2.95-3.58,4.5-5.33l.48-.55,1.45-1.58,1.7-1.8c.57-.59,1.16-1.19,1.74-1.77s1.18-1.18,1.79-1.76,1.2-1.16,1.82-1.73c1.23-1.14,2.48-2.25,3.76-3.36l1.71-1.45c.73-.61,1.48-1.22,2.22-1.81s1.35-1.07,2-1.59,1.24-.94,1.87-1.41c.88-.66,1.79-1.31,2.69-1.95.54-.37,1.07-.75,1.62-1.12s1.21-.83,1.83-1.24l1.55-1c.41-.27.83-.54,1.26-.8l0,0,1.82-1.12,1.88-1.12c.42-.26.87-.51,1.3-.75.77-.45,1.55-.88,2.33-1.32q2.67-1.47,5.45-2.85,1.4-.71,2.82-1.38a59.09,59.09,0,0,1,7.67-2.67h0l.12,0v60.27C185.66,486,185.67,486.52,185.69,487Z"/><path class="cls-15" d="M386.68,476.16a254.16,254.16,0,0,1-43.37,20.56q-8.6,3.12-17.47,5.63c0,.17-.11.35-.17.52.06-.17.11-.34.16-.52.11-.35.22-.71.31-1.07A57.83,57.83,0,0,0,328.29,487c0-.49,0-1,0-1.46V426.65q4.9,2.37,9.46,4.94c.42.24.84.47,1.25.72l1.24.72c.52.3,1,.61,1.54.92l.66.39c.93.56,1.84,1.13,2.75,1.71.37.23.73.47,1.1.72.59.37,1.16.75,1.73,1.13.84.56,1.68,1.13,2.5,1.7l.79.55.43.31.23.17.21.14c.5.37,1,.73,1.5,1.1l.49.37c.36.26.72.54,1.08.81s.72.54,1.07.81c.81.62,1.6,1.24,2.38,1.88q4.69,3.79,8.94,7.85c.7.67,1.4,1.35,2.08,2s1.12,1.13,1.66,1.68c.21.23.42.45.64.66.58.61,1.15,1.22,1.71,1.84s1.13,1.23,1.67,1.85l.62.7,1.38,1.59.32.39c.55.64,1.09,1.3,1.63,2s1.19,1.48,1.77,2.22,1.16,1.5,1.71,2.25C384.18,472.54,385.46,474.34,386.68,476.16Z"/><path class="cls-16" d="M185.66,485.38V425.25h-.13a30.07,30.07,0,0,0,.13,60.13Z"/><path class="cls-16" d="M185.69,487A58.25,58.25,0,0,0,188.33,503q-9.12-2.49-18-5.64A33.7,33.7,0,0,1,185.69,487Z"/><path class="cls-16" d="M358.6,455.31a30,30,0,0,0-2.26-11.45,152.35,152.35,0,0,0-18.57-12.27q-4.56-2.56-9.46-4.94v58.73h.23A30.07,30.07,0,0,0,358.6,455.31Z"/><path class="cls-16" d="M343.31,496.72q-8.6,3.12-17.47,5.63c.11-.36.21-.71.3-1.07A57.83,57.83,0,0,0,328.29,487,33.66,33.66,0,0,1,343.31,496.72Z"/></g></svg>
