<svg xmlns="http://www.w3.org/2000/svg" viewBox="0 0 4680 3120"><defs><style>.cls-1{isolation:isolate;}.cls-12,.cls-16,.cls-17,.cls-18,.cls-2{fill:#fff;}.cls-2{opacity:0;}.cls-3{fill:#f5f5f7;}.cls-4{fill:#7a8db0;}.cls-5{fill:#d1dbed;}.cls-6{fill:#9bb0c4;opacity:0.53;}.cls-7{fill:#404040;}.cls-8{fill:#767676;}.cls-9{fill:#678ed3;}.cls-10{fill:#5876b7;}.cls-11{fill:#afc0d8;}.cls-13{fill:#adc6ea;}.cls-14{fill:#2a447a;}.cls-15{fill:#84a0c1;}.cls-16{fill-rule:evenodd;}.cls-17{opacity:0.7;}.cls-18,.cls-38{opacity:0.2;}.cls-19{fill:#a2bcdb;}.cls-20{fill:#6c97c1;}.cls-21{fill:#e9e9e9;}.cls-22{fill:#657ca0;}.cls-23{fill:#facc88;}.cls-24{fill:#6fc183;}.cls-25{fill:#f4a471;}.cls-26{fill:#29488e;}.cls-27{fill:#2e4ea4;}.cls-28{fill:#f6f6f6;}.cls-29{fill:#080808;}.cls-30{fill:#f4aea2;}.cls-31{fill:#1d2f59;}.cls-32{fill:#4e85c6;}.cls-33{fill:#5aa86a;}.cls-34{fill:#234175;}.cls-35{fill:#723328;}.cls-36{opacity:0.47;}.cls-37{fill:#3071b2;}.cls-38{mix-blend-mode:multiply;}.cls-39{fill:#a5a5a5;}.cls-40{fill:#419786;}.cls-41{fill:#204f46;}.cls-42{opacity:0.17;}.cls-43{opacity:0.44;}.cls-44{fill:#0d0d0d;}.cls-45{fill:#f18a8b;}.cls-46{fill:#d1696e;}</style></defs><title>03</title><g class="cls-1"><g id="_03" data-name="03"><rect id="_03-2" data-name="03" class="cls-2" width="4680" height="3120"/><path class="cls-3" d="M2801.16,260c-325.95,0-616.74,167.46-807,429.32A1152.09,1152.09,0,0,0,1806.81,674c-573.21,0-1037.88,420.28-1037.88,938.72,0,386.55,258.34,718.47,627.36,862.37,78.75,58.95,373.9,123.65,877.45,154.88,409.06,25.37,680.55-54.14,786.76-93.5,447.71-128.33,778.55-581.15,778.55-1120.06C3839.05,777.76,3374.37,260,2801.16,260Z"/><ellipse class="cls-4" cx="2340" cy="2621.19" rx="1717.33" ry="238.81"/><rect class="cls-5" x="1232.62" y="547.7" width="455.69" height="379.69" rx="16.44"/><rect class="cls-5" x="2514.14" y="1007.93" width="1113.39" height="733.82" rx="16.67"/><rect class="cls-6" x="1673.85" y="448.54" width="1638.57" height="1091.71" rx="22"/><rect class="cls-7" x="3008.31" y="443.53" width="16.01" height="1046.6"/><rect class="cls-8" x="3060.33" y="1025.97" width="155.05" height="12.03" rx="1.33"/><rect class="cls-8" x="3059.58" y="1071.46" width="155.05" height="12.03" rx="1.33"/><rect class="cls-8" x="3059.95" y="1116.57" width="155.05" height="12.03" rx="1.33"/><rect class="cls-8" x="3059.95" y="1160.93" width="155.05" height="12.03" rx="1.33"/><rect class="cls-9" x="1619.83" y="415.46" width="1638.57" height="1091.71" rx="22"/><rect class="cls-10" x="1684.81" y="465.18" width="1234.93" height="36.13" rx="16.96"/><rect class="cls-11" x="3333.42" y="1105.67" width="238.58" height="70.68" rx="7.83"/><rect class="cls-12" x="3456.47" y="1207.92" width="238.58" height="70.68" rx="7.83"/><rect class="cls-11" x="3350.68" y="1310.93" width="238.58" height="70.68" rx="7.83"/><path class="cls-12" d="M2520.88,2574.41l43.56,25.59a111.9,111.9,0,0,1,11.26-13.84L2539.5,2551A162.18,162.18,0,0,0,2520.88,2574.41Z"/><rect class="cls-13" x="1693.97" y="533" width="1472.6" height="892.29"/><rect class="cls-14" x="1850.97" y="652.21" width="153.18" height="20.76" rx="9.75"/><rect class="cls-14" x="2052.65" y="652.21" width="313.48" height="20.76" rx="9.75"/><rect class="cls-12" x="1915.99" y="736.24" width="153.18" height="20.76" rx="9.75"/><rect class="cls-12" x="1915.99" y="814.23" width="153.18" height="20.76" rx="9.75"/><rect class="cls-12" x="1915.99" y="892.22" width="153.18" height="20.76" rx="9.75"/><rect class="cls-12" x="1915.99" y="970.21" width="153.18" height="20.76" rx="9.75"/><rect class="cls-14" x="1850.97" y="1052.73" width="153.18" height="20.76" rx="9.75"/><rect class="cls-14" x="2052.65" y="1052.73" width="313.48" height="20.76" rx="9.75"/><rect class="cls-12" x="2736.81" y="1136.76" width="283.06" height="20.76" rx="9.75"/><rect class="cls-12" x="2736.81" y="1214.75" width="283.06" height="20.76" rx="9.75"/><rect class="cls-12" x="2736.81" y="1292.74" width="283.06" height="20.76" rx="9.75"/><path class="cls-9" d="M2306.81,734.49H2158.35A10.37,10.37,0,0,0,2148,744.87v6a10.37,10.37,0,0,0,10.36,10.38h148.46a10.37,10.37,0,0,0,10.36-10.38v-6A10.37,10.37,0,0,0,2306.81,734.49Z"/><path class="cls-12" d="M2603.1,734.49H2454.63a10.36,10.36,0,0,0-10.35,10.38v6a10.36,10.36,0,0,0,10.35,10.38H2603.1a10.37,10.37,0,0,0,10.36-10.38v-6A10.37,10.37,0,0,0,2603.1,734.49Z"/><path class="cls-9" d="M2446.26,808.18H2155.13a10.37,10.37,0,0,0-10.36,10.38v6a10.37,10.37,0,0,0,10.36,10.38h291.13a10.37,10.37,0,0,0,10.36-10.38v-6A10.37,10.37,0,0,0,2446.26,808.18Z"/><path class="cls-9" d="M2791.54,812H2500.41a10.37,10.37,0,0,0-10.36,10.38v6a10.37,10.37,0,0,0,10.36,10.38h291.13a10.36,10.36,0,0,0,10.35-10.38v-6A10.36,10.36,0,0,0,2791.54,812Z"/><path class="cls-9" d="M2979.86,889.54H2688.73a10.37,10.37,0,0,0-10.36,10.38v6a10.37,10.37,0,0,0,10.36,10.38h291.13a10.37,10.37,0,0,0,10.36-10.38v-6A10.37,10.37,0,0,0,2979.86,889.54Z"/><path class="cls-12" d="M2408,967.05H2129.31A10.37,10.37,0,0,0,2119,977.43v6a10.37,10.37,0,0,0,10.36,10.38H2408a10.37,10.37,0,0,0,10.36-10.38v-6A10.37,10.37,0,0,0,2408,967.05Z"/><path class="cls-9" d="M2602.41,889.54H2147.93a10.36,10.36,0,0,0-10.35,10.38v6a10.36,10.36,0,0,0,10.35,10.38h454.48a10.37,10.37,0,0,0,10.36-10.38v-6A10.37,10.37,0,0,0,2602.41,889.54Z"/><path class="cls-9" d="M3010,967.05H2555.49a10.37,10.37,0,0,0-10.36,10.38v6a10.37,10.37,0,0,0,10.36,10.38H3010a10.37,10.37,0,0,0,10.36-10.38v-6A10.37,10.37,0,0,0,3010,967.05Z"/><path class="cls-9" d="M2404.42,734.49h-56.05A10.37,10.37,0,0,0,2338,744.87v6a10.37,10.37,0,0,0,10.36,10.38h56.05a10.37,10.37,0,0,0,10.36-10.38v-6A10.37,10.37,0,0,0,2404.42,734.49Z"/><path class="cls-12" d="M2706.39,734.49h-56A10.37,10.37,0,0,0,2640,744.87v6a10.37,10.37,0,0,0,10.36,10.38h56a10.37,10.37,0,0,0,10.36-10.38v-6A10.37,10.37,0,0,0,2706.39,734.49Z"/><path class="cls-12" d="M2810.74,734.49h-56a10.37,10.37,0,0,0-10.36,10.38v6a10.37,10.37,0,0,0,10.36,10.38h56a10.37,10.37,0,0,0,10.36-10.38v-6A10.37,10.37,0,0,0,2810.74,734.49Z"/><path class="cls-9" d="M2887.5,812h-56a10.37,10.37,0,0,0-10.36,10.38v6a10.37,10.37,0,0,0,10.36,10.38h56a10.37,10.37,0,0,0,10.36-10.38v-6A10.37,10.37,0,0,0,2887.5,812Z"/><path class="cls-9" d="M3077,889.54h-56a10.37,10.37,0,0,0-10.36,10.38v6A10.37,10.37,0,0,0,3021,916.29h56a10.37,10.37,0,0,0,10.36-10.38v-6A10.37,10.37,0,0,0,3077,889.54Z"/><path class="cls-9" d="M2510.67,967.05h-56a10.36,10.36,0,0,0-10.35,10.38v6a10.36,10.36,0,0,0,10.35,10.38h56A10.36,10.36,0,0,0,2521,983.43v-6A10.36,10.36,0,0,0,2510.67,967.05Z"/><path class="cls-9" d="M2984.66,812h-56a10.37,10.37,0,0,0-10.36,10.38v6a10.37,10.37,0,0,0,10.36,10.38h56A10.37,10.37,0,0,0,2995,828.4v-6A10.37,10.37,0,0,0,2984.66,812Z"/><path class="cls-9" d="M2668.72,1133.49H2395.46a10.37,10.37,0,0,0-10.36,10.38v5.38a10.37,10.37,0,0,0,10.36,10.38h273.26a10.37,10.37,0,0,0,10.36-10.38v-5.38A10.37,10.37,0,0,0,2668.72,1133.49Z"/><path class="cls-9" d="M2358.87,1133.49H2085.61a10.37,10.37,0,0,0-10.36,10.38v5.38a10.37,10.37,0,0,0,10.36,10.38h273.26a10.37,10.37,0,0,0,10.36-10.38v-5.38A10.37,10.37,0,0,0,2358.87,1133.49Z"/><path class="cls-9" d="M2181.34,1209.23H1908.08a10.37,10.37,0,0,0-10.36,10.38V1225a10.37,10.37,0,0,0,10.36,10.38h273.26A10.37,10.37,0,0,0,2191.7,1225v-5.39A10.37,10.37,0,0,0,2181.34,1209.23Z"/><rect class="cls-15" x="2436.78" y="1284.97" width="243.51" height="26.16"/><path class="cls-9" d="M2668.8,1210.51H2241.55a10.37,10.37,0,0,0-10.36,10.38v5.39a10.36,10.36,0,0,0,10.36,10.38H2668.8a10.37,10.37,0,0,0,10.36-10.38v-5.39A10.37,10.37,0,0,0,2668.8,1210.51Z"/><path class="cls-9" d="M2307,1285H1879.7a10.37,10.37,0,0,0-10.36,10.38v5.4a10.37,10.37,0,0,0,10.36,10.38H2307a10.37,10.37,0,0,0,10.36-10.38v-5.4A10.37,10.37,0,0,0,2307,1285Z"/><path class="cls-9" d="M2046.79,1133.49h-51.65a10.37,10.37,0,0,0-10.36,10.38v5.38a10.37,10.37,0,0,0,10.36,10.38h51.65a10.37,10.37,0,0,0,10.36-10.38v-5.38A10.37,10.37,0,0,0,2046.79,1133.49Z"/><path class="cls-9" d="M1868.12,1209.23h-51.64a10.37,10.37,0,0,0-10.36,10.38V1225a10.37,10.37,0,0,0,10.36,10.38h51.64a10.36,10.36,0,0,0,10.35-10.38v-5.39A10.36,10.36,0,0,0,1868.12,1209.23Z"/><rect class="cls-12" x="2340.03" y="1284.97" width="72.35" height="26.16"/><path class="cls-9" d="M1955.2,1133.49h-51.65a10.37,10.37,0,0,0-10.36,10.38v5.38a10.37,10.37,0,0,0,10.36,10.38h51.65a10.37,10.37,0,0,0,10.36-10.38v-5.38A10.37,10.37,0,0,0,1955.2,1133.49Z"/><polygon class="cls-12" points="1785.27 746.32 1818.9 763.67 1818.9 758.66 1790.56 744.43 1790.56 744.28 1818.9 730.05 1818.9 725.03 1785.27 742.39 1785.27 746.32"/><polygon class="cls-12" points="1823.63 766.58 1828.49 766.58 1848.78 713.92 1843.85 713.92 1823.63 766.58"/><polygon class="cls-12" points="1853.36 730.05 1881.92 744.28 1881.92 744.43 1853.36 758.66 1853.36 763.67 1886.99 746.39 1886.99 742.32 1853.36 725.03 1853.36 730.05"/><rect class="cls-6" x="1978.45" y="1262.06" width="747.26" height="440.59" rx="13.33"/><rect class="cls-12" x="1955.94" y="1239.5" width="747.26" height="440.59" rx="13.33"/><path class="cls-14" d="M3004.77,453.7a23.5,23.5,0,1,0,23.45,23.5A23.47,23.47,0,0,0,3004.77,453.7Z"/><ellipse class="cls-12" cx="3065.45" cy="478.96" rx="23.45" ry="23.5"/><ellipse class="cls-10" cx="3128.76" cy="480.73" rx="23.45" ry="23.5"/><path class="cls-16" d="M1594.37,762.41l-11.29-4.1a11.34,11.34,0,0,1-7.4-11.51,120.53,120.53,0,0,0-1.42-29.08,11.38,11.38,0,0,1,6.25-12.2l10.85-5.22a11.56,11.56,0,0,0,5.37-15.26l-9.84-21.12a11.16,11.16,0,0,0-15-5.46l-10.84,5.22a11,11,0,0,1-13.26-2.82,116.29,116.29,0,0,0-21.2-19.54,11.49,11.49,0,0,1-4-13.13l4-11.48a11.51,11.51,0,0,0-6.82-14.65l-21.63-7.87a11.21,11.21,0,0,0-14.39,6.93l-4,11.49a11.15,11.15,0,0,1-11.3,7.55,113.1,113.1,0,0,0-28.58,1.44,11.12,11.12,0,0,1-12-6.38l-5.14-11a11.19,11.19,0,0,0-15-5.46l-20.77,10a11.55,11.55,0,0,0-5.34,15.27l5.12,11A11.52,11.52,0,0,1,1384,648.5a117.41,117.41,0,0,0-19.23,21.57,11.05,11.05,0,0,1-12.9,4.12l-11.29-4.1a11.19,11.19,0,0,0-14.39,6.92l-7.73,22a11.49,11.49,0,0,0,6.81,14.65l11.3,4.11a11.35,11.35,0,0,1,7.41,11.5,117.56,117.56,0,0,0,1.42,29.08,11.42,11.42,0,0,1-6.27,12.2l-10.84,5.22a11.54,11.54,0,0,0-5.37,15.26l9.82,21.13a11.21,11.21,0,0,0,15,5.46l10.84-5.23a11,11,0,0,1,13.24,2.82A117.16,117.16,0,0,0,1393,834.74a11.51,11.51,0,0,1,4.06,13.14l-4,11.47A11.56,11.56,0,0,0,1399.8,874l21.64,7.86a11.21,11.21,0,0,0,14.4-6.94l4-11.48a11.15,11.15,0,0,1,11.32-7.54,113.51,113.51,0,0,0,28.57-1.44,11.12,11.12,0,0,1,12,6.37l5.12,11a11.21,11.21,0,0,0,15,5.47l20.75-10a11.55,11.55,0,0,0,5.37-15.25l-5.14-11a11.5,11.5,0,0,1,2.78-13.49A116.49,116.49,0,0,0,1554.85,806a11.09,11.09,0,0,1,12.92-4.11l11.28,4.11a11.22,11.22,0,0,0,14.4-6.94l7.74-22A11.51,11.51,0,0,0,1594.37,762.41ZM1521.23,749c-7.78,43.27-54.25,65.66-92.06,44.34-22.92-12.91-35.52-40-30.81-66.22,7.77-43.27,54.25-65.64,92.07-44.32C1513.34,695.68,1525.93,722.77,1521.23,749Z"/><path class="cls-14" d="M2683,1238.86H1975a20.1,20.1,0,0,0-20.18,20v72.44h748.3v-72.44A20.09,20.09,0,0,0,2683,1238.86Z"/><rect class="cls-12" x="2645.27" y="1282.3" width="20.45" height="20.5"/><rect class="cls-17" x="2618.56" y="1282.3" width="20.46" height="20.5"/><rect class="cls-18" x="2591.85" y="1282.3" width="20.46" height="20.5"/><rect class="cls-19" x="2006.74" y="1379.65" width="331.56" height="207.58"/><path class="cls-20" d="M2172.52,1423.08a60.37,60.37,0,1,0,60.23,60.37A60.3,60.3,0,0,0,2172.52,1423.08Z"/><polygon class="cls-12" points="2154.54 1513.5 2206.49 1483.45 2154.54 1453.38 2154.54 1513.5"/><path class="cls-21" d="M2643.13,1377.89H2412.86a13.37,13.37,0,0,0-13.36,13.39h0a13.38,13.38,0,0,0,13.36,13.39h230.27a13.38,13.38,0,0,0,13.36-13.39h0A13.37,13.37,0,0,0,2643.13,1377.89Z"/><path class="cls-5" d="M2605.48,1377.89H2412.86a13.37,13.37,0,0,0-13.36,13.39h0a13.38,13.38,0,0,0,13.36,13.39h192.62a13.38,13.38,0,0,0,13.36-13.39h0A13.37,13.37,0,0,0,2605.48,1377.89Z"/><path class="cls-20" d="M2466.26,1377.89h-53.4a13.37,13.37,0,0,0-13.36,13.39h0a13.38,13.38,0,0,0,13.36,13.39h53.4a13.38,13.38,0,0,0,13.36-13.39h0A13.37,13.37,0,0,0,2466.26,1377.89Z"/><path class="cls-21" d="M2643.14,1421.32H2412.85a13.38,13.38,0,0,0,0,26.76h230.29a13.38,13.38,0,0,0,0-26.76Z"/><path class="cls-5" d="M2605.49,1421.32H2412.85a13.38,13.38,0,0,0,0,26.76h192.64a13.38,13.38,0,0,0,0-26.76Z"/><path class="cls-20" d="M2552.36,1421.32H2412.85a13.38,13.38,0,0,0,0,26.76h139.51a13.38,13.38,0,0,0,0-26.76Z"/><path class="cls-21" d="M2643.13,1464.73H2412.86a13.39,13.39,0,0,0,0,26.78h230.27a13.39,13.39,0,0,0,0-26.78Z"/><path class="cls-5" d="M2563.43,1464.73H2412.86a13.39,13.39,0,0,0,0,26.78h150.57a13.39,13.39,0,0,0,0-26.78Z"/><path class="cls-20" d="M2443.25,1464.73h-30.39a13.39,13.39,0,0,0,0,26.78h30.39a13.39,13.39,0,0,0,0-26.78Z"/><path class="cls-21" d="M2643.13,1508.16H2412.86a13.39,13.39,0,0,0,0,26.77h230.27a13.39,13.39,0,0,0,0-26.77Z"/><path class="cls-5" d="M2605.48,1508.16H2412.86a13.39,13.39,0,0,0,0,26.77h192.62a13.39,13.39,0,0,0,0-26.77Z"/><path class="cls-20" d="M2552.36,1508.16h-139.5a13.39,13.39,0,0,0,0,26.77h139.5a13.39,13.39,0,0,0,0-26.77Z"/><path class="cls-21" d="M2648.82,1554.43H2454.33a7.67,7.67,0,0,0-7.67,7.68h0a7.68,7.68,0,0,0,7.67,7.69h194.49a7.68,7.68,0,0,0,7.67-7.69h0A7.67,7.67,0,0,0,2648.82,1554.43Z"/><path class="cls-21" d="M2648.82,1585.47H2407.17a7.69,7.69,0,0,0,0,15.37h241.65a7.69,7.69,0,0,0,0-15.37Z"/><path class="cls-21" d="M2648.82,1616.5H2407.17a7.68,7.68,0,0,0-7.67,7.68h0a7.68,7.68,0,0,0,7.67,7.68h241.65a7.67,7.67,0,0,0,7.67-7.68h0A7.67,7.67,0,0,0,2648.82,1616.5Z"/><ellipse class="cls-22" cx="1698.48" cy="2510.81" rx="827.93" ry="177.21" transform="translate(-99.11 69.98) rotate(-2.29)"/><ellipse class="cls-22" cx="2202.21" cy="2629.8" rx="540.64" ry="116.15" transform="translate(-103.47 90.23) rotate(-2.29)"/><path d="M2276.81,2482.77c-7.27,20.86,3.38,37.87,64.6-11.17s71.31-91.76,71.31-91.76C2367.68,2349.68,2284.08,2461.9,2276.81,2482.77Z"/><path d="M2079.59,2514.76c-24.85-21.38-87.83-28.07-127.92-23.59-17.55,2-38.24,13.64-33.56,32.51,6.75,27.26,168.8,25.71,173,18.79C2097.51,2532.12,2083.26,2517.91,2079.59,2514.76Z"/><path class="cls-23" d="M2142,1989.87C2038.63,1937,1716.39,1837.14,1683.26,1735s-84.09-293.38-249.81-356.3c-33.55-12.73-129.55-20.61-181.67-5.44-72.58,21.12-184.58,45-229.61,113.88-45.14,69.08-49.35,93.27-77.83,226.15S891.7,1985,869,2025.76s-66.35,98.41-60.86,165.17S836,2398.56,917.83,2465.29s233,78.67,295,86.73c49.22,6.4,161.12,16.26,293.54,22s205.88-12.53,300.36-38.57c139.92-38.57,347.08-157.07,408.3-243.38C2246.19,2248.15,2242.57,2041.36,2142,1989.87Z"/><path class="cls-24" d="M1733.62,1685.38c-41.55,74.88-89.12,97-15.75,159.22,65.76,55.72,254.29,118.54,308.12,79.21,31.59-23.07,34.31-84.37,34.31-84.37s-77.55-41.19-153.66-81.66C1868.64,1737.57,1733.62,1685.38,1733.62,1685.38Z"/><path class="cls-24" d="M1480.38,1415.5l27.82,30.43s95.81,266.69,200.18,320.76c24.67,12.77,56.15-68.2,56.15-68.2s-91.3-173.57-111.94-209.11C1625.8,1443.24,1584.93,1409.2,1480.38,1415.5Z"/><path class="cls-25" d="M2227.27,2145.27s0,0,0,0Z"/><path class="cls-25" d="M2227.29,2145.78a3.84,3.84,0,0,1,0-.51,0,0,0,0,1,0,0l-.15.21-.42.57-1,1.2-2.11,2.41-4.41,4.75-9.11,9.26c-6.12,6.14-12.46,12.07-18.76,18-12.61,11.88-25.64,23.3-38.7,34.61s-26.53,22.14-40,32.88-27.36,21-41.23,31.15-28.13,19.8-42.45,29.26-28.84,18.61-43.62,27.28c-29.65,17.18-59.72,33.54-90.69,48.12-15.33,7.37-31.4,14.36-47.15,21.53s-31.68,14.11-47.67,20.75-32.14,12.85-48.45,18.58c-16.39,5.46-32.9,10.56-49.69,14.53a431.62,431.62,0,0,1-102.55,11.45c-34.53,0-69-3.84-103.4-8.2s-68.77-9.92-103.25-14.68-69-9.24-103.46-13.78c-68.85-9.24-137.75-18.42-204.73-31.94-33.4-6.91-66.28-15.39-96.81-28.25-7.58-3.29-15.09-6.72-22.26-10.69-3.65-1.88-7.11-4.06-10.64-6.12s-7-4.4-9.92-6.53c-12.48-9.26-24.58-21.37-35.69-33.94a447.71,447.71,0,0,1-58.31-83.49,298.58,298.58,0,0,1-20.33-46.88c-5.28-16.22-8.86-33.08-9.23-50.38l-3.14-.2a151.64,151.64,0,0,0-1,26.63,201.77,201.77,0,0,0,3.39,26.56,276.45,276.45,0,0,0,15.83,51.11A374.89,374.89,0,0,0,860,2289a405,405,0,0,0,29.95,44.54c11.12,14.21,22.79,27.88,37.58,40.34,4,3.19,7.72,5.73,11.51,8.4s7.68,5.15,11.67,7.45c7.86,4.84,16,9,24.22,13.08,33,15.83,67.78,25.61,102.35,33.36,34.66,7.57,69.42,13,104.19,17.31s69.47,8,104.18,11.34c69.39,6.83,138.66,12.67,208.55,16.15,34.93,1.71,70,2.69,105.1,1.69,17.54-.71,35.1-1.74,52.55-3.87s34.8-5,52-8.52,34.3-7.56,51.21-12.27c17-4.4,33.78-9.51,50.54-14.66,33.6-10.42,66.39-21.72,99.44-34.45a623.28,623.28,0,0,0,94.65-48q22.59-13.92,44.32-29.1c14.45-10.16,28.45-20.93,42.24-31.93s27.12-22.54,40.12-34.42,25.66-24.12,37.83-36.83,23.94-25.79,35.21-39.28c5.64-6.75,11-13.7,16.33-20.73,2.66-3.5,5.2-7.1,7.69-10.75l3.66-5.54c.6-.93,1.17-1.89,1.74-2.87l.82-1.52.41-.84.21-.52a2.41,2.41,0,0,0,.17-1.28Z"/><path class="cls-25" d="M1032.13,1583.16c-31,16,58.36,109.46,73,114.76,5.19,1.88,2.46-10.49.73-15.74C1096.17,1652.85,1063.15,1567.15,1032.13,1583.16Z"/><path class="cls-25" d="M1083.54,1719c-19.49,14.48-54.65,68.25-33.39,75s37.13-49.47,44.74-68.45C1103.33,1704.46,1096,1709.74,1083.54,1719Z"/><path class="cls-26" d="M2288.09,1799.61c-131.28,19.18-369.23,37.05-369.23,37.05s-113-59.46-154.6-71.26c-25.27,5.69-50.19,6-120,50.89,37.28,36.81,117.23,260.19,199.58,292.27,108.13,42.1,447.35-139.91,447.35-139.91s109.91-111.86,70.34-159C2352.18,1798.51,2316.68,1795.44,2288.09,1799.61Z"/><path class="cls-26" d="M1475.12,2001.33s82.94,207.24,161.55,187.61S1818.81,1972,1818.81,1972L1640,1812.28C1489.1,1856.76,1475.12,2001.33,1475.12,2001.33Z"/><path class="cls-27" d="M1840.65,1928.72c-67.75-10.84-259.48,157.68-259.48,157.68l-75.09-32.79s56.82,141.14,65,154.55c29.46,48.54,61.32,54.24,91.22,59.13,40.44,6.62,108.16,16,163.39-6.54,43.27-17.64,47.07-32.53,57.89-52.76,14.54-27.2,32.75-90.22,38-117.44C1913,2067.91,1857.35,1931.39,1840.65,1928.72Z"/><path class="cls-28" d="M1686.76,1668.17c-5.53-4.44-146.17-190.38-165.41-212.86-20.36-23.77-26.75-31.26-68.15-38.13-43.8-7.26-91.06-4.18-116.06,4.81-231.12,83.07-183.36,103.12-225.37,150.09,0,0,151.36,223.79,215,291.38,26.78,28.47,148.59,143.09,148.59,143.09s26-73.26,130-154.24c66.8-52,122.55-73.49,154.69-78.62,20.61-3.29,31.47,1.62,31.47,1.62C1821,1743.9,1746.36,1716.18,1686.76,1668.17Z"/><path class="cls-29" d="M1611.88,1832.34c-9.12-7.71-11.89,3.89-11.89,3.89-5.24,79.66,51.35,122.39,58.3,118.16s7.65-24,.63-45.84C1651.84,1886.45,1621,1840,1611.88,1832.34Z"/><path class="cls-30" d="M1585.73,1848.41l25.12,102.12s59.72-69.18,64.63-72.58c7-4.89.29-21.12,5.27-28.71,8.77-13.37-6.28-28.89-6.28-28.89Z"/><polygon class="cls-31" points="1890.35 1885.67 1894.96 1790.82 1652.82 1867.67 1890.35 1885.67"/><path class="cls-31" d="M1649.6,1872.81l.81,14.91c-.31,3.65.33,7.09,4,7.39l246.31,16.38,9-30.1-252.91-14.65A6.63,6.63,0,0,0,1649.6,1872.81Z"/><path class="cls-14" d="M1886.74,1596.81l-12.1,313,26.06,1.73,30-337-32.13,7A15.05,15.05,0,0,0,1886.74,1596.81Z"/><path class="cls-32" d="M2298.12,1490.33l-375.58,85.81a14.08,14.08,0,0,0-11,14.38l-10.83,321,365.66-102.91a15,15,0,0,0,11.51-14.31l38.51-289A15,15,0,0,0,2298.12,1490.33Z"/><path class="cls-12" d="M2107.69,1651.83c-15.52,9.52-23.15,33.16-17.06,52.81s23.62,27.86,39.13,18.34,23.15-33.16,17.06-52.8S2123.2,1642.31,2107.69,1651.83Z"/><rect class="cls-31" x="1801.23" y="1871.59" width="8.99" height="38.37" transform="translate(-191.34 3578.21) rotate(-86.51)"/><rect class="cls-31" x="1734.07" y="1867.5" width="8.99" height="38.37" transform="translate(-250.33 3507.34) rotate(-86.51)"/><path class="cls-31" d="M1700.65,1879.47a4.9,4.9,0,1,0,4.59,5.19A4.9,4.9,0,0,0,1700.65,1879.47Z"/><polygon class="cls-32" points="1875.31 1863.85 1875.91 1812.92 1753 1854.82 1875.31 1863.85"/><path class="cls-24" d="M1630.19,2174.44c-8.46-4-37.53-26.21-33.85-59.74s-26.89-42.94-48.71-71-32.59-74-57.57-126.94-90-110.56-111.72-131.94-73.67-146.77-98.55-226.07-43-97.33-43-97.33c-115.32,38-132.91,127.2-132.91,127.2,20.34,87.88,192.3,277.09,221.32,311.29s68.84,148.3,81.28,157.45,76,38.74,110.8,84,40.43,94.12,40.43,94.12c12.11-10.48,111.42-8.3,111.42-8.3C1668.64,2221.27,1663.86,2190.28,1630.19,2174.44Z"/><path class="cls-30" d="M1720.45,1792l-89.7,41.62s-9.07,24-3.61,39.11c3.62,10,21.57,31.49,31.63,28.08l86.54-39s8.28-32.76,5.12-44.23C1748,1808.84,1720.45,1792,1720.45,1792Z"/><path class="cls-30" d="M1732.47,1862.74l46.49,5.14c10.17,1.12,19.17-4.87,20.11-13.38l-64.91-7.16Z"/><path class="cls-30" d="M1729.54,1824.05l70.75,18.07c15.47,4,30.08-.93,32.62-10.91L1734.14,1806Z"/><path class="cls-30" d="M1739.55,1843.48l54.49,15.58c11.92,3.4,23.64-1.06,26.18-10h0l-76.08-21.75Z"/><path class="cls-30" d="M1720.45,1792l-2.68,20.57,58.81-3a52.3,52.3,0,0,0,1.06-19.21Z"/><path class="cls-30" d="M1766.38,1803.56l16.47,9.8c10.66,6.34,23.15,5,27.9-3l-33.11-19.92Z"/><path class="cls-25" d="M1822.5,2254.07c-43.76-.83-197.57-47.18-267.56-30.46,0,0-6.09-81.86-49.59-119.09s-123.39-74.59-187.65-63.85-97.86,158.62-13.26,234.27,400.17,152.28,504.35,53.47,78.08-126.06,78.08-126.06C1882.89,2217.07,1866.27,2254.89,1822.5,2254.07Z"/><path class="cls-23" d="M1583.21,2253.06c4.89,16.82,52.94,137.57,79.84,103.37,18.4-23.39-74-123.16-74-123.16C1575.05,2219.12,1575,2225,1583.21,2253.06Z"/><path class="cls-23" d="M1528.81,2319.48c38.63-5,41.51-84,38.11-87.15C1551.44,2218.18,1490.18,2324.5,1528.81,2319.48Z"/><path class="cls-23" d="M1385.5,2181.93c-9.4,1.68-17,19.6,3.14,29.64,22.91,11.4,174.63,19.09,166.23,10.4C1551.71,2218.69,1483.13,2164.42,1385.5,2181.93Z"/><path class="cls-33" d="M1617.36,1911.69c-15.7-29.27-14.15-81-14.15-81s-237.57,52.62-342.16,80.89c-52.21,14.11-147.75,25.5-147.75,25.5,10,46.12,20.46,123.32,91.75,146.92,34.55,11.43,106.15,11.28,183.71-4,71.81-14.14,160.64-42.36,248.17-106.48,7.73-5.67,21.36-19.09,21.36-19.09a27.79,27.79,0,0,1-12.84-5.79C1635.6,1940.14,1624.05,1924.16,1617.36,1911.69Z"/><path class="cls-33" d="M1184.53,1637.73c-45.67-60.25-73-72-73-72-17.43,36.3-22.09,88.5-22.67,124.31-2.66,164.27,12.27,304.17,75.39,373.08,33.28,36.33,123.42,28.71,123.42,28.71s5.37-195.46-15.69-270.28C1262.05,1786.32,1218.7,1682.83,1184.53,1637.73Z"/><path class="cls-30" d="M1400.51,1413.33l-43.68-8.88s-40.81,25.07-66,34.76c0,0,48.59,82.16,153,71.32,0,0,57.38-10.94,9.41-93.35Z"/><path class="cls-34" d="M2143.07,1981.18c-11.6,5.24-22.91,11-34,17.14s-21.88,12.68-32.55,19.5-21.12,13.91-31.39,21.68c12.45-3.36,24.28-8.28,35.8-13.59s22.82-11.09,33.86-17.26,21.87-12.66,32.57-19.37l16-10.21c5.31-3.46,10.47-7,16.17-10-6.52.43-12.67,2.75-18.72,4.79C2154.77,1976.12,2148.85,1978.52,2143.07,1981.18Z"/><rect class="cls-35" x="2650.88" y="2076.43" width="1021.72" height="78.92" rx="4"/><polygon class="cls-35" points="2695.92 2650.76 2719.68 2650.76 2878.58 2157.54 2786.51 2155.89 2695.92 2650.76"/><polygon class="cls-36" points="2786.51 2167.4 2867.2 2194.8 2878.58 2157.54 2786.51 2155.89 2786.51 2167.4"/><polygon class="cls-35" points="3453.3 2159.18 3607.75 2655.7 3638.93 2655.7 3554.28 2155.89 3453.3 2159.18"/><polygon class="cls-36" points="3453.3 2159.18 3463.7 2193.71 3564.68 2221.66 3554.28 2155.89 3453.3 2159.18"/><path class="cls-25" d="M3060.25,1748.25a50.11,50.11,0,1,0,50,50.11A50.05,50.05,0,0,0,3060.25,1748.25Zm0,82a31.89,31.89,0,1,1,31.81-31.88A31.85,31.85,0,0,1,3060.25,1830.24Z"/><path class="cls-25" d="M2925.85,1733.93s-12.34,111.93,26.62,152.28l82.46-1.3s35.06-47.51,21.42-151Z"/><path class="cls-34" d="M2729.5,2016.16v27.14a33.59,33.59,0,0,0,33.45,33.53h353v-94.2H2763A33.59,33.59,0,0,0,2729.5,2016.16Z"/><path class="cls-12" d="M2751.19,2019.05v17.74c0,12.06,14.21,21.92,31.57,21.92h333.17v-61.59H2782.76C2765.4,1997.12,2751.19,2007,2751.19,2019.05Z"/><polygon class="cls-5" points="2805.4 2134.79 2823.48 2105.81 2837.93 2134.79 2837.93 2037.28 2808.44 2037.28 2805.4 2134.79"/><path class="cls-37" d="M2719.16,1920.24v27.14a33.59,33.59,0,0,0,33.45,33.53h353v-94.2h-353A33.59,33.59,0,0,0,2719.16,1920.24Z"/><path class="cls-12" d="M2740.84,1923.12v17.75c0,12.06,14.21,21.92,31.57,21.92h333.18V1901.2H2772.41C2755.05,1901.2,2740.84,1911.07,2740.84,1923.12Z"/><polygon class="cls-20" points="2795.06 2038.87 2813.13 2009.89 2827.59 2038.87 2827.59 1941.36 2798.1 1941.36 2795.06 2038.87"/><path class="cls-24" d="M3477.41,1495.18c-4.25-7.38-8.42-14.78-10.5-23-2.53-10-1.78-20.4-1.89-30.67-.39-37-12.19-90-53.75-101.23-17.07-4.61-37.27,1.38-46.86,16.26-10.21,15.83-5.37,32.4-5.66,49.67-.28,17-11.88,31.44-11.84,49.31,0,1.4.06,2.79.14,4.19a17.6,17.6,0,0,1,8.37-2c7.95,0,14.39,4.88,14.39,10.9s-6.44,10.89-14.39,10.89a18.47,18.47,0,0,1-5.18-.74,99.09,99.09,0,0,0,12.41,27.06c4,6.12,8.66,11.87,11.82,18.48,9.69,20.23,3.7,44.49-5.63,64.9s-21.94,39.81-25.77,61.93c-4.34,25.08,3.91,46.94,15.75,68.46,11.61,21.1,34.61,37.67,51.94,54.42-4-3.87,39.78-48.85,44-54.28,11.78-15.06,22.28-31.4,29.75-49.06,7.38-17.47,8.81-34.76,11.14-53.32,4.71-37.49,5.14-77.69-12.67-112.07C3481.26,1501.84,3479.33,1498.51,3477.41,1495.18Z"/><g class="cls-38"><path class="cls-39" d="M3477.41,1495.18c-4.25-7.38-8.42-14.78-10.5-23-2.53-10-1.78-20.4-1.89-30.67-.39-37-12.19-90-53.75-101.23a46,46,0,0,0-25.4.58c15.23,27.4,30.5,56.72,28.52,87.93-1,16-6.57,31.57-6,47.58.65,19.11,9.87,36.7,18,54,25.22,53.69,28.87,107.14,4.7,162.06-10.31,23.42-23.21,45.77-34.15,68.87,4.79,4.26,9.49,8.45,13.83,12.65-4-3.87,39.79-48.85,44.05-54.28,11.78-15.06,22.28-31.4,29.75-49.06,7.38-17.47,8.81-34.76,11.14-53.32,4.71-37.49,5.14-77.69-12.67-112.07C3481.26,1501.84,3479.33,1498.51,3477.41,1495.18Z"/></g><path class="cls-40" d="M3403.23,1733.32c-4.47-20-7.06-40.31-6.51-60.86.56-21,6.75-41.49,12.78-61.46,11.43-37.79,16.4-72.94,13.92-112.48-2.42-38.83-7.14-78-16.43-115.78-.9-3.67-6.55-2.11-5.65,1.56,9.62,39.15,14,79.47,16.57,119.66,2.55,40.79-5.63,77-17.12,115.73-9.92,33.46-12,65.41-6.24,99.85,6.58,39.52,20.69,77.33,25.37,117.24.43,3.72,6.29,3.76,5.85,0C3421.65,1801.58,3410.92,1767.81,3403.23,1733.32Z"/><path class="cls-40" d="M3343.39,1680c.28,1.46.59,2.91.93,4.36q23.91,17.63,49.45,32.86a1.42,1.42,0,0,0,1.15.71l.54.33a1.47,1.47,0,0,0,2.11-1.72,994,994,0,0,0,93.23-66c.32-1.49.6-3,.89-4.46a988,988,0,0,1-96.56,68.59A598.33,598.33,0,0,1,3343.39,1680Z"/><path class="cls-40" d="M3394.17,1652.91q-20.8-15.26-41.63-30.48c-.41.9-.82,1.81-1.21,2.72q20.68,15.15,41.36,30.3C3394.22,1656.57,3395.67,1654,3394.17,1652.91Z"/><path class="cls-40" d="M3397,1654.57a1138,1138,0,0,1,101.26-67c.05-1.15.08-2.3.11-3.46A1136.31,1136.31,0,0,0,3395.5,1652C3394,1653.15,3395.46,1655.7,3397,1654.57Z"/><path class="cls-40" d="M3412.56,1590a1.52,1.52,0,0,0-.6,1.48l-34.75-26.21c-.24,1-.5,2-.77,3.07l34.09,25.71c1.12.85,2.21-.34,2.09-1.47a1.14,1.14,0,0,0,1.42,0q39.52-29.21,79.92-57.2c-.24-1-.46-2-.72-3.06Q3452.49,1560.53,3412.56,1590Z"/><path class="cls-40" d="M3420.14,1531.47l0,0a521.71,521.71,0,0,1-64.78-39.11q1.24,2.73,2.66,5.38a520.73,520.73,0,0,0,61.83,36.88,1.51,1.51,0,0,0,2.14-1,1.17,1.17,0,0,0,.25-.16q25.08-23.46,50.88-46.11c-.47-.89-.93-1.79-1.37-2.69Q3445.58,1507.71,3420.14,1531.47Z"/><path class="cls-40" d="M3463.46,1419.3l-47.2,46.88-66-28.81c-.31.93-.6,1.86-.88,2.8l65.14,28.45a1.47,1.47,0,0,0,2.33,1l.08,0c1.46.64,2.73-1.08,2-2.08l44.9-44.59C3463.77,1421.77,3463.62,1420.54,3463.46,1419.3Z"/><path class="cls-40" d="M3408.61,1401.22l-50.74-18.89c0,1.05,0,2.09.05,3.14l50.83,18.92a1.23,1.23,0,0,0,1.67-.82s.08,0,.11-.09q16.14-20.28,33.54-39.48c-.58-.81-1.17-1.61-1.78-2.4Q3424.85,1380.88,3408.61,1401.22Z"/><path class="cls-24" d="M3316.85,1716.88c-12.6-14.45-30.4-23-46.25-33.75s-31-25.8-32.86-44.89c-.62-6.23.24-12.49.44-18.75.51-15.2-2.92-30.67-10.77-43.69-5.5-9.12-14.42-14.52-21.93-21.12-.15.38-.3.75-.47,1.12-3.16,6.83-9.5,10.6-14.17,8.44s-5.9-9.46-2.75-16.28a17.3,17.3,0,0,1,6.19-7.38c-6.26-11.26-10.73-23.07-23.48-29.25-13.6-6.6-31-2-41.42,9-25.37,26.7-10.49,70.65,5.6,97.82,4.47,7.55,9.64,14.84,12.2,23.23,2.12,6.92,2.35,14.19,2.52,21.46,0,1.55.07,3.1.12,4.64a36.72,36.72,0,0,1,3.83-.21c10.25,0,18.55,4.31,18.55,9.62s-8.3,9.61-18.55,9.61c-.58,0-1.15,0-1.72,0,5.53,27.43,21.31,52,38.53,73.69,9.92,12.51,18.62,24.5,31.75,34s28.18,16.83,43.45,22.58c5.52,2.08,57.41,15.44,56.2,20,5.23-19.93,14.68-42.26,13.81-62.83C3334.79,1752.88,3331.13,1733.26,3316.85,1716.88Z"/><path class="cls-40" d="M3309.59,1789.75a183.94,183.94,0,0,0-48.79-70.12c-25.56-23.19-47.56-46-63.77-76.88-16-30.46-30.59-61.88-40.91-94.73-1-3.09-5.78-1.71-4.81,1.37,10,31.74,23.86,62.41,39.29,91.85,15.71,30,34.91,53.41,60,75.92,13.25,11.89,26.83,24.09,36.56,39.19,9.5,14.75,16.59,30.71,22.2,47.33,9.66,28.6,16.79,58,29.38,85.56,1.34,2.94,5.6.3,4.27-2.6C3328.74,1855.42,3322.29,1821.53,3309.59,1789.75Z"/><path class="cls-40" d="M3307,1786.42a840.24,840.24,0,0,1-100.88-7.13c.87,1,1.73,1.93,2.62,2.87a846.87,846.87,0,0,0,97.33,6.75,1.25,1.25,0,0,0,2.3.31c.09-.16.16-.32.25-.48a1.2,1.2,0,0,0,.53-1q11.91-22.45,21.54-46c-.39-1.21-.8-2.41-1.25-3.59A511.79,511.79,0,0,1,3307,1786.42Z"/><path class="cls-40" d="M3280.35,1740.94c-.61,1.48,1.58,2.69,2.2,1.19q8.37-20.27,16.78-40.52l-2.09-1.45Q3288.78,1720.55,3280.35,1740.94Z"/><path class="cls-40" d="M3279,1740.89a969.41,969.41,0,0,0-105.18-3.83c.53.82,1.06,1.65,1.61,2.47A971.28,971.28,0,0,1,3279,1743.4C3280.64,1743.55,3280.58,1741,3279,1740.89Z"/><path class="cls-40" d="M3240.13,1704a1.27,1.27,0,0,0-1.09-.81q-42.2-3.76-84.47-6.25c.25.85.55,1.7.83,2.55q41.88,2.52,83.68,6.21a1,1,0,0,0,1.06-.6c.41.88,1.73,1.26,2.17.14l13.5-33.94c-.64-.62-1.29-1.25-1.92-1.89Q3247,1686.69,3240.13,1704Z"/><path class="cls-40" d="M3207.63,1663.85l0,0q-29.1-6.07-58.36-11.18c.08.86.14,1.72.19,2.58q28.86,5.08,57.57,11a1.13,1.13,0,0,0,.26,0,1.29,1.29,0,0,0,2-.23,447.26,447.26,0,0,0,28.81-54.44c-.1-1.71-.24-3.41-.44-5.11A446.76,446.76,0,0,1,3207.63,1663.85Z"/><path class="cls-40" d="M3181.5,1614.43l-55.23-13.22c.43,1,.87,1.94,1.32,2.89l52.53,12.58a1.33,1.33,0,0,0,2.41.62l0-.06a1.26,1.26,0,0,0,1.25-1.78l35-49.76c-.62-.56-1.25-1.11-1.88-1.65Z"/><path class="cls-40" d="M3158.31,1563.6q-20.85-7.65-42.14-13.94c-.1.85-.18,1.69-.24,2.55q21.2,6.29,42,13.9h.12a1,1,0,0,0,1.58-.14l28.73-36.42c-.44-.78-.89-1.56-1.35-2.32Z"/><path class="cls-40" d="M3418.77,1660a85.19,85.19,0,0,0-8.14-25.3c-7.45-14.27-18-26.09-28.78-37.85-7-7.66-13.49-15.52-15.15-26.09-3.84-24.58,5.47-47.24-11.17-69.43-5.84-7.78-13.61-14-19.13-22-10.39-15.07-11.63-34.45-17.78-51.7a94.19,94.19,0,0,0-39-48.2c-10.63-6.54-23.54-11-34-2.52-9.09,7.37-14.62,18.57-16.43,30-4.29,27.17,13.37,54.9,6.59,81.56-3.29,13-12,23.79-17.86,35.81-11.07,22.66-4.05,60.69,13.44,78.76,7.48,7.73,15.87,14.63,22.5,23.11,11.21,14.36,8.07,32.82,8.68,50.29.3,8.76.61,17.57,2.39,26.15a71.63,71.63,0,0,0,2.39,8.72c2.08-3.69,7-6.28,12.68-6.28,7.59,0,13.75,4.59,13.75,10.25s-6.16,10.25-13.75,10.25a17.42,17.42,0,0,1-6.91-1.39c23.47,41.34,83.52,60.12,115.89,91.53-1.25-12.57,3.22-25,8.94-36.29s12.74-21.9,17.24-33.71c6.62-17.34,10-39.22,7.33-57.66C3421.09,1678.44,3420.37,1669.13,3418.77,1660Z"/><path class="cls-41" d="M3371,1768.59c-20.43-36.31-46.29-65.84-51.41-108.78-2.39-20-1.12-40.52-2-60.66a501.49,501.49,0,0,0-6.73-61.85c-6.42-37.8-20.69-72.82-36.53-107.51-1.57-3.43-6.9-1-5.32,2.46,16.52,36.17,30.33,72.19,37,111.57,6.62,38.89,4.25,77.9,7.8,116.94,3.27,36,22.36,63.28,41.29,92.72,22.68,35.28,40.05,74.11,47.89,115.44.71,3.71,6.49,2.78,5.78-1C3402.12,1832.69,3388.61,1799.8,3371,1768.59Z"/><path class="cls-41" d="M3356.85,1753.37q-36.76-6.93-73.36-14.65,1.64,1.89,3.38,3.7,34.53,7.21,69.2,13.78a1.66,1.66,0,0,0,1.61.3l1,.19c1.43.27,1.92-1.4,1.23-2.34q31.93-34.65,62-71c-.17-1.33-.34-2.66-.5-4Q3390.06,1717.2,3356.85,1753.37Z"/><path class="cls-41" d="M3362.88,1636.44a587.9,587.9,0,0,0-40.35,53.4c-15.09-.71-30.32-4.08-45.23-6.3l-14.61-2.18c0,1,.09,2,.14,3l14.16,2.12c14.73,2.2,29.77,5.5,44.69,6.27a1.4,1.4,0,0,0,2.37.08,611.33,611.33,0,0,1,41.2-54.65c8.66-10.24,17.81-20.05,26.45-30.28-.63-.74-1.26-1.48-1.91-2.22C3381,1616.09,3371.72,1626.08,3362.88,1636.44Z"/><path class="cls-41" d="M3366.1,1565.83q-25.77,36.23-52.84,71.51l-59.31-11a34.9,34.9,0,0,1,2.29,3.4l55.47,10.26a1.5,1.5,0,0,0,2.65.7l.18-.23a1.32,1.32,0,0,0,1.24-1.64q26-33.93,50.84-68.74C3366.41,1568.68,3366.23,1567.25,3366.1,1565.83Z"/><path class="cls-41" d="M3355.53,1501.34c-.21-.27-.43-.52-.63-.79q-24.17,34.4-44.89,71.06-48.51-8.89-97.28-16.19c.06,1,.15,2,.25,3q50.19,7.53,100.13,16.72c1.86.34,2.16-2.58.31-2.92l-.36-.06q20.18-35.6,43.65-69.08C3356.31,1502.5,3356,1501.92,3355.53,1501.34Z"/><path class="cls-41" d="M3300.37,1504.81q-33.85-2.73-67.31-8.58c-.39.93-.79,1.85-1.22,2.76q34,6,68.43,8.76a1.69,1.69,0,0,0,2.14-.79q14.81-18.69,28.25-38.34c-.45-1.07-.88-2.16-1.29-3.26Q3315.57,1485.58,3300.37,1504.81Z"/><path class="cls-41" d="M3278.84,1444.44q-24.33-4.87-48.45-10.65c.2,1,.4,2.09.61,3.14q23.52,5.58,47.22,10.36a1.56,1.56,0,0,0,2.6-.28q11.17-23.07,23.22-45.7c-.65-.82-1.32-1.64-2-2.45Q3290,1421.45,3278.84,1444.44Z"/><g class="cls-38"><path d="M3418.77,1660a84.9,84.9,0,0,0-8.14-25.3c-7.45-14.27-18-26.09-28.78-37.85-7-7.66-13.49-15.52-15.15-26.09-3.84-24.58,5.47-47.24-11.17-69.43-5.84-7.78-13.61-14-19.13-22-10.39-15.07-11.63-34.45-17.78-51.7a94.19,94.19,0,0,0-39-48.2c-10.63-6.54-23.54-11-34-2.52a42.39,42.39,0,0,0-8.76,9.8c1.7,2.41,3.35,4.68,4.81,6.75,14.33,20.2,29.68,40,39.28,63.1a143.14,143.14,0,0,1,10.68,63.22c-.88,14.88-4.09,29.81-2,44.56,4.07,28.31,26.4,49.77,45,71.44,24.73,28.78,45,62.32,53.11,99.42,5.51,25.23,4.87,52.23-3,76.65,1.44,1.27,2.85,2.55,4.2,3.86-1.25-12.57,3.22-25,8.94-36.29s12.74-21.9,17.24-33.71c6.62-17.34,10-39.22,7.33-57.66C3421.09,1678.44,3420.37,1669.13,3418.77,1660Z"/></g><path class="cls-40" d="M3619.3,1465.65c-5.88-11.7-17.32-20.09-29.88-23.72-6.09-1.76-12.68-2.47-18.72-.55-6.86,2.18-12.23,7.47-17.23,12.66s-9.89,10.44-14.76,15.74a13.42,13.42,0,0,1,2.69,0c8.2.84,14.08,9.1,13.13,18.46s-8.37,16.26-16.57,15.42-14.08-9.09-13.13-18.45c0-.09,0-.17,0-.26-10.75,11.91-21.21,24.47-26.14,39.66s-3.84,31.7-4,47.75c-.43,35.79-8.87,73.73-34.41,98.76-7.17,7-15.57,12.91-21.42,21.08-4.78,6.67-7.51,14.5-9,22.51-1.33,6.88-4.22,13.1-5.2,20a83.12,83.12,0,0,0,6.94,46.45c5,10.6,9.47,21.43,14.43,31.85,1.26,2.65,2.16,5.85.81,8.45,1.81-3.48,14-3.42,17.35-4.24,4.14-1,8.51-2.5,12.59-3.87,9.7-3.25,20-3.42,30-5.71,13.41-3.05,28-11.56,38.39-20.45a43.5,43.5,0,0,0,9.14-11.69c.63-1.12,1.23-2.28,1.81-3.46-.74,0-1.48-.07-2.23-.15-10.6-1.08-18.72-6.6-18.14-12.33s9.65-9.51,20.24-8.43a33.38,33.38,0,0,1,7.41,1.59c1.77-6,3.15-11.93,4.26-16.93,2-8.83,3.25-18,7.89-25.81s12.23-13.29,19-19.29c14.3-12.6,26.38-33.14,24.44-52.81-1.46-14.84-9.66-28.22-12.37-42.88C3598.82,1552.39,3640.1,1507.06,3619.3,1465.65Z"/><path class="cls-41" d="M3575.49,1496.45c-5.19,34-8.91,67.1-20.6,99.63-12.35,34.37-27.5,68.06-43.83,100.7-7.56,15.11-15.85,29.74-22.73,45.18-7.32,16.42-18.64,31-27.56,46.58-15.76,27.57-26.86,58.07-27.24,90.09,0,3.4,5.23,3.5,5.27.09.4-34.79,13.94-66.38,31.38-95.89,8.41-14.23,17.88-27.46,24.64-42.62,7.57-17,17-33.11,25.25-49.8a981,981,0,0,0,39.87-92.85c12-32.43,15.42-65.69,20.6-99.62C3581.05,1494.63,3576,1493.1,3575.49,1496.45Z"/><path class="cls-41" d="M3606.55,1594.17q-28.62,11.76-57.4,23.15-27.49-29.22-54.42-58.94c0,1.31,0,2.61,0,3.91q26.66,29.26,53.74,58.15a1.32,1.32,0,0,0,2.25-.93q28.27-11.15,56.37-22.73c-.12-.59-.29-1.18-.41-1.78C3606.62,1594.72,3606.6,1594.44,3606.55,1594.17Z"/><path class="cls-41" d="M3567.21,1570.23l44.33-20.08c.33-1.12.66-2.23,1-3.34L3566,1567.92C3564.4,1568.62,3565.67,1570.93,3567.21,1570.23Z"/><path class="cls-41" d="M3511.27,1501.23c-.53.73-1.05,1.46-1.57,2.2q27.45,30.77,52.82,63.34c1,1.34,2.94-.48,1.91-1.81Q3538.95,1532.19,3511.27,1501.23Z"/><path class="cls-41" d="M3601.15,1638.16c-11,2.93-21.93,6.15-32.79,9.55s-21.62,8-33,9a1.25,1.25,0,0,0-.31-1q-21.09-24.73-43.69-48.1c-.2,1.06-.41,2.11-.63,3.16q21.81,22.66,42.26,46.58a1.27,1.27,0,0,0,.89,2.18c10.58-.63,20.44-4.49,30.44-7.73,11.61-3.75,23.32-7.18,35.09-10.39q9.66-2.64,19.38-5c-.11-.87-.24-1.74-.4-2.6Q3609.77,1635.87,3601.15,1638.16Z"/><path class="cls-41" d="M3475.05,1652.3c-.48.79-1,1.59-1.46,2.37l36.47,45.57c1.06,1.33,3-.5,1.91-1.81Q3493.51,1675.36,3475.05,1652.3Z"/><path class="cls-41" d="M3513.61,1702.49q41.85-9.52,84.4-15c1-1,1.93-2,2.87-3q-44.28,5.63-87.91,15.49A1.32,1.32,0,0,0,3513.61,1702.49Z"/><path class="cls-41" d="M3487.15,1751.19a1.41,1.41,0,0,0,.43-2.07q-23.23-30.06-45.67-60.72c-.59.67-1.16,1.37-1.71,2.08q22.35,30.49,45.46,60.45a1,1,0,0,0,1.44.3,1.34,1.34,0,0,0,1.16,2.31q39.48-9.16,79.24-17c.05-.24.12-.51.17-.75.15-.68.29-1.36.44-2q-40.38,8-80.48,17.24A1.4,1.4,0,0,0,3487.15,1751.19Z"/><path class="cls-41" d="M3458.64,1797.39l-34.74-52.86c0,1.62,0,3.23,0,4.85l33.15,50.45a1.42,1.42,0,0,0,2.25.11l77.62-10.69,6.83-1c.46-.37.94-.74,1.38-1.11.72-.62,1.4-1.31,2.08-2l-10.93,1.51Z"/><g class="cls-38"><path d="M3619.3,1465.65c-5.88-11.7-17.32-20.09-29.88-23.72a45.22,45.22,0,0,0-7-1.46c7.65,30.76,9.41,63-2.38,92-15.33,37.66-51.84,65.65-59.31,105.63-5.31,28.46,5.26,58.57-2.58,86.44-5,17.94-17.19,32.88-29,47.26l-39.23,47.64c4.37-1.47,11.81-1.6,14.3-2.21,4.14-1,8.51-2.5,12.59-3.87,9.7-3.25,20-3.42,30-5.71,13.41-3.05,28-11.56,38.39-20.45a43.5,43.5,0,0,0,9.14-11.69c.63-1.12,1.23-2.28,1.81-3.46-.74,0-1.48-.07-2.23-.15-10.6-1.08-18.72-6.6-18.14-12.33s9.65-9.51,20.24-8.43a33.38,33.38,0,0,1,7.41,1.59c1.77-6,3.15-11.93,4.26-16.93,2-8.83,3.25-18,7.89-25.81s12.23-13.29,19-19.29c14.3-12.6,26.38-33.14,24.44-52.81-1.46-14.84-9.66-28.22-12.37-42.88C3598.82,1552.39,3640.1,1507.06,3619.3,1465.65Z"/></g><g class="cls-38"><path class="cls-39" d="M3202.56,1665.81c-1.73-16.25-2.79-33.2-10.78-47.44-6.69-11.93-17.66-20.84-25.48-32.06-15.26-21.91-17.1-50.11-18.12-76.89a39.37,39.37,0,0,0-18.8,10.88c-25.37,26.7-10.49,70.65,5.6,97.82,4.47,7.55,9.64,14.84,12.2,23.23,2.12,6.92,2.35,14.19,2.52,21.46,0,1.66.08,3.31.13,5a25.85,25.85,0,0,1,6-.7c9,0,16.37,4.36,16.37,9.74s-7.33,9.73-16.37,9.73a26.85,26.85,0,0,1-4-.3c5.49,27.49,21.31,52.11,38.56,73.86,9.92,12.51,18.62,24.5,31.75,34s28.18,16.83,43.45,22.58c5.52,2.08,57.41,15.44,56.2,20,1.32-5,2.89-10.15,4.51-15.39-18.23-12-37.54-22.57-55.45-35.09C3229,1756.88,3207.93,1716.23,3202.56,1665.81Z"/></g><path class="cls-23" d="M3454.72,1804.79H3256.4c-.72,16.06-2.87,95.89,20.74,167.49,20.58,62.4,40,86.88,54.16,98.23a22.88,22.88,0,0,0,13.73,5v0H3446v0a22.88,22.88,0,0,0,13.73-5c14.16-11.35,33.58-35.83,54.17-98.23,23.61-71.6,21.46-151.43,20.74-167.49Z"/><g class="cls-42"><path class="cls-12" d="M3262.52,1910.2c2.12,13.49,4.89,27.44,8.52,41.34,86.65-36.61,174.71-69.83,263.35-101.45.94-21,.54-37,.25-44.14C3443.07,1838.48,3352.08,1872.61,3262.52,1910.2Z"/><path class="cls-12" d="M3288.23,2002.71c79.15-33,159.41-63.2,240.17-92.11,1.09-6.9,2-13.68,2.77-20.27-83.87,29.92-167.22,61.25-249.38,95.44Q3285,1994.83,3288.23,2002.71Z"/><path class="cls-12" d="M3326.85,2066.63c58.92-24.8,118.48-48.07,178.43-70.33,2.83-7.31,5.68-15.28,8.57-24s5.29-17.34,7.44-26.06c-73.8,27-147.08,55.32-219.39,86C3311,2049.19,3319.51,2059.74,3326.85,2066.63Z"/></g><g class="cls-43"><path class="cls-25" d="M3475.22,1804.79c2.06,50.46-1.58,101.09-13.4,150.1-10.24,42.47-26.88,83.69-50,120.67H3446v0a22.88,22.88,0,0,0,13.73-5c14.16-11.35,33.58-35.83,54.17-98.23,23.61-71.6,21.46-151.43,20.74-167.49Z"/></g><rect class="cls-25" x="3243.7" y="1795.9" width="300.89" height="38.6" rx="3.17"/><path class="cls-28" d="M1648.18,1570.32c-28.41-45.22-100.84-80.39-100.84-80.39s80.23,188.7,81.34,190.94,85.8,20.65,73,5.58S1676.59,1615.54,1648.18,1570.32Z"/><path class="cls-44" d="M1540.66,1514.49c3.34-30.71-8.92-42.43-25.07-63.09s-.56-19.54,2.23-43-17.27-32.38-17.27-32.38l-55.16,10.61-7.24,60.3c-7.8,72.58,20.06,187.59,20.06,187.59l27.85-10,2.23-27.36,3.9,22.33,74.1-21.21C1550.13,1593.21,1537.32,1545.2,1540.66,1514.49Z"/><path class="cls-44" d="M1287.27,1069c-105.46,61.24-71.93,375.56-71.93,375.56s1.82,130.44-9.79,141.11l49.3,5.86,1.43-90.57,8.46,91,36-.93,9.41-156.85L1466,1079.92S1392.74,1007.78,1287.27,1069Z"/><path class="cls-44" d="M1467,1079.18c-36.29-38-72.59,4-119.17,28.42-4.9,2.52-22.64-10.14-27.11-7-47.35,33.64-83.16,64.1-78.46,122,1.69,20.88,33.48,99.74,61,92.36l227-38.84,18.42-60.82C1563.9,1161,1580.64,1089.32,1467,1079.18Z"/><path class="cls-30" d="M1310.12,1434.2s23.08,22.19,64.81,27.22c50.26,6.06,62.38-5.41,62.38-5.41l10.24-99.62,4.6-53.32-120.19-29Z"/><polygon class="cls-45" points="1438.15 1449.31 1448.46 1358.16 1350.83 1357.15 1438.15 1449.31"/><path class="cls-30" d="M1457.71,1122.49l-109.83-3.1-6.22,218.15a24.24,24.24,0,0,0,14.18,22.69l88.63,40.09a24.21,24.21,0,0,0,23.22-1.88l49.11-32.64a24.17,24.17,0,0,0,10.82-19.4l.19-7.49,2.47-87.25,1.48-50.64A76.38,76.38,0,0,0,1457.71,1122.49Z"/><path class="cls-45" d="M1504.58,1295.11c-2.3,16,7.3,31.13,22.27,37.06l3.07-65.19A34.39,34.39,0,0,0,1504.58,1295.11Z"/><path class="cls-46" d="M1484.71,1215a3.17,3.17,0,1,0-6.18,1.39l17.36,77.38-30.36,9.28a3.18,3.18,0,0,0,.55,6.19,3,3,0,0,0,1.3-.12l33.17-10.15a3.16,3.16,0,0,0,2.16-3.73Z"/><path class="cls-30" d="M1326.66,1236.32a44.36,44.36,0,1,0,43,45.6A44.31,44.31,0,0,0,1326.66,1236.32Z"/><path d="M1499.4,1195.61c-2,8.49,28.85,15.38,32.78,6.84C1538.4,1188.94,1502.72,1181.51,1499.4,1195.61Z"/><path d="M1401.09,1196.34c4,8.51,34.79,1.49,32.75-7C1430.45,1175.26,1394.8,1182.85,1401.09,1196.34Z"/><path class="cls-45" d="M1401.43,1258.38a33.5,33.5,0,1,0,29.21,37.26A33.44,33.44,0,0,0,1401.43,1258.38Z"/><path d="M1432.53,1237.48c-4.84-.14-9,6.51-9.2,14.85s3.5,15.21,8.34,15.35,9-6.51,9.21-14.85S1437.38,1237.62,1432.53,1237.48Z"/><path d="M1514.12,1240.33c-4.68-.13-8.66,6.29-8.89,14.34s3.38,14.68,8.06,14.81,8.65-6.28,8.88-14.33S1518.79,1240.47,1514.12,1240.33Z"/><polygon class="cls-46" points="1310.55 1268.73 1335 1295.42 1338.33 1292.35 1313.89 1265.66 1310.55 1268.73"/><polygon class="cls-46" points="1311.16 1289.3 1314.15 1292.69 1325.94 1282.24 1322.94 1278.85 1311.16 1289.3"/><path class="cls-44" d="M1522.73,1148.41c-16.66-36.1-20.26-52.75-56.77-68.49-22.09-9.49-46.68-14-70.44-10.47-27.59,4.15-53.17,19.21-71.92,40s-31.1,46.94-37.34,74.29c-8.37,36.82,40,62.08,60.55,93.78.3-16.11,3.71-33.93,3.79-35.77,9.52-5.69,10.07-1.6,16.81-10.32,7.85-10.21,2.21-40.77,11.12-50,7.1-7.39,24.51-4.81,49.69-9.13,51.75-8.87,58.64-38.46,58.64-38.46s38.86,4.21,50.41,115.37C1537.15,1208.16,1539.38,1184.52,1522.73,1148.41Z"/><path class="cls-46" d="M1490.62,1332c-.23.14-16,9.19-47.78-2.54a2.7,2.7,0,0,0-1.86,5.07c11.61,4.29,21.28,6,29,6.32,15.23.66,23-4,23.45-4.24a2.7,2.7,0,0,0-2.82-4.61Z"/><path class="cls-44" d="M1338.61,1445.63c22.29-62.53-14.47-120.63-14.47-120.63-53.1,29.73-98.44-116.09-98.44-116.09s-46,160.79-34.17,208.44-10.4,68.48-23.77,116.12,0,37.22,35.66,81.89,17.83,78.9,17.83,78.9l19.31-1.48,63.88-8.94-3-59.55,11.89,55.09,59.42-14.89s-3-70-41.6-108.68S1316.33,1508.16,1338.61,1445.63Z"/><path class="cls-31" d="M1882.61,2613.23c75.84,30.49,131.21,72.53,131.21,72.53l30,.25s-84-72.51-115-97.62S1858.51,2603.53,1882.61,2613.23Z"/><path class="cls-30" d="M2137.5,2679.26c-26.73-17.49-48.65-74.82-72.32-99.87s4.49-96.61,4.49-96.61l-104-15.74s-17.52,45.33-33.87,73.65-13.87,64.33,22.71,86.17,78.64,53.6,96.14,70.87,84.45,67.47,89.67,58.93C2154.13,2734.13,2164.22,2696.75,2137.5,2679.26Z"/><path class="cls-31" d="M2104.77,2641.54c-27.53-14.89-86.73,41.07-91,44.22l113.12,84.83c8.81,6.61,21.11,4.6,26.81-4.77C2178.76,2724.69,2137.3,2659.13,2104.77,2641.54Z"/><path class="cls-31" d="M2340.64,2494.21c-18.61,32,8,69,66.55,69.71,32.09.4,151.18-11.89,151.18-11.89l-42.31-66.74S2382.62,2421.94,2340.64,2494.21Z"/><path class="cls-30" d="M2594.3,2451c-31.68,5.52-91.51-23.11-125.79-25.14s-115-65.68-115-65.68l-80.45,50s61.52,52.42,67.58,84,31.16,54.86,73.38,46.92c93.28-17.54,111,5.23,135.53,5.83s89.75-62.68,88.15-72.42C2633.48,2448.87,2626,2445.46,2594.3,2451Z"/><path class="cls-31" d="M2533.82,2419c-41.63,43.11-44.11,121.56-44.11,121.56l68.66,11.47,131.52-90.78C2638.14,2401,2533.82,2419,2533.82,2419Z"/><path class="cls-31" d="M2630.94,2459l-72.57,93s153.59-19.33,131.52-90.78Z"/><path class="cls-26" d="M2091.52,2542l-.36.45A2.78,2.78,0,0,0,2091.52,2542Z"/><path class="cls-26" d="M2311.57,1821.88c-16.63,14.58-59.25,55.56-59.25,55.56s-80.69,96.58-109.26,144.08c-56.59,94.05-222.41,486.1-222.41,486.1s44.38-15.93,118.29,2c22.9,5.55,38.47,12,45.86,18.49,9.26,8.1,7.62,12.6,6.72,14,9.81-12.26,217.49-272.51,275.06-419.4,13.41-34.22,59.67-139.5,63.17-191.31,2.24-33.27-7.1-66-32.28-94.27C2352.18,1786.23,2334.58,1801.69,2311.57,1821.88Z"/><path class="cls-34" d="M2189,2000.11c-14.14,21.84-26.88,44.53-38.87,67.54s-22.76,46.64-33.25,70.34-20.39,47.65-29.59,71.88-18.71,48.28-28.94,72.05c-5.07,11.9-10.5,23.65-15.86,35.44l-15.85,35.48c-10.11,23.84-19,48.14-27.58,72.59s-16.5,49.1-23.1,74.22l1.12.4c10.82-23.58,20.73-47.46,30.53-71.39s19.35-47.92,28.16-72.22l12.81-36.62c4.22-12.23,8.6-24.41,13.31-36.44,9.39-24.1,20.14-47.63,31.32-70.94s22.69-46.45,33.73-69.77c11.19-23.26,22.88-46.24,34.39-69.28s23.27-45.94,35.63-68.5,25.46-44.69,40.83-65.48l-.88-.78C2218.42,1957,2203.22,1978.38,2189,2000.11Z"/><path class="cls-27" d="M1873.29,1931.9c-49.91-14.09-82.33,20.16-111.07,60.39-26.72,37.41-7.63,148.05-7.63,148.05s54.61,63.71,133.33,119.82c174.89,124.65,390.73,241.7,390.73,241.7s-2.62-8.22,3.64-18.91c9.32-15.9,27.72-40.28,45.92-58.5,24.9-24.93,54.73-38.3,84.51-44.69C2412.72,2379.76,2019.65,1973.21,1873.29,1931.9Z"/><path class="cls-34" d="M1802.27,2140.07c-.78.07-.35.11.36.37a7.18,7.18,0,0,1,.56-.76C1804,2138.79,1802.92,2140,1802.27,2140.07Z"/><path class="cls-34" d="M2125.74,2386.77c-26.39-15.46-53-30.7-78.46-47.7-25.62-16.79-49.82-35.64-73.42-55.07-11.56-10-23.28-19.84-34.51-30.13s-22.37-20.71-33.31-31.35c-21.91-21.28-42.75-43.6-64.74-65.2-5.57-5.35-11.18-10.68-17.14-15.83-3-2.58-6.06-5.11-9.47-7.52a41.58,41.58,0,0,0-5.69-3.42,20.94,20.94,0,0,0-3.73-1.43,11.33,11.33,0,0,0-5.77-.17,8.81,8.81,0,0,0-3.54,1.85,10.64,10.64,0,0,0-1.78,2,25.61,25.61,0,0,0-1.91,3.05c-1.06,1.94-1.89,3.76-2.71,5.58l-4.57,10.65c-3,7-6,13.84-9.55,20.43-7,13.15-15.63,25.5-26.88,35.3a99,99,0,0,1-39.46,21.08l.24,1.16a93.43,93.43,0,0,0,43-17.58c12.65-9.51,23.09-21.86,31.21-35.34,4.08-6.73,7.71-13.72,11.06-20.7l4.92-10.31c.82-1.65,1.65-3.28,2.5-4.68.21-.34.43-.7.64-1-.71-.26-1.14-.3-.36-.37s1.68-1.28.92-.39a7.18,7.18,0,0,0-.56.76,5.36,5.36,0,0,1,1.12.53,41.08,41.08,0,0,1,4.06,2.66c2.81,2.07,5.61,4.47,8.37,7,5.53,5,10.93,10.33,16.3,15.72,43.06,43.16,87,87.36,137.41,122.78q37.5,26.86,75.23,53.14l37.46,26.79c12.63,8.71,25.13,17.67,38,26.1,25.65,16.91,52.22,32.34,79.1,47.15s54.2,28.87,82.36,41.21l.55-1.05c-26-16.3-52.21-32.15-78.34-48.09S2152,2402.46,2125.74,2386.77Z"/></g></g></svg>
