<svg xmlns="http://www.w3.org/2000/svg" viewBox="0 0 512 512"><defs><style>.cls-1{fill:#fc4581;}.cls-2{fill:#e03b77;}.cls-3{fill:#32314b;}.cls-4{fill:#c19640;}.cls-5{fill:#27273d;}.cls-6{fill:#9e4830;}.cls-7{fill:#873d2b;}.cls-8{fill:none;stroke:#27273d;stroke-linecap:round;stroke-miterlimit:10;stroke-width:7px;}.cls-9{fill:#773325;}.cls-10{fill:#fff;}.cls-11{fill:#3e436d;}.cls-12{fill:#f6d372;}.cls-13{fill:#e88032;}.cls-14{fill:#f6c752;}.cls-15{fill:#ddd;}</style></defs><title>Avatar Users2</title><g id="BULINE"><circle class="cls-1" cx="256" cy="256" r="256"/></g><g id="Icons"><path class="cls-2" d="M484.77,371A257.06,257.06,0,0,1,390.1,474.1c-1.44.89-2.9,1.77-4.36,2.62q-7.32,4.3-14.94,8.14A253,253,0,0,1,316,504.92q-6.39,1.54-12.92,2.75c-.91.18-1.82.34-2.74.5-3.32.58-6.66,1.1-10,1.54l-1.32.18c-2.48.32-5,.61-7.46.85Q268.93,512,256,512q-6,0-11.94-.27c-1.37-.07-2.74-.14-4.11-.23q-3.28-.19-6.54-.48t-6.24-.63l-.58-.06-1-.12c-.35,0-.7-.07-1-.12-1.73-.21-3.46-.44-5.18-.68-2.24-.32-4.48-.68-6.7-1.05q-6.53-1.12-12.93-2.56A253.66,253.66,0,0,1,137.65,483q-7.92-4.12-15.51-8.8c-.85-.51-1.7-1-2.54-1.57A257.16,257.16,0,0,1,27.23,371,256.73,256.73,0,0,1,71.54,308.5h0a257.11,257.11,0,0,1,53.21-42.33h0q6.18-3.69,12.59-7l.07,0c1-.52,2-1,3-1.55h0l.33-.16,1-.49a0,0,0,0,1,0,0l.83-.41a253.3,253.3,0,0,1,30.75-12.8h0c2.37-.82,4.77-1.59,7.18-2.33s4.81-1.45,7.24-2.11q8.89-2.48,18.06-4.28a257.69,257.69,0,0,1,134.28,9.24,253.88,253.88,0,0,1,31.39,13.35h0l.88.45.08,0,1.42.73q9,4.68,17.56,10A257.29,257.29,0,0,1,484.77,371Z"/><path class="cls-3" d="M449.75,248a29.18,29.18,0,0,0,0-51,29.17,29.17,0,0,0-13.2-49.27A29.18,29.18,0,0,0,411,103.51,29.17,29.17,0,0,0,375,67.44a29.19,29.19,0,0,0-44.19-25.52,29.18,29.18,0,0,0-49.27-13.2,29.18,29.18,0,0,0-51,0,29.18,29.18,0,0,0-49.27,13.2A29.19,29.19,0,0,0,137,67.44,29.17,29.17,0,0,0,101,103.51a29.18,29.18,0,0,0-25.52,44.18A29.17,29.17,0,0,0,62.25,197a29.18,29.18,0,0,0,0,51,29.18,29.18,0,0,0,13.2,49.28A29.18,29.18,0,0,0,101,341.44,29.16,29.16,0,0,0,137,377.5,29.19,29.19,0,0,0,181.22,403a29.17,29.17,0,0,0,49.27,13.2,29.18,29.18,0,0,0,51,0A29.17,29.17,0,0,0,330.78,403,29.19,29.19,0,0,0,375,377.5,29.16,29.16,0,0,0,411,341.44a29.18,29.18,0,0,0,25.52-44.18A29.18,29.18,0,0,0,449.75,248Z"/><polygon class="cls-4" points="286.29 398.44 288.39 446.2 316.46 455.9 342.35 435.87 301.31 397.42 286.29 398.44"/><path class="cls-5" d="M190.73,74.86a29.12,29.12,0,0,0-7.42,28.65,29.17,29.17,0,0,0-25.52,44.17A29.19,29.19,0,0,0,144.59,197a29.17,29.17,0,0,0,0,51,29.18,29.18,0,0,0,13.2,49.27,29.18,29.18,0,0,0,25.52,44.19,29.17,29.17,0,0,0,36.05,36.07A29.19,29.19,0,0,0,263.55,403a29.22,29.22,0,0,0,14.2,18.46,29.16,29.16,0,0,1-47.26-5.26A29.17,29.17,0,0,1,181.22,403,29.19,29.19,0,0,1,137,377.51a29.15,29.15,0,0,1-36-36.07,29.19,29.19,0,0,1-25.53-44.19A29.18,29.18,0,0,1,62.25,248a29.18,29.18,0,0,1,0-51,29.19,29.19,0,0,1,13.2-49.28A29.18,29.18,0,0,1,101,103.51,29.15,29.15,0,0,1,137,67.44a29.2,29.2,0,0,1,44.19-25.52,29.18,29.18,0,0,1,49.27-13.2,29.18,29.18,0,0,1,47.27-5.27,29.26,29.26,0,0,0-14.21,18.47,29.2,29.2,0,0,0-44.19,25.52A29.12,29.12,0,0,0,190.73,74.86Z"/><polygon class="cls-4" points="227.73 398.44 225.63 446.2 197.56 455.9 171.68 435.87 212.71 397.42 227.73 398.44"/><path class="cls-6" d="M370.8,484.86A253,253,0,0,1,316,504.92q-6.39,1.54-12.92,2.75c-.91.18-1.82.34-2.74.5-3.32.58-6.66,1.1-10,1.54l-1.32.18c-2.48.32-5,.61-7.46.85Q268.93,512,256,512q-6,0-11.94-.27c-1.37-.07-2.74-.14-4.11-.23q-3.28-.19-6.54-.48t-6.24-.63l-.58-.06-1-.12c-.35,0-.7-.07-1-.12-1.73-.21-3.46-.44-5.18-.68-2.24-.32-4.48-.68-6.7-1.05q-6.53-1.12-12.93-2.56A253.66,253.66,0,0,1,137.65,483a146.91,146.91,0,0,1,31.16-21.51h0q2.53-1.32,5.17-2.57a28.82,28.82,0,0,1,2.82-1.13c.79-.28,1.68-.58,2.63-.87,3.92-1.23,9-2.6,14.22-4.08h0c2.46-.68,4.95-1.4,7.38-2.15h0c8.51-2.59,16.26-5.47,18.93-8.56,4.5-5.22,4.56-13.23,4.13-21h0c-.22-3.75-.55-7.43-.55-10.7,0-1.46,0-2.84,0-4.11v0c0-3.29-.15-6-.26-8.2-.09-2.5-.19-4.38-.16-5.83.08-6.36,2.37-4.19,15.11-8.47a14.81,14.81,0,0,1,2.08-.42h0c9.81-1.45,46.2-3.28,50.16.42,2.76,2.58,3.22,7.86,2.8,14.12h0c-.13,2.14-.38,4.4-.67,6.7v0c-.74,6-1.79,12.4-2.09,17.83h0c-.24,4-.08,7.45.9,9.95,4.37,11.18,12.12,14.72,21.69,18.16h0c2.22.79,4.53,1.59,6.92,2.46h0c2.61,1,5.29,2,8.06,3.31a5.25,5.25,0,0,1,.59.28c2.43,1.13,4.81,2.33,7.13,3.54s4.31,2.31,6.38,3.5A152.65,152.65,0,0,1,370.8,484.86Z"/><path class="cls-6" d="M372.42,219.84v78.45c0,58.51-46.57,77.25-80.52,107a52.23,52.23,0,0,1-69.6,0c-34-29.76-80.53-48.5-80.53-107V219.84c0-.25,0-.53,0-.78.27-40.94,22.24-76.41,54.31-94.1,1-.58,2.1-1.13,3.15-1.66a95.24,95.24,0,0,1,39.07-10.24c1.38-.08,2.78-.1,4.18-.1h29.2a96.89,96.89,0,0,1,64,24.38,100.87,100.87,0,0,1,7.71,7.5,109.64,109.64,0,0,1,28.82,69v0Q372.42,216.85,372.42,219.84Z"/><path class="cls-7" d="M187.8,298.29V219.84c0-56,40.6-102,92.3-106.5-2.77-.26-5.57-.38-8.41-.38H242.5c-55.63,0-100.72,47.86-100.72,106.88v38.83a23.08,23.08,0,0,0,0,46.16H142c3.35,53.41,47.64,71.87,80.29,100.47a52,52,0,0,0,57.81,7.89,54,54,0,0,1-11.79-7.89C234.36,375.55,187.8,356.8,187.8,298.29Z"/><circle class="cls-6" cx="372.42" cy="281.75" r="23.08"/><path class="cls-8" d="M172.8,250.06s29.09-16.21,54.21,0"/><ellipse class="cls-5" cx="199.51" cy="278.97" rx="9.64" ry="13.88"/><path class="cls-8" d="M284.88,250.06s29.09-16.21,54.21,0"/><ellipse class="cls-5" cx="311.6" cy="278.97" rx="9.64" ry="13.88"/><rect class="cls-7" x="240.01" y="304.83" width="33.53" height="12.71" rx="5.83"/><path class="cls-8" d="M182,268.74s16.66-10.52,35.07,0"/><path class="cls-8" d="M294.06,268.74s16.66-10.52,35.07,0"/><path class="cls-9" d="M142.44,272.57a9.18,9.18,0,0,0,0,18.36Z"/><path class="cls-7" d="M372.42,290.93a9.18,9.18,0,0,0,0-18.36Z"/><path class="cls-10" d="M230,338.92a2.27,2.27,0,0,0-2.26,2.45c1.24,15.19,13.76,29.26,29,29.26h0c15.27,0,27.79-14.07,29-29.26a2.27,2.27,0,0,0-2.26-2.45Z"/><path class="cls-3" d="M354.68,113,286.75,77.25H227A194.84,194.84,0,0,0,133.75,185.4l-2.5,7.15a70.57,70.57,0,0,0,10.53,66.12h0c6.95-17.94,13.42-52.4,13.42-52.4,11.46-76,83.62-69.53,98.22-67.41v.42s.47-.09,1.32-.22c.81.13,1.26.22,1.26.22v-.41c15-2.09,91.07-8.85,102.56,67.4,0,0,6.47,34.46,13.42,52.4l23.08-30.22Z"/><path class="cls-5" d="M315.87,347.09c-9-27.16-41.85-26.88-41.85-26.88-10.16,0-15.24,4.82-17.25,7.42-2-2.6-7.09-7.42-17.25-7.42,0,0-32.84-.28-41.85,26.88a2,2,0,0,0,3.24,2C208,342,222,331.05,238.45,334.57a12.86,12.86,0,0,0,1.63.26c3.09.28,13.34.89,16.69-2.83,3.35,3.72,13.6,3.11,16.69,2.83a12.86,12.86,0,0,0,1.63-.26c16.45-3.52,30.44,7.41,37.54,14.54A2,2,0,0,0,315.87,347.09Z"/><path class="cls-11" d="M353.15,81.26C354.27,94,353,112.43,340,126.33a3.25,3.25,0,0,0,2.58,5.49c8.61-.6,21.24-2.39,28.22-7.61a3.26,3.26,0,0,1,5,1.36c1.76,4.55,3.93,12,3,19a3.26,3.26,0,0,0,5.79,2.39c6.23-7.62,11.47-21.2,3.7-43.87a3.26,3.26,0,0,0-5.71-.86l-1.2,1.64a3.26,3.26,0,0,1-5.3-.08l-17-24.67A3.25,3.25,0,0,0,353.15,81.26Z"/><path class="cls-10" d="M300.32,494.81v13.36c-3.32.58-6.66,1.1-10,1.54l-1.32.18c-2.48.32-5,.61-7.46.85Q268.93,512,256,512q-6,0-11.94-.27c-1.37-.07-2.74-.14-4.11-.23q-3.28-.19-6.54-.48t-6.24-.63l-.58-.06-1-.12c-.35,0-.7-.07-1-.12-1.73-.21-3.46-.44-5.18-.68l.17-10.23h0l.17-9.88.06-3.67a54.56,54.56,0,0,0,5.7,2.71c1.4.59,3,1.22,4.88,1.87h0a82.8,82.8,0,0,0,9.33,2.62,76.84,76.84,0,0,0,43.86-2.72,75.86,75.86,0,0,0,9.86-4.49l2.71,3.65Z"/><path class="cls-12" d="M370.8,484.86A253,253,0,0,1,316,504.92q-6.39,1.54-12.92,2.75c-.91.18-1.82.34-2.74.5-3.32.58-6.66,1.1-10,1.54V493.6l5.9-4.33,6.87-5,12.1-8.87,20.68-15.13c2.17,1.14,4.31,2.31,6.38,3.5A152.65,152.65,0,0,1,370.8,484.86Z"/><path class="cls-13" d="M316,478.51v26.41q-6.39,1.54-12.92,2.75V478.51a6.46,6.46,0,0,1,12.1-3.14A6.31,6.31,0,0,1,316,478.51Z"/><path class="cls-14" d="M301.31,397.42l48.28,16a22.88,22.88,0,0,1,15.69,21.73h0A22.89,22.89,0,0,1,356,453.5l-63.72,47.25a4.9,4.9,0,0,1-7.76-3.08c-1.94-11.07-3-31.25,12.43-39.19,21.78-11.2,39-15.07,27.39-30.8S301.31,397.42,301.31,397.42Z"/><path class="cls-15" d="M240,492.89V511.5q-3.28-.19-6.54-.48t-6.24-.63l-.58-.06-1-.12c-.35,0-.7-.07-1-.12l.36-8.38.35-8.35.21-5,.12-2.71,4.76,4.58h0l9.33,2.62Z"/><path class="cls-12" d="M225.63,493.6v16.61c-.35,0-.7-.07-1-.12-1.73-.21-3.46-.44-5.18-.68-2.24-.32-4.48-.68-6.7-1.05q-6.53-1.12-12.93-2.56A253.66,253.66,0,0,1,137.65,483a146.91,146.91,0,0,1,31.16-21.51h0q2.53-1.32,5.17-2.57a28.82,28.82,0,0,1,2.82-1.13l23.83,17.46h0l12,8.82h0l7,5.16,5.55,4.07Z"/><path class="cls-13" d="M212.71,478.51v29.85q-6.53-1.12-12.93-2.56V478.51a6.28,6.28,0,0,1,.87-3.21,6.46,6.46,0,0,1,12.06,3.21Z"/><path class="cls-14" d="M212.71,397.42l-48.27,16a22.89,22.89,0,0,0-15.7,21.73h0A22.89,22.89,0,0,0,158,453.5l63.72,47.25a4.9,4.9,0,0,0,7.76-3.08c1.94-11.07,3-31.25-12.42-39.19-21.79-11.2-39-15.07-27.4-30.8S212.71,397.42,212.71,397.42Z"/></g></svg>
