<svg xmlns="http://www.w3.org/2000/svg" xmlns:xlink="http://www.w3.org/1999/xlink" viewBox="0 0 218.16 244.59"><defs><style>.cls-1{fill:none;}.cls-2{isolation:isolate;}.cls-3{fill:#fae4d9;}.cls-4{clip-path:url(#clip-path);}.cls-5{fill:#8a6ba0;}.cls-13,.cls-6{fill:#919191;}.cls-10,.cls-11,.cls-6{mix-blend-mode:color-burn;}.cls-7{fill:#fce096;}.cls-8{fill:#fb968b;}.cls-9{fill:url(#linear-gradient);}.cls-10{fill:#d4d4d4;}.cls-12{fill:#e8e8e8;}.cls-14{fill:#fff;}.cls-15{fill:url(#linear-gradient-2);}.cls-16{fill:url(#linear-gradient-3);}.cls-17{fill:#fdc07a;}.cls-18{fill:#2ebac4;}.cls-19{fill:url(#linear-gradient-4);}</style><clipPath id="clip-path"><circle class="cls-1" cx="109.08" cy="109.08" r="109.08" transform="translate(-45.18 109.08) rotate(-45)"/></clipPath><linearGradient id="linear-gradient" x1="117.74" y1="109.32" x2="119.39" y2="178.53" gradientUnits="userSpaceOnUse"><stop offset="0" stop-color="#ff6a59"/><stop offset="1" stop-color="#fff" stop-opacity="0"/></linearGradient><linearGradient id="linear-gradient-2" x1="91.13" y1="67.49" x2="84.33" y2="63.39" gradientUnits="userSpaceOnUse"><stop offset="0" stop-color="#5f0030"/><stop offset="1" stop-color="#c7776e"/></linearGradient><linearGradient id="linear-gradient-3" x1="87.02" y1="81.95" x2="102.04" y2="62.08" xlink:href="#linear-gradient"/><linearGradient id="linear-gradient-4" x1="113.33" y1="70.1" x2="104.94" y2="65.04" xlink:href="#linear-gradient-2"/></defs><g class="cls-2"><g id="Слой_2" data-name="Слой 2"><g id="Layer_1" data-name="Layer 1"><circle class="cls-3" cx="109.08" cy="109.08" r="109.08" transform="translate(-45.18 109.08) rotate(-45)"/><g class="cls-4"><path class="cls-5" d="M118.5,134.19c-9.14,0-16.56,2.84-16.56,6.34s6.33,9.6,15.48,9.6,17.65-6.1,17.65-9.6S127.65,134.19,118.5,134.19Z"/><path class="cls-6" d="M118.5,134.19c-9.14,0-16.56,2.84-16.56,6.34s6.33,9.6,15.48,9.6,17.65-6.1,17.65-9.6S127.65,134.19,118.5,134.19Z"/><path class="cls-7" d="M150.19,72.54c-2.46.15-5,.81-7.34.08a8.72,8.72,0,0,1-5-4.78A26.09,26.09,0,0,1,136,61L133.08,43.8c-.48-2.84-.52-10-5.28-9.31-1.8.28-3.18,1.68-4.36,3.07a55.36,55.36,0,0,0-13,35.64c0,3.73.58,7.8,3.26,10.38,2.88,2.78,7.31,3,11.31,2.88a143,143,0,0,0,23.57-3,14.17,14.17,0,0,0,6.09-2.32c1.72-1.36,2.78-3.81,1.86-5.81C155.54,73.05,152.65,72.39,150.19,72.54Z"/><path class="cls-8" d="M101,108.28c6.64,32.22,0,57.63,0,57.63h34.8s-4.88-30.9,0-57.63C137.34,99.72,99.22,99.75,101,108.28Z"/><path class="cls-9" d="M101,108.28c6.64,32.22,0,57.63,0,57.63h34.8s-4.88-30.9,0-57.63C137.34,99.72,99.22,99.75,101,108.28Z"/><path class="cls-8" d="M100.62,32.91c-5.16,4.67-7.37,11.65-9.85,18.18,0,.12-.1.26-.15.39a124.59,124.59,0,0,1-5.76,12.88c-1,1.92-2,3.8-3.09,5.66-.09.16-.19.33-.29.48a121.88,121.88,0,0,1-6.76,10.36c-2.91,4-6.07,7.89-8.14,12.39s-2.92,9.82-1,14.4c2.37,5.71,8.39,9,14.2,11.07a77.15,77.15,0,0,0,33.61,4.21c11.22-1.08,23.47-5.78,27.8-16.19,3.69-8.89.48-19-2.75-28.07C134.26,66.92,123.75,11.62,100.62,32.91Z"/><path class="cls-10" d="M93.65,49.67a8.34,8.34,0,0,0-2.86,1.42l-.15.39A126,126,0,0,1,81.75,70a21.12,21.12,0,0,0,13.58.35c1.36-5.39,1.41-10.75,2.5-16.19A6,6,0,0,0,98,51.94C97.64,50,95.35,49.27,93.65,49.67Z"/><path class="cls-10" d="M115.68,52.35a22.14,22.14,0,0,0-7.93-2.16c-2.33-.14-2.9,1.11-3.15,3.26a105.37,105.37,0,0,0-.29,18.88A69.84,69.84,0,0,0,115,75,22.94,22.94,0,0,0,126,74.2c-1.49-4.55-.71-9.66-2.54-14.08A15.6,15.6,0,0,0,115.68,52.35Z"/><g class="cls-11"><path class="cls-12" d="M136.63,57.05A7.36,7.36,0,1,0,139.79,67,7.35,7.35,0,0,0,136.63,57.05Z"/></g><path class="cls-8" d="M135.88,54.91A7.36,7.36,0,1,0,139,64.83,7.36,7.36,0,0,0,135.88,54.91Z"/><g class="cls-11"><path class="cls-13" d="M134.91,58.58a3.66,3.66,0,0,0-4.48.9,3.66,3.66,0,0,1,1.49,4.88,3.14,3.14,0,0,1-.45.67l.08,0a3.66,3.66,0,1,0,3.36-6.5Z"/></g><path class="cls-14" d="M95.65,57.55a3.14,3.14,0,0,0-3,.21,19.72,19.72,0,0,0-7.18,5.72c-.23.29-.45.58-.65.88-1,1.92-2,3.8-3.09,5.66-.09.16-.19.33-.29.48,2,1.19,5.1,1.37,7.5,1.3.29,0,.58,0,.84,0a6.78,6.78,0,0,0,4.39-1.44A7.09,7.09,0,0,0,96,66.39a.88.88,0,0,1,0-.16,35.37,35.37,0,0,0,.62-5.72C96.68,59.42,96.56,58.14,95.65,57.55Z"/><path class="cls-15" d="M90.33,61.85a5.52,5.52,0,0,0-5.71,5.45c0,.13,0,.24,0,.36,1,.21,2,.4,3,.53-.53,0-1.85,1.4-2.32,1.65l0,0,.18.33A9.77,9.77,0,0,0,89,71.8c.29,0,.58,0,.84,0a6.78,6.78,0,0,0,4.39-1.44A7.09,7.09,0,0,0,96,66.39,5.79,5.79,0,0,0,90.33,61.85Z"/><path class="cls-8" d="M100.66,54.5C96.42,53,97,64,95.89,66c-1.58,2.85-5.2,3.68-8.38,4.42s-6.79,2.1-7.71,5.23,1.58,6.4,4.62,7.55,6.42.71,9.63.26a13.11,13.11,0,0,0,4.64-1.26,4.45,4.45,0,0,0,2.44-3.89c-.07-1-.62-2-.77-3-.22-1.51.45-3,1-4.44C102.3,68.11,104.72,56,100.66,54.5Z"/><path class="cls-16" d="M100.66,54.5C96.42,53,97,64,95.89,66c-1.58,2.85-5.2,3.68-8.38,4.42s-6.79,2.1-7.71,5.23,1.58,6.4,4.62,7.55,6.42.71,9.63.26a13.11,13.11,0,0,0,4.64-1.26,4.45,4.45,0,0,0,2.44-3.89c-.07-1-.62-2-.77-3-.22-1.51.45-3,1-4.44C102.3,68.11,104.72,56,100.66,54.5Z"/><path class="cls-17" d="M112.68,48.73c-1.53-.83-3.31-1.54-5-1-1.39.43-2.62,2.28-3,3.68,6.7.69,13.66,3,18.72,7.44A29.15,29.15,0,0,0,112.68,48.73Z"/><path class="cls-17" d="M95.65,47.45a2.16,2.16,0,0,0-2.74.26c-2.19,1.62-3.85,4.42-4.77,8,2.29-3.51,6-4.68,9.8-4.37A9.12,9.12,0,0,0,95.65,47.45Z"/><path class="cls-14" d="M116.4,96.14a19.11,19.11,0,0,1-15.49.89c1.85,4.29,5.44,7.82,10.11,7.83a14.17,14.17,0,0,0,11.69-6.58c2.52-3.93,4.52-9.87,3.24-14.36A19.12,19.12,0,0,1,116.4,96.14Z"/><path class="cls-7" d="M124.72,26.79c-2.4-1.2-5.15-1.55-7.54-2.77s-4.48-3.83-3.74-6.4c.45-1.57,1.82-2.72,2.28-4.28.63-2.16-.74-4.49-2.66-5.66a13.33,13.33,0,0,0-6.47-1.48A61.2,61.2,0,0,0,88.08,8.36a26.92,26.92,0,0,0-10,4.71,12.82,12.82,0,0,0-5,9.59c0,4.35,2.82,8.25,6.16,11.05a29.33,29.33,0,0,0,5.34,3.55,29.79,29.79,0,0,0,10.28,3.18c2.22.25,4.47.27,6.72.31a41.13,41.13,0,0,1,6.48.5c.34,0,.68.13,1,.2A20.33,20.33,0,0,1,113.36,43a20.4,20.4,0,0,1,11.56,16.51c.18,1.84-.51,5.18,1.53,6.18,2-3.48,3-8.54,4.22-12.44,1.48-4.7,2.54-9.67,1.84-14.55S129.14,29,124.72,26.79Z"/><path class="cls-5" d="M148.4,156l-8.71-1.38-5.33-.84-2.53-.4-3.74-.59h-23a11.69,11.69,0,0,0-3.91.2l-2.37.36c-1.69.28-3.65.63-5.81,1h0l-3.65.72c-18.68,3.79-47.22,10.68-47.22,10.68L17.77,216.64l78.06,17.78,4.41,1,8.28,1.88,3.72.85,1.93.44,83.54-21.43L180,161Z"/><polygon class="cls-5" points="101.94 139.63 101.15 152.94 114.89 162.11 135.07 153.84 135.07 139.63 114.87 153.53 101.94 139.63"/><path class="cls-6" d="M131.83,153.33c-7.67,6.5-19.43,7.9-28.3,3.09-1.6-.86-3.15-2.09-4.75-3.12-1.69.28-3.65.63-5.81,1h0c-.08.9-.07,1.88-.15,2.74l-1.95,21.49a73,73,0,0,1,15.75-6.22c5.41,21-1.58,43.73,1.9,64.94a55.82,55.82,0,0,0,1.64,7.28,65,65,0,0,0,2.08-6.43c6-21.7,1.74-45.53,6-67.88L133,180.92l6.67-26.35-5.33-.84Z"/><polygon class="cls-6" points="47.76 235.42 47.76 185.46 28.47 235.42 47.76 235.42"/><polygon class="cls-6" points="162.99 241.59 176.06 243.52 162.99 200.46 162.99 241.59"/><rect class="cls-18" x="108.66" y="157.34" width="12.86" height="6.87"/><polygon class="cls-18" points="132.56 173.24 134.89 149.86 115.09 160.78 132.56 173.24"/><polygon class="cls-18" points="95.83 172.47 115.14 161.68 97.19 149.05 95.83 172.47"/><path class="cls-14" d="M119.07,160.13a22.52,22.52,0,0,0,2.88-1,23.28,23.28,0,0,0,2.72-1.4c-1,.37-1.88.8-2.81,1.19S120,159.68,119.07,160.13Z"/><path class="cls-14" d="M119,161.81a24.07,24.07,0,0,0,2.26.89,23.25,23.25,0,0,0,2.34.68,27.13,27.13,0,0,0-4.6-1.57Z"/><path class="cls-14" d="M104.69,157.68a23.28,23.28,0,0,0,2.72,1.4,22.52,22.52,0,0,0,2.88,1c-.92-.45-1.86-.84-2.79-1.26S105.64,158.05,104.69,157.68Z"/><path class="cls-14" d="M105.78,163.38a23.25,23.25,0,0,0,2.34-.68,24.07,24.07,0,0,0,2.26-.89,23.25,23.25,0,0,0-2.34.68A24.07,24.07,0,0,0,105.78,163.38Z"/><path class="cls-14" d="M114.07,57.71a6.38,6.38,0,0,0-6.44,1.51,10.53,10.53,0,0,0-2.94,6.18c-.25,1.76-.65,4.73.13,6.43a3.14,3.14,0,0,0,1.59,1.45,17.25,17.25,0,0,0,3.64,1c1.2.26,2.42.47,3.64.62a40.44,40.44,0,0,0,4.4.27A36.3,36.3,0,0,0,122,75c.43,0,3.7-.78,3.87-.59a39,39,0,0,1-6.4-9.58C118.17,62,116.9,58.8,114.07,57.71Z"/><path class="cls-19" d="M112.07,63.19a6.71,6.71,0,0,0-6.76,6.53,6,6,0,0,0,1.1,3.56,17.25,17.25,0,0,0,3.64,1c1.2.26,2.42.47,3.64.62a11.47,11.47,0,0,0,4-1.88c.08-.13.15-.26.22-.39l0,0c-.56-.3-2.16-2-2.77-1.92,1.21-.16,2.4-.39,3.59-.63a3.22,3.22,0,0,0,0-.43A6.47,6.47,0,0,0,112.07,63.19Z"/><path class="cls-10" d="M104.06,113.8a8.12,8.12,0,0,0-4,.8h.34a3.18,3.18,0,0,0-1.38,1,1.08,1.08,0,0,0,.2,1.51c.69.4,1.48-.38,2.28-.42,1.24-.07,1.88,1.58,3.06,2s2.68-1,2.45-2.39A3.3,3.3,0,0,0,104.06,113.8Z"/><path class="cls-17" d="M105.8,10.76A11.55,11.55,0,0,0,95.46,22.49a15.85,15.85,0,0,1-7-7.86,7.65,7.65,0,0,1-1.08,3.53,2.61,2.61,0,0,1-3.27.95c-1.59-1-1.15-3.39-2.48-4.51-2.9,3.11-2.15,11.54-1.11,15.28a18.78,18.78,0,0,0,4,7.38,29.79,29.79,0,0,0,10.28,3.18c2.22.25,4.47.27,6.72.31-3.62-2.16-6.77-4.87-8.38-8.69-.48-1.16-.62-2.81.5-3.35a2.65,2.65,0,0,1,2.56.66c4,2.86,7,6.81,10.32,10.37.48.51,1,1,1.48,1.51.34,0,.68.13,1,.2A20.33,20.33,0,0,1,113.36,43a31.27,31.27,0,0,1-5.81-11.92C105.84,24.46,105.81,17.57,105.8,10.76Z"/></g></g></g></g></svg>
