<svg xmlns="http://www.w3.org/2000/svg" xmlns:xlink="http://www.w3.org/1999/xlink" viewBox="0 0 218.16 227.59"><defs><style>.cls-1{fill:none;}.cls-2{isolation:isolate;}.cls-3{fill:#fae4d9;}.cls-4{clip-path:url(#clip-path);}.cls-5{fill:#fa6857;}.cls-11,.cls-6{fill:#919191;}.cls-12,.cls-6,.cls-9{mix-blend-mode:color-burn;}.cls-7{fill:#c7776e;}.cls-8{fill:url(#linear-gradient);}.cls-10,.cls-12{fill:#e8e8e8;}.cls-13{fill:url(#linear-gradient-2);}.cls-14{fill:#000446;}.cls-15{fill:#fff;}.cls-16{fill:url(#linear-gradient-3);}.cls-17{fill:url(#linear-gradient-4);}.cls-18{fill:#2ebac4;}</style><clipPath id="clip-path"><circle class="cls-1" cx="109.08" cy="109.08" r="109.08" transform="translate(-45.18 109.08) rotate(-45)"/></clipPath><linearGradient id="linear-gradient" x1="109.08" y1="138.98" x2="108.84" y2="172.71" gradientUnits="userSpaceOnUse"><stop offset="0" stop-color="#964138"/><stop offset="1" stop-color="#c7776e"/></linearGradient><linearGradient id="linear-gradient-2" x1="107.79" y1="98.35" x2="107.55" y2="85.67" gradientUnits="userSpaceOnUse"><stop offset="0" stop-color="#964138"/><stop offset="0.03" stop-color="#9a453c"/><stop offset="0.22" stop-color="#ae5b52"/><stop offset="0.43" stop-color="#bc6b62"/><stop offset="0.67" stop-color="#c4746b"/><stop offset="1" stop-color="#c7776e"/></linearGradient><linearGradient id="linear-gradient-3" x1="124.24" y1="84.86" x2="115.16" y2="79.39" gradientUnits="userSpaceOnUse"><stop offset="0" stop-color="#5f0030"/><stop offset="1" stop-color="#c7776e"/></linearGradient><linearGradient id="linear-gradient-4" x1="93.64" y1="85.28" x2="84.26" y2="79.63" xlink:href="#linear-gradient-3"/></defs><g class="cls-2"><g id="Слой_2" data-name="Слой 2"><g id="Layer_1" data-name="Layer 1"><circle class="cls-3" cx="109.08" cy="109.08" r="109.08" transform="translate(-45.18 109.08) rotate(-45)"/><g class="cls-4"><path class="cls-5" d="M165.73,106c-3.55-1.38-7.63-2.32-9.86-5.41-2.75-3.78-.89-10,3.48-11.6,3.12-1.18,7.78-1.08,8.31-4.37.39-2.39-2.12-4.18-4.36-5.11s-4.9-2-5.42-4.37c-.6-2.72,2.12-5.32,1.61-8.06-.6-3.27-5-4-8.29-3.38s-7.09,1.63-9.6-.56c-1.11-1-1.7-2.39-2.7-3.47-2-2.17-5.26-2.6-8.2-2.32s-5.83,1.11-8.77.93c-7.31-.46-13.25-7-20.58-7.18-8-.14-15.07,7.45-22.85,5.71-4.25-.95-10.89-5-10.68,1.91.08,2.59.89,4.79-.89,7.11s-5,2.72-7.27,4.28-3.29,5.24-1,6.52c1.53.84,3.48,0,5.15.47,2.81.89,2.84,5.18.9,7.41s-4.91,3.21-7.34,4.89-4.41,4.91-3,7.49c1.34,2.41,4.65,2.63,7.41,2.68s6.13.69,7,3.31c1,3-2.22,5.6-4.85,7.37A60.2,60.2,0,0,0,47.14,127.3,17.35,17.35,0,0,0,44,134.74c-.28,2.71.73,5.7,3.08,7.07s5.68.77,8.29-.47,5-3,7.83-3.63,6.3.26,7.38,2.94c1.41,3.51-2,6.95-5.09,9.19l-7.88,5.77c-2.34,1.71-4.93,3.92-4.79,6.82.14,2.67,2.73,4.69,5.36,5.1s5.3-.37,7.85-1.15L54.28,179.19a6.3,6.3,0,0,0-1.91,3.15,4.06,4.06,0,0,0,3,4.16,7.81,7.81,0,0,0,5.4-.6c6.94-3,11.45-11.14,19-11.91,6.26-.63,11.57,4.13,17,7.23,9.12,5.15,20.21,5.93,30.55,4.21s20.14-5.72,29.84-9.71c2.31-.95,4.91-2.22,5.52-4.65.84-3.4-2.73-6.13-5.79-7.85s-6.59-4.56-5.6-7.93c.8-2.72,4.14-3.74,7-3.82s5.93.3,8.31-1.24c3.06-2,3.56-6.61,1.75-9.78s-5.33-5-8.88-5.89c-2.4-.58-4.92-.8-7.21-1.74s-4.41-2.84-4.68-5.31c-.38-3.55,3.22-6.37,6.73-7s7.14.1,10.69-.31,7.39-2.6,7.72-6.16C173,110.24,169.28,107.37,165.73,106Z"/><path class="cls-5" d="M142.1,50.94c.16-2.86,3.89-4.67,3.76-7.53s-3.9-4-6.76-3.61-6.06,1.29-8.39-.4c2.17-.92,2.06-4.35.3-5.9s-4.34-1.69-6.68-1.56-4.8.43-7-.5c1.83-2.75,3-6.23,1.93-9.35s-5-5.27-7.86-3.56C109,20,108.59,23.26,108.07,26s-2,6-4.84,6.23c-3.09.2-4.92-3.33-7.52-5a6.91,6.91,0,0,0-10.64,6.29c.11,1.54.73,3,1,4.53s0,3.31-1.32,4.2c-1.47,1-3.46.41-5.23.15-6.32-.91-12.83,4.41-13.19,10.78-.82,14.13,15.56,12,24.48,11.15C103.47,63.11,117,57,129.59,62c3.57,1.41,6.92,3.71,10.75,3.93s8.22-3.09,7.1-6.76C146.46,56,141.91,54.29,142.1,50.94Z"/><path class="cls-6" d="M133.86,88.88c-6.17-.06-11.3,4.42-16.89,7a29.36,29.36,0,0,1-20.21,1.63c-4.29-1.22-16.92-5.82-16.31,2.73.19,2.66,2.13,4.33,1.2,7.26-1.15,3.66-5.31,5.47-8.11,7.67-2.55,2-4.76,5.24-3.7,8.3,1.28,3.67,6.07,4.39,10,4.47s8.67.76,10,4.41c1.41,3.88-2.33,7.58-5.76,9.86s-7.48,5.29-7,9.38c.47,3.69,5.58,5.8,8.51,3.51,1.12,1.81-.63,4.05-2.43,5.19s-4,2.32-4.24,4.44,2,3.93,4.18,4.05,4.21-.94,6.15-1.94c8.24-4.27,18-8.24,26.51-4.4,3.93,1.78,7.05,5.09,11.06,6.69s9.8.43,10.71-3.79c.68-3.15-1.67-6-3.64-8.59s-3.73-6.11-2-8.81c2.61-4,10.55-2.19,12-6.75.8-2.56-1.36-5.09-3.62-6.51s-5-2.49-6.31-4.81c-1.66-2.87-.52-6.67,1.64-9.19s5.15-4.14,7.87-6,5.33-4.37,6.08-7.6c.7-3.07-.42-6.28-2-9C144.63,93.11,139.6,88.93,133.86,88.88Z"/><path class="cls-7" d="M88.67,111.07c7.78,35.34,0,63.21,0,63.21h40.84s-5.73-33.89,0-63.21C131.34,101.69,86.61,101.73,88.67,111.07Z"/><path class="cls-8" d="M88.67,111.07c7.78,35.34,0,63.21,0,63.21h40.84s-5.73-33.89,0-63.21C131.34,101.69,86.61,101.73,88.67,111.07Z"/><path class="cls-7" d="M138,55.73c-7.42-12.44-19.2-18.66-29.15-18.66S87.1,43.29,79.67,55.73c-13.75,23-7.55,56.56,20.17,74.36a17.5,17.5,0,0,0,17.69.32c15.52-9.44,24.18-22.89,27-36.91A53.48,53.48,0,0,0,138,55.73Z"/><g class="cls-9"><path class="cls-10" d="M140,76.65c-2.51,7.46-1.63,13.69,4.51,16.85a53,53,0,0,0-.7-23.82A24.8,24.8,0,0,0,140,76.65Z"/></g><path class="cls-7" d="M150.52,69c-5.58-2.78-11.23.43-14,5.39s-3,12.2,2.66,14.88,12.26-.79,15.17-6.09S156.09,71.77,150.52,69Z"/><g class="cls-9"><path class="cls-11" d="M149.53,74c-2.34-1.45-5,.18-6.67,1.9,2.75,2,2.48,4.82,1.08,7.63a11.27,11.27,0,0,1-.81,1.11c0,.05.06.06.11.08a6.48,6.48,0,0,0,7.65-3.21C152.39,78.82,152.23,75.67,149.53,74Z"/></g><path class="cls-12" d="M131.4,71.4c-3.32-.89-7.85-2.06-11.17-.73a15.7,15.7,0,0,0-8.1,6.91,14.62,14.62,0,0,0-.88,11.79,54.61,54.61,0,0,0,10.53-1.09c3.44-.82,11.42-4.12,13.84-6.69,1.85-2-.89-7.88-1.62-8.81A4.78,4.78,0,0,0,131.4,71.4Z"/><g class="cls-9"><path class="cls-10" d="M74.61,69.68a53,53,0,0,0-.7,23.82c6.14-3.16,7-9.39,4.51-16.85A24.8,24.8,0,0,0,74.61,69.68Z"/></g><path class="cls-7" d="M67.9,69c-5.57,2.78-6.75,8.88-3.84,14.18S73.57,92,79.23,89.26s5.41-9.92,2.65-14.88S73.48,66.21,67.9,69Z"/><g class="cls-9"><path class="cls-11" d="M75.56,75.89c-1.71-1.72-4.33-3.35-6.67-1.9-2.7,1.68-2.86,4.83-1.35,7.51a6.47,6.47,0,0,0,7.65,3.21s.13,0,.1-.08a11.27,11.27,0,0,1-.81-1.11C73.08,80.71,72.81,77.88,75.56,75.89Z"/></g><path class="cls-5" d="M127.25,70.2c-3.34.06-8.49-.61-11.61.63-2.36.94-3.61,6.39,0,5.13a54.72,54.72,0,0,1,21.46-3C134.7,70.4,130.77,70.14,127.25,70.2Z"/><path class="cls-7" d="M111.1,89.24a5,5,0,0,1-1.25-1.46,9,9,0,0,1-.67-4.57,16.84,16.84,0,0,1,.71-5.59h-4.41c.38,0,.66,6.71.66,7,0,2.13-.65,3.65-2,4.46s-3.08,3.3-1.65,5.5a3.8,3.8,0,0,0,1.55,1.3,8,8,0,0,0,5.68.58A5.76,5.76,0,0,0,112.5,95a3,3,0,0,0,.77-1.25,3.76,3.76,0,0,0-.47-2.82A7,7,0,0,0,111.1,89.24Z"/><path class="cls-13" d="M111.1,89.24a5,5,0,0,1-1.25-1.46,9,9,0,0,1-.67-4.57,16.84,16.84,0,0,1,.71-5.59h-4.41c.38,0,.66,6.71.66,7,0,2.13-.65,3.65-2,4.46s-3.08,3.3-1.65,5.5a3.8,3.8,0,0,0,1.55,1.3,8,8,0,0,0,5.68.58A5.76,5.76,0,0,0,112.5,95a3,3,0,0,0,.77-1.25,3.76,3.76,0,0,0-.47-2.82A7,7,0,0,0,111.1,89.24Z"/><g class="cls-9"><path class="cls-11" d="M101.93,111.59A23.58,23.58,0,0,0,122,107a43,43,0,0,1-20.11,4.57Z"/></g><path class="cls-14" d="M122.52,77.67c-6.47,2-9.64,10.51-9.64,10.51s7.33,5.25,13.81,3.25,9.64-10.51,9.64-10.51S129,75.67,122.52,77.67Z"/><path class="cls-15" d="M121.1,78.43a12,12,0,0,0-4.95,3.18,23.31,23.31,0,0,0-4.7,7.32s7.34,5.26,13.81,3.26,9.64-10.52,9.64-10.52a23.1,23.1,0,0,0-7.37-3.29A12.21,12.21,0,0,0,121.1,78.43Z"/><path class="cls-16" d="M127.53,78.38a12.21,12.21,0,0,0-6.43.05,12,12,0,0,0-4.95,3.18c-.06.15-.11.31-.16.46h.07c.66.21,2.72,1.74,3.35,1.54-1.27.4-2.51.87-3.74,1.38,0,.15,0,.31,0,.46a7.11,7.11,0,0,0,8.48,5.59,7.36,7.36,0,0,0,6-8.36A6.66,6.66,0,0,0,127.53,78.38Z"/><path class="cls-12" d="M95.34,70.67c-3.32-1.33-7.85-.16-11.17.73a4.78,4.78,0,0,0-2.6,1.38c-.74.93-3.47,6.84-1.62,8.81,2.42,2.57,10.4,5.87,13.84,6.69a54.61,54.61,0,0,0,10.53,1.09,14.62,14.62,0,0,0-.88-11.79A15.7,15.7,0,0,0,95.34,70.67Z"/><path class="cls-14" d="M93.05,77.67c-6.48-2-13.81,3.25-13.81,3.25s3.17,8.5,9.64,10.51,13.81-3.25,13.81-3.25S99.52,79.68,93.05,77.67Z"/><path class="cls-15" d="M94.47,78.43A12.21,12.21,0,0,0,88,78.38a23.1,23.1,0,0,0-7.37,3.29s3.17,8.5,9.64,10.52,13.81-3.26,13.81-3.26a23.31,23.31,0,0,0-4.7-7.32A12,12,0,0,0,94.47,78.43Z"/><path class="cls-17" d="M99.51,82.08h.07c0-.15-.1-.31-.16-.46a12,12,0,0,0-5-3.18A12.21,12.21,0,0,0,88,78.38a6.66,6.66,0,0,0-2.68,4.31,7.36,7.36,0,0,0,6,8.36,7.11,7.11,0,0,0,8.48-5.59c0-.15,0-.31,0-.46-1.23-.51-2.47-1-3.74-1.38C96.79,83.82,98.85,82.29,99.51,82.08Z"/><path class="cls-5" d="M100.29,70.83c-3.12-1.24-8.27-.57-11.61-.63-3.52-.06-7.45.2-9.84,2.78a54.72,54.72,0,0,1,21.46,3C103.9,77.22,102.65,71.77,100.29,70.83Z"/><path class="cls-5" d="M70.81,169.59a11.71,11.71,0,0,0-2.83-.8c-3.88-.5-7.74-.85-11.61-1.28a15.1,15.1,0,0,1-5.54-1.22,3.22,3.22,0,0,1-1.64-2,3.61,3.61,0,0,1,.47-2.56c.86-1.65,2.5-2.71,4.08-3.84A16,16,0,0,0,56,156a5.49,5.49,0,0,0,1.5-2.73,4.06,4.06,0,0,0-.55-3.15,3.69,3.69,0,0,0-2.87-1.48,11.78,11.78,0,0,0-3,.33c-1,.18-1.91.37-2.86.53a26.75,26.75,0,0,1-5.69.45,9.75,9.75,0,0,1-5.2-1.69,8,8,0,0,1-3-4.47,10.8,10.8,0,0,1,.1-5.5A25.21,25.21,0,0,1,36.62,133a53.88,53.88,0,0,1,2.89-5,56.23,56.23,0,0,1,7.27-8.95c1.36-1.36,2.79-2.66,4.28-3.88s3.07-2.33,4.61-3.58a13.29,13.29,0,0,0,3.9-4.59,7.36,7.36,0,0,0,.66-3,5.58,5.58,0,0,0-.89-3,6,6,0,0,0-2.42-2,23.16,23.16,0,0,0-2.77-1.07,11.81,11.81,0,0,1-2.54-1.17,5.28,5.28,0,0,1-1.75-2,6.54,6.54,0,0,1-.14-5.31,12.28,12.28,0,0,1,3.39-4.47c1.42-1.29,3.08-2.27,4.65-3.49a11.44,11.44,0,0,0,2.13-2.1,4.37,4.37,0,0,0,.92-2.91,8,8,0,0,0-1-2.83,7.86,7.86,0,0,1-.55-1.32c-.07-.23-.17-.45-.22-.68l-.12-.7A9,9,0,0,1,60,65.37a11.63,11.63,0,0,1,9.31-6.08,11.81,11.81,0,0,0-9.56,5.95A9.33,9.33,0,0,0,58.52,71l.12.74c0,.24.14.48.2.72a8.79,8.79,0,0,0,.54,1.38,7.62,7.62,0,0,1,.87,2.66A3.85,3.85,0,0,1,59.4,79a10.5,10.5,0,0,1-2,2c-1.52,1.15-3.24,2.14-4.73,3.46A13.13,13.13,0,0,0,49,89.08a7.47,7.47,0,0,0,.09,6,6.25,6.25,0,0,0,2,2.36,12.2,12.2,0,0,0,2.73,1.31c1.82.66,3.72,1.24,4.69,2.72a5.33,5.33,0,0,1,.13,5.1,12.51,12.51,0,0,1-3.63,4.2c-1.49,1.19-3.11,2.31-4.63,3.56s-3,2.55-4.38,3.93a57.19,57.19,0,0,0-7.46,9.1,53.94,53.94,0,0,0-2.93,5.11A25.86,25.86,0,0,0,33.43,138a11.77,11.77,0,0,0-.07,6,9.08,9.08,0,0,0,3.39,5A10.82,10.82,0,0,0,42.5,151a27.11,27.11,0,0,0,5.92-.49c1-.16,1.92-.36,2.88-.55a11.21,11.21,0,0,1,2.76-.32,2.74,2.74,0,0,1,2.17,1,3.2,3.2,0,0,1,.44,2.44c-.3,1.77-1.88,3-3.4,4.16-.78.58-1.58,1.14-2.34,1.8A8.16,8.16,0,0,0,49,161.42a4.32,4.32,0,0,0-.48,3.06,3.85,3.85,0,0,0,2,2.38,15.29,15.29,0,0,0,5.79,1.21c3.87.34,7.77.6,11.62,1a11,11,0,0,1,2.79.72,4.13,4.13,0,0,1,2.14,1.8,2.87,2.87,0,0,1-.28,2.72,2.23,2.23,0,0,1-2.49,1,2.26,2.26,0,0,0,2.54-1,3,3,0,0,0,.36-2.82A4.39,4.39,0,0,0,70.81,169.59Z"/><path class="cls-5" d="M76.44,71a3.66,3.66,0,0,1-1,.17A1.14,1.14,0,0,0,76.44,71Z"/><path class="cls-5" d="M101.38,34.56C96,36.31,91.1,39.46,86.62,42.87c-6.16,4.71-12.13,10.18-15.13,17.34-1,2.3-1.59,4.91-.82,7.28a5.24,5.24,0,0,0,4.8,3.66,2,2,0,0,1-1.39-2.37c.41-1.35,1.94-2,3.34-2.17,2.1-.21,4.18.41,6.25.8S88,68,89.84,66.9s2.87-3.67,1.59-5.35c-1-1.27-2.86-1.62-3.69-3-1-1.57.1-3.74,1.71-4.63s3.56-.85,5.4-.79l12.53.44c1.79.06,3.69.09,5.23-.81s2.45-3.13,1.36-4.55c-1.53-2-4.88-.57-7.08-1.75-4.31-2.31-.08-7.41,2.85-8.34,1.94-.62,9.48-.13,6.86-3.27C113.77,31.48,104.78,33.46,101.38,34.56Z"/><path class="cls-5" d="M133.72,43.67c-5.12-4.28-13.65-8.24-20.46-7,1.71.43,2.89,1.46,5.29,2.5,1.53.67,2.53,3.54.86,3.74-.62.08-1.32-.1-1.84.26-1,.66-.13,2.27,1,2.63s2.36.1,3.44.55c2.34,1-.37,4.39-.69,6.9s0,5.84,2.41,6.47c2.77.72,5.33-3,8-2.13a3.57,3.57,0,0,1,2.12,3.46,10.39,10.39,0,0,1-1.23,4.13c.87,1.15,2.68.66,4,.1s3.19-1,3.95.28-.64,3.35.3,4.64c.71,1,2.34.68,3.08-.26a5.25,5.25,0,0,0,.78-3.41A31.24,31.24,0,0,0,133.72,43.67Z"/><path class="cls-5" d="M116.22,46.31A9.47,9.47,0,0,0,114,44.49a9.62,9.62,0,0,1-2.15-1.62,2.44,2.44,0,0,1-.57-2.35,3.82,3.82,0,0,1,1.61-2.07,12.8,12.8,0,0,1,2.5-1.2,11.42,11.42,0,0,0-2.62,1,4.18,4.18,0,0,0-1.89,2.14,2.89,2.89,0,0,0,.51,2.86,10.06,10.06,0,0,0,2.22,1.84,7.6,7.6,0,0,1,.08,13.12,9.13,9.13,0,0,1-5.06,1.13,23.85,23.85,0,0,0-5.69.22,7.85,7.85,0,0,0-2.73,1.17,4.67,4.67,0,0,0-1.83,2.44l-.06.19.08.16A3.81,3.81,0,0,0,100,65.13a6.56,6.56,0,0,0,2.11.63,31.82,31.82,0,0,1,4.08.45,3.24,3.24,0,0,1,2.57,2.58,1.78,1.78,0,0,1-.92,1.59,1.51,1.51,0,0,1-1.63.09,1.6,1.6,0,0,0,1.72.08,2.05,2.05,0,0,0,1.16-1.76,2.85,2.85,0,0,0-.87-2,4.54,4.54,0,0,0-1.85-1.16,31.57,31.57,0,0,0-4.14-.64,4.13,4.13,0,0,1-3-1.71c0,.06,0,.11-.07.17l0-.35.1.18a5.12,5.12,0,0,1,3.82-2.72,23.93,23.93,0,0,1,5.44-.11,14.24,14.24,0,0,0,2.9-.19,8.66,8.66,0,0,0,2.77-1.11,8.84,8.84,0,0,0,3.66-4.55,8.36,8.36,0,0,0-.16-5.81A9,9,0,0,0,116.22,46.31Z"/><path class="cls-5" d="M106.25,70.47a1,1,0,0,1-.22-.19A1,1,0,0,0,106.25,70.47Z"/><path class="cls-5" d="M99.25,63.46c0-.06,0-.11.07-.17l-.1-.18Z"/><path class="cls-5" d="M176.84,151.2a7.1,7.1,0,0,0-3.22-1c-2.21-.24-4.41,0-6.49-.4a5.35,5.35,0,0,1-2.74-1.27,3.76,3.76,0,0,1-1.15-2.66,6.22,6.22,0,0,1,.7-3,9.05,9.05,0,0,1,1.92-2.46c1.53-1.48,3.36-2.68,5-4.21a11.6,11.6,0,0,0,2.12-2.65,6.86,6.86,0,0,0,1-3.34,5.09,5.09,0,0,0-.33-1.77,6.23,6.23,0,0,0-.94-1.52,6.37,6.37,0,0,0-1.33-1.16,9.59,9.59,0,0,0-1.53-.78,43.13,43.13,0,0,0-6.38-1.72c-2.08-.49-4.21-1.09-5.67-2.48a2.62,2.62,0,0,1-.5-.55,3.59,3.59,0,0,1-.42-.6,4.17,4.17,0,0,1-.48-1.36,5.22,5.22,0,0,1,.43-2.9,10.33,10.33,0,0,1,4.11-4.53,46.6,46.6,0,0,1,5.84-2.74,23,23,0,0,0,5.83-3.25A9.42,9.42,0,0,0,175.9,99a5.45,5.45,0,0,0-.81-3.46,6.12,6.12,0,0,0-2.74-2.2,16,16,0,0,0-6.64-.9,17.32,17.32,0,0,1-6.27-.64A5.89,5.89,0,0,1,157,90a3.08,3.08,0,0,1-.76-2.63A3.94,3.94,0,0,1,158,85.16c.85-.6,1.82-1.08,2.77-1.63a9,9,0,0,0,2.7-2.12,3.85,3.85,0,0,0,.63-3.46,26.2,26.2,0,0,0-1.27-3.07,6.29,6.29,0,0,1-.43-1.47,4.11,4.11,0,0,1,.08-1.48c.46-2,1.93-3.73,2.8-5.81a5.47,5.47,0,0,0,.43-1.68,4.54,4.54,0,0,0,0-.9,3.6,3.6,0,0,0-.31-.85,4,4,0,0,0-2.74-2c-2.23-.55-4.48,0-6.58-.08a8.44,8.44,0,0,1-3.08-.64,2.7,2.7,0,0,1-1.8-2.24c-.05-1,.64-2.1.19-3.27a3.73,3.73,0,0,0-2.6-2,8.31,8.31,0,0,0-3.29-.15,29.61,29.61,0,0,1-3.24.32,4.89,4.89,0,0,1-3.06-.87,3.34,3.34,0,0,1-1.07-1.2,1.87,1.87,0,0,1-.07-1.57,1.92,1.92,0,0,0,0,1.59,3.51,3.51,0,0,0,1.06,1.24,5,5,0,0,0,3.1.94c2.18,0,4.38-.7,6.45,0a3.44,3.44,0,0,1,2.37,1.87c.38,1-.28,2-.28,3.16a2.7,2.7,0,0,0,.62,1.63,4,4,0,0,0,1.38,1,8.81,8.81,0,0,0,3.26.75c1.12.08,2.21-.1,3.28-.11a11,11,0,0,1,3.16.26A3.42,3.42,0,0,1,164.8,63a3.31,3.31,0,0,1-.15,2.87c-.82,1.94-2.35,3.64-2.91,5.91a4.94,4.94,0,0,0-.11,1.76,6.91,6.91,0,0,0,.47,1.66,28,28,0,0,1,1.19,3,3,3,0,0,1-.51,2.72,8.24,8.24,0,0,1-2.45,1.85,32.43,32.43,0,0,0-2.86,1.66,4.89,4.89,0,0,0-2.15,2.8,4,4,0,0,0,.94,3.44,7,7,0,0,0,2.82,2,18.27,18.27,0,0,0,6.64.73,15.11,15.11,0,0,1,6.22.85,5,5,0,0,1,2.29,1.82,4.36,4.36,0,0,1,.62,2.79,8.35,8.35,0,0,1-3,5.19,21.69,21.69,0,0,1-5.56,3.06,45.72,45.72,0,0,0-6,2.84,11.29,11.29,0,0,0-4.51,5,6,6,0,0,0-.49,3.47,5.07,5.07,0,0,0,.6,1.7,4.64,4.64,0,0,0,.51.74,3.77,3.77,0,0,0,.6.66c1.76,1.62,4,2.2,6.15,2.71a42.13,42.13,0,0,1,6.23,1.64,9.47,9.47,0,0,1,1.39.69,5.84,5.84,0,0,1,1.12,1,5,5,0,0,1,.78,1.24,4,4,0,0,1,.27,1.42,7.9,7.9,0,0,1-2.77,5.32c-1.52,1.48-3.35,2.7-4.94,4.27a8.08,8.08,0,0,0-2.8,6.05,4.62,4.62,0,0,0,1.42,3.17,6.06,6.06,0,0,0,3.12,1.42c2.22.38,4.42.11,6.55.32a6.66,6.66,0,0,1,3,.9,3.56,3.56,0,0,1,1.64,2.44,5.6,5.6,0,0,1-.47,3,10.27,10.27,0,0,1-1.7,2.69,48.54,48.54,0,0,0-4.33,4.91,6.76,6.76,0,0,0-1.12,3.09,5.44,5.44,0,0,0,.81,3.17,6.84,6.84,0,0,0,5.42,3.25,6.75,6.75,0,0,1-5.3-3.32,5.24,5.24,0,0,1-.73-3.08,6.43,6.43,0,0,1,1.15-3,46.08,46.08,0,0,1,4.41-4.79,10.63,10.63,0,0,0,1.83-2.78,6.13,6.13,0,0,0,.56-3.31A4.12,4.12,0,0,0,176.84,151.2Z"/><path class="cls-18" d="M129.39,153.79l-19.55,11.93L90.28,153.79a4.69,4.69,0,0,0-4.69,4.69v19.38a4.69,4.69,0,0,0,4.69,4.69h39.11a4.69,4.69,0,0,0,4.69-4.69V158.48A4.69,4.69,0,0,0,129.39,153.79Z"/><path class="cls-18" d="M109.84,168.17l-26.25,3.42-.25,0-49,6.37-17.07,2.22s41.06,51.25,91.77,47.15,94.79-44.82,94.79-44.82l-71.78-11Z"/><polygon class="cls-15" points="107.59 182.5 85.34 171.62 79.22 172.37 107.19 207.48 138.19 172.5 134.08 171.87 107.59 182.5"/></g></g></g></g></svg>
