<svg xmlns="http://www.w3.org/2000/svg" viewBox="0 0 512 512"><defs><style>.cls-1{fill:#fc715a;}.cls-2{fill:#e26150;}.cls-3{fill:#32314b;}.cls-4{fill:#27273d;}.cls-5{fill:#a65c3b;}.cls-6{fill:#9e4830;}.cls-7{fill:none;stroke:#27273d;stroke-linecap:round;stroke-miterlimit:10;stroke-width:7px;}.cls-8{fill:#873d2b;}.cls-9{fill:#fff;}.cls-10{fill:#db1b1b;}.cls-11{fill:#f6c752;}.cls-12{fill:#f7bb38;}.cls-13{fill:#f9da8c;}.cls-14{fill:#38c487;}.cls-15{fill:#35af75;}.cls-16{fill:#62dda2;}.cls-17{fill:#3e436d;}</style></defs><title>Avatar Users2</title><g id="BULINE"><circle class="cls-1" cx="256" cy="256" r="256"/></g><g id="Icons"><path class="cls-2" d="M484.77,371a257,257,0,0,1-73.16,88.28q-7.68,5.89-15.81,11.2h0q-1.91,1.26-3.84,2.46c-.61.4-1.23.78-1.85,1.16q-10.52,6.48-21.69,11.95A255.59,255.59,0,0,1,120,472.94l-.44-.27c-1.59-1-3.17-2-4.74-3.07h0q-7.47-4.93-14.57-10.4a256.82,256.82,0,0,1-73-88.18,257,257,0,0,1,75.15-89.8q6.24-4.71,12.78-9a252,252,0,0,1,23.31-13.68h0l2.4-1.22q3-1.5,6-2.92l.06,0c1.32-.63,2.64-1.24,4-1.84l2.74-1.22h0l2.1-.91h0c2.66-1.13,5.35-2.22,8.05-3.26a252.94,252.94,0,0,1,26.46-8.59c1.67-.44,3.33-.87,5-1.27q6.93-1.69,14-3a259.65,259.65,0,0,1,28.39-3.61h0Q246.75,230,256,230a256.82,256.82,0,0,1,44.05,3.78q7.36,1.28,14.56,3a253,253,0,0,1,30.27,9.11c3.55,1.31,7.06,2.71,10.53,4.17l3.95,1.7,1,.43c1.8.81,3.58,1.63,5.36,2.47q4.2,2,8.31,4.14l.49.25q8,4.2,15.69,8.93,8,4.94,15.61,10.44A257.09,257.09,0,0,1,484.77,371Z"/><path class="cls-3" d="M406.29,161.71c0,29-11.77,55.74-31.56,77a136.9,136.9,0,0,1-15.28,14.11,160,160,0,0,1-60.82,29.49c25.62,12,43,35.24,43,61.94,0,25.87-16.31,48.49-40.64,60.79a93.44,93.44,0,0,1-42.18,9.84c-45.75,0-82.83-31.62-82.83-70.63,0-25.92,16.39-48.57,40.79-60.86a161.56,161.56,0,0,1-63.39-28.94A140.43,140.43,0,0,1,138.23,241c-21.1-21.65-33.74-49.25-33.74-79.33,0-22.87,7.3-44.32,20.08-62.8C144,70.81,176,49.57,214.25,40.55a178.94,178.94,0,0,1,41.14-4.73c41.36,0,78.84,13.87,106.1,36.37a136.79,136.79,0,0,1,12,11.14c15.31,16,26,35.24,30.49,56.25A106.74,106.74,0,0,1,406.29,161.71Z"/><path class="cls-4" d="M301,405.07a93.44,93.44,0,0,1-42.18,9.84c-45.75,0-82.83-31.62-82.83-70.63,0-25.92,16.39-48.57,40.79-60.86a161.56,161.56,0,0,1-63.39-28.94c-1.84,25.34-2.55,49.5-2.79,67.59a3.12,3.12,0,0,1-6.2.46A506.09,506.09,0,0,1,138.23,241c-21.1-21.65-33.74-49.25-33.74-79.33,0-22.87,7.3-44.32,20.08-62.8-.06-1-.08-2-.08-3A54.93,54.93,0,0,1,179.43,41a55.5,55.5,0,0,1,12.65,1.47,77,77,0,0,1,22.82-20c-.29,5.4-.53,11.44-.65,18.08a663.16,663.16,0,0,0,5.17,93C228.23,204.89,250.25,298.65,301,405.07Z"/><path class="cls-5" d="M395.8,470.48h0q-1.91,1.26-3.84,2.46c-.61.4-1.23.78-1.85,1.16q-10.52,6.48-21.69,11.95A255.59,255.59,0,0,1,120,472.94l-.44-.27c-1.59-1-3.17-2-4.74-3.07l.6-1.26c.24-.5.48-1,.73-1.5s.48-1,.73-1.47.49-1,.74-1.46h0l.18-.37a.65.65,0,0,1,.09-.16q1.45-2.82,3-5.55c.11-.19.22-.4.34-.6.41-.69.81-1.38,1.26-2.07a10.17,10.17,0,0,1,.62-1c.35-.58.72-1.16,1.09-1.74s.72-1.15,1.1-1.72.81-1.23,1.23-1.84c1.42-2.1,2.89-4.15,4.43-6.16.7-.92,1.42-1.83,2.14-2.73s1.43-1.76,2.15-2.62a.35.35,0,0,0,.1-.11,134.66,134.66,0,0,1,45.75-34.71c3.73-1.77,12.5-4,21.21-6.49,9.39-2.71,18.72-5.8,21.63-9.16,6.23-7.21,3.34-20.16,3.34-29.51,0-2.38,0-4.46-.07-6.31V351c-.51-18.79-2.53-13,13.73-18.43a37.24,37.24,0,0,1,5.63-.84c5.59-.54,14.27-1.06,22.43-1.17h0c9.79-.13,18.78.32,20.59,2,2.49,2.32,3,7,2.64,12.58a.17.17,0,0,1,0,.07h0c-.63,11.14-4.4,25.84-1.74,32.66,4.67,12,13.53,14.54,24.33,18.36h0c3.13,1.11,6.41,2.33,9.82,3.91,20.8,9.67,36.77,22,49.17,36.32l.1.11L376,438.8c.33.42.67.84,1,1.24,2.52,3.13,4.88,6.34,7.11,9.64.77,1.14,1.52,2.3,2.26,3.47q2.57,4,4.85,8.23l1,1.83c.13.23.25.47.37.7.52,1,1,2,1.51,3,.38.75.75,1.51,1.11,2.26l.19.4C395.51,469.85,395.65,470.17,395.8,470.48Z"/><path class="cls-5" d="M366.08,171.15v74.66c0,55.7-44.33,73.55-76.65,101.87a49.71,49.71,0,0,1-66.25,0c-32.32-28.32-76.65-46.17-76.65-101.87V171.15C146.53,115,189.45,69.4,242.4,69.4h27.8C323.15,69.4,366.08,115,366.08,171.15Z"/><path class="cls-6" d="M190.26,245.82V171.15c0-53.32,38.65-97.08,87.86-101.39-2.64-.25-5.3-.36-8-.36H242.33c-53,0-95.88,45.56-95.88,101.75v37a22,22,0,1,0,0,43.93h.22c3.18,50.85,45.34,68.42,76.42,95.65a49.58,49.58,0,0,0,55,7.51,51.42,51.42,0,0,1-11.22-7.51C234.58,319.36,190.26,301.52,190.26,245.82Z"/><circle class="cls-5" cx="366" cy="230.08" r="21.97"/><path class="cls-7" d="M176,199.9s27.69-15.42,51.6,0"/><ellipse class="cls-4" cx="201.41" cy="227.43" rx="9.18" ry="13.21"/><path class="cls-7" d="M282.67,199.9s27.69-15.42,51.6,0"/><ellipse class="cls-4" cx="308.1" cy="227.43" rx="9.18" ry="13.21"/><rect class="cls-6" x="240.34" y="252.04" width="31.92" height="12.1" rx="5.55"/><path class="cls-7" d="M184.72,217.69s15.86-10,33.38,0"/><path class="cls-7" d="M291.41,217.69s15.86-10,33.38,0"/><path class="cls-8" d="M147.08,221.34a8.74,8.74,0,1,0,0,17.47Z"/><path class="cls-8" d="M366,238.81a8.74,8.74,0,1,0,0-17.47Z"/><path class="cls-9" d="M233.56,291.55c0,12,10.62,23.69,23.71,23.69h0c13.1,0,21.9-11.67,21.9-23.69Z"/><path class="cls-10" d="M280,291.55a27.21,27.21,0,0,1-6.95,17.83,22.66,22.66,0,0,1-16.77,8c-13.1,0-23.71-12.72-23.71-25.82H234c3.28,9.72,12,17.59,22.33,17.59a22.63,22.63,0,0,0,16.77-8,27.52,27.52,0,0,0,5.56-9.59Z"/><path class="cls-10" d="M256.3,285.38c-12.67-2.06-23.71,6.17-23.71,6.17H280S269,283.32,256.3,285.38Z"/><circle class="cls-11" cx="137.11" cy="271.4" r="36.08"/><path class="cls-12" d="M144.17,306.78a34.93,34.93,0,0,1-7.06.7,36.09,36.09,0,0,1,0-72.17,34.93,34.93,0,0,1,7.06.7,36.08,36.08,0,0,0,0,70.77Z"/><ellipse class="cls-13" cx="149.49" cy="260.33" rx="8.81" ry="14.15"/><ellipse class="cls-13" cx="149.49" cy="288.26" rx="5.62" ry="9.01"/><circle class="cls-11" cx="370.37" cy="271.4" r="36.08"/><path class="cls-12" d="M377.42,306.78a34.79,34.79,0,0,1-7.06.7,36.09,36.09,0,0,1,0-72.17,34.79,34.79,0,0,1,7.06.7,36.08,36.08,0,0,0,0,70.77Z"/><ellipse class="cls-13" cx="382.74" cy="260.33" rx="8.81" ry="14.15"/><ellipse class="cls-13" cx="382.74" cy="288.26" rx="5.62" ry="9.01"/><path class="cls-3" d="M406.29,125.52a43.44,43.44,0,0,1-36,42.86,624,624,0,0,1,4.47,70.36,509.54,509.54,0,0,1-6.17,83.79,3.12,3.12,0,0,1-6.2-.46c-.23-18.49-1-43.29-2.91-69.22-2.25-30.17-6.15-61.87-12.83-86.91a43.59,43.59,0,0,1-27.17-36.2,118.48,118.48,0,0,1-96.61-.19c-1.07,1.38-2.22,2.71-3.42,4a54.89,54.89,0,0,1-48.17,16.7c-9.91,26.87-15.14,66.85-17.87,104.25-1.84,25.34-2.55,49.5-2.79,67.59a3.12,3.12,0,0,1-6.2.46A506.09,506.09,0,0,1,138.23,241a621.26,621.26,0,0,1,8.55-101,54.82,54.82,0,0,1-22.21-41.17c-.06-1-.08-2-.08-3A54.93,54.93,0,0,1,179.43,41a55.5,55.5,0,0,1,12.65,1.47,77,77,0,0,1,22.82-20C230.35,13.38,250,7.94,271.34,7.94c49,0,88.88,28.61,90.15,64.25,0,.58,0,1.17,0,1.75a47.57,47.57,0,0,1-.7,8.11c.65,0,1.31,0,2,0a42.93,42.93,0,0,1,10.71,1.33A43.54,43.54,0,0,1,406.29,125.52Z"/><path class="cls-14" d="M395.8,470.48h0q-1.91,1.26-3.84,2.46c-.61.4-1.23.78-1.85,1.16q-10.52,6.48-21.69,11.95A255.59,255.59,0,0,1,120,472.94l-.44-.27c-1.59-1-3.17-2-4.74-3.07l.6-1.26c.24-.5.48-1,.73-1.5s.48-1,.73-1.47.49-1,.74-1.46l.2-.37a.65.65,0,0,1,.09-.16q1.45-2.82,3-5.55c.11-.19.22-.4.34-.6.41-.69.81-1.38,1.26-2.07a10.17,10.17,0,0,1,.62-1c.35-.58.72-1.16,1.09-1.74s.72-1.15,1.1-1.72.81-1.23,1.23-1.84c1.42-2.1,2.89-4.15,4.43-6.16.7-.92,1.42-1.83,2.14-2.73s1.43-1.76,2.15-2.62a.35.35,0,0,0,.1-.11c18.36,8.07,59.42,22,120.76,20.07h0c33.36-1.06,72.72-6.84,117.7-20.84l.1.11L376,438.8c.33.42.67.84,1,1.24,2.52,3.13,4.88,6.34,7.11,9.64.77,1.14,1.52,2.3,2.26,3.47q2.57,4,4.85,8.23l1,1.83c.13.23.25.47.37.7.52,1,1,2,1.51,3,.38.75.75,1.51,1.11,2.26l.19.4C395.51,469.85,395.65,470.17,395.8,470.48Z"/><path class="cls-15" d="M395.79,470.48q-1.91,1.26-3.84,2.46c-.61.4-1.23.78-1.85,1.16q-10.52,6.48-21.69,11.95H143.58A253.37,253.37,0,0,1,120,472.94l-.44-.27c-1.59-1-3.17-2-4.74-3.07l-.12.25c0-.09.07-.17.11-.26.2-.42.4-.83.61-1.25s.48-1,.73-1.5.48-1,.73-1.47.49-1,.74-1.46H392.54c.52,1,1,2,1.51,3,.38.75.75,1.51,1.11,2.26l.19.4C395.5,469.86,395.65,470.17,395.79,470.48Z"/><path class="cls-16" d="M411.61,459.28q-7.68,5.89-15.81,11.2h0q-1.91,1.26-3.84,2.46H120l-.44-.27c-1.59-1-3.17-2-4.74-3.07l-.12.25c0-.09.07-.17.11-.26q-7.47-4.93-14.57-10.4c15.38-9.1,33-19.73,35.08-21.88l.1-.11,120.76,20.07h0l117.7-20.84.1.11C376.17,438.73,395.24,449.88,411.61,459.28Z"/><path class="cls-4" d="M219.43,133.53a54.89,54.89,0,0,1-48.17,16.7c-9.9,26.87-15.13,66.85-17.86,104.25-1.85,25.34-2.56,49.5-2.8,67.59a3.12,3.12,0,0,1-6.2.46A506.09,506.09,0,0,1,138.24,241a622.4,622.4,0,0,1,8.55-101,54.81,54.81,0,0,1-22.2-41.17c-.06-1-.09-2-.09-3A54.93,54.93,0,0,1,179.44,41a55.59,55.59,0,0,1,12.66,1.47,76.7,76.7,0,0,1,22.82-20c-.3,5.4,3.62,13-.65,18.08C190,69.4,184.72,94.87,219.43,133.53Z"/><path class="cls-17" d="M319.71,54c1.06,12.12-.16,29.68-12.53,42.9a3.1,3.1,0,0,0,2.46,5.23c8.2-.57,20.22-2.27,26.86-7.24a3.11,3.11,0,0,1,4.81,1.29c1.67,4.33,3.73,11.38,2.84,18.09a3.1,3.1,0,0,0,5.51,2.28c5.93-7.25,10.92-20.18,3.52-41.76a3.1,3.1,0,0,0-5.43-.82l-1.15,1.56a3.1,3.1,0,0,1-5.05-.07L325.35,52A3.1,3.1,0,0,0,319.71,54Z"/></g></svg>
