<svg xmlns="http://www.w3.org/2000/svg" xmlns:xlink="http://www.w3.org/1999/xlink" viewBox="0 0 218.16 235.41"><defs><style>.cls-1{fill:url(#linear-gradient);}.cls-2{fill:url(#linear-gradient-2);}.cls-3{fill:none;}.cls-4{isolation:isolate;}.cls-5{fill:#fae4d9;}.cls-6{clip-path:url(#clip-path);}.cls-7{fill:#fce096;}.cls-8{fill:#c7776e;}.cls-9{fill:url(#linear-gradient-3);}.cls-10{fill:#fdc07a;}.cls-11{fill:#000446;}.cls-12,.cls-24{mix-blend-mode:color-burn;}.cls-13{fill:#e8e8e8;}.cls-14,.cls-24{fill:#919191;}.cls-15,.cls-17{fill:#fff;}.cls-15{opacity:0.44;}.cls-16{fill:url(#linear-gradient-4);}.cls-18{fill:url(#linear-gradient-5);}.cls-19{fill:url(#linear-gradient-6);}.cls-20{mask:url(#mask);}.cls-21{fill:url(#linear-gradient-7);}.cls-22{mask:url(#mask-2);}.cls-23{fill:url(#linear-gradient-8);}</style><linearGradient id="linear-gradient" x1="-1507.11" y1="120.62" x2="-1507.49" y2="125.03" gradientTransform="matrix(-1, 0, 0, 1, -1395.87, 0)" gradientUnits="userSpaceOnUse"><stop offset="0" stop-color="#fff"/><stop offset="1"/></linearGradient><linearGradient id="linear-gradient-2" x1="-1507.54" y1="134.92" x2="-1507.42" y2="125.43" xlink:href="#linear-gradient"/><clipPath id="clip-path"><circle class="cls-3" cx="109.08" cy="109.08" r="109.08" transform="translate(-45.18 109.08) rotate(-45)"/></clipPath><linearGradient id="linear-gradient-3" x1="111.8" y1="149.15" x2="111.57" y2="182.86" gradientUnits="userSpaceOnUse"><stop offset="0" stop-color="#964138"/><stop offset="1" stop-color="#c7776e"/></linearGradient><linearGradient id="linear-gradient-4" x1="109.37" y1="109.73" x2="109.13" y2="97.03" gradientUnits="userSpaceOnUse"><stop offset="0" stop-color="#964138"/><stop offset="0.03" stop-color="#9a453c"/><stop offset="0.22" stop-color="#ae5b52"/><stop offset="0.43" stop-color="#bc6b62"/><stop offset="0.67" stop-color="#c4746b"/><stop offset="1" stop-color="#c7776e"/></linearGradient><linearGradient id="linear-gradient-5" x1="129.17" y1="92.2" x2="120.43" y2="86.94" gradientUnits="userSpaceOnUse"><stop offset="0" stop-color="#5f0030"/><stop offset="1" stop-color="#c7776e"/></linearGradient><linearGradient id="linear-gradient-6" x1="93.89" y1="91.99" x2="85.11" y2="86.7" xlink:href="#linear-gradient-5"/><mask id="mask" x="100.54" y="119.81" width="22.06" height="5.93" maskUnits="userSpaceOnUse"><path class="cls-1" d="M100.54,125c0,1.21,3.2.61,8.18.48,6.63-.19,13.87.49,13.87-1.56,0-1.53-4.31-4.34-9.39-4.09-1.48.07-3,1.85-4.48,2s-2.6-1.09-3.64-.8C102.26,121.84,100.54,124.1,100.54,125Z"/></mask><linearGradient id="linear-gradient-7" x1="100.54" y1="122.78" x2="122.59" y2="122.78" xlink:href="#linear-gradient-3"/><mask id="mask-2" x="100.08" y="125.74" width="22.96" height="6.94" maskUnits="userSpaceOnUse"><path class="cls-2" d="M100.08,126.62c0,1.19,3.29,5.13,8.42,5.91,6.91,1.05,14.55-3.74,14.55-5.81C123.05,125.17,100.08,125.72,100.08,126.62Z"/></mask><linearGradient id="linear-gradient-8" x1="100.08" y1="129.21" x2="123.05" y2="129.21" xlink:href="#linear-gradient-3"/></defs><g class="cls-4"><g id="Слой_2" data-name="Слой 2"><g id="Layer_1" data-name="Layer 1"><circle class="cls-5" cx="109.08" cy="109.08" r="109.08" transform="translate(-45.18 109.08) rotate(-45)"/><g class="cls-6"><path class="cls-7" d="M100.27,174.54l-12.18,3.13-23.56,6.05-31.29,8s12.43,40.33,78.93,43.49,86.75-39.84,86.75-39.84l-74.35-20.87Z"/><path class="cls-8" d="M98.17,121.27c5.2,35.33,0,63.2,0,63.2h27.26s-3.82-33.88,0-63.2C126.65,111.88,96.8,111.92,98.17,121.27Z"/><path class="cls-9" d="M98.17,121.27c5.2,35.33,0,63.2,0,63.2h27.26s-3.82-33.88,0-63.2C126.65,111.88,96.8,111.92,98.17,121.27Z"/><path class="cls-8" d="M111.79,35.74c-20.25,0-37,20.7-40.05,47.77a78.9,78.9,0,0,0-.49,8.77,64.06,64.06,0,0,0,1,11.35c4.65,25.79,24.29,45.19,39.52,45.19s34.55-19.08,39.4-44.55a63.65,63.65,0,0,0,1.15-12,79.27,79.27,0,0,0-.54-9.21C148.64,56.22,131.93,35.74,111.79,35.74Z"/><rect class="cls-7" x="90.01" y="165.16" width="44.34" height="26.6" rx="10.31"/><path class="cls-10" d="M92.49,179.79a23.05,23.05,0,0,0-2.6-2.87L66.33,183a2.18,2.18,0,0,0-.11.44,3.76,3.76,0,0,0,1.38,2.85A67.79,67.79,0,0,0,89.49,201.8a18.59,18.59,0,0,1-4-9.36c4.46,3.23,10.19,4.33,15.7,4.1s10.88-1.67,16.2-3.1A37.12,37.12,0,0,1,92.49,179.79Z"/><path class="cls-11" d="M71.34,64.23a9.31,9.31,0,1,0,9.3,9.3A9.3,9.3,0,0,0,71.34,64.23Z"/><path class="cls-11" d="M71.36,55.14a9.31,9.31,0,1,0,13,2.13A9.31,9.31,0,0,0,71.36,55.14Z"/><circle class="cls-11" cx="77.21" cy="73.97" r="9.31" transform="translate(-28.83 60.26) rotate(-36.41)"/><path class="cls-11" d="M77.24,55.58a9.31,9.31,0,1,0,13,2.13A9.31,9.31,0,0,0,77.24,55.58Z"/><path class="cls-11" d="M144.77,66.82a9.31,9.31,0,1,0,9.31,9.3A9.3,9.3,0,0,0,144.77,66.82Z"/><g class="cls-12"><path class="cls-13" d="M145.06,90.75a11.64,11.64,0,0,0,6.13,13.52,63.65,63.65,0,0,0,1.15-12,79.27,79.27,0,0,0-.54-9.21A11.65,11.65,0,0,0,145.06,90.75Z"/></g><path class="cls-8" d="M157.49,79.51a11.65,11.65,0,1,0,8.17,14.3A11.65,11.65,0,0,0,157.49,79.51Z"/><g class="cls-12"><path class="cls-14" d="M157.21,85.5a5.8,5.8,0,0,0-6.64,2.89A5.71,5.71,0,0,1,154,96.62l.14.06a5.79,5.79,0,0,0,3.05-11.18Z"/></g><g class="cls-12"><path class="cls-13" d="M71.74,83.51a78.9,78.9,0,0,0-.49,8.77,64.06,64.06,0,0,0,1,11.35,11.66,11.66,0,0,0-.53-20.12Z"/></g><path class="cls-8" d="M66.24,79.37a11.65,11.65,0,1,0,13.51,9.42A11.65,11.65,0,0,0,66.24,79.37Z"/><g class="cls-12"><path class="cls-14" d="M66,85.37a5.79,5.79,0,1,0,2,11.4l.14,0a5.54,5.54,0,0,1-.36-1.22,5.78,5.78,0,0,1,4.54-6.68A5.78,5.78,0,0,0,66,85.37Z"/></g><path class="cls-11" d="M73.14,47.77A11.09,11.09,0,1,0,84.23,58.86,11.09,11.09,0,0,0,73.14,47.77Z"/><circle class="cls-11" cx="77.79" cy="53.83" r="11.09" transform="translate(-1.32 1.96) rotate(-1.43)"/><path class="cls-11" d="M84.23,42.75A11.09,11.09,0,1,0,95.31,53.83,11.08,11.08,0,0,0,84.23,42.75Z"/><path class="cls-11" d="M141.07,53.83a11.09,11.09,0,1,0,11.09,11.09A11.09,11.09,0,0,0,141.07,53.83Z"/><path class="cls-11" d="M144.65,53.14a11.09,11.09,0,1,0,11.09,11.09A11.08,11.08,0,0,0,144.65,53.14Z"/><path class="cls-11" d="M74.52,34.36A11.09,11.09,0,1,0,85.61,45.44,11.08,11.08,0,0,0,74.52,34.36Z"/><circle class="cls-11" cx="141.48" cy="51.83" r="11.09"/><path class="cls-11" d="M128.4,46.8a11.09,11.09,0,1,0,11.08,11.08A11.09,11.09,0,0,0,128.4,46.8Z"/><path class="cls-11" d="M108.23,28.76a11.09,11.09,0,1,0,11.08,11.09A11.09,11.09,0,0,0,108.23,28.76Z"/><path class="cls-11" d="M112,3.77a18,18,0,1,0,18,18A18,18,0,0,0,112,3.77Z"/><circle class="cls-15" cx="89.29" cy="36.36" r="18.04" transform="translate(21.22 104.63) rotate(-67.24)"/><circle class="cls-11" cx="89.29" cy="34.36" r="18.04" transform="translate(23.06 103.4) rotate(-67.24)"/><path class="cls-11" d="M127.36,18A19.93,19.93,0,1,0,147.29,38,19.93,19.93,0,0,0,127.36,18Z"/><path class="cls-15" d="M112.22,21.37A19.93,19.93,0,1,0,132.15,41.3,19.93,19.93,0,0,0,112.22,21.37Z"/><path class="cls-11" d="M109.22,23.37A19.93,19.93,0,1,0,129.15,43.3,19.93,19.93,0,0,0,109.22,23.37Z"/><path class="cls-11" d="M128.83,77.94a18.35,18.35,0,0,0-10.54-1.88c-.92,2.85,0,5.28,1.86,7.59a28.59,28.59,0,0,1,10-.48A18.57,18.57,0,0,1,139.26,87,26.52,26.52,0,0,0,128.83,77.94Z"/><path class="cls-8" d="M114.44,98.62a6.42,6.42,0,0,1-1.9-1.46c-1.1-1.31-1.08-3-1-4.58.07-1.81.07-4,1.07-5.58h-6.66c.56,0,1,6.7,1,7a4.47,4.47,0,0,1-3,4.45c-2.07.86-4.65,3.31-2.49,5.5a5.73,5.73,0,0,0,2.35,1.3,17.86,17.86,0,0,0,8.59.59,10.45,10.45,0,0,0,4.13-1.51,3.07,3.07,0,0,0,1.16-1.24,2.73,2.73,0,0,0-.71-2.83A9.78,9.78,0,0,0,114.44,98.62Z"/><path class="cls-16" d="M114.44,100.62a6.42,6.42,0,0,1-1.9-1.46c-1.1-1.31-1.08-3-1-4.58.07-1.81.07-4,1.07-5.58h-6.66c.56,0,1,6.7,1,7a4.47,4.47,0,0,1-3,4.45c-2.07.86-4.65,3.31-2.49,5.5a5.73,5.73,0,0,0,2.35,1.3,17.86,17.86,0,0,0,8.59.59,10.45,10.45,0,0,0,4.13-1.51,3.07,3.07,0,0,0,1.16-1.24,2.73,2.73,0,0,0-.71-2.83A9.78,9.78,0,0,0,114.44,100.62Z"/><path class="cls-11" d="M129.91,85.15c-6.33-.46-12,6.16-12,6.16s4.61,7.38,10.94,7.84,12-6.16,12-6.16S136.24,85.62,129.91,85.15Z"/><path class="cls-17" d="M134.05,87.57a11.25,11.25,0,0,0-5.64-2.23A10.81,10.81,0,0,0,123,86.48a21.89,21.89,0,0,0-6.58,5s4.62,7.38,10.94,7.85,12-6.17,12-6.17A22.46,22.46,0,0,0,134.05,87.57Z"/><path class="cls-18" d="M128.41,85.34A10.81,10.81,0,0,0,123,86.48a4.57,4.57,0,0,0-.29.36s0,0,0,0c.5.43,1.79,2.54,2.4,2.58-1.24-.08-2.49-.09-3.73-.06,0,.14-.09.28-.12.43a6.92,6.92,0,0,0,13.59,2.61,6.79,6.79,0,0,0-.87-4.87A11.25,11.25,0,0,0,128.41,85.34Z"/><path class="cls-11" d="M92.06,77.94A26.46,26.46,0,0,0,81.63,87a18.49,18.49,0,0,1,9.13-3.86,28.66,28.66,0,0,1,10,.48c1.9-2.31,2.77-4.74,1.86-7.59A18.32,18.32,0,0,0,92.06,77.94Z"/><path class="cls-11" d="M91,85.15C84.64,85.62,80,93,80,93s5.64,6.63,12,6.16,10.94-7.84,10.94-7.84S97.3,84.69,91,85.15Z"/><path class="cls-17" d="M97.87,86.48a10.85,10.85,0,0,0-5.4-1.14,11.18,11.18,0,0,0-5.63,2.23,22.24,22.24,0,0,0-5.31,5.6s5.64,6.62,12,6.17,11-7.85,11-7.85A21.89,21.89,0,0,0,97.87,86.48Z"/><path class="cls-19" d="M99.44,89.4c-1.25,0-2.49,0-3.74.06.62,0,1.9-2.15,2.41-2.58,0,0,0,0,0,0l-.29-.36a10.85,10.85,0,0,0-5.4-1.14,11.18,11.18,0,0,0-5.63,2.23A6.75,6.75,0,0,0,86,92.44a6.92,6.92,0,0,0,13.59-2.61C99.52,89.68,99.47,89.54,99.44,89.4Z"/><g class="cls-20"><path class="cls-21" d="M113.2,119.83c-1.48.07-3,1.85-4.48,2s-2.6-1.09-3.64-.8c-2.82.78-4.54,3-4.54,3.94,0,1.21,3.2.61,8.18.48,6.63-.19,13.87.49,13.87-1.56C122.59,122.39,118.28,119.58,113.2,119.83Z"/></g><g class="cls-22"><path class="cls-23" d="M100.08,126.62c0,1.19,3.29,5.13,8.42,5.91,6.91,1.05,14.55-3.74,14.55-5.81C123.05,125.17,100.08,125.72,100.08,126.62Z"/></g><path class="cls-24" d="M119.2,125.13a26.94,26.94,0,0,1-3.9.56,37,37,0,0,1-3.94-.08c-2.61-.12-5.26-.1-7.87-.29-1.31-.09-2.59-.26-3.88-.46a23.49,23.49,0,0,1-3.79-.82,17.83,17.83,0,0,0,3.72,1.3,36.94,36.94,0,0,0,3.91.75c2.63.35,5.19.38,7.85.51a27.48,27.48,0,0,0,4.06,0,20.59,20.59,0,0,0,4-.75,34.68,34.68,0,0,0,7.28-3.32c-1.24.46-2.43,1-3.67,1.45A29.13,29.13,0,0,1,119.2,125.13Z"/></g></g></g></g></svg>
