<svg xmlns="http://www.w3.org/2000/svg" viewBox="0 0 512 512"><defs><style>.cls-1{fill:#db1b1b;}.cls-2{fill:#c11a1a;}.cls-3{fill:#9e4830;}.cls-4{fill:#32314b;}.cls-5{fill:#fab3a7;}.cls-6{fill:#f58d89;}.cls-10,.cls-7{fill:none;stroke-linecap:round;stroke-miterlimit:10;stroke-width:7px;}.cls-7{stroke:#9e4830;}.cls-8{fill:#e08585;}.cls-9{fill:#27273d;}.cls-10{stroke:#27273d;}.cls-11{fill:#fff;}.cls-12{fill:#a65c3b;}.cls-13{fill:#ba6949;}</style></defs><title>Avatar Users2</title><g id="BULINE"><circle class="cls-1" cx="256" cy="256" r="256"/></g><g id="Icons"><path class="cls-2" d="M484.77,371a257,257,0,0,1-92.33,101.63l-2.34,1.47c-2.1,1.29-4.21,2.55-6.35,3.78a256.23,256.23,0,0,1-255.56,0q-4.35-2.5-8.59-5.18c-.86-.54-1.72-1.09-2.57-1.65a257,257,0,0,1-89.8-100,257.2,257.2,0,0,1,90.35-100.39q7.08-4.56,14.47-8.65c.78-.44,1.56-.87,2.35-1.29l.21-.11c.16-.1.33-.18.49-.27q3.06-1.65,6.18-3.21A254.82,254.82,0,0,1,167,245.9q5.08-1.89,10.28-3.57h0q3.06-1,6.16-1.89c1.82-.55,3.66-1.07,5.5-1.57q5.49-1.49,11.08-2.73,2.66-.6,5.33-1.13c1.11-.23,2.21-.44,3.32-.65a258.75,258.75,0,0,1,97.77.61q2.52.51,5,1.06,5.41,1.2,10.75,2.63,6.22,1.65,12.33,3.62,6.58,2.13,13,4.59c2.75,1,5.47,2.15,8.18,3.3q10.65,4.52,20.81,9.94c1.22.66,2.44,1.32,3.65,2h0l.59.32c1.07.6,2.13,1.2,3.18,1.81q6.08,3.51,11.94,7.35A257.09,257.09,0,0,1,484.77,371Z"/><path class="cls-3" d="M223.63,39.53c0,18.52,15,49.28,33.53,49.28s33.53-30.76,33.53-49.28a33.53,33.53,0,1,0-67.06,0Z"/><rect class="cls-4" x="222.29" y="60.06" width="69.75" height="21.56" rx="10.78"/><path class="cls-5" d="M383.75,477.88a256.23,256.23,0,0,1-255.56,0c1.24-1.29,2.51-2.57,3.81-3.82.51-.5,1-1,1.55-1.48,2.39-2.27,4.9-4.45,7.5-6.58,3.09-2.53,6.34-5,9.72-7.3a163.34,163.34,0,0,1,22.53-12.95c5.2-2.48,19.14-5.67,30.82-9.37,2.51-.81,4.92-1.63,7.12-2.48,4.65-1.79,8.34-3.69,10-5.66a13.91,13.91,0,0,0,1.2-1.63,16.2,16.2,0,0,0,1.39-2.64,1.46,1.46,0,0,0,.07-.19h0c2.89-7.17,1.57-16.83,1.18-25h0c-.07-1.24-.11-2.45-.11-3.61,0-2.66,0-5-.09-7.08h0c-.11-4.36-.31-7.54-.36-9.9v0c-.26-9,1.32-5.91,15.74-10.77a43.55,43.55,0,0,1,6.32-.93h0c13.8-1.36,44.46-2.52,48.17.93a7.58,7.58,0,0,1,1.43,1.9c1.3,2.46,1.69,6,1.6,10v.06c0,.68,0,1.38-.08,2.1h0c-.7,12.48-4.95,29-2,36.65.11.27.22.51.33.77h0a29.6,29.6,0,0,0,2.41,4.67h0c.07.12.13.23.21.35a24.73,24.73,0,0,0,1.63,2.21c4,4.86,9.13,7.5,15.07,9.79,5.61,2.16,11.93,4,18.61,7.12a176,176,0,0,1,27.82,16q4.25,3,8.15,6.17,4.82,3.89,9.17,8.05c.74.7,1.47,1.41,2.18,2.13S383,477.06,383.75,477.88Z"/><path class="cls-5" d="M380.22,186.69V270.3c0,62.36-49.63,82.34-85.82,114.05a55.63,55.63,0,0,1-74.18,0c-36.18-31.71-85.82-51.69-85.82-114V186.69c0-62.91,48.06-113.92,107.34-113.92h31.14C332.16,72.77,380.22,123.78,380.22,186.69Z"/><path class="cls-6" d="M183.45,270.3V186.69c0-59.7,43.28-108.7,98.38-113.52-2.95-.28-5.94-.41-9-.41H241.75c-59.3,0-107.35,51-107.35,113.93v41.39a24.6,24.6,0,1,0,0,49.19h.24c3.56,56.93,50.77,76.6,85.57,107.09,17.63,15.46,41.67,18.28,61.62,8.41a56.94,56.94,0,0,1-12.57-8.41C233.07,352.65,183.45,332.67,183.45,270.3Z"/><circle class="cls-5" cx="380.22" cy="252.67" r="24.6"/><path class="cls-7" d="M167.46,206.76s31-17.27,57.78,0"/><path class="cls-7" d="M286.92,206.76s31-17.27,57.78,0"/><rect class="cls-6" x="238.51" y="277.27" width="35.74" height="13.55" rx="6.21"/><path class="cls-8" d="M135.1,242.89a9.79,9.79,0,0,0,0,19.57Z"/><path class="cls-6" d="M380.23,262.46a9.79,9.79,0,0,0,0-19.57Z"/><ellipse class="cls-9" cx="195.94" cy="249.71" rx="10.28" ry="14.79"/><ellipse class="cls-9" cx="315.4" cy="249.71" rx="10.28" ry="14.79"/><path class="cls-10" d="M177.25,238.81s17.75-11.21,37.37,0"/><path class="cls-10" d="M296.71,238.81s17.75-11.21,37.37,0"/><path class="cls-11" d="M227.9,316.77a2.37,2.37,0,0,0-2.36,2.56c1.29,15.83,14.35,30.51,30.27,30.51h0c15.93,0,29-14.68,30.28-30.51a2.37,2.37,0,0,0-2.36-2.56Z"/><path class="cls-11" d="M383.75,477.88a256.23,256.23,0,0,1-255.56,0c1.24-1.29,2.51-2.57,3.81-3.82.51-.5,1-1,1.55-1.48,2.39-2.27,4.9-4.45,7.5-6.58,3.09-2.53,6.34-5,9.72-7.3a163.34,163.34,0,0,1,22.53-12.95c5.2-2.48,19.14-5.67,30.82-9.37,2.51-.81,4.92-1.63,7.12-2.48v21.51l36.19,29.92a13.21,13.21,0,0,0,16.78,0l36.15-29.92V426.15c4,4.86,9.13,7.5,15.07,9.79,5.61,2.16,11.93,4,18.61,7.12a176,176,0,0,1,27.82,16q4.25,3,8.15,6.17,4.82,3.89,9.17,8.05c.74.7,1.47,1.41,2.18,2.13S383,477.06,383.75,477.88Z"/><path class="cls-12" d="M384.66,187.89v35.72l-.45,11.3L358.07,165.6s-4.57-44.49-41.75-51.85c-13.23-2.62-26.81,1.12-37.54,9.28a39.65,39.65,0,0,1-22.43,8.46v0H255v0A39.66,39.66,0,0,1,232.56,123c-10.73-8.15-24.31-11.89-37.54-9.27-37.18,7.35-41.75,51.85-41.75,51.85L134.4,230.77,130,187.89c0-65.18,49.79-118,111.21-118h32.26C334.86,69.86,384.66,122.71,384.66,187.89Z"/><path class="cls-12" d="M383.59,233.26l-2.54,9.67-.82,3.16v.06l-3.65,14L372.41,276l-.42,1.62a31.77,31.77,0,0,1-30.75,23.74H177.4a31.77,31.77,0,0,1-30.75-23.74l-5.37-20.53-6.88-26.28V232l.09,10.93.12,17.66v1.88l.12,16.12v.58l.21,26.7a116,116,0,0,0,2.54,23.46,117.39,117.39,0,0,0,5.72,18.89L160.61,392a80.18,80.18,0,0,0,43.51,44.34q3.48,1.45,7.12,2.59a80.07,80.07,0,0,0,23.87,3.64h48.41A80.24,80.24,0,0,0,358,392l17.41-43.81a115.59,115.59,0,0,0,5.43-17.58,116.93,116.93,0,0,0,2.83-24.77L383.9,277l.1-12.75,0-2.55.12-18h0l.07-8.78,0-4.14ZM206.21,329a18.48,18.48,0,0,1,18.47-18.48H294A18.49,18.49,0,0,1,312.43,329v2.91a18.48,18.48,0,0,1-11.65,17.17l-34.36,13.66a19.25,19.25,0,0,1-14.2,0l-22-8.76h0l-12.29-4.89a18.48,18.48,0,0,1-11.65-17.17Z"/><path class="cls-3" d="M170.82,341.05s3.59,62.22,58.4,89.18C229.22,430.23,185.2,377.67,170.82,341.05Z"/><path class="cls-3" d="M217.84,365.11s-6.05,32.18,33.54,65.12Z"/><path class="cls-3" d="M345.4,341.05s-3.59,62.22-58.4,89.18C287,430.23,331,377.67,345.4,341.05Z"/><path class="cls-3" d="M298.37,365.11s6.06,32.18-33.53,65.12Z"/><path class="cls-13" d="M292.09,75.83c.59,6.75-.09,16.52-7,23.88a1.73,1.73,0,0,0,1.37,2.91c4.56-.32,11.25-1.27,14.95-4a1.72,1.72,0,0,1,2.67.72,21.68,21.68,0,0,1,1.59,10.07,1.72,1.72,0,0,0,3.06,1.26c3.3-4,6.08-11.23,2-23.24a1.73,1.73,0,0,0-3-.45l-.64.87a1.73,1.73,0,0,1-2.81,0l-9-13.06A1.72,1.72,0,0,0,292.09,75.83Z"/></g></svg>
