<svg xmlns="http://www.w3.org/2000/svg" viewBox="0 0 512 512"><defs><style>.cls-1{fill:#a65c3b;}.cls-2{fill:#8c4a30;}.cls-3{fill:#e88032;}.cls-4{fill:#c6692a;}.cls-5{fill:#fcc8bc;}.cls-6{fill:#911616;}.cls-7{fill:#fab3a7;}.cls-8{fill:none;stroke:#27273d;stroke-linecap:round;stroke-miterlimit:10;stroke-width:7px;}.cls-9{fill:#f9a195;}.cls-10{fill:#27273d;}.cls-11{fill:#d89c93;}.cls-12{fill:#fff;}.cls-13{fill:#db1b1b;}.cls-14{fill:#c11a1a;}.cls-15{fill:#ea3636;}.cls-16{fill:#32314b;}.cls-17{fill:#3e436d;}</style></defs><title>Avatar Users2</title><g id="BULINE"><circle class="cls-1" cx="256" cy="256" r="256"/></g><g id="Icons"><path class="cls-2" d="M484.77,371a257,257,0,0,1-66.32,82.85c-2.31,1.91-4.67,3.78-7.05,5.59q-5.31,4.08-10.83,7.85-2.34-3-4.84-5.9l-1.51-1.73a33.28,33.28,0,0,1-23.86,3.43,26,26,0,0,1-51.33,1c-19.49,17.23-37.78,19.87-49.35,19.2a45.21,45.21,0,0,1-12.06-2.22l-.07,0-.41-.15a42.36,42.36,0,0,1-12.54,2.4c-11.47.66-29.56-1.93-48.87-18.78a26,26,0,0,1-51.25-1.41,33.31,33.31,0,0,1-24.1-3.56,44.89,44.89,0,0,1-6.82-1.09h0q-2.85,3.17-5.51,6.47l-1.89-1.35q-1.92-1.38-3.81-2.81-4.11-3.08-8.1-6.34a257.16,257.16,0,0,1-67-83.41A257.1,257.1,0,0,1,131.32,262.37l0,0q3.3-1.85,6.64-3.58a254.38,254.38,0,0,1,42.57-17.47c2-.61,3.94-1.19,5.92-1.75h0a255,255,0,0,1,31.43-6.74q9.21-1.37,18.62-2.08Q246.17,230,256,230q10.37,0,20.53.81a254.27,254.27,0,0,1,98.72,28.61q4.22,2.22,8.33,4.6A257,257,0,0,1,484.77,371Z"/><path class="cls-3" d="M433.9,413.75a45.92,45.92,0,0,1-38.74,45.37l-1.26.18a46,46,0,0,1-48.46-28.18c-.28-.66-.53-1.34-.77-2-.43-1.2-.81-2.42-1.14-3.67l-.41-.05c-.49-.05-1-.11-1.45-.19a45.77,45.77,0,0,1-27.62-14.78,46,46,0,0,1-58-21.42,45.94,45.94,0,0,1-58,21.42,45.78,45.78,0,0,1-24.8,14.29c-.53.12-1.06.22-1.6.31s-1.26.2-1.9.28l-1.18.14c-.31,1.18-.66,2.34-1.06,3.48a46,46,0,0,1-43.37,30.78q-1.91,0-3.78-.15a44.89,44.89,0,0,1-6.82-1.09,44.39,44.39,0,0,1-8.69-3,45.94,45.94,0,0,1,14.59-87.38,45.92,45.92,0,0,1,61.66-30.91,45.09,45.09,0,0,1,3.3-3.33,45.8,45.8,0,0,1,30.88-11.93,44.53,44.53,0,0,1,5.81.37,45.68,45.68,0,0,1,26.76,13.2h0a45.94,45.94,0,0,1,8.18,11.2,45.91,45.91,0,0,1,73-11.52q1,1,1.92,2a45.92,45.92,0,0,1,61.66,30.91A45.94,45.94,0,0,1,433.9,413.75Z"/><ellipse class="cls-4" cx="257.62" cy="397.94" rx="101.17" ry="51.28"/><path class="cls-5" d="M394.22,459.66a33.28,33.28,0,0,1-23.86,3.43,26,26,0,0,1-51.33,1c-19.49,17.23-37.78,19.87-49.35,19.2a45.21,45.21,0,0,1-12.06-2.22l-.07,0-.41-.15a42.36,42.36,0,0,1-12.54,2.4c-11.47.66-29.56-1.93-48.87-18.78a26,26,0,0,1-51.25-1.41,33.31,33.31,0,0,1-24.1-3.56,44.89,44.89,0,0,1-6.82-1.09c.67-.77,1.36-1.51,2-2.26,1.4-1.5,2.84-3,4.3-4.42,1.25-1.25,2.53-2.46,3.83-3.67a164.42,164.42,0,0,1,39.57-26.81c.62-.31,1.27-.61,1.9-.91.31-.15.63-.3,1-.45.58-.24,1.23-.48,2-.74h0l.18-.06,1-.34c.43-.13.88-.3,1.33-.44l.63-.2c2.5-.78,5.44-1.63,8.6-2.5l.77-.22,2.2-.62c7.33-2,15.43-4.31,22-6.75.93-.34,1.81-.69,2.66-1.06,4.1-1.68,7.32-3.46,8.91-5.28,3.14-3.66,4.34-8.53,4.67-13.78.46-7.16-.68-15-.68-21.48,0-1.64,0-3.16,0-4.58-.09-5-.27-8.69-.39-11.53-.5-12.1.33-8,16.72-13.51a14.89,14.89,0,0,1,2.31-.46h0c2-.31,5.18-.63,8.91-.91h0c5-.4,11.14-.74,17.3-.93h0c13.48-.37,27.09,0,29.55,2.3,2.82,2.65,3.48,7.83,3.19,14.06h0c-.1,2.85-.43,5.94-.83,9.1h0c-1.17,9.49-3,19.68-2.26,26.68h0a16.26,16.26,0,0,0,1,4.23,28.6,28.6,0,0,0,13.89,15.86c.56.3,1.14.59,1.7.87,5.77,2.81,12.51,4.67,19.8,7.56l2.82,1.17c.85.36,1.72.75,2.58,1.14.22.11.43.2.65.32,2.13,1,4.23,2,6.28,3.09l1,.53c.22.1.42.21.64.32s.38.2.57.31.49.24.71.37h0c1,.53,2,1.07,3,1.61a0,0,0,0,0,0,0,170.57,170.57,0,0,1,34.5,25q5.28,5,9.94,10.22a3.38,3.38,0,0,1,.31.35Z"/><path class="cls-6" d="M86.12,150.7h139.2a0,0,0,0,1,0,0V175a0,0,0,0,1,0,0H86.12A12.14,12.14,0,0,1,74,162.84v0A12.14,12.14,0,0,1,86.12,150.7Z"/><path class="cls-5" d="M385.86,154.47V241.7c0,3.15-.12,6.19-.36,9.14-4.62,58-53.25,78.35-89.18,109.85a58.09,58.09,0,0,1-77.4,0c-36.3-31.82-85.59-52.32-89.31-111.7-.14-2.36-.22-4.79-.22-7.29V154.47c0-.3,0-.59,0-.89.29-45.52,24.73-85,60.39-104.62,1.16-.65,31.45-12.58,47-13.23,1.54-.1,3.09-.12,4.64-.12h32.48a107.62,107.62,0,0,1,71.21,27.12,112,112,0,0,1,8.58,8.32,121.9,121.9,0,0,1,32,76.77v0C385.81,150,385.86,152.24,385.86,154.47Z"/><path class="cls-7" d="M180.56,241.7V154.46c0-62.28,45.15-113.4,102.64-118.43-3.08-.29-6.2-.42-9.35-.42H241.39c-61.87,0-112,53.22-112,118.85v43.18a25.67,25.67,0,1,0,0,51.33h.25c3.72,59.39,53,79.92,89.27,111.72,18.4,16.13,43.47,19.07,64.29,8.78a59.64,59.64,0,0,1-13.11-8.78C232.34,327.61,180.56,306.76,180.56,241.7Z"/><circle class="cls-5" cx="385.86" cy="223.31" r="25.66"/><path class="cls-8" d="M163.88,182.69s32.35-18,60.28,0"/><path class="cls-8" d="M288.51,182.69s32.35-18,60.28,0"/><rect class="cls-7" x="238.45" y="248.97" width="37.28" height="14.13" rx="6.48"/><path class="cls-9" d="M130.12,213.1a10.21,10.21,0,1,0,0,20.41Z"/><path class="cls-7" d="M385.86,233.51a10.21,10.21,0,1,0,0-20.41Z"/><ellipse class="cls-10" cx="194.02" cy="220.21" rx="10.72" ry="15.43"/><path class="cls-8" d="M174.52,208.84s18.52-11.7,39,0"/><ellipse class="cls-10" cx="318.65" cy="220.21" rx="10.72" ry="15.43"/><path class="cls-8" d="M299.16,208.84s18.52-11.7,39,0"/><path class="cls-11" d="M385.5,250.84c-4.62,58-53.25,78.35-89.18,109.85a58.09,58.09,0,0,1-77.4,0c-36.3-31.82-85.59-52.32-89.31-111.7l0,0s21.26,27.85,57.45,53a7,7,0,0,0,9.95-1.92,34.4,34.4,0,0,1,6.77-7.52c8.45-7.09,24-14.24,52.4-14.47h1.41c39,.33,53.75,13.66,59.18,22a7,7,0,0,0,9.94,1.92c36.19-25.19,57.46-53,57.46-53Z"/><path class="cls-12" d="M229.8,290.17a2.36,2.36,0,0,0-2.35,2.55c1.28,15.78,14.3,30.41,30.17,30.41h0c15.87,0,28.89-14.63,30.17-30.41a2.35,2.35,0,0,0-2.34-2.55Z"/><path class="cls-13" d="M385,73.71q-1.67-2.88-3.52-5.62-.62-.93-1.26-1.83c-.86-1.2-1.74-2.37-2.64-3.53h0c-.92-1.15-1.85-2.28-2.81-3.39q-2.16-2.51-4.51-4.84a91.58,91.58,0,0,0-64.95-26.91H205.57a91.76,91.76,0,0,0-29.46,4.83c-1.42.47-2.83,1-4.22,1.54s-2.76,1.13-4.11,1.73h0c-1.35.62-2.69,1.26-4,1.93h0a93.85,93.85,0,0,0-9.53,5.63s0,0,0,0a92.51,92.51,0,0,0-13.59,11.22q-2.35,2.34-4.51,4.84c-1,1.11-1.89,2.24-2.81,3.39h0c-.9,1.16-1.78,2.33-2.64,3.53q-.65.9-1.26,1.83-1.86,2.75-3.52,5.62a91.53,91.53,0,0,0-12.17,45.74v34.9a12.83,12.83,0,0,0,1.59,6.22,11.84,11.84,0,0,0,.66,1.07,12.49,12.49,0,0,0,1.16,1.45,6.25,6.25,0,0,0,.44.45,13,13,0,0,0,11.37,3.53l.46-.08q10.22-1.8,20.44-3.31l4.29-.62q13.23-1.87,26.44-3.25,15.23-1.6,30.49-2.54l3.61-.23,3.6-.19c2.35-.12,4.71-.23,7.06-.32q24.6-1,49.18-.38h0c1.07,0,2.15,0,3.23.08a721.17,721.17,0,0,1,79,6.83l.6.09,1.64.23c1.22.17,2.43.35,3.64.54q3.36.5,6.73,1l6.07,1,3.26.57,3.26.56a13.27,13.27,0,0,0,2.93.18c.22,0,.43,0,.65-.05l.33,0a12,12,0,0,0,2.16-.47c.4-.12.78-.26,1.16-.41l.6-.27a4.07,4.07,0,0,0,.55-.28c.19-.1.37-.2.54-.31a5.84,5.84,0,0,0,.53-.33l.5-.34.5-.39.47-.41a6,6,0,0,0,.45-.42c.15-.14.29-.29.44-.44l.19-.22c.21-.24.4-.48.6-.74s.39-.54.57-.82a11.92,11.92,0,0,0,1.07-2,6,6,0,0,0,.23-.59c.07-.19.13-.38.19-.57s.09-.3.13-.45a11.78,11.78,0,0,0,.25-1.18c0-.2.06-.4.08-.6a3.26,3.26,0,0,0,.05-.45,3,3,0,0,0,0-.42c0-.23,0-.45,0-.68v-34.9A91.53,91.53,0,0,0,385,73.71Zm-80.81,56.16a5.64,5.64,0,0,1-5.63,5.61H216.68a5.63,5.63,0,0,1-5.63-5.61V124a42,42,0,0,1,42-42h9.1a42,42,0,0,1,42,42Z"/><path class="cls-14" d="M218.27,135.47v21.37c-2.41.13-4.81.26-7.22.42v-27.4a5.62,5.62,0,0,0,5.63,5.61Z"/><path class="cls-14" d="M297,135.47v21.37c2.4.13,4.81.26,7.21.42v-27.4a5.62,5.62,0,0,1-5.63,5.61Z"/><circle class="cls-6" cx="230.02" cy="146" r="4.7"/><circle class="cls-6" cx="243.9" cy="146" r="4.7"/><circle class="cls-6" cx="257.62" cy="146" r="4.7"/><path class="cls-14" d="M283.2,146a12.3,12.3,0,0,1-5.46,10.24c-1.08,0-2.16-.07-3.23-.08a12.32,12.32,0,0,0-.61-20.68h3.37A12.29,12.29,0,0,1,283.2,146Z"/><path class="cls-14" d="M205.59,27.57S154.13,59,154.13,163.05q-12.62,1.8-25.2,4a12.94,12.94,0,0,1-15.22-12.72v-34.9A91.87,91.87,0,0,1,205.59,27.57Z"/><path class="cls-15" d="M305.29,27.57S356.75,59,356.75,163.05q12.62,1.8,25.2,4a12.94,12.94,0,0,0,15.22-12.72v-34.9A91.87,91.87,0,0,0,305.29,27.57Z"/><path class="cls-16" d="M257.62,474.19v6.87l-.07,0-.41-.15a42.36,42.36,0,0,1-12.54,2.4c-11.47.66-29.56-1.93-48.87-18.78a26,26,0,0,1-51.25-1.41,33.31,33.31,0,0,1-24.1-3.56,44.89,44.89,0,0,1-6.82-1.09h0q-2.85,3.17-5.51,6.47l-1.89-1.35q-1.92-1.38-3.81-2.81c.89-.72,1.39-1.08,1.39-1.08q.49-2.18,1.14-4.23h0a50.45,50.45,0,0,1,3.29-8.12v0c11.72-23.15,37.8-30.57,51.66-32.93l1.75-.28c1.5-.23,2.81-.39,3.89-.51h0c2.17-.23,3.42-.28,3.42-.28q.81,2.59,1.73,5c.81,2.2,1.7,4.32,2.64,6.35.39.83.77,1.63,1.17,2.44h0a81.24,81.24,0,0,0,4.67,8.12v0h0a78.34,78.34,0,0,0,16.26,18.05h0c16.81,13.63,36.53,18.39,49.19,20a90,90,0,0,0,13,.83Z"/><path class="cls-16" d="M411.4,459.44q-5.31,4.08-10.83,7.85-2.34-3-4.84-5.9l-1.51-1.73a33.28,33.28,0,0,1-23.86,3.43,26,26,0,0,1-51.33,1c-19.49,17.23-37.78,19.87-49.35,19.2a45.21,45.21,0,0,1-12.06-2.22l-.07,0v-6.84h.07a87.59,87.59,0,0,0,12.06-.73c12.52-1.52,32.57-6.11,49.68-19.8h0a79.55,79.55,0,0,0,21.32-26.43h0c.32-.68.66-1.34,1-2h0c.65-1.37,1.27-2.79,1.86-4.24q1.5-3.65,2.74-7.64s1.14,0,3.12.25h0c1.16.13,2.6.3,4.26.56l.85.13h0c13.57,2.18,40.3,9.39,52.35,32.75a51.58,51.58,0,0,1,3,7.13A55.05,55.05,0,0,1,411.4,459.44Z"/><path class="cls-3" d="M196.19,459.68a24.7,24.7,0,0,1-.46,4.82,26,26,0,0,1-51.25-1.41,33.31,33.31,0,0,1-24.1-3.56,33.78,33.78,0,0,1-4.77-3.35A33.25,33.25,0,0,1,156,403.43c.42.3.83.6,1.24.92a33.52,33.52,0,0,1,8.24,9.23,33.12,33.12,0,0,1,2.68,5.6A31.63,31.63,0,0,1,169.3,423c.18.77.34,1.54.47,2.33a33.44,33.44,0,0,1,.44,5.43c0,.84,0,1.67-.11,2.5a4.19,4.19,0,0,1,0,.5h.34a25.73,25.73,0,0,1,8.72,1.58h0a26,26,0,0,1,16.26,18.05h0A26,26,0,0,1,196.19,459.68Z"/><path class="cls-3" d="M411.12,430.71A33.08,33.08,0,0,1,406.87,447a33.54,33.54,0,0,1-11.71,12.13c-.31.18-.62.37-.94.54a33.28,33.28,0,0,1-23.86,3.43,26,26,0,0,1-51.33,1,25.79,25.79,0,0,1,.33-10.42,26,26,0,0,1,16.79-18.53,25.3,25.3,0,0,1,7.71-1.41c.26,0,.51,0,.77,0h.14q-.06-.66-.09-1.32c0-.56-.05-1.12-.05-1.68s0-1.08,0-1.62a33,33,0,0,1,.76-5.66c.1-.45.21-.89.33-1.33a32.91,32.91,0,0,1,3.63-8.55h0a33.25,33.25,0,0,1,8.7-9.56l.21-.16a33.24,33.24,0,0,1,52.81,26.88Z"/><path class="cls-10" d="M269.68,464.57v18.71a45.21,45.21,0,0,1-12.06-2.22l-.07,0-.41-.15a42.36,42.36,0,0,1-12.54,2.4V464.57Z"/><path class="cls-17" d="M358.31,403.83a9.17,9.17,0,0,1-.82,4.06c-1,2.18-2,4.29-3,6.35h0q-2.49,5.17-5.06,9.85-2,3.66-4,7c-.25.43-.5.85-.76,1.27s-.54.89-.82,1.33C335.65,447,327.23,456.83,319,464.08c-19.49,17.23-37.78,19.87-49.35,19.2a45.21,45.21,0,0,1-12.06-2.22l-.07,0-.41-.15a42.36,42.36,0,0,1-12.54,2.4c-11.47.66-29.56-1.93-48.87-18.78-8.36-7.3-16.95-17.26-25.32-30.8-.11-.16-.21-.32-.31-.49-.86-1.4-1.72-2.83-2.57-4.31-1.42-2.43-2.82-5-4.22-7.62-1.16-2.22-2.33-4.53-3.48-6.91q-1.53-3.15-3-6.48a9.23,9.23,0,0,1-.19-7.17,9.15,9.15,0,0,1,2.06-3.2c7.84-8,26-22.59,50.32-18.88L221,387.93l21.69,16.72,2.29,1.77a19.87,19.87,0,0,0,24.26,0l1.25-1,24.33-18.76h0l10.45-8.05c24.36-3.71,42.48,10.92,50.33,18.88a9.38,9.38,0,0,1,2.65,5.65h0C358.3,403.4,358.31,403.61,358.31,403.83Z"/><path class="cls-6" d="M248.44,15.26h14a8.92,8.92,0,0,1,8.92,8.92v.3a6.9,6.9,0,0,1-6.9,6.9h-18a6.9,6.9,0,0,1-6.9-6.9v-.3A8.92,8.92,0,0,1,248.44,15.26Z"/></g></svg>
