<svg xmlns="http://www.w3.org/2000/svg" xmlns:xlink="http://www.w3.org/1999/xlink" viewBox="0 0 218.16 226.23"><defs><style>.cls-1{fill:none;}.cls-2{isolation:isolate;}.cls-3{fill:#fae4d9;}.cls-4{clip-path:url(#clip-path);}.cls-5{fill:#8a6ba0;}.cls-13,.cls-6{fill:#919191;}.cls-11,.cls-6{mix-blend-mode:color-burn;}.cls-7{fill:#fbaea6;}.cls-8{fill:url(#linear-gradient);}.cls-9{fill:#fa6857;}.cls-10{fill:#fff;}.cls-12{fill:#e8e8e8;}.cls-14{fill:url(#linear-gradient-2);}.cls-15{fill:url(#linear-gradient-3);}.cls-16{fill:#fb968b;}.cls-17{fill:url(#linear-gradient-4);}.cls-18{fill:#fce096;}</style><clipPath id="clip-path"><circle class="cls-1" cx="109.08" cy="109.08" r="109.08" transform="translate(-45.18 109.08) rotate(-45)"/></clipPath><linearGradient id="linear-gradient" x1="123.8" y1="121.99" x2="123.8" y2="145.66" gradientUnits="userSpaceOnUse"><stop offset="0" stop-color="#ff6a59"/><stop offset="1" stop-color="#fff" stop-opacity="0"/></linearGradient><linearGradient id="linear-gradient-2" x1="100.97" y1="67.98" x2="86.73" y2="77.9" gradientUnits="userSpaceOnUse"><stop offset="0" stop-color="#2ebac4"/><stop offset="0.11" stop-color="#2492a8"/><stop offset="0.26" stop-color="#19678b"/><stop offset="0.41" stop-color="#104372"/><stop offset="0.55" stop-color="#09275f"/><stop offset="0.7" stop-color="#041451"/><stop offset="0.85" stop-color="#010849"/><stop offset="1" stop-color="#000446"/></linearGradient><linearGradient id="linear-gradient-3" x1="75.14" y1="68.42" x2="61.78" y2="77.72" xlink:href="#linear-gradient-2"/><linearGradient id="linear-gradient-4" x1="68.94" y1="92.49" x2="78.35" y2="71.73" xlink:href="#linear-gradient"/></defs><g class="cls-2"><g id="Слой_2" data-name="Слой 2"><g id="Layer_1" data-name="Layer 1"><circle class="cls-3" cx="109.08" cy="109.08" r="109.08" transform="translate(-45.18 109.08) rotate(-45)"/><g class="cls-4"><path class="cls-5" d="M125.75,125.73c-8.41,0-15.23,2.6-15.23,5.82s5.82,8.82,14.23,8.82,16.23-5.6,16.23-8.82S134.16,125.73,125.75,125.73Z"/><path class="cls-6" d="M125.75,125.73c-8.41,0-15.23,2.6-15.23,5.82s5.82,8.82,14.23,8.82,16.23-5.6,16.23-8.82S134.16,125.73,125.75,125.73Z"/><path class="cls-5" d="M153.23,145.73l-12.91-2-5.76-.91H113.39a10.77,10.77,0,0,0-3.6.18c-2.62.36-6.44,1.07-10.87,2-17.18,3.48-43.42,9.82-43.42,9.82L33.14,201.52l71.76,16.35,4,.92,12.81,2.92,76.8-19.7-16.25-51.69Z"/><path class="cls-6" d="M122.42,151.39,109.79,143l-10.87,2c5.94,4.25,16.93,13.27,16.93,13.27l-4.07,8.32-1.26,14.16-5.62,37.19,4,.92,1.57-16.1L113.77,175l6-17.39s23.74-8.51,33.41-11.9l-12.91-2Z"/><path class="cls-7" d="M132,100.34l-21,2.51s8.67,19.54,4.59,38.38c-.73,3.4,22.66.58,21-2.52C130.15,127,132,100.34,132,100.34Z"/><path class="cls-8" d="M132,100.34l-21,2.51s8.67,19.54,4.59,38.38c-.73,3.4,22.66.58,21-2.52C130.15,127,132,100.34,132,100.34Z"/><path class="cls-7" d="M107.6,31.57c-15.93,0-35.35,10.31-46.52,37.66Q60,71.87,59.14,74.71c-.41,1.32-.78,2.66-1.11,4A88.41,88.41,0,0,0,55.5,100c0,20.5,7.09,39.49,22,39.49,22.68,0,63.64-28.75,63.64-57.22,0-13.14-2.32-24.94-7-33.84C128.61,38,119.82,31.57,107.6,31.57Z"/><path class="cls-6" d="M100.74,70a11.67,11.67,0,0,0-2.82-2.22A8.38,8.38,0,0,0,93,66.61a4.32,4.32,0,0,0-2.52,1.16,12.48,12.48,0,0,0-3.83,8.09,3.62,3.62,0,0,0,.53,2.53c.81,1,2.27,1,3.58.92l.4,0a40.84,40.84,0,0,1,8.7-.23,15.65,15.65,0,0,1,7.68,2.7c-1.73-2.12-2.67-5.72-4.09-8.06A22,22,0,0,0,100.74,70Z"/><path class="cls-9" d="M115.88,54.78c-3.2,6.46,1.05,16.38,7.09,19.44,1.59.81,3.46,1.42,4.33,3,1.41,2.52,10.06,7.47,10.91,10.24.81,2.61-6,13.12-8.85,16.65-2.59,3.23-5.81,6.77-10,6.62-4.64-.16-7.61-4.73-10.86-8A27.08,27.08,0,0,0,101,97.32c-7.28-3.55-16.11-4.3-24.36-3.88-7.51.38-15.44,1.74-21.16,6.55a82.07,82.07,0,0,0,.48,9c1.79,16.61,8.7,30.3,21.2,30.53h.64c22.74-.25,63.33-28.87,63.33-57.21,0-13.14-2.32-24.94-7-33.84C127.73,48.24,118.69,49.14,115.88,54.78Z"/><path class="cls-10" d="M62,104.86a1.86,1.86,0,0,0-1.2,2.07c5.82,1.26,10,6.73,15.86,7.95a11.65,11.65,0,0,0,13.73-8.78A12.36,12.36,0,0,0,85,103,33.81,33.81,0,0,0,62,104.86Z"/><g class="cls-11"><path class="cls-12" d="M146.52,69a11.65,11.65,0,1,0,5,15.7A11.66,11.66,0,0,0,146.52,69Z"/></g><path class="cls-7" d="M145.32,65.57a11.65,11.65,0,1,0,5,15.69A11.64,11.64,0,0,0,145.32,65.57Z"/><g class="cls-11"><path class="cls-13" d="M143.79,71.37a5.79,5.79,0,0,0-7.09,1.43,5.79,5.79,0,0,1,2.36,7.73,5.86,5.86,0,0,1-.71,1c.05,0,.08.06.13.08a5.79,5.79,0,1,0,5.31-10.29Z"/></g><path class="cls-9" d="M128.33,28.78c-9-5.78-20.85-3-31.17-5.63-4.74-1.23-9.1-3.6-13.71-5.22s-9.83-2.44-14.33-.51c-14.14,6.06-6.06,26,4.81,30.29,7.59,3,16,2.54,24.2,3.22s17,3.08,21.57,9.83c1.38,2,2.52,4.55,4.84,5.37,5.35,1.9,10.32-7,15.56-4.81-.16-6-.32-12.1-1.92-17.9S133.38,32.05,128.33,28.78Z"/><path class="cls-6" d="M128.33,28.78c-9-5.78-20.85-3-31.17-5.63-4.74-1.23-9.1-3.6-13.71-5.22s-9.83-2.44-14.33-.51c-14.14,6.06-6.06,26,4.81,30.29,7.59,3,16,2.54,24.2,3.22s17,3.08,21.57,9.83c1.38,2,2.52,4.55,4.84,5.37,5.35,1.9,10.32-7,15.56-4.81-.16-6-.32-12.1-1.92-17.9S133.38,32.05,128.33,28.78Z"/><path class="cls-9" d="M108.07,70.33l1.2.29a9.85,9.85,0,0,1-1.87-2.57,1.1,1.1,0,0,0,.8,0,17.1,17.1,0,0,0-2.47-3l.81.52A18.8,18.8,0,0,0,102.62,62l1.69.35a9.74,9.74,0,0,0-3.45-1.8l1.15-.63a25,25,0,0,0-4.71-.63L98.12,58a4.61,4.61,0,0,0-3.63-.42c2.2-2.42-1.81-1.64-1.86-1,.06-.91.13-1.82.19-2.73a29.74,29.74,0,0,0-1.69,3.39A10.67,10.67,0,0,0,89.87,54c.12,3.08.23,6.17.07,9.25l.13-.23c3.45-.84,7,.87,10.11,2.53a36.67,36.67,0,0,1,6,3.65,12.42,12.42,0,0,1,4.14,5.53A6.24,6.24,0,0,0,108.07,70.33Z"/><g class="cls-11"><path class="cls-13" d="M108.07,70.33l1.2.29a9.85,9.85,0,0,1-1.87-2.57,1.1,1.1,0,0,0,.8,0,17.1,17.1,0,0,0-2.47-3l.81.52A18.8,18.8,0,0,0,102.62,62l1.69.35a9.74,9.74,0,0,0-3.45-1.8l1.15-.63a25,25,0,0,0-4.71-.63L98.12,58a4.61,4.61,0,0,0-3.63-.42c2.2-2.42-1.81-1.64-1.86-1,.06-.91.13-1.82.19-2.73a29.74,29.74,0,0,0-1.69,3.39A10.67,10.67,0,0,0,89.87,54c.12,3.08.23,6.17.07,9.25l.13-.23c3.45-.84,7,.87,10.11,2.53a36.67,36.67,0,0,1,6,3.65,12.42,12.42,0,0,1,4.14,5.53A6.24,6.24,0,0,0,108.07,70.33Z"/></g><path class="cls-9" d="M76,54.57c0,.84-.05,1.68-.07,2.51,0-.61-3.59-1.69-1.79.72a4.22,4.22,0,0,0-3.36.07l.64,1.23a23.64,23.64,0,0,0-4.37.16l1,.68a9,9,0,0,0-3.31,1.33l1.58-.17a17.49,17.49,0,0,0-3.92,3l.79-.4a15.61,15.61,0,0,0-2.53,2.48,1,1,0,0,0,.74,0,9.44,9.44,0,0,1-1.94,2.19l1.12-.16a5.7,5.7,0,0,0-2.42,3.79,11.31,11.31,0,0,1,4.28-4.69,34,34,0,0,1,5.79-2.8c3-1.24,6.39-2.49,9.47-1.4l.1.22c.13-2.83.51-5.65.89-8.45a9.92,9.92,0,0,0-1.44,2.87A29,29,0,0,0,76,54.57Z"/><g class="cls-11"><path class="cls-13" d="M76,54.57c0,.84-.05,1.68-.07,2.51,0-.61-3.59-1.69-1.79.72a4.22,4.22,0,0,0-3.36.07l.64,1.23a23.64,23.64,0,0,0-4.37.16l1,.68a9,9,0,0,0-3.31,1.33l1.58-.17a17.49,17.49,0,0,0-3.92,3l.79-.4a15.61,15.61,0,0,0-2.53,2.48,1,1,0,0,0,.74,0,9.44,9.44,0,0,1-1.94,2.19l1.12-.16a5.7,5.7,0,0,0-2.42,3.79,11.31,11.31,0,0,1,4.28-4.69,34,34,0,0,1,5.79-2.8c3-1.24,6.39-2.49,9.47-1.4l.1.22c.13-2.83.51-5.65.89-8.45a9.92,9.92,0,0,0-1.44,2.87A29,29,0,0,0,76,54.57Z"/></g><path class="cls-9" d="M76.66,93.44c-7.51.38-15.44,1.74-21.16,6.55a82.07,82.07,0,0,0,.48,9,37.2,37.2,0,0,1,17.45-4.65c6.92-.14,17.94,1.68,22.79,6.67,2.11-5.63,3.15-6.66,4.58-12.57.08-.35.16-.71.22-1.07C93.74,93.77,84.91,93,76.66,93.44Z"/><path class="cls-6" d="M76.66,93.44c-7.51.38-15.44,1.74-21.16,6.55a82.07,82.07,0,0,0,.48,9,37.2,37.2,0,0,1,17.45-4.65c6.92-.14,17.94,1.68,22.79,6.67,2.11-5.63,3.15-6.66,4.58-12.57.08-.35.16-.71.22-1.07C93.74,93.77,84.91,93,76.66,93.44Z"/><path class="cls-10" d="M71.13,23.16a20.46,20.46,0,0,1,4.81-3.66,14.73,14.73,0,0,0-5.36,3.11A10.76,10.76,0,0,0,67.36,28a8.11,8.11,0,0,0,.94,6.25,6.48,6.48,0,0,0,5.25,3.11A7,7,0,0,1,69,33.88a7.9,7.9,0,0,1-.64-5.63A11.19,11.19,0,0,1,71.13,23.16Z"/><path class="cls-10" d="M77.8,24.63A14.6,14.6,0,0,1,81.27,22a10.66,10.66,0,0,0-3.86,2.24,7.67,7.67,0,0,0-2.33,3.91,5.76,5.76,0,0,0,.68,4.51,5.59,5.59,0,0,0,1.63,1.62,4.29,4.29,0,0,0,2.15.63,5,5,0,0,1-3.3-2.53,5.66,5.66,0,0,1-.46-4.06A8.1,8.1,0,0,1,77.8,24.63Z"/><path class="cls-10" d="M99.74,69a11.67,11.67,0,0,0-2.82-2.22A8.38,8.38,0,0,0,92,65.61a4.32,4.32,0,0,0-2.52,1.16,12.48,12.48,0,0,0-3.83,8.09,3.62,3.62,0,0,0,.53,2.53c.81,1,2.27,1,3.58.92l.4,0a40.84,40.84,0,0,1,8.7-.23,15.65,15.65,0,0,1,7.68,2.7c-1.73-2.12-2.67-5.72-4.09-8.06A22,22,0,0,0,99.74,69Z"/><path class="cls-10" d="M73.47,66.48a4.35,4.35,0,0,0-3.28-1.13,8.55,8.55,0,0,0-3.74,1.13,10.1,10.1,0,0,0-1.48,1,13.56,13.56,0,0,0-1.35,1.28,18.69,18.69,0,0,0-1.23,1.53c-.41.57-.8,1.17-1.17,1.78A22.86,22.86,0,0,0,59.81,75c-.38,1.25-.73,2.51-1,3.81A15.3,15.3,0,0,1,64,77.2a37.13,37.13,0,0,1,8.81.15,7.48,7.48,0,0,0,1,.07,3.2,3.2,0,0,0,2.8-.91,3.35,3.35,0,0,0,.5-2.39A11.86,11.86,0,0,0,73.47,66.48Z"/><path class="cls-6" d="M72.86,67.55a4.35,4.35,0,0,0-3.28-1.13,8.55,8.55,0,0,0-3.74,1.13,10.1,10.1,0,0,0-1.48,1A13.56,13.56,0,0,0,63,69.83a18.69,18.69,0,0,0-1.23,1.53c-.41.57-.8,1.17-1.17,1.78a22.86,22.86,0,0,0-1.41,2.93c-.38,1.25-.73,2.51-1,3.81a15.3,15.3,0,0,1,5.24-1.61,37.13,37.13,0,0,1,8.81.15,7.48,7.48,0,0,0,1,.07,3.2,3.2,0,0,0,2.8-.91,3.35,3.35,0,0,0,.5-2.39A11.86,11.86,0,0,0,72.86,67.55Z"/><path class="cls-14" d="M96.92,66.76A8.38,8.38,0,0,0,92,65.61l.42,1.53.67,2.46-2.06-1.48-1-.74a10.81,10.81,0,0,0-1.56,5.15,10.37,10.37,0,0,0,1.34,5.78l.4,0a40.84,40.84,0,0,1,8.7-.23,10.63,10.63,0,0,0,1.42-4.93A11.21,11.21,0,0,0,99.74,69,11.67,11.67,0,0,0,96.92,66.76Z"/><path class="cls-15" d="M72.19,66.88a6.42,6.42,0,0,0-2-1.53,8.55,8.55,0,0,0-3.74,1.13,10.1,10.1,0,0,0-1.48,1l0,.08,1.31,2.18L64,68.88l-.33-.12a18.69,18.69,0,0,0-1.23,1.53,11.64,11.64,0,0,0,.24,3.54A10.91,10.91,0,0,0,64,77.2a37.13,37.13,0,0,1,8.81.15,7.48,7.48,0,0,0,1,.07,10.23,10.23,0,0,0,.43-6.25A9.42,9.42,0,0,0,72.19,66.88Z"/><path class="cls-16" d="M82.67,69.92a7.75,7.75,0,0,0-1.49-4,2.61,2.61,0,0,0-3.74-.18,24.14,24.14,0,0,1,1.65,6.15,8.14,8.14,0,0,1-1.67,6,12.26,12.26,0,0,1-4.3,2.76L62.89,85.34c-1.71.78-3.67,1.89-3.82,3.77a3.27,3.27,0,0,0,1.38,2.76,5.47,5.47,0,0,0,3,1C67,93,70.21,91,73.09,88.91s5.91-4.25,9.44-4.5c.63.45,1.77-.22,2.08-.94a4.08,4.08,0,0,0,0-2.3Q83.67,75.55,82.67,69.92Z"/><path class="cls-17" d="M82.67,69.92a7.75,7.75,0,0,0-1.49-4,2.61,2.61,0,0,0-3.74-.18,24.14,24.14,0,0,1,1.65,6.15,8.14,8.14,0,0,1-1.67,6,12.26,12.26,0,0,1-4.3,2.76L62.89,85.34c-1.71.78-3.67,1.89-3.82,3.77a3.27,3.27,0,0,0,1.38,2.76,5.47,5.47,0,0,0,3,1C67,93,70.21,91,73.09,88.91s5.91-4.25,9.44-4.5c.63.45,1.77-.22,2.08-.94a4.08,4.08,0,0,0,0-2.3Q83.67,75.55,82.67,69.92Z"/><g class="cls-11"><path class="cls-13" d="M68.7,91.27a11.92,11.92,0,0,1-3.61,1.12,6.82,6.82,0,0,1-3.62-.4,3.14,3.14,0,0,1-2-2.59,3.31,3.31,0,0,1,1.84-2.73A28.16,28.16,0,0,1,64.78,85l7.11-3.2c1.18-.54,2.37-1.05,3.55-1.71a7.79,7.79,0,0,0,3-2.78,8.35,8.35,0,0,0,1.11-3.93,13.58,13.58,0,0,0-.48-4L79,69.21c-.15-.21-.31-.42-.45-.64A10,10,0,0,1,78,67.48l-.23-.24c-.16-.16-.29-.34-.44-.51a17.21,17.21,0,0,1,1.31,6.59,7.45,7.45,0,0,1-1,3.5A6.73,6.73,0,0,1,75,79.23c-1.09.61-2.31,1.1-3.48,1.65l-3.54,1.63-3.55,1.63a30.06,30.06,0,0,0-3.54,1.78,5.78,5.78,0,0,0-1.55,1.42,3.25,3.25,0,0,0-.66,2.1,3.89,3.89,0,0,0,2.51,3.29,7.57,7.57,0,0,0,4,.36A12.68,12.68,0,0,0,69,91.82a51.29,51.29,0,0,0,6.51-4.36,15.33,15.33,0,0,1,7-3,14.89,14.89,0,0,0-7.25,2.75A63.15,63.15,0,0,1,68.7,91.27Z"/><path class="cls-13" d="M84.38,80.39a8.15,8.15,0,0,1,.3,2.53,1.75,1.75,0,0,1-.74,1.25,1.3,1.3,0,0,1-1.41.24A1.33,1.33,0,0,0,84,84.24,1.88,1.88,0,0,0,84.85,83a6.44,6.44,0,0,0-.11-2.06C84.61,80.72,84.5,80.56,84.38,80.39Z"/></g><polygon class="cls-5" points="110.52 130.73 109.79 142.96 122.42 151.39 140.98 143.79 140.98 130.73 122.41 143.5 110.52 130.73"/><path class="cls-18" d="M122.41,142.37a2,2,0,1,0,2,2A2,2,0,0,0,122.41,142.37Z"/><path class="cls-18" d="M117.84,159.2a2,2,0,1,0,2,2A2,2,0,0,0,117.84,159.2Z"/><path class="cls-18" d="M111.79,180.21a2,2,0,1,0,2,2A2,2,0,0,0,111.79,180.21Z"/><path class="cls-18" d="M108.54,200.7a2,2,0,1,0,2,2A2,2,0,0,0,108.54,200.7Z"/><path class="cls-6" d="M157.16,144.38l.09,0S157.24,144.35,157.16,144.38Z"/><polygon class="cls-6" points="60.71 218.79 60.71 172.85 42.98 218.79 60.71 218.79"/><polygon class="cls-6" points="166.65 224.45 178.66 226.23 166.65 186.64 166.65 224.45"/></g></g></g></g></svg>
