<?xml version="1.0" encoding="iso-8859-1"?>
<!-- Uploaded to: SVG Repo, www.svgrepo.com, Generator: SVG Repo Mixer Tools -->
<svg height="800px" width="800px" version="1.1" id="Layer_1" xmlns="http://www.w3.org/2000/svg" xmlns:xlink="http://www.w3.org/1999/xlink"
	 viewBox="0 0 508 508" xml:space="preserve">
<path style="fill:#FD8469;" d="M508,254c0,140.4-113.6,254-254,254S0,394.4,0,254S113.6,0,254,0c110.8,0,204.8,70.8,239.6,169.6
	c7.6,21.2,12,43.6,13.6,66.8C508,242.4,508,248,508,254z"/>
<path style="fill:#324A5E;" d="M416,282.8c14.4,6.4,18.8,22,10,35.2c-8.4,12.8-26,19.2-40.8,14.8c9.6,10,7.2,25.2-5.6,34.4
	c-12.4,9.2-30,9.2-40.8,1.2c4,12-4,24.8-18.8,29.2c-14.4,4.8-30.4-0.4-36.8-11.2c-1.2,12-14,21.6-29.2,21.6
	c-15.2,0-28-9.2-29.2-21.6c-6.4,10.8-22.4,16-36.8,11.2c-14.8-4.8-22.8-17.6-18.8-29.2c-10.8,8.4-28.8,8-40.8-1.2
	c-12.4-9.2-14.8-24-5.6-34.4c-14.8,4.4-32.4-2-40.8-14.8c-8.4-13.2-4-28.8,10-35.2C74.8,282,59.2,269.6,56.8,254
	c-2.8-16,9.2-29.6,26.8-30.4C66.4,216.4,56,198.4,60.4,182c4.4-16.8,23.2-25.2,41.6-19.2c-14.4-14-16.8-35.6-4.4-49.6
	c12.4-14.4,34.8-14.8,50.8-1.6c-8-18.8-0.8-40.8,17.6-48.8c18.4-8.4,40.8,0.4,50,19.6c0.8-20.8,17.2-38,38-38s37.2,17.2,38,38
	c9.6-18.8,31.6-27.6,50-19.6c18.4,8.4,25.6,30,17.6,48.8c16-13.2,38.4-12.8,50.8,1.6c12,14,9.6,35.6-4.4,49.6
	c18.4-6,37.2,2.4,41.6,19.2c4.4,16.4-6,34.4-23.2,41.6C442,224.8,454,238,451.2,254C448.4,269.6,432.8,282,416,282.8z"/>
<path style="fill:#FFD05B;" d="M254,464L254,464c-61.6,0-111.6-50-111.6-111.6v-85.6c0-61.6,50-111.6,111.6-111.6l0,0
	c61.6,0,111.6,50,111.6,111.6v85.6C365.6,414,315.6,464,254,464z"/>
<path style="fill:#FFFFFF;" d="M312,414.4c-35.2,22-80.4,22-115.6,0c-12-7.6-15.2-21.2-8.8-27.2l0,0c6.4-6,17.2-4.8,25.6,0
	c25.2,15.6,57.2,15.6,82.4,0c8-4.8,19.2-6,25.6,0l0,0C327.2,393.2,324,406.8,312,414.4z"/>
<path style="fill:#FF7058;" d="M254,422.4c-16,0-31.2-4.8-44.4-12.8c-9.6-5.6-6.8-11.2-6.4-11.6c2.4-2.8,6.8-3.2,13.2,0.8
	c11.2,7.2,24.4,10.8,38,10.8c13.6,0,26.4-4,38-10.8c7.6-4.4,10.4-2.8,12.8-0.8c0.4,0.4,3.2,6-6.4,11.6
	C285.2,418,270,422.4,254,422.4z"/>
<path style="fill:#FFFFFF;" d="M295.6,253.2c0,0,48.8,24.4,11.2,63.2c-3.2,3.2-1.2,8.4,3.2,8.8c8.8,0.8,14.4,5.6-9.2,26
	C260,386,235.2,233.2,295.6,253.2z"/>
<g>
	<path style="fill:#324A5E;" d="M320.8,290c-3.2-18-26.4-28.4-26.4-28.4c-16.8-5.2-27.2,1.2-32.8,12.8c4.4-16.8,14.8-27.6,33.6-21.2
		C295.6,253.2,322.8,266.8,320.8,290z"/>
	<circle style="fill:#324A5E;" cx="286.8" cy="297.6" r="13.2"/>
</g>
<g>

		<ellipse transform="matrix(0.7072 -0.707 0.707 0.7072 -123.8811 283.9995)" style="fill:#FFFFFF;" cx="280.946" cy="291.567" rx="3.2" ry="1.6"/>
	<path style="fill:#FFFFFF;" d="M212.4,253.2c0,0-48.8,24.4-11.2,63.2c3.2,3.2,1.2,8.4-3.2,8.8c-8.8,0.8-14.4,5.6,9.2,26
		C248,386,272.8,233.2,212.4,253.2z"/>
</g>
<g>
	<path style="fill:#324A5E;" d="M187.2,290c3.2-18,26.4-28.4,26.4-28.4c16.8-5.2,27.2,1.2,32.8,12.8c-4.4-16.8-14.8-27.6-33.6-21.2
		C212.4,253.2,185.2,266.8,187.2,290z"/>
	<circle style="fill:#324A5E;" cx="221.2" cy="297.6" r="13.2"/>
</g>
<ellipse transform="matrix(0.7072 0.707 -0.707 0.7072 272.9704 -75.0707)" style="fill:#FFFFFF;" cx="227.122" cy="292.035" rx="3.2" ry="1.6"/>
<circle style="fill:#FF7058;" cx="254" cy="365.6" r="36.4"/>
<ellipse transform="matrix(0.7072 -0.7071 0.7071 0.7072 -177.2978 270.2236)" style="fill:#FFFFFF;" cx="237.572" cy="349.151" rx="9.201" ry="4.4"/>
</svg>
