<svg xmlns="http://www.w3.org/2000/svg" viewBox="0 0 512 512"><defs><style>.cls-1{fill:#7cc8fb;}.cls-2{fill:#6cb7e0;}.cls-3{fill:#27273d;}.cls-4{fill:#fab3a7;}.cls-5{fill:#f58d89;}.cls-6,.cls-9{fill:none;stroke-linecap:round;stroke-miterlimit:10;stroke-width:7px;}.cls-6{stroke:#27273d;}.cls-7{fill:#dd7c7c;}.cls-8{fill:#32314b;}.cls-9{stroke:#f58d89;}.cls-10{fill:#ddd;}.cls-11{fill:#f6c752;}.cls-12{fill:#fff;}</style></defs><title>Avatar Users2</title><g id="BULINE"><circle class="cls-1" cx="256" cy="256" r="256"/></g><g id="Icons"><path class="cls-2" d="M484.77,371a257.23,257.23,0,0,1-86.39,97.78l-.19.13q-4,2.67-8.09,5.19-2.18,1.33-4.38,2.63A253.9,253.9,0,0,1,313,505.61a1.14,1.14,0,0,1-.25.06q-7.27,1.66-14.7,2.88a258.65,258.65,0,0,1-84.33,0q-7.3-1.21-14.47-2.84l-.24-.05a254.77,254.77,0,0,1-79.42-33c-2-1.3-4.09-2.62-6.1-4s-3.75-2.55-5.59-3.87l-.72-.51a256.92,256.92,0,0,1-80-93.3A257.1,257.1,0,0,1,132.28,261.83l.08-.05a254.2,254.2,0,0,1,48.2-20.48c1.37-.43,2.75-.84,4.14-1.24q7.25-2.1,14.67-3.78,8.16-1.83,16.5-3.15a258.68,258.68,0,0,1,90.23,1.77q10.68,2.11,21,5.12A256.32,256.32,0,0,1,484.77,371Z"/><path class="cls-3" d="M392.12,134.76l-.34,9.78-1.87,53.64v0l-.9,26.12H121.22l-.92-26.71-1.82-52.39-.36-10.46A109,109,0,0,1,227,22h56.18A109,109,0,0,1,392.12,134.76Z"/><path class="cls-4" d="M398.38,468.78l-.19.13q-4,2.67-8.09,5.19-2.18,1.33-4.38,2.63A253.9,253.9,0,0,1,313,505.61a1.14,1.14,0,0,1-.25.06q-7.27,1.66-14.7,2.88a258.65,258.65,0,0,1-84.33,0q-7.3-1.21-14.47-2.84l-.24-.05a254.77,254.77,0,0,1-79.42-33c-2-1.3-4.09-2.62-6.1-4s-3.75-2.55-5.59-3.87c.53-.69,1.07-1.36,1.62-2s1.16-1.43,1.74-2.13a148.5,148.5,0,0,1,10.26-11.1c.53-.52,1.08-1.05,1.62-1.55s1-1,1.6-1.49,1-.94,1.51-1.4,1.29-1.15,1.94-1.71c.45-.4.91-.78,1.37-1.17s1-.81,1.42-1.2,1.13-.93,1.71-1.38l1.9-1.51,1-.73,1.81-1.36c.81-.61,1.62-1.2,2.44-1.78a.15.15,0,0,1,.07,0c.77-.55,1.54-1.09,2.33-1.62,1.05-.74,2.11-1.44,3.19-2.13.71-.48,1.43-.94,2.16-1.4,1.72-1.09,3.46-2.15,5.26-3.18h0l.15-.08c.76-.43,1.53-.87,2.3-1.29l.71-.39.66-.36c.8-.45,1.6-.88,2.41-1.3,1.22-.65,2.46-1.28,3.71-1.89l.35-.17,2.29-1.12.36-.16c.37-.16.76-.34,1.2-.51,1.41-.56,3.18-1.14,5.19-1.76l.57-.18.46-.13,1.06-.32c.9-.27,1.84-.54,2.81-.81l3.79-1.06.07,0,2.39-.67,2.44-.68c2.46-.69,5-1.4,7.44-2.14h0c8.67-2.6,16.88-5.46,20.84-8.52a11.38,11.38,0,0,0,1.41-1.31c7.28-8.43,3.9-23.54,3.9-34.48,0-.7,0-1.38,0-2,0-1.72,0-3.31-.07-4.76v-.11c-.56-22.58-3.12-15.64,16-22.06a30.28,30.28,0,0,1,4.86-.78c1.29-.15,2.77-.3,4.4-.44h0c6.48-.55,15.32-1,23.64-1.13h0c11.37-.15,21.77.4,23.87,2.35,3.72,3.47,3.6,11.44,2.6,20.37,0,.05,0,.09,0,.14-.23,2.1-.52,4.26-.8,6.42-1.37,10.12-2.94,20.38-.73,26a29.1,29.1,0,0,0,7.05,10.86h0c7.88,7.46,19.26,9,32,14.77l.87.38c.79.36,1.56.75,2.36,1.13l.21.1.22.1,2.75,1.36c1.82.92,3.6,1.85,5.36,2.8.87.47,1.74,1,2.6,1.44q4.05,2.28,7.86,4.69l.61.4s0,0,0,0c.63.39,1.25.79,1.87,1.2l0,0,1.55,1,1.55,1.05c1,.71,2.05,1.42,3.05,2.14s2,1.46,3,2.19,1.94,1.48,2.89,2.24c1.76,1.39,3.49,2.8,5.17,4.24.18.17.36.31.54.46.85.76,1.69,1.5,2.51,2.25s1.74,1.59,2.6,2.4,1.7,1.61,2.52,2.43,1.54,1.55,2.3,2.33c1,1,1.9,2,2.83,3,.68.75,1.36,1.49,2,2.24s1.43,1.63,2.12,2.45l.16.18c.72.86,1.44,1.72,2.14,2.6s1.42,1.77,2.12,2.67c.55.71,1.1,1.43,1.63,2.14C397.9,468.13,398.14,468.45,398.38,468.78Z"/><path class="cls-4" d="M381.54,157v85.33c0,63.66-50.67,84.05-87.6,116.42a56.84,56.84,0,0,1-75.72,0c-36.93-32.37-87.6-52.76-87.6-116.42V157c0-.28,0-.58,0-.86.29-44.54,24.19-83.12,59.08-102.36,1.13-.63,2.28-1.24,3.44-1.82a103.66,103.66,0,0,1,42.49-11.13c1.51-.08,3-.11,4.55-.11H272a105.32,105.32,0,0,1,69.66,26.53A109.16,109.16,0,0,1,350,75.38a119.22,119.22,0,0,1,31.35,75.1v0C381.48,152.65,381.54,154.8,381.54,157Z"/><path class="cls-5" d="M180.56,242.31V157C180.56,96,224.73,46,281,41.11c-3-.28-6.07-.41-9.16-.41H240.07C179.55,40.7,130.5,92.77,130.5,157v42.24a25.11,25.11,0,1,0,0,50.21h.24c3.64,58.11,51.82,78.18,87.34,109.3,18,15.78,42.53,18.65,62.9,8.58a58.28,58.28,0,0,1-12.84-8.58C231.21,326.37,180.56,306,180.56,242.31Z"/><circle class="cls-4" cx="381.4" cy="224.32" r="25.11"/><path class="cls-6" d="M164.24,189.84s31.65-17.63,59,0"/><ellipse class="cls-3" cx="193.31" cy="221.3" rx="10.49" ry="15.1"/><path class="cls-6" d="M286.17,189.84s31.65-17.63,59,0"/><ellipse class="cls-3" cx="315.23" cy="221.3" rx="10.49" ry="15.1"/><rect class="cls-5" x="237.84" y="249.43" width="36.47" height="13.83" rx="6.34"/><path class="cls-6" d="M174.23,210.17s18.12-11.44,38.15,0"/><path class="cls-6" d="M296.16,210.17s18.12-11.44,38.15,0"/><path class="cls-7" d="M131.21,214.34a10,10,0,0,0,0,20Z"/><path class="cls-5" d="M381.4,234.31a10,10,0,1,0,0-20Z"/><path class="cls-3" d="M398.38,468.78l-.19.13q-4,2.67-8.09,5.19-2.18,1.33-4.38,2.63A253.9,253.9,0,0,1,313,505.61a1.14,1.14,0,0,1-.25.06q-7.27,1.66-14.7,2.88a258.65,258.65,0,0,1-84.33,0q-7.3-1.21-14.47-2.84l-.24-.05a254.77,254.77,0,0,1-79.42-33c-2-1.3-4.09-2.62-6.1-4s-3.75-2.55-5.59-3.87c.53-.69,1.07-1.36,1.62-2s1.16-1.43,1.74-2.13a148.5,148.5,0,0,1,10.26-11.1c.53-.52,1.08-1.05,1.62-1.55s1-1,1.6-1.49,1-.94,1.51-1.4,1.29-1.15,1.94-1.71c.45-.4.91-.78,1.37-1.17s1-.81,1.42-1.2,1.13-.93,1.71-1.38l1.9-1.51,1-.73,1.81-1.36c.81-.61,1.62-1.2,2.44-1.78a.15.15,0,0,1,.07,0c.77-.55,1.54-1.09,2.33-1.62,1.05-.74,2.11-1.44,3.19-2.13.71-.48,1.43-.94,2.16-1.4,1.72-1.07,3.46-2.14,5.26-3.17h0l.15-.1c.5-.29,1-.57,1.51-.84.26-.16.53-.31.79-.45l.71-.39.66-.36c.8-.45,1.6-.88,2.41-1.3,1.22-.65,2.46-1.28,3.71-1.89l.35-.17,2.29-1.12.36-.16,1.2-.51c1.41-.56,3.18-1.14,5.19-1.76l.57-.18.46-.13,1.06-.32c.9-.27,1.84-.54,2.81-.81l3.79-1.06.07,0,2.39-.67,2.44-.68c2.46-.69,5-1.4,7.44-2.14h0l44.06,43.94,12.68-4.39,1.22-.42,5.12-1.79h0l.61-.21h0l8.64,6.81,43.1-19.22L330.37,421h0l5.06-3.38.21.1.22.1,2.75,1.36c1.82.92,3.6,1.85,5.36,2.8.87.47,1.74,1,2.6,1.44q4.05,2.28,7.86,4.69h0c.21.14.43.27.64.42.63.39,1.25.79,1.87,1.2l0,0,1.55,1,1.55,1.05c1,.71,2.05,1.42,3.05,2.14s2,1.46,3,2.19,1.94,1.48,2.89,2.24c1.76,1.39,3.49,2.8,5.17,4.24.18.17.36.31.54.46.85.76,1.69,1.5,2.51,2.25s1.74,1.59,2.6,2.4,1.7,1.61,2.52,2.43,1.54,1.55,2.3,2.33c1,1,1.9,2,2.83,3,.68.75,1.36,1.49,2,2.24s1.43,1.63,2.12,2.45l.16.18c.72.86,1.44,1.72,2.14,2.6s1.42,1.77,2.12,2.67c.55.71,1.1,1.43,1.63,2.14C397.9,468.13,398.14,468.45,398.38,468.78Z"/><path class="cls-3" d="M388.47,143.48A126.19,126.19,0,0,0,355.68,70a48.53,48.53,0,0,0-1.18-10.58,48.28,48.28,0,0,0-7.73,1.93A111.82,111.82,0,0,0,272.82,33.2H239.09c-1.61,0-3.22,0-4.82.12a109.84,109.84,0,0,0-45.12,11.82c-.61-.44-1.24-.87-1.86-1.27-.63,1-1.23,2.12-1.78,3.19-33.8,18.64-57.87,54.37-62.06,96.4a29,29,0,0,0-5,1.76l1.82,52.39a28.47,28.47,0,0,0,37.26-35.34,64.72,64.72,0,0,0,54.83-42c15.1,9,34.37,14.42,55.34,14.42a111.12,111.12,0,0,0,48.08-10.52,49.38,49.38,0,0,0,40.78,32.94,28.48,28.48,0,0,0,33.32,41.1v0l1.87-53.64A28.36,28.36,0,0,0,388.47,143.48Z"/><path class="cls-8" d="M312.13,43.43c1.21,13.85-.18,33.92-14.32,49a3.55,3.55,0,0,0,2.81,6c9.37-.66,23.11-2.6,30.69-8.28a3.56,3.56,0,0,1,5.5,1.47c1.91,5,4.27,13,3.25,20.68a3.54,3.54,0,0,0,6.29,2.6c6.79-8.28,12.48-23.06,4-47.72a3.55,3.55,0,0,0-6.21-.94L342.86,68a3.54,3.54,0,0,1-5.77-.09L318.57,41.12A3.54,3.54,0,0,0,312.13,43.43Z"/><line class="cls-9" x1="238.16" y1="293.57" x2="274.01" y2="293.57"/><line class="cls-9" x1="242.88" y1="307.63" x2="269.28" y2="307.63"/><path class="cls-3" d="M289.58,263.26h-67a21.53,21.53,0,0,0-21.53,21.52h37.2a21.48,21.48,0,0,0,17.82-9.45,21.48,21.48,0,0,0,17.82,9.45h37.2A21.53,21.53,0,0,0,289.58,263.26Z"/><path class="cls-3" d="M235.9,323.22l15.42,23.41a5.53,5.53,0,0,0,9.2,0l15.72-23.41a5.52,5.52,0,0,0-4.59-8.6H240.51A5.52,5.52,0,0,0,235.9,323.22Z"/><path class="cls-10" d="M357,429.76,313,505.61a1.14,1.14,0,0,1-.25.06q-7.27,1.66-14.7,2.88a258.65,258.65,0,0,1-84.33,0q-7.3-1.21-14.47-2.84L153,425.81c.5-.29,1-.58,1.51-.85.26-.16.53-.31.79-.45l.71-.39.66-.36c.8-.45,1.6-.88,2.41-1.3,1.22-.65,2.46-1.28,3.71-1.89l.35-.17,2.29-1.12.36-.16,1.2-.51c1.41-.56,3.18-1.14,5.19-1.76l1-.31,1.06-.32c.9-.27,1.84-.54,2.81-.81l3.79-1.06.07,0,2.39-.67,2.44-.68c2.46-.69,5-1.41,7.44-2.15h0l44.06,43.94,12.68-4.39,1.22-.42,5.12-1.78.62-.21,8.65,6.8,43.1-19.22L330.37,421h0l5.06-3.38.21.1.22.11,2.75,1.35c1.82.91,3.6,1.85,5.36,2.8.87.47,1.74,1,2.6,1.44q4.05,2.28,7.86,4.69h0l.6.4s0,0,0,0C355.72,428.94,356.34,429.35,357,429.76Z"/><path class="cls-11" d="M162.76,420.57l51,88q-7.3-1.21-14.47-2.84l-.24-.05-46.2-79.74h0l-.05-.08q4.8-2.79,10-5.32Z"/><path class="cls-11" d="M356.75,429.76l-44,75.91q-7.27,1.66-14.7,2.88l49.06-84.67Q352.12,426.7,356.75,429.76Z"/><path class="cls-12" d="M205.28,399.06l-21.1,10.05a5.85,5.85,0,0,0-3,7.36l29.1,76.82a6.4,6.4,0,0,0,11.12,1.57l35-46.88s-33.76-37.09-44.5-47.79A5.87,5.87,0,0,0,205.28,399.06Z"/><path class="cls-12" d="M301.38,400.19C290.65,410.89,256.89,448,256.89,448l35,46.88A6.41,6.41,0,0,0,303,493.29l29.1-76.82a5.87,5.87,0,0,0-3-7.36L308,399.06A5.87,5.87,0,0,0,301.38,400.19Z"/></g></svg>
