<svg xmlns="http://www.w3.org/2000/svg" xmlns:xlink="http://www.w3.org/1999/xlink" viewBox="0 0 218.16 250.03"><defs><style>.cls-1{fill:none;}.cls-2{isolation:isolate;}.cls-3{fill:#fae4d9;}.cls-4{clip-path:url(#clip-path);}.cls-5{fill:#2ebac4;}.cls-6{fill:#fb968b;}.cls-10,.cls-7{mix-blend-mode:color-burn;}.cls-10,.cls-8{fill:#919191;}.cls-9{fill:#fff;}.cls-11{fill:url(#linear-gradient);}.cls-12{fill:url(#linear-gradient-2);}.cls-13,.cls-18{opacity:0.44;}.cls-13{fill:url(#linear-gradient-3);}.cls-14{fill:#8c6ba2;opacity:0.13;}.cls-15{fill:#000446;}.cls-16{fill:#0a1775;}.cls-17{fill:url(#linear-gradient-4);}.cls-18{fill:url(#linear-gradient-5);}</style><clipPath id="clip-path"><circle class="cls-1" cx="109.08" cy="109.08" r="109.08"/></clipPath><linearGradient id="linear-gradient" x1="85.6" y1="71.88" x2="80.18" y2="75.44" gradientUnits="userSpaceOnUse"><stop offset="0" stop-color="#2ebac4"/><stop offset="0.19" stop-color="#3099b0"/><stop offset="0.39" stop-color="#317d9f"/><stop offset="0.59" stop-color="#326a94"/><stop offset="0.79" stop-color="#335e8c"/><stop offset="1" stop-color="#335a8a"/></linearGradient><linearGradient id="linear-gradient-2" x1="129.84" y1="138.05" x2="129.84" y2="161.72" gradientUnits="userSpaceOnUse"><stop offset="0" stop-color="#ff6a59"/><stop offset="1" stop-color="#fff" stop-opacity="0"/></linearGradient><linearGradient id="linear-gradient-3" x1="84.19" y1="74.59" x2="72.03" y2="83.59" gradientUnits="userSpaceOnUse"><stop offset="0" stop-color="#e5ebf9"/><stop offset="0.12" stop-color="#d0cde5"/><stop offset="0.29" stop-color="#b8aacd"/><stop offset="0.47" stop-color="#a58eba"/><stop offset="0.64" stop-color="#977bad"/><stop offset="0.82" stop-color="#8f6fa5"/><stop offset="1" stop-color="#8c6ba2"/></linearGradient><linearGradient id="linear-gradient-4" x1="105.42" y1="70.1" x2="97.27" y2="75.46" xlink:href="#linear-gradient"/><linearGradient id="linear-gradient-5" x1="103.27" y1="74.68" x2="91.11" y2="83.68" xlink:href="#linear-gradient-3"/></defs><g class="cls-2"><g id="Слой_2" data-name="Слой 2"><g id="Layer_1" data-name="Layer 1"><circle class="cls-3" cx="109.08" cy="109.08" r="109.08" transform="translate(-45.18 109.08) rotate(-45)"/><g class="cls-4"><path class="cls-5" d="M149.37,155.39c-.28-2-1.35-.57-3.21-.59-3,0-6,.33-8.93.51l-18.37,1.05a5.29,5.29,0,0,0-3.65,1.16c-.39.41-.28,1.68,0,3a24.65,24.65,0,0,1,.49,3.42c-.45,5-2.37,6.77-2.8,11.74a5.92,5.92,0,0,0,.43,3.59c.86,1.44,2.72,1.88,4.38,2.12a58.2,58.2,0,0,0,13.58.41,45.65,45.65,0,0,0,16-4.29,8.13,8.13,0,0,0,3.81-3c1.21-2.19.41-4.88-.18-7.31C150,163.89,149.83,158.67,149.37,155.39Z"/><path class="cls-6" d="M104.34,29.44a26,26,0,0,0-26,26l.54,6.61.45,5.59.1,1.13,0,.56,0,.37,0,.31.59,7.23,0,.32.06.83v.15L81,87.83a65.89,65.89,0,0,0,2,13.81A103.78,103.78,0,0,0,86.33,113c3.52,9.69,8.56,18.26,14.4,19.24,14.38,2.44,40-32.45,40-44V65.8A36.35,36.35,0,0,0,104.34,29.44Z"/><g class="cls-7"><path class="cls-8" d="M131.05,71.14a8.75,8.75,0,0,0,9.64,12.47V66.49A8.73,8.73,0,0,0,131.05,71.14Z"/></g><path class="cls-9" d="M85.62,68.51a8.08,8.08,0,0,0-3.85.5c-.34.12-.66.25-1,.39s-.87.4-1.27.61l0,.41.56,6.82,0,.32.06.83c.74,0,1.55,0,2.44,0a11.67,11.67,0,0,0,1.94-.24A6.83,6.83,0,0,0,87.78,77C90.26,74.51,89.06,69,85.62,68.51Z"/><path class="cls-10" d="M85.32,69.29a8.05,8.05,0,0,0-3.88-.08,7.33,7.33,0,0,0-1,.24c-.31.07-.62.16-.91.25l0,.31.59,7.23,0,.32.06.83v.15l.65.1a13,13,0,0,0,2,.06A6.68,6.68,0,0,0,86.17,78C89,75.93,88.64,70.34,85.32,69.29Z"/><path class="cls-5" d="M131.88,151.61c-9.38.83-16.81,3.55-16.58,6.09s8,3.9,17.4,3.07,16.81-3.55,16.59-6.09S141.27,150.77,131.88,151.61Z"/><path class="cls-11" d="M81.77,69c-.34.12-.66.25-1,.39l0,.42.25,2.23L79.91,70.8l-.36-.38.56,6.82,0,.32.06.83c.74,0,1.55,0,2.44,0a11.67,11.67,0,0,0,1.94-.24,15.75,15.75,0,0,0,.7-3.31A7.9,7.9,0,0,0,84.44,71,5.06,5.06,0,0,0,81.77,69Z"/><path class="cls-10" d="M131.88,151.61c-9.38.83-16.81,3.55-16.58,6.09s8,3.9,17.4,3.07,16.81-3.55,16.59-6.09S141.27,150.77,131.88,151.61Z"/><path class="cls-6" d="M138,116.4l-21,2.51s8.67,19.54,4.59,38.37c-.73,3.41,22.66.58,21-2.51C136.19,143,138,116.4,138,116.4Z"/><path class="cls-12" d="M138,116.4l-21,2.51s8.67,19.54,4.59,38.37c-.73,3.41,22.66.58,21-2.51C136.19,143,138,116.4,138,116.4Z"/><path class="cls-13" d="M78.94,72.61a5.86,5.86,0,1,0,5.86,5.86A5.86,5.86,0,0,0,78.94,72.61Z"/><path class="cls-14" d="M98,72.61a5.86,5.86,0,1,0,5.85,5.86A5.86,5.86,0,0,0,98,72.61Z"/><g class="cls-7"><path class="cls-8" d="M95.47,101.81l-3.58.42a10.22,10.22,0,0,1-2.21.07l-.5-.1a7.38,7.38,0,0,1-2.25,0L85,101.64a4.37,4.37,0,0,0-2,0A103,103,0,0,0,86.34,113a1.47,1.47,0,0,0,.56-.18,28.87,28.87,0,0,0,9.86-9.18A1.22,1.22,0,0,0,95.47,101.81Z"/></g><path class="cls-15" d="M78.94,71.43a7,7,0,1,0,7,7A7,7,0,0,0,78.94,71.43Zm0,12.64a5.6,5.6,0,1,1,5.6-5.6A5.6,5.6,0,0,1,78.94,84.07Z"/><g class="cls-7"><path class="cls-8" d="M97.29,87.19a11.6,11.6,0,0,0-1.08-1.61c-1.48-1.87-4.62-.77-4.91,1.47a6.12,6.12,0,0,0,.09,1.81,5.54,5.54,0,0,0,.73,2.1,3,3,0,0,0,.59.65,11.92,11.92,0,0,0,2.91,1.24,4.26,4.26,0,0,0,1.72.5,1.49,1.49,0,0,0,1.45-.87,2.23,2.23,0,0,0-.06-1.25A16.49,16.49,0,0,0,97.29,87.19Z"/></g><path class="cls-6" d="M93,81.39a36.13,36.13,0,0,1-2.89-3.55c-.39-.61-1-4-1.35-4.14-.88-.39-2.48,1.7-3,2.32a23.08,23.08,0,0,0-3.57,7.28,101,101,0,0,0-3.72,14.82,1.75,1.75,0,0,0,3,1.53q.26-.27.48-.54A41.86,41.86,0,0,1,87,94c1.8-1.51,4-2.93,6.33-2.5a16.16,16.16,0,0,0,2.06.47,1.61,1.61,0,0,0,1.7-1,2.13,2.13,0,0,0,0-.94A19.84,19.84,0,0,0,93,81.39Z"/><path class="cls-5" d="M179.07,177c-9.7-1.74-21.14-2.33-28.51-8.87-25.91,1.28-51.27,1.18-77.17,2.45-6.68.33-13.86.83-19.08,5s-7.18,10.75-9,17l-6.1,20.92c-1.45,5-2.9,10.29-1.35,15.23,1.83,5.79,7.34,9.58,12.81,12.23,13.51,6.54,28.75,8.81,43.76,9s30-1.62,44.92-2.82c12.64-1,25.46-1.63,37.58-5.36s29-10.13,30.87-22.67c1.48-10,2.73-21-3-29.36C199.24,181.69,188.76,178.78,179.07,177Z"/><path class="cls-6" d="M95.82,101.46l-3.7-.22a9.39,9.39,0,0,1-2.25-.31,4.14,4.14,0,0,1-.49-.19,7.2,7.2,0,0,1-2.29-.43l-1.87-.89c-.66-.42-2.81-.49-2.8-.16.12,2.57,1.07,5.62.92,8.19,0,.9-.07,1.8,0,2.7a1.4,1.4,0,0,0,1.89,1.15,30,30,0,0,0,11.62-7.74A1.27,1.27,0,0,0,95.82,101.46Z"/><g class="cls-7"><path class="cls-8" d="M92.58,90.72a5.37,5.37,0,0,0-3.69.81,15,15,0,0,0-2.52,1.76,42.41,42.41,0,0,0-5.19,5.19c-.14.17-.29.33-.44.5a.75.75,0,0,1-.69.23.8.8,0,0,1-.63-.92,101.07,101.07,0,0,1,3.69-14.68c.56-1.66,1.26-3.26,1.92-4.87a15.23,15.23,0,0,1,.92-2,19.23,19.23,0,0,0,1.19-2.3.25.25,0,0,1,0-.07A13.93,13.93,0,0,0,85.75,76a23.08,23.08,0,0,0-3.57,7.28,101,101,0,0,0-3.72,14.82,1.75,1.75,0,0,0,1.39,2,1.69,1.69,0,0,0,1.6-.52q.26-.27.48-.54A41.86,41.86,0,0,1,87,94c1.8-1.51,4-2.93,6.33-2.5l.07,0c.25,0,.5.14.75.17C94,91.13,93.12,90.83,92.58,90.72Z"/></g><path class="cls-15" d="M133.05,106.06c-.73-1.32-4.07-3.79-5.88-4.54.07,3.85,0,13-4.15,15.56a7.73,7.73,0,0,0-2.23-5.44,18.18,18.18,0,0,0-4,7.81l-4.16-4.51c-2.58,1.44-4,3.73-3.7,6a25.73,25.73,0,0,1-6.35-4.51,17.08,17.08,0,0,1-1.88,5.11,44.38,44.38,0,0,0-12.73-4.16c-.43,5.9-.88,11.85-3.31,17.44s-7.74,9.71-15,12.85a98.71,98.71,0,0,0,12.82,1.19h.27c4.39,0,7.94-.48,11.34-2.14a12.86,12.86,0,0,1-.62,1.43c-2.76,5.46-9.17,9.92-14.81,14.26l20.61-6.49c13.73-4.33,29.94-16.23,40.14-23.57,3.81-2.75,7.55-12.14,7.66-16.74.2-8.16-5.09-22.89-6.32-32C137.93,84.42,133.69,102.33,133.05,106.06Z"/><path class="cls-16" d="M95.29,136.35a20.34,20.34,0,0,1-3.2,5.6c-2.4,2.74-6.31,4.67-9.67,6.93h.27c4.39,0,7.94-.48,11.34-2.14a12.86,12.86,0,0,1-.62,1.43l0,0a19.53,19.53,0,0,0,4.22-11.29,18.71,18.71,0,0,0-1-7.13C97.18,132,96.23,134.21,95.29,136.35Z"/><path class="cls-15" d="M126.76,12A89.42,89.42,0,0,0,122,4s3.52,11.58,0,16.5a26.92,26.92,0,0,1,6,1.17,6.86,6.86,0,0,0,.67-4.9A21.34,21.34,0,0,0,126.76,12Z"/><path class="cls-15" d="M129.12,19.7a.58.58,0,0,0,.43.08,5,5,0,0,0-.42-.36A.53.53,0,0,0,129.12,19.7Z"/><path class="cls-15" d="M123.85,17.48a13.16,13.16,0,0,1,5.28,1.94,1.31,1.31,0,0,1,.19-.4,19.44,19.44,0,0,1,6.34-6C131.26,12.64,127.19,15,123.85,17.48Z"/><path class="cls-15" d="M125.48,14.92c-3.84-.59-11.22,1.33-19.35,3.22-1.52.36-3,.7-4.59,1-1.23.26-2.48.52-3.72.76a67.9,67.9,0,0,1-12.57,1.42h0a26.65,26.65,0,0,1-4.19-.3C67.48,19,66.67,22.85,68.85,29.16s6.43,24.89-2.06,37.53C81.86,56.05,76.39,55.63,81.54,52c5.8-4.07,6.93,2.7,8.22,5.24,3.57-11.41,13.73-9.85,13.73-9.85l-1.1,10.79c7.27-6.85,12.2-8.09,16.83-2.4,5.74,7,.7,14.5.37,15l5.92-6c-.32.33,3.24,4,3.63,4.46a5.27,5.27,0,0,1,2.72-1c2.49-.21,4.74,1.22,6.5,2.75,4.17,3.67-6.68,1.73,7.93,18.62,0,0-2-41.9-3.08-48S133.39,16.13,125.48,14.92Z"/><path class="cls-15" d="M133.37,18.78a10.07,10.07,0,0,0-5.32-1.89,17.72,17.72,0,0,1-1.72,5c6.77-.27,16.88,8,16.88,8a93.49,93.49,0,0,0-5.85-7.47A25.38,25.38,0,0,0,133.37,18.78Z"/><path class="cls-6" d="M141,66.34A8.75,8.75,0,1,0,145,78.08,8.76,8.76,0,0,0,141,66.34Z"/><g class="cls-7"><path class="cls-8" d="M139.5,69.4a4.35,4.35,0,0,0-5.83,1.95.49.49,0,0,0,0,.11,4,4,0,0,1,.9.32,4.35,4.35,0,0,1,2,5.73,4.34,4.34,0,0,0,3-8.11Z"/></g><path class="cls-16" d="M106.85,25.2a29.8,29.8,0,0,0-9-5.26,67.9,67.9,0,0,1-12.57,1.42,94.89,94.89,0,0,1,17.48,6.27c3.84,1.84,7.65,4,9.94,7.26C113,31.16,109.92,27.88,106.85,25.2Z"/><path class="cls-16" d="M107.73,19.36a14.74,14.74,0,0,0-1.6-1.22c-1.52.36-3,.7-4.59,1,1.28.49,2.54,1,3.77,1.62,2.25,1.07,4.5,2.37,5.84,4.26C111.34,22.87,109.53,20.94,107.73,19.36Z"/><path class="cls-10" d="M105.48,70.67h0l-.73-.32a16.27,16.27,0,0,0-6.7-1.44,5.83,5.83,0,0,0-1.69.33c-3.29,1.17-3.45,6.76-.57,8.7a2.93,2.93,0,0,0,1,.4,13.09,13.09,0,0,0,4.3.09,27.45,27.45,0,0,0,5.24-1.36,9.53,9.53,0,0,0,3.82-2.18S109.17,72.42,105.48,70.67Z"/><path class="cls-10" d="M121,176.68c-1.35-.32-2.92-.91-3.22-2.27a2.61,2.61,0,0,1,.91-2.39,7,7,0,0,1,2.35-1.25,68.51,68.51,0,0,1,13.8-3.59,60.67,60.67,0,0,1-11.39-1.93,24.35,24.35,0,0,1-5.65-2.49c-.59-.37-1.63-1.44-2.64-2.24a24.65,24.65,0,0,1,.49,3.42c-.45,5-2.37,6.77-2.8,11.74a5.92,5.92,0,0,0,.43,3.59c.86,1.44,2.72,1.88,4.38,2.12a58.2,58.2,0,0,0,13.58.41c2.2-1.23,4.33-2.6,6.46-4A53,53,0,0,1,121,176.68Z"/><path class="cls-10" d="M178.17,181.41a18,18,0,0,0-4.2-.85c-6.63-.81-13.08-2.51-19.25-.67a155.93,155.93,0,0,1-19,4.69c-8.35,1.42-17.48,1.84-25.74.28,20.1,6.59,46.48,6.78,66.88.47,1.35-.41,2.79-1,3.13-1.78S179.4,181.88,178.17,181.41Z"/><path class="cls-15" d="M111.87,71.19l1.12.16a9.22,9.22,0,0,1-1.94-2.19,1,1,0,0,0,.73,0,15.62,15.62,0,0,0-2.52-2.49l.79.4a18,18,0,0,0-3.92-3l1.58.17a9.06,9.06,0,0,0-3.32-1.33c.33-.23.66-.46,1-.68A22.83,22.83,0,0,0,101,62l.64-1.24a4.29,4.29,0,0,0-3.37-.06c1.81-2.41-1.8-1.33-1.78-.72,0-.84-.05-1.67-.07-2.51a26.53,26.53,0,0,0-1.24,3.25,9.75,9.75,0,0,0-1.45-2.88c.39,2.81.77,5.62.9,8.46l.09-.23c3.09-1.08,6.45.17,9.48,1.41a33.52,33.52,0,0,1,5.78,2.8A11.34,11.34,0,0,1,114.29,75,5.74,5.74,0,0,0,111.87,71.19Z"/><path class="cls-15" d="M84.43,57.84a9.84,9.84,0,0,0-1.09,3,26.56,26.56,0,0,0-1.63-3.07c.08.83.16,1.65.24,2.49-.11-.61-3.75-1.21-1.68,1a4.42,4.42,0,0,0-2.67.12l1.5,5.4a9.22,9.22,0,0,1,5.34-.63l.13.22C84.36,63.52,84.39,60.68,84.43,57.84Z"/><path class="cls-9" d="M104.75,70.39h0c-.22-.11-.47-.22-.73-.32a16.26,16.26,0,0,0-6.7-1.45,5.83,5.83,0,0,0-1.69.33c-3.29,1.17-3.45,6.76-.57,8.7a3.13,3.13,0,0,0,1,.41,13.06,13.06,0,0,0,4.3.08,28.32,28.32,0,0,0,5.24-1.35,9.6,9.6,0,0,0,3.82-2.19S108.44,72.13,104.75,70.39Z"/><path class="cls-6" d="M92.48,74.8c-.43-3.66-.87-7.38-2.36-10.75-.3-.69-.83-1.46-1.57-1.39a1.31,1.31,0,0,0-1,1,4.25,4.25,0,0,0,0,1.55,28.73,28.73,0,0,1-.25,8.23c-.38,2.15-1.88,4.25-.43,6.31a5.71,5.71,0,0,0,3.38,2.11c1,.24,2.42.11,2.8-.89a2.59,2.59,0,0,0,0-1.21C92.86,78.13,92.67,76.46,92.48,74.8Z"/><path class="cls-17" d="M104.75,70.39h0c-.22-.11-.47-.22-.73-.32a16.26,16.26,0,0,0-6.7-1.45l.46,1,1,2-2.07-1-1-.47a9.54,9.54,0,0,0-.52,4.8,10.2,10.2,0,0,0,.94,3.07,13.06,13.06,0,0,0,4.3.08,28.32,28.32,0,0,0,5.24-1.35,10.23,10.23,0,0,0-.89-6.39Z"/><path class="cls-18" d="M98,72.7a5.86,5.86,0,1,0,5.85,5.86A5.86,5.86,0,0,0,98,72.7Z"/><path class="cls-15" d="M98,71.43a7,7,0,1,0,7,7A7,7,0,0,0,98,71.43Zm0,12.64a5.6,5.6,0,1,1,5.59-5.6A5.6,5.6,0,0,1,98,84.07Z"/><path class="cls-15" d="M88.32,72c-2.83,0-5.13,1.13-5.13,2.53a1.41,1.41,0,0,0,.24.73c.64-1,2.57-1.8,4.89-1.8s4.26.76,4.9,1.8a1.41,1.41,0,0,0,.24-.73C93.46,73.08,91.16,72,88.32,72Z"/></g></g></g></g></svg>
