<svg xmlns="http://www.w3.org/2000/svg" xmlns:xlink="http://www.w3.org/1999/xlink" viewBox="0 0 218.16 237.28"><defs><style>.cls-1{fill:none;}.cls-2{isolation:isolate;}.cls-3{fill:#fae4d9;}.cls-4{clip-path:url(#clip-path);}.cls-5{fill:#000446;}.cls-6{fill:#c7776e;}.cls-7{fill:#fbaea6;}.cls-14,.cls-8{fill:#919191;}.cls-12,.cls-8{mix-blend-mode:color-burn;}.cls-9{fill:url(#linear-gradient);}.cls-10{fill:#2ebac4;}.cls-11{fill:#fb968b;}.cls-13{fill:#e8e8e8;}.cls-15{fill:url(#linear-gradient-2);}.cls-16{fill:#fff;}.cls-17{fill:url(#linear-gradient-3);}.cls-18{fill:url(#linear-gradient-4);}</style><clipPath id="clip-path"><circle class="cls-1" cx="109.08" cy="109.08" r="109.08" transform="translate(-45.18 109.08) rotate(-45)"/></clipPath><linearGradient id="linear-gradient" x1="110.94" y1="115.52" x2="109.21" y2="167.24" gradientUnits="userSpaceOnUse"><stop offset="0" stop-color="#ff6a59"/><stop offset="1" stop-color="#fff" stop-opacity="0"/></linearGradient><linearGradient id="linear-gradient-2" x1="106.91" y1="94.57" x2="108.47" y2="69.84" xlink:href="#linear-gradient"/><linearGradient id="linear-gradient-3" x1="126.93" y1="74.45" x2="120.52" y2="66.04" gradientUnits="userSpaceOnUse"><stop offset="0" stop-color="#5f0030"/><stop offset="1" stop-color="#c7776e"/></linearGradient><linearGradient id="linear-gradient-4" x1="98.28" y1="75.96" x2="91.47" y2="63.41" xlink:href="#linear-gradient-3"/></defs><g class="cls-2"><g id="Слой_2" data-name="Слой 2"><g id="Layer_1" data-name="Layer 1"><circle class="cls-3" cx="109.08" cy="109.08" r="109.08" transform="translate(-45.18 109.08) rotate(-45)"/><g class="cls-4"><path class="cls-5" d="M137.59,145.19c0,3.72-12,6.74-26.68,6.74s-26.69-3-26.69-6.74,12-6.75,26.69-6.75S137.59,141.46,137.59,145.19Z"/><path class="cls-6" d="M57.21,101.27c22,9.23,46.77,8.39,70.61,7.22q16.22-.8,32.42-1.71a335.46,335.46,0,0,0-14.41-52.32c-2.3-6.15-4.94-12.37-9.53-17.06-4.88-5-11.62-7.81-18.47-9.13a74.38,74.38,0,0,0-12.9-1.16c-2.94-.05-7-.78-9.65.59-5.49,2.84-10.69,9.85-14.53,14.55A106.69,106.69,0,0,0,61.33,78.84,102.47,102.47,0,0,0,58.6,90.16C58.42,91.17,56.51,101,57.21,101.27Z"/><path class="cls-7" d="M135.71,166.45H84.79s9.71-25.45,0-57.72c-2.56-8.54,53.21-8.57,50.92,0C128.57,135.5,135.71,166.45,135.71,166.45Z"/><path class="cls-8" d="M61,99.37l6.28-3.11q1,2.8,2,5.61c2.8-1.63,5.91-3.69,6.34-6.91a10.62,10.62,0,0,0-.53-4.13,33.38,33.38,0,0,0-2.31-6.77C72,82.59,70.82,80,68.94,80.92c-1.5.76-2.09,4.3-2.62,5.69-.81,2.15-1.67,4.3-2.56,6.42C63.27,94.19,62,98.83,61,99.37Z"/><path class="cls-8" d="M157.34,102.37l-6.28-3.11q-1,2.8-2,5.61c-2.81-1.63-5.91-3.69-6.35-6.91a11,11,0,0,1,.53-4.13,34,34,0,0,1,2.31-6.77c.75-1.47,1.95-4.09,3.83-3.14,1.49.76,2.09,4.3,2.61,5.69.82,2.15,1.68,4.3,2.57,6.42C155,97.19,156.26,101.83,157.34,102.37Z"/><path class="cls-9" d="M135.71,166.45H84.79s9.71-25.45,0-57.72c-2.56-8.54,53.21-8.57,50.92,0C128.57,135.5,135.71,166.45,135.71,166.45Z"/><path class="cls-10" d="M96,156,9.93,181.29l56.71,39.85c20.74,13.71,75.12,17.48,95.9,3.82l43.09-45.79L123.4,158.24Z"/><polygon class="cls-10" points="137.59 163.33 84.22 163.33 84.22 144.44 110.73 157.97 137.59 144.44 137.59 163.33"/><rect class="cls-5" x="103.7" y="162.39" width="14.41" height="13.55" rx="4.33"/><polygon class="cls-5" points="111.02 237.28 97.41 183.71 110.91 171.02 124.4 183.71 111.02 237.28"/><path class="cls-11" d="M147.69,90.07c0,6.55-6.07,15.25-13.49,23.05-.36.39-.74.78-1.12,1.16a116.4,116.4,0,0,1-17.92,15.08,8.58,8.58,0,0,1-4.14,1.43c-.41,0-.83,0-1.25,0a10.69,10.69,0,0,1-4.47-1.43c-5.77-3.25-13.12-10.09-19.36-17.32-.46-.52-.9-1.05-1.33-1.57-6.7-8-11.84-16.24-11.84-20.4,0-30.28,16.77-62.43,37.46-62.43S147.69,59.79,147.69,90.07Z"/><g class="cls-12"><path class="cls-13" d="M147.43,71.53a58.81,58.81,0,0,1-.26,11.13,6,6,0,0,1-2.11-.55c-4.63-2.17-6.18-9.78-3.47-17a18.71,18.71,0,0,1,3.77-6.21A68.11,68.11,0,0,1,147.43,71.53Z"/></g><path class="cls-11" d="M142.71,80.43c-4.62-2.17-6.17-9.78-3.46-17s8.67-11.31,13.29-9.15,6.17,9.79,3.46,17S147.34,82.6,142.71,80.43Z"/><g class="cls-12"><path class="cls-14" d="M152.73,69.76c1.35-3.59.58-7.37-1.72-8.45-2-.93-4.46.46-6,3.17,2.21,1.15,3,4.86,1.62,8.39a10,10,0,0,1-.64,1.36l.1.07C148.42,75.38,151.38,73.34,152.73,69.76Z"/></g><path class="cls-6" d="M128.44,104.11c-11.08-4.63-24.91-6.79-35.4-1.32-3.23,1.69-5.6,5.59-7.1,9.25,6.24,7.23,13.59,14.07,19.36,17.32a10.69,10.69,0,0,0,4.47,1.43c.42,0,.84,0,1.25,0a8.58,8.58,0,0,0,4.14-1.43,116.4,116.4,0,0,0,17.92-15.08A37,37,0,0,0,128.44,104.11Zm-20,16.86c-3.13-.23-9.8-.11-12.4-3.49-2.11-4-2.44-10.66-.66-12,4.2-3.26,24.74-2.35,29.18.41,1.09,2.31-1.09,12.65-1.06,12.81C117.24,121.72,112.59,121.28,108.45,121Z"/><g class="cls-12"><path class="cls-13" d="M74.89,58.9a68.11,68.11,0,0,0-2.07,12.63,58,58,0,0,0,.27,11.13,6.05,6.05,0,0,0,2.1-.55c4.63-2.17,6.18-9.78,3.47-17A18.55,18.55,0,0,0,74.89,58.9Z"/></g><path class="cls-11" d="M67.71,54.29c-4.62,2.17-6.17,9.79-3.46,17s8.67,11.31,13.29,9.14,6.18-9.78,3.46-17S72.34,52.13,67.71,54.29Z"/><g class="cls-12"><path class="cls-14" d="M69.25,61.31c-2.3,1.08-3.07,4.86-1.72,8.45s4.3,5.62,6.6,4.54l.1-.07a11.42,11.42,0,0,1-.64-1.36c-1.32-3.53-.59-7.24,1.62-8.39C73.71,61.77,71.23,60.38,69.25,61.31Z"/></g><path class="cls-11" d="M114.73,79.76a14.52,14.52,0,0,0-1.22-10.34c-.75-1.31-.88-3.34-1.59-4.7s-2-2.25-3.11-1.58c-1.72,1-1.68,4.72-3,6.63-.13,3.7-.38,7.77-2.24,10.36a38.64,38.64,0,0,1-3,3C98,86.11,99,90.68,102,93a11.45,11.45,0,0,0,5.22,2,11.31,11.31,0,0,0,4.1.07A5.5,5.5,0,0,0,114.72,93c1.88-2.68-.78-5.18-1.06-7.88C113.46,83.26,114.27,81.53,114.73,79.76Z"/><path class="cls-15" d="M114.73,79.76a14.52,14.52,0,0,0-1.22-10.34c-.75-1.31-.88-3.34-1.59-4.7s-2-2.25-3.11-1.58c-1.72,1-1.68,4.72-3,6.63-.13,3.7-.38,7.77-2.24,10.36a38.64,38.64,0,0,1-3,3C98,86.11,99,90.68,102,93a11.45,11.45,0,0,0,5.22,2,11.31,11.31,0,0,0,4.1.07A5.5,5.5,0,0,0,114.72,93c1.88-2.68-.78-5.18-1.06-7.88C113.46,83.26,114.27,81.53,114.73,79.76Z"/><path class="cls-6" d="M134.58,67.46l1,.14a8.45,8.45,0,0,1-1.77-2,.91.91,0,0,0,.67,0,14.18,14.18,0,0,0-2.31-2.27l.73.37a16,16,0,0,0-3.59-2.76l1.45.16a8.1,8.1,0,0,0-3-1.22l.91-.62a20.47,20.47,0,0,0-4-.15l.58-1.13a3.86,3.86,0,0,0-3.07,0c1.65-2.21-1.64-1.22-1.63-.66l-.06-2.3a26.72,26.72,0,0,0-1.14,3A8.82,8.82,0,0,0,118,55.28c.34,2.56.69,5.13.81,7.71l.09-.2c2.81-1,5.89.16,8.65,1.28a31.86,31.86,0,0,1,5.29,2.56,10.43,10.43,0,0,1,3.91,4.29A5.19,5.19,0,0,0,134.58,67.46Z"/><path class="cls-6" d="M99,55,99,57.32c0-.57-3.28-1.55-1.63.65a3.9,3.9,0,0,0-3.07.06l.58,1.13a21.28,21.28,0,0,0-4,.14l.91.62a8.27,8.27,0,0,0-3,1.22L90.18,61a15.71,15.71,0,0,0-3.58,2.76l.73-.37A13.78,13.78,0,0,0,85,65.65a.91.91,0,0,0,.67,0,8.65,8.65,0,0,1-1.77,2l1-.15A5.21,5.21,0,0,0,82.73,71a10.34,10.34,0,0,1,3.91-4.28,30.73,30.73,0,0,1,5.29-2.56c2.76-1.13,5.83-2.27,8.65-1.28l.09.2c.11-2.58.46-5.15.81-7.72A8.76,8.76,0,0,0,100.17,58,26,26,0,0,0,99,55Z"/><g class="cls-12"><path class="cls-14" d="M134.58,67.46l1,.14a8.45,8.45,0,0,1-1.77-2,.91.91,0,0,0,.67,0,14.18,14.18,0,0,0-2.31-2.27l.73.37a16,16,0,0,0-3.59-2.76l1.45.16a8.1,8.1,0,0,0-3-1.22l.91-.62a20.47,20.47,0,0,0-4-.15l.58-1.13a3.86,3.86,0,0,0-3.07,0c1.65-2.21-1.64-1.22-1.63-.66l-.06-2.3a26.72,26.72,0,0,0-1.14,3A8.82,8.82,0,0,0,118,55.28c.34,2.56.69,5.13.81,7.71l.09-.2c2.81-1,5.89.16,8.65,1.28a31.86,31.86,0,0,1,5.29,2.56,10.43,10.43,0,0,1,3.91,4.29A5.19,5.19,0,0,0,134.58,67.46Z"/></g><g class="cls-12"><path class="cls-14" d="M99,55,99,57.32c0-.57-3.28-1.55-1.63.65a3.9,3.9,0,0,0-3.07.06l.58,1.13a21.28,21.28,0,0,0-4,.14l.91.62a8.27,8.27,0,0,0-3,1.22L90.18,61a15.71,15.71,0,0,0-3.58,2.76l.73-.37A13.78,13.78,0,0,0,85,65.65a.91.91,0,0,0,.67,0,8.65,8.65,0,0,1-1.77,2l1-.15A5.21,5.21,0,0,0,82.73,71a10.34,10.34,0,0,1,3.91-4.28,30.73,30.73,0,0,1,5.29-2.56c2.76-1.13,5.83-2.27,8.65-1.28l.09.2c.11-2.58.46-5.15.81-7.72A8.76,8.76,0,0,0,100.17,58,26,26,0,0,0,99,55Z"/></g><path class="cls-8" d="M130.16,69.19a9.87,9.87,0,0,0-2.33-1.83,6.88,6.88,0,0,0-4-.94,3.56,3.56,0,0,0-2.08,1A10.34,10.34,0,0,0,118.55,74a3.06,3.06,0,0,0,.44,2.09,3.27,3.27,0,0,0,3,.76l.33,0a33.81,33.81,0,0,1,7.18-.18,12.83,12.83,0,0,1,6.33,2.22c-1.43-1.75-2.2-4.72-3.37-6.64A18.27,18.27,0,0,0,130.16,69.19Z"/><path class="cls-16" d="M129.33,68.37A9.57,9.57,0,0,0,127,66.54a6.9,6.9,0,0,0-4-1,3.54,3.54,0,0,0-2.08,1,10.27,10.27,0,0,0-3.16,6.67,2.93,2.93,0,0,0,.44,2.08c.66.84,1.87.86,3,.76l.33,0a33.71,33.71,0,0,1,7.17-.19A12.88,12.88,0,0,1,135,78.07c-1.43-1.75-2.21-4.72-3.38-6.65A17.65,17.65,0,0,0,129.33,68.37Z"/><path class="cls-17" d="M127,66.54a6.9,6.9,0,0,0-4-1l.34,1.26.56,2-1.7-1.22-.87-.61A9.09,9.09,0,0,0,120,71.3a8.54,8.54,0,0,0,1.11,4.76l.33,0a33.71,33.71,0,0,1,7.17-.19,8.68,8.68,0,0,0,1.17-4.07,9.1,9.1,0,0,0-.46-3.4A9.57,9.57,0,0,0,127,66.54Z"/><path class="cls-8" d="M99.08,67.37a3.59,3.59,0,0,0-2.08-1,6.88,6.88,0,0,0-4,.94,9.87,9.87,0,0,0-2.33,1.83,18.27,18.27,0,0,0-2.25,3.06c-1.17,1.92-1.95,4.89-3.37,6.64a12.83,12.83,0,0,1,6.33-2.22,33.81,33.81,0,0,1,7.18.18l.33,0a3.27,3.27,0,0,0,3-.76,3,3,0,0,0,.43-2.09A10.28,10.28,0,0,0,99.08,67.37Z"/><path class="cls-16" d="M99.9,66.55a3.54,3.54,0,0,0-2.08-1,6.9,6.9,0,0,0-4,1,9.57,9.57,0,0,0-2.32,1.83,17.65,17.65,0,0,0-2.25,3c-1.17,1.93-1.95,4.9-3.38,6.65a12.88,12.88,0,0,1,6.34-2.23,33.73,33.73,0,0,1,7.17.19l.33,0c1.08.1,2.28.08,3-.76a2.93,2.93,0,0,0,.44-2.08A10.27,10.27,0,0,0,99.9,66.55Z"/><path class="cls-18" d="M98.62,67.66l-1.7,1.22.56-2,.34-1.26a6.9,6.9,0,0,0-4,1,9.57,9.57,0,0,0-2.32,1.83,9.1,9.1,0,0,0-.46,3.4,8.68,8.68,0,0,0,1.17,4.07,33.73,33.73,0,0,1,7.17.19l.33,0a8.45,8.45,0,0,0,1.1-4.76,9,9,0,0,0-1.28-4.25Z"/><path class="cls-6" d="M111.76,27.64a137.51,137.51,0,0,0,16.61,16c10.49,8.68,10.72,35.56,10.72,35.56s6.11-7.59,5.88-22.13-15.85-34.33-15.85-34.33Z"/><path class="cls-6" d="M75.39,56.67c-.24,14.82,6,22.55,6,22.55S81.61,51.84,92.3,43a139.46,139.46,0,0,0,16.92-16.32l-17.69-5S75.63,41.85,75.39,56.67Z"/><path class="cls-6" d="M88.08,48.72c-.17,10.48,4.23,16,4.23,16s.17-19.36,7.73-25.62a98.84,98.84,0,0,0,12-11.54L99.49,24S88.25,38.24,88.08,48.72Z"/><path class="cls-6" d="M105,29.34A87.17,87.17,0,0,0,115.5,39.49C122.15,45,122.29,62,122.29,62s3.87-4.81,3.73-14-10-21.74-10-21.74Z"/><g class="cls-12"><path class="cls-14" d="M99.76,111a23,23,0,0,0,10.62.44,22.72,22.72,0,0,0,9.74-4.26A43.1,43.1,0,0,1,99.76,111Z"/></g></g></g></g></g></svg>
