<svg xmlns="http://www.w3.org/2000/svg" viewBox="0 0 512 512"><defs><style>.cls-1{fill:#cd88f8;}.cls-2{fill:#af6fdd;}.cls-3{fill:#a65c3b;}.cls-4{fill:#9e4830;}.cls-5{fill:#fcc8bc;}.cls-6{fill:#fab3a7;}.cls-7,.cls-9{fill:none;stroke-linecap:round;stroke-miterlimit:10;stroke-width:7px;}.cls-7{stroke:#9e4830;}.cls-8{fill:#27273d;}.cls-9{stroke:#27273d;}.cls-10{fill:#f58d89;}.cls-11{fill:#d54545;}.cls-12{fill:#c11e1e;}.cls-13{fill:#fc4581;}.cls-14{fill:#fff;}.cls-15{fill:#e23976;}.cls-16{fill:#b7694b;}</style></defs><title>Avatar Users2</title><g id="BULINE"><circle class="cls-1" cx="256" cy="256" r="256"/></g><g id="Icons"><path class="cls-2" d="M484.77,371a257.09,257.09,0,0,1-87.24,98.35c-1,.68-2.08,1.37-3.13,2s-1.9,1.22-2.86,1.82l-1.44.89a254.43,254.43,0,0,1-126.33,37.77c-.48,0-1,0-1.44.05-1.6,0-3.22.07-4.83.07H256c-2.69,0-5.38,0-8.05-.13l-1.67-.06A254.62,254.62,0,0,1,119.6,472.67l-.11-.07c-1.09-.69-2.18-1.38-3.25-2.09-.79-.51-1.57-1-2.35-1.56A257.06,257.06,0,0,1,27.23,371a257.31,257.31,0,0,1,104.4-108.82c.71-.4,1.43-.79,2.15-1.17q2.47-1.36,5-2.66l1.1-.57c1.78-.9,3.57-1.79,5.37-2.64a.09.09,0,0,1,.08,0,1.11,1.11,0,0,1,.29-.14c.39-.2.77-.38,1.16-.56q8.25-3.9,16.8-7.22,2.4-.93,4.83-1.81,4.43-1.62,8.93-3.07l2.59-.82h0q4.76-1.49,9.6-2.77,3.69-1,7.41-1.87,5.07-1.2,10.2-2.19l4.05-.75a258.66,258.66,0,0,1,91.88.41q5.46,1,10.83,2.26,9.66,2.23,19,5.19,6.32,2,12.49,4.29,2.42.9,4.82,1.85,8.81,3.5,17.29,7.62c1,.49,2.05,1,3.06,1.51.83.41,1.66.83,2.48,1.26h0c.57.28,1.14.58,1.71.88,1.45.76,2.88,1.53,4.31,2.31.59.32,1.18.65,1.76,1a251.92,251.92,0,0,1,27.61,17.88q2.77,2,5.49,4.2c2.24,1.74,4.45,3.54,6.63,5.38A256.77,256.77,0,0,1,484.77,371Z"/><path class="cls-3" d="M429.84,283.33a8.07,8.07,0,0,1-14.78,2.95l-6.9-10.95s6.71,66.17-27.94,97a8.11,8.11,0,0,1-10.84,0l-13.77-12.45s-40.05,56-106.24,69A282.42,282.42,0,0,1,221.45,418c-57.52-26-62.74-55.88-62.74-55.88l-1.78,11.65a8.06,8.06,0,0,1-13.73,4.43C98.71,333.39,93.07,283,93.07,283l-.32.51a8.08,8.08,0,0,1-14.77-4c-7.24-112.61,42.11-190,42.11-190q3.61-5,7.43-9.46C187,10.14,276.8,36.53,276.8,36.53s91.73-61,141.74,86.3C418.54,122.83,444,196.14,429.84,283.33Z"/><path class="cls-4" d="M221.45,418c-57.52-26-62.74-55.88-62.74-55.88l-1.78,11.65a8.06,8.06,0,0,1-13.73,4.43C98.71,333.39,93.07,283,93.07,283l-.32.51a8.08,8.08,0,0,1-14.77-4c-7.24-112.61,42.11-190,42.11-190q3.61-5,7.43-9.46C124.33,153.69,133.61,288.34,221.45,418Z"/><path class="cls-5" d="M397.53,469.35c-1,.68-2.08,1.37-3.13,2s-1.9,1.22-2.86,1.82l-1.44.89a254.43,254.43,0,0,1-126.33,37.77c-.48,0-1,0-1.44.05-1.6,0-3.22.07-4.83.07H256c-2.69,0-5.38,0-8.05-.13l-1.67-.06A254.62,254.62,0,0,1,119.6,472.67l-.11-.07c-1.09-.69-2.18-1.38-3.25-2.09-.79-.51-1.57-1-2.35-1.56a146.41,146.41,0,0,1,19.83-30.61,131.84,131.84,0,0,1,23.85-22A145,145,0,0,1,180.32,403l.13-.05c1-.4,4.51-1.49,9.21-2.95,4.9-1.49,11.05-3.4,16.82-5.34,4.29-1.46,8.36-2.93,11.52-4.27a21.93,21.93,0,0,0,5.78-3.14L224,387c6.36-7.35,3.42-20.54,3.42-30.06,0-2.34,0-4.38-.08-6.23h0a1.34,1.34,0,0,1,0-.2c-.51-19.21-2.59-13.27,14-18.83a37.46,37.46,0,0,1,5.75-.86c12.54-1.24,40.45-2.29,43.83.86,2.48,2.32,3,7,2.69,12.57a2.09,2.09,0,0,1,0,.25c-.64,11.35-4.51,26.39-1.79,33.34a20.48,20.48,0,0,0,5,7.06,39.51,39.51,0,0,0,4.87,4,82.53,82.53,0,0,0,16,8.33h0c4.68,1.89,8.26,3,8.92,3.32.92.42,1.85.87,2.75,1.31a158,158,0,0,1,22.52,13.24,137.87,137.87,0,0,1,24.82,22.44A147.33,147.33,0,0,1,397.53,469.35Z"/><path class="cls-5" d="M368.3,167.31v76.07c0,56.74-45.17,74.91-78.09,103.77a50.65,50.65,0,0,1-67.49,0c-32.92-28.86-78.09-47-78.09-103.77V167.31c0-55.8,41.57-101.31,93.63-103.55,1.34-.08,2.69-.1,4-.1h28.32C324.56,63.66,368.3,110.06,368.3,167.31Z"/><path class="cls-6" d="M189.55,243.38V167.31c0-54.32,39.37-98.89,89.51-103.28q-4-.37-8.16-.37H242.59c-54,0-97.67,46.41-97.67,103.65V205a22.38,22.38,0,1,0,0,44.76h.22c3.24,51.8,46.19,69.69,77.85,97.43a50.51,50.51,0,0,0,56.07,7.65,51.73,51.73,0,0,1-11.44-7.65C234.7,318.3,189.55,300.12,189.55,243.38Z"/><circle class="cls-5" cx="368.57" cy="227.34" r="22.38"/><path class="cls-7" d="M175,196.6s28.21-15.71,52.57,0"/><ellipse class="cls-8" cx="200.91" cy="224.64" rx="9.35" ry="13.46"/><path class="cls-7" d="M283.68,196.6s28.21-15.71,52.57,0"/><ellipse class="cls-8" cx="309.59" cy="224.64" rx="9.35" ry="13.46"/><rect class="cls-6" x="240.21" y="249.72" width="32.51" height="12.33" rx="5.65"/><path class="cls-9" d="M183.91,214.73s16.15-10.2,34,0"/><path class="cls-9" d="M292.59,214.73s16.15-10.2,34,0"/><path class="cls-10" d="M145.56,218.44a8.9,8.9,0,0,0,0,17.8Z"/><path class="cls-6" d="M368.57,236.24a8.9,8.9,0,1,0,0-17.8Z"/><path class="cls-11" d="M256.46,284.5c-17-2.76-31.8,8.28-31.8,8.28,0,8.78,14.24,17.31,31.8,17.31h0c17.57,0,31.81-8.53,31.81-17.31C288.27,292.78,273.47,281.74,256.46,284.5Z"/><path class="cls-12" d="M279.1,293.53H240.6a5.81,5.81,0,0,1,2.68-3.29,48,48,0,0,1,20.46-6.13,33.92,33.92,0,0,0-7.27.39c-17-2.76-31.81,8.28-31.81,8.28,0,8.77,14.24,17.31,31.81,17.31a53.58,53.58,0,0,0,7.28-.5c-10.21-1.41-18.53-5.67-22.32-10.78a5.74,5.74,0,0,1-.85-1.74H279.1a1.77,1.77,0,0,0,0-3.54Z"/><path class="cls-3" d="M372.71,165.92V205s-25.33-29.1-33.51-65.48c0,0-5.82,3.7-6.08,16.95a3.93,3.93,0,0,1-6.43,3c-14.52-12-46.67-42.14-44.63-73.21,0,0-15.53,44.91-74,74.43a3.93,3.93,0,0,1-5.52-4.64c3-10.06,5.68-26.83-3.81-40.19,0,0-5.16,62.36-57.93,89.16l0,0v-39c0-57.87,43.11-105,97.09-107.38,1.39-.08,2.79-.1,4.19-.1h29.37C327.36,58.44,372.71,106.56,372.71,165.92Z"/><path class="cls-13" d="M391.54,473.21l-1.44.89a254.43,254.43,0,0,1-126.33,37.77c-.48,0-1,0-1.44.05-1.6,0-3.22.07-4.83.07H256c-2.69,0-5.38,0-8.05-.13l-1.67-.06A254.62,254.62,0,0,1,119.6,472.67l-.11-.07c13.49-6.4,29.52-21.44,38.08-56.24.3-1.25.59-2.52.88-3.82a1.62,1.62,0,0,1,.74-1l18.87-11a1.57,1.57,0,0,1,2.34,1.27c0,.35,0,.73,0,1.13.87,14.95,8,70.28,65.83,75.7,2.74.26,5.59.41,8.56.43.9,0,1.78,0,2.65-.06h0q3.24-.11,6.27-.41c59-5.74,64.94-63.59,65.54-76.72v-.06a1.56,1.56,0,0,1,2.33-1.28l18.87,11a1.62,1.62,0,0,1,.74,1c.19.88.39,1.73.58,2.57C360.6,452,377.64,467.1,391.54,473.21Z"/><path class="cls-14" d="M139.65,215.37h-8.47a5,5,0,0,0-5,5v13.93a5,5,0,0,0,3.79,4.84c0,.06,0,.11,0,.17v14.59a4.45,4.45,0,0,0,4.45,4.45H141a4.46,4.46,0,0,0,4.46-4.45V239.32a4.46,4.46,0,0,0-.34-1.71,9.52,9.52,0,0,0,4.1-7.84v-4.86A9.54,9.54,0,0,0,139.65,215.37Z"/><path class="cls-14" d="M381.22,253.14c0,1.72,0,3.44-.11,5.15v0c-.05,1.4-.13,2.79-.23,4.18A129.86,129.86,0,0,1,343,345.57l-41.34,43.34L268.4,423.73h0l-4.62,4.85v83.28c-.48,0-1,0-1.44.05-1.6,0-3.22.07-4.83.07h0V428.65l-1.37-1.32h0L218,390.37l-30.22-29.31,0,0L171.84,345.6a130.67,130.67,0,0,1-28.13-41.74A129.08,129.08,0,0,1,133.78,261c-.06-.9-.11-1.8-.14-2.71v0c-.07-1.71-.11-3.43-.11-5.15h6.26c0,1.56,0,3.1.09,4.65,0,.19,0,.38,0,.57h0a123.73,123.73,0,0,0,36.34,82.77l3.39,3.29h0l44.14,42.79,36.76,35.65,36.2-37.95,41.72-43.74a123.76,123.76,0,0,0,36.35-82c0-.27,0-.55,0-.82h0c.08-1.74.11-3.47.11-5.22Z"/><path class="cls-14" d="M375.11,215.37h8.46a5,5,0,0,1,5,5v13.93a5,5,0,0,1-3.78,4.84c0,.06,0,.11,0,.17v14.59a4.45,4.45,0,0,1-4.45,4.45h-6.58a4.45,4.45,0,0,1-4.45-4.45V239.32a4.46,4.46,0,0,1,.34-1.71,9.53,9.53,0,0,1-4.11-7.84v-4.86A9.54,9.54,0,0,1,375.11,215.37Z"/><path class="cls-15" d="M257.5,479v33H256c-2.69,0-5.38,0-8.05-.13l-1.67-.06V478.63c2.74.26,5.59.41,8.56.43.9,0,1.78,0,2.65-.06Z"/><path class="cls-16" d="M334.07,55.23c1.09,12.35-.16,30.24-12.76,43.71a3.16,3.16,0,0,0,2.5,5.33c8.36-.59,20.61-2.32,27.37-7.39a3.16,3.16,0,0,1,4.89,1.32c1.71,4.41,3.81,11.59,2.9,18.43a3.16,3.16,0,0,0,5.61,2.32c6.05-7.38,11.12-20.55,3.59-42.54a3.16,3.16,0,0,0-5.53-.83l-1.17,1.59a3.15,3.15,0,0,1-5.14-.08L339.82,53.18A3.16,3.16,0,0,0,334.07,55.23Z"/></g></svg>
