<?xml version="1.0" encoding="UTF-8"?><svg id="Layer_2" xmlns="http://www.w3.org/2000/svg" xmlns:xlink="http://www.w3.org/1999/xlink" viewBox="0 0 3000 2000"><defs><style>.cls-1{fill:#e8a842;}.cls-2{fill:none;stroke:#231f20;stroke-miterlimit:10;}.cls-3{fill:url(#linear-gradient-2);}.cls-4{fill:#f7f5da;}.cls-5,.cls-6{fill:#fff;}.cls-7{fill:#2894e5;}.cls-8{fill:#0f8457;}.cls-9{fill:#e86279;}.cls-6{font-size:29.63px;}.cls-6,.cls-10{font-family:Poppins-Regular, Poppins;}.cls-11{fill:#c60a32;}.cls-12{fill:#f22248;}.cls-13,.cls-10{fill:#b7b17b;}.cls-14{fill:#e2961b;}.cls-15{fill:#015635;}.cls-16{fill:url(#_ÂÁ_Ï_ÌÌ_È_ËÂÌÚ_4);}.cls-17{fill:#0c8e5c;}.cls-18{fill:#d84a68;}.cls-19{fill:#efa42b;}.cls-20{fill:#f07384;}.cls-21{fill:#0f7cbf;}.cls-22{fill:#02734a;}.cls-23{fill:#ee8c28;}.cls-24{fill:#ffe094;}.cls-10{font-size:40.8px;}.cls-25{fill:url(#_ÂÁ_Ï_ÌÌ_È_ËÂÌÚ_4-2);}.cls-26{fill:#dd6b03;}.cls-27{fill:#f1ba53;}.cls-28{fill:url(#linear-gradient-3);}.cls-29{fill:url(#linear-gradient);}.cls-30{fill:#0468bf;}.cls-31{fill:#142126;}.cls-32{fill:#231f20;}.cls-33{fill:url(#linear-gradient-4);}.cls-34{fill:#ddd9a6;}</style><linearGradient id="_ÂÁ_Ï_ÌÌ_È_ËÂÌÚ_4" x1="1863.46" y1="863.15" x2="2194.67" y2="863.15" gradientUnits="userSpaceOnUse"><stop offset="0" stop-color="#d1e0db"/><stop offset="1" stop-color="#b1d5e0"/></linearGradient><linearGradient id="linear-gradient" x1="1880.3" y1="715.47" x2="2196.37" y2="1031.55" gradientUnits="userSpaceOnUse"><stop offset="0" stop-color="#fff" stop-opacity="0"/><stop offset="1" stop-color="#fff"/></linearGradient><linearGradient id="linear-gradient-2" x1="1902.82" y1="735.3" x2="2172.27" y2="1004.75" xlink:href="#linear-gradient"/><linearGradient id="_ÂÁ_Ï_ÌÌ_È_ËÂÌÚ_4-2" x1="1563.61" y1="504.37" x2="1799.22" y2="504.37" xlink:href="#_ÂÁ_Ï_ÌÌ_È_ËÂÌÚ_4"/><linearGradient id="linear-gradient-3" x1="1575.59" y1="399.32" x2="1800.44" y2="624.16" xlink:href="#linear-gradient"/><linearGradient id="linear-gradient-4" x1="1591.61" y1="413.42" x2="1783.29" y2="605.1" xlink:href="#linear-gradient"/></defs><rect class="cls-5" width="3000" height="2000"/><g><g><g><g><rect class="cls-13" x="2419.84" y="37.04" width="96.36" height="48.79" rx="24.39" ry="24.39"/><text class="cls-6" transform="translate(2453.03 72.99)"><tspan x="0" y="0">AI</tspan></text></g><g><g><rect class="cls-13" x="2533.97" y="37.04" width="96.36" height="48.79" rx="24.39" ry="24.39"/><text class="cls-6" transform="translate(2559.04 72.99)"><tspan x="0" y="0">EPS</tspan></text></g><g><g><rect class="cls-13" x="2648.09" y="37.04" width="96.36" height="48.79" rx="24.39" ry="24.39"/><text class="cls-6" transform="translate(2667.66 72.99)"><tspan x="0" y="0">SVG</tspan></text></g><g><g><rect class="cls-13" x="2762.22" y="37.04" width="96.36" height="48.79" rx="24.39" ry="24.39"/><text class="cls-6" transform="translate(2783.47 72.99)"><tspan x="0" y="0">PNG</tspan></text></g><g><rect class="cls-13" x="2876.34" y="37.04" width="96.36" height="48.79" rx="24.39" ry="24.39"/><text class="cls-6" transform="translate(2897.92 72.99)"><tspan x="0" y="0">JPG</tspan></text></g></g></g></g></g><text class="cls-10" transform="translate(1947.92 77.51)"><tspan x="0" y="0">Available Vector File</tspan></text></g><rect class="cls-13" x="48.27" y="121.04" width="2928.38" height="4.53"/><path class="cls-13" d="m116.42,90.88c-15,0-27.2-12.2-27.2-27.2s12.2-27.2,27.2-27.2,27.2,12.2,27.2,27.2-12.2,27.2-27.2,27.2Zm0-49.87c-12.5,0-22.67,10.17-22.67,22.67s10.17,22.67,22.67,22.67,22.67-10.17,22.67-22.67-10.17-22.67-22.67-22.67Z"/><path class="cls-13" d="m211.17,90.88c-15,0-27.2-12.2-27.2-27.2s12.2-27.2,27.2-27.2,27.2,12.2,27.2,27.2-12.2,27.2-27.2,27.2Zm0-49.87c-12.5,0-22.67,10.17-22.67,22.67s10.17,22.67,22.67,22.67,22.67-10.17,22.67-22.67-10.17-22.67-22.67-22.67Z"/><path class="cls-13" d="m305.91,90.88c-15,0-27.2-12.2-27.2-27.2s12.2-27.2,27.2-27.2,27.2,12.2,27.2,27.2-12.2,27.2-27.2,27.2Zm0-49.87c-12.5,0-22.67,10.17-22.67,22.67s10.17,22.67,22.67,22.67,22.67-10.17,22.67-22.67-10.17-22.67-22.67-22.67Z"/></g><g><circle class="cls-34" cx="1723.33" cy="535.76" r="314.93"/><polygon class="cls-4" points="679.6 1758.87 793.8 490.26 2053.18 490.26 2183.68 601.43 2278.09 869.71 2312.89 1758.87 679.6 1758.87"/><circle class="cls-5" cx="1402.86" cy="1145.7" r="282.61"/><g><path class="cls-34" d="m2427.11,1041.6l-149.02-171.89-149.02,171.89h57.76v70.41h-182.24v351.68c0,99.72,80.84,180.57,180.57,180.57h0c99.72,0,180.57-80.84,180.57-180.57v-422.09h61.4Z"/><path class="cls-13" d="m2186.82,1429.38c-.83,0-1.5-.67-1.5-1.5v-315.88c0-.83.67-1.5,1.5-1.5s1.5.67,1.5,1.5v315.88c0,.83-.67,1.5-1.5,1.5Z"/></g><path class="cls-24" d="m1145.36,1714.83c-203.58,0-369.2-165.62-369.2-369.2v-629.24c0-60.86-49.51-110.37-110.37-110.37h-107.68v-149.54h107.68c143.32,0,259.91,116.59,259.91,259.91v629.24c0,121.12,98.54,219.66,219.66,219.66s219.66-98.54,219.66-219.66v-360.7c0-214.48,174.49-388.97,388.97-388.97h236.31c31.48,0,57.08-25.61,57.08-57.09,0-113.93,92.69-206.63,206.63-206.63h39.91v149.54h-39.91c-31.48,0-57.09,25.61-57.09,57.09,0,113.93-92.69,206.63-206.62,206.63h-236.31c-132.02,0-239.43,107.41-239.43,239.43v360.7c0,203.58-165.62,369.2-369.2,369.2Z"/><path class="cls-12" d="m1520.49,883.39s-48.92-18.16,7.41-50.03c56.33-31.87,95.62-41.51,79.68-55.22-15.94-13.71-26.68-14.13,34.47-46.17,61.15-32.03,20.75-45.01,60.78-52.42,40.03-7.41,43.76,9.64,43.76,9.64,0,0,49.64-7.78,36.29,33.36-13.34,41.14-30.02,44.85-24.46,83.39,5.56,38.54,42.25,52.26,35.21,100.44-7.04,48.18-273.15-22.98-273.15-22.98Z"/><g><path class="cls-22" d="m1750.18,813.32l371.98-1.82v62.64s-292.48,22.29-359.44,26.51c-66.96,4.22-70.95-92.12-12.54-87.33Z"/><polygon class="cls-20" points="2118.46 816.05 2208.92 809.04 2184.03 858.48 2116.7 867.6 2118.46 816.05"/></g><g><g><path class="cls-27" d="m1736.69,1056.13c-51.02,59.64-53.47,119.72-53.47,119.72h-119.27c-53.47,0-143.86-8.46-143.86-8.46,46.12-166.02,162.28-342.65,170.86-349.83,6.01-5.03,43.52-9.06,65.71-11.01,9.63-.87,16.36-1.35,16.36-1.35,0,0,24.41.27,45.85,2.03h.03c12.89,1.08,24.67,2.66,29.55,5.03,13.01,6.34,23.27,44.68,33.74,94.48,10.44,49.8,5.53,89.75-45.49,149.39Z"/><path class="cls-22" d="m1686.69,936.92c-3.95,14.66-14.83,34.6-28.62,57.84v.03c-29.79,50.22-72.88,115.89-87.57,177.44l-150.41-4.85c46.12-166.02,162.28-342.65,170.86-349.83,3.8-3.17,20.13-5.95,37.27-8.08,9.99-1.23,20.25-2.21,28.44-2.93,0,0,42.41,83.98,30.03,130.37Z"/><path class="cls-17" d="m1686.69,936.92c-3.95,14.66-14.83,34.6-28.62,57.84,7.36-36.88,6.1-75.1-3.2-111.74,3.71-4.34,7.72-8.58,11.42-12.95-4.81-1.11-10.05-2.39-14.83-3.53-6.4-19.53-14.15-38.64-23.24-57.06,9.99-1.23,20.25-2.21,28.44-2.93,0,0,42.41,83.98,30.03,130.37Z"/><path class="cls-22" d="m1736.69,1056.13c-51.02,59.64-53.47,119.72-53.47,119.72h-5.65c4.22-75.25,47.31-131.98,64-156.21,5.29-7.72,9.24-15.97,11.99-24.91,6.13-19.95,6.25-43.34,2.15-71.63-6.61-45.52-33.68-108.69-36.82-115.86,11.34.96,21.83,2.3,27.51,4.22.78.27,1.47.54,2.03.81,13.01,6.34,25.32,43.13,35.79,92.93,10.44,49.8,3.48,91.3-47.54,150.94Z"/><path class="cls-15" d="m1784.23,906.68c-.69,0-1.31-.48-1.46-1.19-14.49-68.92-27.02-88.01-34.98-91.89-.74-.36-1.05-1.26-.69-2,.37-.74,1.27-1.05,2-.69,12.45,6.07,24.76,37.68,36.59,93.96.17.81-.35,1.6-1.16,1.77-.1.02-.21.03-.31.03Z"/><path class="cls-17" d="m1753.56,994.73c6.13-19.95,6.25-43.34,2.15-71.63-6.61-45.52-33.68-108.69-36.82-115.86,11.34.96,21.83,2.3,27.51,4.22,4.01,12.35,12.53,39.03,12.77,43.79l-9,7.21,12.53,7.84s5.62,27.81,6.61,62.84c.96,34.03-14.89,60.17-15.76,61.61Z"/><path class="cls-19" d="m1734.83,982.7c-5.73.61-11.4,2.57-16.97,4-6.15,1.58-12.27,3.25-18.4,4.91-12.03,3.25-24.05,6.55-36.03,9.96-1.53.44-.89,2.73.66,2.38,11.93-2.72,23.83-5.54,35.72-8.43,5.94-1.44,11.9-2.84,17.82-4.36,5.82-1.49,12.15-2.51,17.69-4.82,1.72-.72,1.8-3.88-.49-3.63Z"/><path class="cls-19" d="m1715.03,1017.76c-15.37,1.93-30.62,5.36-45.84,8.21-1.39.26-.79,2.33.58,2.11,15.17-2.48,30.6-4.4,45.6-7.79,1.39-.31,1.12-2.72-.34-2.53Z"/></g><path class="cls-17" d="m1503.31,1114.4c.52-.78,45.02-35.4,45.02-35.4l7.81,19.78-46.85,34.09-5.99-18.48Z"/></g><path class="cls-2" d="m1185.31,1660.96c.03.09.03.12,0,.12-.09,0-.12-.03,0-.12Z"/><path class="cls-20" d="m1762.71,722.99s-6.16,43.93-9.81,58.44c-3.62,14.53-9.06,9.45-30.83,9.81,0,0-1.02,2.84-2.24,8.91-1.14,5.32-2.45,13.13-3.47,23.66-2.18,22.49-.57,62.06-2.36,66.75-1.82,4.73-43.85-61.58-42.02-78.63,1.82-17.08,12.71-44.65,12.71-44.65,0,0-16.12-9.09-12.77-25.78,3.32-16.69,21.12-8.7,20.01,5.8l3.29.75,6.16-19.26s12.71.75,24.31-16.33c0,0,37.03-19.23,37.03,10.53Z"/><path class="cls-18" d="m1722.07,791.23s-1.02,2.84-2.24,8.91c-11.01-3.56-19.68-13.52-19.68-13.52l21.92,4.61Z"/><path class="cls-27" d="m1766.06,738.7c-1.88-2.33-6.67-4.14-11.38-4.32-4.1-.16-7.49.96-9.55,3.14-.17.18-.29.39-.35.62-.04.14-.31,1.15-.58,2.66-.27-1.1-.69-2.12-1.4-3-1.88-2.33-6.67-4.14-11.38-4.32-3.73-.14-6.81.81-8.9,2.62l-38.8-5.69c-.8-.18-1.61.32-1.79,1.13-.18.8.32,1.61,1.13,1.79l38.07,5.53c-.75,3.55-1.99,12.13,2.01,17.3,2.62,3.39,6.85,5.12,11.03,4.52,1.17-.17,2.26-.51,3.24-1,2.02-1.01,3.58-2.66,4.38-4.73.71-1.84,1.4-3.82,1.92-5.81.23,2.83.97,5.69,2.7,7.92,2.62,3.39,6.85,5.12,11.03,4.52,1.17-.17,2.26-.51,3.24-1,2.02-1.01,3.58-2.66,4.38-4.73,2.24-5.78,4.38-12.95,1-17.14Zm-27.05,15.16c-.79,2.05-2.76,3.5-5.26,3.86-3.12.45-6.27-.85-8.24-3.39-3.68-4.76-1.69-13.96-1.21-15.91,1.49-1.37,3.95-2.06,7-1.95,4.19.16,8.02,1.79,9.17,3.21,1.83,2.27,1.36,6.91-1.46,14.18Zm23.27.9c-.79,2.05-2.76,3.49-5.26,3.86-3.12.45-6.28-.84-8.24-3.38-3.68-4.76-1.69-13.96-1.21-15.91,1.48-1.37,3.95-2.07,7-1.95,4.19.16,8.02,1.79,9.17,3.21,1.84,2.27,1.36,6.91-1.46,14.17Z"/><ellipse class="cls-32" cx="1733.41" cy="746.46" rx="1.55" ry="3.49"/><ellipse class="cls-32" cx="1750.18" cy="747.54" rx="1.55" ry="3.49"/><path class="cls-32" d="m1737.3,730.94c-.63-.28-1.3-.45-1.98-.54-.66-.09-1.31-.16-1.97-.09-.66.07-1.3.18-1.93.37-.77.23-.65,1.46.19,1.43.52-.02,1.13.01,1.53.08.53.09,1.07.2,1.58.35.25.08.5.17.75.26.02,0,.01,0,.03.01.06.02.12.05.17.08.13.06.25.12.38.18.31.14.63.34.96.44.35.1.79.23,1.13.09.39-.16.75-.49.73-.96-.05-.87-.85-1.39-1.58-1.71Z"/><path class="cls-32" d="m1754.65,731.7c-.5-.75-1.45-.8-2.27-.8-.65,0-1.33.05-1.97.18-1.2.25-2.35.76-3.37,1.43-.63.41-.25,1.51.53,1.26,1.06-.34,2-.5,3.08-.51.54,0,1.08-.03,1.62.02.15.01.3.03.45.05-.35-.05.48.06.33.05.4.03.87.06,1.21-.19.45-.33.74-.95.39-1.48Z"/><path class="cls-18" d="m1748.34,762c-.56-1.48-1.26-2.93-1.89-4.39-.64-1.47-1.3-2.94-1.95-4.41-.43-.98-2.1-.28-1.74.74.91,2.56,1.83,5.12,2.77,7.67-.26-.07-.52-.17-.77-.22-.63-.12-1.26-.19-1.9-.18-.65,0-1.6-.01-2.13.39-.71.54-.71,1.71.26,1.98.44.12.85.01,1.29-.02.34-.02.67-.03,1.01,0,.65.03,1.3.16,1.91.39.79.3,1.48.64,2.31.23.82-.41,1.17-1.31.84-2.17Z"/><path class="cls-5" d="m1739.7,766.96c-.09,0-.17-.01-.26-.02-.11-.01.08.02-.09-.01-.08-.01-.17-.04-.25-.05-.08-.02-.07-.01.03.02-.09-.04-.18-.08-.27-.12-.1-.01-.2-.03-.3-.04.11.02.13.02.05,0-.08-.02-.17-.03-.26-.05-.17-.04-.34-.08-.51-.12-.17-.04-.33-.09-.5-.15-.02,0-.28-.1-.16-.06.11.05-.16-.07-.15-.07-.31-.15-.61-.33-.89-.53-.01-.01-.02-.01-.03-.02-.07-.06-.14-.12-.21-.18-.12-.11-.24-.22-.35-.34-.11-.12-.21-.24-.32-.37-.04-.05-.08-.1-.12-.15,0,0-.15-.19-.11-.13-.12-.16-.34-.51-.47-.76-.15-.29-.24-.52-.34-.84-.11-.34-.44-.58-.8-.52-.33.05-.66.35-.63.72.14,1.64.83,3.16,2.1,4.24.7.6,1.5,1.05,2.37,1.34.4.13.91.26,1.32.25-.17,0,.61-.11.31-.06.1-.02.21-.02.31-.04.26-.03.51-.07.77-.13.45-.1.73-.59.67-1.03-.06-.48-.45-.78-.92-.81Z"/><path class="cls-18" d="m1684.76,742.57c-.79-1.79-3.02-2.36-4.75-1.68-1.82.72-3.08,2.4-3.62,4.25-1.15,3.99,1.07,7.83,3.95,10.43.73.65,1.66-.32,1.06-1.06-1.82-2.23-3.44-4.92-3.12-7.9.14-1.24.68-2.51,1.66-3.31.94-.76,2.47-1,3.06.29.23.5.94.61,1.38.36.52-.29.58-.88.36-1.38Z"/><g><g><path class="cls-20" d="m1729.01,1741.23c-50.28-5.14-186.62-25.69-290.53-41.78-72.91-11.27-129.83-20.34-129.83-20.34l12.41-86.49h24.85l121.72,1.44,118.5,1.38,32.03.39-7.78-6.37s-43.81-38.88-89.93-86.82c-42.08-43.79-86.04-95.11-100.37-131.3-29.97-75.85,7-182.77,7-182.77l21.77-2.03,115.09-10.68s45.79,68.04,101.12,150.91c9.33,14,18.96,28.41,28.68,43.01,19.08,28.65,38.55,57.96,57.06,85.95,47.14,71.24,88.08,134.02,101,156.12,35.83,61.4-37.3,138.17-122.8,129.38Z"/><path class="cls-20" d="m2115.06,1543.06c-.21,8.85-.42,17.5-.6,25.9-.15,5.62-.27,11.13-.42,16.48-1.46,60.08-2.78,103.51-2.78,103.51h-112.42l-7.36-82.67-1.44-16.21-2.63-29.46-19.92-223.77-122.11,14.69-151.63,18.24-71.84,8.64c-5.41-.3-10.68-.72-15.76-1.29-153.97-16.75-159.11-151.39-157.28-190.6.3-6.76.84-10.68.84-10.68h534.6c7.18,0,13.94.09,20.28.24,88.47,2.18,101.96,19.86,110.24,60.17,5.35,25.99,2.96,184.59.24,306.79Z"/><path class="cls-18" d="m1614.21,1592.57l-3.81-3.12s-43.81-38.88-89.93-86.82c12.44-20.85,36.25-59.22,70.22-106.89,4.37-6.1,9.54-12.32,15.46-18.6,15.34-16.33,35.59-33.2,58.92-50.37,68.7-50.51,164.01-103.33,238.72-150.91h80.51c7.18,0,13.94.09,20.28.24l-159.2,175.44-151.63,18.24c19.08,28.65,38.55,57.96,57.06,85.95l-121.34,133.72,64.96,70.37c-1.33-.62-76.26-64-76.26-64l-3.96-3.25Z"/><path class="cls-18" d="m1693.46,1662.45c-.35,0-.7-.12-.98-.36l-75.29-65.14c-.63-.54-.69-1.48-.15-2.11.54-.63,1.49-.69,2.11-.15l75.29,65.14c.63.54.69,1.48.15,2.11-.29.34-.71.52-1.13.52Z"/><path class="cls-27" d="m2115.06,1543.06c-.21,8.85-.42,17.5-.6,25.9-.15,5.62-.27,11.13-.42,16.48-1.46,60.08-2.78,103.51-2.78,103.51h-112.42l-7.36-82.67-1.44-16.21-2.63-29.46c42.44-6.49,85.03-12.35,127.65-17.56Z"/><path class="cls-24" d="m2114.46,1568.96c-.15,5.62-.27,11.13-.42,16.48-40.97,6.28-81.83,13.25-122.56,20.84l-1.44-16.21c41.33-7.75,82.82-14.77,124.42-21.12Z"/><path class="cls-27" d="m1467.64,1594.05c-6.79,15.34-23.27,56.47-29.16,105.39-7.39-1.14-14.59-2.27-21.62-3.35-5.26-.84-10.41-1.62-15.4-2.42-54.28-8.43-92.8-14.57-92.8-14.57l12.41-86.49h24.85l81.32.96,16.03.18,24.37.3Z"/><path class="cls-24" d="m1443.27,1593.75c-11.22,33.41-20.07,67.65-26.41,102.35-5.26-.84-10.41-1.62-15.4-2.42,6.22-33.92,14.83-67.38,25.78-100.1l16.03.18Z"/></g><path class="cls-31" d="m1420.1,1167.38s-50.85,118.9-22.4,202.22c28.45,83.32,212.7,219.85,212.7,219.85,0,0,373.91-413.61,373.91-413.59s-301.1,0-301.1,0l-263.1-8.48Z"/><g><path class="cls-30" d="m2275.16,1758.87h-287.59s-.42-7.63-.57-18.12c0-1.29,0-2.6-.03-3.98-.15-23.6,1.26-57.63,10.56-57.63,0,0,69.51-2.33,114.97-33.05,0,0,10.92,6.82,26.68,16.24,1.14.69,2.3,1.38,3.5,2.09,3.62,2.15,7.45,4.43,11.4,6.76,1.23.69,2.45,1.41,3.71,2.12,3.68,2.18,7.48,4.37,11.37,6.61,1.26.69,2.54,1.44,3.83,2.15,3.77,2.15,7.6,4.31,11.43,6.43,1.32.72,2.63,1.44,3.95,2.15,3.89,2.15,7.78,4.25,11.57,6.25,1.34.69,2.66,1.4,3.98,2.09,15.49,8.05,29.52,14.57,38.76,17.26,45.37,13.19,32.51,42.62,32.51,42.62Z"/><path class="cls-7" d="m2215.43,1741.26c-8.82,1.14-18,.51-26.89.51h-26.89c-31.64.03-63.25-.39-94.87-.57-15.7-.06-31.37-.12-47.07-.24-10.83-.06-21.83.21-32.72-.21,0-1.29,0-2.6-.03-3.98,12.89-.54,25.93-.15,38.73-.21,31.61-.18,63.25-.33,94.87-.51,15.7-.06,31.37-.27,47.08-.27h23.9c7.9.03,16.03-.51,23.9.51,3.2.39,3.2,4.58,0,4.97Z"/><path class="cls-7" d="m2143.37,1659.19c-8.76,5.86-15.94,13.96-21.48,22.91-2.03,3.27,3.07,6.21,5.13,3,2.65-4.12,5.39-8.21,8.48-12.02,3.16-3.9,6.37-7.78,9.64-11.6,1.01-1.18-.3-3.27-1.77-2.29Z"/><path class="cls-7" d="m2158.94,1667.52c-8.76,5.86-15.94,13.96-21.48,22.91-2.03,3.27,3.07,6.21,5.13,3,2.65-4.12,5.39-8.21,8.48-12.02,3.16-3.9,6.37-7.78,9.64-11.6,1.01-1.18-.3-3.27-1.77-2.29Z"/><path class="cls-7" d="m2174.5,1675.86c-8.76,5.86-15.94,13.96-21.48,22.91-2.03,3.27,3.07,6.21,5.13,3,2.65-4.12,5.39-8.21,8.48-12.02,3.16-3.9,6.37-7.78,9.64-11.6,1.01-1.18-.3-3.27-1.77-2.29Z"/><path class="cls-7" d="m2190.07,1684.2c-8.76,5.86-15.94,13.96-21.48,22.91-2.03,3.27,3.07,6.21,5.13,3,2.65-4.12,5.39-8.21,8.48-12.02,3.16-3.9,6.37-7.78,9.64-11.6,1.01-1.18-.3-3.27-1.77-2.29Z"/><path class="cls-7" d="m2205.63,1692.54c-8.76,5.86-15.94,13.96-21.48,22.91-2.03,3.27,3.07,6.21,5.13,3,2.65-4.12,5.39-8.21,8.48-12.02,3.16-3.9,6.37-7.78,9.64-11.6,1.01-1.18-.3-3.27-1.77-2.29Z"/></g><g><path class="cls-30" d="m1147.51,1745.22l207.43-216.9s5.81,4.95,13.51,12.1c.93.89,1.88,1.8,2.9,2.73,17.16,16.2,40.75,40.78,34.04,47.8,0,0-46.84,25.76-34.37,98,0,0-37.47,15.06-55.65,20.44-1.32.38-2.66.79-4.04,1.19-4.17,1.24-8.57,2.56-13.1,3.92-1.38.45-2.78.88-4.21,1.33-4.23,1.27-8.55,2.62-12.97,4-1.4.47-2.87.93-4.32,1.4-4.27,1.35-8.59,2.75-12.89,4.17-1.47.5-2.94.99-4.4,1.49-4.36,1.44-8.68,2.93-12.87,4.41-1.47.54-2.93,1.04-4.38,1.55-16.99,6.12-31.82,12.2-40.43,17.31-42.26,25.1-54.25-4.94-54.25-4.94Z"/><path class="cls-7" d="m1203.32,1712.36c5.54-7.44,12.62-13.93,19.03-20.63l19.39-20.28c22.8-23.88,45.9-47.44,68.84-71.15,11.37-11.8,22.71-23.58,34.12-35.34,7.85-8.12,15.6-16.61,23.75-24.53.93.89,1.88,1.8,2.9,2.73-8.91,10.09-18.59,19.66-27.78,29.36-22.67,23.97-45.39,47.93-68.06,71.9-11.28,11.88-22.43,23.85-33.76,35.69l-17.23,18.02c-5.72,5.93-11.2,12.44-17.6,17.67-2.59,2.14-5.61-.75-3.59-3.43Z"/><path class="cls-7" d="m1314.61,1714.73c2.08-10.66,1.41-21.67-1.06-32.03-.9-3.79-6.7-1.97-5.87,1.8,1.07,4.85,2.05,9.74,2.57,14.7.54,5.08,1.03,10.18,1.43,15.28.12,1.58,2.58,2.03,2.93.25Z"/><path class="cls-7" d="m1297.35,1720.71c2.08-10.66,1.41-21.67-1.06-32.03-.9-3.79-6.7-1.97-5.87,1.8,1.07,4.85,2.05,9.74,2.57,14.7.54,5.08,1.03,10.18,1.43,15.28.12,1.58,2.58,2.03,2.93.25Z"/><path class="cls-7" d="m1280.1,1726.69c2.08-10.66,1.41-21.67-1.06-32.03-.9-3.79-6.7-1.97-5.87,1.8,1.07,4.85,2.05,9.74,2.57,14.7.54,5.08,1.03,10.18,1.43,15.28.12,1.58,2.58,2.03,2.93.25Z"/><path class="cls-7" d="m1262.85,1732.66c2.08-10.66,1.41-21.67-1.06-32.03-.9-3.79-6.7-1.97-5.87,1.8,1.07,4.85,2.05,9.74,2.57,14.7.54,5.08,1.03,10.18,1.43,15.28.12,1.58,2.58,2.03,2.93.25Z"/><path class="cls-7" d="m1245.59,1738.64c2.08-10.66,1.41-21.67-1.06-32.03-.9-3.79-6.7-1.97-5.87,1.8,1.07,4.85,2.05,9.74,2.57,14.7.54,5.08,1.03,10.18,1.43,15.28.12,1.58,2.58,2.03,2.93.25Z"/></g></g><g><g><path class="cls-26" d="m2213.03,728.65l-23.72-26.08-7.68,6.99c-53.65-15.89-140.97,16.58-216.53,85.31-75.56,68.73-116.15,152.59-105.39,207.5l-7.68,6.99,23.72,26.08c43.79,48.14,154.79,18.49,247.93-66.23,93.14-84.72,133.15-192.42,89.36-240.57Z"/><ellipse class="cls-23" cx="2020.67" cy="855.97" rx="227.97" ry="117.84" transform="translate(-50.1 1582.4) rotate(-42.29)"/><path class="cls-26" d="m2092.61,935.1c-78.49,71.41-169.59,102.17-216.22,76.14-5.33-2.99-10.07-6.68-14.16-11.17-39.74-43.68-1-143.62,86.47-223.2,87.52-79.59,190.69-108.71,230.43-65.03.9,1,1.79,2.05,2.59,3.14,35.26,45.18-3.64,142.37-89.11,220.11Z"/><path class="cls-16" d="m2139.86,884.41c-13.54,17.32-29.39,34.43-47.25,50.7-78.5,71.39-169.6,102.16-216.23,76.14-4.16-5.38-7.27-11.43-9.42-18.16-12.4-38.81,8.7-98.17,54.32-154.88,12.82-16.06,27.66-31.87,44.27-46.96,78.49-71.35,169.56-102.16,216.18-76.26,4.84,6.18,8.24,13.33,10.34,21.31,10.13,37.97-9.84,94.01-52.22,148.12Z"/><path class="cls-29" d="m2193,776.44c-2.65,15.89-8.41,33.17-17.07,51.04-9.04,18.63-21.15,37.88-36.07,56.93l-272.9,108.68c-4.25-13.24-4.58-28.84-1.34-45.95,3.24-17.19,10.05-35.95,20.14-55.2,9.21-17.7,21.15-35.82,35.53-53.73l270.8-101.91c3.15,11.81,3.41,25.39.93,40.15Z"/><path class="cls-3" d="m2193,776.44c-2.65,15.89-8.41,33.17-17.07,51.04l-310.32,119.65c3.24-17.19,10.05-35.95,20.14-55.2l307.25-115.49Z"/></g><path class="cls-21" d="m1872.19,1025.28l-475.95,418.04c-15.69,13.78-16.47,37.95-1.71,52.71h0c14.24,14.24,37.36,14.09,51.42-.32l291.07-298.29,154.02-153.62-18.85-18.52Z"/></g><path class="cls-20" d="m1475.97,1293.39c1.33,2.95,2.92,5.77,4.76,8.43,2.29,3.32,4.94,6.38,7.27,9.67,6.85,9.69,10.78,21.41,11.15,33.27.22,7.12-.77,14.49,1.6,21.21,1.63,4.63,4.74,8.57,7.8,12.41,4.43,5.57,8.94,11.19,14.61,15.49,2.72,2.06,5.75,3.82,9.1,4.49,3.35.67,7.05.13,9.7-2.01,2.66-2.14,3.98-6.02,2.63-9.16l-.16-.93c2.44.98,5.37.65,7.53-.86,2.16-1.51,3.48-4.14,3.4-6.77-.03-.94-.16-2.06.57-2.66.47-.39,1.13-.4,1.73-.45,2.9-.26,5.61-2.06,6.98-4.62,1.37-2.56,1.37-5.82-.02-8.37,4.59,1.23,9.31-1.35,12.14-5.18,4.24-5.73-4.24-17.39-12.94-29.91-8.7-12.52-10.39-19.3-3.82-26.73,6.58-7.42,24.82-23.12,22.91-24.61-1.91-1.48-20.58,4.67-21.21,4.24-.64-.42-24.18-34.79-24.18-34.79l-61.54,47.83Z"/><g><path class="cls-22" d="m1588.03,820.98s-153.03,138.76-195.32,182.98c-42.3,44.22-41.82,58.16-33.16,100.45,8.65,42.3,114.39,201.39,114.39,201.39l77.38-62-88.6-168.11s125.54-107.77,157.74-139.38c32.2-31.62,21.11-148.83-32.43-115.33Z"/><g><path class="cls-15" d="m1469.27,1084.76c-1.52-3.51-3.61-6.86-5.43-10.22-1.9-3.52-3.81-7.02-5.74-10.52-3.79-6.87-7.59-13.74-11.38-20.61-.72-1.3-2.68-.14-1.98,1.16,3.69,6.93,7.38,13.86,11.07,20.8,1.81,3.4,3.64,6.8,5.48,10.19,1.89,3.48,3.61,7.18,5.8,10.48.92,1.38,2.81.19,2.18-1.27Z"/><path class="cls-15" d="m1598.75,954.63c-12.03,8.95-22.93,19.79-34.17,29.71-11.4,10.06-22.8,20.11-34.17,30.2-22.9,20.33-46.13,40.36-68.26,61.55-.93.89.43,2.17,1.39,1.39,23.58-19.22,46.16-39.66,69-59.74,11.23-9.87,22.42-19.79,33.62-29.7,11.48-10.16,23.91-19.85,34.49-30.93,1.18-1.23-.42-3.57-1.9-2.47Z"/><path class="cls-15" d="m1539.5,1216.13c-12.49-23.86-25.66-47.36-38.28-71.15-12.61-23.77-24.73-47.8-37.7-71.38-.84-1.52-2.95-.18-2.28,1.33,10.9,24.66,23.34,48.59,35.99,72.38,12.63,23.75,25.45,47.49,39.56,70.41,1.06,1.73,3.65.2,2.71-1.59Z"/></g></g><g><path class="cls-32" d="m1545.26,1385.29c-3.29-3.27-6.53-6.59-9.8-9.87-1.6-1.6-3.16-3.24-4.69-4.91-.8-.88-1.59-1.77-2.38-2.66-.77-.87-1.55-1.95-2.55-2.55-1.11-.67-2.87.47-2.35,1.8.44,1.14,1.34,2.09,2.13,3.02.77.91,1.57,1.79,2.37,2.67,1.6,1.76,3.25,3.48,4.93,5.17,3.38,3.39,7.05,6.37,10.95,9.14,1.08.77,2.3-.9,1.39-1.8Z"/><path class="cls-32" d="m1556.87,1374.18c-.52-1.42-1.7-2.23-2.8-3.2-1.08-.94-2.14-1.9-3.2-2.86-2.17-1.98-4.32-3.99-6.44-6.02-4.24-4.06-8.32-8.29-12.24-12.66-1.02-1.14-2.62.52-1.66,1.67,3.76,4.52,7.68,8.91,11.76,13.13,1.99,2.06,4.03,4.06,6.12,6.01,1.1,1.03,2.21,2.04,3.33,3.05,1.05.94,2.11,2.17,3.54,2.46.88.18,1.95-.59,1.59-1.59Z"/><path class="cls-32" d="m1566.66,1361.39c-.76-1.31-1.88-2.29-2.93-3.35-1.14-1.14-2.27-2.3-3.37-3.49-2.15-2.3-4.32-4.57-6.36-6.97-4.11-4.82-7.85-9.94-11.22-15.31-.92-1.46-3.2-.15-2.32,1.36,3.23,5.57,6.85,10.89,10.83,15.95,1.94,2.47,3.95,4.93,6.12,7.21,1.11,1.17,2.26,2.31,3.43,3.43,1.19,1.15,2.37,2.41,3.88,3.13,1.24.59,2.72-.64,1.96-1.96Z"/></g><path class="cls-20" d="m2236.23,799.59c-.96-.12-22.68-1.37-34.35,1.37-11.68,2.75-6.18,12.59,0,12.82,0,0-5.49,2.29-4.81,7.1.69,4.81,5.95,5.72,5.95,5.72,0,0-7.1,4.58-3.66,9.62l3.43,5.04s-7.56,6.18-5.27,10.3c2.29,4.12,14.19,1.83,25.64,1.6,11.45-.23,7.1-5.72,11.45-12.13,4.35-6.41,1.37-2.52,3.43-11.45,2.06-8.93.46-8.01,3.21-13.97,2.75-5.95,4.13-14.88-5.02-16.03Z"/><g><path class="cls-32" d="m2203.82,815.33c-.76,0-1.41-.58-1.49-1.36-.08-.82.53-1.55,1.35-1.63,7.68-.71,15.49-1.01,23.19-.89.82.01,1.48.69,1.47,1.52-.01.82-.68,1.47-1.5,1.47,0,0-.01,0-.02,0-7.6-.11-15.29.18-22.87.88-.05,0-.09,0-.14,0Z"/><path class="cls-32" d="m2226.41,828.19c-.06,0-.11,0-.17,0-7.29-.81-14.69-.96-22-.46-.82.06-1.54-.56-1.59-1.39-.06-.82.57-1.54,1.39-1.6,7.49-.52,15.07-.36,22.54.47.82.09,1.41.83,1.32,1.65-.08.76-.73,1.33-1.48,1.33Z"/><path class="cls-32" d="m2202.61,843.14c-.8,0-1.46-.63-1.5-1.43-.03-.83.61-1.52,1.43-1.56,7.97-.33,16.06-.41,24.03-.25.83.02,1.48.7,1.47,1.53-.02.82-.68,1.46-1.5,1.46,0,0-.02,0-.03,0-7.92-.16-15.94-.08-23.85.25-.02,0-.04,0-.06,0Z"/></g><path class="cls-34" d="m679.6,1758.87h1643.18c2.41,0,2.66,3.52.27,3.84-48.64,6.46-134.65,20.36-119.63,36.41,20.74,22.17,41.68,64.05-171.4,64.05h-587.56c-184.72,0-8.44-67.75-219.75-67.75h-421.94c-117.01,0-123.17-36.56-123.17-36.56Z"/><path class="cls-23" d="m698.8,333.2c27.38,0,40.89,15.94,53.96,31.36,12.15,14.33,23.62,27.87,46.43,27.87,22.81,0,34.28-13.54,46.43-27.87,13.06-15.42,26.57-31.36,53.96-31.36,27.38,0,40.89,15.94,53.95,31.36,12.14,14.33,23.61,27.87,46.42,27.87,22.8,0,34.27-13.54,46.42-27.87,13.06-15.42,26.57-31.36,53.95-31.36,27.38,0,40.89,15.94,53.95,31.36,12.14,14.33,23.61,27.87,46.42,27.87,22.8,0,34.27-13.54,46.42-27.87,13.06-15.42,26.57-31.36,53.95-31.36,27.38,0,40.88,15.94,53.94,31.36,12.14,14.33,23.61,27.87,46.41,27.87,2.73,0,4.94,2.21,4.94,4.94,0,2.73-2.21,4.94-4.94,4.94-27.38,0-40.88-15.94-53.94-31.36-12.14-14.33-23.61-27.87-46.41-27.87-22.8,0-34.27,13.54-46.42,27.87-13.06,15.42-26.57,31.36-53.95,31.36-27.38,0-40.89-15.94-53.95-31.36-12.14-14.33-23.61-27.87-46.42-27.87-22.8,0-34.27,13.54-46.42,27.87-13.06,15.42-26.57,31.36-53.95,31.36-27.38,0-40.89-15.94-53.95-31.36-12.14-14.33-23.61-27.87-46.42-27.87-22.81,0-34.28,13.54-46.43,27.87-13.06,15.42-26.57,31.36-53.96,31.36-27.38,0-40.89-15.94-53.96-31.36-12.15-14.33-23.62-27.87-46.43-27.87-2.73,0-4.94-2.21-4.94-4.94,0-2.73,2.21-4.94,4.94-4.94Z"/><polygon class="cls-24" points="2441.88 404.58 2279.2 275.08 2279.2 534.09 2441.88 404.58"/><g><g><path class="cls-9" d="m1292.56,1603.86s-104.83,54.13-107.25,57.1c-2-8.94-223.59-509.33-223.59-509.33-1.71-3.59-3.44-7.18-5.17-10.77-4.01-8.4-8.05-16.72-12.05-24.97-79.79-163.3-157.22-294.98-157.22-294.98,0,0,99.26-209.86,195,24.29l113.86,215.79,7.75,14.71,4.52,12.65,184.17,515.52Z"/><path class="cls-18" d="m1108.39,1088.34l-151.84,52.52c-4.01-8.4-8.05-16.72-12.05-24.97,3.71-11.93,15.97-15.88,15.97-15.88l135.66-39.03,7.75,14.71,4.52,12.65Z"/><path class="cls-20" d="m871.1,918.37c0,15.88,19.38,115.71,35.02,201.22,2.15,11.81,4.25,23.36,6.22,34.36,7.75,43.43,13.43,78.57,13.31,89.51-.3,33.77,0,451.76,0,451.76h-116.49l-39.39-427.83-22.49-57.42-5.26-13.4c-1.17-3.26-2.36-6.49-3.53-9.69-36.97-101.84-67.89-180.49-67.86-326.8,0-103.84,225.8-186.6,225.8-186.6,0,0,85.83,167.45,85.83,171.7s-111.17,46.42-111.17,73.19Z"/><path class="cls-18" d="m912.35,1153.96l-165.06,56.02-5.26-13.4c-1.17-3.26-2.36-6.49-3.53-9.69l167.63-67.29c2.15,11.81,4.25,23.36,6.22,34.36Z"/><path class="cls-30" d="m925.67,626.89s-214.03,59.47-259.15,175.96c-42.2,108.94,75.52,393.71,75.52,393.71l361.85-120.88-85.78-223.13-92.44-225.66Z"/></g><path class="cls-31" d="m1175.6,561.3s16.82-85.56,101.42-83.83c84.61,1.73,105.37-32.23,132.4-19.57,0,0,12.64-23.6,43.72-19.57,31.08,4.03,71.37-.58,56.98,78.28-14.39,78.85,41.15,212.09-10.94,264.18-52.09,52.09-372.97,1.82-323.59-219.49Z"/><g><g><path class="cls-20" d="m1177.21,1047.25l-9.93,24.49-2.66,6.55s-7.57,86.08-3.35,102.05c4.19,15.94-2.96,21.83-2.96,21.83,1.26,14.26-5.86,13.43-5.86,13.43,1.4,7.96-2.96,18.9-10.08,0-7.15-18.9-31.49-101.6-28.14-78.93s-7.99,31.91-12.59,6.7c-4.61-25.18-9.96-49.26-11.28-63.17-1.29-13.94,7.87-19.23,7.87-19.23l16-36.04,4.64-10.44,58.35,32.75Z"/><g><path class="cls-18" d="m1152.6,1216.2c-.64,0-1.24-.42-1.43-1.07l-23.37-77.71c-.24-.79.21-1.62,1-1.86.78-.24,1.63.21,1.86,1l23.37,77.71c.24.79-.21,1.62-1,1.86-.14.04-.29.06-.43.06Z"/><path class="cls-18" d="m1158.48,1202.76c-.67,0-1.27-.45-1.45-1.12l-17.56-67.79c-.21-.8.27-1.62,1.07-1.82.8-.21,1.62.27,1.82,1.07l17.56,67.79c.21.8-.27,1.62-1.07,1.82-.13.03-.25.05-.37.05Z"/></g><polygon class="cls-18" points="1177.21 1047.25 1167.28 1071.74 1114.22 1024.94 1118.86 1014.5 1177.21 1047.25"/></g><path class="cls-1" d="m1415.21,650.21l-223.85,419.46s-81.71-52.82-78.78-54.77c2.93-1.96,192.68-364.69,192.68-364.69,0,0,37.78-48.84,77.64-43.92,39.86,4.92,32.31,43.92,32.31,43.92Z"/></g><path class="cls-27" d="m1352.78,710.99c-54.61,44.71-159.68,52.07-211.33,71.12-30.6,11.28-40.09,27.87-78.1,47.13-26.14,13.22-45.25,23.3-45.25,23.3l-92.45-225.65s154.16-53.24,269.27-68.46c115.09-15.22,153.49,0,153.49,0l43.34,30c57.03,64.36,6.19,85.57-38.97,122.56Z"/><path class="cls-14" d="m1063.35,829.25c-26.14,13.22-45.25,23.3-45.25,23.3l-92.45-225.65,137.7,202.36Z"/><path class="cls-1" d="m1328.76,551.16s-35.47,27.13-38.5,98.77c0,0,20.29-8.28,27.8-3.27,7.51,5,7.99,16.56,9.84,27.12,1.85,10.56,66.31-55.61,73.55-71.94,7.23-16.33-40.44-72.92-72.68-50.68Z"/><g><path class="cls-12" d="m793.8,1528.31v234.3h20.8l33.72-55.11s56.75,55.11,83.07,55.11h79.78c29.61,0,.6-20.56-28.9-55.11-29.5-34.54-56.65-67.44-56.65-67.44l-.06-111.76h-131.77Z"/><rect class="cls-11" x="817.4" y="1528.31" width="7.04" height="117.15"/></g><g><path class="cls-12" d="m1135.37,1545.2l87.37,217.41,19.3-7.76,10.74-63.7s73.2,29.97,97.63,20.16c24.42-9.81,46.55-18.71,74.03-29.75,27.47-11.04-7.11-19.3-47.36-40.36-40.25-21.05-77.71-41.45-77.71-41.45l-41.73-103.68-122.26,49.13Z"/><rect class="cls-11" x="1178.86" y="1530.87" width="7.04" height="117.15" transform="translate(-507.39 555.5) rotate(-21.89)"/></g><g><path class="cls-20" d="m1473.6,533.55c-7,20.16-30.27,61.1-37.68,61.94-7.39.81-33.05-13.01-33.05-13.01,0,0-2.51,1.14-6.73,3.44-6.67,3.65-17.56,10.26-29.28,19.86-22.34,18.33-25.12,25.06-37.86,34.54-12.77,9.45-11.93-47.1,17.23-82.61,9.48-11.57,20.46-12.65,27.87-18.81,7.39-6.19-14-16.06,8.22-32.9,22.19-16.87,30.84,9.87,20.55,20.13l4.31,3.71,21.2-18.9s11.51,4.1,31.64-3.29c20.16-7.42,20.58,5.74,13.58,25.9Z"/><path class="cls-18" d="m1383.22,526.67c-.52,0-1.03-.28-1.31-.77-.89-1.6-2.24-4.01-1.72-6.58.37-1.82,1.6-3.24,2.63-4.27,1.62-1.62,3.48-3.1,5.7-4.53,1.02-.66,2.14-1.32,3.42-1.69,1.53-.45,3.08-.39,4.35.18,1.47.65,2.65,2.04,3.15,3.71.41,1.37.41,2.93-.03,4.52-.22.8-1.03,1.26-1.84,1.05-.79-.22-1.26-1.04-1.05-1.84.2-.73.37-1.81.05-2.86-.26-.85-.82-1.54-1.51-1.85-.63-.28-1.43-.29-2.3-.04-.91.27-1.81.8-2.64,1.33-2.03,1.31-3.74,2.66-5.2,4.13-.78.78-1.61,1.72-1.82,2.75-.28,1.37.5,2.92,1.4,4.53.4.72.14,1.63-.58,2.03-.23.13-.48.19-.73.19Z"/><g><path class="cls-5" d="m1444.22,552.33c-1.63,1.48-4.04,1.89-6.43,1.09-2.99-.99-5.23-3.57-5.85-6.72-1.16-5.9,4.74-13.24,6.04-14.77,1.95-.56,4.46-.07,7.13,1.39,3.67,2.02,6.37,5.19,6.76,6.98.62,2.85-1.88,6.79-7.66,12.02Zm20.4,11.22c-1.63,1.48-4.03,1.89-6.43,1.09-2.99-.99-5.23-3.57-5.85-6.72-1.16-5.9,4.75-13.24,6.05-14.77,1.94-.56,4.46-.08,7.13,1.39,3.67,2.02,6.37,5.19,6.76,6.98.63,2.85-1.88,6.78-7.66,12.02Zm10.58-12.66c-.64-2.92-4.1-6.69-8.24-8.96-3.6-1.98-7.12-2.5-9.94-1.47-.23.08-.43.22-.59.4-.1.11-.79.89-1.71,2.11.25-1.1.33-2.21.09-3.31-.64-2.92-4.1-6.69-8.24-8.96-3.27-1.79-6.46-2.32-9.13-1.64l-30.75-25.23c-.63-.52-1.58-.43-2.11.21-.52.64-.43,1.58.21,2.1l30.18,24.76c-2.25,2.84-7.21,9.95-5.95,16.37.82,4.21,3.83,7.65,7.84,8.98,1.12.37,2.25.55,3.34.55,2.26,0,4.39-.78,6.04-2.27,1.46-1.33,2.96-2.79,4.32-4.33-1.06,2.63-1.68,5.52-1.14,8.29.82,4.21,3.83,7.65,7.84,8.98,1.12.37,2.25.55,3.34.55,2.26,0,4.4-.78,6.04-2.27,4.59-4.16,9.72-9.62,8.57-14.88Z"/><ellipse class="cls-32" cx="1443.54" cy="544.99" rx="2.93" ry="1.67" transform="translate(136.18 1364.53) rotate(-52.77)"/><ellipse class="cls-32" cx="1456.37" cy="552.95" rx="2.93" ry="1.67" transform="translate(134.91 1377.88) rotate(-52.77)"/><path class="cls-32" d="m1447.45,528.01c4.33-2.96,9.49,2.91,8.25,7.27-3.3-2.87-4.35-5.56-8.25-7.27h0Z"/><path class="cls-32" d="m1460.7,538c2.3-2.53,6.8-1.21,7.33,2.18-3.4-.02-4.47-.35-7.33-2.18h0Z"/></g><path class="cls-18" d="m1448.71,566.54s-.04,0-.06,0c-2.81-.12-5.49-1.28-7.35-3.19-.58-.59-.56-1.54.03-2.11.6-.57,1.54-.56,2.11.03,1.01,1.04,2.42,1.79,3.95,2.11l1.31-11.62c.09-.82.89-1.41,1.65-1.32.82.09,1.41.83,1.32,1.65l-1.48,13.12c-.09.76-.73,1.33-1.49,1.33Z"/><path class="cls-5" d="m1433.82,557.83c1.95,4.76,3.48,7.23,6.81,11.15-5.37.38-9.58-6.55-6.81-11.15h0Z"/><path class="cls-18" d="m1402.86,582.48s-2.51,1.14-6.73,3.44c-8.61-15.04-9.99-33.35-6.16-23.54,4.16,10.68,12.89,20.1,12.89,20.1Z"/></g></g><g><g><path class="cls-22" d="m1812.29,408.69l-16.87-18.55-5.47,4.97c-38.17-11.31-100.28,11.8-154.03,60.69-53.75,48.89-82.62,108.55-74.97,147.61l-5.47,4.97,16.87,18.55c31.15,34.25,110.11,13.16,176.37-47.11,66.26-60.27,94.72-136.88,63.57-171.13Z"/><ellipse class="cls-8" cx="1675.45" cy="499.26" rx="162.17" ry="83.82" transform="translate(100.08 1257.28) rotate(-42.29)"/><path class="cls-22" d="m1726.62,555.55c-55.83,50.8-120.64,72.68-153.81,54.17-3.8-2.13-7.17-4.75-10.07-7.95-28.27-31.08-.71-102.16,61.51-158.78,62.26-56.62,135.65-77.33,163.92-46.26.64.71,1.28,1.45,1.84,2.24,25.08,32.14-2.59,101.28-63.39,156.58Z"/><path class="cls-25" d="m1760.23,519.49c-9.63,12.32-20.9,24.49-33.62,36.07-55.84,50.78-120.65,72.68-153.82,54.16-2.96-3.83-5.17-8.13-6.7-12.92-8.82-27.6,6.19-69.84,38.64-110.18,9.12-11.43,19.68-22.67,31.49-33.41,55.84-50.75,120.62-72.68,153.79-54.25,3.44,4.4,5.86,9.48,7.36,15.16,7.21,27.01-7,66.87-37.15,105.37Z"/><path class="cls-28" d="m1798.04,442.69c-1.88,11.31-5.98,23.6-12.14,36.31-6.43,13.25-15.04,26.95-25.66,40.5l-194.13,77.31c-3.02-9.42-3.26-20.52-.96-32.69,2.3-12.23,7.15-25.57,14.33-39.27,6.55-12.59,15.04-25.48,25.27-38.22l192.64-72.5c2.24,8.4,2.42,18.06.66,28.56Z"/><path class="cls-33" d="m1798.04,442.69c-1.88,11.31-5.98,23.6-12.14,36.31l-220.75,85.12c2.3-12.23,7.15-25.57,14.33-39.27l218.57-82.16Z"/></g><path class="cls-21" d="m1569.82,619.71l-338.58,297.38c-11.16,9.8-11.72,26.99-1.21,37.5h0c10.13,10.13,26.58,10.03,36.58-.22l207.06-212.2,109.56-109.28-13.41-13.18Z"/></g><g><g><path class="cls-27" d="m1252.95,578.9c-29.34-24.75-74.65-11.79-88.45,24.03-25.29,65.61-80.66,211.63-89.5,254.61-11.51,56.02,52.95,120.48,115.88,87.48,62.93-33,118.18-54.48,118.18-54.48,0,0-21.49-28.39-17.65-80.58l-77.51,2.3s55.25-159.62,55.25-200.29c0-13.56-6.39-24.81-16.2-33.08Z"/><path class="cls-14" d="m1213.9,813.76c-.16,0-.33-.03-.49-.08-.78-.27-1.19-1.12-.93-1.9.55-1.59,55.17-159.84,55.17-199.8,0-.83.67-1.5,1.5-1.5s1.5.67,1.5,1.5c0,40.46-53.07,194.25-55.33,200.78-.21.62-.79,1.01-1.41,1.01Z"/><path class="cls-14" d="m1155.43,955.55c-16.47,0-32.79-5.59-47.47-16.64-26.52-19.96-40.35-52.78-34.42-81.67,8.92-43.4,65.61-192.68,89.57-254.85.3-.77,1.16-1.15,1.93-.86s1.15,1.16.86,1.93c-23.93,62.1-80.56,211.2-89.43,254.38-5.71,27.78,7.67,59.39,33.28,78.68,24.56,18.49,53.88,21.11,80.43,7.18.72-.38,1.63-.1,2.02.63.39.73.1,1.64-.63,2.02-11.73,6.15-23.98,9.2-36.15,9.2Z"/><path class="cls-14" d="m1213.9,813.76h-64.23c-.83,0-1.5-.67-1.5-1.5s.67-1.5,1.5-1.5h64.23c.83,0,1.5.67,1.5,1.5s-.67,1.5-1.5,1.5Z"/></g><g><path class="cls-20" d="m1291.41,809.96l51.28-6.74s43.88-49.04,53.56-54.85c9.68-5.81,7.1,11.69,7.1,11.69l-20,31.54s23.88,12.26,37.43,3.23c13.55-9.03,38.72-34.77,38.72-34.77,0,0,9.68,10.25-4.52,27.02,0,0,7.1,5.09-10.97,22.87,0,0,9.68,10.04-12.91,22.3,0,0,11.34,7.74-14.01,18.71-25.35,10.97-43.57,6.21-108.02,39.57,0,0-45.06-20.27-17.65-80.58Z"/><path class="cls-18" d="m1410.92,817.54c-.64,0-1.23-.41-1.43-1.05-.25-.79.2-1.63.98-1.87,16.25-5.04,30.37-13.26,43.49-28.82.54-.63,1.48-.71,2.11-.18.63.53.71,1.48.18,2.11-11.67,13.83-27.61,24.39-44.89,29.75-.15.05-.3.07-.44.07Z"/><path class="cls-18" d="m1408.19,828.9c-.66,0-1.26-.43-1.44-1.1-.22-.8.25-1.62,1.05-1.84,11.62-3.2,24.49-5.08,35.95-17.41.57-.61,1.51-.64,2.11-.08.6.56.64,1.51.08,2.11-9.95,10.7-25.14,14.89-37.35,18.25-.13.04-.27.05-.4.05Z"/><path class="cls-18" d="m1402.82,840.11c-.75,0-1.4-.57-1.48-1.34-.09-.82.51-1.56,1.33-1.65,9.4-1,18.7-3.05,27.65-6.1.79-.26,1.63.15,1.9.93.27.78-.15,1.63-.93,1.9-9.16,3.12-18.67,5.22-28.3,6.24-.05,0-.11,0-.16,0Z"/></g></g></g></svg>
